M48
;Layer_Color=9474304
;FILE_FORMAT=4:4
METRIC,TZ
;TYPE=PLATED
T1F00S00C0.1500
%
T01
X295500Y289500
X295500Y294500
X295500Y299750
X295500Y304750
X295500Y310000
X295500Y314750
X295500Y319500
X369500Y332000
X379000Y327250
X392000Y315000
X392000Y310000
X394000Y305000
X394000Y293000
X387750Y272000
X377000Y269000
X384500Y260500
X370000Y289000
X369500Y299000
X369500Y305500
X398500Y304750
X403000Y304750
X400000Y289500
X412500Y275000
M30
