G04*
G04 #@! TF.GenerationSoftware,Altium Limited,Altium Designer,23.2.1 (34)*
G04*
G04 Layer_Physical_Order=3*
G04 Layer_Color=16737945*
%FSLAX44Y44*%
%MOMM*%
G71*
G04*
G04 #@! TF.SameCoordinates,65844937-C824-47D7-9260-582DF4BCFB51*
G04*
G04*
G04 #@! TF.FilePolarity,Positive*
G04*
G01*
G75*
%ADD24R,1.3980X1.3980*%
%ADD25C,1.3980*%
%ADD26C,1.5700*%
%ADD27R,1.5700X1.5700*%
%ADD28C,0.6000*%
G04:AMPARAMS|DCode=29|XSize=0.85mm|YSize=0.5mm|CornerRadius=0.25mm|HoleSize=0mm|Usage=FLASHONLY|Rotation=90.000|XOffset=0mm|YOffset=0mm|HoleType=Round|Shape=RoundedRectangle|*
%AMROUNDEDRECTD29*
21,1,0.8500,0.0000,0,0,90.0*
21,1,0.3500,0.5000,0,0,90.0*
1,1,0.5000,0.0000,0.1750*
1,1,0.5000,0.0000,-0.1750*
1,1,0.5000,0.0000,-0.1750*
1,1,0.5000,0.0000,0.1750*
%
%ADD29ROUNDEDRECTD29*%
G04:AMPARAMS|DCode=30|XSize=1.3mm|YSize=2.6mm|CornerRadius=0.65mm|HoleSize=0mm|Usage=FLASHONLY|Rotation=90.000|XOffset=0mm|YOffset=0mm|HoleType=Round|Shape=RoundedRectangle|*
%AMROUNDEDRECTD30*
21,1,1.3000,1.3000,0,0,90.0*
21,1,0.0000,2.6000,0,0,90.0*
1,1,1.3000,0.6500,0.0000*
1,1,1.3000,0.6500,0.0000*
1,1,1.3000,-0.6500,0.0000*
1,1,1.3000,-0.6500,0.0000*
%
%ADD30ROUNDEDRECTD30*%
G04:AMPARAMS|DCode=31|XSize=0.6mm|YSize=1.9mm|CornerRadius=0.3mm|HoleSize=0mm|Usage=FLASHONLY|Rotation=90.000|XOffset=0mm|YOffset=0mm|HoleType=Round|Shape=RoundedRectangle|*
%AMROUNDEDRECTD31*
21,1,0.6000,1.3000,0,0,90.0*
21,1,0.0000,1.9000,0,0,90.0*
1,1,0.6000,0.6500,0.0000*
1,1,0.6000,0.6500,0.0000*
1,1,0.6000,-0.6500,0.0000*
1,1,0.6000,-0.6500,0.0000*
%
%ADD31ROUNDEDRECTD31*%
G04:AMPARAMS|DCode=32|XSize=1.25mm|YSize=0.7mm|CornerRadius=0.35mm|HoleSize=0mm|Usage=FLASHONLY|Rotation=90.000|XOffset=0mm|YOffset=0mm|HoleType=Round|Shape=RoundedRectangle|*
%AMROUNDEDRECTD32*
21,1,1.2500,0.0000,0,0,90.0*
21,1,0.5500,0.7000,0,0,90.0*
1,1,0.7000,0.0000,0.2750*
1,1,0.7000,0.0000,-0.2750*
1,1,0.7000,0.0000,-0.2750*
1,1,0.7000,0.0000,0.2750*
%
%ADD32ROUNDEDRECTD32*%
%ADD33C,0.3500*%
G36*
X1149361Y746104D02*
X1148091Y745673D01*
X1147519Y746419D01*
X1145952Y747621D01*
X1144128Y748377D01*
X1142170Y748635D01*
X1129170Y748635D01*
X1127212Y748377D01*
X1125387Y747621D01*
X1123821Y746419D01*
X1122619Y744852D01*
X1121863Y743028D01*
X1121605Y741070D01*
X1121863Y739112D01*
X1122619Y737288D01*
X1123821Y735721D01*
X1125387Y734519D01*
X1127212Y733763D01*
X1129170Y733505D01*
X1142170Y733505D01*
X1144128Y733763D01*
X1145952Y734519D01*
X1147519Y735721D01*
X1148091Y736467D01*
X1149361Y736036D01*
X1149361Y659704D01*
X1148091Y659273D01*
X1147519Y660019D01*
X1145952Y661221D01*
X1144128Y661977D01*
X1142170Y662235D01*
X1129170Y662235D01*
X1127212Y661977D01*
X1125387Y661221D01*
X1123821Y660019D01*
X1122619Y658452D01*
X1121863Y656628D01*
X1121605Y654670D01*
X1121863Y652712D01*
X1122619Y650888D01*
X1123821Y649321D01*
X1125387Y648119D01*
X1127212Y647363D01*
X1129170Y647105D01*
X1142170Y647105D01*
X1144128Y647363D01*
X1145952Y648119D01*
X1147519Y649321D01*
X1148091Y650067D01*
X1149361Y649635D01*
X1149361Y525928D01*
X755479Y525928D01*
X755479Y869811D01*
X1149361Y869811D01*
X1149361Y746104D01*
X1149361Y746104D02*
G37*
%LPC*%
G36*
X1096910Y837760D02*
X1088670Y837760D01*
X1088670Y829520D01*
X1096910Y829520D01*
X1096910Y837760D01*
X1096910Y837760D02*
G37*
G36*
X1086170Y837760D02*
X1077930Y837760D01*
X1077930Y829520D01*
X1086170Y829520D01*
X1086170Y837760D01*
X1086170Y837760D02*
G37*
G36*
X1063072Y836260D02*
X1060968Y836260D01*
X1058936Y835715D01*
X1057114Y834663D01*
X1055626Y833176D01*
X1054574Y831354D01*
X1054030Y829322D01*
X1054030Y827218D01*
X1054574Y825186D01*
X1055626Y823364D01*
X1057114Y821876D01*
X1058936Y820824D01*
X1060968Y820280D01*
X1063072Y820280D01*
X1065104Y820824D01*
X1066926Y821876D01*
X1068413Y823364D01*
X1069465Y825186D01*
X1070010Y827218D01*
X1070010Y829322D01*
X1069465Y831354D01*
X1068413Y833176D01*
X1066926Y834663D01*
X1065104Y835715D01*
X1063072Y836260D01*
X1063072Y836260D02*
G37*
G36*
X1037672Y836260D02*
X1035568Y836260D01*
X1033536Y835715D01*
X1031714Y834663D01*
X1030226Y833176D01*
X1029174Y831354D01*
X1028630Y829322D01*
X1028630Y827218D01*
X1029174Y825186D01*
X1030226Y823364D01*
X1031714Y821876D01*
X1033536Y820824D01*
X1035568Y820280D01*
X1037672Y820280D01*
X1039704Y820824D01*
X1041526Y821876D01*
X1043014Y823364D01*
X1044065Y825186D01*
X1044610Y827218D01*
X1044610Y829322D01*
X1044065Y831354D01*
X1043014Y833176D01*
X1041526Y834663D01*
X1039704Y835715D01*
X1037672Y836260D01*
X1037672Y836260D02*
G37*
G36*
X1012272Y836260D02*
X1010168Y836260D01*
X1008136Y835715D01*
X1006314Y834663D01*
X1004826Y833176D01*
X1003774Y831354D01*
X1003230Y829322D01*
X1003230Y827218D01*
X1003774Y825186D01*
X1004826Y823364D01*
X1006314Y821876D01*
X1008136Y820824D01*
X1010168Y820280D01*
X1012272Y820280D01*
X1014304Y820824D01*
X1016126Y821876D01*
X1017614Y823364D01*
X1018665Y825186D01*
X1019210Y827218D01*
X1019210Y829322D01*
X1018665Y831354D01*
X1017614Y833176D01*
X1016126Y834663D01*
X1014304Y835715D01*
X1012272Y836260D01*
X1012272Y836260D02*
G37*
G36*
X986872Y836260D02*
X984768Y836260D01*
X982736Y835715D01*
X980914Y834663D01*
X979426Y833176D01*
X978374Y831354D01*
X977830Y829322D01*
X977830Y827218D01*
X978374Y825186D01*
X979426Y823364D01*
X980914Y821876D01*
X982736Y820824D01*
X984768Y820280D01*
X986872Y820280D01*
X988904Y820824D01*
X990726Y821876D01*
X992214Y823364D01*
X993265Y825186D01*
X993810Y827218D01*
X993810Y829322D01*
X993265Y831354D01*
X992214Y833176D01*
X990726Y834663D01*
X988904Y835715D01*
X986872Y836260D01*
X986872Y836260D02*
G37*
G36*
X961472Y836260D02*
X959368Y836260D01*
X957336Y835715D01*
X955514Y834663D01*
X954026Y833176D01*
X952974Y831354D01*
X952430Y829322D01*
X952430Y827218D01*
X952974Y825186D01*
X954026Y823364D01*
X955514Y821876D01*
X957336Y820824D01*
X959368Y820280D01*
X961472Y820280D01*
X963504Y820824D01*
X965326Y821876D01*
X966814Y823364D01*
X967865Y825186D01*
X968410Y827218D01*
X968410Y829322D01*
X967865Y831354D01*
X966814Y833176D01*
X965326Y834663D01*
X963504Y835715D01*
X961472Y836260D01*
X961472Y836260D02*
G37*
G36*
X936072Y836260D02*
X933968Y836260D01*
X931936Y835715D01*
X930114Y834663D01*
X928626Y833176D01*
X927574Y831354D01*
X927030Y829322D01*
X927030Y827218D01*
X927574Y825186D01*
X928626Y823364D01*
X930114Y821876D01*
X931936Y820824D01*
X933968Y820280D01*
X936072Y820280D01*
X938104Y820824D01*
X939926Y821876D01*
X941413Y823364D01*
X942465Y825186D01*
X943010Y827218D01*
X943010Y829322D01*
X942465Y831354D01*
X941413Y833176D01*
X939926Y834663D01*
X938104Y835715D01*
X936072Y836260D01*
X936072Y836260D02*
G37*
G36*
X910672Y836260D02*
X908568Y836260D01*
X906536Y835715D01*
X904714Y834663D01*
X903226Y833176D01*
X902174Y831354D01*
X901630Y829322D01*
X901630Y827218D01*
X902174Y825186D01*
X903226Y823364D01*
X904714Y821876D01*
X906536Y820824D01*
X908568Y820280D01*
X910672Y820280D01*
X912704Y820824D01*
X914526Y821876D01*
X916013Y823364D01*
X917065Y825186D01*
X917610Y827218D01*
X917610Y829322D01*
X917065Y831354D01*
X916013Y833176D01*
X914526Y834663D01*
X912704Y835715D01*
X910672Y836260D01*
X910672Y836260D02*
G37*
G36*
X885272Y836260D02*
X883168Y836260D01*
X881136Y835715D01*
X879314Y834663D01*
X877826Y833176D01*
X876774Y831354D01*
X876230Y829322D01*
X876230Y827218D01*
X876774Y825186D01*
X877826Y823364D01*
X879314Y821876D01*
X881136Y820824D01*
X883168Y820280D01*
X885272Y820280D01*
X887304Y820824D01*
X889126Y821876D01*
X890613Y823364D01*
X891665Y825186D01*
X892210Y827218D01*
X892210Y829322D01*
X891665Y831354D01*
X890613Y833176D01*
X889126Y834663D01*
X887304Y835715D01*
X885272Y836260D01*
X885272Y836260D02*
G37*
G36*
X859872Y836260D02*
X857768Y836260D01*
X855736Y835715D01*
X853914Y834663D01*
X852426Y833176D01*
X851374Y831354D01*
X850830Y829322D01*
X850830Y827218D01*
X851374Y825186D01*
X852426Y823364D01*
X853914Y821876D01*
X855736Y820824D01*
X857768Y820280D01*
X859872Y820280D01*
X861904Y820824D01*
X863726Y821876D01*
X865213Y823364D01*
X866265Y825186D01*
X866810Y827218D01*
X866810Y829322D01*
X866265Y831354D01*
X865213Y833176D01*
X863726Y834663D01*
X861904Y835715D01*
X859872Y836260D01*
X859872Y836260D02*
G37*
G36*
X1096910Y827020D02*
X1088670Y827020D01*
X1088670Y818780D01*
X1096910Y818780D01*
X1096910Y827020D01*
X1096910Y827020D02*
G37*
G36*
X1086170Y827020D02*
X1077930Y827020D01*
X1077930Y818780D01*
X1086170Y818780D01*
X1086170Y827020D01*
X1086170Y827020D02*
G37*
G36*
X1088670Y812360D02*
X1088670Y804120D01*
X1096910Y804120D01*
X1096263Y806533D01*
X1095014Y808697D01*
X1093247Y810464D01*
X1091083Y811713D01*
X1088670Y812360D01*
X1088670Y812360D02*
G37*
G36*
X1086170Y812360D02*
X1083757Y811713D01*
X1081593Y810464D01*
X1079826Y808697D01*
X1078577Y806533D01*
X1077930Y804120D01*
X1086170Y804120D01*
X1086170Y812360D01*
X1086170Y812360D02*
G37*
G36*
X1063072Y810860D02*
X1060968Y810860D01*
X1058936Y810315D01*
X1057114Y809264D01*
X1055626Y807776D01*
X1054574Y805954D01*
X1054030Y803922D01*
X1054030Y801818D01*
X1054574Y799786D01*
X1055626Y797964D01*
X1057114Y796476D01*
X1058936Y795424D01*
X1060968Y794880D01*
X1063072Y794880D01*
X1065104Y795424D01*
X1066926Y796476D01*
X1068413Y797964D01*
X1069465Y799786D01*
X1070010Y801818D01*
X1070010Y803922D01*
X1069465Y805954D01*
X1068413Y807776D01*
X1066926Y809264D01*
X1065104Y810315D01*
X1063072Y810860D01*
X1063072Y810860D02*
G37*
G36*
X1037672Y810860D02*
X1035568Y810860D01*
X1033536Y810315D01*
X1031714Y809264D01*
X1030226Y807776D01*
X1029174Y805954D01*
X1028630Y803922D01*
X1028630Y801818D01*
X1029174Y799786D01*
X1030226Y797964D01*
X1031714Y796476D01*
X1033536Y795424D01*
X1035568Y794880D01*
X1037672Y794880D01*
X1039704Y795424D01*
X1041526Y796476D01*
X1043014Y797964D01*
X1044065Y799786D01*
X1044610Y801818D01*
X1044610Y803922D01*
X1044065Y805954D01*
X1043014Y807776D01*
X1041526Y809264D01*
X1039704Y810315D01*
X1037672Y810860D01*
X1037672Y810860D02*
G37*
G36*
X1012272Y810860D02*
X1010168Y810860D01*
X1008136Y810315D01*
X1006314Y809264D01*
X1004826Y807776D01*
X1003774Y805954D01*
X1003230Y803922D01*
X1003230Y801818D01*
X1003774Y799786D01*
X1004826Y797964D01*
X1006314Y796476D01*
X1008136Y795424D01*
X1010168Y794880D01*
X1012272Y794880D01*
X1014304Y795424D01*
X1016126Y796476D01*
X1017614Y797964D01*
X1018665Y799786D01*
X1019210Y801818D01*
X1019210Y803922D01*
X1018665Y805954D01*
X1017614Y807776D01*
X1016126Y809264D01*
X1014304Y810315D01*
X1012272Y810860D01*
X1012272Y810860D02*
G37*
G36*
X986872Y810860D02*
X984768Y810860D01*
X982736Y810315D01*
X980914Y809264D01*
X979426Y807776D01*
X978374Y805954D01*
X977830Y803922D01*
X977830Y801818D01*
X978374Y799786D01*
X979426Y797964D01*
X980914Y796476D01*
X982736Y795424D01*
X984768Y794880D01*
X986872Y794880D01*
X988904Y795424D01*
X990726Y796476D01*
X992214Y797964D01*
X993265Y799786D01*
X993810Y801818D01*
X993810Y803922D01*
X993265Y805954D01*
X992214Y807776D01*
X990726Y809264D01*
X988904Y810315D01*
X986872Y810860D01*
X986872Y810860D02*
G37*
G36*
X961472Y810860D02*
X959368Y810860D01*
X957336Y810315D01*
X955514Y809264D01*
X954026Y807776D01*
X952974Y805954D01*
X952430Y803922D01*
X952430Y801818D01*
X952974Y799786D01*
X954026Y797964D01*
X955514Y796476D01*
X957336Y795424D01*
X959368Y794880D01*
X961472Y794880D01*
X963504Y795424D01*
X965326Y796476D01*
X966814Y797964D01*
X967865Y799786D01*
X968410Y801818D01*
X968410Y803922D01*
X967865Y805954D01*
X966814Y807776D01*
X965326Y809264D01*
X963504Y810315D01*
X961472Y810860D01*
X961472Y810860D02*
G37*
G36*
X936072Y810860D02*
X933968Y810860D01*
X931936Y810315D01*
X930114Y809264D01*
X928626Y807776D01*
X927574Y805954D01*
X927030Y803922D01*
X927030Y801818D01*
X927574Y799786D01*
X928626Y797964D01*
X930114Y796476D01*
X931936Y795424D01*
X933968Y794880D01*
X936072Y794880D01*
X938104Y795424D01*
X939926Y796476D01*
X941413Y797964D01*
X942465Y799786D01*
X943010Y801818D01*
X943010Y803922D01*
X942465Y805954D01*
X941413Y807776D01*
X939926Y809264D01*
X938104Y810315D01*
X936072Y810860D01*
X936072Y810860D02*
G37*
G36*
X910672Y810860D02*
X908568Y810860D01*
X906536Y810315D01*
X904714Y809264D01*
X903226Y807776D01*
X902174Y805954D01*
X901630Y803922D01*
X901630Y801818D01*
X902174Y799786D01*
X903226Y797964D01*
X904714Y796476D01*
X906536Y795424D01*
X908568Y794880D01*
X910672Y794880D01*
X912704Y795424D01*
X914526Y796476D01*
X916013Y797964D01*
X917065Y799786D01*
X917610Y801818D01*
X917610Y803922D01*
X917065Y805954D01*
X916013Y807776D01*
X914526Y809264D01*
X912704Y810315D01*
X910672Y810860D01*
X910672Y810860D02*
G37*
G36*
X885272Y810860D02*
X883168Y810860D01*
X881136Y810315D01*
X879314Y809264D01*
X877826Y807776D01*
X876774Y805954D01*
X876230Y803922D01*
X876230Y801818D01*
X876774Y799786D01*
X877826Y797964D01*
X879314Y796476D01*
X881136Y795424D01*
X883168Y794880D01*
X885272Y794880D01*
X887304Y795424D01*
X889126Y796476D01*
X890613Y797964D01*
X891665Y799786D01*
X892210Y801818D01*
X892210Y803922D01*
X891665Y805954D01*
X890613Y807776D01*
X889126Y809264D01*
X887304Y810315D01*
X885272Y810860D01*
X885272Y810860D02*
G37*
G36*
X859872Y810860D02*
X857768Y810860D01*
X855736Y810315D01*
X853914Y809264D01*
X852426Y807776D01*
X851374Y805954D01*
X850830Y803922D01*
X850830Y801818D01*
X851374Y799786D01*
X852426Y797964D01*
X853914Y796476D01*
X855736Y795424D01*
X857768Y794880D01*
X859872Y794880D01*
X861904Y795424D01*
X863726Y796476D01*
X865213Y797964D01*
X866265Y799786D01*
X866810Y801818D01*
X866810Y803922D01*
X866265Y805954D01*
X865213Y807776D01*
X863726Y809264D01*
X861904Y810315D01*
X859872Y810860D01*
X859872Y810860D02*
G37*
G36*
X1096910Y801620D02*
X1088670Y801620D01*
X1088670Y793380D01*
X1091083Y794027D01*
X1093247Y795276D01*
X1095014Y797043D01*
X1096263Y799207D01*
X1096910Y801620D01*
X1096910Y801620D02*
G37*
G36*
X1086170Y801620D02*
X1077930Y801620D01*
X1078577Y799207D01*
X1079826Y797043D01*
X1081593Y795276D01*
X1083757Y794027D01*
X1086170Y793380D01*
X1086170Y801620D01*
X1086170Y801620D02*
G37*
G36*
X779717Y762370D02*
X778623Y762370D01*
X777612Y761951D01*
X776839Y761178D01*
X776420Y760167D01*
X776420Y759073D01*
X776839Y758062D01*
X777612Y757289D01*
X778623Y756870D01*
X779717Y756870D01*
X780728Y757289D01*
X781501Y758062D01*
X781920Y759073D01*
X781920Y760167D01*
X781501Y761178D01*
X780728Y761951D01*
X779717Y762370D01*
X779717Y762370D02*
G37*
G36*
X1090670Y748152D02*
X1090670Y748152D01*
X1090670Y748152D01*
X1079670Y748152D01*
X1079198Y748152D01*
X1079115Y748118D01*
X1079028Y748139D01*
X1078096Y747991D01*
X1078019Y747944D01*
X1077930Y747952D01*
X1077032Y747660D01*
X1076964Y747602D01*
X1076875Y747595D01*
X1076034Y747166D01*
X1075976Y747098D01*
X1075889Y747077D01*
X1075125Y746522D01*
X1075078Y746446D01*
X1074996Y746412D01*
X1074328Y745744D01*
X1074294Y745661D01*
X1074218Y745615D01*
X1073663Y744851D01*
X1073642Y744764D01*
X1073574Y744706D01*
X1073145Y743865D01*
X1073138Y743775D01*
X1073080Y743708D01*
X1072788Y742809D01*
X1072795Y742720D01*
X1072749Y742644D01*
X1072601Y741711D01*
X1072622Y741625D01*
X1072588Y741542D01*
X1072588Y740598D01*
X1072622Y740515D01*
X1072601Y740428D01*
X1072749Y739495D01*
X1072795Y739419D01*
X1072788Y739330D01*
X1073080Y738432D01*
X1073138Y738364D01*
X1073145Y738275D01*
X1073574Y737434D01*
X1073642Y737376D01*
X1073663Y737289D01*
X1074218Y736525D01*
X1074294Y736478D01*
X1074328Y736396D01*
X1074996Y735728D01*
X1075078Y735694D01*
X1075125Y735618D01*
X1075889Y735063D01*
X1075976Y735042D01*
X1076034Y734974D01*
X1076875Y734545D01*
X1076964Y734538D01*
X1077032Y734480D01*
X1077930Y734188D01*
X1078019Y734195D01*
X1078096Y734149D01*
X1079028Y734001D01*
X1079115Y734022D01*
X1079198Y733988D01*
X1079670Y733988D01*
X1079670Y733988D01*
X1084829Y733988D01*
X1085084Y733307D01*
X1085152Y733235D01*
X1085166Y733136D01*
X1085658Y732303D01*
X1085738Y732243D01*
X1085769Y732148D01*
X1086400Y731414D01*
X1086488Y731369D01*
X1086535Y731281D01*
X1087285Y730668D01*
X1087380Y730639D01*
X1087442Y730561D01*
X1088287Y730088D01*
X1088385Y730077D01*
X1088460Y730011D01*
X1089374Y729693D01*
X1089474Y729698D01*
X1089558Y729646D01*
X1090514Y729493D01*
X1090611Y729516D01*
X1090704Y729480D01*
X1091167Y729487D01*
X1091200Y729487D01*
X1091203Y729488D01*
X1091206Y729487D01*
X1091239Y729486D01*
X1091243Y729488D01*
X1091247Y729486D01*
X1091280Y729486D01*
X1091283Y729487D01*
X1091286Y729486D01*
X1091768Y729486D01*
X1091857Y729522D01*
X1091950Y729501D01*
X1092868Y729658D01*
X1092949Y729709D01*
X1093045Y729704D01*
X1093923Y730012D01*
X1093994Y730076D01*
X1094090Y730087D01*
X1094904Y730539D01*
X1094963Y730614D01*
X1095055Y730641D01*
X1095782Y731223D01*
X1095828Y731307D01*
X1095914Y731349D01*
X1096533Y732045D01*
X1096564Y732135D01*
X1096642Y732191D01*
X1097134Y732981D01*
X1097150Y733076D01*
X1097217Y733144D01*
X1097570Y734006D01*
X1097570Y734101D01*
X1097625Y734180D01*
X1097726Y734634D01*
X1097705Y734756D01*
X1097752Y734870D01*
X1097752Y741463D01*
X1097724Y741532D01*
X1097743Y741604D01*
X1097640Y742384D01*
X1097603Y742449D01*
X1097613Y742523D01*
X1097409Y743283D01*
X1097364Y743342D01*
X1097364Y743417D01*
X1097063Y744144D01*
X1097010Y744196D01*
X1097000Y744270D01*
X1096607Y744952D01*
X1096547Y744997D01*
X1096528Y745069D01*
X1096049Y745693D01*
X1095985Y745731D01*
X1095956Y745800D01*
X1095400Y746356D01*
X1095331Y746385D01*
X1095293Y746449D01*
X1094669Y746928D01*
X1094597Y746947D01*
X1094552Y747007D01*
X1093870Y747400D01*
X1093796Y747410D01*
X1093744Y747463D01*
X1093017Y747764D01*
X1092942Y747764D01*
X1092883Y747809D01*
X1092123Y748013D01*
X1092049Y748003D01*
X1091984Y748040D01*
X1091204Y748143D01*
X1091132Y748124D01*
X1091063Y748152D01*
X1090670Y748152D01*
X1090670Y748152D02*
G37*
G36*
X959270Y753220D02*
X950170Y753220D01*
X950170Y744120D01*
X959270Y744120D01*
X959270Y753220D01*
X959270Y753220D02*
G37*
G36*
X947670Y753220D02*
X938570Y753220D01*
X938570Y744120D01*
X947670Y744120D01*
X947670Y753220D01*
X947670Y753220D02*
G37*
G36*
X924685Y751720D02*
X922355Y751720D01*
X920104Y751117D01*
X918086Y749952D01*
X916438Y748304D01*
X915273Y746286D01*
X914670Y744035D01*
X914670Y741705D01*
X915273Y739454D01*
X916438Y737436D01*
X918086Y735788D01*
X920104Y734623D01*
X922355Y734020D01*
X924685Y734020D01*
X926936Y734623D01*
X928954Y735788D01*
X930602Y737436D01*
X931767Y739454D01*
X932370Y741705D01*
X932370Y744035D01*
X931767Y746286D01*
X930602Y748304D01*
X928954Y749952D01*
X926936Y751117D01*
X924685Y751720D01*
X924685Y751720D02*
G37*
G36*
X899285Y751720D02*
X896955Y751720D01*
X894704Y751117D01*
X892686Y749952D01*
X891038Y748304D01*
X889873Y746286D01*
X889270Y744035D01*
X889270Y741705D01*
X889873Y739454D01*
X891038Y737436D01*
X892686Y735788D01*
X894704Y734623D01*
X896955Y734020D01*
X899285Y734020D01*
X901536Y734623D01*
X903554Y735788D01*
X905202Y737436D01*
X906367Y739454D01*
X906970Y741705D01*
X906970Y744035D01*
X906367Y746286D01*
X905202Y748304D01*
X903554Y749952D01*
X901536Y751117D01*
X899285Y751720D01*
X899285Y751720D02*
G37*
G36*
X873885Y751720D02*
X871555Y751720D01*
X869304Y751117D01*
X867286Y749952D01*
X865638Y748304D01*
X864473Y746286D01*
X863870Y744035D01*
X863870Y741705D01*
X864473Y739454D01*
X865638Y737436D01*
X867286Y735788D01*
X869304Y734623D01*
X871555Y734020D01*
X873885Y734020D01*
X876136Y734623D01*
X878154Y735788D01*
X879802Y737436D01*
X880967Y739454D01*
X881570Y741705D01*
X881570Y744035D01*
X880967Y746286D01*
X879802Y748304D01*
X878154Y749952D01*
X876136Y751117D01*
X873885Y751720D01*
X873885Y751720D02*
G37*
G36*
X848485Y751720D02*
X846155Y751720D01*
X843904Y751117D01*
X841886Y749952D01*
X840238Y748304D01*
X839073Y746286D01*
X838470Y744035D01*
X838470Y741705D01*
X839073Y739454D01*
X840238Y737436D01*
X841886Y735788D01*
X843904Y734623D01*
X846155Y734020D01*
X848485Y734020D01*
X850736Y734623D01*
X852754Y735788D01*
X854402Y737436D01*
X855567Y739454D01*
X856170Y741705D01*
X856170Y744035D01*
X855567Y746286D01*
X854402Y748304D01*
X852754Y749952D01*
X850736Y751117D01*
X848485Y751720D01*
X848485Y751720D02*
G37*
G36*
X823085Y751720D02*
X820755Y751720D01*
X818504Y751117D01*
X816486Y749952D01*
X814838Y748304D01*
X813673Y746286D01*
X813070Y744035D01*
X813070Y741705D01*
X813673Y739454D01*
X814838Y737436D01*
X816486Y735788D01*
X818504Y734623D01*
X820755Y734020D01*
X823085Y734020D01*
X825336Y734623D01*
X827354Y735788D01*
X829002Y737436D01*
X830167Y739454D01*
X830770Y741705D01*
X830770Y744035D01*
X830167Y746286D01*
X829002Y748304D01*
X827354Y749952D01*
X825336Y751117D01*
X823085Y751720D01*
X823085Y751720D02*
G37*
G36*
X959270Y741620D02*
X950170Y741620D01*
X950170Y732520D01*
X959270Y732520D01*
X959270Y741620D01*
X959270Y741620D02*
G37*
G36*
X947670Y741620D02*
X938570Y741620D01*
X938570Y732520D01*
X947670Y732520D01*
X947670Y741620D01*
X947670Y741620D02*
G37*
G36*
X1104520Y739189D02*
X1103154Y738917D01*
X1101997Y738143D01*
X1101223Y736985D01*
X1100951Y735620D01*
X1100951Y732120D01*
X1101223Y730754D01*
X1101997Y729596D01*
X1103154Y728823D01*
X1104520Y728551D01*
X1105885Y728823D01*
X1107043Y729596D01*
X1107817Y730754D01*
X1108089Y732120D01*
X1108089Y735620D01*
X1107817Y736985D01*
X1107043Y738143D01*
X1105885Y738917D01*
X1104520Y739189D01*
X1104520Y739189D02*
G37*
G36*
X779217Y730120D02*
X778123Y730120D01*
X777112Y729701D01*
X776339Y728928D01*
X775920Y727917D01*
X775920Y726823D01*
X776339Y725812D01*
X777112Y725039D01*
X778123Y724620D01*
X779217Y724620D01*
X780228Y725039D01*
X781001Y725812D01*
X781420Y726823D01*
X781420Y727917D01*
X781001Y728928D01*
X780228Y729701D01*
X779217Y730120D01*
X779217Y730120D02*
G37*
G36*
X1101717Y726870D02*
X1100623Y726870D01*
X1099612Y726451D01*
X1098839Y725678D01*
X1098420Y724667D01*
X1098420Y723573D01*
X1098839Y722562D01*
X1099612Y721789D01*
X1100623Y721370D01*
X1101717Y721370D01*
X1102728Y721789D01*
X1103501Y722562D01*
X1103920Y723573D01*
X1103920Y724667D01*
X1103501Y725678D01*
X1102728Y726451D01*
X1101717Y726870D01*
X1101717Y726870D02*
G37*
G36*
X1011767Y719370D02*
X1010673Y719370D01*
X1009662Y718951D01*
X1008889Y718178D01*
X1008470Y717167D01*
X1008470Y716073D01*
X1008889Y715062D01*
X1009662Y714289D01*
X1010673Y713870D01*
X1011767Y713870D01*
X1012778Y714289D01*
X1013551Y715062D01*
X1013970Y716073D01*
X1013970Y717167D01*
X1013551Y718178D01*
X1012778Y718951D01*
X1011767Y719370D01*
X1011767Y719370D02*
G37*
G36*
X1134717Y716120D02*
X1133623Y716120D01*
X1132612Y715701D01*
X1131839Y714928D01*
X1131420Y713917D01*
X1131420Y712823D01*
X1131839Y711812D01*
X1132612Y711039D01*
X1133623Y710620D01*
X1134717Y710620D01*
X1135728Y711039D01*
X1136501Y711812D01*
X1136920Y712823D01*
X1136920Y713917D01*
X1136501Y714928D01*
X1135728Y715701D01*
X1134717Y716120D01*
X1134717Y716120D02*
G37*
G36*
X1069967Y714370D02*
X1068873Y714370D01*
X1067862Y713951D01*
X1067089Y713178D01*
X1066670Y712167D01*
X1066670Y711073D01*
X1067089Y710062D01*
X1067862Y709289D01*
X1068873Y708870D01*
X1069967Y708870D01*
X1070978Y709289D01*
X1071751Y710062D01*
X1072170Y711073D01*
X1072170Y712167D01*
X1071751Y713178D01*
X1070978Y713951D01*
X1069967Y714370D01*
X1069967Y714370D02*
G37*
G36*
X1134717Y704120D02*
X1133623Y704120D01*
X1132612Y703701D01*
X1131839Y702928D01*
X1131420Y701917D01*
X1131420Y700823D01*
X1131839Y699812D01*
X1132612Y699039D01*
X1133623Y698620D01*
X1134717Y698620D01*
X1135728Y699039D01*
X1136501Y699812D01*
X1136920Y700823D01*
X1136920Y701917D01*
X1136501Y702928D01*
X1135728Y703701D01*
X1134717Y704120D01*
X1134717Y704120D02*
G37*
G36*
X1101717Y701870D02*
X1100623Y701870D01*
X1099612Y701451D01*
X1098839Y700678D01*
X1098420Y699667D01*
X1098420Y698573D01*
X1098839Y697562D01*
X1099612Y696789D01*
X1100623Y696370D01*
X1101717Y696370D01*
X1102728Y696789D01*
X1103501Y697562D01*
X1103920Y698573D01*
X1103920Y699667D01*
X1103501Y700678D01*
X1102728Y701451D01*
X1101717Y701870D01*
X1101717Y701870D02*
G37*
G36*
X771217Y700620D02*
X770123Y700620D01*
X769112Y700201D01*
X768339Y699428D01*
X767920Y698417D01*
X767920Y697323D01*
X768339Y696312D01*
X769112Y695539D01*
X770123Y695120D01*
X771217Y695120D01*
X772228Y695539D01*
X773001Y696312D01*
X773420Y697323D01*
X773420Y698417D01*
X773001Y699428D01*
X772228Y700201D01*
X771217Y700620D01*
X771217Y700620D02*
G37*
G36*
X1069967Y699370D02*
X1068873Y699370D01*
X1067862Y698951D01*
X1067089Y698178D01*
X1066670Y697167D01*
X1066670Y696073D01*
X1067089Y695062D01*
X1067862Y694289D01*
X1068873Y693870D01*
X1069967Y693870D01*
X1070978Y694289D01*
X1071751Y695062D01*
X1072170Y696073D01*
X1072170Y697167D01*
X1071751Y698178D01*
X1070978Y698951D01*
X1069967Y699370D01*
X1069967Y699370D02*
G37*
G36*
X1085817Y694120D02*
X1084723Y694120D01*
X1083712Y693701D01*
X1082939Y692928D01*
X1082520Y691917D01*
X1082520Y690823D01*
X1082939Y689812D01*
X1083712Y689039D01*
X1084723Y688620D01*
X1085817Y688620D01*
X1086828Y689039D01*
X1087601Y689812D01*
X1088020Y690823D01*
X1088020Y691917D01*
X1087601Y692928D01*
X1086828Y693701D01*
X1085817Y694120D01*
X1085817Y694120D02*
G37*
G36*
X1122467Y692120D02*
X1121373Y692120D01*
X1120362Y691701D01*
X1119589Y690928D01*
X1119170Y689917D01*
X1119170Y688823D01*
X1119589Y687812D01*
X1120362Y687039D01*
X1121373Y686620D01*
X1122467Y686620D01*
X1123478Y687039D01*
X1124251Y687812D01*
X1124670Y688823D01*
X1124670Y689917D01*
X1124251Y690928D01*
X1123478Y691701D01*
X1122467Y692120D01*
X1122467Y692120D02*
G37*
G36*
X1069967Y689370D02*
X1068873Y689370D01*
X1067862Y688951D01*
X1067089Y688178D01*
X1066670Y687167D01*
X1066670Y686073D01*
X1067089Y685062D01*
X1067862Y684288D01*
X1068873Y683870D01*
X1069967Y683870D01*
X1070978Y684288D01*
X1071751Y685062D01*
X1072170Y686073D01*
X1072170Y687167D01*
X1071751Y688178D01*
X1070978Y688951D01*
X1069967Y689370D01*
X1069967Y689370D02*
G37*
G36*
X760717Y685620D02*
X759623Y685620D01*
X758612Y685201D01*
X757839Y684428D01*
X757420Y683417D01*
X757420Y682323D01*
X757839Y681312D01*
X758612Y680539D01*
X759623Y680120D01*
X760717Y680120D01*
X761728Y680539D01*
X762501Y681312D01*
X762920Y682323D01*
X762920Y683417D01*
X762501Y684428D01*
X761728Y685201D01*
X760717Y685620D01*
X760717Y685620D02*
G37*
G36*
X1057217Y681870D02*
X1056123Y681870D01*
X1055112Y681451D01*
X1054339Y680678D01*
X1054093Y680085D01*
X1052747Y680085D01*
X1052501Y680678D01*
X1051728Y681451D01*
X1050717Y681870D01*
X1049623Y681870D01*
X1048612Y681451D01*
X1047839Y680678D01*
X1047420Y679667D01*
X1047420Y678573D01*
X1047839Y677562D01*
X1048612Y676789D01*
X1049623Y676370D01*
X1050717Y676370D01*
X1051728Y676789D01*
X1052501Y677562D01*
X1052747Y678155D01*
X1054093Y678155D01*
X1054339Y677562D01*
X1055112Y676789D01*
X1056123Y676370D01*
X1057217Y676370D01*
X1058228Y676789D01*
X1059001Y677562D01*
X1059420Y678573D01*
X1059420Y679667D01*
X1059001Y680678D01*
X1058228Y681451D01*
X1057217Y681870D01*
X1057217Y681870D02*
G37*
G36*
X1020717Y684370D02*
X1019623Y684370D01*
X1018612Y683951D01*
X1017839Y683178D01*
X1017420Y682167D01*
X1017420Y681073D01*
X1017839Y680062D01*
X1018612Y679289D01*
X1019623Y678870D01*
X1020717Y678870D01*
X1021728Y679289D01*
X1022501Y680062D01*
X1022920Y681073D01*
X1022920Y682167D01*
X1022501Y683178D01*
X1021728Y683951D01*
X1020717Y684370D01*
X1020717Y684370D02*
G37*
G36*
X1134717Y683120D02*
X1133623Y683120D01*
X1132612Y682701D01*
X1131839Y681928D01*
X1131420Y680917D01*
X1131420Y679823D01*
X1131839Y678812D01*
X1132612Y678038D01*
X1133623Y677620D01*
X1134717Y677620D01*
X1135728Y678038D01*
X1136501Y678812D01*
X1136920Y679823D01*
X1136920Y680917D01*
X1136501Y681928D01*
X1135728Y682701D01*
X1134717Y683120D01*
X1134717Y683120D02*
G37*
G36*
X1037967Y681870D02*
X1036873Y681870D01*
X1035862Y681451D01*
X1035089Y680678D01*
X1034670Y679667D01*
X1034670Y678573D01*
X1035089Y677562D01*
X1035862Y676789D01*
X1036873Y676370D01*
X1037967Y676370D01*
X1038978Y676789D01*
X1039751Y677562D01*
X1040170Y678573D01*
X1040170Y679667D01*
X1039751Y680678D01*
X1038978Y681451D01*
X1037967Y681870D01*
X1037967Y681870D02*
G37*
G36*
X1101717Y671870D02*
X1100623Y671870D01*
X1099612Y671451D01*
X1098839Y670678D01*
X1098420Y669667D01*
X1098420Y668573D01*
X1098839Y667562D01*
X1099612Y666789D01*
X1100623Y666370D01*
X1101717Y666370D01*
X1102728Y666789D01*
X1103501Y667562D01*
X1103920Y668573D01*
X1103920Y669667D01*
X1103501Y670678D01*
X1102728Y671451D01*
X1101717Y671870D01*
X1101717Y671870D02*
G37*
G36*
X1090704Y666260D02*
X1090611Y666224D01*
X1090515Y666247D01*
X1089558Y666093D01*
X1089474Y666041D01*
X1089374Y666047D01*
X1088460Y665729D01*
X1088385Y665663D01*
X1088287Y665651D01*
X1087442Y665179D01*
X1087380Y665100D01*
X1087285Y665072D01*
X1086535Y664458D01*
X1086488Y664371D01*
X1086400Y664326D01*
X1085769Y663591D01*
X1085738Y663497D01*
X1085658Y663437D01*
X1085166Y662604D01*
X1085152Y662505D01*
X1085084Y662432D01*
X1084829Y661752D01*
X1079277Y661752D01*
X1079208Y661724D01*
X1079135Y661743D01*
X1078356Y661640D01*
X1078291Y661603D01*
X1078217Y661613D01*
X1077457Y661409D01*
X1077398Y661364D01*
X1077323Y661364D01*
X1076596Y661063D01*
X1076543Y661010D01*
X1076469Y661000D01*
X1075788Y660607D01*
X1075743Y660547D01*
X1075670Y660528D01*
X1075046Y660049D01*
X1075009Y659985D01*
X1074940Y659956D01*
X1074384Y659400D01*
X1074355Y659331D01*
X1074290Y659293D01*
X1073812Y658669D01*
X1073792Y658597D01*
X1073733Y658552D01*
X1073340Y657870D01*
X1073330Y657796D01*
X1073277Y657744D01*
X1072976Y657017D01*
X1072976Y656942D01*
X1072931Y656883D01*
X1072727Y656123D01*
X1072737Y656049D01*
X1072700Y655984D01*
X1072597Y655204D01*
X1072616Y655132D01*
X1072588Y655063D01*
X1072588Y654670D01*
X1072588Y654277D01*
X1072616Y654208D01*
X1072597Y654135D01*
X1072700Y653355D01*
X1072737Y653291D01*
X1072727Y653217D01*
X1072931Y652457D01*
X1072976Y652398D01*
X1072976Y652323D01*
X1073277Y651596D01*
X1073330Y651543D01*
X1073340Y651469D01*
X1073733Y650788D01*
X1073792Y650743D01*
X1073812Y650670D01*
X1074290Y650046D01*
X1074355Y650009D01*
X1074384Y649940D01*
X1074940Y649384D01*
X1075009Y649355D01*
X1075046Y649290D01*
X1075670Y648812D01*
X1075743Y648792D01*
X1075788Y648733D01*
X1076469Y648340D01*
X1076543Y648330D01*
X1076596Y648277D01*
X1077323Y647976D01*
X1077398Y647976D01*
X1077457Y647931D01*
X1078217Y647727D01*
X1078291Y647737D01*
X1078356Y647699D01*
X1079135Y647597D01*
X1079208Y647616D01*
X1079277Y647588D01*
X1079670Y647588D01*
X1079670Y647588D01*
X1090670Y647588D01*
X1091063Y647588D01*
X1091132Y647616D01*
X1091205Y647597D01*
X1091984Y647699D01*
X1092049Y647737D01*
X1092123Y647727D01*
X1092883Y647931D01*
X1092942Y647976D01*
X1093017Y647976D01*
X1093744Y648277D01*
X1093796Y648330D01*
X1093870Y648340D01*
X1094552Y648733D01*
X1094597Y648792D01*
X1094669Y648812D01*
X1095293Y649290D01*
X1095331Y649355D01*
X1095400Y649384D01*
X1095956Y649940D01*
X1095985Y650009D01*
X1096049Y650046D01*
X1096528Y650670D01*
X1096547Y650743D01*
X1096607Y650788D01*
X1097000Y651469D01*
X1097010Y651543D01*
X1097063Y651596D01*
X1097364Y652323D01*
X1097364Y652398D01*
X1097409Y652457D01*
X1097613Y653217D01*
X1097603Y653291D01*
X1097640Y653355D01*
X1097743Y654135D01*
X1097724Y654208D01*
X1097752Y654277D01*
X1097752Y654670D01*
X1097752Y654670D01*
X1097752Y660870D01*
X1097705Y660984D01*
X1097726Y661106D01*
X1097625Y661560D01*
X1097570Y661638D01*
X1097570Y661734D01*
X1097218Y662596D01*
X1097150Y662664D01*
X1097134Y662758D01*
X1096642Y663549D01*
X1096564Y663604D01*
X1096533Y663695D01*
X1095914Y664391D01*
X1095828Y664433D01*
X1095782Y664517D01*
X1095055Y665099D01*
X1094963Y665126D01*
X1094904Y665201D01*
X1094090Y665653D01*
X1093994Y665664D01*
X1093923Y665728D01*
X1093045Y666036D01*
X1092949Y666031D01*
X1092868Y666082D01*
X1091950Y666238D01*
X1091856Y666217D01*
X1091768Y666254D01*
X1091304Y666254D01*
X1091288Y666254D01*
X1091283Y666252D01*
X1091279Y666254D01*
X1091246Y666254D01*
X1091243Y666252D01*
X1091240Y666254D01*
X1091207Y666253D01*
X1091203Y666252D01*
X1091200Y666253D01*
X1091167Y666253D01*
X1091167Y666252D01*
X1090704Y666260D01*
X1090704Y666260D02*
G37*
G36*
X780467Y665370D02*
X779373Y665370D01*
X778362Y664951D01*
X777589Y664178D01*
X777170Y663167D01*
X777170Y662073D01*
X777589Y661062D01*
X778362Y660289D01*
X779373Y659870D01*
X780467Y659870D01*
X781478Y660289D01*
X782251Y661062D01*
X782670Y662073D01*
X782670Y663167D01*
X782251Y664178D01*
X781478Y664951D01*
X780467Y665370D01*
X780467Y665370D02*
G37*
G36*
X1105966Y665870D02*
X1104374Y665870D01*
X1102904Y665261D01*
X1101779Y664136D01*
X1101170Y662665D01*
X1101170Y661074D01*
X1101779Y659604D01*
X1102904Y658479D01*
X1104374Y657870D01*
X1105966Y657870D01*
X1107436Y658479D01*
X1108561Y659604D01*
X1109170Y661074D01*
X1109170Y662665D01*
X1108561Y664136D01*
X1107436Y665261D01*
X1105966Y665870D01*
X1105966Y665870D02*
G37*
G36*
X1018217Y650370D02*
X1017123Y650370D01*
X1016112Y649951D01*
X1015339Y649178D01*
X1015132Y648679D01*
X1013757Y648679D01*
X1013551Y649178D01*
X1012778Y649951D01*
X1011767Y650370D01*
X1010673Y650370D01*
X1009662Y649951D01*
X1008889Y649178D01*
X1008593Y648465D01*
X1007297Y648465D01*
X1007001Y649178D01*
X1006228Y649951D01*
X1005217Y650370D01*
X1004123Y650370D01*
X1003112Y649951D01*
X1002339Y649178D01*
X1001920Y648167D01*
X1001920Y647073D01*
X1002339Y646062D01*
X1003112Y645288D01*
X1004123Y644870D01*
X1005217Y644870D01*
X1006228Y645288D01*
X1007001Y646062D01*
X1007297Y646775D01*
X1008593Y646775D01*
X1008889Y646062D01*
X1009662Y645288D01*
X1010673Y644870D01*
X1011767Y644870D01*
X1012778Y645288D01*
X1013551Y646062D01*
X1013757Y646560D01*
X1015132Y646560D01*
X1015339Y646062D01*
X1016112Y645288D01*
X1017123Y644870D01*
X1018217Y644870D01*
X1019228Y645288D01*
X1020001Y646062D01*
X1020420Y647073D01*
X1020420Y648167D01*
X1020001Y649178D01*
X1019228Y649951D01*
X1018217Y650370D01*
X1018217Y650370D02*
G37*
G36*
X959270Y656220D02*
X950170Y656220D01*
X950170Y647120D01*
X959270Y647120D01*
X959270Y656220D01*
X959270Y656220D02*
G37*
G36*
X947670Y656220D02*
X938570Y656220D01*
X938570Y647120D01*
X947670Y647120D01*
X947670Y656220D01*
X947670Y656220D02*
G37*
G36*
X1044467Y650370D02*
X1043373Y650370D01*
X1042362Y649951D01*
X1041589Y649178D01*
X1041170Y648167D01*
X1041170Y647073D01*
X1041589Y646062D01*
X1042362Y645288D01*
X1043373Y644870D01*
X1044467Y644870D01*
X1045478Y645288D01*
X1046251Y646062D01*
X1046670Y647073D01*
X1046670Y648167D01*
X1046251Y649178D01*
X1045478Y649951D01*
X1044467Y650370D01*
X1044467Y650370D02*
G37*
G36*
X985467Y650370D02*
X984373Y650370D01*
X983362Y649951D01*
X982589Y649178D01*
X982170Y648167D01*
X982170Y647073D01*
X982589Y646062D01*
X983362Y645288D01*
X984373Y644870D01*
X985467Y644870D01*
X986478Y645288D01*
X987251Y646062D01*
X987670Y647073D01*
X987670Y648167D01*
X987251Y649178D01*
X986478Y649951D01*
X985467Y650370D01*
X985467Y650370D02*
G37*
G36*
X924685Y654720D02*
X922355Y654720D01*
X920104Y654117D01*
X918086Y652952D01*
X916438Y651304D01*
X915273Y649286D01*
X914670Y647035D01*
X914670Y644705D01*
X915273Y642454D01*
X916438Y640436D01*
X918086Y638788D01*
X920104Y637623D01*
X922355Y637020D01*
X924685Y637020D01*
X926936Y637623D01*
X928954Y638788D01*
X930602Y640436D01*
X931767Y642454D01*
X932370Y644705D01*
X932370Y647035D01*
X931767Y649286D01*
X930602Y651304D01*
X928954Y652952D01*
X926936Y654117D01*
X924685Y654720D01*
X924685Y654720D02*
G37*
G36*
X899285Y654720D02*
X896955Y654720D01*
X894704Y654117D01*
X892686Y652952D01*
X891038Y651304D01*
X889873Y649286D01*
X889270Y647035D01*
X889270Y644705D01*
X889873Y642454D01*
X891038Y640436D01*
X892686Y638788D01*
X894704Y637623D01*
X896955Y637020D01*
X899285Y637020D01*
X901536Y637623D01*
X903554Y638788D01*
X905202Y640436D01*
X906367Y642454D01*
X906970Y644705D01*
X906970Y647035D01*
X906367Y649286D01*
X905202Y651304D01*
X903554Y652952D01*
X901536Y654117D01*
X899285Y654720D01*
X899285Y654720D02*
G37*
G36*
X873885Y654720D02*
X871555Y654720D01*
X869304Y654117D01*
X867286Y652952D01*
X865638Y651304D01*
X864473Y649286D01*
X863870Y647035D01*
X863870Y644705D01*
X864473Y642454D01*
X865638Y640436D01*
X867286Y638788D01*
X869304Y637623D01*
X871555Y637020D01*
X873885Y637020D01*
X876136Y637623D01*
X878154Y638788D01*
X879802Y640436D01*
X880967Y642454D01*
X881570Y644705D01*
X881570Y647035D01*
X880967Y649286D01*
X879802Y651304D01*
X878154Y652952D01*
X876136Y654117D01*
X873885Y654720D01*
X873885Y654720D02*
G37*
G36*
X848485Y654720D02*
X846155Y654720D01*
X843904Y654117D01*
X841886Y652952D01*
X840238Y651304D01*
X839073Y649286D01*
X838470Y647035D01*
X838470Y644705D01*
X839073Y642454D01*
X840238Y640436D01*
X841886Y638788D01*
X843904Y637623D01*
X846155Y637020D01*
X848485Y637020D01*
X850736Y637623D01*
X852754Y638788D01*
X854402Y640436D01*
X855567Y642454D01*
X856170Y644705D01*
X856170Y647035D01*
X855567Y649286D01*
X854402Y651304D01*
X852754Y652952D01*
X850736Y654117D01*
X848485Y654720D01*
X848485Y654720D02*
G37*
G36*
X823085Y654720D02*
X820755Y654720D01*
X818504Y654117D01*
X816486Y652952D01*
X814838Y651304D01*
X813673Y649286D01*
X813070Y647035D01*
X813070Y644705D01*
X813673Y642454D01*
X814838Y640436D01*
X816486Y638788D01*
X818504Y637623D01*
X820755Y637020D01*
X823085Y637020D01*
X825336Y637623D01*
X827354Y638788D01*
X829002Y640436D01*
X830167Y642454D01*
X830770Y644705D01*
X830770Y647035D01*
X830167Y649286D01*
X829002Y651304D01*
X827354Y652952D01*
X825336Y654117D01*
X823085Y654720D01*
X823085Y654720D02*
G37*
G36*
X959270Y644620D02*
X950170Y644620D01*
X950170Y635520D01*
X959270Y635520D01*
X959270Y644620D01*
X959270Y644620D02*
G37*
G36*
X947670Y644620D02*
X938570Y644620D01*
X938570Y635520D01*
X947670Y635520D01*
X947670Y644620D01*
X947670Y644620D02*
G37*
G36*
X780967Y631620D02*
X779873Y631620D01*
X778862Y631201D01*
X778089Y630428D01*
X777670Y629417D01*
X777670Y628323D01*
X778089Y627312D01*
X778862Y626539D01*
X779873Y626120D01*
X780967Y626120D01*
X781978Y626539D01*
X782751Y627312D01*
X783170Y628323D01*
X783170Y629417D01*
X782751Y630428D01*
X781978Y631201D01*
X780967Y631620D01*
X780967Y631620D02*
G37*
G36*
X1094760Y602360D02*
X1086520Y602360D01*
X1086520Y594120D01*
X1094760Y594120D01*
X1094760Y602360D01*
X1094760Y602360D02*
G37*
G36*
X1084020Y602360D02*
X1075780Y602360D01*
X1075780Y594120D01*
X1084020Y594120D01*
X1084020Y602360D01*
X1084020Y602360D02*
G37*
G36*
X1060922Y600860D02*
X1058818Y600860D01*
X1056786Y600315D01*
X1054964Y599263D01*
X1053476Y597776D01*
X1052424Y595954D01*
X1051880Y593922D01*
X1051880Y591818D01*
X1052424Y589786D01*
X1053476Y587964D01*
X1054964Y586476D01*
X1056786Y585424D01*
X1058818Y584880D01*
X1060922Y584880D01*
X1062954Y585424D01*
X1064776Y586476D01*
X1066264Y587964D01*
X1067315Y589786D01*
X1067860Y591818D01*
X1067860Y593922D01*
X1067315Y595954D01*
X1066264Y597776D01*
X1064776Y599263D01*
X1062954Y600315D01*
X1060922Y600860D01*
X1060922Y600860D02*
G37*
G36*
X1035522Y600860D02*
X1033418Y600860D01*
X1031386Y600315D01*
X1029564Y599263D01*
X1028076Y597776D01*
X1027024Y595954D01*
X1026480Y593922D01*
X1026480Y591818D01*
X1027024Y589786D01*
X1028076Y587964D01*
X1029564Y586476D01*
X1031386Y585424D01*
X1033418Y584880D01*
X1035522Y584880D01*
X1037554Y585424D01*
X1039376Y586476D01*
X1040863Y587964D01*
X1041915Y589786D01*
X1042460Y591818D01*
X1042460Y593922D01*
X1041915Y595954D01*
X1040863Y597776D01*
X1039376Y599263D01*
X1037554Y600315D01*
X1035522Y600860D01*
X1035522Y600860D02*
G37*
G36*
X1010122Y600860D02*
X1008018Y600860D01*
X1005986Y600315D01*
X1004164Y599263D01*
X1002676Y597776D01*
X1001624Y595954D01*
X1001080Y593922D01*
X1001080Y591818D01*
X1001624Y589786D01*
X1002676Y587964D01*
X1004164Y586476D01*
X1005986Y585424D01*
X1008018Y584880D01*
X1010122Y584880D01*
X1012154Y585424D01*
X1013976Y586476D01*
X1015463Y587964D01*
X1016515Y589786D01*
X1017060Y591818D01*
X1017060Y593922D01*
X1016515Y595954D01*
X1015463Y597776D01*
X1013976Y599263D01*
X1012154Y600315D01*
X1010122Y600860D01*
X1010122Y600860D02*
G37*
G36*
X984722Y600860D02*
X982618Y600860D01*
X980586Y600315D01*
X978764Y599263D01*
X977276Y597776D01*
X976224Y595954D01*
X975680Y593922D01*
X975680Y591818D01*
X976224Y589786D01*
X977276Y587964D01*
X978764Y586476D01*
X980586Y585424D01*
X982618Y584880D01*
X984722Y584880D01*
X986754Y585424D01*
X988576Y586476D01*
X990063Y587964D01*
X991115Y589786D01*
X991660Y591818D01*
X991660Y593922D01*
X991115Y595954D01*
X990063Y597776D01*
X988576Y599263D01*
X986754Y600315D01*
X984722Y600860D01*
X984722Y600860D02*
G37*
G36*
X959322Y600860D02*
X957218Y600860D01*
X955186Y600315D01*
X953364Y599263D01*
X951876Y597776D01*
X950824Y595954D01*
X950280Y593922D01*
X950280Y591818D01*
X950824Y589786D01*
X951876Y587964D01*
X953364Y586476D01*
X955186Y585424D01*
X957218Y584880D01*
X959322Y584880D01*
X961354Y585424D01*
X963176Y586476D01*
X964663Y587964D01*
X965715Y589786D01*
X966260Y591818D01*
X966260Y593922D01*
X965715Y595954D01*
X964663Y597776D01*
X963176Y599263D01*
X961354Y600315D01*
X959322Y600860D01*
X959322Y600860D02*
G37*
G36*
X933922Y600860D02*
X931818Y600860D01*
X929786Y600315D01*
X927964Y599263D01*
X926476Y597776D01*
X925424Y595954D01*
X924880Y593922D01*
X924880Y591818D01*
X925424Y589786D01*
X926476Y587964D01*
X927964Y586476D01*
X929786Y585424D01*
X931818Y584880D01*
X933922Y584880D01*
X935954Y585424D01*
X937776Y586476D01*
X939264Y587964D01*
X940315Y589786D01*
X940860Y591818D01*
X940860Y593922D01*
X940315Y595954D01*
X939264Y597776D01*
X937776Y599263D01*
X935954Y600315D01*
X933922Y600860D01*
X933922Y600860D02*
G37*
G36*
X908522Y600860D02*
X906418Y600860D01*
X904386Y600315D01*
X902564Y599263D01*
X901076Y597776D01*
X900024Y595954D01*
X899480Y593922D01*
X899480Y591818D01*
X900024Y589786D01*
X901076Y587964D01*
X902564Y586476D01*
X904386Y585424D01*
X906418Y584880D01*
X908522Y584880D01*
X910554Y585424D01*
X912376Y586476D01*
X913864Y587964D01*
X914915Y589786D01*
X915460Y591818D01*
X915460Y593922D01*
X914915Y595954D01*
X913864Y597776D01*
X912376Y599263D01*
X910554Y600315D01*
X908522Y600860D01*
X908522Y600860D02*
G37*
G36*
X883122Y600860D02*
X881018Y600860D01*
X878986Y600315D01*
X877164Y599263D01*
X875676Y597776D01*
X874624Y595954D01*
X874080Y593922D01*
X874080Y591818D01*
X874624Y589786D01*
X875676Y587964D01*
X877164Y586476D01*
X878986Y585424D01*
X881018Y584880D01*
X883122Y584880D01*
X885154Y585424D01*
X886976Y586476D01*
X888464Y587964D01*
X889515Y589786D01*
X890060Y591818D01*
X890060Y593922D01*
X889515Y595954D01*
X888464Y597776D01*
X886976Y599263D01*
X885154Y600315D01*
X883122Y600860D01*
X883122Y600860D02*
G37*
G36*
X857722Y600860D02*
X855618Y600860D01*
X853586Y600315D01*
X851764Y599263D01*
X850276Y597776D01*
X849224Y595954D01*
X848680Y593922D01*
X848680Y591818D01*
X849224Y589786D01*
X850276Y587964D01*
X851764Y586476D01*
X853586Y585424D01*
X855618Y584880D01*
X857722Y584880D01*
X859754Y585424D01*
X861576Y586476D01*
X863064Y587964D01*
X864115Y589786D01*
X864660Y591818D01*
X864660Y593922D01*
X864115Y595954D01*
X863064Y597776D01*
X861576Y599263D01*
X859754Y600315D01*
X857722Y600860D01*
X857722Y600860D02*
G37*
G36*
X1094760Y591620D02*
X1086520Y591620D01*
X1086520Y583380D01*
X1094760Y583380D01*
X1094760Y591620D01*
X1094760Y591620D02*
G37*
G36*
X1084020Y591620D02*
X1075780Y591620D01*
X1075780Y583380D01*
X1084020Y583380D01*
X1084020Y591620D01*
X1084020Y591620D02*
G37*
G36*
X1086520Y576960D02*
X1086520Y568720D01*
X1094760Y568720D01*
X1094113Y571133D01*
X1092864Y573297D01*
X1091097Y575064D01*
X1088933Y576313D01*
X1086520Y576960D01*
X1086520Y576960D02*
G37*
G36*
X1084020Y576960D02*
X1081607Y576313D01*
X1079443Y575064D01*
X1077676Y573297D01*
X1076427Y571133D01*
X1075780Y568720D01*
X1084020Y568720D01*
X1084020Y576960D01*
X1084020Y576960D02*
G37*
G36*
X1060922Y575460D02*
X1058818Y575460D01*
X1056786Y574915D01*
X1054964Y573863D01*
X1053476Y572376D01*
X1052424Y570554D01*
X1051880Y568522D01*
X1051880Y566418D01*
X1052424Y564386D01*
X1053476Y562564D01*
X1054964Y561076D01*
X1056786Y560024D01*
X1058818Y559480D01*
X1060922Y559480D01*
X1062954Y560024D01*
X1064776Y561076D01*
X1066264Y562564D01*
X1067315Y564386D01*
X1067860Y566418D01*
X1067860Y568522D01*
X1067315Y570554D01*
X1066264Y572376D01*
X1064776Y573863D01*
X1062954Y574915D01*
X1060922Y575460D01*
X1060922Y575460D02*
G37*
G36*
X1035522Y575460D02*
X1033418Y575460D01*
X1031386Y574915D01*
X1029564Y573863D01*
X1028076Y572376D01*
X1027024Y570554D01*
X1026480Y568522D01*
X1026480Y566418D01*
X1027024Y564386D01*
X1028076Y562564D01*
X1029564Y561076D01*
X1031386Y560024D01*
X1033418Y559480D01*
X1035522Y559480D01*
X1037554Y560024D01*
X1039376Y561076D01*
X1040863Y562564D01*
X1041915Y564386D01*
X1042460Y566418D01*
X1042460Y568522D01*
X1041915Y570554D01*
X1040863Y572376D01*
X1039376Y573863D01*
X1037554Y574915D01*
X1035522Y575460D01*
X1035522Y575460D02*
G37*
G36*
X1010122Y575460D02*
X1008018Y575460D01*
X1005986Y574915D01*
X1004164Y573863D01*
X1002676Y572376D01*
X1001624Y570554D01*
X1001080Y568522D01*
X1001080Y566418D01*
X1001624Y564386D01*
X1002676Y562564D01*
X1004164Y561076D01*
X1005986Y560024D01*
X1008018Y559480D01*
X1010122Y559480D01*
X1012154Y560024D01*
X1013976Y561076D01*
X1015463Y562564D01*
X1016515Y564386D01*
X1017060Y566418D01*
X1017060Y568522D01*
X1016515Y570554D01*
X1015463Y572376D01*
X1013976Y573863D01*
X1012154Y574915D01*
X1010122Y575460D01*
X1010122Y575460D02*
G37*
G36*
X984722Y575460D02*
X982618Y575460D01*
X980586Y574915D01*
X978764Y573863D01*
X977276Y572376D01*
X976224Y570554D01*
X975680Y568522D01*
X975680Y566418D01*
X976224Y564386D01*
X977276Y562564D01*
X978764Y561076D01*
X980586Y560024D01*
X982618Y559480D01*
X984722Y559480D01*
X986754Y560024D01*
X988576Y561076D01*
X990063Y562564D01*
X991115Y564386D01*
X991660Y566418D01*
X991660Y568522D01*
X991115Y570554D01*
X990063Y572376D01*
X988576Y573863D01*
X986754Y574915D01*
X984722Y575460D01*
X984722Y575460D02*
G37*
G36*
X959322Y575460D02*
X957218Y575460D01*
X955186Y574915D01*
X953364Y573863D01*
X951876Y572376D01*
X950824Y570554D01*
X950280Y568522D01*
X950280Y566418D01*
X950824Y564386D01*
X951876Y562564D01*
X953364Y561076D01*
X955186Y560024D01*
X957218Y559480D01*
X959322Y559480D01*
X961354Y560024D01*
X963176Y561076D01*
X964663Y562564D01*
X965715Y564386D01*
X966260Y566418D01*
X966260Y568522D01*
X965715Y570554D01*
X964663Y572376D01*
X963176Y573863D01*
X961354Y574915D01*
X959322Y575460D01*
X959322Y575460D02*
G37*
G36*
X933922Y575460D02*
X931818Y575460D01*
X929786Y574915D01*
X927964Y573863D01*
X926476Y572376D01*
X925424Y570554D01*
X924880Y568522D01*
X924880Y566418D01*
X925424Y564386D01*
X926476Y562564D01*
X927964Y561076D01*
X929786Y560024D01*
X931818Y559480D01*
X933922Y559480D01*
X935954Y560024D01*
X937776Y561076D01*
X939264Y562564D01*
X940315Y564386D01*
X940860Y566418D01*
X940860Y568522D01*
X940315Y570554D01*
X939264Y572376D01*
X937776Y573863D01*
X935954Y574915D01*
X933922Y575460D01*
X933922Y575460D02*
G37*
G36*
X908522Y575460D02*
X906418Y575460D01*
X904386Y574915D01*
X902564Y573863D01*
X901076Y572376D01*
X900024Y570554D01*
X899480Y568522D01*
X899480Y566418D01*
X900024Y564386D01*
X901076Y562564D01*
X902564Y561076D01*
X904386Y560024D01*
X906418Y559480D01*
X908522Y559480D01*
X910554Y560024D01*
X912376Y561076D01*
X913864Y562564D01*
X914915Y564386D01*
X915460Y566418D01*
X915460Y568522D01*
X914915Y570554D01*
X913864Y572376D01*
X912376Y573863D01*
X910554Y574915D01*
X908522Y575460D01*
X908522Y575460D02*
G37*
G36*
X883122Y575460D02*
X881018Y575460D01*
X878986Y574915D01*
X877164Y573863D01*
X875676Y572376D01*
X874624Y570554D01*
X874080Y568522D01*
X874080Y566418D01*
X874624Y564386D01*
X875676Y562564D01*
X877164Y561076D01*
X878986Y560024D01*
X881018Y559480D01*
X883122Y559480D01*
X885154Y560024D01*
X886976Y561076D01*
X888464Y562564D01*
X889515Y564386D01*
X890060Y566418D01*
X890060Y568522D01*
X889515Y570554D01*
X888464Y572376D01*
X886976Y573863D01*
X885154Y574915D01*
X883122Y575460D01*
X883122Y575460D02*
G37*
G36*
X857722Y575460D02*
X855618Y575460D01*
X853586Y574915D01*
X851764Y573863D01*
X850276Y572376D01*
X849224Y570554D01*
X848680Y568522D01*
X848680Y566418D01*
X849224Y564386D01*
X850276Y562564D01*
X851764Y561076D01*
X853586Y560024D01*
X855618Y559480D01*
X857722Y559480D01*
X859754Y560024D01*
X861576Y561076D01*
X863064Y562564D01*
X864115Y564386D01*
X864660Y566418D01*
X864660Y568522D01*
X864115Y570554D01*
X863064Y572376D01*
X861576Y573863D01*
X859754Y574915D01*
X857722Y575460D01*
X857722Y575460D02*
G37*
G36*
X1094760Y566220D02*
X1086520Y566220D01*
X1086520Y557980D01*
X1088933Y558627D01*
X1091097Y559876D01*
X1092864Y561643D01*
X1094113Y563807D01*
X1094760Y566220D01*
X1094760Y566220D02*
G37*
G36*
X1084020Y566220D02*
X1075780Y566220D01*
X1076427Y563807D01*
X1077676Y561643D01*
X1079443Y559876D01*
X1081607Y558627D01*
X1084020Y557980D01*
X1084020Y566220D01*
X1084020Y566220D02*
G37*
%LPD*%
G36*
G01X1096670Y654670D02*
G01X1096670Y660870D01*
G03X1091302Y665172I-5367J-1198D01*
G03X1091170Y665170I-3J-5329D01*
G03X1085670Y660670I-92J-5499D01*
G01X1079670Y660670D01*
G03X1073670Y654670I0J-6000D01*
G03X1079670Y648670I6000J-0D01*
G01X1090670Y648670D01*
G03X1096670Y654670I0J6000D01*
X1096670Y654670D02*
G37*
G36*
G01X1091302Y730568D02*
G03X1096670Y734870I0J5499D01*
G01X1096670Y741070D01*
G03X1090670Y747070I-6000J0D01*
G01X1079670Y747070D01*
G03X1079670Y735070I0J-6000D01*
G01X1085670Y735070D01*
G03X1091170Y730570I5408J999D01*
G03X1091302Y730568I133J5514D01*
X1091302Y730568D02*
G37*
D24*
X1085270Y592870D02*
D03*
X1087420Y828270D02*
D03*
D25*
X856670Y567470D02*
D03*
X882070Y567470D02*
D03*
X907470Y567470D02*
D03*
X932870Y567470D02*
D03*
X958270Y567470D02*
D03*
X983670Y567470D02*
D03*
X1009070Y567470D02*
D03*
X1034470Y567470D02*
D03*
X1059870Y567470D02*
D03*
X1085270Y567470D02*
D03*
X1059870Y592870D02*
D03*
X1034470Y592870D02*
D03*
X1009070Y592870D02*
D03*
X983670Y592870D02*
D03*
X958270Y592870D02*
D03*
X932870Y592870D02*
D03*
X907470Y592870D02*
D03*
X882070Y592870D02*
D03*
X856670Y592870D02*
D03*
X1062020Y802870D02*
D03*
X1087420Y802870D02*
D03*
X1062020Y828270D02*
D03*
X1036620Y828270D02*
D03*
X1036620Y802870D02*
D03*
X1011220Y828270D02*
D03*
X1011220Y802870D02*
D03*
X985820Y828270D02*
D03*
X985820Y802870D02*
D03*
X960420Y828270D02*
D03*
X960420Y802870D02*
D03*
X935020Y828270D02*
D03*
X935020Y802870D02*
D03*
X909620Y828270D02*
D03*
X909620Y802870D02*
D03*
X884220Y828270D02*
D03*
X884220Y802870D02*
D03*
X858820Y828270D02*
D03*
X858820Y802870D02*
D03*
D26*
X821920Y645870D02*
D03*
X847320Y645870D02*
D03*
X872720Y645870D02*
D03*
X898120Y645870D02*
D03*
X923520Y645870D02*
D03*
X923520Y742870D02*
D03*
X898120Y742870D02*
D03*
X872720Y742870D02*
D03*
X847320Y742870D02*
D03*
X821920Y742870D02*
D03*
D27*
X948920Y645870D02*
D03*
X948920Y742870D02*
D03*
D28*
X1105170Y661870D02*
D03*
D29*
X1104520Y733870D02*
D03*
D30*
X1135670Y654670D02*
D03*
X1135670Y741070D02*
D03*
D31*
X1085170Y654670D02*
D03*
D32*
X1091270Y737820D02*
D03*
D33*
X760170Y682870D02*
D03*
X779920Y662620D02*
D03*
X770670Y697870D02*
D03*
X770670Y712870D02*
D03*
X778670Y727370D02*
D03*
X779170Y759620D02*
D03*
X854670Y682870D02*
D03*
X880620Y683070D02*
D03*
X864670Y704770D02*
D03*
X840170Y704770D02*
D03*
X780420Y628870D02*
D03*
X984920Y647620D02*
D03*
X1004670Y647620D02*
D03*
X1011220Y647620D02*
D03*
X1017670Y647620D02*
D03*
X1043920Y647620D02*
D03*
X1050170Y679120D02*
D03*
X1056670Y679120D02*
D03*
X1069420Y686620D02*
D03*
X1069420Y696620D02*
D03*
X1085270Y691370D02*
D03*
X1101170Y669120D02*
D03*
X1134170Y680370D02*
D03*
X1134170Y701370D02*
D03*
X1121920Y689370D02*
D03*
X1134170Y713370D02*
D03*
X1101170Y724120D02*
D03*
X1101170Y699120D02*
D03*
X1069420Y711620D02*
D03*
X1037420Y679120D02*
D03*
X1020170Y681620D02*
D03*
X1011220Y716620D02*
D03*
X991670Y749620D02*
D03*
M02*
