M48
;Layer_Color=9474304
;FILE_FORMAT=4:4
METRIC,TZ
;TYPE=PLATED
T1F00S00C0.1500
%
T01
X293500Y274500
X293750Y279750
X293750Y284750
X293750Y290000
X294250Y295250
X298250Y309750
X294000Y314750
X339750Y305500
X344750Y309250
X347750Y313500
X358750Y323000
X380750Y324250
X388750Y324250
X377000Y313000
X366000Y293500
X348750Y281500
X382750Y270250
X406250Y284000
X406000Y310750
X426000Y293250
X440750Y324000
X471000Y321500
X500250Y322000
X530250Y322750
X560250Y322500
X591000Y323250
X620250Y279000
X650250Y276750
X680250Y275500
X710250Y274500
X740250Y271250
X748750Y271000
M30
