G04*
G04 #@! TF.GenerationSoftware,Altium Limited,Altium Designer,26.7.1 (11)*
G04*
G04 Layer_Color=8388736*
G04 Board_Origin=29229129|20585428*
%FSLAX44Y44*%
%MOMM*%
G71*
G04*
G04 #@! TF.SameCoordinates,31E62F62-3817-4462-BAAA-4DC708AA23D2*
G04*
G04*
G04 #@! TF.FilePolarity,Negative*
G04*
G01*
G75*
%ADD23R,0.8000X0.2700*%
%ADD24R,0.9000X0.2700*%
%ADD29R,1.0200X1.0200*%
%ADD30R,1.5700X0.6200*%
%ADD31R,1.8200X1.2200*%
%ADD32R,0.9200X1.7200*%
%ADD33O,0.8700X0.2200*%
%ADD34O,0.2200X0.8700*%
%ADD35R,0.9000X0.7000*%
%ADD36R,0.4200X0.6200*%
%ADD37R,0.8200X1.6200*%
%ADD38R,3.4200X3.4200*%
G04:AMPARAMS|DCode=39|XSize=1.25mm|YSize=0.7mm|CornerRadius=0.35mm|HoleSize=0mm|Usage=FLASHONLY|Rotation=90.000|XOffset=0mm|YOffset=0mm|HoleType=Round|Shape=RoundedRectangle|*
%AMROUNDEDRECTD39*
21,1,1.2500,0.0000,0,0,90.0*
21,1,0.5500,0.7000,0,0,90.0*
1,1,0.7000,0.0000,0.2750*
1,1,0.7000,0.0000,-0.2750*
1,1,0.7000,0.0000,-0.2750*
1,1,0.7000,0.0000,0.2750*
%
%ADD39ROUNDEDRECTD39*%
G04:AMPARAMS|DCode=40|XSize=0.6mm|YSize=1.9mm|CornerRadius=0.3mm|HoleSize=0mm|Usage=FLASHONLY|Rotation=90.000|XOffset=0mm|YOffset=0mm|HoleType=Round|Shape=RoundedRectangle|*
%AMROUNDEDRECTD40*
21,1,0.6000,1.3000,0,0,90.0*
21,1,0.0000,1.9000,0,0,90.0*
1,1,0.6000,0.6500,0.0000*
1,1,0.6000,0.6500,0.0000*
1,1,0.6000,-0.6500,0.0000*
1,1,0.6000,-0.6500,0.0000*
%
%ADD40ROUNDEDRECTD40*%
G04:AMPARAMS|DCode=41|XSize=1.3mm|YSize=2.6mm|CornerRadius=0.65mm|HoleSize=0mm|Usage=FLASHONLY|Rotation=90.000|XOffset=0mm|YOffset=0mm|HoleType=Round|Shape=RoundedRectangle|*
%AMROUNDEDRECTD41*
21,1,1.3000,1.3000,0,0,90.0*
21,1,0.0000,2.6000,0,0,90.0*
1,1,1.3000,0.6500,0.0000*
1,1,1.3000,0.6500,0.0000*
1,1,1.3000,-0.6500,0.0000*
1,1,1.3000,-0.6500,0.0000*
%
%ADD41ROUNDEDRECTD41*%
G04:AMPARAMS|DCode=42|XSize=0.85mm|YSize=0.5mm|CornerRadius=0.25mm|HoleSize=0mm|Usage=FLASHONLY|Rotation=90.000|XOffset=0mm|YOffset=0mm|HoleType=Round|Shape=RoundedRectangle|*
%AMROUNDEDRECTD42*
21,1,0.8500,0.0000,0,0,90.0*
21,1,0.3500,0.5000,0,0,90.0*
1,1,0.5000,0.0000,0.1750*
1,1,0.5000,0.0000,-0.1750*
1,1,0.5000,0.0000,-0.1750*
1,1,0.5000,0.0000,0.1750*
%
%ADD42ROUNDEDRECTD42*%
%ADD43C,0.6000*%
G36*
X347143Y217750D02*
X347923Y217647D01*
X348683Y217444D01*
X349409Y217143D01*
X350091Y216749D01*
X350714Y216271D01*
X351271Y215715D01*
X351749Y215091D01*
X352143Y214409D01*
X352444Y213683D01*
X352647Y212923D01*
X352750Y212143D01*
Y211750D01*
X352750Y205550D01*
X352750D01*
X352649Y205096D01*
X352296Y204234D01*
X351803Y203444D01*
X351185Y202748D01*
X350458Y202165D01*
X349644Y201714D01*
X348766Y201405D01*
X347848Y201248D01*
X347383Y201248D01*
X347366D01*
X347333Y201249D01*
X347300Y201249D01*
X347267Y201250D01*
X347250Y201250D01*
X346766Y201242D01*
X345810Y201395D01*
X344895Y201713D01*
X344050Y202186D01*
X343301Y202799D01*
X342670Y203534D01*
X342178Y204367D01*
X341838Y205274D01*
X341750Y205750D01*
X335750D01*
X335750Y205750D01*
X335278D01*
X334345Y205898D01*
X333447Y206190D01*
X332605Y206618D01*
X331841Y207174D01*
X331174Y207841D01*
X330618Y208605D01*
X330190Y209447D01*
X329898Y210345D01*
X329750Y211278D01*
X329750Y212222D01*
X329898Y213155D01*
X330190Y214053D01*
X330618Y214895D01*
X331174Y215659D01*
X331841Y216327D01*
X332605Y216882D01*
X333447Y217310D01*
X334345Y217602D01*
X335278Y217750D01*
X335750Y217750D01*
X346750Y217750D01*
X347143Y217750D01*
D02*
G37*
G36*
X347250Y135850D02*
X347267Y135850D01*
X347300Y135851D01*
X347333Y135851D01*
X347366Y135852D01*
X347383Y135851D01*
X347848Y135852D01*
X348766Y135695D01*
X349644Y135386D01*
X350458Y134935D01*
X351185Y134352D01*
X351803Y133656D01*
X352296Y132866D01*
X352649Y132004D01*
X352750Y131550D01*
X352750Y125350D01*
X352750D01*
X352750Y124957D01*
X352647Y124177D01*
X352444Y123417D01*
X352143Y122691D01*
X351749Y122009D01*
X351271Y121385D01*
X350714Y120829D01*
X350091Y120351D01*
X349409Y119957D01*
X348683Y119656D01*
X347923Y119453D01*
X347143Y119350D01*
X346750Y119350D01*
X335750Y119350D01*
X335750Y119350D01*
X335357Y119350D01*
X334577Y119453D01*
X333817Y119656D01*
X333091Y119957D01*
X332409Y120351D01*
X331786Y120829D01*
X331229Y121385D01*
X330751Y122009D01*
X330357Y122691D01*
X330056Y123417D01*
X329853Y124177D01*
X329750Y124957D01*
X329750Y125350D01*
X329750Y125743D01*
X329853Y126523D01*
X330056Y127283D01*
X330357Y128009D01*
X330751Y128691D01*
X331229Y129314D01*
X331786Y129871D01*
X332409Y130350D01*
X333091Y130743D01*
X333817Y131044D01*
X334577Y131247D01*
X335357Y131350D01*
X335750D01*
X341750Y131350D01*
X341750Y131350D01*
X341838Y131826D01*
X342178Y132733D01*
X342670Y133566D01*
X343301Y134301D01*
X344050Y134914D01*
X344895Y135387D01*
X345810Y135705D01*
X346766Y135858D01*
X347250Y135850D01*
D02*
G37*
D23*
X350250Y154800D02*
D03*
Y179800D02*
D03*
Y189800D02*
D03*
Y184800D02*
D03*
Y174800D02*
D03*
Y169800D02*
D03*
Y164800D02*
D03*
Y159800D02*
D03*
Y149800D02*
D03*
Y144800D02*
D03*
Y139800D02*
D03*
Y194800D02*
D03*
D24*
X334250Y182300D02*
D03*
Y157300D02*
D03*
Y147300D02*
D03*
Y152300D02*
D03*
Y162300D02*
D03*
Y167300D02*
D03*
Y172300D02*
D03*
Y177300D02*
D03*
Y187300D02*
D03*
Y192300D02*
D03*
Y142300D02*
D03*
Y197300D02*
D03*
D29*
X245980Y99500D02*
D03*
X276980D02*
D03*
X245980Y85500D02*
D03*
X276980D02*
D03*
X259500Y223830D02*
D03*
X228500D02*
D03*
X259500Y237830D02*
D03*
X228500D02*
D03*
X308370Y99580D02*
D03*
X339370D02*
D03*
X308370Y85580D02*
D03*
X339370D02*
D03*
D30*
X211750Y201000D02*
D03*
Y191000D02*
D03*
Y181000D02*
D03*
Y140750D02*
D03*
Y130750D02*
D03*
Y120750D02*
D03*
D31*
X173000Y168000D02*
D03*
Y214000D02*
D03*
Y107750D02*
D03*
Y153750D02*
D03*
D32*
X171580Y81880D02*
D03*
X207580D02*
D03*
X399750Y235500D02*
D03*
X399000Y100250D02*
D03*
X363000D02*
D03*
X363750Y235500D02*
D03*
D33*
X238828Y152750D02*
D03*
Y144750D02*
D03*
Y148750D02*
D03*
X306828Y180750D02*
D03*
Y152750D02*
D03*
X238828Y180750D02*
D03*
Y140750D02*
D03*
X306828Y128750D02*
D03*
X238828Y176750D02*
D03*
Y172750D02*
D03*
Y168750D02*
D03*
Y164750D02*
D03*
Y160750D02*
D03*
Y156750D02*
D03*
Y136750D02*
D03*
Y132750D02*
D03*
Y128750D02*
D03*
Y124750D02*
D03*
X306828D02*
D03*
Y132750D02*
D03*
Y136750D02*
D03*
Y140750D02*
D03*
Y144750D02*
D03*
Y148750D02*
D03*
Y156750D02*
D03*
Y160750D02*
D03*
Y164750D02*
D03*
Y168750D02*
D03*
Y176750D02*
D03*
D34*
X248828Y118750D02*
D03*
X256828D02*
D03*
X252828D02*
D03*
X288828Y186750D02*
D03*
X300828Y118750D02*
D03*
X260828D02*
D03*
X244828D02*
D03*
X264828D02*
D03*
X268828D02*
D03*
X272828D02*
D03*
X276828D02*
D03*
X280828D02*
D03*
X284828D02*
D03*
X288828D02*
D03*
X292828D02*
D03*
X296828D02*
D03*
X300828Y186750D02*
D03*
X296828D02*
D03*
X292828D02*
D03*
X284828D02*
D03*
X280828D02*
D03*
X276828D02*
D03*
X272828D02*
D03*
X268828D02*
D03*
X264828D02*
D03*
X260828D02*
D03*
X256828D02*
D03*
X252828D02*
D03*
X248828D02*
D03*
X244828D02*
D03*
D35*
X309828Y197500D02*
D03*
Y213500D02*
D03*
D36*
X261328Y201000D02*
D03*
X271328D02*
D03*
D37*
X297328Y209000D02*
D03*
X282328D02*
D03*
D38*
X272828Y152750D02*
D03*
D39*
X347350Y208500D02*
D03*
D40*
X341250Y125350D02*
D03*
D41*
X391750D02*
D03*
Y211750D02*
D03*
D42*
X360600Y204550D02*
D03*
D43*
X361250Y132550D02*
D03*
M02*
