G04*
G04 #@! TF.GenerationSoftware,Altium Limited,Altium Designer,26.7.1 (11)*
G04*
G04 Layer_Physical_Order=2*
G04 Layer_Color=36540*
G04 Board_Origin=29229129|20585428*
%FSLAX44Y44*%
%MOMM*%
G71*
G04*
G04 #@! TF.SameCoordinates,31E62F62-3817-4462-BAAA-4DC708AA23D2*
G04*
G04*
G04 #@! TF.FilePolarity,Positive*
G04*
G01*
G75*
G04:AMPARAMS|DCode=39|XSize=1.25mm|YSize=0.7mm|CornerRadius=0.35mm|HoleSize=0mm|Usage=FLASHONLY|Rotation=90.000|XOffset=0mm|YOffset=0mm|HoleType=Round|Shape=RoundedRectangle|*
%AMROUNDEDRECTD39*
21,1,1.2500,0.0000,0,0,90.0*
21,1,0.5500,0.7000,0,0,90.0*
1,1,0.7000,0.0000,0.2750*
1,1,0.7000,0.0000,-0.2750*
1,1,0.7000,0.0000,-0.2750*
1,1,0.7000,0.0000,0.2750*
%
%ADD39ROUNDEDRECTD39*%
G04:AMPARAMS|DCode=40|XSize=0.6mm|YSize=1.9mm|CornerRadius=0.3mm|HoleSize=0mm|Usage=FLASHONLY|Rotation=90.000|XOffset=0mm|YOffset=0mm|HoleType=Round|Shape=RoundedRectangle|*
%AMROUNDEDRECTD40*
21,1,0.6000,1.3000,0,0,90.0*
21,1,0.0000,1.9000,0,0,90.0*
1,1,0.6000,0.6500,0.0000*
1,1,0.6000,0.6500,0.0000*
1,1,0.6000,-0.6500,0.0000*
1,1,0.6000,-0.6500,0.0000*
%
%ADD40ROUNDEDRECTD40*%
G04:AMPARAMS|DCode=41|XSize=1.3mm|YSize=2.6mm|CornerRadius=0.65mm|HoleSize=0mm|Usage=FLASHONLY|Rotation=90.000|XOffset=0mm|YOffset=0mm|HoleType=Round|Shape=RoundedRectangle|*
%AMROUNDEDRECTD41*
21,1,1.3000,1.3000,0,0,90.0*
21,1,0.0000,2.6000,0,0,90.0*
1,1,1.3000,0.6500,0.0000*
1,1,1.3000,0.6500,0.0000*
1,1,1.3000,-0.6500,0.0000*
1,1,1.3000,-0.6500,0.0000*
%
%ADD41ROUNDEDRECTD41*%
G04:AMPARAMS|DCode=42|XSize=0.85mm|YSize=0.5mm|CornerRadius=0.25mm|HoleSize=0mm|Usage=FLASHONLY|Rotation=90.000|XOffset=0mm|YOffset=0mm|HoleType=Round|Shape=RoundedRectangle|*
%AMROUNDEDRECTD42*
21,1,0.8500,0.0000,0,0,90.0*
21,1,0.3500,0.5000,0,0,90.0*
1,1,0.5000,0.0000,0.1750*
1,1,0.5000,0.0000,-0.1750*
1,1,0.5000,0.0000,-0.1750*
1,1,0.5000,0.0000,0.1750*
%
%ADD42ROUNDEDRECTD42*%
%ADD43C,0.6000*%
%ADD47C,0.3500*%
G36*
X406941Y212922D02*
X405671Y212839D01*
X405557Y213708D01*
X404801Y215532D01*
X403599Y217099D01*
X402032Y218301D01*
X400208Y219057D01*
X398250Y219315D01*
X385250D01*
X383292Y219057D01*
X381468Y218301D01*
X379901Y217099D01*
X378699Y215532D01*
X377943Y213708D01*
X377685Y211750D01*
X377943Y209792D01*
X378699Y207968D01*
X379901Y206401D01*
X381468Y205199D01*
X383292Y204443D01*
X385250Y204185D01*
X398250D01*
X400208Y204443D01*
X402032Y205199D01*
X403599Y206401D01*
X404801Y207968D01*
X405557Y209792D01*
X405671Y210661D01*
X406941Y210578D01*
X406941Y126522D01*
X405671Y126439D01*
X405557Y127308D01*
X404801Y129132D01*
X403599Y130699D01*
X402032Y131901D01*
X400208Y132657D01*
X398250Y132915D01*
X385250D01*
X383292Y132657D01*
X381468Y131901D01*
X379901Y130699D01*
X378699Y129132D01*
X377943Y127308D01*
X377685Y125350D01*
X377943Y123392D01*
X378699Y121568D01*
X379901Y120001D01*
X381468Y118799D01*
X383292Y118043D01*
X385250Y117785D01*
X398250D01*
X400208Y118043D01*
X402032Y118799D01*
X403599Y120001D01*
X404801Y121568D01*
X405557Y123392D01*
X405671Y124261D01*
X406941Y124178D01*
Y56809D01*
X163059Y56809D01*
Y300000D01*
X406941D01*
Y212922D01*
D02*
G37*
%LPC*%
G36*
X262797Y240580D02*
X261703D01*
X260692Y240161D01*
X259919Y239388D01*
X259500Y238377D01*
Y237283D01*
X259919Y236272D01*
X260692Y235499D01*
X261703Y235080D01*
X262797D01*
X263808Y235499D01*
X264581Y236272D01*
X265000Y237283D01*
Y238377D01*
X264581Y239388D01*
X263808Y240161D01*
X262797Y240580D01*
D02*
G37*
G36*
X220047Y235500D02*
X218953D01*
X217942Y235081D01*
X217169Y234308D01*
X216750Y233297D01*
Y232203D01*
X217169Y231192D01*
X217942Y230419D01*
X218953Y230000D01*
X220047D01*
X221058Y230419D01*
X221831Y231192D01*
X222250Y232203D01*
Y233297D01*
X221831Y234308D01*
X221058Y235081D01*
X220047Y235500D01*
D02*
G37*
G36*
X219797Y228500D02*
X218703D01*
X217692Y228081D01*
X216919Y227308D01*
X216500Y226297D01*
Y225203D01*
X216919Y224192D01*
X217692Y223419D01*
X218703Y223000D01*
X219797D01*
X220808Y223419D01*
X221581Y224192D01*
X222000Y225203D01*
Y226297D01*
X221581Y227308D01*
X220808Y228081D01*
X219797Y228500D01*
D02*
G37*
G36*
X262647Y226580D02*
X261553D01*
X260542Y226161D01*
X259769Y225388D01*
X259350Y224377D01*
Y223283D01*
X259769Y222272D01*
X260542Y221499D01*
X261553Y221080D01*
X262647D01*
X263658Y221499D01*
X264431Y222272D01*
X264850Y223283D01*
Y224377D01*
X264431Y225388D01*
X263658Y226161D01*
X262647Y226580D01*
D02*
G37*
G36*
X346750Y218832D02*
X346750Y218832D01*
X346750Y218832D01*
X335750Y218832D01*
X335278Y218832D01*
X335195Y218798D01*
X335108Y218819D01*
X334176Y218671D01*
X334100Y218625D01*
X334011Y218632D01*
X333112Y218340D01*
X333044Y218282D01*
X332955Y218275D01*
X332114Y217846D01*
X332056Y217778D01*
X331969Y217757D01*
X331205Y217202D01*
X331158Y217126D01*
X331076Y217092D01*
X330408Y216424D01*
X330374Y216342D01*
X330298Y216295D01*
X329743Y215531D01*
X329722Y215444D01*
X329654Y215386D01*
X329225Y214545D01*
X329218Y214456D01*
X329160Y214388D01*
X328868Y213489D01*
X328875Y213400D01*
X328829Y213324D01*
X328681Y212391D01*
X328702Y212305D01*
X328668Y212222D01*
X328668Y211278D01*
X328702Y211195D01*
X328681Y211108D01*
X328829Y210176D01*
X328875Y210100D01*
X328868Y210011D01*
X329160Y209112D01*
X329218Y209044D01*
X329225Y208955D01*
X329654Y208114D01*
X329722Y208056D01*
X329743Y207969D01*
X330298Y207205D01*
X330374Y207158D01*
X330408Y207076D01*
X331076Y206408D01*
X331158Y206374D01*
X331205Y206298D01*
X331969Y205743D01*
X332056Y205722D01*
X332114Y205654D01*
X332955Y205225D01*
X333044Y205218D01*
X333112Y205160D01*
X334011Y204868D01*
X334100Y204875D01*
X334176Y204829D01*
X335108Y204681D01*
X335195Y204702D01*
X335278Y204668D01*
X335750D01*
X335750Y204668D01*
X340909D01*
X341164Y203988D01*
X341232Y203915D01*
X341246Y203816D01*
X341738Y202983D01*
X341818Y202923D01*
X341849Y202829D01*
X342480Y202094D01*
X342568Y202049D01*
X342616Y201961D01*
X343365Y201348D01*
X343460Y201320D01*
X343522Y201241D01*
X344367Y200769D01*
X344465Y200757D01*
X344540Y200691D01*
X345454Y200373D01*
X345554Y200379D01*
X345639Y200326D01*
X346595Y200173D01*
X346691Y200196D01*
X346784Y200160D01*
X347247Y200167D01*
X347280Y200167D01*
X347283Y200168D01*
X347286Y200167D01*
X347319Y200166D01*
X347323Y200168D01*
X347327Y200166D01*
X347360Y200166D01*
X347363Y200167D01*
X347366Y200166D01*
X347848Y200166D01*
X347937Y200203D01*
X348030Y200181D01*
X348948Y200338D01*
X349029Y200389D01*
X349125Y200384D01*
X350003Y200692D01*
X350075Y200756D01*
X350170Y200767D01*
X350984Y201219D01*
X351043Y201294D01*
X351135Y201321D01*
X351862Y201903D01*
X351908Y201987D01*
X351994Y202029D01*
X352613Y202725D01*
X352644Y202815D01*
X352722Y202871D01*
X353214Y203661D01*
X353230Y203756D01*
X353298Y203824D01*
X353650Y204686D01*
X353650Y204781D01*
X353705Y204860D01*
X353806Y205314D01*
X353785Y205436D01*
X353832Y205550D01*
X353832Y212143D01*
X353804Y212212D01*
X353823Y212285D01*
X353721Y213064D01*
X353683Y213129D01*
X353693Y213203D01*
X353489Y213963D01*
X353444Y214022D01*
Y214097D01*
X353143Y214824D01*
X353090Y214876D01*
X353080Y214951D01*
X352687Y215632D01*
X352628Y215677D01*
X352608Y215749D01*
X352129Y216374D01*
X352065Y216411D01*
X352036Y216480D01*
X351480Y217036D01*
X351411Y217065D01*
X351373Y217129D01*
X350750Y217608D01*
X350677Y217628D01*
X350632Y217687D01*
X349951Y218080D01*
X349877Y218090D01*
X349824Y218143D01*
X349097Y218444D01*
X349022D01*
X348963Y218489D01*
X348203Y218693D01*
X348129Y218683D01*
X348064Y218720D01*
X347285Y218823D01*
X347212Y218804D01*
X347143Y218832D01*
X346750Y218832D01*
D02*
G37*
G36*
X282875Y211750D02*
X281781D01*
X280771Y211331D01*
X279997Y210558D01*
X279578Y209547D01*
Y208453D01*
X279997Y207442D01*
X280771Y206669D01*
X281781Y206250D01*
X282875D01*
X283886Y206669D01*
X284660Y207442D01*
X285078Y208453D01*
Y209547D01*
X284660Y210558D01*
X283886Y211331D01*
X282875Y211750D01*
D02*
G37*
G36*
X311875Y207000D02*
X310781D01*
X309771Y206581D01*
X308997Y205808D01*
X308578Y204797D01*
Y203703D01*
X308997Y202692D01*
X309771Y201919D01*
X310781Y201500D01*
X311875D01*
X312886Y201919D01*
X313660Y202692D01*
X314078Y203703D01*
Y204797D01*
X313660Y205808D01*
X312886Y206581D01*
X311875Y207000D01*
D02*
G37*
G36*
X217547Y203750D02*
X216453D01*
X215442Y203331D01*
X214669Y202558D01*
X214250Y201547D01*
Y200453D01*
X214669Y199442D01*
X215442Y198669D01*
X216453Y198250D01*
X217547D01*
X218558Y198669D01*
X219331Y199442D01*
X219750Y200453D01*
Y201547D01*
X219331Y202558D01*
X218558Y203331D01*
X217547Y203750D01*
D02*
G37*
G36*
X201047D02*
X199953D01*
X198942Y203331D01*
X198169Y202558D01*
X197750Y201547D01*
Y200453D01*
X198169Y199442D01*
X198942Y198669D01*
X199953Y198250D01*
X201047D01*
X202058Y198669D01*
X202831Y199442D01*
X203250Y200453D01*
Y201547D01*
X202831Y202558D01*
X202058Y203331D01*
X201047Y203750D01*
D02*
G37*
G36*
X360600Y211092D02*
X358766Y210727D01*
X357211Y209688D01*
X356173Y208134D01*
X355808Y206300D01*
Y202800D01*
X356173Y200966D01*
X357211Y199412D01*
X358766Y198373D01*
X360600Y198008D01*
X362434Y198373D01*
X363988Y199412D01*
X365027Y200966D01*
X365392Y202800D01*
Y206300D01*
X365027Y208134D01*
X363988Y209688D01*
X362434Y210727D01*
X360600Y211092D01*
D02*
G37*
G36*
X248125Y197700D02*
X247031D01*
X246021Y197281D01*
X245247Y196508D01*
X244828Y195497D01*
Y194403D01*
X245247Y193392D01*
X246021Y192619D01*
X247031Y192200D01*
X248125D01*
X249136Y192619D01*
X249910Y193392D01*
X250328Y194403D01*
Y195497D01*
X249910Y196508D01*
X249136Y197281D01*
X248125Y197700D01*
D02*
G37*
G36*
X326297Y190250D02*
X325203D01*
X324192Y189831D01*
X323419Y189058D01*
X323000Y188047D01*
Y186953D01*
X323306Y186215D01*
X322715Y185391D01*
X322460Y185191D01*
X322197Y185300D01*
X321103D01*
X320092Y184881D01*
X319319Y184108D01*
X318900Y183097D01*
Y182003D01*
X319319Y180992D01*
X320092Y180219D01*
X321103Y179800D01*
X322197D01*
X322510Y179930D01*
X323082Y179380D01*
X323355Y178905D01*
X323000Y178047D01*
Y176953D01*
X323419Y175942D01*
X324192Y175169D01*
X325203Y174750D01*
X326297D01*
X327308Y175169D01*
X328081Y175942D01*
X328500Y176953D01*
Y178047D01*
X328081Y179058D01*
X327308Y179831D01*
X326297Y180250D01*
X325203D01*
X324890Y180120D01*
X324318Y180669D01*
X324044Y181145D01*
X324400Y182003D01*
Y183097D01*
X324094Y183835D01*
X324685Y184659D01*
X324940Y184859D01*
X325203Y184750D01*
X326297D01*
X327308Y185169D01*
X328081Y185942D01*
X328500Y186953D01*
Y188047D01*
X328081Y189058D01*
X327308Y189831D01*
X326297Y190250D01*
D02*
G37*
G36*
X174047Y189500D02*
X172953D01*
X171942Y189081D01*
X171169Y188308D01*
X170750Y187297D01*
Y186203D01*
X171169Y185192D01*
X171942Y184419D01*
X172953Y184000D01*
X174047D01*
X175058Y184419D01*
X175831Y185192D01*
X176250Y186203D01*
Y187297D01*
X175831Y188308D01*
X175058Y189081D01*
X174047Y189500D01*
D02*
G37*
G36*
X194297Y188500D02*
X193203D01*
X192192Y188081D01*
X191419Y187308D01*
X191000Y186297D01*
Y185203D01*
X191419Y184192D01*
X192192Y183419D01*
X193203Y183000D01*
X194297D01*
X195308Y183419D01*
X196081Y184192D01*
X196500Y185203D01*
Y186297D01*
X196081Y187308D01*
X195308Y188081D01*
X194297Y188500D01*
D02*
G37*
G36*
X239375Y187500D02*
X238281D01*
X237271Y187081D01*
X236497Y186308D01*
X236078Y185297D01*
Y184203D01*
X236497Y183192D01*
X237271Y182419D01*
X238281Y182000D01*
X239375D01*
X240386Y182419D01*
X241160Y183192D01*
X241578Y184203D01*
Y185297D01*
X241160Y186308D01*
X240386Y187081D01*
X239375Y187500D01*
D02*
G37*
G36*
X276125Y181176D02*
X275031D01*
X274021Y180758D01*
X273247Y179984D01*
X272386Y180581D01*
X271375Y181000D01*
X270281D01*
X269271Y180581D01*
X268497Y179808D01*
X268078Y178797D01*
Y177703D01*
X268497Y176692D01*
X269271Y175919D01*
X270281Y175500D01*
X271375D01*
X272386Y175919D01*
X273160Y176692D01*
X274021Y176095D01*
X275031Y175676D01*
X276125D01*
X277136Y176095D01*
X277997Y176692D01*
X278771Y175919D01*
X279781Y175500D01*
X280875D01*
X281886Y175919D01*
X282660Y176692D01*
X283078Y177703D01*
Y178797D01*
X282660Y179808D01*
X281886Y180581D01*
X280875Y181000D01*
X279781D01*
X278771Y180581D01*
X277910Y179984D01*
X277136Y180758D01*
X276125Y181176D01*
D02*
G37*
G36*
X217547Y183750D02*
X216453D01*
X215442Y183331D01*
X214669Y182558D01*
X214250Y181547D01*
Y180453D01*
X214669Y179442D01*
X215442Y178669D01*
X216453Y178250D01*
X217547D01*
X218558Y178669D01*
X219331Y179442D01*
X219750Y180453D01*
Y181547D01*
X219331Y182558D01*
X218558Y183331D01*
X217547Y183750D01*
D02*
G37*
G36*
X248375Y181750D02*
X247281D01*
X246271Y181331D01*
X245497Y180558D01*
X245079Y179547D01*
Y178453D01*
X245497Y177442D01*
X246271Y176669D01*
X247281Y176250D01*
X248375D01*
X249386Y176669D01*
X250160Y177442D01*
X250578Y178453D01*
Y179547D01*
X250160Y180558D01*
X249386Y181331D01*
X248375Y181750D01*
D02*
G37*
G36*
X289375Y181000D02*
X288281D01*
X287271Y180581D01*
X286497Y179808D01*
X286078Y178797D01*
Y177703D01*
X286497Y176692D01*
X287271Y175919D01*
X288281Y175500D01*
X289375D01*
X290386Y175919D01*
X291160Y176692D01*
X291578Y177703D01*
Y178797D01*
X291160Y179808D01*
X290386Y180581D01*
X289375Y181000D01*
D02*
G37*
G36*
X305375Y179500D02*
X304281D01*
X303271Y179081D01*
X302497Y178308D01*
X302078Y177297D01*
Y176203D01*
X302497Y175192D01*
X303271Y174419D01*
X304281Y174000D01*
X305375D01*
X306386Y174419D01*
X307160Y175192D01*
X307578Y176203D01*
Y177297D01*
X307160Y178308D01*
X306386Y179081D01*
X305375Y179500D01*
D02*
G37*
G36*
X396047Y177250D02*
X394953D01*
X393942Y176831D01*
X393169Y176058D01*
X392750Y175047D01*
Y173953D01*
X393169Y172942D01*
X393942Y172169D01*
X394953Y171750D01*
X396047D01*
X397058Y172169D01*
X397831Y172942D01*
X398250Y173953D01*
Y175047D01*
X397831Y176058D01*
X397058Y176831D01*
X396047Y177250D01*
D02*
G37*
G36*
X230547Y176000D02*
X229453D01*
X228442Y175581D01*
X227669Y174808D01*
X227250Y173797D01*
Y172703D01*
X227669Y171692D01*
X228442Y170919D01*
X229453Y170500D01*
X230547D01*
X231558Y170919D01*
X232331Y171692D01*
X232750Y172703D01*
Y173797D01*
X232331Y174808D01*
X231558Y175581D01*
X230547Y176000D01*
D02*
G37*
G36*
X207047Y173250D02*
X205953D01*
X204942Y172831D01*
X204169Y172058D01*
X203750Y171047D01*
Y169953D01*
X204169Y168942D01*
X204942Y168169D01*
X205953Y167750D01*
X207047D01*
X208058Y168169D01*
X208831Y168942D01*
X209250Y169953D01*
Y171047D01*
X208831Y172058D01*
X208058Y172831D01*
X207047Y173250D01*
D02*
G37*
G36*
X357947Y178050D02*
X356853D01*
X355842Y177631D01*
X355069Y176858D01*
X354650Y175847D01*
Y174753D01*
X355069Y173742D01*
X355287Y173524D01*
X355769Y172822D01*
X355287Y171864D01*
X355189Y171766D01*
X354770Y170755D01*
Y169661D01*
X355189Y168650D01*
X355962Y167877D01*
X356973Y167458D01*
X358067D01*
X359078Y167877D01*
X359851Y168650D01*
X360270Y169661D01*
Y170755D01*
X359851Y171766D01*
X359633Y171984D01*
X359151Y172686D01*
X359633Y173644D01*
X359731Y173742D01*
X360150Y174753D01*
Y175847D01*
X359731Y176858D01*
X358958Y177631D01*
X357947Y178050D01*
D02*
G37*
G36*
X315547Y170750D02*
X314453D01*
X313442Y170331D01*
X312669Y169558D01*
X312250Y168547D01*
Y167453D01*
X312669Y166442D01*
X313442Y165669D01*
X314453Y165250D01*
X315547D01*
X316558Y165669D01*
X317331Y166442D01*
X317750Y167453D01*
Y168547D01*
X317331Y169558D01*
X316558Y170331D01*
X315547Y170750D01*
D02*
G37*
G36*
X327547Y169750D02*
X326453D01*
X325442Y169331D01*
X324669Y168558D01*
X324250Y167547D01*
Y166453D01*
X324669Y165442D01*
X325442Y164669D01*
X326453Y164250D01*
X327547D01*
X328558Y164669D01*
X329331Y165442D01*
X329750Y166453D01*
Y167547D01*
X329331Y168558D01*
X328558Y169331D01*
X327547Y169750D01*
D02*
G37*
G36*
X295375Y169611D02*
X294281D01*
X293271Y169193D01*
X292497Y168419D01*
X292078Y167408D01*
Y166314D01*
X292497Y165304D01*
X293271Y164530D01*
X294281Y164111D01*
X295375D01*
X296386Y164530D01*
X297160Y165304D01*
X297578Y166314D01*
Y167408D01*
X297160Y168419D01*
X296386Y169193D01*
X295375Y169611D01*
D02*
G37*
G36*
X357559Y165592D02*
X356465D01*
X355454Y165173D01*
X354681Y164400D01*
X354262Y163389D01*
Y162295D01*
X354681Y161284D01*
X355454Y160511D01*
X356465Y160092D01*
X357559D01*
X358570Y160511D01*
X359343Y161284D01*
X359762Y162295D01*
Y163389D01*
X359343Y164400D01*
X358570Y165173D01*
X357559Y165592D01*
D02*
G37*
G36*
X246625Y163500D02*
X245531D01*
X244521Y163081D01*
X243747Y162308D01*
X243328Y161297D01*
Y160203D01*
X243747Y159192D01*
X244521Y158419D01*
X245531Y158000D01*
X246625D01*
X247636Y158419D01*
X248410Y159192D01*
X248828Y160203D01*
Y161297D01*
X248410Y162308D01*
X247636Y163081D01*
X246625Y163500D01*
D02*
G37*
G36*
X203047Y161250D02*
X201953D01*
X200942Y160831D01*
X200169Y160058D01*
X199750Y159047D01*
Y157953D01*
X200169Y156942D01*
X200942Y156169D01*
X201953Y155750D01*
X203047D01*
X204058Y156169D01*
X204831Y156942D01*
X205250Y157953D01*
Y159047D01*
X204831Y160058D01*
X204058Y160831D01*
X203047Y161250D01*
D02*
G37*
G36*
X305375Y159500D02*
X304281D01*
X303271Y159081D01*
X302497Y158308D01*
X302078Y157297D01*
Y156203D01*
X302497Y155192D01*
X303271Y154419D01*
X304281Y154000D01*
X305375D01*
X306386Y154419D01*
X307160Y155192D01*
X307578Y156203D01*
Y157297D01*
X307160Y158308D01*
X306386Y159081D01*
X305375Y159500D01*
D02*
G37*
G36*
X364197Y155800D02*
X363103D01*
X362092Y155381D01*
X361319Y154608D01*
X360900Y153597D01*
Y152503D01*
X361319Y151492D01*
X362092Y150719D01*
X363103Y150300D01*
X364197D01*
X365208Y150719D01*
X365981Y151492D01*
X366400Y152503D01*
Y153597D01*
X365981Y154608D01*
X365208Y155381D01*
X364197Y155800D01*
D02*
G37*
G36*
X326697Y151800D02*
X325603D01*
X324592Y151381D01*
X323819Y150608D01*
X323400Y149597D01*
Y148503D01*
X323819Y147492D01*
X324592Y146719D01*
X325603Y146300D01*
X326697D01*
X327708Y146719D01*
X328481Y147492D01*
X328900Y148503D01*
Y149597D01*
X328481Y150608D01*
X327708Y151381D01*
X326697Y151800D01*
D02*
G37*
G36*
X231625Y143500D02*
X230531D01*
X229521Y143081D01*
X228747Y142308D01*
X228328Y141297D01*
Y140470D01*
X227651Y139824D01*
X227213Y139578D01*
X226797Y139750D01*
X225703D01*
X224692Y139331D01*
X223919Y138558D01*
X223500Y137547D01*
Y136453D01*
X223919Y135442D01*
X223669Y134058D01*
X223250Y133047D01*
Y131953D01*
X223669Y130942D01*
X224442Y130169D01*
X225453Y129750D01*
X226547D01*
X227558Y130169D01*
X228331Y130942D01*
X228750Y131953D01*
Y133047D01*
X228331Y134058D01*
X228581Y135442D01*
X229000Y136453D01*
Y137280D01*
X229677Y137927D01*
X230116Y138172D01*
X230531Y138000D01*
X231625D01*
X232636Y138419D01*
X233410Y139192D01*
X233828Y140203D01*
Y141297D01*
X233410Y142308D01*
X232636Y143081D01*
X231625Y143500D01*
D02*
G37*
G36*
X217547Y143750D02*
X216453D01*
X215442Y143331D01*
X214669Y142558D01*
X214250Y141547D01*
Y140453D01*
X214669Y139442D01*
X215442Y138669D01*
X216453Y138250D01*
X217547D01*
X218558Y138669D01*
X219331Y139442D01*
X219750Y140453D01*
Y141547D01*
X219331Y142558D01*
X218558Y143331D01*
X217547Y143750D01*
D02*
G37*
G36*
X201797Y143500D02*
X200703D01*
X199692Y143081D01*
X198919Y142308D01*
X198500Y141297D01*
Y140203D01*
X198919Y139192D01*
X199692Y138419D01*
X200703Y138000D01*
X201797D01*
X202808Y138419D01*
X203581Y139192D01*
X204000Y140203D01*
Y141297D01*
X203581Y142308D01*
X202808Y143081D01*
X201797Y143500D01*
D02*
G37*
G36*
X189547D02*
X188453D01*
X187442Y143081D01*
X186669Y142308D01*
X186250Y141297D01*
Y140203D01*
X186669Y139192D01*
X187442Y138419D01*
X188453Y138000D01*
X189547D01*
X190558Y138419D01*
X191331Y139192D01*
X191750Y140203D01*
Y141297D01*
X191331Y142308D01*
X190558Y143081D01*
X189547Y143500D01*
D02*
G37*
G36*
X346784Y136940D02*
X346692Y136904D01*
X346595Y136927D01*
X345639Y136774D01*
X345554Y136721D01*
X345454Y136727D01*
X344540Y136409D01*
X344466Y136343D01*
X344367Y136332D01*
X343522Y135859D01*
X343460Y135781D01*
X343365Y135752D01*
X342616Y135139D01*
X342569Y135051D01*
X342480Y135006D01*
X341849Y134271D01*
X341818Y134177D01*
X341738Y134117D01*
X341246Y133284D01*
X341232Y133185D01*
X341164Y133112D01*
X340909Y132432D01*
X335357Y132432D01*
X335288Y132404D01*
X335215Y132423D01*
X334436Y132320D01*
X334371Y132283D01*
X334297Y132293D01*
X333537Y132089D01*
X333478Y132044D01*
X333403D01*
X332676Y131743D01*
X332623Y131690D01*
X332549Y131680D01*
X331868Y131287D01*
X331823Y131228D01*
X331750Y131208D01*
X331127Y130729D01*
X331089Y130665D01*
X331020Y130636D01*
X330464Y130080D01*
X330435Y130011D01*
X330371Y129973D01*
X329892Y129349D01*
X329873Y129277D01*
X329813Y129232D01*
X329420Y128551D01*
X329410Y128476D01*
X329357Y128424D01*
X329056Y127697D01*
Y127622D01*
X329011Y127563D01*
X328807Y126803D01*
X328817Y126729D01*
X328780Y126664D01*
X328677Y125885D01*
X328696Y125812D01*
X328668Y125743D01*
X328668Y125350D01*
X328668Y124957D01*
X328696Y124888D01*
X328677Y124815D01*
X328780Y124036D01*
X328817Y123971D01*
X328807Y123897D01*
X329011Y123137D01*
X329056Y123078D01*
Y123003D01*
X329357Y122276D01*
X329410Y122224D01*
X329420Y122149D01*
X329813Y121468D01*
X329872Y121423D01*
X329892Y121350D01*
X330371Y120726D01*
X330435Y120689D01*
X330464Y120620D01*
X331020Y120064D01*
X331089Y120035D01*
X331127Y119971D01*
X331750Y119492D01*
X331823Y119472D01*
X331868Y119413D01*
X332549Y119020D01*
X332623Y119010D01*
X332676Y118957D01*
X333403Y118656D01*
X333478D01*
X333537Y118611D01*
X334297Y118407D01*
X334371Y118417D01*
X334436Y118379D01*
X335215Y118277D01*
X335288Y118296D01*
X335357Y118268D01*
X335750Y118268D01*
X335750Y118268D01*
X346750Y118268D01*
X347143Y118268D01*
X347212Y118296D01*
X347285Y118277D01*
X348064Y118379D01*
X348129Y118417D01*
X348203Y118407D01*
X348963Y118611D01*
X349022Y118656D01*
X349097D01*
X349824Y118957D01*
X349877Y119010D01*
X349951Y119020D01*
X350632Y119413D01*
X350677Y119472D01*
X350750Y119492D01*
X351373Y119971D01*
X351411Y120035D01*
X351480Y120064D01*
X352036Y120620D01*
X352065Y120689D01*
X352129Y120726D01*
X352608Y121350D01*
X352628Y121423D01*
X352687Y121468D01*
X353080Y122149D01*
X353090Y122224D01*
X353143Y122276D01*
X353444Y123003D01*
Y123078D01*
X353489Y123137D01*
X353693Y123897D01*
X353683Y123971D01*
X353720Y124036D01*
X353823Y124816D01*
X353804Y124888D01*
X353832Y124957D01*
X353832Y125350D01*
X353832Y125350D01*
X353832Y131550D01*
X353785Y131664D01*
X353806Y131786D01*
X353705Y132240D01*
X353650Y132319D01*
X353650Y132414D01*
X353298Y133276D01*
X353230Y133344D01*
X353214Y133439D01*
X352722Y134229D01*
X352644Y134284D01*
X352613Y134375D01*
X351994Y135071D01*
X351908Y135113D01*
X351862Y135197D01*
X351135Y135779D01*
X351043Y135806D01*
X350984Y135881D01*
X350170Y136333D01*
X350075Y136344D01*
X350003Y136408D01*
X349125Y136716D01*
X349029Y136711D01*
X348948Y136762D01*
X348030Y136919D01*
X347937Y136897D01*
X347848Y136934D01*
X347384Y136934D01*
X347368Y136934D01*
X347364Y136932D01*
X347359Y136934D01*
X347326Y136934D01*
X347323Y136932D01*
X347320Y136934D01*
X347287Y136933D01*
X347284Y136932D01*
X347280Y136933D01*
X347247Y136933D01*
X347247Y136933D01*
X346784Y136940D01*
D02*
G37*
G36*
X246625Y138750D02*
X245531D01*
X244521Y138331D01*
X243747Y137558D01*
X243328Y136547D01*
Y135453D01*
X243747Y134442D01*
X244521Y133669D01*
X245531Y133250D01*
X246625D01*
X247636Y133669D01*
X248410Y134442D01*
X248828Y135453D01*
Y136547D01*
X248410Y137558D01*
X247636Y138331D01*
X246625Y138750D01*
D02*
G37*
G36*
X300375Y136250D02*
X299281D01*
X298271Y135831D01*
X297497Y135058D01*
X297078Y134047D01*
Y132953D01*
X297497Y131942D01*
X298271Y131169D01*
X299281Y130750D01*
X300375D01*
X301386Y131169D01*
X302160Y131942D01*
X302578Y132953D01*
Y134047D01*
X302160Y135058D01*
X301386Y135831D01*
X300375Y136250D01*
D02*
G37*
G36*
X362284Y137750D02*
X360216D01*
X358304Y136958D01*
X356842Y135496D01*
X356050Y133584D01*
Y131516D01*
X356842Y129604D01*
X358304Y128142D01*
X360216Y127350D01*
X362284D01*
X364196Y128142D01*
X365658Y129604D01*
X366450Y131516D01*
Y133584D01*
X365658Y135496D01*
X364196Y136958D01*
X362284Y137750D01*
D02*
G37*
G36*
X294625Y128361D02*
X293531D01*
X292521Y127943D01*
X291747Y127169D01*
X291328Y126158D01*
Y125064D01*
X291747Y124054D01*
X292521Y123280D01*
X293531Y122861D01*
X294625D01*
X295636Y123280D01*
X296410Y124054D01*
X296828Y125064D01*
Y126158D01*
X296410Y127169D01*
X295636Y127943D01*
X294625Y128361D01*
D02*
G37*
G36*
X265375Y124000D02*
X264281D01*
X263271Y123581D01*
X262497Y122808D01*
X262078Y121797D01*
Y120703D01*
X262497Y119692D01*
X263271Y118919D01*
X264281Y118500D01*
X265375D01*
X266386Y118919D01*
X267160Y119692D01*
X267578Y120703D01*
Y121797D01*
X267160Y122808D01*
X266386Y123581D01*
X265375Y124000D01*
D02*
G37*
G36*
X217797Y123500D02*
X216703D01*
X215692Y123081D01*
X214919Y122308D01*
X214500Y121297D01*
Y120203D01*
X214919Y119192D01*
X215692Y118419D01*
X216703Y118000D01*
X217797D01*
X218808Y118419D01*
X219581Y119192D01*
X220000Y120203D01*
Y121297D01*
X219581Y122308D01*
X218808Y123081D01*
X217797Y123500D01*
D02*
G37*
G36*
X194547Y125500D02*
X193453D01*
X192442Y125081D01*
X191669Y124308D01*
X191250Y123297D01*
Y122203D01*
X191669Y121192D01*
X192442Y120419D01*
X193453Y120000D01*
X193571Y119823D01*
X193250Y119047D01*
X193250Y117953D01*
X192203Y117750D01*
X191192Y117331D01*
X190419Y116558D01*
X190000Y115547D01*
Y114453D01*
X190419Y113442D01*
X191192Y112669D01*
X192203Y112250D01*
X193297D01*
X194308Y112669D01*
X195081Y113442D01*
X195500Y114453D01*
X195500Y115547D01*
X196547Y115750D01*
X197558Y116169D01*
X198331Y116942D01*
X198750Y117953D01*
Y119047D01*
X198331Y120058D01*
X197558Y120831D01*
X196547Y121250D01*
X196429Y121427D01*
X196750Y122203D01*
Y123297D01*
X196331Y124308D01*
X195558Y125081D01*
X194547Y125500D01*
D02*
G37*
G36*
X262875Y115250D02*
X261781D01*
X260771Y114831D01*
X259997Y114058D01*
X259578Y113047D01*
Y111953D01*
X259997Y110942D01*
X260771Y110169D01*
X261781Y109750D01*
X262875D01*
X263886Y110169D01*
X264660Y110942D01*
X265078Y111953D01*
Y113047D01*
X264660Y114058D01*
X263886Y114831D01*
X262875Y115250D01*
D02*
G37*
G36*
X191547Y108500D02*
X190453D01*
X189442Y108081D01*
X188669Y107308D01*
X188250Y106297D01*
Y105203D01*
X188669Y104192D01*
X189442Y103419D01*
X190453Y103000D01*
X191547D01*
X192558Y103419D01*
X193331Y104192D01*
X193750Y105203D01*
Y106297D01*
X193331Y107308D01*
X192558Y108081D01*
X191547Y108500D01*
D02*
G37*
G36*
X365547Y103000D02*
X364453D01*
X363442Y102581D01*
X362669Y101808D01*
X362250Y100797D01*
Y99703D01*
X362669Y98692D01*
X363442Y97919D01*
X364453Y97500D01*
X365547D01*
X366558Y97919D01*
X367331Y98692D01*
X367750Y99703D01*
Y100797D01*
X367331Y101808D01*
X366558Y102581D01*
X365547Y103000D01*
D02*
G37*
G36*
X342767Y102830D02*
X341673D01*
X340662Y102411D01*
X339889Y101638D01*
X339470Y100627D01*
Y99533D01*
X339889Y98522D01*
X340662Y97749D01*
X341673Y97330D01*
X342767D01*
X343778Y97749D01*
X344551Y98522D01*
X344970Y99533D01*
Y100627D01*
X344551Y101638D01*
X343778Y102411D01*
X342767Y102830D01*
D02*
G37*
G36*
X280127Y102250D02*
X279033D01*
X278022Y101831D01*
X277249Y101058D01*
X276830Y100047D01*
Y98953D01*
X277249Y97942D01*
X278022Y97169D01*
X279033Y96750D01*
X280127D01*
X281138Y97169D01*
X281911Y97942D01*
X282330Y98953D01*
Y100047D01*
X281911Y101058D01*
X281138Y101831D01*
X280127Y102250D01*
D02*
G37*
G36*
X237027Y98550D02*
X235933D01*
X234922Y98131D01*
X234149Y97358D01*
X233730Y96347D01*
Y95253D01*
X234149Y94242D01*
X234922Y93469D01*
X235933Y93050D01*
X237027D01*
X238038Y93469D01*
X238811Y94242D01*
X239230Y95253D01*
Y96347D01*
X238811Y97358D01*
X238038Y98131D01*
X237027Y98550D01*
D02*
G37*
G36*
X299417Y98380D02*
X298323D01*
X297312Y97962D01*
X296539Y97188D01*
X296120Y96177D01*
Y95083D01*
X296539Y94072D01*
X297312Y93299D01*
X298025Y93003D01*
Y91707D01*
X297312Y91412D01*
X296539Y90638D01*
X296120Y89627D01*
Y88533D01*
X296539Y87522D01*
X297312Y86749D01*
X298323Y86330D01*
X299417D01*
X300428Y86749D01*
X301201Y87522D01*
X301620Y88533D01*
Y89627D01*
X301201Y90638D01*
X300428Y91412D01*
X299715Y91707D01*
Y93003D01*
X300428Y93299D01*
X301201Y94072D01*
X301620Y95083D01*
Y96177D01*
X301201Y97188D01*
X300428Y97962D01*
X299417Y98380D01*
D02*
G37*
G36*
X225297Y98500D02*
X224203D01*
X223192Y98081D01*
X222419Y97308D01*
X222000Y96297D01*
Y95203D01*
X222419Y94192D01*
X223192Y93419D01*
X224053Y93062D01*
X224203Y93000D01*
Y91750D01*
X224053Y91688D01*
X223192Y91331D01*
X222419Y90558D01*
X222000Y89547D01*
Y88453D01*
X222419Y87442D01*
X223192Y86669D01*
X224203Y86250D01*
X225297D01*
X226308Y86669D01*
X227081Y87442D01*
X227500Y88453D01*
Y89547D01*
X227081Y90558D01*
X226308Y91331D01*
X225447Y91688D01*
X225297Y91750D01*
Y93000D01*
X225447Y93062D01*
X226308Y93419D01*
X227081Y94192D01*
X227500Y95203D01*
Y96297D01*
X227081Y97308D01*
X226308Y98081D01*
X225297Y98500D01*
D02*
G37*
G36*
X237027Y91700D02*
X235933D01*
X234922Y91281D01*
X234149Y90508D01*
X233730Y89497D01*
Y88403D01*
X234149Y87392D01*
X234922Y86619D01*
X235933Y86200D01*
X237027D01*
X238038Y86619D01*
X238811Y87392D01*
X239230Y88403D01*
Y89497D01*
X238811Y90508D01*
X238038Y91281D01*
X237027Y91700D01*
D02*
G37*
G36*
X343267Y88330D02*
X342173D01*
X341162Y87912D01*
X340388Y87138D01*
X339970Y86127D01*
Y85033D01*
X340388Y84022D01*
X341162Y83249D01*
X342173Y82830D01*
X343267D01*
X344278Y83249D01*
X345051Y84022D01*
X345470Y85033D01*
Y86127D01*
X345051Y87138D01*
X344278Y87912D01*
X343267Y88330D01*
D02*
G37*
G36*
X280127Y88250D02*
X279033D01*
X278022Y87831D01*
X277249Y87058D01*
X276830Y86047D01*
Y84953D01*
X277249Y83942D01*
X278022Y83169D01*
X279033Y82750D01*
X280127D01*
X281138Y83169D01*
X281911Y83942D01*
X282330Y84953D01*
Y86047D01*
X281911Y87058D01*
X281138Y87831D01*
X280127Y88250D01*
D02*
G37*
G36*
X308797Y72750D02*
X307703D01*
X306692Y72331D01*
X305919Y71558D01*
X305500Y70547D01*
Y69453D01*
X305919Y68442D01*
X306692Y67669D01*
X307703Y67250D01*
X308797D01*
X309808Y67669D01*
X310581Y68442D01*
X311000Y69453D01*
Y70547D01*
X310581Y71558D01*
X309808Y72331D01*
X308797Y72750D01*
D02*
G37*
%LPD*%
G36*
G01X347383Y201248D02*
G03X352750Y205550I0J5499D01*
G01X352750Y211750D01*
G03X346750Y217750I-6000J0D01*
G01X335750D01*
G03X335750Y205750I0J-6000D01*
G01X341750D01*
G03X347250Y201250I5408J999D01*
G03X347383Y201248I133J5514D01*
D02*
G37*
G36*
G01X352750Y125350D02*
G01X352750Y131550D01*
G03X347383Y135852I-5367J-1198D01*
G03X347250Y135850I-3J-5329D01*
G03X341750Y131350I-92J-5499D01*
G01X335750Y131350D01*
G03X329750Y125350I0J-6000D01*
G03X335750Y119350I6000J-0D01*
G01X346750D01*
G03X352750Y125350I0J6000D01*
D02*
G37*
D39*
X347350Y208500D02*
D03*
D40*
X341250Y125350D02*
D03*
D41*
X391750D02*
D03*
Y211750D02*
D03*
D42*
X360600Y204550D02*
D03*
D43*
X361250Y132550D02*
D03*
D47*
X298870Y95630D02*
D03*
X251000Y158000D02*
D03*
X342000Y140000D02*
D03*
X309828Y213500D02*
D03*
X308750Y187750D02*
D03*
X226250Y137000D02*
D03*
X226000Y132500D02*
D03*
X224750Y89000D02*
D03*
Y95750D02*
D03*
X236480Y88950D02*
D03*
Y95800D02*
D03*
X298870Y89080D02*
D03*
X308250Y70000D02*
D03*
X202500Y158500D02*
D03*
X230000Y173250D02*
D03*
X232000Y166250D02*
D03*
X219250Y225750D02*
D03*
X219500Y232750D02*
D03*
X173500Y186750D02*
D03*
X192750Y115000D02*
D03*
X189000Y140750D02*
D03*
X191000Y105750D02*
D03*
X197250Y137750D02*
D03*
X217250Y120750D02*
D03*
X217000Y141000D02*
D03*
X182000Y129750D02*
D03*
X196000Y118500D02*
D03*
X201250Y140750D02*
D03*
X194000Y122750D02*
D03*
X206500Y170500D02*
D03*
X200500Y201000D02*
D03*
X193750Y185750D02*
D03*
X217000Y201000D02*
D03*
Y181000D02*
D03*
X179250Y201750D02*
D03*
X195000Y200750D02*
D03*
X321650Y182550D02*
D03*
X365000Y100250D02*
D03*
X401000D02*
D03*
X400750Y235500D02*
D03*
X171580Y81880D02*
D03*
X211750Y130750D02*
D03*
Y191000D02*
D03*
X315250Y133500D02*
D03*
X342720Y85580D02*
D03*
X342220Y100080D02*
D03*
X322250Y82080D02*
D03*
X259850Y82250D02*
D03*
X279580Y85500D02*
D03*
Y99500D02*
D03*
X235000Y100750D02*
D03*
X242620Y220250D02*
D03*
X297750Y100750D02*
D03*
X217500Y238000D02*
D03*
X262100Y223830D02*
D03*
X262250Y237830D02*
D03*
X395500Y174500D02*
D03*
X367500Y190950D02*
D03*
X387000Y156500D02*
D03*
X395500Y164500D02*
D03*
X325750Y177500D02*
D03*
Y187500D02*
D03*
X327000Y167000D02*
D03*
X315000Y168000D02*
D03*
X288828Y178250D02*
D03*
X363650Y153050D02*
D03*
X294828Y166861D02*
D03*
X299828Y133500D02*
D03*
X238828Y184750D02*
D03*
X262328Y112500D02*
D03*
X231078Y140750D02*
D03*
X275578Y178426D02*
D03*
X282328Y209000D02*
D03*
X280328Y178250D02*
D03*
X314828Y162000D02*
D03*
X304828Y176750D02*
D03*
Y156750D02*
D03*
X299578Y176000D02*
D03*
X276578Y162000D02*
D03*
X292828Y196750D02*
D03*
X311328Y204250D02*
D03*
X247578Y194950D02*
D03*
X238828Y194750D02*
D03*
X256328Y194500D02*
D03*
X264828Y121250D02*
D03*
X261328Y201000D02*
D03*
X265078Y194500D02*
D03*
X247828Y179000D02*
D03*
X251078Y149250D02*
D03*
X262077Y148501D02*
D03*
X269828Y161750D02*
D03*
X246078Y160750D02*
D03*
X270828Y178250D02*
D03*
X246078Y136000D02*
D03*
X281828Y128500D02*
D03*
X294078Y125611D02*
D03*
X241078Y114750D02*
D03*
X357012Y162842D02*
D03*
X357400Y175300D02*
D03*
X359150Y190800D02*
D03*
X357520Y170208D02*
D03*
X369400Y166300D02*
D03*
X350250Y194800D02*
D03*
X334250Y197300D02*
D03*
X328650Y137300D02*
D03*
X326150Y149050D02*
D03*
M02*
