G04*
G04 #@! TF.GenerationSoftware,Altium Limited,Altium Designer,26.7.1 (11)*
G04*
G04 Layer_Color=128*
G04 Board_Origin=29229129|20585428*
%FSLAX44Y44*%
%MOMM*%
G71*
G04*
G04 #@! TF.SameCoordinates,8779AD07-D775-4D22-9B10-52380A62D4C4*
G04*
G04*
G04 #@! TF.FilePolarity,Positive*
G04*
G01*
G75*
%ADD25R,0.8000X0.6000*%
%ADD26R,0.4000X0.6000*%
%ADD48R,0.5500X0.4000*%
%ADD49R,0.3000X0.4500*%
%ADD51R,0.4000X0.5500*%
%ADD52C,0.1500*%
%ADD53R,0.6000X0.4000*%
%ADD54R,1.2500X1.2200*%
%ADD55R,0.5400X0.2200*%
%ADD56R,0.5300X0.2200*%
%ADD57R,0.6000X0.8000*%
%ADD58R,0.5000X0.3000*%
%ADD59C,0.2500*%
%ADD60C,0.2600*%
%ADD61R,1.2000X1.4000*%
%ADD62R,0.8000X1.8000*%
%ADD63R,0.5000X0.5000*%
%ADD76R,0.5900X0.8500*%
D25*
X293078Y212750D02*
D03*
Y196750D02*
D03*
D26*
X309578Y176000D02*
D03*
X286578Y162000D02*
D03*
X299828Y133500D02*
D03*
X241078Y149250D02*
D03*
X251078Y114750D02*
D03*
Y149250D02*
D03*
X309828Y133500D02*
D03*
X241078Y114750D02*
D03*
X276578Y162000D02*
D03*
X309578Y158000D02*
D03*
X299578D02*
D03*
X299578Y176000D02*
D03*
X269828Y161750D02*
D03*
X259828D02*
D03*
X309578Y167000D02*
D03*
X299578D02*
D03*
X251078Y123500D02*
D03*
X241078D02*
D03*
D48*
X298870Y105830D02*
D03*
Y95630D02*
D03*
X304078Y195650D02*
D03*
X219250Y225680D02*
D03*
Y232730D02*
D03*
Y242930D02*
D03*
Y215480D02*
D03*
X282578Y194700D02*
D03*
X273828Y194750D02*
D03*
X247578Y184750D02*
D03*
Y194950D02*
D03*
X282578Y184500D02*
D03*
X304078Y205850D02*
D03*
X273828Y184550D02*
D03*
X250078Y141600D02*
D03*
Y131400D02*
D03*
X236480Y88950D02*
D03*
Y95800D02*
D03*
X298870Y89080D02*
D03*
Y78880D02*
D03*
X367500Y180750D02*
D03*
Y190950D02*
D03*
X328900Y154400D02*
D03*
Y144200D02*
D03*
X359150Y180700D02*
D03*
Y190900D02*
D03*
X236480Y78750D02*
D03*
Y106000D02*
D03*
D49*
X322250Y82080D02*
D03*
X315750D02*
D03*
X309250D02*
D03*
Y101580D02*
D03*
X315750D02*
D03*
X322250D02*
D03*
X242620Y220250D02*
D03*
X236120D02*
D03*
X229620D02*
D03*
Y239750D02*
D03*
X236120D02*
D03*
X242620D02*
D03*
X259850Y82250D02*
D03*
X253350D02*
D03*
X246850D02*
D03*
Y101750D02*
D03*
X253350D02*
D03*
X259850D02*
D03*
D51*
X207050Y120750D02*
D03*
X217250D02*
D03*
X206800Y181000D02*
D03*
X217000D02*
D03*
X206800Y141000D02*
D03*
X217000D02*
D03*
X206800Y201000D02*
D03*
X217000D02*
D03*
X240728Y157861D02*
D03*
X262250Y237830D02*
D03*
X252050D02*
D03*
X262100Y223830D02*
D03*
X251900D02*
D03*
X299978Y124861D02*
D03*
X310178D02*
D03*
X250928Y157861D02*
D03*
X342720Y85580D02*
D03*
X332520D02*
D03*
X342220Y100080D02*
D03*
X332020D02*
D03*
X279580Y85500D02*
D03*
X269380D02*
D03*
X279580Y99500D02*
D03*
X269380D02*
D03*
D52*
X189250Y130750D02*
D03*
Y125750D02*
D03*
X194250Y130750D02*
D03*
X199250D02*
D03*
Y125750D02*
D03*
X186750Y196000D02*
D03*
Y191000D02*
D03*
X191750Y196000D02*
D03*
X196750D02*
D03*
Y191000D02*
D03*
D53*
X179250Y191750D02*
D03*
Y201750D02*
D03*
X182000Y119750D02*
D03*
Y129750D02*
D03*
X238828Y184750D02*
D03*
X241328Y141500D02*
D03*
Y131500D02*
D03*
X265078Y194500D02*
D03*
Y184500D02*
D03*
X256328Y184500D02*
D03*
Y194500D02*
D03*
X238828Y194750D02*
D03*
X395500Y174500D02*
D03*
Y164500D02*
D03*
D54*
X176000Y105750D02*
D03*
X205500D02*
D03*
D55*
X170000Y146000D02*
D03*
Y152000D02*
D03*
Y158000D02*
D03*
Y164000D02*
D03*
Y170000D02*
D03*
Y176000D02*
D03*
Y142000D02*
D03*
Y180000D02*
D03*
D56*
X196200Y149000D02*
D03*
Y155000D02*
D03*
Y161000D02*
D03*
Y167000D02*
D03*
Y173000D02*
D03*
D57*
X292828Y186750D02*
D03*
X371000Y156500D02*
D03*
X334150Y182800D02*
D03*
X353900Y151550D02*
D03*
X308828Y186750D02*
D03*
X387000Y156500D02*
D03*
X337900Y151550D02*
D03*
X350150Y182800D02*
D03*
D58*
X337900Y167300D02*
D03*
Y162300D02*
D03*
Y172300D02*
D03*
X345150Y162300D02*
D03*
Y172300D02*
D03*
Y167300D02*
D03*
D59*
X376750Y168000D02*
D03*
X380750D02*
D03*
X384750Y172000D02*
D03*
Y168000D02*
D03*
X380750Y172000D02*
D03*
X376750D02*
D03*
D60*
X239828Y173361D02*
D03*
X244828Y168361D02*
D03*
Y173361D02*
D03*
X249828D02*
D03*
Y168361D02*
D03*
X239828D02*
D03*
D61*
X280577Y125501D02*
D03*
X262077Y148501D02*
D03*
X280577D02*
D03*
X262077Y125501D02*
D03*
D62*
X393750Y188750D02*
D03*
X377750D02*
D03*
D63*
X341900Y194800D02*
D03*
X350900D02*
D03*
D76*
X310870Y91832D02*
D03*
X320630D02*
D03*
X231242Y229999D02*
D03*
X241002D02*
D03*
X248470Y92003D02*
D03*
X258230D02*
D03*
M02*
