G04*
G04 #@! TF.GenerationSoftware,Altium Limited,Altium Designer,26.7.1 (11)*
G04*
G04 Layer_Physical_Order=1*
G04 Layer_Color=255*
G04 Board_Origin=29229129|20585428*
%FSLAX44Y44*%
%MOMM*%
G71*
G04*
G04 #@! TF.SameCoordinates,8779AD07-D775-4D22-9B10-52380A62D4C4*
G04*
G04*
G04 #@! TF.FilePolarity,Positive*
G04*
G01*
G75*
%ADD14C,0.2000*%
%ADD15C,0.1000*%
%ADD17R,1.0000X1.0000*%
%ADD18R,1.5500X0.6000*%
%ADD19R,1.8000X1.2000*%
%ADD20R,0.9000X1.7000*%
%ADD21O,0.8500X0.2000*%
%ADD22O,0.2000X0.8500*%
%ADD23R,0.8000X0.2700*%
%ADD24R,0.9000X0.2700*%
%ADD25R,0.8000X0.6000*%
%ADD26R,0.4000X0.6000*%
%ADD27R,0.8000X1.6000*%
%ADD28R,3.4000X3.4000*%
G04:AMPARAMS|DCode=39|XSize=1.25mm|YSize=0.7mm|CornerRadius=0.35mm|HoleSize=0mm|Usage=FLASHONLY|Rotation=90.000|XOffset=0mm|YOffset=0mm|HoleType=Round|Shape=RoundedRectangle|*
%AMROUNDEDRECTD39*
21,1,1.2500,0.0000,0,0,90.0*
21,1,0.5500,0.7000,0,0,90.0*
1,1,0.7000,0.0000,0.2750*
1,1,0.7000,0.0000,-0.2750*
1,1,0.7000,0.0000,-0.2750*
1,1,0.7000,0.0000,0.2750*
%
%ADD39ROUNDEDRECTD39*%
G04:AMPARAMS|DCode=40|XSize=0.6mm|YSize=1.9mm|CornerRadius=0.3mm|HoleSize=0mm|Usage=FLASHONLY|Rotation=90.000|XOffset=0mm|YOffset=0mm|HoleType=Round|Shape=RoundedRectangle|*
%AMROUNDEDRECTD40*
21,1,0.6000,1.3000,0,0,90.0*
21,1,0.0000,1.9000,0,0,90.0*
1,1,0.6000,0.6500,0.0000*
1,1,0.6000,0.6500,0.0000*
1,1,0.6000,-0.6500,0.0000*
1,1,0.6000,-0.6500,0.0000*
%
%ADD40ROUNDEDRECTD40*%
G04:AMPARAMS|DCode=41|XSize=1.3mm|YSize=2.6mm|CornerRadius=0.65mm|HoleSize=0mm|Usage=FLASHONLY|Rotation=90.000|XOffset=0mm|YOffset=0mm|HoleType=Round|Shape=RoundedRectangle|*
%AMROUNDEDRECTD41*
21,1,1.3000,1.3000,0,0,90.0*
21,1,0.0000,2.6000,0,0,90.0*
1,1,1.3000,0.6500,0.0000*
1,1,1.3000,0.6500,0.0000*
1,1,1.3000,-0.6500,0.0000*
1,1,1.3000,-0.6500,0.0000*
%
%ADD41ROUNDEDRECTD41*%
G04:AMPARAMS|DCode=42|XSize=0.85mm|YSize=0.5mm|CornerRadius=0.25mm|HoleSize=0mm|Usage=FLASHONLY|Rotation=90.000|XOffset=0mm|YOffset=0mm|HoleType=Round|Shape=RoundedRectangle|*
%AMROUNDEDRECTD42*
21,1,0.8500,0.0000,0,0,90.0*
21,1,0.3500,0.5000,0,0,90.0*
1,1,0.5000,0.0000,0.1750*
1,1,0.5000,0.0000,-0.1750*
1,1,0.5000,0.0000,-0.1750*
1,1,0.5000,0.0000,0.1750*
%
%ADD42ROUNDEDRECTD42*%
%ADD43C,0.6000*%
%ADD44C,0.4000*%
%ADD45C,0.1500*%
%ADD46C,0.1500*%
%ADD47C,0.3500*%
G36*
G01X347383Y201248D02*
G03X352750Y205550I0J5499D01*
G01X352750Y211750D01*
G03X346750Y217750I-6000J0D01*
G01X335750D01*
G03X335750Y205750I0J-6000D01*
G01X341750D01*
G03X347250Y201250I5408J999D01*
G03X347383Y201248I133J5514D01*
D02*
G37*
G36*
G01X352750Y125350D02*
G01X352750Y131550D01*
G03X347383Y135852I-5367J-1198D01*
G03X347250Y135850I-3J-5329D01*
G03X341750Y131350I-92J-5499D01*
G01X335750Y131350D01*
G03X329750Y125350I0J-6000D01*
G03X335750Y119350I6000J-0D01*
G01X346750D01*
G03X352750Y125350I0J6000D01*
D02*
G37*
D14*
X321650Y182550D02*
X321900Y182300D01*
X334250D01*
X342150D01*
X288828Y178250D02*
Y186750D01*
X344650Y179800D02*
X350250D01*
X342150Y182300D02*
X344650Y179800D01*
X359650Y153050D02*
X363650D01*
X357900Y154800D02*
X359650Y153050D01*
X350250Y154800D02*
X357900D01*
X343650D02*
X350250D01*
X341150Y157300D02*
X343650Y154800D01*
X334250Y157300D02*
X341150D01*
X253343Y129750D02*
X267328D01*
X249828Y133265D02*
X253343Y129750D01*
X267328D02*
X272828Y124250D01*
X249828Y133265D02*
Y141714D01*
X284828Y186750D02*
Y193250D01*
X282328Y195750D02*
X284828Y193250D01*
Y173250D02*
Y186750D01*
X284828Y173250D02*
X284828Y173250D01*
X271328Y200000D02*
Y201000D01*
Y200000D02*
X272328Y199000D01*
X274882D01*
X278132Y195750D01*
X282328D02*
Y209000D01*
X278132Y195750D02*
X282328D01*
X253078Y173250D02*
X284828D01*
X246078Y166250D02*
X253078Y173250D01*
X246078Y160750D02*
Y166250D01*
X238828Y160750D02*
X246078D01*
Y145464D02*
Y160750D01*
Y145464D02*
X249828Y141714D01*
X297328Y195000D02*
Y209000D01*
X296828Y178750D02*
X299578Y176000D01*
X300009Y157922D02*
Y167320D01*
X296828Y178750D02*
Y186750D01*
X284828Y173250D02*
X294079D01*
X292828Y190500D02*
X297328Y195000D01*
X292828Y186750D02*
Y190500D01*
X294079Y173250D02*
X300009Y167320D01*
X272828Y118750D02*
Y124250D01*
X301180Y156750D02*
X304828D01*
X300009Y157922D02*
X301180Y156750D01*
X349900Y140150D02*
X350250Y139800D01*
X340550Y140150D02*
X349900D01*
X334250Y142300D02*
X334600Y141950D01*
X338750D01*
X340550Y140150D01*
D15*
X364250Y235000D02*
X364750Y235500D01*
X284000Y235000D02*
X364250D01*
X275000Y226000D02*
X284000Y235000D01*
X275000Y213500D02*
Y226000D01*
X270750Y209250D02*
X275000Y213500D01*
X253000Y209250D02*
X270750D01*
X247578Y203828D02*
X253000Y209250D01*
X247578Y194950D02*
Y203828D01*
X226000Y132500D02*
X226125Y132625D01*
X238703D01*
X238828Y132750D01*
X226250Y137000D02*
X226375Y136875D01*
X238703D01*
X238828Y136750D01*
X224800Y88950D02*
X236480D01*
X224550Y95800D02*
X236480D01*
X291170Y89080D02*
X298870D01*
X288828Y91422D02*
X291170Y89080D01*
X288828Y91422D02*
Y118750D01*
X295120Y95630D02*
X298870D01*
X292828Y97922D02*
X295120Y95630D01*
X292828Y97922D02*
Y118750D01*
X200500Y160500D02*
X202500Y158500D01*
X192000Y160500D02*
X200500D01*
X185250Y122459D02*
Y141596D01*
X188500Y144846D02*
Y157000D01*
X185250Y141596D02*
X188500Y144846D01*
X185250Y122459D02*
X188500Y119209D01*
Y157000D02*
X192000Y160500D01*
X188500Y113000D02*
Y119209D01*
Y113000D02*
X190250Y111250D01*
X192750D01*
X198000Y106000D01*
X192500Y144250D02*
X202346D01*
X189000Y140750D02*
X192500Y144250D01*
X198000Y85130D02*
X201250Y81880D01*
X198000Y85130D02*
Y106000D01*
X201250Y81880D02*
X207580D01*
X196000Y110828D02*
X200328Y106500D01*
X196000Y110828D02*
Y118500D01*
X200328Y106500D02*
X251250D01*
X209250Y143250D02*
X211750Y140750D01*
X203346Y143250D02*
X209250D01*
X202346Y144250D02*
X203346Y143250D01*
X199250Y111250D02*
X202000Y108500D01*
X199250Y111250D02*
Y120500D01*
X197000Y122750D02*
X199250Y120500D01*
X194000Y122750D02*
X197000D01*
X202000Y108500D02*
X249078D01*
X201250Y113250D02*
Y140750D01*
Y113250D02*
X204000Y110500D01*
X247328D01*
X251250Y106500D02*
X256828Y112078D01*
Y118750D01*
X247328Y110500D02*
X248828Y112000D01*
X249078Y108500D02*
X252828Y112250D01*
Y118750D01*
X248828Y112000D02*
Y118750D01*
X222000Y152750D02*
X230000Y144750D01*
X217593Y170500D02*
X222000Y166093D01*
X224000Y154000D02*
X229250Y148750D01*
X226000Y156500D02*
X229750Y152750D01*
X217750Y176000D02*
X226000Y167750D01*
X224000Y154000D02*
Y166922D01*
X222000Y152750D02*
Y166093D01*
X216922Y174000D02*
X224000Y166922D01*
X226000Y156500D02*
Y167750D01*
X200500Y176000D02*
X217750D01*
X198000Y174000D02*
X216922D01*
X206500Y170500D02*
X217593D01*
X230000Y144750D02*
X238828D01*
X206500Y170500D02*
X206500Y170500D01*
X197000Y179500D02*
X200500Y176000D01*
X193750Y178250D02*
X198000Y174000D01*
X197000Y179500D02*
Y197500D01*
X200500Y201000D01*
X193750Y178250D02*
Y185750D01*
X229250Y148750D02*
X238828D01*
X229750Y152750D02*
X238828D01*
X318250Y180000D02*
X320750Y177500D01*
X325750D01*
X318250Y180000D02*
Y184750D01*
X321250Y187750D01*
X325500D01*
X325750Y187500D01*
X327000Y167000D02*
X327150Y167150D01*
X334100D02*
X334250Y167300D01*
X327150Y167150D02*
X334100D01*
X252308Y127250D02*
X265478D01*
X247328Y132229D02*
X252308Y127250D01*
X265478D02*
X268828Y123900D01*
X284828Y124361D02*
X286078Y125611D01*
X280328Y178250D02*
X280637Y178559D01*
Y186559D02*
X280828Y186750D01*
X280637Y178559D02*
Y186559D01*
X270828Y178250D02*
Y178346D01*
X246078Y135414D02*
X247328Y134164D01*
X246078Y135414D02*
Y136000D01*
X247328Y132229D02*
Y134164D01*
X275715Y180886D02*
X276828Y182000D01*
X276599Y189320D02*
X276828Y189090D01*
X247350Y179478D02*
X247828Y179000D01*
X247350Y179478D02*
Y180978D01*
X244366Y189250D02*
X244828Y188788D01*
Y183500D02*
X247350Y180978D01*
X244828Y183500D02*
Y186750D01*
X276828Y182000D02*
Y189090D01*
X275715Y178563D02*
Y180886D01*
X275578Y178426D02*
X275715Y178563D01*
X311328Y203709D02*
Y204250D01*
X309828Y202209D02*
X311328Y203709D01*
X309828Y197500D02*
Y202209D01*
X307328Y195000D02*
X309828Y197500D01*
X305828Y195000D02*
X307328D01*
X300828Y190000D02*
X305828Y195000D01*
X300828Y186750D02*
Y190000D01*
X268828Y118750D02*
Y123900D01*
X284828Y118750D02*
Y124361D01*
X286078Y125611D02*
X294078D01*
X355176Y164550D02*
X356884Y162842D01*
X350500Y164550D02*
X355176D01*
X350250Y174800D02*
X350500Y175050D01*
X350894Y170443D02*
X357285D01*
X357520Y170208D01*
X350500Y175050D02*
X357150D01*
X357400Y175300D01*
X356884Y162842D02*
X357012D01*
X350250Y164800D02*
X350500Y164550D01*
X350250Y169800D02*
X350894Y170443D01*
X334250Y172300D02*
X340400D01*
X342400Y166886D02*
Y170300D01*
X340400Y172300D02*
X342400Y170300D01*
X324900Y156130D02*
X330220Y161450D01*
X324900Y153553D02*
Y156130D01*
X330220Y161450D02*
X333400D01*
X331100Y162300D02*
X334250D01*
X333400Y161450D02*
X334250Y162300D01*
X344486Y164800D02*
X350250D01*
X342400Y166886D02*
X344486Y164800D01*
X326150Y149050D02*
Y152303D01*
X324900Y153553D02*
X326150Y152303D01*
D17*
X245980Y99500D02*
D03*
X276980D02*
D03*
X245980Y85500D02*
D03*
X276980D02*
D03*
X259500Y223830D02*
D03*
X228500D02*
D03*
X259500Y237830D02*
D03*
X228500D02*
D03*
X308370Y99580D02*
D03*
X339370D02*
D03*
X308370Y85580D02*
D03*
X339370D02*
D03*
D18*
X211750Y201000D02*
D03*
Y191000D02*
D03*
Y181000D02*
D03*
Y140750D02*
D03*
Y130750D02*
D03*
Y120750D02*
D03*
D19*
X173000Y168000D02*
D03*
Y214000D02*
D03*
Y107750D02*
D03*
Y153750D02*
D03*
D20*
X171580Y81880D02*
D03*
X207580D02*
D03*
X399750Y235500D02*
D03*
X399000Y100250D02*
D03*
X363000D02*
D03*
X363750Y235500D02*
D03*
D21*
X238828Y152750D02*
D03*
Y144750D02*
D03*
Y148750D02*
D03*
X306828Y180750D02*
D03*
Y152750D02*
D03*
X238828Y180750D02*
D03*
Y140750D02*
D03*
X306828Y128750D02*
D03*
X238828Y176750D02*
D03*
Y172750D02*
D03*
Y168750D02*
D03*
Y164750D02*
D03*
Y160750D02*
D03*
Y156750D02*
D03*
Y136750D02*
D03*
Y132750D02*
D03*
Y128750D02*
D03*
Y124750D02*
D03*
X306828D02*
D03*
Y132750D02*
D03*
Y136750D02*
D03*
Y140750D02*
D03*
Y144750D02*
D03*
Y148750D02*
D03*
Y156750D02*
D03*
Y160750D02*
D03*
Y164750D02*
D03*
Y168750D02*
D03*
Y176750D02*
D03*
D22*
X248828Y118750D02*
D03*
X256828D02*
D03*
X252828D02*
D03*
X288828Y186750D02*
D03*
X300828Y118750D02*
D03*
X260828D02*
D03*
X244828D02*
D03*
X264828D02*
D03*
X268828D02*
D03*
X272828D02*
D03*
X276828D02*
D03*
X280828D02*
D03*
X284828D02*
D03*
X288828D02*
D03*
X292828D02*
D03*
X296828D02*
D03*
X300828Y186750D02*
D03*
X296828D02*
D03*
X292828D02*
D03*
X284828D02*
D03*
X280828D02*
D03*
X276828D02*
D03*
X272828D02*
D03*
X268828D02*
D03*
X264828D02*
D03*
X260828D02*
D03*
X256828D02*
D03*
X252828D02*
D03*
X248828D02*
D03*
X244828D02*
D03*
D23*
X350250Y154800D02*
D03*
Y179800D02*
D03*
Y189800D02*
D03*
Y184800D02*
D03*
Y174800D02*
D03*
Y169800D02*
D03*
Y164800D02*
D03*
Y159800D02*
D03*
Y149800D02*
D03*
Y144800D02*
D03*
Y139800D02*
D03*
Y194800D02*
D03*
D24*
X334250Y182300D02*
D03*
Y157300D02*
D03*
Y147300D02*
D03*
Y152300D02*
D03*
Y162300D02*
D03*
Y167300D02*
D03*
Y172300D02*
D03*
Y177300D02*
D03*
Y187300D02*
D03*
Y192300D02*
D03*
Y142300D02*
D03*
Y197300D02*
D03*
D25*
X309828Y197500D02*
D03*
Y213500D02*
D03*
D26*
X261328Y201000D02*
D03*
X271328D02*
D03*
D27*
X297328Y209000D02*
D03*
X282328D02*
D03*
D28*
X272828Y152750D02*
D03*
D39*
X347350Y208500D02*
D03*
D40*
X341250Y125350D02*
D03*
D41*
X391750D02*
D03*
Y211750D02*
D03*
D42*
X360600Y204550D02*
D03*
D43*
X361250Y132550D02*
D03*
D44*
X308389Y70139D02*
Y85561D01*
X308250Y70000D02*
X308389Y70139D01*
X245960Y70000D02*
X308250D01*
X308370Y85580D02*
Y99580D01*
X222080Y244250D02*
X225500Y240830D01*
X197000Y237000D02*
X204250Y244250D01*
X222080D01*
X225500Y240830D02*
Y240830D01*
X228500Y237830D02*
X228500D01*
Y223830D02*
Y237830D01*
X225500Y240830D02*
X228500Y237830D01*
Y223830D02*
X228500Y223830D01*
X197000Y210750D02*
Y237000D01*
X177250Y138750D02*
X185000Y146500D01*
X177250Y125509D02*
Y138750D01*
X185000Y146500D02*
Y198750D01*
X197000Y210750D01*
X199250Y70000D02*
X245960D01*
X245980Y70020D01*
X177250Y125509D02*
X185000Y117759D01*
Y111550D02*
Y117759D01*
Y111550D02*
X190800Y105750D01*
X191000D01*
X245980Y70020D02*
Y85500D01*
X191000Y105750D02*
X191250Y105500D01*
Y78000D02*
Y105500D01*
Y78000D02*
X199250Y70000D01*
X245980Y85500D02*
Y99500D01*
D45*
X224250Y173250D02*
X230000D01*
X221500Y176000D02*
X224250Y173250D01*
X221500Y176000D02*
Y213604D01*
X219250Y215854D02*
X221500Y213604D01*
X219250Y215854D02*
Y225750D01*
X315000Y168000D02*
Y175828D01*
X310078Y180750D02*
X315000Y175828D01*
X306828Y180750D02*
X310078D01*
X299828Y133500D02*
X300030Y133298D01*
Y125798D02*
X300828Y125000D01*
X300030Y125798D02*
Y133298D01*
X294828Y158041D02*
Y166861D01*
Y158041D02*
X300120Y152750D01*
X306828D01*
X300828Y118750D02*
Y123611D01*
X262196Y112883D02*
X262578Y112500D01*
X238828Y180750D02*
Y184750D01*
X231078Y140750D02*
X238828D01*
X238828Y140750D01*
X260828Y115365D02*
Y118750D01*
Y115365D02*
X262196Y113997D01*
Y112883D02*
Y113997D01*
X270828Y178626D02*
X272828Y180626D01*
Y186750D01*
X270828Y178250D02*
Y178634D01*
X268828Y180634D02*
X270828Y178634D01*
X268828Y180634D02*
Y186750D01*
X334400Y141950D02*
X334600D01*
X334150Y141700D02*
X334400Y141950D01*
D46*
X300828Y123611D02*
Y125000D01*
D47*
X298870Y95630D02*
D03*
X251000Y158000D02*
D03*
X342000Y140000D02*
D03*
X309828Y213500D02*
D03*
X308750Y187750D02*
D03*
X226250Y137000D02*
D03*
X226000Y132500D02*
D03*
X224750Y89000D02*
D03*
Y95750D02*
D03*
X236480Y88950D02*
D03*
Y95800D02*
D03*
X298870Y89080D02*
D03*
X308250Y70000D02*
D03*
X202500Y158500D02*
D03*
X230000Y173250D02*
D03*
X232000Y166250D02*
D03*
X219250Y225750D02*
D03*
X219500Y232750D02*
D03*
X173500Y186750D02*
D03*
X192750Y115000D02*
D03*
X189000Y140750D02*
D03*
X191000Y105750D02*
D03*
X197250Y137750D02*
D03*
X217250Y120750D02*
D03*
X217000Y141000D02*
D03*
X182000Y129750D02*
D03*
X196000Y118500D02*
D03*
X201250Y140750D02*
D03*
X194000Y122750D02*
D03*
X206500Y170500D02*
D03*
X200500Y201000D02*
D03*
X193750Y185750D02*
D03*
X217000Y201000D02*
D03*
Y181000D02*
D03*
X179250Y201750D02*
D03*
X195000Y200750D02*
D03*
X321650Y182550D02*
D03*
X365000Y100250D02*
D03*
X401000D02*
D03*
X400750Y235500D02*
D03*
X171580Y81880D02*
D03*
X211750Y130750D02*
D03*
Y191000D02*
D03*
X315250Y133500D02*
D03*
X342720Y85580D02*
D03*
X342220Y100080D02*
D03*
X322250Y82080D02*
D03*
X259850Y82250D02*
D03*
X279580Y85500D02*
D03*
Y99500D02*
D03*
X235000Y100750D02*
D03*
X242620Y220250D02*
D03*
X297750Y100750D02*
D03*
X217500Y238000D02*
D03*
X262100Y223830D02*
D03*
X262250Y237830D02*
D03*
X395500Y174500D02*
D03*
X367500Y190950D02*
D03*
X387000Y156500D02*
D03*
X395500Y164500D02*
D03*
X325750Y177500D02*
D03*
Y187500D02*
D03*
X327000Y167000D02*
D03*
X315000Y168000D02*
D03*
X288828Y178250D02*
D03*
X363650Y153050D02*
D03*
X294828Y166861D02*
D03*
X299828Y133500D02*
D03*
X238828Y184750D02*
D03*
X262328Y112500D02*
D03*
X231078Y140750D02*
D03*
X275578Y178426D02*
D03*
X282328Y209000D02*
D03*
X280328Y178250D02*
D03*
X314828Y162000D02*
D03*
X304828Y176750D02*
D03*
Y156750D02*
D03*
X299578Y176000D02*
D03*
X276578Y162000D02*
D03*
X292828Y196750D02*
D03*
X311328Y204250D02*
D03*
X247578Y194950D02*
D03*
X238828Y194750D02*
D03*
X256328Y194500D02*
D03*
X264828Y121250D02*
D03*
X261328Y201000D02*
D03*
X265078Y194500D02*
D03*
X247828Y179000D02*
D03*
X251078Y149250D02*
D03*
X262077Y148501D02*
D03*
X269828Y161750D02*
D03*
X246078Y160750D02*
D03*
X270828Y178250D02*
D03*
X246078Y136000D02*
D03*
X281828Y128500D02*
D03*
X294078Y125611D02*
D03*
X241078Y114750D02*
D03*
X357012Y162842D02*
D03*
X357400Y175300D02*
D03*
X359150Y190800D02*
D03*
X357520Y170208D02*
D03*
X369400Y166300D02*
D03*
X350250Y194800D02*
D03*
X334250Y197300D02*
D03*
X328650Y137300D02*
D03*
X326150Y149050D02*
D03*
M02*
