G04*
G04 #@! TF.GenerationSoftware,Altium Limited,Altium Designer,26.7.1 (11)*
G04*
G04 Layer_Color=8388736*
G04 Board_Origin=29229129|20585428*
%FSLAX44Y44*%
%MOMM*%
G71*
G04*
G04 #@! TF.SameCoordinates,8779AD07-D775-4D22-9B10-52380A62D4C4*
G04*
G04*
G04 #@! TF.FilePolarity,Positive*
G04*
G01*
G75*
%ADD13C,0.2540*%
%ADD15C,0.1000*%
D13*
X229480Y109750D02*
X289480D01*
Y74750D02*
Y109750D01*
X229480Y74750D02*
Y109750D01*
Y74750D02*
X289480D01*
D15*
X197080Y81880D02*
G03*
X197080Y81880I-7500J0D01*
G01*
X388500Y100250D02*
G03*
X388500Y100250I-7500J0D01*
G01*
X389250Y235500D02*
G03*
X389250Y235500I-7500J0D01*
G01*
X169580Y88880D02*
X174580D01*
Y69380D02*
Y94380D01*
X169580Y74880D02*
X174580D01*
X169580D02*
Y88880D01*
X174580Y69380D02*
X204580D01*
Y94380D01*
X174580D02*
X204580D01*
X209580Y74880D02*
Y88880D01*
X204580D02*
X209580D01*
X204580Y74880D02*
X209580D01*
X361000Y107250D02*
X366000D01*
X361000Y93250D02*
X366000D01*
X361000D02*
Y107250D01*
X366000Y87750D02*
X396000D01*
X366000D02*
Y112750D01*
X396000D01*
X401000Y93250D02*
Y107250D01*
X396000D02*
X401000D01*
X396000Y87750D02*
Y112750D01*
Y93250D02*
X401000D01*
X361750Y242500D02*
X366750D01*
X361750Y228500D02*
X366750D01*
X361750D02*
Y242500D01*
X366750Y223000D02*
X396750D01*
X366750D02*
Y248000D01*
X396750D01*
X401750Y228500D02*
Y242500D01*
X396750D02*
X401750D01*
X396750Y223000D02*
Y248000D01*
Y228500D02*
X401750D01*
X147000Y170000D02*
X430000D01*
M02*
