G04*
G04 #@! TF.GenerationSoftware,Altium Limited,Altium Designer,26.7.1 (11)*
G04*
G04 Layer_Physical_Order=4*
G04 Layer_Color=16711680*
G04 Board_Origin=29229129|20585428*
%FSLAX44Y44*%
%MOMM*%
G71*
G04*
G04 #@! TF.SameCoordinates,31E62F62-3817-4462-BAAA-4DC708AA23D2*
G04*
G04*
G04 #@! TF.FilePolarity,Positive*
G04*
G01*
G75*
%ADD10C,0.3000*%
%ADD14C,0.2000*%
%ADD15C,0.1000*%
%ADD25R,0.8000X0.6000*%
%ADD26R,0.4000X0.6000*%
G04:AMPARAMS|DCode=39|XSize=1.25mm|YSize=0.7mm|CornerRadius=0.35mm|HoleSize=0mm|Usage=FLASHONLY|Rotation=90.000|XOffset=0mm|YOffset=0mm|HoleType=Round|Shape=RoundedRectangle|*
%AMROUNDEDRECTD39*
21,1,1.2500,0.0000,0,0,90.0*
21,1,0.5500,0.7000,0,0,90.0*
1,1,0.7000,0.0000,0.2750*
1,1,0.7000,0.0000,-0.2750*
1,1,0.7000,0.0000,-0.2750*
1,1,0.7000,0.0000,0.2750*
%
%ADD39ROUNDEDRECTD39*%
G04:AMPARAMS|DCode=40|XSize=0.6mm|YSize=1.9mm|CornerRadius=0.3mm|HoleSize=0mm|Usage=FLASHONLY|Rotation=90.000|XOffset=0mm|YOffset=0mm|HoleType=Round|Shape=RoundedRectangle|*
%AMROUNDEDRECTD40*
21,1,0.6000,1.3000,0,0,90.0*
21,1,0.0000,1.9000,0,0,90.0*
1,1,0.6000,0.6500,0.0000*
1,1,0.6000,0.6500,0.0000*
1,1,0.6000,-0.6500,0.0000*
1,1,0.6000,-0.6500,0.0000*
%
%ADD40ROUNDEDRECTD40*%
G04:AMPARAMS|DCode=41|XSize=1.3mm|YSize=2.6mm|CornerRadius=0.65mm|HoleSize=0mm|Usage=FLASHONLY|Rotation=90.000|XOffset=0mm|YOffset=0mm|HoleType=Round|Shape=RoundedRectangle|*
%AMROUNDEDRECTD41*
21,1,1.3000,1.3000,0,0,90.0*
21,1,0.0000,2.6000,0,0,90.0*
1,1,1.3000,0.6500,0.0000*
1,1,1.3000,0.6500,0.0000*
1,1,1.3000,-0.6500,0.0000*
1,1,1.3000,-0.6500,0.0000*
%
%ADD41ROUNDEDRECTD41*%
G04:AMPARAMS|DCode=42|XSize=0.85mm|YSize=0.5mm|CornerRadius=0.25mm|HoleSize=0mm|Usage=FLASHONLY|Rotation=90.000|XOffset=0mm|YOffset=0mm|HoleType=Round|Shape=RoundedRectangle|*
%AMROUNDEDRECTD42*
21,1,0.8500,0.0000,0,0,90.0*
21,1,0.3500,0.5000,0,0,90.0*
1,1,0.5000,0.0000,0.1750*
1,1,0.5000,0.0000,-0.1750*
1,1,0.5000,0.0000,-0.1750*
1,1,0.5000,0.0000,0.1750*
%
%ADD42ROUNDEDRECTD42*%
%ADD43C,0.6000*%
%ADD44C,0.4000*%
%ADD45C,0.1500*%
%ADD46C,0.1500*%
%ADD47C,0.3500*%
%ADD48R,0.5500X0.4000*%
%ADD49R,0.3000X0.4500*%
%ADD50R,0.6250X0.9000*%
%ADD51R,0.4000X0.5500*%
%ADD52C,0.1500*%
%ADD53R,0.6000X0.4000*%
%ADD54R,1.2500X1.2200*%
%ADD55R,0.5400X0.2200*%
%ADD56R,0.5300X0.2200*%
%ADD57R,0.6000X0.8000*%
%ADD58R,0.5000X0.3000*%
%ADD59C,0.2500*%
%ADD60C,0.2600*%
%ADD61R,1.2000X1.4000*%
%ADD62R,0.8000X1.8000*%
%ADD63R,0.5000X0.5000*%
G36*
G01X347383Y201248D02*
G03X352750Y205550I0J5499D01*
G01X352750Y211750D01*
G03X346750Y217750I-6000J0D01*
G01X335750D01*
G03X335750Y205750I0J-6000D01*
G01X341750D01*
G03X347250Y201250I5408J999D01*
G03X347383Y201248I133J5514D01*
D02*
G37*
G36*
G01X352750Y125350D02*
G01X352750Y131550D01*
G03X347383Y135852I-5367J-1198D01*
G03X347250Y135850I-3J-5329D01*
G03X341750Y131350I-92J-5499D01*
G01X335750Y131350D01*
G03X329750Y125350I0J-6000D01*
G03X335750Y119350I6000J-0D01*
G01X346750D01*
G03X352750Y125350I0J6000D01*
D02*
G37*
D10*
X391750Y211750D02*
X404500Y199000D01*
Y138100D02*
Y199000D01*
X391750Y125350D02*
X404500Y138100D01*
X341250Y125350D02*
X391750D01*
X389950Y213550D02*
X391750Y211750D01*
X352400Y213550D02*
X389950D01*
X350865Y212015D02*
X352400Y213550D01*
X338900Y197800D02*
X341900Y194800D01*
X338900Y197800D02*
Y209400D01*
X347350Y210168D02*
X349198Y212015D01*
X347350Y208500D02*
Y210168D01*
X338900Y209400D02*
X341250Y211750D01*
X349198Y212015D02*
X350865D01*
X341250Y211750D02*
X347350D01*
D14*
X182000Y129750D02*
Y154000D01*
X178000Y158000D02*
X182000Y154000D01*
X170000Y158000D02*
X178000D01*
X321650Y182227D02*
X322224Y182800D01*
X321650Y182227D02*
Y182550D01*
Y175050D02*
Y182227D01*
X232406Y166250D02*
X234517Y168361D01*
X232000Y166250D02*
X232406D01*
X234517Y168361D02*
X239828D01*
X322224Y182800D02*
X334150D01*
X321650Y175050D02*
X324150Y172550D01*
X309828Y133500D02*
X309828Y133500D01*
X315250D01*
X235250Y100500D02*
X236500Y101750D01*
X246850D01*
X308750Y101000D02*
X309250Y101500D01*
X298000Y101000D02*
X308750D01*
X309250Y101500D02*
Y101580D01*
X218000Y238000D02*
X222685D01*
X224435Y239750D01*
X229620D01*
X387000Y156500D02*
Y162300D01*
X384750Y164550D02*
X387000Y162300D01*
X384750Y164550D02*
Y168000D01*
X376750Y163250D02*
Y165000D01*
X371000Y157500D02*
X376750Y163250D01*
X371000Y156500D02*
Y157500D01*
X367100Y156500D02*
X371000D01*
X363650Y153050D02*
X367100Y156500D01*
X363244Y153050D02*
X363650D01*
X361744Y151550D02*
X363244Y153050D01*
X353900Y151550D02*
X361744D01*
X388000Y172000D02*
X392000D01*
X394500Y174500D01*
X395500D01*
X394750D02*
X395500D01*
X393750Y175500D02*
X394750Y174500D01*
X393750Y175500D02*
Y188750D01*
X380750Y174750D02*
Y185750D01*
X377750Y188750D02*
X380750Y185750D01*
X324150Y172550D02*
X327150D01*
X332400Y167300D02*
X337900D01*
X327150Y172550D02*
X332400Y167300D01*
X288828Y178250D02*
Y178656D01*
X290828Y180656D01*
Y184750D01*
X292828Y186750D01*
Y187750D01*
X294828Y189750D01*
X297428D01*
X303328Y195650D01*
X304078D01*
X244637Y164611D02*
X244828Y164803D01*
Y168361D01*
X244637Y164611D02*
X244828D01*
X241728Y161703D02*
X244637Y164611D01*
X241728Y158861D02*
Y161703D01*
X240728Y157861D02*
X241728Y158861D01*
X238828Y179361D02*
X244828Y173361D01*
X238828Y179361D02*
Y184750D01*
X270828Y175500D02*
X273328Y173000D01*
X270828Y175500D02*
Y178250D01*
X254328Y173361D02*
X256328Y175361D01*
X266828Y178250D02*
X270828D01*
X265078Y180000D02*
X266828Y178250D01*
X256328Y175361D02*
Y184500D01*
X265078Y180000D02*
Y184500D01*
X253757Y162611D02*
X254618Y161750D01*
X248100Y162611D02*
X253757D01*
X254618Y161750D02*
X259828D01*
X249828Y173361D02*
X254328D01*
X249828Y168361D02*
Y173361D01*
X256328Y184500D02*
X265078D01*
X248078Y147250D02*
X250078D01*
X251078Y148250D02*
Y149250D01*
X250078Y147250D02*
X251078Y148250D01*
X246078Y160750D02*
X246239D01*
X248100Y162611D01*
X273328Y173000D02*
X294578D01*
X304828Y168750D02*
Y176750D01*
X314828Y162000D02*
X314828D01*
X314541Y162287D02*
X314828Y162000D01*
X312532Y159703D02*
X314828Y162000D01*
X310578Y159703D02*
X312532D01*
X309578Y158000D02*
Y158703D01*
X304422Y156750D02*
X304828D01*
X309578Y158703D02*
X310578Y159703D01*
X299578Y158000D02*
X303172D01*
X304422Y156750D01*
X299578Y167000D02*
X303078D01*
X304828Y168750D01*
X312578Y165000D02*
X314541Y163037D01*
Y162287D02*
Y163037D01*
X310578Y165000D02*
X312578D01*
X309578Y166000D02*
Y167000D01*
Y166000D02*
X310578Y165000D01*
X241328Y141500D02*
X242328D01*
X248078Y147250D01*
X241078Y114750D02*
Y123500D01*
X294578Y173000D02*
X299578Y168000D01*
Y166000D02*
Y168000D01*
Y167000D02*
Y168000D01*
X286078Y212750D02*
X293078D01*
X282328Y209000D02*
X286078Y212750D01*
X348150Y185800D02*
X350150Y183800D01*
X350250Y194150D02*
X350900Y194800D01*
X350250D02*
X350900D01*
X350150Y182800D02*
X350250Y182900D01*
Y194150D01*
D15*
X313828Y221000D02*
X314828Y220000D01*
X315000D01*
X284839Y221000D02*
X313828D01*
X283000Y220000D02*
X283839D01*
X284839Y221000D01*
X279159Y212492D02*
X285667Y219000D01*
X313000D02*
X318000Y214000D01*
X285667Y219000D02*
X313000D01*
X220500Y96750D02*
X221750Y98000D01*
Y135000D01*
X220500Y93250D02*
Y96750D01*
Y93250D02*
X224750Y89000D01*
X221750Y135000D02*
X223702Y136952D01*
X226202D02*
X226250Y137000D01*
X223702Y136952D02*
X226202D01*
X226000Y114511D02*
Y132500D01*
X224750Y113261D02*
X226000Y114511D01*
X224750Y95750D02*
Y113261D01*
X365000Y100250D02*
Y109500D01*
X361250Y113250D02*
X365000Y109500D01*
X312250Y113250D02*
X361250D01*
X310178Y115322D02*
X312250Y113250D01*
X310178Y115322D02*
Y124861D01*
X202100Y158900D02*
X202500Y158500D01*
X199850Y158900D02*
X202100D01*
X196200Y161000D02*
X197750D01*
X199850Y158900D01*
X183750Y156750D02*
Y162000D01*
X185750Y158000D02*
Y167750D01*
X189000Y140750D02*
Y151500D01*
X185750Y158000D02*
X192050Y151700D01*
Y145027D02*
Y151700D01*
X183750Y156750D02*
X189000Y151500D01*
X173500Y187000D02*
X178250Y191750D01*
X179250D01*
X173500Y186750D02*
Y187000D01*
X179250Y191750D02*
X180000Y191000D01*
X188886Y117614D02*
X190136D01*
X192750Y115000D01*
X186750Y119750D02*
X188886Y117614D01*
X192250Y138154D02*
Y144827D01*
X192050Y145027D02*
X192250Y144827D01*
Y138154D02*
X194250Y136154D01*
X182000Y119750D02*
X186750D01*
X181750Y164000D02*
X183750Y162000D01*
X170000Y164000D02*
X181750D01*
X194250Y130750D02*
Y136154D01*
X183500Y170000D02*
X185750Y167750D01*
X170000Y170000D02*
X183500D01*
X197250Y132750D02*
Y137750D01*
Y132750D02*
X199250Y130750D01*
X194250D02*
X197000Y128000D01*
X196250Y118750D02*
X198250Y120750D01*
X207050D01*
X201000Y141000D02*
X206800D01*
X194000Y122750D02*
X194400Y123150D01*
X196650D01*
X199250Y125750D01*
X206750Y170000D02*
X206800Y170050D01*
Y181000D01*
X200500Y201000D02*
X206800D01*
X200750Y193250D02*
X206750Y187250D01*
X213500D01*
X191750Y196000D02*
X194500Y193250D01*
X200750D01*
X195000Y200502D02*
Y200750D01*
X196750Y196000D02*
Y198752D01*
X195000Y200502D02*
X196750Y198752D01*
X194150Y186150D02*
Y188400D01*
X196750Y191000D01*
X193750Y185750D02*
X194150Y186150D01*
X217000Y201000D02*
Y207500D01*
X215500Y209000D02*
X217000Y207500D01*
X168500Y209000D02*
X215500D01*
X166250Y206750D02*
X168500Y209000D01*
X166250Y186500D02*
Y206750D01*
Y186500D02*
X169750Y183000D01*
X178250D01*
X183000Y178250D01*
X189400D01*
X194650Y173000D01*
X196200D01*
X215500Y182500D02*
X217000Y181000D01*
X215500Y182500D02*
Y185250D01*
X213500Y187250D02*
X215500Y185250D01*
X217250Y120750D02*
Y124250D01*
X215250Y126250D02*
X217250Y124250D01*
X207068Y126250D02*
X215250D01*
X205318Y128000D02*
X207068Y126250D01*
X197000Y128000D02*
X205318D01*
X187000Y119750D02*
X189250Y122000D01*
Y125750D01*
X180000Y191000D02*
X186750D01*
X380750Y172000D02*
Y174750D01*
X325750Y177486D02*
Y177500D01*
Y177486D02*
X330936Y172300D01*
X323261Y189989D02*
X323261D01*
X320000Y193250D02*
Y215000D01*
Y193250D02*
X323261Y189989D01*
X323261D02*
X325750Y187500D01*
X315000Y220000D02*
X320000Y215000D01*
X318000Y170036D02*
Y214000D01*
Y170036D02*
X325736Y162300D01*
X330936Y172300D02*
X337900D01*
X273828Y210828D02*
X283000Y220000D01*
X273828Y194750D02*
Y210828D01*
X282578Y194700D02*
X283328D01*
X279078Y206250D02*
Y212500D01*
Y206250D02*
X282578Y202750D01*
Y194700D02*
Y202750D01*
X325736Y162300D02*
X337900D01*
X275578Y178676D02*
Y183050D01*
X274078Y184550D02*
X275578Y183050D01*
X265078Y184500D02*
X265078Y184500D01*
X273828Y184550D02*
X274078D01*
X247952Y137874D02*
Y140100D01*
X258178Y138750D02*
X271826D01*
X249452Y141600D02*
X250078D01*
X247952Y140100D02*
X249452Y141600D01*
X246078Y136000D02*
X247952Y137874D01*
X247828Y179000D02*
Y184250D01*
X248328Y184750D01*
X280328Y178250D02*
Y183000D01*
X281828Y184500D02*
X282578D01*
X282328Y184250D02*
X282578Y184500D01*
X280328Y183000D02*
X281828Y184500D01*
X262077Y125501D02*
X264828Y122750D01*
X252578Y125501D02*
X262077D01*
X280577Y147501D02*
Y148501D01*
X271826Y138750D02*
X280577Y147501D01*
X249978Y131500D02*
X250078Y131400D01*
X250828D01*
X258178Y138750D01*
X251078Y124001D02*
X252578Y125501D01*
X251078Y123500D02*
Y124001D01*
X241328Y131500D02*
X249978D01*
X304078Y205850D02*
X309187D01*
X310787Y204250D01*
X311328D01*
X299228Y125611D02*
X299978Y124861D01*
X294078Y125611D02*
X299228D01*
X345150Y172300D02*
X355359D01*
X345692Y162842D02*
X357012D01*
X345150Y162300D02*
X345692Y162842D01*
X357451Y170208D02*
X357520D01*
X355359Y172300D02*
X357451Y170208D01*
X357400Y179200D02*
X358900Y180700D01*
X328150Y154400D02*
X328900D01*
X326150Y152400D02*
X328150Y154400D01*
X326150Y149050D02*
Y152400D01*
X358900Y180700D02*
X359150D01*
X357400Y175300D02*
Y179200D01*
D25*
X293078Y212750D02*
D03*
Y196750D02*
D03*
D26*
X309578Y176000D02*
D03*
X286578Y162000D02*
D03*
X299828Y133500D02*
D03*
X241078Y149250D02*
D03*
X251078Y114750D02*
D03*
Y149250D02*
D03*
X309828Y133500D02*
D03*
X241078Y114750D02*
D03*
X276578Y162000D02*
D03*
X309578Y158000D02*
D03*
X299578D02*
D03*
X299578Y176000D02*
D03*
X269828Y161750D02*
D03*
X259828D02*
D03*
X309578Y167000D02*
D03*
X299578D02*
D03*
X251078Y123500D02*
D03*
X241078D02*
D03*
D39*
X347350Y208500D02*
D03*
D40*
X341250Y125350D02*
D03*
D41*
X391750D02*
D03*
Y211750D02*
D03*
D42*
X360600Y204550D02*
D03*
D43*
X361250Y132550D02*
D03*
D44*
X191000Y105750D02*
X205500D01*
D45*
X170000Y146000D02*
X174250D01*
X176750Y143500D01*
X229750Y85750D02*
Y107750D01*
Y85750D02*
X231129Y84371D01*
X229750Y107750D02*
X232000Y110000D01*
X199575Y163850D02*
X211385D01*
X217535Y170000D01*
X196200Y167000D02*
X211000D01*
X217000Y173000D01*
X226467Y162283D02*
Y170000D01*
Y162283D02*
X230889Y157861D01*
X240728D01*
X176000Y105750D02*
X176750Y106500D01*
Y143500D01*
X190007Y166668D02*
Y172757D01*
Y166668D02*
X192825Y163850D01*
X217535Y170000D02*
X226467D01*
X217000Y173000D02*
Y181000D01*
X170000Y176000D02*
X186763D01*
X190007Y172757D01*
X226467Y170000D02*
X229828Y173361D01*
X253350Y81500D02*
Y82250D01*
X250100Y78250D02*
X253350Y81500D01*
X249075Y78250D02*
X250100D01*
X244028D02*
X244625D01*
X243528Y78750D02*
X244028Y78250D01*
X236480Y78750D02*
X243528D01*
X258230Y90625D02*
Y92000D01*
Y90625D02*
X263355Y85500D01*
X269380D01*
X258230Y92000D02*
X259850Y93620D01*
Y101750D01*
X232000Y110000D02*
X238354D01*
X269380Y99500D02*
Y103398D01*
X263778Y109000D02*
X269380Y103398D01*
X240705Y109000D02*
X263778D01*
X239705Y110000D02*
X240705Y109000D01*
X231129Y84371D02*
X238083D01*
X240205Y82250D01*
X246850D01*
X249350Y106500D02*
X253350Y102500D01*
X236480Y106500D02*
X249350D01*
X253350Y101750D02*
Y102500D01*
X246850Y82250D02*
Y83000D01*
X248470Y84620D01*
Y92000D01*
X315750Y81330D02*
Y82080D01*
X312500Y78080D02*
X315750Y81330D01*
X311475Y78080D02*
X312500D01*
X299670D02*
X307025D01*
X298870Y78880D02*
X299670Y78080D01*
X327670Y109580D02*
X332020Y105230D01*
X302345Y109580D02*
X327670D01*
X291750Y87500D02*
Y105935D01*
X295395Y109580D01*
X309250Y82080D02*
Y82750D01*
X308500Y83500D02*
X309250Y82750D01*
X295750Y83500D02*
X308500D01*
X291750Y87500D02*
X295750Y83500D01*
X332020Y100080D02*
Y105230D01*
X306895Y107000D02*
X314500D01*
X305725Y105830D02*
X306895Y107000D01*
X314500D02*
X315750Y105750D01*
X320630Y90455D02*
Y91830D01*
Y90455D02*
X325505Y85580D01*
X332520D01*
X320630Y91830D02*
X322250Y93450D01*
Y101580D01*
X309250Y90210D02*
X310870Y91830D01*
X309250Y82080D02*
Y90210D01*
X298870Y105830D02*
X305725D01*
X315750Y101580D02*
Y105750D01*
X252050Y237830D02*
X252250Y238030D01*
Y246000D01*
X250250Y248000D02*
X252250Y246000D01*
X215750Y248000D02*
X250250D01*
X212250Y244500D02*
X215750Y248000D01*
X212250Y222000D02*
Y244500D01*
Y222000D02*
X214000Y220250D01*
X229620D01*
X222570Y245500D02*
X235000D01*
X236250Y244250D01*
X220000Y242930D02*
X222570Y245500D01*
X236250Y239880D02*
Y244250D01*
X236120Y219500D02*
Y220250D01*
X232100Y215480D02*
X236120Y219500D01*
X219250Y215480D02*
X232100D01*
X236120Y239750D02*
X236250Y239880D01*
X219250Y242930D02*
X220000D01*
X241000Y228625D02*
Y230000D01*
Y228625D02*
X245795Y223830D01*
X251900D01*
X242620Y231620D02*
Y239750D01*
X241000Y230000D02*
X242620Y231620D01*
X229620Y228380D02*
X231240Y230000D01*
X229620Y220250D02*
Y228380D01*
X367500Y173500D02*
Y180750D01*
Y173500D02*
X369000Y172000D01*
X376750D01*
Y165000D02*
Y168000D01*
X380750D01*
X384750Y172000D02*
X388000D01*
X314617Y168383D02*
X315000Y168000D01*
X314617Y168383D02*
Y169961D01*
X309578Y175000D02*
X314617Y169961D01*
X309578Y175000D02*
Y176000D01*
X229828Y173361D02*
X239828D01*
X287568Y166861D02*
X294828D01*
X286578Y165871D02*
X287568Y166861D01*
X286578Y162000D02*
Y165871D01*
X234078Y149250D02*
X241078D01*
X231078Y146250D02*
X234078Y149250D01*
X231078Y140750D02*
Y146250D01*
X251078Y114750D02*
X260328D01*
X262578Y112500D01*
X238828Y194750D02*
Y194750D01*
X345150Y167300D02*
X355478D01*
X356436Y166342D01*
X369358D02*
X369400Y166300D01*
X356436Y166342D02*
X369358D01*
X335650Y148300D02*
X337900Y150550D01*
Y151550D01*
X333750Y148300D02*
X335650D01*
X328650Y143950D02*
X328900Y144200D01*
X329650D02*
X333750Y148300D01*
X328900Y144200D02*
X329650D01*
X328650Y137300D02*
Y143950D01*
D46*
X192825Y163850D02*
X199575D01*
X244625Y78250D02*
X249075D01*
X239705Y110000D02*
X239705Y110000D01*
X238354Y110000D02*
X239705D01*
X307025Y78080D02*
X311475D01*
X295395Y109580D02*
X302345D01*
D47*
X298870Y95630D02*
D03*
X251000Y158000D02*
D03*
X342000Y140000D02*
D03*
X309828Y213500D02*
D03*
X308750Y187750D02*
D03*
X226250Y137000D02*
D03*
X226000Y132500D02*
D03*
X224750Y89000D02*
D03*
Y95750D02*
D03*
X236480Y88950D02*
D03*
Y95800D02*
D03*
X298870Y89080D02*
D03*
X308250Y70000D02*
D03*
X202500Y158500D02*
D03*
X230000Y173250D02*
D03*
X232000Y166250D02*
D03*
X219250Y225750D02*
D03*
X219500Y232750D02*
D03*
X173500Y186750D02*
D03*
X192750Y115000D02*
D03*
X189000Y140750D02*
D03*
X191000Y105750D02*
D03*
X197250Y137750D02*
D03*
X217250Y120750D02*
D03*
X217000Y141000D02*
D03*
X182000Y129750D02*
D03*
X196000Y118500D02*
D03*
X201250Y140750D02*
D03*
X194000Y122750D02*
D03*
X206500Y170500D02*
D03*
X200500Y201000D02*
D03*
X193750Y185750D02*
D03*
X217000Y201000D02*
D03*
Y181000D02*
D03*
X179250Y201750D02*
D03*
X195000Y200750D02*
D03*
X321650Y182550D02*
D03*
X365000Y100250D02*
D03*
X401000D02*
D03*
X400750Y235500D02*
D03*
X171580Y81880D02*
D03*
X211750Y130750D02*
D03*
Y191000D02*
D03*
X315250Y133500D02*
D03*
X342720Y85580D02*
D03*
X342220Y100080D02*
D03*
X322250Y82080D02*
D03*
X259850Y82250D02*
D03*
X279580Y85500D02*
D03*
Y99500D02*
D03*
X235000Y100750D02*
D03*
X242620Y220250D02*
D03*
X297750Y100750D02*
D03*
X217500Y238000D02*
D03*
X262100Y223830D02*
D03*
X262250Y237830D02*
D03*
X395500Y174500D02*
D03*
X367500Y190950D02*
D03*
X387000Y156500D02*
D03*
X395500Y164500D02*
D03*
X325750Y177500D02*
D03*
Y187500D02*
D03*
X327000Y167000D02*
D03*
X315000Y168000D02*
D03*
X288828Y178250D02*
D03*
X363650Y153050D02*
D03*
X294828Y166861D02*
D03*
X299828Y133500D02*
D03*
X238828Y184750D02*
D03*
X262328Y112500D02*
D03*
X231078Y140750D02*
D03*
X275578Y178426D02*
D03*
X282328Y209000D02*
D03*
X280328Y178250D02*
D03*
X314828Y162000D02*
D03*
X304828Y176750D02*
D03*
Y156750D02*
D03*
X299578Y176000D02*
D03*
X276578Y162000D02*
D03*
X292828Y196750D02*
D03*
X311328Y204250D02*
D03*
X247578Y194950D02*
D03*
X238828Y194750D02*
D03*
X256328Y194500D02*
D03*
X264828Y121250D02*
D03*
X261328Y201000D02*
D03*
X265078Y194500D02*
D03*
X247828Y179000D02*
D03*
X251078Y149250D02*
D03*
X262077Y148501D02*
D03*
X269828Y161750D02*
D03*
X246078Y160750D02*
D03*
X270828Y178250D02*
D03*
X246078Y136000D02*
D03*
X281828Y128500D02*
D03*
X294078Y125611D02*
D03*
X241078Y114750D02*
D03*
X357012Y162842D02*
D03*
X357400Y175300D02*
D03*
X359150Y190800D02*
D03*
X357520Y170208D02*
D03*
X369400Y166300D02*
D03*
X350250Y194800D02*
D03*
X334250Y197300D02*
D03*
X328650Y137300D02*
D03*
X326150Y149050D02*
D03*
D48*
X298870Y105830D02*
D03*
Y95630D02*
D03*
X304078Y195650D02*
D03*
X219250Y225680D02*
D03*
Y232730D02*
D03*
Y242930D02*
D03*
Y215480D02*
D03*
X282578Y194700D02*
D03*
X273828Y194750D02*
D03*
X247578Y184750D02*
D03*
Y194950D02*
D03*
X282578Y184500D02*
D03*
X304078Y205850D02*
D03*
X273828Y184550D02*
D03*
X250078Y141600D02*
D03*
Y131400D02*
D03*
X236480Y88950D02*
D03*
Y95800D02*
D03*
X298870Y89080D02*
D03*
Y78880D02*
D03*
X367500Y180750D02*
D03*
Y190950D02*
D03*
X328900Y154400D02*
D03*
Y144200D02*
D03*
X359150Y180700D02*
D03*
Y190900D02*
D03*
X236480Y78750D02*
D03*
Y106000D02*
D03*
D49*
X322250Y82080D02*
D03*
X315750D02*
D03*
X309250D02*
D03*
Y101580D02*
D03*
X315750D02*
D03*
X322250D02*
D03*
X242620Y220250D02*
D03*
X236120D02*
D03*
X229620D02*
D03*
Y239750D02*
D03*
X236120D02*
D03*
X242620D02*
D03*
X259850Y82250D02*
D03*
X253350D02*
D03*
X246850D02*
D03*
Y101750D02*
D03*
X253350D02*
D03*
X259850D02*
D03*
D50*
X320630Y91830D02*
D03*
X310870D02*
D03*
X241000Y230000D02*
D03*
X231240D02*
D03*
X258230Y92000D02*
D03*
X248470D02*
D03*
D51*
X207050Y120750D02*
D03*
X217250D02*
D03*
X206800Y181000D02*
D03*
X217000D02*
D03*
X206800Y141000D02*
D03*
X217000D02*
D03*
X206800Y201000D02*
D03*
X217000D02*
D03*
X240728Y157861D02*
D03*
X262250Y237830D02*
D03*
X252050D02*
D03*
X262100Y223830D02*
D03*
X251900D02*
D03*
X299978Y124861D02*
D03*
X310178D02*
D03*
X250928Y157861D02*
D03*
X342720Y85580D02*
D03*
X332520D02*
D03*
X342220Y100080D02*
D03*
X332020D02*
D03*
X279580Y85500D02*
D03*
X269380D02*
D03*
X279580Y99500D02*
D03*
X269380D02*
D03*
D52*
X189250Y130750D02*
D03*
Y125750D02*
D03*
X194250Y130750D02*
D03*
X199250D02*
D03*
Y125750D02*
D03*
X186750Y196000D02*
D03*
Y191000D02*
D03*
X191750Y196000D02*
D03*
X196750D02*
D03*
Y191000D02*
D03*
D53*
X179250Y191750D02*
D03*
Y201750D02*
D03*
X182000Y119750D02*
D03*
Y129750D02*
D03*
X238828Y184750D02*
D03*
X241328Y141500D02*
D03*
Y131500D02*
D03*
X265078Y194500D02*
D03*
Y184500D02*
D03*
X256328Y184500D02*
D03*
Y194500D02*
D03*
X238828Y194750D02*
D03*
X395500Y174500D02*
D03*
Y164500D02*
D03*
D54*
X176000Y105750D02*
D03*
X205500D02*
D03*
D55*
X170000Y146000D02*
D03*
Y152000D02*
D03*
Y158000D02*
D03*
Y164000D02*
D03*
Y170000D02*
D03*
Y176000D02*
D03*
Y142000D02*
D03*
Y180000D02*
D03*
D56*
X196200Y149000D02*
D03*
Y155000D02*
D03*
Y161000D02*
D03*
Y167000D02*
D03*
Y173000D02*
D03*
D57*
X292828Y186750D02*
D03*
X371000Y156500D02*
D03*
X334150Y182800D02*
D03*
X353900Y151550D02*
D03*
X308828Y186750D02*
D03*
X387000Y156500D02*
D03*
X337900Y151550D02*
D03*
X350150Y182800D02*
D03*
D58*
X337900Y167300D02*
D03*
Y162300D02*
D03*
Y172300D02*
D03*
X345150Y162300D02*
D03*
Y172300D02*
D03*
Y167300D02*
D03*
D59*
X376750Y168000D02*
D03*
X380750D02*
D03*
X384750Y172000D02*
D03*
Y168000D02*
D03*
X380750Y172000D02*
D03*
X376750D02*
D03*
D60*
X239828Y173361D02*
D03*
X244828Y168361D02*
D03*
Y173361D02*
D03*
X249828D02*
D03*
Y168361D02*
D03*
X239828D02*
D03*
D61*
X280577Y125501D02*
D03*
X262077Y148501D02*
D03*
X280577D02*
D03*
X262077Y125501D02*
D03*
D62*
X393750Y188750D02*
D03*
X377750D02*
D03*
D63*
X341900Y194800D02*
D03*
X350900D02*
D03*
M02*
