G04*
G04 #@! TF.GenerationSoftware,Altium Limited,Altium Designer,26.7.1 (11)*
G04*
G04 Layer_Color=8421504*
G04 Board_Origin=29229129|20585428*
%FSLAX44Y44*%
%MOMM*%
G71*
G04*
G04 #@! TF.SameCoordinates,8779AD07-D775-4D22-9B10-52380A62D4C4*
G04*
G04*
G04 #@! TF.FilePolarity,Positive*
G04*
G01*
G75*
%ADD17R,1.0000X1.0000*%
%ADD18R,1.5500X0.6000*%
%ADD19R,1.8000X1.2000*%
%ADD20R,0.9000X1.7000*%
%ADD21O,0.8500X0.2000*%
%ADD22O,0.2000X0.8500*%
%ADD23R,0.8000X0.2700*%
%ADD24R,0.9000X0.2700*%
%ADD25R,0.8000X0.6000*%
%ADD26R,0.4000X0.6000*%
%ADD27R,0.8000X1.6000*%
%ADD28R,3.4000X3.4000*%
D17*
X245980Y99500D02*
D03*
X276980D02*
D03*
X245980Y85500D02*
D03*
X276980D02*
D03*
X259500Y223830D02*
D03*
X228500D02*
D03*
X259500Y237830D02*
D03*
X228500D02*
D03*
X308370Y99580D02*
D03*
X339370D02*
D03*
X308370Y85580D02*
D03*
X339370D02*
D03*
D18*
X211750Y201000D02*
D03*
Y191000D02*
D03*
Y181000D02*
D03*
Y140750D02*
D03*
Y130750D02*
D03*
Y120750D02*
D03*
D19*
X173000Y168000D02*
D03*
Y214000D02*
D03*
Y107750D02*
D03*
Y153750D02*
D03*
D20*
X171580Y81880D02*
D03*
X207580D02*
D03*
X399750Y235500D02*
D03*
X399000Y100250D02*
D03*
X363000D02*
D03*
X363750Y235500D02*
D03*
D21*
X238828Y152750D02*
D03*
Y144750D02*
D03*
Y148750D02*
D03*
X306828Y180750D02*
D03*
Y152750D02*
D03*
X238828Y180750D02*
D03*
Y140750D02*
D03*
X306828Y128750D02*
D03*
X238828Y176750D02*
D03*
Y172750D02*
D03*
Y168750D02*
D03*
Y164750D02*
D03*
Y160750D02*
D03*
Y156750D02*
D03*
Y136750D02*
D03*
Y132750D02*
D03*
Y128750D02*
D03*
Y124750D02*
D03*
X306828D02*
D03*
Y132750D02*
D03*
Y136750D02*
D03*
Y140750D02*
D03*
Y144750D02*
D03*
Y148750D02*
D03*
Y156750D02*
D03*
Y160750D02*
D03*
Y164750D02*
D03*
Y168750D02*
D03*
Y176750D02*
D03*
D22*
X248828Y118750D02*
D03*
X256828D02*
D03*
X252828D02*
D03*
X288828Y186750D02*
D03*
X300828Y118750D02*
D03*
X260828D02*
D03*
X244828D02*
D03*
X264828D02*
D03*
X268828D02*
D03*
X272828D02*
D03*
X276828D02*
D03*
X280828D02*
D03*
X284828D02*
D03*
X288828D02*
D03*
X292828D02*
D03*
X296828D02*
D03*
X300828Y186750D02*
D03*
X296828D02*
D03*
X292828D02*
D03*
X284828D02*
D03*
X280828D02*
D03*
X276828D02*
D03*
X272828D02*
D03*
X268828D02*
D03*
X264828D02*
D03*
X260828D02*
D03*
X256828D02*
D03*
X252828D02*
D03*
X248828D02*
D03*
X244828D02*
D03*
D23*
X350250Y154800D02*
D03*
Y179800D02*
D03*
Y189800D02*
D03*
Y184800D02*
D03*
Y174800D02*
D03*
Y169800D02*
D03*
Y164800D02*
D03*
Y159800D02*
D03*
Y149800D02*
D03*
Y144800D02*
D03*
Y139800D02*
D03*
Y194800D02*
D03*
D24*
X334250Y182300D02*
D03*
Y157300D02*
D03*
Y147300D02*
D03*
Y152300D02*
D03*
Y162300D02*
D03*
Y167300D02*
D03*
Y172300D02*
D03*
Y177300D02*
D03*
Y187300D02*
D03*
Y192300D02*
D03*
Y142300D02*
D03*
Y197300D02*
D03*
D25*
X309828Y197500D02*
D03*
Y213500D02*
D03*
D26*
X261328Y201000D02*
D03*
X271328D02*
D03*
D27*
X297328Y209000D02*
D03*
X282328D02*
D03*
D28*
X272828Y152750D02*
D03*
M02*
