G04*
G04 #@! TF.GenerationSoftware,Altium Limited,Altium Designer,26.7.1 (11)*
G04*
G04 Layer_Color=32896*
G04 Board_Origin=29229129|20585428*
%FSLAX44Y44*%
%MOMM*%
G71*
G04*
G04 #@! TF.SameCoordinates,8779AD07-D775-4D22-9B10-52380A62D4C4*
G04*
G04*
G04 #@! TF.FilePolarity,Positive*
G04*
G01*
G75*
%ADD10C,0.3000*%
%ADD11C,0.5000*%
%ADD12C,0.2500*%
%ADD14C,0.2000*%
%ADD15C,0.1000*%
%ADD16C,0.0500*%
%ADD45C,0.1500*%
%ADD77C,0.1524*%
G36*
X405414Y258188D02*
X306586D01*
Y289813D01*
X405414D01*
Y258188D01*
D02*
G37*
%LPC*%
G36*
X337736Y280704D02*
X335287D01*
D01*
X337736D01*
D02*
G37*
G36*
X361680Y285928D02*
X357331D01*
Y279292D01*
X357318Y279305D01*
X357281Y279330D01*
X357231Y279367D01*
X357156Y279430D01*
X357068Y279492D01*
X356968Y279567D01*
X356843Y279655D01*
X356706Y279755D01*
X356406Y279955D01*
X356056Y280167D01*
X355694Y280380D01*
X355306Y280580D01*
X355294D01*
X355256Y280605D01*
X355194Y280630D01*
X355119Y280655D01*
X355019Y280692D01*
X354907Y280742D01*
X354769Y280779D01*
X354607Y280830D01*
X354444Y280879D01*
X354257Y280917D01*
X354057Y280967D01*
X353844Y281005D01*
X353394Y281054D01*
X352895Y281079D01*
X352782D01*
X352645Y281067D01*
X352470Y281054D01*
X352257Y281017D01*
X352007Y280979D01*
X351732Y280930D01*
X351445Y280842D01*
X351133Y280755D01*
X350808Y280630D01*
X350470Y280480D01*
X350145Y280292D01*
X349820Y280080D01*
X349508Y279830D01*
X349221Y279542D01*
X348946Y279217D01*
X348933Y279192D01*
X348883Y279130D01*
X348821Y279030D01*
X348733Y278880D01*
X348621Y278693D01*
X348508Y278455D01*
X348383Y278193D01*
X348246Y277893D01*
X348121Y277543D01*
X347996Y277155D01*
X347883Y276743D01*
X347771Y276281D01*
X347683Y275793D01*
X347621Y275268D01*
X347571Y274706D01*
X347558Y274119D01*
Y274169D01*
Y274119D01*
Y266908D01*
Y273981D01*
X347571Y273906D01*
Y273806D01*
Y273706D01*
X347583Y273594D01*
X347608Y273319D01*
X347646Y273006D01*
X347708Y272657D01*
X347783Y272269D01*
X347871Y271869D01*
X347996Y271444D01*
X348133Y271019D01*
X348308Y270582D01*
X348508Y270145D01*
X348746Y269720D01*
X349021Y269307D01*
X349333Y268920D01*
X349358Y268895D01*
X349408Y268833D01*
X349508Y268733D01*
X349645Y268608D01*
X349820Y268458D01*
X350033Y268283D01*
X350270Y268108D01*
X350545Y267920D01*
X350845Y267733D01*
X351183Y267545D01*
X351545Y267370D01*
X351932Y267220D01*
X352345Y267096D01*
X352782Y266996D01*
X353245Y266933D01*
X353732Y266908D01*
X347558D01*
X353919D01*
X354019Y266921D01*
X354132D01*
X354257Y266933D01*
X354407D01*
X354707Y266971D01*
X355044Y267008D01*
X355381Y267071D01*
X355719Y267146D01*
X355731D01*
X355756Y267158D01*
X355806Y267171D01*
X355869Y267195D01*
X355944Y267220D01*
X356031Y267246D01*
X356244Y267320D01*
X356481Y267420D01*
X356756Y267545D01*
X357043Y267683D01*
X357331Y267845D01*
X357518Y267171D01*
X361680D01*
Y267033D01*
Y267171D01*
Y285928D01*
D02*
G37*
G36*
X398320Y285116D02*
X391447D01*
X391260Y285103D01*
X391047Y285091D01*
X390797D01*
X390522Y285066D01*
X390235Y285053D01*
X389935Y285028D01*
X389298Y284953D01*
X388648Y284866D01*
X388335Y284804D01*
X388036Y284741D01*
X388023D01*
X387961Y284729D01*
X387886Y284704D01*
X387773Y284678D01*
X387636Y284641D01*
X387473Y284591D01*
X387298Y284541D01*
X387111Y284479D01*
X386898Y284404D01*
X386686Y284329D01*
X386236Y284154D01*
X385786Y283941D01*
X385361Y283704D01*
X385336Y283691D01*
X385274Y283654D01*
X385186Y283591D01*
X385049Y283491D01*
X384899Y283379D01*
X384711Y283241D01*
X384511Y283079D01*
X384299Y282892D01*
X384062Y282691D01*
X383824Y282454D01*
X383587Y282204D01*
X383337Y281929D01*
X383099Y281642D01*
X382862Y281329D01*
X382649Y280992D01*
X382437Y280642D01*
X382425Y280617D01*
X382387Y280555D01*
X382337Y280442D01*
X382275Y280305D01*
X382187Y280117D01*
X382100Y279892D01*
X382000Y279642D01*
X381900Y279355D01*
X381800Y279042D01*
X381700Y278693D01*
X381612Y278318D01*
X381525Y277918D01*
X381462Y277505D01*
X381412Y277055D01*
X381375Y276593D01*
X381362Y276118D01*
Y285116D01*
Y267171D01*
Y275943D01*
X381375Y275868D01*
Y275693D01*
X381400Y275481D01*
X381425Y275218D01*
X381462Y274931D01*
X381500Y274619D01*
X381562Y274269D01*
X381637Y273919D01*
X381737Y273544D01*
X381850Y273157D01*
X381975Y272769D01*
X382137Y272382D01*
X382312Y271994D01*
X382512Y271619D01*
X382524Y271594D01*
X382562Y271532D01*
X382624Y271432D01*
X382724Y271294D01*
X382837Y271132D01*
X382962Y270944D01*
X383124Y270732D01*
X383299Y270495D01*
X383499Y270257D01*
X383724Y270007D01*
X383962Y269757D01*
X384224Y269507D01*
X384499Y269258D01*
X384786Y269020D01*
X385086Y268795D01*
X385411Y268583D01*
X385424Y268570D01*
X385474Y268545D01*
X385536Y268508D01*
X385636Y268458D01*
X385761Y268395D01*
X385911Y268320D01*
X386073Y268233D01*
X386261Y268145D01*
X386473Y268058D01*
X386686Y267970D01*
X386923Y267883D01*
X387173Y267783D01*
X387711Y267620D01*
X388285Y267483D01*
X388298D01*
X388360Y267470D01*
X388448Y267458D01*
X388560Y267433D01*
X388710Y267408D01*
X388898Y267383D01*
X389098Y267358D01*
X389335Y267333D01*
X389598Y267295D01*
X389873Y267271D01*
X390185Y267246D01*
X390510Y267220D01*
X390860Y267195D01*
X391222Y267183D01*
X391597Y267171D01*
X381362D01*
X398320D01*
Y285116D01*
D02*
G37*
G36*
X371377Y281129D02*
X371152D01*
X371065Y281117D01*
X370952D01*
X370840Y281104D01*
X370565Y281079D01*
X370240Y281042D01*
X369890Y280992D01*
X369515Y280917D01*
X369128Y280830D01*
X368716Y280717D01*
X368303Y280580D01*
X367891Y280430D01*
X367491Y280230D01*
X367103Y280005D01*
X366741Y279755D01*
X366416Y279455D01*
X366391Y279430D01*
X366341Y279380D01*
X366266Y279280D01*
X366154Y279142D01*
X366029Y278980D01*
X365891Y278768D01*
X365729Y278518D01*
X365579Y278230D01*
X365416Y277905D01*
X365266Y277555D01*
X365129Y277155D01*
X365004Y276731D01*
X364892Y276268D01*
X364817Y275768D01*
X364754Y275231D01*
X364742Y274656D01*
Y274694D01*
Y266808D01*
Y273144D01*
X374677D01*
Y273132D01*
X374664Y273069D01*
Y272994D01*
X374639Y272882D01*
X374627Y272744D01*
X374589Y272594D01*
X374552Y272419D01*
X374489Y272244D01*
X374426Y272044D01*
X374339Y271844D01*
X374252Y271644D01*
X374139Y271432D01*
X374002Y271232D01*
X373852Y271045D01*
X373677Y270857D01*
X373477Y270695D01*
X373464Y270682D01*
X373427Y270657D01*
X373364Y270620D01*
X373264Y270570D01*
X373152Y270495D01*
X373002Y270432D01*
X372839Y270357D01*
X372640Y270282D01*
X372427Y270195D01*
X372177Y270120D01*
X371902Y270057D01*
X371615Y269995D01*
X371290Y269932D01*
X370940Y269895D01*
X370578Y269870D01*
X370178Y269857D01*
X370040D01*
X369940Y269870D01*
X369815D01*
X369678Y269882D01*
X369515Y269895D01*
X369328Y269920D01*
X369128Y269945D01*
X368928Y269982D01*
X368478Y270057D01*
X368003Y270182D01*
X367516Y270345D01*
X367503D01*
X367453Y270370D01*
X367391Y270395D01*
X367303Y270432D01*
X367191Y270470D01*
X367066Y270532D01*
X366928Y270595D01*
X366778Y270657D01*
X366454Y270820D01*
X366116Y270994D01*
X365779Y271194D01*
X365629Y271294D01*
X365479Y271407D01*
X364991D01*
Y267920D01*
X365004Y267908D01*
X365054Y267895D01*
X365141Y267870D01*
X365241Y267820D01*
X365379Y267770D01*
X365529Y267720D01*
X365704Y267658D01*
X365891Y267595D01*
X366104Y267520D01*
X366316Y267458D01*
X366791Y267320D01*
X367278Y267183D01*
X367778Y267071D01*
X367791D01*
X367841Y267058D01*
X367903Y267045D01*
X368003Y267033D01*
X368128Y267008D01*
X368278Y266983D01*
X368441Y266958D01*
X368628Y266946D01*
X368828Y266921D01*
X369053Y266896D01*
X369290Y266871D01*
X369540Y266846D01*
X370078Y266821D01*
X370653Y266808D01*
X364742D01*
X370827D01*
X370927Y266821D01*
X371040D01*
X371177Y266833D01*
X371327D01*
X371490Y266846D01*
X371665Y266858D01*
X371852Y266883D01*
X372052Y266908D01*
X372490Y266958D01*
X372964Y267033D01*
X373452Y267133D01*
X373964Y267258D01*
X374489Y267395D01*
X375001Y267583D01*
X375514Y267783D01*
X376014Y268033D01*
X376476Y268308D01*
X376901Y268633D01*
X376926Y268658D01*
X376988Y268720D01*
X377101Y268820D01*
X377238Y268970D01*
X377401Y269158D01*
X377588Y269395D01*
X377776Y269670D01*
X377976Y269970D01*
X378188Y270320D01*
X378376Y270720D01*
X378563Y271145D01*
X378725Y271607D01*
X378863Y272119D01*
X378975Y272657D01*
X379038Y273244D01*
X379050Y273544D01*
X379063Y273856D01*
Y267171D01*
Y274081D01*
Y274006D01*
X379050Y274081D01*
Y274181D01*
X379038Y274294D01*
X379025Y274406D01*
X379013Y274544D01*
X379000Y274694D01*
X378950Y275019D01*
X378888Y275381D01*
X378800Y275781D01*
X378700Y276193D01*
X378563Y276631D01*
X378400Y277068D01*
X378201Y277505D01*
X377963Y277955D01*
X377688Y278380D01*
X377376Y278780D01*
X377013Y279167D01*
X376988Y279192D01*
X376913Y279255D01*
X376801Y279355D01*
X376638Y279480D01*
X376426Y279617D01*
X376176Y279792D01*
X375876Y279967D01*
X375539Y280155D01*
X375164Y280330D01*
X374739Y280505D01*
X374277Y280680D01*
X373777Y280830D01*
X373227Y280954D01*
X372652Y281042D01*
X372027Y281104D01*
X371377Y281129D01*
D02*
G37*
G36*
X344534Y280704D02*
X340185D01*
Y273994D01*
Y273981D01*
Y273944D01*
Y273894D01*
Y273819D01*
Y273731D01*
Y273631D01*
X340173Y273394D01*
Y273132D01*
X340160Y272844D01*
X340148Y272557D01*
X340123Y272282D01*
Y272269D01*
Y272257D01*
X340110Y272219D01*
Y272169D01*
X340085Y272044D01*
X340060Y271894D01*
X340023Y271707D01*
X339973Y271519D01*
X339898Y271332D01*
X339823Y271157D01*
X339810Y271132D01*
X339773Y271082D01*
X339723Y271007D01*
X339648Y270907D01*
X339548Y270807D01*
X339423Y270695D01*
X339286Y270595D01*
X339123Y270507D01*
X339098Y270495D01*
X339036Y270482D01*
X338936Y270445D01*
X338786Y270407D01*
X338598Y270370D01*
X338373Y270345D01*
X338123Y270320D01*
X337823Y270307D01*
X337723D01*
X337611Y270320D01*
X337461Y270332D01*
X337286Y270357D01*
X337074Y270395D01*
X336849Y270445D01*
X336599Y270507D01*
X336586D01*
X336574Y270520D01*
X336536Y270532D01*
X336486Y270545D01*
X336349Y270595D01*
X336186Y270657D01*
X335986Y270745D01*
X335761Y270845D01*
X335524Y270970D01*
X335287Y271107D01*
Y280704D01*
X330938Y280704D01*
Y266796D01*
Y267171D01*
X335287Y267171D01*
Y268658D01*
X335299Y268645D01*
X335336Y268620D01*
X335399Y268570D01*
X335486Y268508D01*
X335599Y268433D01*
X335724Y268345D01*
X335861Y268245D01*
X336011Y268145D01*
X336361Y267920D01*
X336736Y267683D01*
X337111Y267470D01*
X337499Y267271D01*
X337511D01*
X337548Y267246D01*
X337598Y267233D01*
X337673Y267195D01*
X337773Y267158D01*
X337886Y267120D01*
X338023Y267083D01*
X338173Y267033D01*
X338336Y266983D01*
X338523Y266946D01*
X338711Y266908D01*
X338923Y266871D01*
X339148Y266846D01*
X339385Y266821D01*
X339885Y266796D01*
X344534D01*
X339985D01*
X340098Y266808D01*
X340248Y266821D01*
X340435Y266833D01*
X340660Y266858D01*
X340898Y266908D01*
X341160Y266958D01*
X341423Y267020D01*
X341710Y267108D01*
X341997Y267220D01*
X342285Y267333D01*
X342560Y267483D01*
X342835Y267658D01*
X343097Y267858D01*
X343335Y268083D01*
X343347Y268095D01*
X343385Y268145D01*
X343447Y268220D01*
X343522Y268320D01*
X343609Y268458D01*
X343709Y268620D01*
X343822Y268820D01*
X343934Y269045D01*
X344047Y269295D01*
X344159Y269582D01*
X344259Y269882D01*
X344347Y270232D01*
X344422Y270595D01*
X344484Y270994D01*
X344522Y271419D01*
X344534Y271882D01*
Y280704D01*
D02*
G37*
G36*
X321678Y281079D02*
X313680D01*
Y262072D01*
Y268533D01*
X313692Y268408D01*
Y268245D01*
X313705Y268045D01*
X313730Y267833D01*
X313742Y267608D01*
X313780Y267358D01*
X313817Y267108D01*
X313917Y266571D01*
X314042Y266033D01*
X314130Y265771D01*
X314229Y265521D01*
Y265508D01*
X314254Y265458D01*
X314279Y265396D01*
X314329Y265308D01*
X314379Y265196D01*
X314454Y265071D01*
X314529Y264934D01*
X314617Y264784D01*
X314829Y264459D01*
X315092Y264109D01*
X315392Y263784D01*
X315567Y263634D01*
X315742Y263484D01*
X315754Y263471D01*
X315791Y263446D01*
X315842Y263409D01*
X315917Y263359D01*
X316004Y263309D01*
X316129Y263234D01*
X316254Y263159D01*
X316404Y263071D01*
X316566Y262984D01*
X316741Y262897D01*
X316941Y262809D01*
X317154Y262722D01*
X317366Y262634D01*
X317604Y262547D01*
X318104Y262409D01*
X318116D01*
X318166Y262397D01*
X318241Y262384D01*
X318341Y262359D01*
X318478Y262334D01*
X318628Y262297D01*
X318803Y262272D01*
X319003Y262247D01*
X319228Y262209D01*
X319466Y262184D01*
X319728Y262147D01*
X319991Y262122D01*
X320278Y262109D01*
X320578Y262084D01*
X321215Y262072D01*
X313680D01*
X321590D01*
X321727Y262084D01*
X321903D01*
X322090Y262097D01*
X322290Y262109D01*
X322515D01*
X322977Y262147D01*
X323477Y262184D01*
X323989Y262247D01*
X324002D01*
X324052Y262259D01*
X324127D01*
X324214Y262284D01*
X324339Y262297D01*
X324477Y262309D01*
X324627Y262334D01*
X324789Y262359D01*
X325164Y262422D01*
X325564Y262497D01*
X325964Y262572D01*
X326351Y262659D01*
Y266046D01*
X325814D01*
X325789Y266033D01*
X325751Y266021D01*
X325689Y265996D01*
X325614Y265971D01*
X325514Y265933D01*
X325414Y265896D01*
X325289Y265858D01*
X325152Y265808D01*
X325014Y265771D01*
X324677Y265671D01*
X324314Y265571D01*
X323902Y265471D01*
X323890D01*
X323852Y265458D01*
X323789Y265446D01*
X323702Y265433D01*
X323602Y265408D01*
X323490Y265383D01*
X323365Y265358D01*
X323215Y265346D01*
X322890Y265296D01*
X322552Y265246D01*
X322202Y265221D01*
X321852Y265208D01*
X321652D01*
X321553Y265221D01*
X321428D01*
X321290Y265233D01*
X321153D01*
X320840Y265259D01*
X320515Y265308D01*
X320190Y265358D01*
X319890Y265433D01*
X319878D01*
X319853Y265446D01*
X319816Y265458D01*
X319765Y265471D01*
X319628Y265521D01*
X319466Y265596D01*
X319278Y265683D01*
X319091Y265796D01*
X318903Y265921D01*
X318741Y266071D01*
X318728Y266083D01*
X318678Y266146D01*
X318616Y266221D01*
X318528Y266346D01*
X318441Y266483D01*
X318353Y266646D01*
X318278Y266846D01*
X318203Y267058D01*
Y267071D01*
X318191Y267083D01*
Y267120D01*
X318178Y267158D01*
X318153Y267283D01*
X318116Y267458D01*
X318078Y267670D01*
X318053Y267908D01*
X318041Y268183D01*
X318029Y268483D01*
Y268733D01*
X318041Y268720D01*
X318066Y268708D01*
X318104Y268670D01*
X318166Y268633D01*
X318241Y268570D01*
X318328Y268508D01*
X318428Y268445D01*
X318541Y268370D01*
X318803Y268208D01*
X319091Y268033D01*
X319416Y267870D01*
X319765Y267720D01*
X319778D01*
X319803Y267708D01*
X319865Y267683D01*
X319928Y267670D01*
X320015Y267633D01*
X320128Y267608D01*
X320253Y267570D01*
X320390Y267545D01*
X320540Y267508D01*
X320703Y267470D01*
X321065Y267420D01*
X321465Y267370D01*
X321890Y267358D01*
X322015D01*
X322077Y267370D01*
X322165D01*
X322352Y267383D01*
X322590Y267408D01*
X322865Y267445D01*
X323177Y267508D01*
X323502Y267570D01*
X323852Y267658D01*
X324202Y267770D01*
X324564Y267920D01*
X324927Y268083D01*
X325289Y268283D01*
X325639Y268508D01*
X325964Y268770D01*
X326264Y269070D01*
X326276Y269095D01*
X326326Y269145D01*
X326401Y269257D01*
X326501Y269395D01*
X326614Y269570D01*
X326751Y269795D01*
X326889Y270057D01*
X327026Y270357D01*
X327176Y270707D01*
X327314Y271094D01*
X327439Y271519D01*
X327564Y271982D01*
X327663Y272494D01*
X327738Y273044D01*
X327789Y273631D01*
X327801Y274269D01*
Y274431D01*
X327789Y274544D01*
Y274694D01*
X327776Y274869D01*
X327763Y275056D01*
X327738Y275256D01*
X327714Y275481D01*
X327688Y275706D01*
X327601Y276193D01*
X327489Y276681D01*
X327339Y277155D01*
Y277168D01*
X327314Y277205D01*
X327289Y277280D01*
X327251Y277355D01*
X327201Y277468D01*
X327139Y277593D01*
X327076Y277730D01*
X326989Y277880D01*
X326801Y278218D01*
X326576Y278580D01*
X326314Y278943D01*
X326014Y279292D01*
X326001Y279305D01*
X325976Y279330D01*
X325927Y279367D01*
X325877Y279430D01*
X325789Y279505D01*
X325701Y279580D01*
X325589Y279667D01*
X325464Y279767D01*
X325339Y279880D01*
X325189Y279980D01*
X324852Y280205D01*
X324477Y280417D01*
X324064Y280604D01*
X324052D01*
X324014Y280630D01*
X323952Y280655D01*
X323865Y280679D01*
X323752Y280717D01*
X323627Y280755D01*
X323490Y280792D01*
X323327Y280842D01*
X323152Y280892D01*
X322965Y280930D01*
X322565Y281004D01*
X322127Y281054D01*
X321678Y281079D01*
D02*
G37*
%LPD*%
G36*
X355069Y277780D02*
X355231Y277768D01*
X355419Y277743D01*
X355631Y277718D01*
X355869Y277668D01*
X356106Y277605D01*
X356119D01*
X356131Y277593D01*
X356169Y277580D01*
X356219Y277568D01*
X356344Y277530D01*
X356494Y277468D01*
X356681Y277393D01*
X356894Y277305D01*
X357106Y277193D01*
X357331Y277068D01*
Y270282D01*
X357306Y270270D01*
X357256Y270257D01*
X357168Y270220D01*
X357043Y270182D01*
X356918Y270145D01*
X356769Y270107D01*
X356456Y270045D01*
X356431D01*
X356381Y270032D01*
X356294D01*
X356169Y270020D01*
X356019Y270007D01*
X355844D01*
X355656Y269995D01*
X355369D01*
X355281Y270007D01*
X355157D01*
X355019Y270020D01*
X354856Y270045D01*
X354669Y270082D01*
X354482Y270120D01*
X354269Y270170D01*
X354057Y270245D01*
X353844Y270320D01*
X353632Y270420D01*
X353432Y270532D01*
X353232Y270670D01*
X353045Y270820D01*
X352882Y270994D01*
X352870Y271007D01*
X352845Y271045D01*
X352807Y271107D01*
X352745Y271182D01*
X352682Y271294D01*
X352607Y271419D01*
X352532Y271582D01*
X352457Y271757D01*
X352382Y271957D01*
X352295Y272182D01*
X352232Y272432D01*
X352170Y272707D01*
X352107Y272994D01*
X352070Y273319D01*
X352045Y273669D01*
X352032Y274031D01*
Y274056D01*
Y274106D01*
Y274206D01*
X352045Y274331D01*
Y274481D01*
X352070Y274656D01*
X352082Y274856D01*
X352107Y275056D01*
X352182Y275506D01*
X352295Y275968D01*
X352370Y276193D01*
X352445Y276418D01*
X352545Y276631D01*
X352657Y276818D01*
X352670Y276831D01*
X352682Y276856D01*
X352720Y276905D01*
X352782Y276968D01*
X352845Y277043D01*
X352932Y277131D01*
X353032Y277218D01*
X353157Y277305D01*
X353294Y277393D01*
X353457Y277480D01*
X353644Y277568D01*
X353832Y277643D01*
X354057Y277705D01*
X354294Y277755D01*
X354557Y277780D01*
X354844Y277793D01*
X354944D01*
X355069Y277780D01*
D02*
G37*
G36*
X393697Y270532D02*
X392122D01*
X391972Y270545D01*
X391797D01*
X391610Y270557D01*
X391222Y270570D01*
X390810Y270595D01*
X390622Y270607D01*
X390435Y270632D01*
X390260Y270657D01*
X390110Y270682D01*
X390098D01*
X390073Y270695D01*
X390035D01*
X389972Y270707D01*
X389910Y270732D01*
X389823Y270745D01*
X389635Y270807D01*
X389398Y270882D01*
X389148Y270970D01*
X388873Y271082D01*
X388598Y271220D01*
X388585Y271232D01*
X388548Y271257D01*
X388473Y271294D01*
X388386Y271357D01*
X388285Y271419D01*
X388173Y271507D01*
X388036Y271619D01*
X387898Y271732D01*
X387748Y271869D01*
X387586Y272007D01*
X387436Y272169D01*
X387286Y272344D01*
X387136Y272532D01*
X386998Y272732D01*
X386861Y272931D01*
X386748Y273157D01*
X386736Y273169D01*
X386723Y273207D01*
X386698Y273281D01*
X386648Y273369D01*
X386611Y273494D01*
X386561Y273631D01*
X386498Y273794D01*
X386449Y273981D01*
X386386Y274194D01*
X386336Y274419D01*
X386286Y274669D01*
X386236Y274931D01*
X386199Y275218D01*
X386174Y275518D01*
X386161Y275831D01*
X386148Y276156D01*
Y276181D01*
Y276231D01*
Y276331D01*
X386161Y276456D01*
X386174Y276606D01*
X386186Y276780D01*
X386199Y276980D01*
X386223Y277205D01*
X386261Y277430D01*
X386311Y277680D01*
X386423Y278180D01*
X386498Y278443D01*
X386586Y278693D01*
X386686Y278943D01*
X386798Y279180D01*
X386811Y279192D01*
X386823Y279230D01*
X386873Y279305D01*
X386923Y279392D01*
X386986Y279492D01*
X387073Y279617D01*
X387173Y279755D01*
X387298Y279905D01*
X387436Y280055D01*
X387586Y280217D01*
X387748Y280380D01*
X387936Y280542D01*
X388135Y280704D01*
X388360Y280867D01*
X388598Y281017D01*
X388848Y281154D01*
X388860D01*
X388885Y281167D01*
X388923Y281192D01*
X388973Y281217D01*
X389035Y281242D01*
X389110Y281267D01*
X389298Y281342D01*
X389510Y281429D01*
X389760Y281504D01*
X390023Y281579D01*
X390298Y281629D01*
X390310D01*
X390335Y281642D01*
X390372D01*
X390435Y281654D01*
X390510Y281667D01*
X390610Y281679D01*
X390722Y281692D01*
X390847Y281704D01*
X390997Y281717D01*
X391172Y281729D01*
X391347D01*
X391547Y281742D01*
X391772Y281754D01*
X392010Y281767D01*
X393697D01*
Y270532D01*
D02*
G37*
G36*
X371940Y278405D02*
X372040Y278393D01*
X372165Y278380D01*
X372302Y278368D01*
X372452Y278330D01*
X372777Y278255D01*
X373127Y278143D01*
X373302Y278068D01*
X373464Y277980D01*
X373627Y277868D01*
X373789Y277755D01*
X373802Y277743D01*
X373827Y277730D01*
X373864Y277680D01*
X373914Y277630D01*
X373977Y277555D01*
X374052Y277480D01*
X374127Y277368D01*
X374202Y277255D01*
X374289Y277118D01*
X374364Y276968D01*
X374439Y276793D01*
X374514Y276606D01*
X374576Y276406D01*
X374627Y276181D01*
X374664Y275943D01*
X374689Y275681D01*
X369053D01*
Y275693D01*
Y275743D01*
X369065Y275806D01*
Y275906D01*
X369078Y276018D01*
X369103Y276143D01*
X369128Y276293D01*
X369153Y276443D01*
X369240Y276780D01*
X369353Y277118D01*
X369440Y277280D01*
X369528Y277443D01*
X369628Y277593D01*
X369740Y277730D01*
X369753Y277743D01*
X369765Y277755D01*
X369803Y277793D01*
X369865Y277843D01*
X369928Y277893D01*
X370015Y277943D01*
X370115Y278005D01*
X370228Y278080D01*
X370353Y278143D01*
X370503Y278205D01*
X370665Y278255D01*
X370852Y278305D01*
X371040Y278355D01*
X371252Y278393D01*
X371477Y278405D01*
X371727Y278418D01*
X371852D01*
X371940Y278405D01*
D02*
G37*
G36*
X321403Y281067D02*
X321290D01*
X321165Y281054D01*
X321015Y281042D01*
X320715Y281017D01*
X320378Y280967D01*
X320028Y280905D01*
X319690Y280817D01*
X319678D01*
X319653Y280805D01*
X319603Y280792D01*
X319541Y280767D01*
X319453Y280742D01*
X319366Y280704D01*
X319153Y280630D01*
X318891Y280530D01*
X318616Y280405D01*
X318341Y280255D01*
X318053Y280092D01*
X317903Y280704D01*
X313680D01*
Y281079D01*
X321490D01*
X321403Y281067D01*
D02*
G37*
G36*
X320190Y277893D02*
X320340Y277880D01*
X320503Y277855D01*
X320678Y277818D01*
X320878Y277780D01*
X321078Y277730D01*
X321290Y277668D01*
X321503Y277580D01*
X321715Y277493D01*
X321927Y277380D01*
X322127Y277243D01*
X322302Y277093D01*
X322477Y276918D01*
X322490Y276905D01*
X322515Y276868D01*
X322552Y276818D01*
X322615Y276730D01*
X322677Y276631D01*
X322740Y276518D01*
X322827Y276368D01*
X322902Y276206D01*
X322977Y276018D01*
X323052Y275818D01*
X323127Y275593D01*
X323190Y275343D01*
X323252Y275081D01*
X323290Y274793D01*
X323315Y274494D01*
X323327Y274169D01*
Y274144D01*
Y274081D01*
Y273981D01*
X323315Y273856D01*
X323302Y273694D01*
X323290Y273506D01*
X323265Y273306D01*
X323240Y273094D01*
X323152Y272644D01*
X323090Y272419D01*
X323015Y272194D01*
X322940Y271982D01*
X322840Y271782D01*
X322727Y271607D01*
X322602Y271444D01*
X322590Y271432D01*
X322565Y271407D01*
X322527Y271369D01*
X322465Y271332D01*
X322390Y271269D01*
X322302Y271207D01*
X322190Y271132D01*
X322065Y271070D01*
X321915Y270994D01*
X321753Y270919D01*
X321578Y270857D01*
X321390Y270807D01*
X321178Y270757D01*
X320953Y270720D01*
X320715Y270695D01*
X320453Y270682D01*
X320340D01*
X320215Y270695D01*
X320053Y270707D01*
X319853Y270732D01*
X319641Y270770D01*
X319416Y270819D01*
X319178Y270882D01*
X319166D01*
X319153Y270895D01*
X319116Y270907D01*
X319066Y270919D01*
X318953Y270970D01*
X318803Y271019D01*
X318628Y271107D01*
X318428Y271194D01*
X318228Y271294D01*
X318029Y271419D01*
Y277555D01*
X318041Y277568D01*
X318091Y277580D01*
X318178Y277618D01*
X318278Y277643D01*
X318416Y277693D01*
X318578Y277730D01*
X318753Y277768D01*
X318953Y277805D01*
X318978D01*
X319041Y277818D01*
X319141Y277843D01*
X319278Y277855D01*
X319428Y277880D01*
X319591Y277893D01*
X319916Y277905D01*
X320078D01*
X320190Y277893D01*
D02*
G37*
D10*
X254828Y164111D02*
G03*
X254828Y164111I-500J0D01*
G01*
X352025Y172300D02*
G03*
X352025Y172300I-500J0D01*
G01*
D11*
X291828Y149500D02*
G03*
X291828Y149500I-500J0D01*
G01*
D12*
X323500Y71330D02*
G03*
X323500Y71330I-1250J0D01*
G01*
X243870Y209500D02*
G03*
X243870Y209500I-1250J0D01*
G01*
X261100Y71500D02*
G03*
X261100Y71500I-1250J0D01*
G01*
D14*
X389650Y164100D02*
G03*
X389650Y164100I-500J0D01*
G01*
X307750Y76080D02*
X323750D01*
X307750Y107580D02*
X323750D01*
X165750Y98250D02*
Y113250D01*
X228120Y214250D02*
X244120D01*
X228120Y245750D02*
X244120D01*
X245350Y76250D02*
X261350D01*
X245350Y107750D02*
X261350D01*
X207000Y69997D02*
Y63332D01*
X203668Y60000D01*
X200336Y63332D01*
Y69997D01*
X190339Y60000D02*
X197003D01*
X190339Y66665D01*
Y68331D01*
X192005Y69997D01*
X195337D01*
X197003Y68331D01*
X187006Y60000D02*
Y61666D01*
X185340D01*
Y60000D01*
X187006D01*
X178676D02*
Y69997D01*
X173677D01*
X172011Y68331D01*
Y64998D01*
X173677Y63332D01*
X178676D01*
X175343D02*
X172011Y60000D01*
X168679D02*
X165347D01*
X167013D01*
Y69997D01*
X168679Y68331D01*
D15*
X186750Y133750D02*
G03*
X186750Y133750I-500J0D01*
G01*
X184250Y199000D02*
G03*
X184250Y199000I-500J0D01*
G01*
X176250Y96750D02*
X205250D01*
X176250Y114750D02*
X205250D01*
X333650Y146050D02*
Y157050D01*
X358150Y146050D02*
Y157050D01*
X333650Y146050D02*
X358150D01*
X333650Y157050D02*
X358150D01*
X324650Y157800D02*
X333150D01*
X324650Y140800D02*
X333150D01*
X324650D02*
Y157800D01*
X333150Y140800D02*
Y157800D01*
X337900Y198800D02*
X354900D01*
Y190800D02*
Y198800D01*
X337900Y190800D02*
Y198800D01*
Y190800D02*
X354900D01*
X354900Y177300D02*
X363400D01*
X354900Y194300D02*
X363400D01*
Y177300D02*
Y194300D01*
X354900Y177300D02*
Y194300D01*
X354400Y177300D02*
Y188300D01*
X329900Y177300D02*
Y188300D01*
X354400D01*
X329900Y177300D02*
X354400D01*
D16*
X294620Y92230D02*
X303120D01*
X294620Y109230D02*
X303120D01*
Y92230D02*
Y109230D01*
X294620Y92230D02*
Y109230D01*
X203650Y116500D02*
X220650D01*
X203650Y125000D02*
X220650D01*
X203650Y116500D02*
Y125000D01*
X220650Y116500D02*
Y125000D01*
X203400Y176750D02*
X220400D01*
X203400Y185250D02*
X220400D01*
X203400Y176750D02*
Y185250D01*
X220400Y176750D02*
Y185250D01*
X174750Y188500D02*
X183500D01*
X174750Y205000D02*
X183500D01*
Y188500D02*
Y205000D01*
X174750Y188500D02*
Y205000D01*
X203400Y136750D02*
X220400D01*
X203400Y145250D02*
X220400D01*
X203400Y136750D02*
Y145250D01*
X220400Y136750D02*
Y145250D01*
X203400Y196750D02*
X220400D01*
X203400Y205250D02*
X220400D01*
X203400Y196750D02*
Y205250D01*
X220400Y196750D02*
Y205250D01*
X177500Y116500D02*
X186250D01*
X177500Y133000D02*
X186250D01*
Y116500D02*
Y133000D01*
X177500Y116500D02*
Y133000D01*
X215000Y229330D02*
Y246330D01*
X223500Y229330D02*
Y246330D01*
X215000D02*
X223500D01*
X215000Y229330D02*
X223500D01*
Y212080D02*
Y229080D01*
X215000Y212080D02*
Y229080D01*
Y212080D02*
X223500D01*
X215000Y229080D02*
X223500D01*
X248650Y242080D02*
X265650D01*
X248650Y233580D02*
X265650D01*
Y242080D01*
X248650Y233580D02*
Y242080D01*
X248500Y228080D02*
X265500D01*
X248500Y219580D02*
X265500D01*
Y228080D01*
X248500Y219580D02*
Y228080D01*
X237828Y145000D02*
Y153750D01*
X254328Y145000D02*
Y153750D01*
X237828Y145000D02*
X254328D01*
X237828Y153750D02*
X254328D01*
X296578Y129250D02*
Y138000D01*
X313078Y129250D02*
Y138000D01*
X296578Y129250D02*
X313078D01*
X296578Y138000D02*
X313078D01*
X254328Y110250D02*
Y119000D01*
X237828Y110250D02*
Y119000D01*
X254328D01*
X237828Y110250D02*
X254328D01*
X237078Y144750D02*
X245828D01*
X237078Y128250D02*
X245828D01*
X237078D02*
Y144750D01*
X245828Y128250D02*
Y144750D01*
X251828Y181350D02*
Y198350D01*
X243328Y181350D02*
Y198350D01*
Y181350D02*
X251828D01*
X243328Y198350D02*
X251828D01*
X278328Y181100D02*
Y198100D01*
X286828Y181100D02*
Y198100D01*
X278328D02*
X286828D01*
X278328Y181100D02*
X286828D01*
X289828Y157500D02*
Y166250D01*
X273328Y157500D02*
Y166250D01*
X289828D01*
X273328Y157500D02*
X289828D01*
X288578Y181250D02*
X313078D01*
X288578Y192250D02*
X313078D01*
X288578Y181250D02*
Y192250D01*
X313078Y181250D02*
Y192250D01*
X260828Y197750D02*
X269578D01*
X260828Y181250D02*
X269578D01*
X260828D02*
Y197750D01*
X269578Y181250D02*
Y197750D01*
X296328Y153750D02*
Y162500D01*
X312828Y153750D02*
Y162500D01*
X296328Y153750D02*
X312828D01*
X296328Y162500D02*
X312828D01*
X312828Y171500D02*
Y180250D01*
X296328Y171500D02*
Y180250D01*
X312828D01*
X296328Y171500D02*
X312828D01*
X252078Y197750D02*
X260828D01*
X252078Y181250D02*
X260828D01*
X252078D02*
Y197750D01*
X260828Y181250D02*
Y197750D01*
X287578Y192500D02*
Y217000D01*
X298578Y192500D02*
Y217000D01*
X287578D02*
X298578D01*
X287578Y192500D02*
X298578D01*
X256578Y157500D02*
Y166250D01*
X273078Y157500D02*
Y166250D01*
X256578Y157500D02*
X273078D01*
X256578Y166250D02*
X273078D01*
X312828Y162500D02*
Y171250D01*
X296328Y162500D02*
Y171250D01*
X312828D01*
X296328Y162500D02*
X312828D01*
X288078Y116750D02*
Y157250D01*
X254578Y116750D02*
Y157250D01*
X288078D01*
X254578Y116750D02*
X288078D01*
X237828Y119250D02*
Y128000D01*
X254328Y119250D02*
Y128000D01*
X237828Y119250D02*
X254328D01*
X237828Y128000D02*
X254328D01*
X234328Y181500D02*
X243078D01*
X234328Y198000D02*
X243078D01*
Y181500D02*
Y198000D01*
X234328Y181500D02*
Y198000D01*
X299828Y192250D02*
Y209250D01*
X308328Y192250D02*
Y209250D01*
X299828D02*
X308328D01*
X299828Y192250D02*
X308328D01*
X269578Y181150D02*
Y198150D01*
X278078Y181150D02*
Y198150D01*
X269578D02*
X278078D01*
X269578Y181150D02*
X278078D01*
X245828Y128000D02*
Y145000D01*
X254328Y128000D02*
Y145000D01*
X245828D02*
X254328D01*
X245828Y128000D02*
X254328D01*
X296578Y120611D02*
X313578D01*
X296578Y129111D02*
X313578D01*
X296578Y120611D02*
Y129111D01*
X313578Y120611D02*
Y129111D01*
X237328Y162111D02*
X254328D01*
X237328Y153611D02*
X254328D01*
Y162111D01*
X237328Y153611D02*
Y162111D01*
X236828Y164861D02*
X252829D01*
X236828Y176861D02*
X252829D01*
Y164861D02*
Y176861D01*
X236828Y164861D02*
Y176861D01*
X303120Y75480D02*
Y92480D01*
X294620Y75480D02*
Y92480D01*
Y75480D02*
X303120D01*
X294620Y92480D02*
X303120D01*
X329120Y89830D02*
X346120D01*
X329120Y81330D02*
X346120D01*
Y89830D01*
X329120Y81330D02*
Y89830D01*
X328620Y104330D02*
X345620D01*
X328620Y95830D02*
X345620D01*
Y104330D01*
X328620Y95830D02*
Y104330D01*
X371750Y177350D02*
Y194350D01*
X363250Y177350D02*
Y194350D01*
Y177350D02*
X371750D01*
X363250Y194350D02*
X371750D01*
X391250Y177750D02*
X400000D01*
X391250Y161250D02*
X400000D01*
X391250D02*
Y177750D01*
X400000Y161250D02*
Y177750D01*
X366750Y151000D02*
X391250D01*
X366750Y162000D02*
X391250D01*
X366750Y151000D02*
Y162000D01*
X391250Y151000D02*
Y162000D01*
X333525Y158300D02*
X349525D01*
X333525Y176300D02*
X349525D01*
X333525Y158300D02*
Y176300D01*
X349525Y158300D02*
Y176300D01*
X240730Y75350D02*
Y92350D01*
X232230Y75350D02*
Y92350D01*
Y75350D02*
X240730D01*
X232230Y92350D02*
X240730D01*
X265980Y89750D02*
X282980D01*
X265980Y81250D02*
X282980D01*
Y89750D01*
X265980Y81250D02*
Y89750D01*
Y103750D02*
X282980D01*
X265980Y95250D02*
X282980D01*
Y103750D01*
X265980Y95250D02*
Y103750D01*
X232230Y92400D02*
Y109400D01*
X240730Y92400D02*
Y109400D01*
X232230D02*
X240730D01*
X232230Y92400D02*
X240730D01*
D45*
X168500Y200000D02*
X171832D01*
X170166D01*
Y190003D01*
X168500Y191669D01*
D77*
X196100Y177275D02*
Y180700D01*
X168600Y137000D02*
X197600D01*
Y139800D01*
X196100Y141300D02*
Y144725D01*
X197600Y182200D02*
Y185000D01*
X168600D02*
X197600D01*
M02*
