G04*
G04 #@! TF.GenerationSoftware,Altium Limited,Altium Designer,26.7.1 (11)*
G04*
G04 Layer_Color=16711935*
G04 Board_Origin=29229129|20585428*
%FSLAX44Y44*%
%MOMM*%
G71*
G04*
G04 #@! TF.SameCoordinates,31E62F62-3817-4462-BAAA-4DC708AA23D2*
G04*
G04*
G04 #@! TF.FilePolarity,Negative*
G04*
G01*
G75*
%ADD35R,0.9000X0.7000*%
%ADD36R,0.4200X0.6200*%
G04:AMPARAMS|DCode=39|XSize=1.25mm|YSize=0.7mm|CornerRadius=0.35mm|HoleSize=0mm|Usage=FLASHONLY|Rotation=90.000|XOffset=0mm|YOffset=0mm|HoleType=Round|Shape=RoundedRectangle|*
%AMROUNDEDRECTD39*
21,1,1.2500,0.0000,0,0,90.0*
21,1,0.5500,0.7000,0,0,90.0*
1,1,0.7000,0.0000,0.2750*
1,1,0.7000,0.0000,-0.2750*
1,1,0.7000,0.0000,-0.2750*
1,1,0.7000,0.0000,0.2750*
%
%ADD39ROUNDEDRECTD39*%
G04:AMPARAMS|DCode=40|XSize=0.6mm|YSize=1.9mm|CornerRadius=0.3mm|HoleSize=0mm|Usage=FLASHONLY|Rotation=90.000|XOffset=0mm|YOffset=0mm|HoleType=Round|Shape=RoundedRectangle|*
%AMROUNDEDRECTD40*
21,1,0.6000,1.3000,0,0,90.0*
21,1,0.0000,1.9000,0,0,90.0*
1,1,0.6000,0.6500,0.0000*
1,1,0.6000,0.6500,0.0000*
1,1,0.6000,-0.6500,0.0000*
1,1,0.6000,-0.6500,0.0000*
%
%ADD40ROUNDEDRECTD40*%
G04:AMPARAMS|DCode=41|XSize=1.3mm|YSize=2.6mm|CornerRadius=0.65mm|HoleSize=0mm|Usage=FLASHONLY|Rotation=90.000|XOffset=0mm|YOffset=0mm|HoleType=Round|Shape=RoundedRectangle|*
%AMROUNDEDRECTD41*
21,1,1.3000,1.3000,0,0,90.0*
21,1,0.0000,2.6000,0,0,90.0*
1,1,1.3000,0.6500,0.0000*
1,1,1.3000,0.6500,0.0000*
1,1,1.3000,-0.6500,0.0000*
1,1,1.3000,-0.6500,0.0000*
%
%ADD41ROUNDEDRECTD41*%
G04:AMPARAMS|DCode=42|XSize=0.85mm|YSize=0.5mm|CornerRadius=0.25mm|HoleSize=0mm|Usage=FLASHONLY|Rotation=90.000|XOffset=0mm|YOffset=0mm|HoleType=Round|Shape=RoundedRectangle|*
%AMROUNDEDRECTD42*
21,1,0.8500,0.0000,0,0,90.0*
21,1,0.3500,0.5000,0,0,90.0*
1,1,0.5000,0.0000,0.1750*
1,1,0.5000,0.0000,-0.1750*
1,1,0.5000,0.0000,-0.1750*
1,1,0.5000,0.0000,0.1750*
%
%ADD42ROUNDEDRECTD42*%
%ADD43C,0.6000*%
%ADD49R,0.3000X0.4500*%
%ADD50R,0.6250X0.9000*%
%ADD59C,0.2500*%
%ADD60C,0.2600*%
%ADD62R,0.8000X1.8000*%
%ADD64R,0.5700X0.4200*%
%ADD65R,0.4200X0.5700*%
%ADD66C,0.1700*%
%ADD67R,0.6800X0.4800*%
%ADD68R,1.2700X1.2400*%
%ADD69R,0.5600X0.2400*%
%ADD70R,0.5500X0.2400*%
%ADD71R,0.7000X0.9000*%
%ADD72R,0.6000X0.4000*%
%ADD73R,0.6200X0.4200*%
%ADD74R,1.2200X1.4200*%
%ADD75R,0.5200X0.5200*%
G36*
X347143Y217750D02*
X347923Y217647D01*
X348683Y217444D01*
X349409Y217143D01*
X350091Y216749D01*
X350714Y216271D01*
X351271Y215715D01*
X351749Y215091D01*
X352143Y214409D01*
X352444Y213683D01*
X352647Y212923D01*
X352750Y212143D01*
Y211750D01*
X352750Y205550D01*
X352750D01*
X352649Y205096D01*
X352296Y204234D01*
X351803Y203444D01*
X351185Y202748D01*
X350458Y202165D01*
X349644Y201714D01*
X348766Y201405D01*
X347848Y201248D01*
X347383Y201248D01*
X347366D01*
X347333Y201249D01*
X347300Y201249D01*
X347267Y201250D01*
X347250Y201250D01*
X346766Y201242D01*
X345810Y201395D01*
X344895Y201713D01*
X344050Y202186D01*
X343301Y202799D01*
X342670Y203534D01*
X342178Y204367D01*
X341838Y205274D01*
X341750Y205750D01*
X335750D01*
X335750Y205750D01*
X335278D01*
X334345Y205898D01*
X333447Y206190D01*
X332605Y206618D01*
X331841Y207174D01*
X331174Y207841D01*
X330618Y208605D01*
X330190Y209447D01*
X329898Y210345D01*
X329750Y211278D01*
X329750Y212222D01*
X329898Y213155D01*
X330190Y214053D01*
X330618Y214895D01*
X331174Y215659D01*
X331841Y216327D01*
X332605Y216882D01*
X333447Y217310D01*
X334345Y217602D01*
X335278Y217750D01*
X335750Y217750D01*
X346750Y217750D01*
X347143Y217750D01*
D02*
G37*
G36*
X347250Y135850D02*
X347267Y135850D01*
X347300Y135851D01*
X347333Y135851D01*
X347366Y135852D01*
X347383Y135851D01*
X347848Y135852D01*
X348766Y135695D01*
X349644Y135386D01*
X350458Y134935D01*
X351185Y134352D01*
X351803Y133656D01*
X352296Y132866D01*
X352649Y132004D01*
X352750Y131550D01*
X352750Y125350D01*
X352750D01*
X352750Y124957D01*
X352647Y124177D01*
X352444Y123417D01*
X352143Y122691D01*
X351749Y122009D01*
X351271Y121385D01*
X350714Y120829D01*
X350091Y120351D01*
X349409Y119957D01*
X348683Y119656D01*
X347923Y119453D01*
X347143Y119350D01*
X346750Y119350D01*
X335750Y119350D01*
X335750Y119350D01*
X335357Y119350D01*
X334577Y119453D01*
X333817Y119656D01*
X333091Y119957D01*
X332409Y120351D01*
X331786Y120829D01*
X331229Y121385D01*
X330751Y122009D01*
X330357Y122691D01*
X330056Y123417D01*
X329853Y124177D01*
X329750Y124957D01*
X329750Y125350D01*
X329750Y125743D01*
X329853Y126523D01*
X330056Y127283D01*
X330357Y128009D01*
X330751Y128691D01*
X331229Y129314D01*
X331786Y129871D01*
X332409Y130350D01*
X333091Y130743D01*
X333817Y131044D01*
X334577Y131247D01*
X335357Y131350D01*
X335750D01*
X341750Y131350D01*
X341750Y131350D01*
X341838Y131826D01*
X342178Y132733D01*
X342670Y133566D01*
X343301Y134301D01*
X344050Y134914D01*
X344895Y135387D01*
X345810Y135705D01*
X346766Y135858D01*
X347250Y135850D01*
D02*
G37*
D35*
X293078Y212750D02*
D03*
Y196750D02*
D03*
D36*
X309578Y176000D02*
D03*
X286578Y162000D02*
D03*
X299828Y133500D02*
D03*
X241078Y149250D02*
D03*
X251078Y114750D02*
D03*
Y149250D02*
D03*
X309828Y133500D02*
D03*
X241078Y114750D02*
D03*
X276578Y162000D02*
D03*
X309578Y158000D02*
D03*
X299578D02*
D03*
X299578Y176000D02*
D03*
X269828Y161750D02*
D03*
X259828D02*
D03*
X309578Y167000D02*
D03*
X299578D02*
D03*
X251078Y123500D02*
D03*
X241078D02*
D03*
D39*
X347350Y208500D02*
D03*
D40*
X341250Y125350D02*
D03*
D41*
X391750D02*
D03*
Y211750D02*
D03*
D42*
X360600Y204550D02*
D03*
D43*
X361250Y132550D02*
D03*
D49*
X322250Y82080D02*
D03*
X315750D02*
D03*
X309250D02*
D03*
Y101580D02*
D03*
X315750D02*
D03*
X322250D02*
D03*
X242620Y220250D02*
D03*
X236120D02*
D03*
X229620D02*
D03*
Y239750D02*
D03*
X236120D02*
D03*
X242620D02*
D03*
X259850Y82250D02*
D03*
X253350D02*
D03*
X246850D02*
D03*
Y101750D02*
D03*
X253350D02*
D03*
X259850D02*
D03*
D50*
X320630Y91830D02*
D03*
X310870D02*
D03*
X241000Y230000D02*
D03*
X231240D02*
D03*
X258230Y92000D02*
D03*
X248470D02*
D03*
D59*
X376750Y168000D02*
D03*
X380750D02*
D03*
X384750Y172000D02*
D03*
Y168000D02*
D03*
X380750Y172000D02*
D03*
X376750D02*
D03*
D60*
X239828Y173361D02*
D03*
X244828Y168361D02*
D03*
Y173361D02*
D03*
X249828D02*
D03*
Y168361D02*
D03*
X239828D02*
D03*
D62*
X393750Y188750D02*
D03*
X377750D02*
D03*
D64*
X298870Y105830D02*
D03*
Y95630D02*
D03*
X304078Y195650D02*
D03*
X219250Y225680D02*
D03*
Y232730D02*
D03*
Y242930D02*
D03*
Y215480D02*
D03*
X282578Y194700D02*
D03*
X273828Y194750D02*
D03*
X247578Y184750D02*
D03*
Y194950D02*
D03*
X282578Y184500D02*
D03*
X304078Y205850D02*
D03*
X273828Y184550D02*
D03*
X250078Y141600D02*
D03*
Y131400D02*
D03*
X236480Y88950D02*
D03*
Y95800D02*
D03*
X298870Y89080D02*
D03*
Y78880D02*
D03*
X367500Y180750D02*
D03*
Y190950D02*
D03*
X328900Y154400D02*
D03*
Y144200D02*
D03*
X359150Y180700D02*
D03*
Y190900D02*
D03*
X236480Y78750D02*
D03*
Y106000D02*
D03*
D65*
X207050Y120750D02*
D03*
X217250D02*
D03*
X206800Y181000D02*
D03*
X217000D02*
D03*
X206800Y141000D02*
D03*
X217000D02*
D03*
X206800Y201000D02*
D03*
X217000D02*
D03*
X240728Y157861D02*
D03*
X262250Y237830D02*
D03*
X252050D02*
D03*
X262100Y223830D02*
D03*
X251900D02*
D03*
X299978Y124861D02*
D03*
X310178D02*
D03*
X250928Y157861D02*
D03*
X342720Y85580D02*
D03*
X332520D02*
D03*
X342220Y100080D02*
D03*
X332020D02*
D03*
X279580Y85500D02*
D03*
X269380D02*
D03*
X279580Y99500D02*
D03*
X269380D02*
D03*
D66*
X189250Y130750D02*
D03*
Y125750D02*
D03*
X194250Y130750D02*
D03*
X199250D02*
D03*
Y125750D02*
D03*
X186750Y196000D02*
D03*
Y191000D02*
D03*
X191750Y196000D02*
D03*
X196750D02*
D03*
Y191000D02*
D03*
D67*
X179250Y191750D02*
D03*
Y201750D02*
D03*
X182000Y119750D02*
D03*
Y129750D02*
D03*
X395500Y174500D02*
D03*
Y164500D02*
D03*
D68*
X176000Y105750D02*
D03*
X205500D02*
D03*
D69*
X170000Y146000D02*
D03*
Y152000D02*
D03*
Y158000D02*
D03*
Y164000D02*
D03*
Y170000D02*
D03*
Y176000D02*
D03*
Y142000D02*
D03*
Y180000D02*
D03*
D70*
X196200Y149000D02*
D03*
Y155000D02*
D03*
Y161000D02*
D03*
Y167000D02*
D03*
Y173000D02*
D03*
D71*
X292828Y186750D02*
D03*
X371000Y156500D02*
D03*
X334150Y182800D02*
D03*
X353900Y151550D02*
D03*
X308828Y186750D02*
D03*
X387000Y156500D02*
D03*
X337900Y151550D02*
D03*
X350150Y182800D02*
D03*
D72*
X337900Y167300D02*
D03*
Y162300D02*
D03*
Y172300D02*
D03*
X345150Y162300D02*
D03*
Y172300D02*
D03*
Y167300D02*
D03*
D73*
X238828Y184750D02*
D03*
X241328Y141500D02*
D03*
Y131500D02*
D03*
X265078Y194500D02*
D03*
Y184500D02*
D03*
X256328Y184500D02*
D03*
Y194500D02*
D03*
X238828Y194750D02*
D03*
D74*
X280577Y125501D02*
D03*
X262077Y148501D02*
D03*
X280577D02*
D03*
X262077Y125501D02*
D03*
D75*
X341900Y194800D02*
D03*
X350900D02*
D03*
M02*
