G04*
G04 #@! TF.GenerationSoftware,Altium Limited,Altium Designer,23.2.1 (34)*
G04*
G04 Layer_Color=8388736*
%FSLAX44Y44*%
%MOMM*%
G71*
G04*
G04 #@! TF.SameCoordinates,CC52EDE5-58F4-4033-9B0D-95DD7DFE7826*
G04*
G04*
G04 #@! TF.FilePolarity,Positive*
G04*
G01*
G75*
%ADD10C,0.1500*%
%ADD13C,0.1000*%
G36*
X257000Y269750D02*
X256403Y269750D01*
X255301Y270207D01*
X254457Y271051D01*
X254000Y272153D01*
X254000Y272750D01*
X254000Y272750D01*
X254000Y321750D01*
X254000Y322347D01*
X254457Y323449D01*
X255301Y324293D01*
X256403Y324750D01*
X257000Y324750D01*
X257000Y324750D01*
X301500Y324750D01*
X301500Y269750D01*
X257000Y269750D01*
X257000Y269750D02*
G37*
D10*
X263666Y261250D02*
X263000Y261916D01*
X263666Y261250D02*
X264999Y261250D01*
X265666Y261916D01*
X265666Y262583D01*
X264999Y263249D01*
X263666Y263249D01*
X263000Y263916D01*
X263000Y264582D01*
X263666Y265249D01*
X264999Y265249D01*
X265666Y264582D01*
X267665Y264582D02*
X267665Y263916D01*
X266999Y263916D01*
X268332Y263916D01*
X267665Y263916D01*
X267665Y261916D01*
X268332Y261250D01*
X270331Y261250D02*
X271664Y261250D01*
X270997Y261250D01*
X270997Y263916D01*
X270331Y263916D01*
X273663Y263249D02*
X274996Y263249D01*
X274330Y263249D01*
X273663Y263249D01*
X274330Y263249D02*
X274330Y264582D01*
X274330Y263249D01*
X274330Y264582D02*
X274996Y265249D01*
X274330Y264582D02*
X274330Y261250D01*
X277662Y261250D02*
X277662Y264582D01*
X277662Y263249D01*
X276995Y263249D01*
X278328Y263249D01*
X277662Y263249D01*
X277662Y264582D01*
X278328Y265249D01*
X280328Y263916D02*
X282327Y263916D01*
X282994Y263249D01*
X282994Y261250D01*
X284993Y261250D02*
X284326Y261916D01*
X284326Y263249D01*
X284993Y263916D01*
X286326Y263916D01*
X286992Y263249D01*
X286992Y262583D01*
X284326Y262583D01*
X284993Y261250D02*
X286326Y261250D01*
X288325Y261250D02*
X288325Y262583D01*
X288992Y263249D01*
X289658Y263916D01*
X290324Y263916D01*
X288325Y263916D02*
X288325Y261250D01*
X280328Y261250D02*
X280328Y263916D01*
D13*
X254000Y272750D02*
G03*
X257000Y269750I3000J0D01*
G01*
X301500Y269750D01*
X301500Y324750D01*
X257000Y324750D01*
X257000Y324750D02*
G03*
X254000Y321750I0J-3000D01*
G01*
X254000Y272750D01*
M02*
