G04*
G04 #@! TF.GenerationSoftware,Altium Limited,Altium Designer,23.2.1 (34)*
G04*
G04 Layer_Physical_Order=2*
G04 Layer_Color=36540*
%FSLAX44Y44*%
%MOMM*%
G71*
G04*
G04 #@! TF.SameCoordinates,CC52EDE5-58F4-4033-9B0D-95DD7DFE7826*
G04*
G04*
G04 #@! TF.FilePolarity,Positive*
G04*
G01*
G75*
%ADD14C,0.2000*%
%ADD17C,0.3500*%
D14*
X293500Y274500D02*
X307000Y274500D01*
X307500Y275000D02*
X646934Y275000D01*
X653566Y275000D02*
X676534Y275000D01*
X683967Y275000D02*
X706533Y275000D01*
X713967Y275000D02*
X740185Y275000D01*
X740315Y275000D02*
X766682Y275000D01*
X766682Y270000D02*
X752364Y270000D01*
X752500Y271000D02*
G03*
X746129Y268318I-3750J0D01*
G01*
X742588Y268318D01*
X742588Y268318D02*
G03*
X744000Y271250I-2338J2932D01*
G01*
X744000Y271250D02*
G03*
X737912Y268318I-3750J0D01*
G01*
X385964Y268318D01*
X385964Y268318D02*
G03*
X386500Y270250I-3214J1932D01*
G01*
X386500Y270250D02*
G03*
X379536Y268318I-3750J0D01*
G01*
X307500Y268318D01*
X307500Y326682D01*
X377896Y326682D01*
X377896Y326682D02*
G03*
X384500Y324250I2854J-2432D01*
G01*
X384500Y324250D02*
G03*
X383604Y326682I-3750J0D01*
G01*
X385896Y326682D01*
X385896Y326682D02*
G03*
X392500Y324250I2854J-2432D01*
G01*
X392500Y324250D02*
G03*
X391604Y326682I-3750J0D01*
G01*
X438129Y326682D01*
X438129Y326682D02*
G03*
X444500Y324000I2621J-2682D01*
G01*
X444500Y324000D02*
G03*
X443371Y326682I-3750J0D01*
G01*
X589489Y326682D01*
X589489Y326682D02*
G03*
X594750Y323250I1511J-3432D01*
G01*
X594750Y323250D02*
G03*
X592511Y326682I-3750J0D01*
G01*
X592511Y326682D02*
G03*
X589489Y326682I-1511J-3432D01*
G01*
X592511Y326682D02*
X766682Y326682D01*
X766682Y268318D01*
X751371Y268318D01*
X751371Y268318D02*
G03*
X752500Y271000I-2621J2682D01*
G01*
X745136Y270000D02*
X743785Y270000D01*
X736715Y270000D02*
X386492Y270000D01*
X424130Y289999D02*
X367345Y289999D01*
X364655Y289999D02*
X307500Y289999D01*
X307500Y294999D02*
X362563Y294999D01*
X369437Y294999D02*
X422683Y294999D01*
X429317Y294999D02*
X766682Y294999D01*
X766682Y289999D02*
X427870Y289999D01*
X429750Y293250D02*
G03*
X429750Y293250I-3750J0D01*
G01*
X437136Y324999D02*
X392424Y324999D01*
X377076Y324999D02*
X307500Y324999D01*
X307500Y326682D02*
X307500Y268318D01*
X307500Y270000D02*
X379008Y270000D01*
X369750Y293500D02*
G03*
X369750Y293500I-3750J0D01*
G01*
X374751Y309999D02*
X349095Y309999D01*
X348457Y309817D02*
G03*
X351500Y313500I-707J3683D01*
G01*
X351500Y313500D02*
G03*
X344043Y312933I-3750J0D01*
G01*
X344043Y312933D02*
G03*
X341006Y309033I707J-3683D01*
G01*
X341006Y309033D02*
G03*
X343500Y305500I-1256J-3533D01*
G01*
X343494Y305717D02*
G03*
X348500Y309250I1256J3533D01*
G01*
X341076Y309999D02*
X307500Y309999D01*
X307500Y314999D02*
X344313Y314999D01*
X351187Y314999D02*
X373827Y314999D01*
X380173Y314999D02*
X766682Y314999D01*
X766682Y319999D02*
X592870Y319999D01*
X589130Y319999D02*
X563045Y319999D01*
X564000Y322500D02*
G03*
X564000Y322500I-3750J0D01*
G01*
X563046Y324999D02*
X587683Y324999D01*
X594317Y324999D02*
X766682Y324999D01*
X766682Y309999D02*
X379249Y309999D01*
X380750Y313000D02*
G03*
X380750Y313000I-3750J0D01*
G01*
X343466Y304999D02*
X766682Y304999D01*
X766682Y299999D02*
X307500Y299999D01*
X307500Y284999D02*
X347402Y284999D01*
X350098Y284999D02*
X766682Y284999D01*
X766682Y279999D02*
X652122Y279999D01*
X648378Y279999D02*
X623864Y279999D01*
X616636Y279999D02*
X352187Y279999D01*
X352500Y281500D02*
G03*
X352500Y281500I-3750J0D01*
G01*
X345313Y279999D02*
X307500Y279999D01*
X336034Y304999D02*
X307500Y304999D01*
X307500Y319999D02*
X467563Y319999D01*
X474437Y319999D02*
X497078Y319999D01*
X497999Y324999D02*
X472348Y324999D01*
X469652Y324999D02*
X444364Y324999D01*
X474750Y321500D02*
G03*
X474750Y321500I-3750J0D01*
G01*
X504000Y322000D02*
G03*
X504000Y322000I-3750J0D01*
G01*
X503422Y319999D02*
X527701Y319999D01*
X532799Y319999D02*
X557455Y319999D01*
X557454Y324999D02*
X533251Y324999D01*
X527249Y324999D02*
X502501Y324999D01*
X534000Y322750D02*
G03*
X534000Y322750I-3750J0D01*
G01*
X624000Y279000D02*
G03*
X624000Y279000I-3750J0D01*
G01*
X654000Y276750D02*
G03*
X654000Y276750I-3750J0D01*
G01*
X684000Y275500D02*
G03*
X684000Y275500I-3750J0D01*
G01*
X714000Y274500D02*
G03*
X714000Y274500I-3750J0D01*
G01*
D17*
X293500Y274500D02*
D03*
X293750Y279750D02*
D03*
X293750Y284750D02*
D03*
X293750Y290000D02*
D03*
X294250Y295250D02*
D03*
X298250Y309750D02*
D03*
X294000Y314750D02*
D03*
X348750Y281500D02*
D03*
X366000Y293500D02*
D03*
X382750Y270250D02*
D03*
X426000Y293250D02*
D03*
X440750Y324000D02*
D03*
X471000Y321500D02*
D03*
X500250Y322000D02*
D03*
X530250Y322750D02*
D03*
X560250Y322500D02*
D03*
X591000Y323250D02*
D03*
X620250Y279000D02*
D03*
X650250Y276750D02*
D03*
X680250Y275500D02*
D03*
X710250Y274500D02*
D03*
X740250Y271250D02*
D03*
X748750Y271000D02*
D03*
X406000Y310750D02*
D03*
X388750Y324250D02*
D03*
X406250Y284000D02*
D03*
X377000Y313000D02*
D03*
X380750Y324250D02*
D03*
X358750Y323000D02*
D03*
X347750Y313500D02*
D03*
X344750Y309250D02*
D03*
X339750Y305500D02*
D03*
M02*
