G04*
G04 #@! TF.GenerationSoftware,Altium Limited,Altium Designer,23.2.1 (34)*
G04*
G04 Layer_Color=8421504*
%FSLAX44Y44*%
%MOMM*%
G71*
G04*
G04 #@! TF.SameCoordinates,D767BFFD-4904-4763-B037-12AEFBC8DA8D*
G04*
G04*
G04 #@! TF.FilePolarity,Positive*
G04*
G01*
G75*
%ADD11R,0.4000X0.6000*%
%ADD15R,0.6000X0.4000*%
%ADD16R,0.4000X0.5500*%
%ADD18C,0.2500*%
%ADD25R,0.5500X0.4000*%
%ADD26R,0.6000X0.4000*%
%ADD27R,0.4750X0.2500*%
%ADD28R,0.2500X0.4750*%
%ADD29R,0.2500X0.2500*%
%ADD30R,0.6000X0.8000*%
%ADD31O,1.7000X1.2000*%
%ADD32R,1.4000X0.8000*%
%ADD33R,0.8750X0.7750*%
%ADD35R,0.4500X0.4500*%
%ADD36R,0.5800X0.6400*%
%ADD37R,0.6400X0.5800*%
%ADD38R,0.8000X1.8000*%
G36*
X438775Y1214805D02*
X430025Y1214805D01*
X430025Y1219555D01*
X433025Y1222555D01*
X438775Y1222555D01*
X438775Y1214805D01*
X438775Y1214805D02*
G37*
D11*
X420150Y1060950D02*
D03*
X430150Y1060950D02*
D03*
X430150Y1069950D02*
D03*
X430150Y1078950D02*
D03*
X420150Y1078950D02*
D03*
X420150Y1069950D02*
D03*
X356150Y1190580D02*
D03*
X346150Y1190580D02*
D03*
X356150Y1231580D02*
D03*
X366150Y1231580D02*
D03*
X461650Y1199580D02*
D03*
X471650Y1199580D02*
D03*
X564900Y1201830D02*
D03*
X574900Y1201830D02*
D03*
X630650Y1202580D02*
D03*
X630650Y1211580D02*
D03*
X640650Y1211580D02*
D03*
X640650Y1202580D02*
D03*
X640650Y1220330D02*
D03*
X630650Y1220330D02*
D03*
X719650Y1189830D02*
D03*
X729650Y1189830D02*
D03*
X725150Y1172080D02*
D03*
X715150Y1172080D02*
D03*
X741150Y1199080D02*
D03*
X751150Y1199080D02*
D03*
X729650Y1198830D02*
D03*
X729400Y1207580D02*
D03*
X729400Y1216330D02*
D03*
X719400Y1216330D02*
D03*
X719400Y1207580D02*
D03*
X719650Y1198830D02*
D03*
X766650Y1166830D02*
D03*
X776650Y1166830D02*
D03*
X800749Y1097500D02*
D03*
X810749Y1097500D02*
D03*
D15*
X502290Y1060810D02*
D03*
X502290Y1070810D02*
D03*
X486040Y1115560D02*
D03*
X486040Y1125560D02*
D03*
X477290Y1125560D02*
D03*
X477290Y1115560D02*
D03*
X415150Y1120950D02*
D03*
X415150Y1130950D02*
D03*
X406150Y1130950D02*
D03*
X406150Y1120950D02*
D03*
X356400Y1161580D02*
D03*
X356400Y1171580D02*
D03*
X444400Y1180330D02*
D03*
X444400Y1190330D02*
D03*
X472400Y1208680D02*
D03*
X472400Y1218680D02*
D03*
X491150Y1212080D02*
D03*
X491150Y1202080D02*
D03*
X576290Y1132810D02*
D03*
X576290Y1122810D02*
D03*
X585040Y1122810D02*
D03*
X585040Y1132810D02*
D03*
X592400Y1163580D02*
D03*
X592400Y1173580D02*
D03*
X297400Y1176330D02*
D03*
X297400Y1186330D02*
D03*
D16*
X568390Y1123810D02*
D03*
X558190Y1123810D02*
D03*
X715450Y1163080D02*
D03*
X725650Y1163080D02*
D03*
X767800Y1226080D02*
D03*
X778000Y1226080D02*
D03*
X356350Y1181580D02*
D03*
X346150Y1181580D02*
D03*
X315750Y1209580D02*
D03*
X305550Y1209580D02*
D03*
D18*
X410150Y1089950D02*
D03*
X415150Y1089950D02*
D03*
X415150Y1094950D02*
D03*
X410150Y1094950D02*
D03*
X410150Y1099950D02*
D03*
X415150Y1099950D02*
D03*
X405150Y1099950D02*
D03*
X405150Y1094950D02*
D03*
X405150Y1089950D02*
D03*
X488650Y1171580D02*
D03*
X488650Y1178580D02*
D03*
X488650Y1185580D02*
D03*
X488650Y1192580D02*
D03*
X480650Y1192580D02*
D03*
X480650Y1185580D02*
D03*
X480650Y1178580D02*
D03*
X480650Y1171580D02*
D03*
X575400Y1184830D02*
D03*
X579400Y1184830D02*
D03*
X583400Y1184830D02*
D03*
X583400Y1188830D02*
D03*
X583400Y1192830D02*
D03*
X579400Y1192830D02*
D03*
X579400Y1188830D02*
D03*
X575400Y1188830D02*
D03*
X575400Y1192830D02*
D03*
X587400Y1192830D02*
D03*
X587400Y1188830D02*
D03*
X587400Y1184830D02*
D03*
X724900Y1226330D02*
D03*
X724900Y1230330D02*
D03*
X728900Y1230330D02*
D03*
X728900Y1226330D02*
D03*
X732900Y1226330D02*
D03*
X732900Y1230330D02*
D03*
X748900Y1214580D02*
D03*
X753900Y1214580D02*
D03*
X753900Y1209580D02*
D03*
X748900Y1209580D02*
D03*
X758900Y1209580D02*
D03*
X758900Y1214580D02*
D03*
X743900Y1186830D02*
D03*
X743900Y1182830D02*
D03*
X739900Y1182830D02*
D03*
X739900Y1186830D02*
D03*
X739900Y1178830D02*
D03*
X739900Y1174830D02*
D03*
X743900Y1174830D02*
D03*
X743900Y1178830D02*
D03*
X748900Y1219580D02*
D03*
X753900Y1219580D02*
D03*
X758900Y1219580D02*
D03*
D25*
X566900Y1163830D02*
D03*
X575400Y1163730D02*
D03*
X575400Y1173930D02*
D03*
X566900Y1174030D02*
D03*
X500150Y1195230D02*
D03*
X500150Y1205430D02*
D03*
X461900Y1190280D02*
D03*
X461900Y1180080D02*
D03*
X453400Y1179980D02*
D03*
X453400Y1190180D02*
D03*
X288650Y1186680D02*
D03*
X288650Y1176480D02*
D03*
X758900Y1173380D02*
D03*
X758900Y1183580D02*
D03*
X768650Y1207980D02*
D03*
X768650Y1218180D02*
D03*
D26*
X758900Y1190330D02*
D03*
X777400Y1207830D02*
D03*
X777400Y1217830D02*
D03*
X758900Y1200330D02*
D03*
X713900Y1223830D02*
D03*
X713900Y1233830D02*
D03*
X711900Y1199080D02*
D03*
X711900Y1189080D02*
D03*
X584400Y1227830D02*
D03*
X584400Y1217830D02*
D03*
X565650Y1194330D02*
D03*
X565650Y1184330D02*
D03*
X509400Y1222330D02*
D03*
X509400Y1212330D02*
D03*
X500400Y1222330D02*
D03*
X500400Y1212330D02*
D03*
X500400Y1188580D02*
D03*
X500400Y1178580D02*
D03*
X463650Y1208680D02*
D03*
X463650Y1218680D02*
D03*
X454900Y1218680D02*
D03*
X446150Y1218680D02*
D03*
X446150Y1208680D02*
D03*
X454900Y1208680D02*
D03*
D27*
X618530Y1211580D02*
D03*
X618530Y1216580D02*
D03*
X618530Y1221580D02*
D03*
X618530Y1226580D02*
D03*
X595270Y1226580D02*
D03*
X595270Y1221580D02*
D03*
X595270Y1216580D02*
D03*
X595270Y1211580D02*
D03*
D28*
X611900Y1209950D02*
D03*
X611900Y1228200D02*
D03*
X606900Y1228200D02*
D03*
X601900Y1228200D02*
D03*
X601900Y1209950D02*
D03*
X606900Y1209950D02*
D03*
D29*
X611900Y1216580D02*
D03*
X611900Y1221580D02*
D03*
X606900Y1221580D02*
D03*
X601900Y1221580D02*
D03*
X601900Y1216580D02*
D03*
X606900Y1216580D02*
D03*
D30*
X749400Y1164330D02*
D03*
X733400Y1164330D02*
D03*
D31*
X772900Y1182830D02*
D03*
X772900Y1197080D02*
D03*
D32*
X571400Y1211830D02*
D03*
X571400Y1229830D02*
D03*
D33*
X421650Y1218680D02*
D03*
X434400Y1228430D02*
D03*
X421650Y1228430D02*
D03*
D35*
X598900Y1187830D02*
D03*
X607400Y1187830D02*
D03*
X607400Y1196330D02*
D03*
X598900Y1196330D02*
D03*
D36*
X337250Y1171830D02*
D03*
X347050Y1171830D02*
D03*
X481500Y1220580D02*
D03*
X491300Y1220580D02*
D03*
D37*
X364900Y1189180D02*
D03*
X364900Y1198980D02*
D03*
X337400Y1191380D02*
D03*
X337400Y1181580D02*
D03*
X481650Y1200930D02*
D03*
X481650Y1210730D02*
D03*
D38*
X353650Y1209580D02*
D03*
X324650Y1209580D02*
D03*
M02*
