G04*
G04 #@! TF.GenerationSoftware,Altium Limited,Altium Designer,23.2.1 (34)*
G04*
G04 Layer_Color=16711935*
%FSLAX44Y44*%
%MOMM*%
G71*
G04*
G04 #@! TF.SameCoordinates,D767BFFD-4904-4763-B037-12AEFBC8DA8D*
G04*
G04*
G04 #@! TF.FilePolarity,Negative*
G04*
G01*
G75*
%ADD16R,0.4000X0.5500*%
%ADD25R,0.5500X0.4000*%
%ADD36R,0.5800X0.6400*%
G04:AMPARAMS|DCode=39|XSize=0.2mm|YSize=1.2mm|CornerRadius=0.05mm|HoleSize=0mm|Usage=FLASHONLY|Rotation=90.000|XOffset=0mm|YOffset=0mm|HoleType=Round|Shape=RoundedRectangle|*
%AMROUNDEDRECTD39*
21,1,0.2000,1.1000,0,0,90.0*
21,1,0.1000,1.2000,0,0,90.0*
1,1,0.1000,0.5500,0.0500*
1,1,0.1000,0.5500,-0.0500*
1,1,0.1000,-0.5500,-0.0500*
1,1,0.1000,-0.5500,0.0500*
%
%ADD39ROUNDEDRECTD39*%
G04:AMPARAMS|DCode=40|XSize=0.2mm|YSize=1.2mm|CornerRadius=0.05mm|HoleSize=0mm|Usage=FLASHONLY|Rotation=180.000|XOffset=0mm|YOffset=0mm|HoleType=Round|Shape=RoundedRectangle|*
%AMROUNDEDRECTD40*
21,1,0.2000,1.1000,0,0,180.0*
21,1,0.1000,1.2000,0,0,180.0*
1,1,0.1000,-0.0500,0.5500*
1,1,0.1000,0.0500,0.5500*
1,1,0.1000,0.0500,-0.5500*
1,1,0.1000,-0.0500,-0.5500*
%
%ADD40ROUNDEDRECTD40*%
%ADD43R,0.2500X0.3000*%
%ADD44R,0.5500X0.3500*%
%ADD45R,0.5500X0.3000*%
%ADD46R,0.8000X0.3500*%
%ADD47R,2.6000X0.6000*%
%ADD48R,0.7500X0.3500*%
%ADD50R,2.3500X2.3500*%
%ADD51O,0.8000X0.2000*%
%ADD52O,0.2000X0.8000*%
%ADD55R,0.5400X0.2200*%
%ADD56R,0.5300X0.2200*%
%ADD57R,0.8500X0.2000*%
%ADD58R,0.2000X0.8500*%
%ADD59R,0.3548X0.6842*%
%ADD60R,4.7000X4.7000*%
%ADD61O,1.2000X1.7000*%
%ADD62R,0.8000X1.8000*%
%ADD64R,0.4800X0.6800*%
%ADD68O,2.1000X1.6000*%
%ADD69C,0.5500*%
%ADD70C,0.7000*%
G36*
X604129Y1179234D02*
X604584Y1179045D01*
X604994Y1178772D01*
X605342Y1178424D01*
X605616Y1178014D01*
X605804Y1177559D01*
X605900Y1177076D01*
X605900Y1176830D01*
X605900Y1176584D01*
X605804Y1176101D01*
X605616Y1175646D01*
X605342Y1175236D01*
X604994Y1174888D01*
X604584Y1174615D01*
X604129Y1174426D01*
X603646Y1174330D01*
X603154Y1174330D01*
X602671Y1174426D01*
X602216Y1174615D01*
X601806Y1174888D01*
X601458Y1175236D01*
X601185Y1175646D01*
X600996Y1176101D01*
X600900Y1176584D01*
X600900Y1176830D01*
X600900Y1177076D01*
X600996Y1177559D01*
X601185Y1178014D01*
X601458Y1178424D01*
X601806Y1178772D01*
X602216Y1179045D01*
X602671Y1179234D01*
X603154Y1179330D01*
X603646Y1179330D01*
X604129Y1179234D01*
X604129Y1179234D02*
G37*
G36*
X609497Y1164735D02*
X609516Y1164734D01*
X609546Y1164727D01*
X609576Y1164722D01*
X609594Y1164716D01*
X609612Y1164712D01*
X609640Y1164699D01*
X609669Y1164688D01*
X609684Y1164678D01*
X609701Y1164671D01*
X609726Y1164653D01*
X609753Y1164637D01*
X609766Y1164624D01*
X609781Y1164613D01*
X609803Y1164590D01*
X609825Y1164569D01*
X609836Y1164555D01*
X609848Y1164541D01*
X609865Y1164515D01*
X609883Y1164490D01*
X609890Y1164473D01*
X609900Y1164457D01*
X609911Y1164428D01*
X609924Y1164400D01*
X609928Y1164382D01*
X609934Y1164365D01*
X609939Y1164334D01*
X609947Y1164304D01*
X609947Y1164286D01*
X609950Y1164268D01*
X610238Y1159663D01*
X610237Y1159640D01*
X610239Y1159616D01*
X610236Y1159591D01*
X610235Y1159565D01*
X610229Y1159542D01*
X610226Y1159519D01*
X610218Y1159494D01*
X610212Y1159469D01*
X610202Y1159448D01*
X610195Y1159426D01*
X610182Y1159403D01*
X610171Y1159380D01*
X610158Y1159361D01*
X610146Y1159340D01*
X610129Y1159321D01*
X610113Y1159300D01*
X610096Y1159284D01*
X610081Y1159266D01*
X610060Y1159250D01*
X610041Y1159232D01*
X610021Y1159220D01*
X610003Y1159206D01*
X609980Y1159194D01*
X609958Y1159181D01*
X609936Y1159173D01*
X609915Y1159162D01*
X609889Y1159155D01*
X609865Y1159146D01*
X609842Y1159143D01*
X609819Y1159136D01*
X605401Y1158398D01*
X605360Y1158395D01*
X605319Y1158391D01*
X605311Y1158392D01*
X605303Y1158392D01*
X605262Y1158397D01*
X605221Y1158401D01*
X605213Y1158403D01*
X605205Y1158404D01*
X605166Y1158418D01*
X605126Y1158430D01*
X605119Y1158433D01*
X605112Y1158436D01*
X605076Y1158456D01*
X605039Y1158476D01*
X605033Y1158481D01*
X605027Y1158485D01*
X604995Y1158512D01*
X604963Y1158539D01*
X604958Y1158544D01*
X604953Y1158550D01*
X604927Y1158583D01*
X604901Y1158615D01*
X604897Y1158622D01*
X604892Y1158628D01*
X604874Y1158665D01*
X604869Y1158674D01*
X604396Y1158580D01*
X603904Y1158580D01*
X603432Y1158674D01*
X603425Y1158657D01*
X603423Y1158655D01*
X603422Y1158652D01*
X603396Y1158614D01*
X603370Y1158575D01*
X603368Y1158573D01*
X603367Y1158571D01*
X603333Y1158538D01*
X603300Y1158505D01*
X603298Y1158504D01*
X603296Y1158502D01*
X603256Y1158476D01*
X603218Y1158451D01*
X603216Y1158450D01*
X603214Y1158448D01*
X603171Y1158431D01*
X603127Y1158413D01*
X603125Y1158412D01*
X603122Y1158411D01*
X603077Y1158403D01*
X603031Y1158394D01*
X603028Y1158394D01*
X603025Y1158393D01*
X602979Y1158394D01*
X602932Y1158394D01*
X602930Y1158394D01*
X602927Y1158394D01*
X598605Y1158867D01*
X598581Y1158872D01*
X598556Y1158874D01*
X598532Y1158882D01*
X598508Y1158887D01*
X598486Y1158897D01*
X598462Y1158904D01*
X598441Y1158916D01*
X598418Y1158925D01*
X598397Y1158940D01*
X598376Y1158951D01*
X598357Y1158967D01*
X598336Y1158981D01*
X598319Y1158999D01*
X598300Y1159015D01*
X598285Y1159034D01*
X598268Y1159052D01*
X598254Y1159072D01*
X598239Y1159091D01*
X598227Y1159113D01*
X598214Y1159134D01*
X598205Y1159157D01*
X598193Y1159179D01*
X598186Y1159203D01*
X598177Y1159225D01*
X598172Y1159250D01*
X598166Y1159273D01*
X598163Y1159298D01*
X598159Y1159322D01*
X598159Y1159347D01*
X598157Y1159371D01*
X598206Y1163989D01*
X598209Y1164015D01*
X598209Y1164040D01*
X598214Y1164063D01*
X598217Y1164087D01*
X598225Y1164111D01*
X598230Y1164136D01*
X598239Y1164158D01*
X598247Y1164181D01*
X598259Y1164203D01*
X598269Y1164227D01*
X598282Y1164246D01*
X598294Y1164267D01*
X598310Y1164287D01*
X598325Y1164308D01*
X598342Y1164324D01*
X598357Y1164343D01*
X598377Y1164359D01*
X598395Y1164377D01*
X598415Y1164390D01*
X598434Y1164405D01*
X598456Y1164416D01*
X598478Y1164430D01*
X598500Y1164439D01*
X598521Y1164450D01*
X598546Y1164457D01*
X598569Y1164467D01*
X598593Y1164471D01*
X598616Y1164478D01*
X598641Y1164480D01*
X598666Y1164484D01*
X598690Y1164484D01*
X598714Y1164486D01*
X598739Y1164483D01*
X598765Y1164483D01*
X603487Y1163951D01*
X603531Y1163942D01*
X603576Y1163933D01*
X603580Y1163932D01*
X603583Y1163931D01*
X603625Y1163913D01*
X603667Y1163895D01*
X603670Y1163893D01*
X603673Y1163892D01*
X603711Y1163866D01*
X603749Y1163841D01*
X603752Y1163838D01*
X603755Y1163836D01*
X603786Y1163804D01*
X603819Y1163771D01*
X603821Y1163768D01*
X603823Y1163765D01*
X603849Y1163726D01*
X603873Y1163689D01*
X603875Y1163686D01*
X603877Y1163683D01*
X603894Y1163639D01*
X603899Y1163628D01*
X603900Y1163645D01*
X603905Y1163660D01*
X603907Y1163675D01*
X603919Y1163707D01*
X603929Y1163739D01*
X603936Y1163753D01*
X603941Y1163767D01*
X603959Y1163796D01*
X603975Y1163826D01*
X603985Y1163838D01*
X603993Y1163851D01*
X604016Y1163876D01*
X604038Y1163902D01*
X604049Y1163912D01*
X604060Y1163923D01*
X604087Y1163943D01*
X604114Y1163965D01*
X604128Y1163972D01*
X604140Y1163981D01*
X604170Y1163995D01*
X604201Y1164011D01*
X604216Y1164016D01*
X604229Y1164022D01*
X604263Y1164030D01*
X604295Y1164040D01*
X604310Y1164041D01*
X604325Y1164045D01*
X609381Y1164734D01*
X609399Y1164735D01*
X609417Y1164738D01*
X609448Y1164737D01*
X609479Y1164738D01*
X609497Y1164735D01*
X609497Y1164735D02*
G37*
D16*
X390730Y976040D02*
D03*
X390730Y984395D02*
D03*
X380530Y984395D02*
D03*
X380530Y976040D02*
D03*
X390730Y1018040D02*
D03*
X380530Y1018040D02*
D03*
D25*
X800749Y1090750D02*
D03*
X800749Y1097250D02*
D03*
X800749Y1103750D02*
D03*
D36*
X420250Y1199930D02*
D03*
X430050Y1199930D02*
D03*
D39*
X787750Y1045000D02*
D03*
X812500Y1045000D02*
D03*
X762750Y1045000D02*
D03*
X737750Y1045000D02*
D03*
X712750Y1045000D02*
D03*
X687750Y1045000D02*
D03*
X662750Y1045000D02*
D03*
X637750Y1045000D02*
D03*
X612750Y1045000D02*
D03*
X587750Y1045000D02*
D03*
X562750Y1045000D02*
D03*
X537750Y1045000D02*
D03*
X512750Y1045000D02*
D03*
X487750Y1045000D02*
D03*
X462750Y1045000D02*
D03*
X437750Y1045000D02*
D03*
X412750Y1045000D02*
D03*
X387750Y1045000D02*
D03*
X362750Y1045000D02*
D03*
X337750Y1045000D02*
D03*
X312750Y1045000D02*
D03*
X287750Y1045000D02*
D03*
X387500Y1147500D02*
D03*
X412500Y1147500D02*
D03*
X437500Y1147500D02*
D03*
X462500Y1147500D02*
D03*
X487500Y1147500D02*
D03*
X512500Y1147500D02*
D03*
X537500Y1147500D02*
D03*
X562500Y1147500D02*
D03*
X587500Y1147500D02*
D03*
X612500Y1147500D02*
D03*
X637500Y1147500D02*
D03*
X662500Y1147500D02*
D03*
X687500Y1147500D02*
D03*
X712500Y1147500D02*
D03*
X737500Y1147500D02*
D03*
X762500Y1147500D02*
D03*
X787500Y1147500D02*
D03*
X810750Y1147500D02*
D03*
X362500Y1147500D02*
D03*
X337500Y1147500D02*
D03*
X312500Y1147500D02*
D03*
X287500Y1147500D02*
D03*
D40*
X690000Y1065000D02*
D03*
X690000Y1090000D02*
D03*
X690000Y1115000D02*
D03*
X690000Y1140000D02*
D03*
X456000Y1140500D02*
D03*
X456000Y1115500D02*
D03*
X456000Y1090500D02*
D03*
X456000Y1065500D02*
D03*
D43*
X806749Y1089750D02*
D03*
X806749Y1094750D02*
D03*
X806749Y1099750D02*
D03*
X806749Y1104750D02*
D03*
D44*
X812749Y1090750D02*
D03*
X812749Y1103750D02*
D03*
D45*
X812749Y1097250D02*
D03*
D46*
X504040Y1072810D02*
D03*
X504040Y1077810D02*
D03*
X504040Y1082810D02*
D03*
X504040Y1087810D02*
D03*
X504040Y1092810D02*
D03*
X504040Y1097810D02*
D03*
X504040Y1102810D02*
D03*
X504040Y1107810D02*
D03*
X504040Y1112810D02*
D03*
X504040Y1117810D02*
D03*
X404150Y1118450D02*
D03*
X404150Y1113450D02*
D03*
X404150Y1108450D02*
D03*
X404150Y1103450D02*
D03*
X404150Y1098450D02*
D03*
X404150Y1093450D02*
D03*
X404150Y1088450D02*
D03*
X404150Y1083450D02*
D03*
X404150Y1078450D02*
D03*
X404150Y1073450D02*
D03*
X745150Y1174330D02*
D03*
X745150Y1179330D02*
D03*
X745150Y1184330D02*
D03*
X745150Y1189330D02*
D03*
X745150Y1194330D02*
D03*
X745150Y1199330D02*
D03*
X745150Y1204330D02*
D03*
X745150Y1209330D02*
D03*
X745150Y1214330D02*
D03*
X745150Y1219330D02*
D03*
D47*
X481040Y1063810D02*
D03*
X427150Y1064450D02*
D03*
X481040Y1126810D02*
D03*
X427150Y1127450D02*
D03*
X768150Y1165330D02*
D03*
X768150Y1228330D02*
D03*
D48*
X585540Y1072560D02*
D03*
X585540Y1080560D02*
D03*
X585540Y1088560D02*
D03*
X585540Y1096560D02*
D03*
X585540Y1104560D02*
D03*
X585540Y1112560D02*
D03*
X585540Y1120560D02*
D03*
X561540Y1120560D02*
D03*
X561540Y1112560D02*
D03*
X561540Y1104560D02*
D03*
X561540Y1096560D02*
D03*
X561540Y1088560D02*
D03*
X561540Y1080560D02*
D03*
X561540Y1072560D02*
D03*
D50*
X419630Y1002040D02*
D03*
D51*
X439630Y990040D02*
D03*
X439630Y994040D02*
D03*
X439630Y998040D02*
D03*
X439630Y1002040D02*
D03*
X439630Y1006040D02*
D03*
X439630Y1010040D02*
D03*
X439630Y1014040D02*
D03*
X399630Y1014040D02*
D03*
X399630Y1010040D02*
D03*
X399630Y1006040D02*
D03*
X399630Y1002040D02*
D03*
X399630Y998040D02*
D03*
X399630Y994040D02*
D03*
X399630Y990040D02*
D03*
D52*
X407630Y982040D02*
D03*
X411630Y982040D02*
D03*
X415630Y982040D02*
D03*
X419630Y982040D02*
D03*
X423630Y982040D02*
D03*
X427630Y982040D02*
D03*
X431630Y982040D02*
D03*
X431630Y1022040D02*
D03*
X427630Y1022040D02*
D03*
X423630Y1022040D02*
D03*
X419630Y1022040D02*
D03*
X415630Y1022040D02*
D03*
X411630Y1022040D02*
D03*
X407630Y1022040D02*
D03*
D55*
X289050Y1168580D02*
D03*
X289050Y1172580D02*
D03*
X289050Y1178580D02*
D03*
X289050Y1184580D02*
D03*
X289050Y1190580D02*
D03*
X289050Y1196580D02*
D03*
X289050Y1202580D02*
D03*
X289050Y1206580D02*
D03*
D56*
X315250Y1175580D02*
D03*
X315250Y1181580D02*
D03*
X315250Y1187580D02*
D03*
X315250Y1193580D02*
D03*
X315250Y1199580D02*
D03*
D57*
X502150Y1175930D02*
D03*
X502150Y1179930D02*
D03*
X502150Y1183930D02*
D03*
X502150Y1187930D02*
D03*
X502150Y1191930D02*
D03*
X502150Y1195930D02*
D03*
X502150Y1199930D02*
D03*
X502150Y1203930D02*
D03*
X502150Y1207930D02*
D03*
X502150Y1211930D02*
D03*
X502150Y1215930D02*
D03*
X502150Y1219930D02*
D03*
X443150Y1219930D02*
D03*
X443150Y1215930D02*
D03*
X443150Y1211930D02*
D03*
X443150Y1207930D02*
D03*
X443150Y1203930D02*
D03*
X443150Y1199930D02*
D03*
X443150Y1195930D02*
D03*
X443150Y1191930D02*
D03*
X443150Y1187930D02*
D03*
X443150Y1183930D02*
D03*
X443150Y1179930D02*
D03*
X443150Y1175930D02*
D03*
D58*
X482650Y1168430D02*
D03*
X486650Y1168430D02*
D03*
X490650Y1168430D02*
D03*
X494650Y1168430D02*
D03*
X478650Y1168430D02*
D03*
X474650Y1168430D02*
D03*
X470650Y1168430D02*
D03*
X466650Y1168430D02*
D03*
X462650Y1168430D02*
D03*
X458650Y1168430D02*
D03*
X454650Y1168430D02*
D03*
X450650Y1168430D02*
D03*
X482650Y1227430D02*
D03*
X486650Y1227430D02*
D03*
X490650Y1227430D02*
D03*
X494650Y1227430D02*
D03*
X478650Y1227430D02*
D03*
X474650Y1227430D02*
D03*
X470650Y1227430D02*
D03*
X466650Y1227430D02*
D03*
X462650Y1227430D02*
D03*
X458650Y1227430D02*
D03*
X454650Y1227430D02*
D03*
X450650Y1227430D02*
D03*
D59*
X714900Y1166830D02*
D03*
X720900Y1166830D02*
D03*
X726900Y1166830D02*
D03*
X726900Y1179276D02*
D03*
X720900Y1179276D02*
D03*
X714900Y1179276D02*
D03*
X708900Y1179276D02*
D03*
X708900Y1166830D02*
D03*
D60*
X472650Y1197930D02*
D03*
D61*
X635150Y1167080D02*
D03*
X635150Y1186580D02*
D03*
D62*
X713900Y1226580D02*
D03*
X729900Y1226580D02*
D03*
D64*
X390630Y1026790D02*
D03*
X380630Y1026790D02*
D03*
X420150Y1209330D02*
D03*
X430150Y1209330D02*
D03*
X428900Y1219180D02*
D03*
X418900Y1219180D02*
D03*
X418900Y1228080D02*
D03*
X428900Y1228080D02*
D03*
D68*
X384150Y1085450D02*
D03*
X384150Y1105450D02*
D03*
D69*
X603400Y1161081D02*
G03*
X603650Y1161080I250J21249D01*
G01*
X603650Y1161080D02*
G03*
X603901Y1161081I0J21250D01*
G01*
X603901Y1161081D02*
G03*
X624900Y1182330I-251J21249D01*
G01*
X624900Y1182330D02*
G03*
X621400Y1194013I-21250J0D01*
G01*
X621400Y1194013D02*
G03*
X620900Y1194740I-17750J-11683D01*
G01*
X620900Y1194740D02*
G03*
X616820Y1199007I-17250J-12410D01*
G01*
X616820Y1199007D02*
G03*
X612400Y1201695I-13170J-16677D01*
G01*
X612400Y1201695D02*
G03*
X603400Y1161081I-8750J-19365D01*
G01*
D70*
X603150Y1176853D02*
G03*
X609150Y1182330I500J5477D01*
G01*
X609150Y1182330D02*
G03*
X603150Y1176853I-5500J0D01*
G01*
M02*
