G04*
G04 #@! TF.GenerationSoftware,Altium Limited,Altium Designer,23.2.1 (34)*
G04*
G04 Layer_Color=8388736*
%FSLAX44Y44*%
%MOMM*%
G71*
G04*
G04 #@! TF.SameCoordinates,E20974CA-E035-473C-9636-8DA8DBCB3652*
G04*
G04*
G04 #@! TF.FilePolarity,Positive*
G04*
G01*
G75*
%ADD11C,0.1500*%
%ADD16C,0.1000*%
G36*
X257000Y269750D02*
X256403Y269750D01*
X255301Y270207D01*
X254457Y271051D01*
X254000Y272153D01*
X254000Y272750D01*
X254000Y272750D01*
X254000Y321750D01*
X254000Y322347D01*
X254457Y323449D01*
X255301Y324293D01*
X256403Y324750D01*
X257000Y324750D01*
X257000Y324750D01*
X301500Y324750D01*
X301500Y269750D01*
X257000Y269750D01*
X257000Y269750D02*
G37*
D11*
X255916Y260000D02*
X254750Y261166D01*
X255916Y260000D02*
X258249Y260000D01*
X259415Y261166D01*
X259415Y262332D01*
X258249Y263499D01*
X255916Y263499D01*
X254750Y264665D01*
X254750Y265831D01*
X255916Y266998D01*
X258249Y266998D01*
X259415Y265831D01*
X262914Y265831D02*
X262914Y264665D01*
X261748Y264665D01*
X264080Y264665D01*
X262914Y264665D01*
X262914Y261166D01*
X264080Y260000D01*
X267579Y260000D02*
X269912Y260000D01*
X268745Y260000D01*
X268745Y264665D01*
X267579Y264665D01*
X273411Y263499D02*
X275743Y263499D01*
X274577Y263499D01*
X273411Y263499D01*
X274577Y263499D02*
X274577Y265831D01*
X274577Y263499D01*
X274577Y265831D02*
X275743Y266998D01*
X274577Y265831D02*
X274577Y260000D01*
X279242Y263499D02*
X281575Y263499D01*
X280408Y263499D01*
X279242Y263499D01*
X280408Y263499D02*
X280408Y265831D01*
X280408Y263499D01*
X280408Y265831D02*
X281575Y266998D01*
X280408Y265831D02*
X280408Y260000D01*
X285074Y260000D02*
X285074Y264665D01*
X288572Y264665D01*
X289739Y263499D01*
X289739Y260000D01*
X293238Y260000D02*
X292071Y261166D01*
X292071Y263499D01*
X293238Y264665D01*
X295570Y264665D01*
X296737Y263499D01*
X296737Y262332D01*
X292071Y262332D01*
X293238Y260000D02*
X295570Y260000D01*
X299069Y260000D02*
X299069Y262332D01*
X300235Y263499D01*
X301402Y264665D01*
X302568Y264665D01*
X299069Y264665D02*
X299069Y260000D01*
D16*
X257000Y269750D02*
X302000Y269750D01*
X302000Y280000D01*
X384000Y280000D01*
X384000Y315000D01*
X302000Y315000D01*
X302000Y324750D01*
X257000Y324750D01*
X257000Y324750D02*
G03*
X254000Y321750I0J-3000D01*
G01*
X257000Y324750D02*
G03*
X254000Y321750I0J-3000D01*
G01*
X254000Y272750D01*
X254000Y272750D02*
G03*
X257000Y269750I3000J0D01*
G01*
X301500Y269750D01*
X301500Y324750D01*
X257000Y324750D01*
X254000Y321750D02*
X254000Y272750D01*
X254000Y272750D02*
G03*
X257000Y269750I3000J0D01*
G01*
M02*
