G04*
G04 #@! TF.GenerationSoftware,Altium Limited,Altium Designer,23.2.1 (34)*
G04*
G04 Layer_Color=65535*
%FSLAX44Y44*%
%MOMM*%
G71*
G04*
G04 #@! TF.SameCoordinates,E20974CA-E035-473C-9636-8DA8DBCB3652*
G04*
G04*
G04 #@! TF.FilePolarity,Positive*
G04*
G01*
G75*
%ADD10C,0.0500*%
%ADD11C,0.1500*%
G36*
X331424Y310813D02*
X331512Y310777D01*
X331688Y310760D01*
X331740Y310707D01*
X331855Y310681D01*
X331881Y310654D01*
X331995Y310628D01*
X332022Y310602D01*
X332057Y310584D01*
X332127Y310514D01*
X332198Y310496D01*
X332286Y310461D01*
X332383Y310364D01*
X332391Y310338D01*
X332426Y310320D01*
X332462Y310267D01*
X332497Y310250D01*
X332558Y310188D01*
X332576Y310153D01*
X332629Y310118D01*
X332655Y310021D01*
X332699Y309977D01*
X332717Y309942D01*
X332787Y309871D01*
X332813Y309775D01*
X332875Y309713D01*
X332893Y309590D01*
X332946Y309537D01*
X332963Y309344D01*
X332998Y309256D01*
X332981Y308763D01*
X332963Y308710D01*
X332946Y308587D01*
X332928Y308499D01*
X332893Y308411D01*
X332875Y308323D01*
X332787Y308253D01*
X332770Y308147D01*
X332699Y308077D01*
X332682Y308042D01*
X332646Y308006D01*
X332602Y307910D01*
X332567Y307892D01*
X332523Y307848D01*
X332514Y307822D01*
X332479Y307804D01*
X332383Y307707D01*
X332365Y307672D01*
X332321Y307628D01*
X332251Y307611D01*
X332198Y307558D01*
X332110Y307505D01*
X332075Y307470D01*
X332004Y307452D01*
X331916Y307417D01*
X331890Y307391D01*
X331872Y307320D01*
X331855Y299650D01*
X331802Y299527D01*
X331784Y299315D01*
X331731Y299228D01*
X331705Y299043D01*
X331679Y298964D01*
X331661Y298840D01*
X331608Y298788D01*
X331582Y298673D01*
X331538Y298577D01*
X331512Y298462D01*
X331406Y298286D01*
X331371Y298198D01*
X331327Y298137D01*
X331292Y298102D01*
X331274Y298066D01*
X331204Y297961D01*
X331177Y297846D01*
X331142Y297811D01*
X331107Y297794D01*
X331063Y297732D01*
X331028Y297644D01*
X331010Y297609D01*
X330949Y297565D01*
X330852Y297468D01*
X330808Y297389D01*
X330773Y297371D01*
X330685Y297248D01*
X330650Y297231D01*
X330606Y297187D01*
X330588Y297152D01*
X330526Y297090D01*
X330491Y297072D01*
X330333Y296949D01*
X330139Y296756D01*
X330051Y296720D01*
X329946Y296650D01*
X329893Y296632D01*
X329823Y296562D01*
X329629Y296474D01*
X329383Y296333D01*
X329312Y296316D01*
X329260Y296298D01*
X329207Y296245D01*
X329137Y296228D01*
X329040Y296201D01*
X329013Y296175D01*
X328890Y296157D01*
X328793Y296131D01*
X328600Y296113D01*
X328538Y296052D01*
X328468Y296034D01*
X328222Y296017D01*
X328134Y295982D01*
X323172Y295964D01*
X323067Y295893D01*
X322750Y295876D01*
X322733Y295841D01*
X322662Y295823D01*
X322521Y295806D01*
X322469Y295788D01*
X322170Y295630D01*
X322143Y295603D01*
X322126Y295568D01*
X322011Y295454D01*
X321976Y295436D01*
X321906Y295366D01*
X321870Y295348D01*
X321835Y295313D01*
X321800Y295295D01*
X321703Y295216D01*
X321668Y295199D01*
X321651Y295163D01*
X321624Y295137D01*
X321554Y295119D01*
X321519Y295102D01*
X321466Y295049D01*
X321360Y295032D01*
X321307Y294979D01*
X321237Y294961D01*
X321149Y294944D01*
X321096Y294891D01*
X320964Y294900D01*
X320806Y294882D01*
X320762Y294838D01*
X320692Y294820D01*
X320463Y294838D01*
X320340Y294891D01*
X320093Y294908D01*
X319970Y294961D01*
X319830Y294979D01*
X319795Y295032D01*
X319680Y295075D01*
X319548Y295137D01*
X319460Y295225D01*
X319425Y295243D01*
X319390Y295278D01*
X319302Y295313D01*
X319205Y295392D01*
X319188Y295427D01*
X319161Y295471D01*
X319135Y295480D01*
X319100Y295568D01*
X319082Y295603D01*
X319056Y295630D01*
X319020Y295647D01*
X318959Y295709D01*
X318906Y295797D01*
X318818Y295938D01*
X318800Y296008D01*
X318783Y296131D01*
X318748Y296201D01*
X318765Y296237D01*
X318713Y296325D01*
X318677Y296360D01*
X318695Y296993D01*
X318730Y297028D01*
X318765Y297134D01*
X318748Y297187D01*
X318783Y297275D01*
X318809Y297389D01*
X318836Y297415D01*
X318871Y297556D01*
X318897Y297582D01*
X318932Y297600D01*
X318959Y297626D01*
X318976Y297714D01*
X319020Y297758D01*
X319056Y297776D01*
X319135Y297855D01*
X319240Y298049D01*
X319267Y298075D01*
X319390Y298146D01*
X319487Y298225D01*
X319513Y298251D01*
X319742Y298357D01*
X319777Y298374D01*
X319830Y298427D01*
X319900Y298445D01*
X319988Y298462D01*
X320111Y298515D01*
X320410Y298533D01*
X320533Y298585D01*
X320762Y298568D01*
X320815Y298515D01*
X320894Y298506D01*
X321096Y298515D01*
X321202Y298445D01*
X321307Y298427D01*
X321360Y298374D01*
X321466Y298357D01*
X321501Y298321D01*
X321598Y298295D01*
X321668Y298225D01*
X321677Y298198D01*
X321835Y298110D01*
X321967Y298013D01*
X321985Y297978D01*
X322178Y297785D01*
X322187Y297758D01*
X322275Y297706D01*
X322310Y297670D01*
X322346Y297653D01*
X322451Y297582D01*
X322521Y297565D01*
X322715Y297459D01*
X322803Y297424D01*
X322909Y297407D01*
X322961Y297389D01*
X323067Y297371D01*
X323120Y297319D01*
X323190Y297301D01*
X323454Y297283D01*
X323542Y297248D01*
X327975Y297266D01*
X328010Y297301D01*
X328310Y297319D01*
X328354Y297380D01*
X328521Y297407D01*
X328573Y297424D01*
X328644Y297442D01*
X328750Y297512D01*
X328820Y297530D01*
X328855Y297565D01*
X328987Y297591D01*
X329049Y297653D01*
X329137Y297706D01*
X329260Y297758D01*
X329295Y297776D01*
X329453Y297934D01*
X329524Y297952D01*
X329603Y298031D01*
X329620Y298066D01*
X329647Y298093D01*
X329682Y298110D01*
X329717Y298146D01*
X329743Y298154D01*
X329761Y298189D01*
X329840Y298269D01*
X329875Y298286D01*
X329919Y298365D01*
X329937Y298436D01*
X329999Y298497D01*
X330034Y298515D01*
X330078Y298559D01*
X330113Y298647D01*
X330166Y298700D01*
X330183Y298823D01*
X330245Y298867D01*
X330271Y298893D01*
X330289Y298999D01*
X330324Y299034D01*
X330342Y299157D01*
X330368Y299184D01*
X330403Y299201D01*
X330421Y299342D01*
X330447Y299421D01*
X330456Y299553D01*
X330447Y299615D01*
X330465Y299667D01*
X330482Y299738D01*
X330518Y299826D01*
X330500Y307250D01*
X330447Y307373D01*
X330430Y307408D01*
X330403Y307435D01*
X330289Y307479D01*
X330271Y307514D01*
X330245Y307540D01*
X330139Y307558D01*
X330069Y307628D01*
X329972Y307655D01*
X329919Y307743D01*
X329902Y307778D01*
X329796Y307848D01*
X329743Y307901D01*
X329726Y307936D01*
X329700Y307963D01*
X329664Y307980D01*
X329585Y308112D01*
X329532Y308235D01*
X329515Y308270D01*
X329383Y308402D01*
X329304Y308411D01*
X319047Y308394D01*
X318950Y308367D01*
X318739Y308350D01*
X318651Y308314D01*
X318528Y308297D01*
X318440Y308244D01*
X318387Y308227D01*
X318281Y308209D01*
X318229Y308156D01*
X318132Y308130D01*
X318088Y308086D01*
X318018Y308068D01*
X317903Y308024D01*
X317877Y307998D01*
X317762Y307954D01*
X317718Y307892D01*
X317613Y307875D01*
X317586Y307848D01*
X317569Y307813D01*
X317437Y307751D01*
X317314Y307628D01*
X317279Y307611D01*
X317252Y307584D01*
X317235Y307549D01*
X317120Y307435D01*
X317085Y307417D01*
X317041Y307373D01*
X317024Y307338D01*
X316980Y307294D01*
X316918Y307268D01*
X316900Y307232D01*
X316865Y307197D01*
X316848Y307162D01*
X316786Y307101D01*
X316751Y307083D01*
X316707Y307021D01*
X316637Y306898D01*
X316584Y306845D01*
X316425Y306546D01*
X316337Y306406D01*
X316320Y306282D01*
X316267Y306230D01*
X316249Y306106D01*
X316197Y306054D01*
X316179Y305931D01*
X316161Y305860D01*
X316144Y305807D01*
X316126Y305543D01*
X316073Y305491D01*
X316056Y305420D01*
X316038Y303239D01*
X316021Y303186D01*
X316038Y302078D01*
X316021Y302025D01*
X316038Y300477D01*
X316021Y300424D01*
X316012Y299254D01*
X316021Y298893D01*
X316003Y298840D01*
X316012Y298392D01*
X316003Y298154D01*
X316021Y298102D01*
X316012Y297512D01*
X316021Y297503D01*
X316003Y297451D01*
X316021Y297046D01*
X316056Y296958D01*
X316073Y295938D01*
X316109Y295849D01*
X316126Y295779D01*
X316144Y295550D01*
X316161Y294988D01*
X316179Y294935D01*
X316197Y294442D01*
X316223Y294398D01*
X316311Y294363D01*
X316381Y294275D01*
X316504Y294257D01*
X316540Y294222D01*
X316628Y294169D01*
X316733Y294064D01*
X316804Y294046D01*
X316830Y294020D01*
X316848Y293985D01*
X316988Y293844D01*
X317059Y293721D01*
X317164Y293650D01*
X317191Y293518D01*
X317296Y293307D01*
X317340Y293263D01*
X317358Y293105D01*
X317411Y293052D01*
X317393Y292278D01*
X317340Y292155D01*
X317323Y292014D01*
X317296Y291988D01*
X317270Y291979D01*
X317252Y291909D01*
X317235Y291821D01*
X317129Y291627D01*
X317094Y291592D01*
X317006Y291434D01*
X316909Y291372D01*
X316821Y291266D01*
X316768Y291214D01*
X316733Y291196D01*
X316645Y291161D01*
X316610Y291143D01*
X316540Y291073D01*
X316346Y290967D01*
X316311Y290932D01*
X316126Y290888D01*
X316038Y290853D01*
X315959Y290827D01*
X315044Y290844D01*
X315009Y290879D01*
X314868Y290897D01*
X314816Y290915D01*
X314675Y290950D01*
X314604Y291020D01*
X314569Y291038D01*
X314446Y291108D01*
X314393Y291161D01*
X314270Y291231D01*
X314094Y291407D01*
X314059Y291425D01*
X313980Y291574D01*
X313892Y291662D01*
X313857Y291750D01*
X313839Y291786D01*
X313786Y291909D01*
X313769Y291944D01*
X313716Y291997D01*
X313698Y292155D01*
X313663Y292190D01*
X313646Y292260D01*
X313663Y293087D01*
X313698Y293123D01*
X313716Y293193D01*
X313734Y293281D01*
X313786Y293334D01*
X313822Y293474D01*
X313892Y293580D01*
X313909Y293668D01*
X314006Y293730D01*
X314033Y293756D01*
X314103Y293879D01*
X314165Y293941D01*
X314200Y293958D01*
X314235Y294011D01*
X314358Y294081D01*
X314429Y294187D01*
X314552Y294275D01*
X314578Y294354D01*
X314596Y294565D01*
X314631Y294600D01*
X314648Y294724D01*
X314640Y294908D01*
X314666Y294970D01*
X314701Y295005D01*
X314719Y295075D01*
X314736Y305667D01*
X314789Y305719D01*
X314807Y306001D01*
X314877Y306071D01*
X314895Y306265D01*
X314912Y306318D01*
X314930Y306441D01*
X314965Y306476D01*
X314983Y306599D01*
X315035Y306687D01*
X315071Y306775D01*
X315088Y306863D01*
X315159Y306986D01*
X315211Y307074D01*
X315247Y307197D01*
X315299Y307285D01*
X315387Y307408D01*
X315387Y307426D01*
X315440Y307514D01*
X315475Y307602D01*
X315519Y307663D01*
X315555Y307681D01*
X315581Y307707D01*
X315599Y307743D01*
X315669Y307866D01*
X315730Y307910D01*
X315792Y308006D01*
X315862Y308130D01*
X315942Y308209D01*
X315977Y308227D01*
X316038Y308323D01*
X316161Y308411D01*
X316179Y308446D01*
X316223Y308490D01*
X316258Y308508D01*
X316381Y308596D01*
X316417Y308613D01*
X316478Y308657D01*
X316496Y308693D01*
X316584Y308781D01*
X316601Y308816D01*
X316628Y308842D01*
X316698Y308860D01*
X316856Y308948D01*
X316944Y309036D01*
X317068Y309088D01*
X317191Y309159D01*
X317296Y309229D01*
X317411Y309273D01*
X317498Y309308D01*
X317525Y309335D01*
X317560Y309352D01*
X317613Y309370D01*
X317789Y309423D01*
X317859Y309440D01*
X317982Y309493D01*
X318088Y309511D01*
X318141Y309564D01*
X318352Y309581D01*
X318475Y309634D01*
X318668Y309652D01*
X318721Y309704D01*
X318792Y309722D01*
X322557Y309739D01*
X325433Y309748D01*
X325917Y309739D01*
X325970Y309757D01*
X329400Y309775D01*
X329524Y309863D01*
X329585Y309924D01*
X329612Y310021D01*
X329761Y310170D01*
X329779Y310206D01*
X329823Y310250D01*
X329858Y310267D01*
X330069Y310478D01*
X330183Y310522D01*
X330227Y310566D01*
X330456Y310672D01*
X330597Y310707D01*
X330650Y310760D01*
X330773Y310777D01*
X331019Y310795D01*
X331072Y310813D01*
X331142Y310830D01*
X331424Y310813D01*
X331424Y310813D02*
G37*
G36*
X325794Y304461D02*
X325882Y304426D01*
X326163Y304409D01*
X326234Y304338D01*
X326374Y304321D01*
X326427Y304268D01*
X326524Y304242D01*
X326568Y304180D01*
X326682Y304136D01*
X326832Y303986D01*
X326920Y303934D01*
X327034Y303819D01*
X327087Y303731D01*
X327140Y303679D01*
X327157Y303608D01*
X327192Y303573D01*
X327210Y303538D01*
X327245Y303450D01*
X327263Y303415D01*
X327298Y303327D01*
X327316Y303256D01*
X327368Y303168D01*
X327386Y303116D01*
X327404Y302852D01*
X327439Y302817D01*
X327456Y302746D01*
X327430Y302614D01*
X327404Y302517D01*
X327386Y302394D01*
X327395Y302297D01*
X327377Y302209D01*
X327316Y302148D01*
X327298Y301972D01*
X327245Y301849D01*
X327228Y301814D01*
X327201Y301787D01*
X327166Y301770D01*
X327122Y301655D01*
X327069Y301603D01*
X327052Y301567D01*
X326981Y301497D01*
X326964Y301462D01*
X326911Y301409D01*
X326893Y301374D01*
X326849Y301312D01*
X326823Y301304D01*
X326805Y301268D01*
X326770Y301233D01*
X326753Y301198D01*
X326709Y301136D01*
X326621Y301084D01*
X326559Y300969D01*
X326533Y300855D01*
X326515Y300749D01*
X326454Y300635D01*
X326436Y300564D01*
X326418Y300142D01*
X326401Y300089D01*
X326383Y300019D01*
X326366Y297996D01*
X326286Y297969D01*
X326216Y297987D01*
X325152Y297978D01*
X325099Y298031D01*
X325081Y298207D01*
X325064Y298489D01*
X325073Y299166D01*
X325055Y299500D01*
X325037Y299746D01*
X325020Y300327D01*
X324985Y300415D01*
X324967Y300485D01*
X324958Y300564D01*
X324976Y300617D01*
X324940Y300705D01*
X324905Y300741D01*
X324888Y300811D01*
X324844Y300925D01*
X324800Y300969D01*
X324747Y301057D01*
X324712Y301075D01*
X324694Y301110D01*
X324633Y301154D01*
X324589Y301198D01*
X324571Y301233D01*
X324527Y301277D01*
X324492Y301295D01*
X324272Y301462D01*
X324246Y301488D01*
X324210Y301506D01*
X324166Y301550D01*
X324149Y301585D01*
X324114Y301620D01*
X324096Y301691D01*
X324070Y301735D01*
X324043Y301743D01*
X324026Y301779D01*
X323955Y301849D01*
X323929Y301946D01*
X323876Y302034D01*
X323806Y302051D01*
X323313Y302069D01*
X323260Y302122D01*
X323137Y302139D01*
X318915Y302139D01*
X316839Y302157D01*
X316812Y302183D01*
X316830Y303344D01*
X316874Y303388D01*
X316944Y303406D01*
X322653Y303397D01*
X323428Y303415D01*
X323524Y303459D01*
X323595Y303476D01*
X323700Y303494D01*
X323788Y303547D01*
X323858Y303564D01*
X323911Y303582D01*
X323938Y303608D01*
X323946Y303635D01*
X323982Y303652D01*
X324114Y303784D01*
X324131Y303819D01*
X324210Y303899D01*
X324298Y303951D01*
X324422Y304022D01*
X324448Y304048D01*
X324465Y304083D01*
X324492Y304110D01*
X324527Y304127D01*
X324685Y304215D01*
X324721Y304268D01*
X324817Y304294D01*
X324914Y304338D01*
X325020Y304356D01*
X325073Y304409D01*
X325196Y304426D01*
X325442Y304444D01*
X325530Y304479D01*
X325794Y304461D01*
X325794Y304461D02*
G37*
G36*
X310523Y304461D02*
X310611Y304426D01*
X310875Y304409D01*
X310927Y304356D01*
X310998Y304338D01*
X311103Y304321D01*
X311156Y304268D01*
X311244Y304250D01*
X311297Y304198D01*
X311561Y304057D01*
X311605Y304013D01*
X311622Y303978D01*
X311649Y303951D01*
X311684Y303934D01*
X311763Y303872D01*
X311781Y303837D01*
X311948Y303670D01*
X312062Y303626D01*
X312124Y303564D01*
X312264Y303529D01*
X312317Y303476D01*
X312493Y303459D01*
X312616Y303406D01*
X313479Y303388D01*
X313531Y303406D01*
X314094Y303388D01*
X314191Y303309D01*
X314200Y303230D01*
X314191Y302253D01*
X314209Y302201D01*
X314182Y302157D01*
X314112Y302139D01*
X313663Y302130D01*
X313355Y302139D01*
X313302Y302122D01*
X313030Y302130D01*
X312968Y302104D01*
X312933Y302069D01*
X312863Y302051D01*
X312476Y302034D01*
X312353Y301981D01*
X312229Y301963D01*
X312176Y301946D01*
X312141Y301928D01*
X312097Y301884D01*
X312080Y301849D01*
X312053Y301822D01*
X311930Y301752D01*
X311869Y301691D01*
X311851Y301655D01*
X311781Y301585D01*
X311728Y301497D01*
X311702Y301471D01*
X311605Y301427D01*
X311552Y301339D01*
X311490Y301277D01*
X311376Y301233D01*
X311350Y301207D01*
X311191Y301119D01*
X311174Y301048D01*
X311147Y300987D01*
X311095Y300934D01*
X311077Y300741D01*
X311024Y300617D01*
X311042Y300512D01*
X311024Y300494D01*
X311042Y300459D01*
X311024Y300406D01*
X311042Y300371D01*
X311024Y300318D01*
X311007Y300213D01*
X310989Y300160D01*
X311007Y291029D01*
X311024Y290976D01*
X311042Y290906D01*
X311024Y290853D01*
X311024Y290835D01*
X311042Y290765D01*
X311077Y290730D01*
X311095Y290660D01*
X311112Y290501D01*
X311174Y290457D01*
X311200Y290308D01*
X311235Y290273D01*
X311253Y290167D01*
X311279Y290140D01*
X311315Y290123D01*
X311341Y290044D01*
X311359Y289956D01*
X311446Y289815D01*
X311464Y289780D01*
X311517Y289727D01*
X311570Y289639D01*
X311605Y289604D01*
X311622Y289498D01*
X311745Y289428D01*
X311789Y289314D01*
X311851Y289252D01*
X311869Y289217D01*
X311895Y289191D01*
X311921Y289182D01*
X311939Y289146D01*
X312097Y288988D01*
X312115Y288953D01*
X312176Y288891D01*
X312212Y288874D01*
X312256Y288847D01*
X312273Y288812D01*
X312317Y288768D01*
X312388Y288751D01*
X312484Y288671D01*
X312581Y288575D01*
X312669Y288540D01*
X312704Y288522D01*
X312775Y288452D01*
X312810Y288434D01*
X312968Y288364D01*
X313003Y288346D01*
X313047Y288302D01*
X313056Y288276D01*
X313127Y288258D01*
X313162Y288240D01*
X313250Y288205D01*
X313373Y288188D01*
X313426Y288135D01*
X313514Y288117D01*
X313566Y288064D01*
X313725Y288047D01*
X313813Y288012D01*
X313971Y287994D01*
X314006Y287959D01*
X314094Y287924D01*
X314340Y287906D01*
X314429Y287871D01*
X323419Y287889D01*
X323454Y287924D01*
X323665Y287941D01*
X323770Y288012D01*
X323894Y288029D01*
X323938Y288073D01*
X323955Y288197D01*
X324008Y288284D01*
X324096Y288478D01*
X324114Y288531D01*
X324202Y288619D01*
X324281Y288768D01*
X324316Y288786D01*
X324342Y288812D01*
X324360Y288847D01*
X324404Y288891D01*
X324439Y288909D01*
X324465Y288935D01*
X324474Y288962D01*
X324562Y289014D01*
X324589Y289041D01*
X324606Y289076D01*
X324677Y289146D01*
X324729Y289234D01*
X324782Y289287D01*
X324835Y289410D01*
X324870Y289498D01*
X324888Y289622D01*
X324940Y289674D01*
X324958Y289745D01*
X324976Y289833D01*
X324958Y289885D01*
X325011Y290009D01*
X325028Y290079D01*
X325046Y290484D01*
X325064Y290536D01*
X325046Y290589D01*
X325028Y290976D01*
X325046Y291838D01*
X325028Y292489D01*
X325037Y294257D01*
X325028Y295128D01*
X325081Y295216D01*
X325178Y295243D01*
X326357Y295225D01*
X326383Y295146D01*
X326401Y290325D01*
X326418Y290273D01*
X326436Y290202D01*
X326454Y289885D01*
X326524Y289780D01*
X326541Y289551D01*
X326629Y289358D01*
X326682Y289270D01*
X326717Y289182D01*
X326735Y289146D01*
X326805Y289076D01*
X326876Y288953D01*
X326964Y288865D01*
X326990Y288803D01*
X327069Y288759D01*
X327087Y288724D01*
X327175Y288566D01*
X327201Y288540D01*
X327228Y288531D01*
X327272Y288416D01*
X327316Y288320D01*
X327307Y288276D01*
X327333Y288214D01*
X327386Y288179D01*
X327404Y288109D01*
X327386Y288056D01*
X327404Y287915D01*
X327439Y287880D01*
X327456Y287809D01*
X327439Y287422D01*
X327386Y287299D01*
X327368Y287123D01*
X327316Y287071D01*
X327298Y286947D01*
X327245Y286894D01*
X327228Y286824D01*
X327210Y286789D01*
X327149Y286745D01*
X327131Y286675D01*
X327087Y286613D01*
X327025Y286516D01*
X326964Y286490D01*
X326946Y286455D01*
X326920Y286428D01*
X326885Y286411D01*
X326841Y286384D01*
X326823Y286349D01*
X326761Y286270D01*
X326656Y286252D01*
X326594Y286191D01*
X326586Y286164D01*
X326550Y286147D01*
X326515Y286112D01*
X326418Y286085D01*
X326330Y286068D01*
X326251Y285989D01*
X326110Y285971D01*
X325987Y285918D01*
X325196Y285936D01*
X325073Y285989D01*
X324985Y286006D01*
X324949Y286041D01*
X324914Y286059D01*
X324826Y286094D01*
X324738Y286112D01*
X324633Y286217D01*
X324597Y286235D01*
X324474Y286305D01*
X324439Y286340D01*
X324404Y286358D01*
X324246Y286516D01*
X314517Y286534D01*
X314464Y286587D01*
X314340Y286604D01*
X313901Y286622D01*
X313813Y286657D01*
X313584Y286675D01*
X313479Y286745D01*
X313338Y286763D01*
X313250Y286798D01*
X313179Y286780D01*
X313135Y286807D01*
X313118Y286842D01*
X312977Y286859D01*
X312915Y286921D01*
X312845Y286938D01*
X312792Y286956D01*
X312740Y287009D01*
X312616Y287027D01*
X312564Y287044D01*
X312476Y287097D01*
X312141Y287273D01*
X312097Y287299D01*
X312080Y287334D01*
X311992Y287352D01*
X311939Y287387D01*
X311921Y287422D01*
X311895Y287449D01*
X311807Y287484D01*
X311772Y287519D01*
X311737Y287537D01*
X311640Y287616D01*
X311561Y287695D01*
X311473Y287730D01*
X311429Y287774D01*
X311411Y287809D01*
X311332Y287889D01*
X311297Y287906D01*
X311138Y288064D01*
X311112Y288073D01*
X311059Y288161D01*
X310998Y288223D01*
X310963Y288240D01*
X310866Y288337D01*
X310848Y288372D01*
X310769Y288452D01*
X310690Y288496D01*
X310664Y288592D01*
X310602Y288689D01*
X310532Y288759D01*
X310488Y288874D01*
X310391Y288953D01*
X310373Y288988D01*
X310250Y289217D01*
X310180Y289287D01*
X310162Y289358D01*
X310136Y289454D01*
X310109Y289481D01*
X310021Y289674D01*
X309969Y289815D01*
X309916Y289938D01*
X309898Y290044D01*
X309872Y290070D01*
X309837Y290088D01*
X309819Y290281D01*
X309775Y290378D01*
X309757Y290501D01*
X309740Y290589D01*
X309705Y290624D01*
X309687Y290695D01*
X309669Y291029D01*
X309634Y291117D01*
X309617Y301040D01*
X309555Y301119D01*
X309441Y301145D01*
X309388Y301198D01*
X309370Y301233D01*
X309344Y301259D01*
X309256Y301277D01*
X309159Y301356D01*
X309142Y301391D01*
X309045Y301488D01*
X309010Y301506D01*
X308931Y301585D01*
X308913Y301620D01*
X308860Y301673D01*
X308843Y301743D01*
X308825Y301779D01*
X308799Y301805D01*
X308763Y301822D01*
X308737Y301849D01*
X308720Y301990D01*
X308675Y302051D01*
X308640Y302069D01*
X308614Y302148D01*
X308623Y302192D01*
X308587Y302280D01*
X308561Y302377D01*
X308579Y303133D01*
X308614Y303168D01*
X308631Y303239D01*
X308649Y303327D01*
X308720Y303432D01*
X308746Y303529D01*
X308790Y303591D01*
X308825Y303626D01*
X308843Y303714D01*
X308913Y303784D01*
X308931Y303819D01*
X309010Y303899D01*
X309045Y303916D01*
X309071Y303943D01*
X309080Y303969D01*
X309115Y303986D01*
X309142Y304013D01*
X309159Y304048D01*
X309203Y304092D01*
X309238Y304110D01*
X309274Y304145D01*
X309406Y304171D01*
X309467Y304215D01*
X309520Y304268D01*
X309634Y304312D01*
X309713Y304338D01*
X309802Y304356D01*
X309837Y304409D01*
X309907Y304426D01*
X310118Y304444D01*
X310206Y304479D01*
X310523Y304461D01*
X310523Y304461D02*
G37*
G36*
X374249Y299750D02*
X342249Y299750D01*
X342249Y311750D01*
X374249Y311750D01*
X374249Y299750D01*
X374249Y299750D02*
G37*
%LPC*%
G36*
X331125Y309739D02*
X331072Y309722D01*
X330913Y309704D01*
X330808Y309599D01*
X330685Y309528D01*
X330597Y309423D01*
X330579Y309388D01*
X330544Y309370D01*
X330518Y309291D01*
X330500Y309185D01*
X330465Y309150D01*
X330447Y309027D01*
X330465Y308904D01*
X330518Y308781D01*
X330518Y308745D01*
X330526Y308737D01*
X330588Y308675D01*
X330614Y308578D01*
X330694Y308499D01*
X330711Y308464D01*
X330737Y308438D01*
X330852Y308394D01*
X330878Y308367D01*
X331019Y308350D01*
X331107Y308314D01*
X331177Y308297D01*
X331318Y308332D01*
X331406Y308367D01*
X331512Y308385D01*
X331556Y308411D01*
X331573Y308446D01*
X331635Y308508D01*
X331670Y308526D01*
X331802Y308657D01*
X331819Y308693D01*
X331855Y308728D01*
X331872Y308851D01*
X331890Y308939D01*
X331925Y309027D01*
X331890Y309115D01*
X331872Y309185D01*
X331855Y309326D01*
X331819Y309361D01*
X331802Y309396D01*
X331679Y309520D01*
X331670Y309546D01*
X331635Y309564D01*
X331529Y309634D01*
X331494Y309652D01*
X331441Y309704D01*
X331371Y309722D01*
X331125Y309739D01*
X331125Y309739D02*
G37*
G36*
X320507Y297433D02*
X320410Y297389D01*
X320305Y297371D01*
X320252Y297319D01*
X320093Y297231D01*
X320050Y297204D01*
X320014Y297116D01*
X319944Y297011D01*
X319926Y296940D01*
X319891Y296905D01*
X319874Y296835D01*
X319891Y296500D01*
X319926Y296465D01*
X319962Y296325D01*
X319988Y296298D01*
X320014Y296289D01*
X320032Y296254D01*
X320129Y296157D01*
X320287Y296070D01*
X320322Y296034D01*
X320445Y296017D01*
X320481Y295982D01*
X320560Y295973D01*
X320718Y295990D01*
X320745Y296017D01*
X320815Y296034D01*
X320903Y296052D01*
X321123Y296219D01*
X321175Y296307D01*
X321237Y296351D01*
X321246Y296360D01*
X321264Y296395D01*
X321299Y296483D01*
X321316Y296624D01*
X321334Y296676D01*
X321316Y296782D01*
X321299Y296835D01*
X321281Y296993D01*
X321158Y297169D01*
X321132Y297231D01*
X321096Y297248D01*
X320929Y297363D01*
X320850Y297389D01*
X320727Y297407D01*
X320674Y297424D01*
X320507Y297433D01*
X320507Y297433D02*
G37*
G36*
X315730Y293360D02*
X315238Y293342D01*
X315203Y293307D01*
X315167Y293290D01*
X315132Y293255D01*
X315097Y293237D01*
X315062Y293202D01*
X314983Y293158D01*
X314965Y293123D01*
X314930Y293087D01*
X314912Y293052D01*
X314860Y292929D01*
X314842Y292876D01*
X314807Y292841D01*
X314789Y292771D01*
X314807Y292489D01*
X314877Y292384D01*
X314895Y292296D01*
X314965Y292225D01*
X314983Y292190D01*
X315150Y292023D01*
X315378Y291935D01*
X315493Y291944D01*
X315555Y291935D01*
X315590Y291953D01*
X315642Y291935D01*
X315730Y291953D01*
X315766Y291988D01*
X315898Y292014D01*
X316003Y292120D01*
X316021Y292155D01*
X316161Y292296D01*
X316179Y292366D01*
X316267Y292560D01*
X316249Y292841D01*
X316205Y292885D01*
X316197Y292894D01*
X316179Y292999D01*
X316109Y293105D01*
X316091Y293140D01*
X316065Y293167D01*
X316029Y293184D01*
X315933Y293263D01*
X315827Y293334D01*
X315730Y293360D01*
X315730Y293360D02*
G37*
G36*
X325829Y303406D02*
X325354Y303388D01*
X325196Y303300D01*
X325125Y303230D01*
X325090Y303212D01*
X325064Y303186D01*
X324993Y303063D01*
X324958Y303028D01*
X324932Y302931D01*
X324888Y302887D01*
X324879Y302808D01*
X324897Y302421D01*
X324958Y302377D01*
X324993Y302289D01*
X325011Y302253D01*
X325108Y302157D01*
X325143Y302139D01*
X325187Y302113D01*
X325196Y302104D01*
X325231Y302069D01*
X325372Y302034D01*
X325407Y301998D01*
X325460Y301981D01*
X325512Y301998D01*
X325847Y302016D01*
X325934Y302051D01*
X326022Y302104D01*
X326058Y302139D01*
X326093Y302157D01*
X326128Y302192D01*
X326163Y302209D01*
X326225Y302271D01*
X326242Y302359D01*
X326295Y302412D01*
X326313Y302535D01*
X326366Y302588D01*
X326383Y302658D01*
X326366Y302852D01*
X326295Y302922D01*
X326278Y303045D01*
X326207Y303116D01*
X326154Y303204D01*
X326058Y303265D01*
X326022Y303335D01*
X325952Y303353D01*
X325829Y303406D01*
X325829Y303406D02*
G37*
G36*
X310576Y303406D02*
X310241Y303406D01*
X310100Y303388D01*
X309977Y303318D01*
X309942Y303283D01*
X309907Y303265D01*
X309793Y303186D01*
X309775Y303116D01*
X309669Y303010D01*
X309652Y302887D01*
X309634Y302834D01*
X309652Y302465D01*
X309722Y302341D01*
X309810Y302218D01*
X309828Y302183D01*
X309872Y302139D01*
X309960Y302122D01*
X309995Y302069D01*
X310109Y302025D01*
X310189Y301998D01*
X310523Y302016D01*
X310611Y302051D01*
X310664Y302069D01*
X310716Y302122D01*
X310787Y302139D01*
X310848Y302166D01*
X310866Y302201D01*
X310910Y302245D01*
X310936Y302253D01*
X311042Y302482D01*
X311033Y302526D01*
X311051Y302597D01*
X311077Y302676D01*
X311059Y302817D01*
X311024Y302904D01*
X311042Y302922D01*
X311024Y302975D01*
X310936Y303133D01*
X310831Y303239D01*
X310813Y303274D01*
X310769Y303318D01*
X310576Y303406D01*
X310576Y303406D02*
G37*
G36*
X325635Y288399D02*
X325583Y288381D01*
X325460Y288346D01*
X325372Y288328D01*
X325336Y288293D01*
X325301Y288276D01*
X325178Y288188D01*
X325116Y288126D01*
X325099Y288091D01*
X325028Y288020D01*
X325011Y287950D01*
X324976Y287862D01*
X324958Y287792D01*
X324940Y287704D01*
X324905Y287616D01*
X324923Y287563D01*
X324976Y287458D01*
X324958Y287405D01*
X325028Y287299D01*
X325046Y287211D01*
X325108Y287167D01*
X325134Y287141D01*
X325152Y287106D01*
X325213Y287044D01*
X325301Y287009D01*
X325407Y286991D01*
X325442Y286956D01*
X325512Y286938D01*
X325882Y286956D01*
X325917Y286991D01*
X326022Y287009D01*
X326225Y287211D01*
X326242Y287246D01*
X326295Y287299D01*
X326313Y287387D01*
X326348Y287422D01*
X326383Y287510D01*
X326366Y287862D01*
X326295Y287932D01*
X326278Y288038D01*
X326242Y288073D01*
X326181Y288188D01*
X326067Y288232D01*
X326005Y288293D01*
X325970Y288311D01*
X325934Y288346D01*
X325873Y288355D01*
X325794Y288346D01*
X325785Y288355D01*
X325715Y288372D01*
X325635Y288399D01*
X325635Y288399D02*
G37*
G36*
X371670Y308833D02*
X371627Y308833D01*
X371419Y308825D01*
X371228Y308799D01*
X371055Y308764D01*
X370908Y308729D01*
X370787Y308695D01*
X370700Y308660D01*
X370665Y308643D01*
X370639Y308634D01*
X370631Y308626D01*
X370622Y308626D01*
X370457Y308539D01*
X370310Y308452D01*
X370163Y308366D01*
X370033Y308279D01*
X369929Y308201D01*
X369843Y308141D01*
X369791Y308106D01*
X369782Y308089D01*
X369773Y308089D01*
X369773Y308678D01*
X367963Y308678D01*
X367963Y300986D01*
X373853Y300986D01*
X369773Y300986D01*
X369773Y303325D01*
X369903Y303256D01*
X370024Y303204D01*
X370146Y303152D01*
X370250Y303108D01*
X370336Y303082D01*
X370397Y303056D01*
X370440Y303048D01*
X370457Y303039D01*
X370587Y303004D01*
X370726Y302978D01*
X370865Y302961D01*
X370994Y302952D01*
X371107Y302944D01*
X371202Y302935D01*
X371280Y302935D01*
X371471Y302944D01*
X371653Y302970D01*
X371817Y302996D01*
X371965Y303039D01*
X372077Y303074D01*
X372173Y303100D01*
X372207Y303117D01*
X372233Y303126D01*
X372242Y303134D01*
X372250Y303134D01*
X372415Y303221D01*
X372571Y303307D01*
X372710Y303411D01*
X372831Y303507D01*
X372935Y303593D01*
X373013Y303663D01*
X373056Y303706D01*
X373073Y303723D01*
X373195Y303871D01*
X373307Y304026D01*
X373402Y304182D01*
X373489Y304338D01*
X373550Y304468D01*
X373576Y304520D01*
X373602Y304572D01*
X373610Y304615D01*
X373628Y304641D01*
X373636Y304659D01*
X373636Y304667D01*
X373706Y304884D01*
X373758Y305109D01*
X373801Y305317D01*
X373827Y305516D01*
X373835Y305603D01*
X373844Y305681D01*
X373844Y305750D01*
X373853Y305819D01*
X373853Y305932D01*
X373844Y306174D01*
X373827Y306408D01*
X373801Y306633D01*
X373758Y306833D01*
X373714Y307023D01*
X373671Y307196D01*
X373610Y307352D01*
X373558Y307500D01*
X373506Y307630D01*
X373454Y307742D01*
X373402Y307837D01*
X373359Y307915D01*
X373316Y307976D01*
X373290Y308019D01*
X373273Y308045D01*
X373264Y308054D01*
X373151Y308193D01*
X373021Y308314D01*
X372891Y308418D01*
X372761Y308504D01*
X372623Y308582D01*
X372484Y308643D01*
X372354Y308695D01*
X372225Y308738D01*
X372103Y308764D01*
X371991Y308790D01*
X371887Y308808D01*
X371800Y308825D01*
X371731Y308825D01*
X371670Y308833D01*
X371670Y308833D02*
G37*
G36*
X366291Y308833D02*
X357102Y308833D01*
X360739Y308833D01*
X360549Y308825D01*
X360376Y308799D01*
X360211Y308764D01*
X360073Y308729D01*
X359960Y308695D01*
X359873Y308660D01*
X359839Y308643D01*
X359813Y308634D01*
X359804Y308626D01*
X359795Y308626D01*
X359639Y308539D01*
X359475Y308452D01*
X359328Y308357D01*
X359198Y308262D01*
X359076Y308184D01*
X358990Y308114D01*
X358955Y308089D01*
X358929Y308071D01*
X358921Y308063D01*
X358912Y308054D01*
X358912Y308678D01*
X357102Y308678D01*
X357102Y303048D01*
X358912Y303048D01*
X358912Y307041D01*
X359068Y307127D01*
X359137Y307162D01*
X359206Y307196D01*
X359267Y307222D01*
X359310Y307248D01*
X359345Y307257D01*
X359354Y307266D01*
X359449Y307300D01*
X359544Y307335D01*
X359631Y307352D01*
X359709Y307361D01*
X359778Y307370D01*
X359830Y307378D01*
X359986Y307378D01*
X360090Y307361D01*
X360176Y307352D01*
X360254Y307335D01*
X360306Y307318D01*
X360350Y307309D01*
X360376Y307292D01*
X360384Y307292D01*
X360506Y307214D01*
X360592Y307127D01*
X360618Y307092D01*
X360644Y307058D01*
X360662Y307041D01*
X360662Y307032D01*
X360687Y306963D01*
X360714Y306885D01*
X360748Y306729D01*
X360757Y306659D01*
X360765Y306607D01*
X360765Y306573D01*
X360765Y306556D01*
X360774Y306443D01*
X360783Y306330D01*
X360783Y306209D01*
X360791Y306105D01*
X360791Y306010D01*
X360791Y305932D01*
X360791Y305880D01*
X360791Y305871D01*
X360791Y305863D01*
X360791Y303048D01*
X362602Y303048D01*
X362602Y307041D01*
X362714Y307101D01*
X362809Y307162D01*
X362896Y307205D01*
X362974Y307240D01*
X363035Y307266D01*
X363087Y307283D01*
X363113Y307300D01*
X363121Y307300D01*
X363286Y307344D01*
X363355Y307361D01*
X363424Y307370D01*
X363476Y307378D01*
X363684Y307378D01*
X363788Y307361D01*
X363875Y307352D01*
X363953Y307335D01*
X364005Y307318D01*
X364048Y307309D01*
X364074Y307292D01*
X364083Y307292D01*
X364143Y307257D01*
X364204Y307214D01*
X364247Y307171D01*
X364282Y307127D01*
X364317Y307092D01*
X364334Y307058D01*
X364351Y307041D01*
X364351Y307032D01*
X364377Y306963D01*
X364403Y306885D01*
X364438Y306729D01*
X364446Y306668D01*
X364455Y306616D01*
X364455Y306573D01*
X364455Y306564D01*
X364464Y306452D01*
X364473Y306330D01*
X364473Y306218D01*
X364481Y306105D01*
X364481Y306010D01*
X364481Y305932D01*
X364481Y305880D01*
X364481Y305871D01*
X364481Y305863D01*
X364481Y303048D01*
X366291Y303048D01*
X366291Y306711D01*
X366283Y306902D01*
X366274Y307075D01*
X366248Y307240D01*
X366213Y307387D01*
X366179Y307526D01*
X366144Y307656D01*
X366101Y307777D01*
X366058Y307881D01*
X366006Y307976D01*
X365962Y308054D01*
X365928Y308123D01*
X365893Y308175D01*
X365858Y308218D01*
X365832Y308253D01*
X365824Y308270D01*
X365815Y308279D01*
X365720Y308374D01*
X365616Y308461D01*
X365512Y308539D01*
X365399Y308600D01*
X365287Y308652D01*
X365165Y308695D01*
X364940Y308764D01*
X364836Y308790D01*
X364741Y308808D01*
X364654Y308816D01*
X364576Y308825D01*
X364516Y308833D01*
X366291Y308833D01*
X366291Y308833D02*
G37*
G36*
X349228Y310514D02*
X342646Y310514D01*
X342646Y303048D01*
X342646Y309067D01*
X344976Y309067D01*
X344976Y303048D01*
X342646Y303048D01*
X349228Y303048D01*
X346898Y303048D01*
X346898Y309067D01*
X349228Y309067D01*
X349228Y310514D01*
X349228Y310514D02*
G37*
G36*
X353126Y308851D02*
X349878Y308851D01*
X353065Y308851D01*
X352797Y308842D01*
X352537Y308816D01*
X352303Y308773D01*
X352078Y308721D01*
X351870Y308660D01*
X351671Y308591D01*
X351498Y308522D01*
X351342Y308444D01*
X351203Y308366D01*
X351073Y308296D01*
X350969Y308227D01*
X350883Y308167D01*
X350813Y308114D01*
X350770Y308071D01*
X350736Y308045D01*
X350727Y308037D01*
X350580Y307881D01*
X350450Y307708D01*
X350337Y307534D01*
X350233Y307352D01*
X350155Y307162D01*
X350086Y306980D01*
X350025Y306798D01*
X349982Y306625D01*
X349947Y306460D01*
X349921Y306313D01*
X349904Y306174D01*
X349895Y306062D01*
X349887Y305966D01*
X349878Y305889D01*
X349878Y302900D01*
X349878Y305828D01*
X349887Y305568D01*
X349921Y305326D01*
X349965Y305100D01*
X350017Y304893D01*
X350086Y304702D01*
X350164Y304520D01*
X350242Y304356D01*
X350328Y304208D01*
X350415Y304078D01*
X350493Y303966D01*
X350571Y303871D01*
X350640Y303792D01*
X350692Y303732D01*
X350744Y303689D01*
X350770Y303663D01*
X350779Y303654D01*
X350961Y303524D01*
X351151Y303403D01*
X351351Y303307D01*
X351567Y303221D01*
X351775Y303143D01*
X351991Y303082D01*
X352208Y303039D01*
X352416Y302996D01*
X352606Y302961D01*
X352788Y302944D01*
X352953Y302926D01*
X353091Y302909D01*
X353204Y302909D01*
X353291Y302900D01*
X353369Y302900D01*
X353611Y302909D01*
X353836Y302918D01*
X354035Y302935D01*
X354217Y302961D01*
X354287Y302970D01*
X354356Y302978D01*
X354417Y302987D01*
X354469Y302996D01*
X354512Y303004D01*
X354538Y303004D01*
X354555Y303013D01*
X354564Y303013D01*
X354772Y303056D01*
X354980Y303108D01*
X355170Y303169D01*
X355352Y303230D01*
X355499Y303281D01*
X355569Y303299D01*
X355620Y303316D01*
X355664Y303333D01*
X355699Y303351D01*
X355716Y303359D01*
X355724Y303359D01*
X355724Y304815D01*
X355517Y304815D01*
X355395Y304728D01*
X355257Y304641D01*
X355118Y304563D01*
X354980Y304503D01*
X354858Y304442D01*
X354763Y304399D01*
X354728Y304382D01*
X354702Y304373D01*
X354685Y304364D01*
X354677Y304364D01*
X354477Y304295D01*
X354278Y304243D01*
X354087Y304208D01*
X353923Y304182D01*
X353776Y304165D01*
X353715Y304165D01*
X353663Y304156D01*
X353403Y304156D01*
X353247Y304174D01*
X353109Y304191D01*
X352970Y304208D01*
X352849Y304234D01*
X352736Y304269D01*
X352641Y304295D01*
X352546Y304329D01*
X352468Y304364D01*
X352398Y304390D01*
X352338Y304425D01*
X352286Y304451D01*
X352251Y304468D01*
X352225Y304485D01*
X352208Y304503D01*
X352199Y304503D01*
X352121Y304572D01*
X352043Y304650D01*
X351983Y304728D01*
X351931Y304815D01*
X351844Y304988D01*
X351783Y305152D01*
X351740Y305300D01*
X351732Y305369D01*
X351714Y305421D01*
X351714Y305473D01*
X351706Y305508D01*
X351706Y305525D01*
X351706Y305534D01*
X355828Y305534D01*
X355828Y306157D01*
X355820Y306391D01*
X355802Y306616D01*
X355768Y306824D01*
X355724Y307015D01*
X355664Y307196D01*
X355612Y307361D01*
X355543Y307508D01*
X355482Y307638D01*
X355421Y307759D01*
X355352Y307863D01*
X355300Y307950D01*
X355248Y308019D01*
X355196Y308080D01*
X355162Y308114D01*
X355144Y308141D01*
X355135Y308149D01*
X354997Y308270D01*
X354850Y308383D01*
X354685Y308478D01*
X354521Y308556D01*
X354347Y308626D01*
X354174Y308678D01*
X354010Y308729D01*
X353845Y308764D01*
X353680Y308790D01*
X353542Y308816D01*
X353403Y308833D01*
X353291Y308842D01*
X353195Y308842D01*
X353126Y308851D01*
X353126Y308851D02*
G37*
%LPD*%
G36*
X371029Y307448D02*
X371211Y307404D01*
X371358Y307344D01*
X371480Y307283D01*
X371575Y307214D01*
X371644Y307153D01*
X371687Y307110D01*
X371696Y307101D01*
X371696Y307092D01*
X371748Y307015D01*
X371791Y306937D01*
X371861Y306746D01*
X371913Y306547D01*
X371947Y306356D01*
X371965Y306174D01*
X371973Y306096D01*
X371982Y306036D01*
X371982Y305975D01*
X371982Y305932D01*
X371982Y305906D01*
X371982Y305897D01*
X371982Y305741D01*
X371965Y305603D01*
X371947Y305473D01*
X371930Y305343D01*
X371904Y305230D01*
X371869Y305135D01*
X371835Y305040D01*
X371809Y304953D01*
X371774Y304884D01*
X371739Y304815D01*
X371713Y304763D01*
X371679Y304719D01*
X371661Y304685D01*
X371644Y304659D01*
X371627Y304650D01*
X371627Y304641D01*
X371558Y304572D01*
X371480Y304503D01*
X371315Y304399D01*
X371142Y304329D01*
X370969Y304277D01*
X370804Y304252D01*
X370743Y304234D01*
X370683Y304234D01*
X370631Y304226D01*
X370414Y304226D01*
X370345Y304234D01*
X370232Y304234D01*
X370189Y304243D01*
X370154Y304243D01*
X370007Y304260D01*
X369947Y304277D01*
X369886Y304295D01*
X369843Y304303D01*
X369808Y304321D01*
X369782Y304329D01*
X369773Y304329D01*
X369773Y307162D01*
X369955Y307257D01*
X370042Y307300D01*
X370120Y307326D01*
X370189Y307352D01*
X370241Y307370D01*
X370276Y307387D01*
X370284Y307387D01*
X370484Y307430D01*
X370570Y307448D01*
X370648Y307456D01*
X370717Y307465D01*
X370925Y307465D01*
X371029Y307448D01*
X371029Y307448D02*
G37*
G36*
X364247Y308825D02*
X364065Y308790D01*
X363901Y308747D01*
X363754Y308703D01*
X363624Y308652D01*
X363563Y308626D01*
X363520Y308608D01*
X363485Y308591D01*
X363459Y308574D01*
X363442Y308565D01*
X363433Y308565D01*
X363243Y308461D01*
X363052Y308348D01*
X362879Y308227D01*
X362714Y308114D01*
X362584Y308011D01*
X362524Y307967D01*
X362480Y307933D01*
X362437Y307898D01*
X362411Y307872D01*
X362394Y307863D01*
X362385Y307855D01*
X362290Y308019D01*
X362177Y308167D01*
X362065Y308296D01*
X361961Y308400D01*
X361865Y308478D01*
X361787Y308539D01*
X361735Y308574D01*
X361727Y308582D01*
X361718Y308582D01*
X361554Y308669D01*
X361389Y308729D01*
X361225Y308773D01*
X361069Y308799D01*
X360939Y308825D01*
X360878Y308825D01*
X360835Y308833D01*
X364429Y308833D01*
X364247Y308825D01*
X364247Y308825D02*
G37*
G36*
X353126Y307716D02*
X353291Y307682D01*
X353438Y307638D01*
X353550Y307586D01*
X353637Y307526D01*
X353698Y307482D01*
X353741Y307448D01*
X353750Y307439D01*
X353836Y307318D01*
X353906Y307188D01*
X353958Y307049D01*
X353992Y306911D01*
X354018Y306781D01*
X354027Y306685D01*
X354035Y306642D01*
X354035Y306616D01*
X354035Y306599D01*
X354035Y306590D01*
X351697Y306590D01*
X351723Y306798D01*
X351775Y306971D01*
X351836Y307118D01*
X351896Y307240D01*
X351965Y307335D01*
X352017Y307396D01*
X352052Y307439D01*
X352069Y307448D01*
X352199Y307543D01*
X352346Y307612D01*
X352485Y307656D01*
X352624Y307690D01*
X352745Y307708D01*
X352840Y307725D01*
X352927Y307725D01*
X353126Y307716D01*
X353126Y307716D02*
G37*
D10*
X355499Y289500D02*
X371999Y289500D01*
X371999Y298250D01*
X355499Y298250D01*
X355499Y289500D01*
D11*
X288003Y318166D02*
X289669Y316500D01*
X288003Y318166D02*
X298000Y318166D01*
X298000Y319832D01*
X298000Y316500D01*
M02*
