M48
;Layer_Color=9474304
;FILE_FORMAT=4:4
METRIC,TZ
;TYPE=PLATED
T1F00S00C0.1500
%
T01
X290750Y274750
X291500Y284750
X291500Y290000
X291250Y294750
X290750Y319750
X344500Y296500
X344000Y280000
X368000Y296750
X384000Y300000
X384500Y310000
X384500Y314750
X378250Y260750
X432750Y268000
X439750Y267500
X442750Y278750
X440500Y290500
X440500Y295750
X440750Y300250
X440750Y304750
X440500Y309750
X440750Y315250
X441000Y321250
X440000Y328500
X459500Y283750
M30
