M48
;Layer_Color=9474304
;FILE_FORMAT=4:4
METRIC,TZ
;TYPE=PLATED
T1F00S00C0.1500
%
T01
X320380Y979040
X320630Y984290
X320630Y989290
X320630Y994540
X321130Y999790
X325130Y1014290
X320880Y1019290
X366630Y1010040
X371630Y1013790
X374630Y1018040
X385630Y1027540
X392880Y998040
X375630Y986040
X396650Y1097950
X396650Y1104450
X396650Y1130950
X322650Y1118450
X322650Y1113700
X322650Y1108950
X322650Y1103700
X322650Y1098700
X322650Y1093450
X322650Y1088450
X309150Y1175830
X304150Y1187330
X288650Y1160580
X406150Y1126200
X419150Y1113950
X419150Y1108950
X421150Y1103950
X425650Y1103700
X430150Y1103700
X427150Y1088450
X421150Y1091950
X414900Y1070950
X404150Y1067950
X411650Y1059450
X415630Y1028790
X407630Y1028790
X403880Y1017540
X432880Y1015290
X433130Y988540
X452880Y997790
X467630Y1028540
X497880Y1026040
X527130Y1026540
X557130Y1027290
X587130Y1027040
X617880Y1027790
X647130Y983540
X677130Y981290
X707130Y980040
X737130Y979040
X767130Y975790
X775630Y975540
X736750Y1074750
X742400Y1160330
X740150Y1164330
X733400Y1175580
X733650Y1184830
X720150Y1173080
X703400Y1172080
X703650Y1167080
X703650Y1178080
X704150Y1183830
X704150Y1189080
X646900Y1188080
X646900Y1183330
X646150Y1174330
X645900Y1169830
X645400Y1161330
X646290Y1118810
X645540Y1108810
X645540Y1103560
X645790Y1098810
X646290Y1073810
X592540Y1097060
X593040Y1113560
X569040Y1096810
X553040Y1093560
X552540Y1083560
X552540Y1078810
X496290Y1078310
X496540Y1083810
X496290Y1088810
X496290Y1093310
X496540Y1097810
X496540Y1103060
X494290Y1114810
X497290Y1126060
X504290Y1125560
X477540Y1109810
X478150Y1160080
X482650Y1160330
X487150Y1160580
X473400Y1160330
X468900Y1160330
X464400Y1160330
X459650Y1160330
X452900Y1160580
X500150Y1165580
X500150Y1171580
X509900Y1171580
X510150Y1176080
X509900Y1183580
X493900Y1190580
X565150Y1179080
X572400Y1178830
X576900Y1178830
X571900Y1183330
X592650Y1178330
X603400Y1166080
X582150Y1165830
X561400Y1166080
X558790Y1132810
X496040Y1072310
X497040Y1065060
X439650Y1073950
X397150Y1087950
X409630Y974790
X758650Y1178580
X766650Y1172830
X772650Y1171830
X794749Y1108500
X794749Y1097250
X806749Y1108500
X812749Y1108500
X817999Y1100500
X821249Y1097250
X817999Y1094000
X812749Y1085250
X806749Y1085250
X777400Y1212830
X778150Y1234080
X751900Y1225330
X747150Y1225330
X742650Y1225330
X738150Y1233330
X720900Y1233830
X721400Y1228330
X734900Y1210580
X735400Y1199580
X758900Y1195080
X712150Y1193830
X700900Y1204080
X701150Y1208580
X701150Y1213080
X640650Y1226080
X624150Y1211830
X625650Y1203330
X620650Y1203580
X626900Y1195080
X646650Y1192580
X593400Y1206580
X586650Y1206330
X586650Y1210830
X585900Y1201830
X569650Y1203830
X571900Y1236830
X560150Y1233330
X592650Y1230580
X589900Y1223580
X602400Y1234830
X607650Y1234830
X612650Y1234830
X617150Y1233580
X512650Y1228080
X515150Y1224330
X509150Y1217580
X516400Y1211830
X513650Y1207830
X509400Y1195830
X493650Y1207080
X498900Y1226830
X504650Y1226830
X480650Y1234830
X476150Y1234830
X471400Y1234830
X466650Y1234830
X448150Y1234580
X443150Y1234580
X446150Y1223580
X451150Y1213830
X451650Y1199830
X466900Y1199330
X434900Y1209830
X425400Y1209330
X412650Y1199830
X425150Y1236830
X323150Y1191330
X303900Y1191830
X303900Y1196580
X309150Y1199830
X297150Y1200330
X297150Y1193330
M30
