M48
;Layer_Color=9474304
;FILE_FORMAT=4:4
METRIC,LZ
;TYPE=PLATED
T1F00S00C0.1500
%
T01
X002705Y0026025
X0026975Y002845
X0027Y0029175
Y0029825
X0027675Y00295
X00282Y0029825
X00280079Y00286
X0027875Y002775
X00282Y0027425
X00296Y0028975
X00383565Y00297311
X00396265Y00306761
X00396016Y00334261
X0040075Y0033425
X00405765Y00334261
X00422027Y00335011
X00426595
X0043025Y00332
X004345Y00334
X0043825Y003315
X004525Y00332
X00469766Y00325511
X004745Y003255
X00483516Y00325511
X0048825Y0032575
X0048475Y0029725
X00485Y002895
Y002815
X00474Y002685
X004705Y002655
X0047175Y00261
X0048025
X00454016Y00258876
X00449515
X00445016
X0043775Y00276
Y002885
X00437766Y00296761
X00426016Y00297261
X004275Y0028875
X00425444Y00310968
X00413915Y00321091
X00405765Y00307261
X00417015Y00269511
X00464Y0028825
X0046375Y002955
X0053925Y00298
X0054475Y0028225
X0054525Y002775
X0055025Y0027725
X005655Y0027675
X005555Y00265
X005605Y0025775
X0057625Y002645
X0058225Y0027075
X005925Y0025975
X0061875Y0026825
X00619Y0027275
X0060825Y00301
X005935Y00302
X00597Y0031025
X0059975Y002935
X006135Y003245
X005855Y0033325
X0058125Y0033175
X00575Y0033175
X0056625Y0033325
X0056275Y0033025
X0055425Y0032875
X005495Y003215
X0054925Y00317
X0054375Y003175
X0053975Y0032025
X005625Y003205
X0056275Y0031325
X0055625Y003125
X0055375Y00305
X0055775Y0030175
X0054075Y00267
X0053575
X00677Y002665
X0067675Y0026175
X00677Y0027725
Y0028225
Y002875
X00685Y0029225
X0067375Y003025
X00674Y00307
Y003115
X0069425Y0032675
X0069375Y0033225
X00711Y0033175
X007155Y0032375
X0072
X0072475
X0070775Y00309
X0070825Y00298
X007065Y0028325
X0070625Y00274
X0071025Y002695
X007155Y00266
Y0026075
X007315Y00277
X007395Y0027125
X007455Y0027025
X0073175Y002935
X0075025Y0031125
X00751Y003325
X00693Y002715
M30
