M48
;Layer_Color=9474304
;FILE_FORMAT=4:4
METRIC,LZ
;TYPE=PLATED
T1F00S00C0.1500
%
T01
X0032038Y0097904
X0032063Y0098429
Y0098929
Y0099454
X0032113Y0099979
X0032513Y0101429
X0032088Y0101929
X0036663Y0101004
X0037163Y0101379
X0037463Y0101804
X0038563Y0102754
X0039288Y0099804
X0037563Y0098604
X0039665Y0109795
Y0110445
Y0113095
X0032265Y0111845
Y011137
Y0110895
Y011037
Y010987
Y0109345
Y0108845
X0039715Y0108795
X0040415Y0106795
X004149Y0107095
X0041165Y0105945
X0041563Y0102879
X0040763
X0040388Y0101754
X0043288Y0101529
X0043313Y0098854
X0045288Y0099779
X0046763Y0102854
X0049788Y0102604
X0052713Y0102654
X0055713Y0102729
X0058713Y0102704
X0061788Y0102779
X0064713Y0098354
X0067713Y0098129
X0070713Y0098004
X0073713Y0097904
X0076713Y0097579
X0077563Y0097554
X0073675Y0107475
X0064629Y0107381
X0064579Y0109881
X0064554Y0110356
Y0110881
X0064629Y0111881
X0059304Y0111356
X0059254Y0109706
X0056904Y0109681
X0055304Y0109356
X0055254Y0108356
Y0107881
X0049629Y0107831
X0049654Y0108381
X0049629Y0108881
Y0109331
X0049654Y0109781
Y0110306
X0049429Y0111481
X0049729Y0112606
X0050429Y0112556
X0047754Y0110981
X0043015Y011037
X0042565Y011037
X0042115Y0110395
X0041915Y0110895
Y0111395
X0042115Y0109195
X0042715Y0108845
X0043965Y0107395
X0049604Y0107231
X0049704Y0106506
X0055879Y0113281
X0040615Y011262
X0040963Y0097479
X00794749Y01094
Y011085
X00806749
X00812749
X00817999Y011005
X00821249Y0109725
X00817999Y01094
X00812749Y0108525
X00806749
M30
