M48
;Layer_Color=9474304
;FILE_FORMAT=4:4
METRIC,TZ
;TYPE=NON_PLATED
T2F00S00C0.2000
%
G90
G05
T02
G00X292750Y1045000
M15
G01X282750
M16
G00X317750Y1045000
M15
G01X307750
M16
G00X342750Y1045000
M15
G01X332750
M16
G00X367750Y1045000
M15
G01X357750
M16
G00X392750Y1045000
M15
G01X382750
M16
G00X417750Y1045000
M15
G01X407750
M16
G00X442750Y1045000
M15
G01X432750
M16
G00X467750Y1045000
M15
G01X457750
M16
G00X492750Y1045000
M15
G01X482750
M16
G00X517750Y1045000
M15
G01X507750
M16
G00X542750Y1045000
M15
G01X532750
M16
G00X567750Y1045000
M15
G01X557750
M16
G00X592750Y1045000
M15
G01X582750
M16
G00X617750Y1045000
M15
G01X607750
M16
G00X642750Y1045000
M15
G01X632750
M16
G00X667750Y1045000
M15
G01X657750
M16
G00X692750Y1045000
M15
G01X682750
M16
G00X690000Y1070000
M15
G01Y1060000
M16
G00X690000Y1095000
M15
G01Y1085000
M16
G00X690000Y1120000
M15
G01Y1110000
M16
G00X690000Y1145000
M15
G01Y1135000
M16
G00X717750Y1045000
M15
G01X707750
M16
G00X742750Y1045000
M15
G01X732750
M16
G00X767750Y1045000
M15
G01X757750
M16
G00X792750Y1045000
M15
G01X782750
M16
G00X456000Y1070500
M15
G01Y1060500
M16
G00X456000Y1095500
M15
G01Y1085500
M16
G00X456000Y1120500
M15
G01Y1110500
M16
G00X456000Y1145500
M15
G01Y1135500
M16
G00X817500Y1045000
M15
G01X807500
M16
M17
M30
