M48
;Layer_Color=9474304
;FILE_FORMAT=4:4
METRIC,LZ
;TYPE=NON_PLATED
T2F00S00C0.2000
%
G90
G05
T02
G00X0029275Y01045
M15
G01X0028275
M16
G00X0031775Y01045
M15
G01X0030775
M16
G00X0034275Y01045
M15
G01X0033275
M16
G00X0036775Y01045
M15
G01X0035775
M16
G00X0039275Y01045
M15
G01X0038275
M16
G00X0041775Y01045
M15
G01X0040775
M16
G00X0044275Y01045
M15
G01X0043275
M16
G00X0046775Y01045
M15
G01X0045775
M16
G00X0049275Y01045
M15
G01X0048275
M16
G00X0051775Y01045
M15
G01X0050775
M16
G00X0054275Y01045
M15
G01X0053275
M16
G00X0056775Y01045
M15
G01X0055775
M16
G00X0059275Y01045
M15
G01X0058275
M16
G00X0061775Y01045
M15
G01X0060775
M16
G00X0064275Y01045
M15
G01X0063275
M16
G00X0066775Y01045
M15
G01X0065775
M16
G00X0069275Y01045
M15
G01X0068275
M16
G00X0069Y0107
M15
G01Y0106
M16
G00X0069Y01095
M15
G01Y01085
M16
G00X0069Y0112
M15
G01Y0111
M16
G00X0069Y01145
M15
G01Y01135
M16
G00X0071775Y01045
M15
G01X0070775
M16
G00X0074275Y01045
M15
G01X0073275
M16
G00X0076775Y01045
M15
G01X0075775
M16
G00X0079275Y01045
M15
G01X0078275
M16
G00X00456Y010705
M15
G01Y010605
M16
G00X00456Y010955
M15
G01Y010855
M16
G00X00456Y011205
M15
G01Y011105
M16
G00X00456Y011455
M15
G01Y011355
M16
G00X008175Y01045
M15
G01X008075
M16
M17
M30
