M48
;Layer_Color=9474304
;FILE_FORMAT=4:4
METRIC,LZ
;TYPE=PLATED
T01F00S00C0.1500
%
T01
X0032038Y0097904
X0032063Y0098429
Y0098929
Y0099454
X0032113Y0099979
X0032513Y0101429
X0032088Y0101929
X0037463Y0101804
X0037013Y0101354
X0036613Y0100879
X0036288Y0099804
X0036738Y0099404
X0037388Y0098729
X0038563Y0102754
X0038965Y0107595
X0039515Y0107845
X00396859Y010877
Y0109845
X0039515Y0111395
X0032265Y011137
Y0110895
Y011037
Y010987
Y0109345
Y0108845
Y011187
X004139Y011087
X0041915
X0042365
X004294
Y0109845
X0041915
X004139Y010987
X0042115Y010877
X004364Y0107845
X0043915Y010722
Y011207
X0047754Y0110981
X0049429Y0111481
X0049654Y0110306
Y0109781
X0049629Y0109331
Y0108806
Y0108306
Y0107831
X0049304Y0107356
X0049704Y0106506
X0049788Y0102604
X0052713Y0102654
X0055713Y0102729
X0058713Y0102704
X0061788Y0102779
X0063938Y0099154
X0067263Y0098979
X0069963Y0099179
X0073438Y0098729
X0076363
X0077413Y0097554
X0079Y010945
X0073675Y0107475
X0064629Y0107381
X0064579Y0109881
X0064554Y0110356
Y0110881
X0064629Y0111881
X0059354Y0111256
X0059329Y0110456
Y0109031
X0056904Y0109681
X0055254Y0108356
Y0107881
X0055879Y0113281
X0050429Y0112556
X0049729Y0112606
X0046763Y0102854
X0045288Y0099779
X0043213Y0098929
X0043188Y0101429
X0041563Y0102879
X0040763
X0040388Y0101754
X0040763Y0097404
X00397109Y0108295
X008015Y0108525
X00806749
X00812749
X00821249Y0109725
X00812749Y011085
X00806749
X008015
M30
