M48
;Layer_Color=9474304
;FILE_FORMAT=4:4
METRIC,TZ
;TYPE=PLATED
T1F00S00C0.1500
%
T01
X320380Y979040
X320630Y984290
X320630Y989290
X320630Y994540
X321130Y999790
X325130Y1014290
X320880Y1019290
X366630Y1010040
X371630Y1013790
X374630Y1018040
X385630Y1027540
X392880Y998040
X375630Y986040
X396650Y1097950
X396650Y1104450
X396650Y1130950
X322650Y1118450
X322650Y1113700
X322650Y1108950
X322650Y1103700
X322650Y1098700
X322650Y1093450
X322650Y1088450
X397150Y1087950
X404150Y1067950
X414900Y1070950
X411650Y1059450
X415630Y1028790
X407630Y1028790
X403880Y1017540
X432880Y1015290
X433130Y988540
X452880Y997790
X467630Y1028540
X497880Y1026040
X527130Y1026540
X557130Y1027290
X587130Y1027040
X617880Y1027790
X647130Y983540
X677130Y981290
X707130Y980040
X737130Y979040
X767130Y975790
X775630Y975540
X736750Y1074750
X646290Y1073810
X645790Y1098810
X645540Y1103560
X645540Y1108810
X646290Y1118810
X593040Y1113560
X592540Y1097060
X569040Y1096810
X553040Y1093560
X552540Y1083560
X552540Y1078810
X496290Y1078310
X496540Y1083810
X496290Y1088810
X496290Y1093310
X496540Y1097810
X496540Y1103060
X494290Y1114810
X497290Y1126060
X504290Y1125560
X477540Y1109810
X430150Y1103700
X425650Y1103700
X421150Y1103950
X419150Y1108950
X419150Y1113950
X421150Y1091950
X427150Y1088450
X439650Y1073950
X496040Y1072310
X497040Y1065060
X558790Y1132810
X406150Y1126200
X409630Y974790
X794749Y1094000
X794749Y1108500
X806749Y1108500
X812749Y1108500
X817999Y1100500
X821249Y1097250
X817999Y1094000
X812749Y1085250
X806749Y1085250
M30
