G04*
G04 #@! TF.GenerationSoftware,Altium Limited,Altium Designer,23.2.1 (34)*
G04*
G04 Layer_Physical_Order=3*
G04 Layer_Color=65280*
%FSLAX44Y44*%
%MOMM*%
G71*
G04*
G04 #@! TF.SameCoordinates,A09DFDA7-D9F1-4DE4-ACD4-BFB300AD21FA*
G04*
G04*
G04 #@! TF.FilePolarity,Positive*
G04*
G01*
G75*
%ADD10C,0.2000*%
%ADD19C,0.1000*%
%ADD21C,0.3500*%
G36*
X298227Y289000D02*
X296750Y288275D01*
X296750Y290725D01*
X298227Y290000D01*
X298227Y289000D01*
X298227Y289000D02*
G37*
G36*
X298227Y294000D02*
X296750Y293275D01*
X296750Y295725D01*
X298227Y295000D01*
X298227Y294000D01*
X298227Y294000D02*
G37*
G36*
X298227Y299250D02*
X296750Y298525D01*
X296750Y300975D01*
X298227Y300250D01*
X298227Y299250D01*
X298227Y299250D02*
G37*
G36*
X298227Y304250D02*
X296750Y303525D01*
X296750Y305975D01*
X298227Y305250D01*
X298227Y304250D01*
X298227Y304250D02*
G37*
G36*
X298227Y309500D02*
X296750Y308775D01*
X296750Y311225D01*
X298227Y310500D01*
X298227Y309500D01*
X298227Y309500D02*
G37*
G36*
X298259Y314375D02*
X296834Y313617D01*
X296659Y316061D01*
X298185Y315375D01*
X298259Y314375D01*
X298259Y314375D02*
G37*
G36*
X297986Y318500D02*
X296750Y318275D01*
X296750Y320725D01*
X297986Y320500D01*
X297986Y318500D01*
X297986Y318500D02*
G37*
G36*
X392750Y303775D02*
X391273Y304500D01*
X391273Y305500D01*
X392750Y306225D01*
X392750Y303775D01*
X392750Y303775D02*
G37*
G36*
X399000Y302023D02*
X398000Y302023D01*
X397275Y303500D01*
X399725Y303500D01*
X399000Y302023D01*
X399000Y302023D02*
G37*
G36*
X403500Y302023D02*
X402500Y302023D01*
X401775Y303500D01*
X404225Y303500D01*
X403500Y302023D01*
X403500Y302023D02*
G37*
G36*
X398522Y288563D02*
X397664Y288740D01*
X397664Y289740D01*
X398312Y289960D01*
X398522Y288563D01*
X398522Y288563D02*
G37*
G36*
X389273Y310500D02*
X390750Y311225D01*
X390750Y308775D01*
X389273Y309500D01*
X389273Y310500D01*
X389273Y310500D02*
G37*
G36*
X389241Y315375D02*
X390666Y316133D01*
X390841Y313689D01*
X389315Y314375D01*
X389241Y315375D01*
X389241Y315375D02*
G37*
G36*
X378000Y324764D02*
X377775Y326000D01*
X380225Y326000D01*
X380000Y324764D01*
X378000Y324764D01*
X378000Y324764D02*
G37*
D10*
X295500Y319500D02*
X376000Y319500D01*
X379000Y322500D01*
X379000Y327250D01*
D19*
X295500Y289500D02*
X363750Y289500D01*
X368000Y285250D01*
X393675Y285250D01*
X397664Y289240D01*
X399740Y289240D01*
X400000Y289500D01*
X399846Y294250D02*
X400154Y294250D01*
X403000Y297096D01*
X403000Y304750D01*
X398500Y304750D02*
X398500Y301750D01*
X395750Y299000D01*
X392000Y299000D01*
X388750Y295750D01*
X367750Y295750D01*
X363750Y299750D01*
X295500Y299750D01*
X295500Y304750D02*
X365654Y304750D01*
X368154Y302250D01*
X370846Y302250D01*
X373596Y305000D01*
X394000Y305000D01*
X392000Y310000D02*
X295500Y310000D01*
X295500Y314750D02*
X295625Y314875D01*
X391875Y314875D01*
X392000Y315000D01*
X395346Y289750D02*
X399846Y294250D01*
X395346Y289750D02*
X375596Y289750D01*
X372346Y293000D01*
X366000Y293000D01*
X364500Y294500D01*
X295500Y294500D01*
D21*
X295500Y289500D02*
D03*
X295500Y294500D02*
D03*
X295500Y299750D02*
D03*
X295500Y304750D02*
D03*
X295500Y310000D02*
D03*
X295500Y314750D02*
D03*
X295500Y319500D02*
D03*
X377000Y269000D02*
D03*
X387750Y272000D02*
D03*
X384500Y260500D02*
D03*
X412500Y275000D02*
D03*
X400000Y289500D02*
D03*
X394000Y293000D02*
D03*
X398500Y304750D02*
D03*
X403000Y304750D02*
D03*
X394000Y305000D02*
D03*
X392000Y310000D02*
D03*
X392000Y315000D02*
D03*
X369500Y332000D02*
D03*
X379000Y327250D02*
D03*
X369500Y305500D02*
D03*
X369500Y299000D02*
D03*
X370000Y289000D02*
D03*
M02*
