M48
;Layer_Color=9474304
;FILE_FORMAT=4:4
METRIC,LZ
;TYPE=PLATED
T1F00S00C0.1500
T4F00S00C0.8900
T5F00S00C1.0200
%
T01
X0011225Y0016
X001382Y001602
X0012225Y001819
X0009775
X002688Y0019375
X0027775Y0015875
X00295Y0015625
X0030775
X0031425
X00327Y0016375
Y0017375
Y0018875
X0034285Y001685
X0035875Y0017625
Y0020125
X0039175Y001905
Y001785
Y001575
X003795Y001665
X0035875Y0014625
X003015Y0012475
X0027525
X002688
X0026225
X002425
X0024925Y0022675
X0003675Y0023675
X0003625Y002045
X0002825Y0019
Y00175
X000375Y0013975
X00038Y000855
T04
X0011425Y000446
X0013965
X0016505
X0019045
X0021585
X0024125
X0026665
X0029205
X0031745
X0034285
Y0007
X0031745
X0029205
X0026665
X0024125
X0021585
X0019045
X0016505
X0013965
X0011425
X001164Y0028
X001418
X001672
X001926
X00218
X002434
X002688
X002942
X003196
X00345
Y003054
X003196
X002942
X002688
X002434
X00218
X001926
X001672
X001418
X001164
T05
X000795Y00123
X001049
X001303
X001557
X001811
X002065
Y0022
X001811
X001557
X001303
X001049
X000795
M30
