G04*
G04 #@! TF.GenerationSoftware,Altium Limited,Altium Designer,23.2.1 (34)*
G04*
G04 Layer_Color=65535*
%FSLAX44Y44*%
%MOMM*%
G71*
G04*
G04 #@! TF.SameCoordinates,F2287B00-1274-4912-88F7-879E23109F00*
G04*
G04*
G04 #@! TF.FilePolarity,Positive*
G04*
G01*
G75*
%ADD10C,0.0500*%
%ADD11C,0.1500*%
G36*
X467009Y323138D02*
X467164Y323076D01*
X467472Y323045D01*
X467565Y322952D01*
X467766Y322906D01*
X467812Y322859D01*
X468013Y322813D01*
X468060Y322767D01*
X468121Y322736D01*
X468245Y322612D01*
X468369Y322581D01*
X468523Y322520D01*
X468693Y322350D01*
X468709Y322303D01*
X468770Y322272D01*
X468832Y322180D01*
X468894Y322149D01*
X469002Y322041D01*
X469033Y321979D01*
X469126Y321917D01*
X469172Y321747D01*
X469249Y321670D01*
X469280Y321608D01*
X469404Y321484D01*
X469450Y321314D01*
X469558Y321206D01*
X469589Y320990D01*
X469682Y320897D01*
X469713Y320557D01*
X469775Y320403D01*
X469744Y319538D01*
X469713Y319445D01*
X469682Y319228D01*
X469651Y319074D01*
X469589Y318919D01*
X469558Y318765D01*
X469404Y318641D01*
X469373Y318456D01*
X469249Y318332D01*
X469218Y318270D01*
X469157Y318209D01*
X469080Y318039D01*
X469018Y318008D01*
X468940Y317931D01*
X468925Y317884D01*
X468863Y317853D01*
X468693Y317683D01*
X468662Y317621D01*
X468585Y317544D01*
X468461Y317513D01*
X468369Y317421D01*
X468214Y317328D01*
X468152Y317266D01*
X468029Y317235D01*
X467874Y317173D01*
X467828Y317127D01*
X467797Y317003D01*
X467766Y303530D01*
X467673Y303314D01*
X467643Y302943D01*
X467550Y302788D01*
X467504Y302464D01*
X467457Y302325D01*
X467426Y302108D01*
X467333Y302016D01*
X467287Y301815D01*
X467210Y301645D01*
X467164Y301444D01*
X466978Y301135D01*
X466916Y300980D01*
X466839Y300872D01*
X466777Y300810D01*
X466746Y300749D01*
X466623Y300563D01*
X466576Y300362D01*
X466515Y300301D01*
X466453Y300270D01*
X466376Y300161D01*
X466314Y300007D01*
X466283Y299945D01*
X466175Y299868D01*
X466005Y299698D01*
X465927Y299559D01*
X465866Y299528D01*
X465711Y299312D01*
X465649Y299281D01*
X465572Y299203D01*
X465541Y299142D01*
X465433Y299034D01*
X465371Y299003D01*
X465093Y298786D01*
X464753Y298446D01*
X464599Y298384D01*
X464413Y298261D01*
X464320Y298230D01*
X464197Y298106D01*
X463857Y297952D01*
X463424Y297705D01*
X463301Y297674D01*
X463208Y297643D01*
X463115Y297550D01*
X462992Y297519D01*
X462822Y297473D01*
X462775Y297426D01*
X462559Y297396D01*
X462389Y297349D01*
X462049Y297318D01*
X461941Y297210D01*
X461817Y297179D01*
X461385Y297148D01*
X461230Y297087D01*
X452516Y297056D01*
X452330Y296932D01*
X451774Y296901D01*
X451743Y296839D01*
X451619Y296808D01*
X451372Y296778D01*
X451279Y296747D01*
X450754Y296469D01*
X450708Y296422D01*
X450677Y296360D01*
X450476Y296159D01*
X450414Y296129D01*
X450291Y296005D01*
X450229Y295974D01*
X450167Y295912D01*
X450105Y295881D01*
X449935Y295742D01*
X449873Y295711D01*
X449842Y295650D01*
X449796Y295603D01*
X449673Y295572D01*
X449611Y295541D01*
X449518Y295449D01*
X449333Y295418D01*
X449240Y295325D01*
X449116Y295294D01*
X448962Y295263D01*
X448869Y295171D01*
X448637Y295186D01*
X448359Y295155D01*
X448282Y295078D01*
X448158Y295047D01*
X447757Y295078D01*
X447540Y295171D01*
X447108Y295201D01*
X446891Y295294D01*
X446644Y295325D01*
X446582Y295418D01*
X446381Y295495D01*
X446150Y295603D01*
X445995Y295758D01*
X445933Y295789D01*
X445872Y295851D01*
X445717Y295912D01*
X445547Y296051D01*
X445516Y296113D01*
X445470Y296190D01*
X445423Y296206D01*
X445362Y296360D01*
X445331Y296422D01*
X445284Y296469D01*
X445223Y296500D01*
X445114Y296608D01*
X445022Y296762D01*
X444867Y297009D01*
X444836Y297133D01*
X444805Y297349D01*
X444744Y297473D01*
X444775Y297535D01*
X444682Y297689D01*
X444620Y297751D01*
X444651Y298864D01*
X444713Y298925D01*
X444775Y299111D01*
X444744Y299203D01*
X444805Y299358D01*
X444852Y299559D01*
X444898Y299605D01*
X444960Y299852D01*
X445006Y299899D01*
X445068Y299930D01*
X445114Y299976D01*
X445145Y300131D01*
X445223Y300208D01*
X445284Y300239D01*
X445423Y300378D01*
X445609Y300718D01*
X445655Y300764D01*
X445872Y300888D01*
X446041Y301027D01*
X446088Y301073D01*
X446490Y301259D01*
X446551Y301289D01*
X446644Y301382D01*
X446768Y301413D01*
X446922Y301444D01*
X447138Y301537D01*
X447664Y301567D01*
X447880Y301660D01*
X448282Y301629D01*
X448375Y301537D01*
X448514Y301521D01*
X448869Y301537D01*
X449054Y301413D01*
X449240Y301382D01*
X449333Y301289D01*
X449518Y301259D01*
X449580Y301197D01*
X449750Y301150D01*
X449873Y301027D01*
X449889Y300980D01*
X450167Y300826D01*
X450399Y300656D01*
X450430Y300594D01*
X450770Y300254D01*
X450785Y300208D01*
X450940Y300115D01*
X451001Y300053D01*
X451063Y300022D01*
X451249Y299899D01*
X451372Y299868D01*
X451712Y299682D01*
X451867Y299621D01*
X452052Y299590D01*
X452145Y299559D01*
X452330Y299528D01*
X452423Y299435D01*
X452547Y299404D01*
X453010Y299373D01*
X453165Y299312D01*
X460952Y299342D01*
X461014Y299404D01*
X461539Y299435D01*
X461617Y299543D01*
X461910Y299590D01*
X462003Y299621D01*
X462126Y299652D01*
X462312Y299775D01*
X462435Y299806D01*
X462497Y299868D01*
X462729Y299914D01*
X462837Y300022D01*
X462992Y300115D01*
X463208Y300208D01*
X463270Y300239D01*
X463548Y300517D01*
X463671Y300548D01*
X463811Y300687D01*
X463842Y300749D01*
X463888Y300795D01*
X463950Y300826D01*
X464011Y300888D01*
X464058Y300903D01*
X464089Y300965D01*
X464228Y301104D01*
X464290Y301135D01*
X464367Y301274D01*
X464398Y301397D01*
X464506Y301506D01*
X464568Y301537D01*
X464645Y301614D01*
X464707Y301768D01*
X464799Y301861D01*
X464830Y302077D01*
X464939Y302155D01*
X464985Y302201D01*
X465016Y302386D01*
X465078Y302448D01*
X465108Y302665D01*
X465155Y302711D01*
X465217Y302742D01*
X465248Y302989D01*
X465294Y303128D01*
X465309Y303360D01*
X465294Y303468D01*
X465325Y303561D01*
X465356Y303684D01*
X465418Y303839D01*
X465387Y316880D01*
X465294Y317096D01*
X465263Y317158D01*
X465217Y317204D01*
X465016Y317282D01*
X464985Y317343D01*
X464939Y317390D01*
X464753Y317421D01*
X464630Y317544D01*
X464459Y317591D01*
X464367Y317745D01*
X464336Y317807D01*
X464151Y317931D01*
X464058Y318023D01*
X464027Y318085D01*
X463980Y318131D01*
X463919Y318162D01*
X463780Y318394D01*
X463687Y318610D01*
X463656Y318672D01*
X463424Y318904D01*
X463285Y318919D01*
X445269Y318888D01*
X445099Y318842D01*
X444728Y318811D01*
X444574Y318750D01*
X444357Y318718D01*
X444203Y318626D01*
X444110Y318595D01*
X443925Y318564D01*
X443832Y318471D01*
X443662Y318425D01*
X443585Y318348D01*
X443461Y318317D01*
X443260Y318239D01*
X443214Y318193D01*
X443013Y318116D01*
X442936Y318008D01*
X442750Y317977D01*
X442704Y317931D01*
X442673Y317869D01*
X442441Y317761D01*
X442225Y317544D01*
X442163Y317513D01*
X442117Y317467D01*
X442086Y317405D01*
X441885Y317204D01*
X441823Y317173D01*
X441746Y317096D01*
X441715Y317034D01*
X441638Y316957D01*
X441530Y316911D01*
X441499Y316849D01*
X441437Y316787D01*
X441406Y316725D01*
X441298Y316617D01*
X441236Y316586D01*
X441159Y316478D01*
X441035Y316262D01*
X440942Y316169D01*
X440664Y315644D01*
X440510Y315396D01*
X440479Y315180D01*
X440386Y315088D01*
X440355Y314871D01*
X440263Y314778D01*
X440232Y314562D01*
X440201Y314438D01*
X440170Y314346D01*
X440139Y313882D01*
X440046Y313790D01*
X440015Y313666D01*
X439985Y309834D01*
X439954Y309741D01*
X439985Y307794D01*
X439954Y307702D01*
X439985Y304982D01*
X439954Y304890D01*
X439938Y302834D01*
X439954Y302201D01*
X439923Y302108D01*
X439938Y301320D01*
X439923Y300903D01*
X439954Y300810D01*
X439938Y299775D01*
X439954Y299760D01*
X439923Y299667D01*
X439954Y298956D01*
X440015Y298802D01*
X440046Y297009D01*
X440108Y296855D01*
X440139Y296731D01*
X440170Y296329D01*
X440201Y295341D01*
X440232Y295248D01*
X440263Y294383D01*
X440309Y294305D01*
X440463Y294244D01*
X440587Y294089D01*
X440803Y294058D01*
X440865Y293996D01*
X441020Y293904D01*
X441205Y293718D01*
X441329Y293687D01*
X441375Y293641D01*
X441406Y293579D01*
X441653Y293332D01*
X441777Y293116D01*
X441962Y292992D01*
X442009Y292760D01*
X442194Y292389D01*
X442271Y292312D01*
X442302Y292034D01*
X442395Y291941D01*
X442364Y290582D01*
X442271Y290365D01*
X442240Y290118D01*
X442194Y290072D01*
X442148Y290056D01*
X442117Y289933D01*
X442086Y289778D01*
X441900Y289438D01*
X441839Y289376D01*
X441684Y289098D01*
X441514Y288990D01*
X441360Y288805D01*
X441267Y288712D01*
X441205Y288681D01*
X441051Y288619D01*
X440989Y288588D01*
X440865Y288465D01*
X440525Y288279D01*
X440463Y288218D01*
X440139Y288140D01*
X439985Y288078D01*
X439846Y288032D01*
X438238Y288063D01*
X438177Y288125D01*
X437929Y288156D01*
X437837Y288187D01*
X437590Y288248D01*
X437466Y288372D01*
X437404Y288403D01*
X437188Y288527D01*
X437095Y288619D01*
X436879Y288743D01*
X436570Y289052D01*
X436508Y289083D01*
X436369Y289345D01*
X436214Y289500D01*
X436153Y289655D01*
X436122Y289716D01*
X436029Y289933D01*
X435998Y289994D01*
X435905Y290087D01*
X435874Y290365D01*
X435813Y290427D01*
X435782Y290551D01*
X435813Y292003D01*
X435874Y292065D01*
X435905Y292188D01*
X435936Y292343D01*
X436029Y292436D01*
X436091Y292683D01*
X436214Y292868D01*
X436245Y293023D01*
X436415Y293131D01*
X436462Y293177D01*
X436585Y293394D01*
X436693Y293502D01*
X436755Y293533D01*
X436817Y293626D01*
X437033Y293749D01*
X437157Y293934D01*
X437373Y294089D01*
X437420Y294228D01*
X437450Y294599D01*
X437512Y294661D01*
X437543Y294877D01*
X437528Y295201D01*
X437574Y295310D01*
X437636Y295371D01*
X437667Y295495D01*
X437698Y314099D01*
X437790Y314191D01*
X437821Y314686D01*
X437945Y314809D01*
X437976Y315149D01*
X438007Y315242D01*
X438038Y315458D01*
X438100Y315520D01*
X438130Y315736D01*
X438223Y315891D01*
X438285Y316045D01*
X438316Y316200D01*
X438439Y316416D01*
X438532Y316571D01*
X438594Y316787D01*
X438687Y316942D01*
X438841Y317158D01*
X438841Y317189D01*
X438934Y317343D01*
X438996Y317498D01*
X439073Y317606D01*
X439135Y317637D01*
X439181Y317683D01*
X439212Y317745D01*
X439336Y317961D01*
X439444Y318039D01*
X439552Y318209D01*
X439675Y318425D01*
X439815Y318564D01*
X439876Y318595D01*
X439985Y318765D01*
X440201Y318919D01*
X440232Y318981D01*
X440309Y319058D01*
X440371Y319089D01*
X440587Y319244D01*
X440649Y319275D01*
X440757Y319352D01*
X440788Y319414D01*
X440942Y319568D01*
X440973Y319630D01*
X441020Y319676D01*
X441143Y319707D01*
X441422Y319862D01*
X441576Y320017D01*
X441792Y320109D01*
X442009Y320233D01*
X442194Y320356D01*
X442395Y320434D01*
X442550Y320495D01*
X442596Y320542D01*
X442658Y320573D01*
X442750Y320604D01*
X443059Y320696D01*
X443183Y320727D01*
X443399Y320820D01*
X443585Y320851D01*
X443677Y320944D01*
X444048Y320974D01*
X444265Y321067D01*
X444604Y321098D01*
X444697Y321191D01*
X444821Y321222D01*
X451434Y321253D01*
X456487Y321268D01*
X457336Y321253D01*
X457429Y321283D01*
X463455Y321314D01*
X463671Y321469D01*
X463780Y321577D01*
X463826Y321747D01*
X464089Y322010D01*
X464120Y322071D01*
X464197Y322149D01*
X464259Y322180D01*
X464630Y322551D01*
X464830Y322628D01*
X464908Y322705D01*
X465309Y322890D01*
X465557Y322952D01*
X465649Y323045D01*
X465866Y323076D01*
X466298Y323107D01*
X466391Y323138D01*
X466515Y323168D01*
X467009Y323138D01*
X467009Y323138D02*
G37*
G36*
X457120Y311982D02*
X457275Y311920D01*
X457769Y311889D01*
X457893Y311765D01*
X458140Y311735D01*
X458233Y311642D01*
X458403Y311595D01*
X458480Y311487D01*
X458681Y311410D01*
X458943Y311147D01*
X459098Y311055D01*
X459299Y310854D01*
X459392Y310699D01*
X459484Y310607D01*
X459515Y310483D01*
X459577Y310421D01*
X459608Y310359D01*
X459670Y310205D01*
X459701Y310143D01*
X459762Y309988D01*
X459793Y309865D01*
X459886Y309710D01*
X459917Y309618D01*
X459948Y309154D01*
X460009Y309092D01*
X460040Y308969D01*
X459994Y308737D01*
X459948Y308567D01*
X459917Y308351D01*
X459932Y308181D01*
X459901Y308026D01*
X459793Y307918D01*
X459762Y307609D01*
X459670Y307393D01*
X459639Y307331D01*
X459592Y307285D01*
X459530Y307254D01*
X459453Y307053D01*
X459361Y306960D01*
X459330Y306898D01*
X459206Y306775D01*
X459175Y306713D01*
X459082Y306620D01*
X459052Y306558D01*
X458974Y306450D01*
X458928Y306435D01*
X458897Y306373D01*
X458835Y306311D01*
X458804Y306249D01*
X458727Y306141D01*
X458573Y306048D01*
X458464Y305847D01*
X458418Y305647D01*
X458387Y305461D01*
X458279Y305260D01*
X458248Y305137D01*
X458217Y304395D01*
X458186Y304302D01*
X458155Y304179D01*
X458125Y300625D01*
X457985Y300579D01*
X457862Y300609D01*
X455992Y300594D01*
X455900Y300687D01*
X455869Y300996D01*
X455838Y301490D01*
X455853Y302680D01*
X455822Y303267D01*
X455791Y303700D01*
X455760Y304720D01*
X455699Y304874D01*
X455668Y304998D01*
X455652Y305137D01*
X455683Y305229D01*
X455621Y305384D01*
X455560Y305446D01*
X455529Y305569D01*
X455451Y305770D01*
X455374Y305847D01*
X455281Y306002D01*
X455220Y306033D01*
X455189Y306095D01*
X455080Y306172D01*
X455003Y306249D01*
X454972Y306311D01*
X454895Y306388D01*
X454833Y306419D01*
X454447Y306713D01*
X454401Y306759D01*
X454339Y306790D01*
X454262Y306867D01*
X454231Y306929D01*
X454169Y306991D01*
X454138Y307115D01*
X454092Y307192D01*
X454045Y307207D01*
X454014Y307269D01*
X453891Y307393D01*
X453844Y307563D01*
X453752Y307717D01*
X453628Y307748D01*
X452763Y307779D01*
X452670Y307872D01*
X452454Y307903D01*
X445037Y307903D01*
X441391Y307934D01*
X441344Y307980D01*
X441375Y310019D01*
X441452Y310097D01*
X441576Y310128D01*
X451604Y310112D01*
X452964Y310143D01*
X453134Y310220D01*
X453257Y310251D01*
X453443Y310282D01*
X453597Y310375D01*
X453721Y310406D01*
X453814Y310437D01*
X453860Y310483D01*
X453875Y310529D01*
X453937Y310560D01*
X454169Y310792D01*
X454200Y310854D01*
X454339Y310993D01*
X454493Y311086D01*
X454710Y311209D01*
X454756Y311255D01*
X454787Y311317D01*
X454833Y311364D01*
X454895Y311395D01*
X455173Y311549D01*
X455235Y311642D01*
X455405Y311688D01*
X455575Y311765D01*
X455760Y311796D01*
X455853Y311889D01*
X456069Y311920D01*
X456502Y311951D01*
X456657Y312013D01*
X457120Y311982D01*
X457120Y311982D02*
G37*
G36*
X430297Y311982D02*
X430451Y311920D01*
X430915Y311889D01*
X431007Y311796D01*
X431131Y311765D01*
X431316Y311735D01*
X431409Y311642D01*
X431563Y311611D01*
X431656Y311518D01*
X432120Y311271D01*
X432197Y311194D01*
X432228Y311132D01*
X432274Y311086D01*
X432336Y311055D01*
X432475Y310947D01*
X432506Y310885D01*
X432800Y310591D01*
X433000Y310514D01*
X433109Y310406D01*
X433356Y310344D01*
X433449Y310251D01*
X433758Y310220D01*
X433974Y310128D01*
X435488Y310097D01*
X435581Y310128D01*
X436570Y310097D01*
X436740Y309958D01*
X436755Y309819D01*
X436740Y308103D01*
X436771Y308011D01*
X436724Y307934D01*
X436601Y307903D01*
X435813Y307887D01*
X435272Y307903D01*
X435179Y307872D01*
X434700Y307887D01*
X434592Y307841D01*
X434530Y307779D01*
X434407Y307748D01*
X433727Y307717D01*
X433510Y307624D01*
X433294Y307593D01*
X433201Y307563D01*
X433140Y307532D01*
X433062Y307454D01*
X433031Y307393D01*
X432985Y307346D01*
X432769Y307223D01*
X432661Y307115D01*
X432630Y307053D01*
X432506Y306929D01*
X432413Y306775D01*
X432367Y306728D01*
X432197Y306651D01*
X432104Y306497D01*
X431996Y306388D01*
X431795Y306311D01*
X431749Y306265D01*
X431471Y306110D01*
X431440Y305987D01*
X431394Y305879D01*
X431301Y305786D01*
X431270Y305446D01*
X431177Y305229D01*
X431208Y305044D01*
X431177Y305013D01*
X431208Y304951D01*
X431177Y304859D01*
X431208Y304797D01*
X431177Y304704D01*
X431146Y304519D01*
X431115Y304426D01*
X431146Y288388D01*
X431177Y288295D01*
X431208Y288171D01*
X431177Y288078D01*
X431177Y288048D01*
X431208Y287924D01*
X431270Y287862D01*
X431301Y287738D01*
X431332Y287460D01*
X431440Y287383D01*
X431486Y287120D01*
X431548Y287059D01*
X431579Y286873D01*
X431625Y286827D01*
X431687Y286796D01*
X431734Y286657D01*
X431764Y286502D01*
X431919Y286255D01*
X431950Y286193D01*
X432043Y286101D01*
X432135Y285946D01*
X432197Y285884D01*
X432228Y285699D01*
X432444Y285575D01*
X432522Y285375D01*
X432630Y285266D01*
X432661Y285205D01*
X432707Y285158D01*
X432753Y285143D01*
X432784Y285081D01*
X433062Y284803D01*
X433093Y284741D01*
X433201Y284633D01*
X433263Y284602D01*
X433340Y284555D01*
X433371Y284494D01*
X433449Y284417D01*
X433572Y284386D01*
X433742Y284247D01*
X433912Y284076D01*
X434067Y284015D01*
X434128Y283984D01*
X434252Y283860D01*
X434314Y283829D01*
X434592Y283706D01*
X434654Y283675D01*
X434731Y283598D01*
X434747Y283551D01*
X434870Y283520D01*
X434932Y283489D01*
X435087Y283428D01*
X435303Y283397D01*
X435396Y283304D01*
X435550Y283273D01*
X435643Y283180D01*
X435921Y283150D01*
X436075Y283088D01*
X436353Y283057D01*
X436415Y282995D01*
X436570Y282933D01*
X437002Y282902D01*
X437157Y282840D01*
X452948Y282871D01*
X453010Y282933D01*
X453381Y282964D01*
X453566Y283088D01*
X453783Y283119D01*
X453860Y283196D01*
X453891Y283412D01*
X453983Y283567D01*
X454138Y283907D01*
X454169Y283999D01*
X454323Y284154D01*
X454463Y284417D01*
X454524Y284447D01*
X454571Y284494D01*
X454602Y284555D01*
X454679Y284633D01*
X454741Y284664D01*
X454787Y284710D01*
X454802Y284756D01*
X454957Y284849D01*
X455003Y284895D01*
X455034Y284957D01*
X455158Y285081D01*
X455251Y285235D01*
X455343Y285328D01*
X455436Y285544D01*
X455498Y285699D01*
X455529Y285915D01*
X455621Y286008D01*
X455652Y286132D01*
X455683Y286286D01*
X455652Y286379D01*
X455745Y286595D01*
X455776Y286719D01*
X455807Y287430D01*
X455838Y287522D01*
X455807Y287615D01*
X455776Y288295D01*
X455807Y289809D01*
X455776Y290952D01*
X455791Y294058D01*
X455776Y295588D01*
X455869Y295742D01*
X456039Y295789D01*
X458109Y295758D01*
X458155Y295619D01*
X458186Y287151D01*
X458217Y287059D01*
X458248Y286935D01*
X458279Y286379D01*
X458403Y286193D01*
X458433Y285792D01*
X458588Y285452D01*
X458681Y285297D01*
X458742Y285143D01*
X458773Y285081D01*
X458897Y284957D01*
X459021Y284741D01*
X459175Y284587D01*
X459221Y284478D01*
X459361Y284401D01*
X459392Y284339D01*
X459546Y284061D01*
X459592Y284015D01*
X459639Y283999D01*
X459716Y283798D01*
X459793Y283629D01*
X459778Y283551D01*
X459824Y283443D01*
X459917Y283381D01*
X459948Y283258D01*
X459917Y283165D01*
X459948Y282918D01*
X460009Y282856D01*
X460040Y282732D01*
X460009Y282052D01*
X459917Y281836D01*
X459886Y281527D01*
X459793Y281434D01*
X459762Y281218D01*
X459670Y281125D01*
X459639Y281002D01*
X459608Y280940D01*
X459500Y280863D01*
X459469Y280739D01*
X459392Y280631D01*
X459283Y280461D01*
X459175Y280415D01*
X459144Y280353D01*
X459098Y280306D01*
X459036Y280275D01*
X458959Y280229D01*
X458928Y280167D01*
X458820Y280028D01*
X458634Y279997D01*
X458526Y279889D01*
X458511Y279843D01*
X458449Y279812D01*
X458387Y279750D01*
X458217Y279704D01*
X458063Y279673D01*
X457924Y279534D01*
X457676Y279503D01*
X457460Y279410D01*
X456069Y279441D01*
X455853Y279534D01*
X455699Y279565D01*
X455637Y279627D01*
X455575Y279657D01*
X455420Y279719D01*
X455266Y279750D01*
X455080Y279936D01*
X455019Y279967D01*
X454802Y280090D01*
X454741Y280152D01*
X454679Y280183D01*
X454401Y280461D01*
X437311Y280492D01*
X437219Y280585D01*
X437002Y280615D01*
X436230Y280646D01*
X436075Y280708D01*
X435674Y280739D01*
X435488Y280863D01*
X435241Y280894D01*
X435087Y280955D01*
X434963Y280924D01*
X434886Y280971D01*
X434855Y281033D01*
X434608Y281063D01*
X434499Y281172D01*
X434376Y281203D01*
X434283Y281234D01*
X434190Y281326D01*
X433974Y281357D01*
X433881Y281388D01*
X433727Y281481D01*
X433140Y281790D01*
X433062Y281836D01*
X433031Y281898D01*
X432877Y281929D01*
X432784Y281991D01*
X432753Y282052D01*
X432707Y282099D01*
X432552Y282161D01*
X432491Y282222D01*
X432429Y282253D01*
X432259Y282392D01*
X432120Y282531D01*
X431965Y282593D01*
X431888Y282670D01*
X431857Y282732D01*
X431718Y282871D01*
X431656Y282902D01*
X431378Y283180D01*
X431332Y283196D01*
X431239Y283350D01*
X431131Y283458D01*
X431069Y283489D01*
X430899Y283659D01*
X430868Y283721D01*
X430729Y283860D01*
X430590Y283937D01*
X430544Y284107D01*
X430436Y284277D01*
X430312Y284401D01*
X430235Y284602D01*
X430065Y284741D01*
X430034Y284803D01*
X429818Y285205D01*
X429694Y285328D01*
X429663Y285452D01*
X429617Y285622D01*
X429570Y285668D01*
X429416Y286008D01*
X429323Y286255D01*
X429230Y286472D01*
X429199Y286657D01*
X429153Y286703D01*
X429091Y286734D01*
X429060Y287074D01*
X428983Y287244D01*
X428952Y287460D01*
X428921Y287615D01*
X428859Y287677D01*
X428829Y287800D01*
X428798Y288388D01*
X428736Y288542D01*
X428705Y305971D01*
X428597Y306110D01*
X428396Y306157D01*
X428303Y306249D01*
X428272Y306311D01*
X428226Y306357D01*
X428072Y306388D01*
X427902Y306527D01*
X427871Y306589D01*
X427701Y306759D01*
X427639Y306790D01*
X427500Y306929D01*
X427469Y306991D01*
X427376Y307084D01*
X427345Y307207D01*
X427314Y307269D01*
X427268Y307315D01*
X427206Y307346D01*
X427160Y307393D01*
X427129Y307640D01*
X427052Y307748D01*
X426990Y307779D01*
X426944Y307918D01*
X426959Y307995D01*
X426897Y308150D01*
X426851Y308320D01*
X426882Y309649D01*
X426944Y309710D01*
X426974Y309834D01*
X427005Y309988D01*
X427129Y310174D01*
X427175Y310344D01*
X427253Y310452D01*
X427314Y310514D01*
X427345Y310668D01*
X427469Y310792D01*
X427500Y310854D01*
X427639Y310993D01*
X427701Y311024D01*
X427747Y311070D01*
X427762Y311117D01*
X427824Y311147D01*
X427871Y311194D01*
X427902Y311255D01*
X427979Y311333D01*
X428041Y311364D01*
X428102Y311425D01*
X428334Y311472D01*
X428442Y311549D01*
X428535Y311642D01*
X428736Y311719D01*
X428875Y311765D01*
X429030Y311796D01*
X429091Y311889D01*
X429215Y311920D01*
X429586Y311951D01*
X429740Y312013D01*
X430297Y311982D01*
X430297Y311982D02*
G37*
G36*
X415500Y320750D02*
X415500Y275750D01*
X395500Y275750D01*
X395500Y320750D01*
X415500Y320750D01*
X415500Y320750D02*
G37*
G36*
X374000Y336500D02*
X374000Y276500D01*
X354000Y276500D01*
X354000Y336500D01*
X374000Y336500D01*
X374000Y336500D02*
G37*
%LPC*%
G36*
X466484Y321253D02*
X466391Y321222D01*
X466113Y321191D01*
X465927Y321005D01*
X465711Y320882D01*
X465557Y320696D01*
X465526Y320634D01*
X465464Y320604D01*
X465418Y320465D01*
X465387Y320279D01*
X465325Y320217D01*
X465294Y320001D01*
X465325Y319785D01*
X465418Y319568D01*
X465418Y319507D01*
X465433Y319491D01*
X465541Y319383D01*
X465588Y319213D01*
X465727Y319074D01*
X465757Y319012D01*
X465804Y318966D01*
X466005Y318888D01*
X466051Y318842D01*
X466298Y318811D01*
X466453Y318750D01*
X466576Y318718D01*
X466824Y318780D01*
X466978Y318842D01*
X467164Y318873D01*
X467241Y318919D01*
X467272Y318981D01*
X467380Y319089D01*
X467442Y319120D01*
X467673Y319352D01*
X467704Y319414D01*
X467766Y319476D01*
X467797Y319692D01*
X467828Y319846D01*
X467890Y320001D01*
X467828Y320155D01*
X467797Y320279D01*
X467766Y320526D01*
X467704Y320588D01*
X467673Y320650D01*
X467457Y320866D01*
X467442Y320913D01*
X467380Y320944D01*
X467194Y321067D01*
X467133Y321098D01*
X467040Y321191D01*
X466916Y321222D01*
X466484Y321253D01*
X466484Y321253D02*
G37*
G36*
X447834Y299636D02*
X447664Y299559D01*
X447478Y299528D01*
X447386Y299435D01*
X447108Y299281D01*
X447030Y299234D01*
X446968Y299080D01*
X446845Y298894D01*
X446814Y298771D01*
X446752Y298709D01*
X446721Y298585D01*
X446752Y297998D01*
X446814Y297936D01*
X446876Y297689D01*
X446922Y297643D01*
X446968Y297627D01*
X447000Y297566D01*
X447169Y297396D01*
X447448Y297241D01*
X447509Y297179D01*
X447726Y297148D01*
X447788Y297087D01*
X447926Y297071D01*
X448205Y297102D01*
X448251Y297148D01*
X448375Y297179D01*
X448529Y297210D01*
X448915Y297504D01*
X449008Y297658D01*
X449116Y297736D01*
X449132Y297751D01*
X449163Y297813D01*
X449225Y297967D01*
X449255Y298215D01*
X449286Y298307D01*
X449255Y298493D01*
X449225Y298585D01*
X449194Y298864D01*
X448977Y299173D01*
X448931Y299281D01*
X448869Y299312D01*
X448576Y299513D01*
X448436Y299559D01*
X448220Y299590D01*
X448127Y299621D01*
X447834Y299636D01*
X447834Y299636D02*
G37*
G36*
X439444Y292482D02*
X438578Y292451D01*
X438517Y292389D01*
X438455Y292358D01*
X438393Y292297D01*
X438331Y292266D01*
X438269Y292204D01*
X438130Y292127D01*
X438100Y292065D01*
X438038Y292003D01*
X438007Y291941D01*
X437914Y291725D01*
X437883Y291632D01*
X437821Y291570D01*
X437790Y291447D01*
X437821Y290952D01*
X437945Y290767D01*
X437976Y290613D01*
X438100Y290489D01*
X438130Y290427D01*
X438424Y290133D01*
X438826Y289979D01*
X439027Y289994D01*
X439135Y289979D01*
X439197Y290010D01*
X439289Y289979D01*
X439444Y290010D01*
X439506Y290072D01*
X439737Y290118D01*
X439923Y290303D01*
X439954Y290365D01*
X440201Y290613D01*
X440232Y290736D01*
X440386Y291076D01*
X440355Y291570D01*
X440278Y291648D01*
X440263Y291663D01*
X440232Y291849D01*
X440108Y292034D01*
X440077Y292096D01*
X440031Y292142D01*
X439969Y292173D01*
X439799Y292312D01*
X439614Y292436D01*
X439444Y292482D01*
X439444Y292482D02*
G37*
G36*
X457182Y310128D02*
X456348Y310097D01*
X456069Y309942D01*
X455946Y309819D01*
X455884Y309788D01*
X455838Y309741D01*
X455714Y309525D01*
X455652Y309463D01*
X455606Y309293D01*
X455529Y309216D01*
X455513Y309077D01*
X455544Y308397D01*
X455652Y308320D01*
X455714Y308165D01*
X455745Y308103D01*
X455915Y307934D01*
X455977Y307903D01*
X456054Y307856D01*
X456069Y307841D01*
X456131Y307779D01*
X456379Y307717D01*
X456440Y307655D01*
X456533Y307624D01*
X456626Y307655D01*
X457213Y307686D01*
X457367Y307748D01*
X457522Y307841D01*
X457584Y307903D01*
X457645Y307934D01*
X457707Y307995D01*
X457769Y308026D01*
X457877Y308134D01*
X457908Y308289D01*
X458001Y308382D01*
X458032Y308598D01*
X458125Y308691D01*
X458155Y308814D01*
X458125Y309154D01*
X458001Y309278D01*
X457970Y309494D01*
X457846Y309618D01*
X457754Y309772D01*
X457584Y309880D01*
X457522Y310004D01*
X457398Y310035D01*
X457182Y310128D01*
X457182Y310128D02*
G37*
G36*
X430389Y310128D02*
X429802Y310128D01*
X429555Y310097D01*
X429338Y309973D01*
X429277Y309911D01*
X429215Y309880D01*
X429014Y309741D01*
X428983Y309618D01*
X428798Y309432D01*
X428767Y309216D01*
X428736Y309123D01*
X428767Y308474D01*
X428890Y308258D01*
X429045Y308042D01*
X429076Y307980D01*
X429153Y307903D01*
X429308Y307872D01*
X429369Y307779D01*
X429570Y307702D01*
X429709Y307655D01*
X430297Y307686D01*
X430451Y307748D01*
X430544Y307779D01*
X430636Y307872D01*
X430760Y307903D01*
X430868Y307949D01*
X430899Y308011D01*
X430976Y308088D01*
X431023Y308103D01*
X431208Y308505D01*
X431193Y308582D01*
X431224Y308706D01*
X431270Y308845D01*
X431239Y309092D01*
X431177Y309247D01*
X431208Y309278D01*
X431177Y309370D01*
X431023Y309649D01*
X430837Y309834D01*
X430806Y309896D01*
X430729Y309973D01*
X430389Y310128D01*
X430389Y310128D02*
G37*
G36*
X456842Y283768D02*
X456749Y283737D01*
X456533Y283675D01*
X456379Y283644D01*
X456317Y283582D01*
X456255Y283551D01*
X456039Y283397D01*
X455930Y283288D01*
X455900Y283227D01*
X455776Y283103D01*
X455745Y282980D01*
X455683Y282825D01*
X455652Y282701D01*
X455621Y282547D01*
X455560Y282392D01*
X455590Y282300D01*
X455683Y282114D01*
X455652Y282022D01*
X455776Y281836D01*
X455807Y281682D01*
X455915Y281604D01*
X455961Y281558D01*
X455992Y281496D01*
X456100Y281388D01*
X456255Y281326D01*
X456440Y281295D01*
X456502Y281234D01*
X456626Y281203D01*
X457275Y281234D01*
X457336Y281295D01*
X457522Y281326D01*
X457877Y281682D01*
X457908Y281743D01*
X458001Y281836D01*
X458032Y281991D01*
X458093Y282052D01*
X458155Y282207D01*
X458125Y282825D01*
X458001Y282949D01*
X457970Y283134D01*
X457908Y283196D01*
X457800Y283397D01*
X457599Y283474D01*
X457491Y283582D01*
X457429Y283613D01*
X457367Y283675D01*
X457259Y283690D01*
X457120Y283675D01*
X457105Y283690D01*
X456981Y283721D01*
X456842Y283768D01*
X456842Y283768D02*
G37*
G36*
X409380Y309077D02*
X409380Y306097D01*
X409372Y306400D01*
X409354Y306703D01*
X409320Y306981D01*
X409302Y307111D01*
X409285Y307232D01*
X409268Y307336D01*
X409250Y307440D01*
X409233Y307526D01*
X409216Y307604D01*
X409207Y307665D01*
X409198Y307708D01*
X409190Y307734D01*
X409190Y307743D01*
X409120Y308037D01*
X409086Y308176D01*
X409051Y308306D01*
X409016Y308419D01*
X408982Y308531D01*
X408956Y308635D01*
X408921Y308722D01*
X408895Y308800D01*
X408869Y308878D01*
X408852Y308938D01*
X408835Y308981D01*
X408817Y309025D01*
X408809Y309051D01*
X408800Y309068D01*
X408800Y309077D01*
X401620Y309077D01*
X401620Y309077D01*
X405119Y309077D01*
X405119Y305638D01*
X406531Y305638D01*
X406531Y307119D01*
X407986Y307119D01*
X407994Y307033D01*
X407994Y306955D01*
X408003Y306920D01*
X408003Y306634D01*
X407994Y306400D01*
X407977Y306184D01*
X407943Y305976D01*
X407899Y305794D01*
X407856Y305612D01*
X407795Y305456D01*
X407735Y305309D01*
X407674Y305188D01*
X407613Y305067D01*
X407561Y304971D01*
X407501Y304885D01*
X407458Y304815D01*
X407414Y304763D01*
X407379Y304729D01*
X407362Y304703D01*
X407354Y304694D01*
X407224Y304582D01*
X407085Y304478D01*
X406938Y304391D01*
X406782Y304322D01*
X406617Y304252D01*
X406461Y304200D01*
X406306Y304157D01*
X406158Y304122D01*
X406011Y304096D01*
X405881Y304079D01*
X405760Y304062D01*
X405656Y304053D01*
X405578Y304053D01*
X405509Y304044D01*
X405474Y304044D01*
X405457Y304044D01*
X405240Y304053D01*
X405041Y304070D01*
X404859Y304105D01*
X404703Y304140D01*
X404573Y304166D01*
X404521Y304183D01*
X404478Y304200D01*
X404443Y304209D01*
X404417Y304218D01*
X404409Y304226D01*
X404400Y304226D01*
X404235Y304304D01*
X404080Y304382D01*
X403950Y304460D01*
X403837Y304538D01*
X403750Y304616D01*
X403681Y304668D01*
X403647Y304703D01*
X403629Y304720D01*
X403517Y304850D01*
X403421Y304980D01*
X403343Y305101D01*
X403283Y305214D01*
X403231Y305318D01*
X403196Y305396D01*
X403179Y305448D01*
X403170Y305456D01*
X403170Y305465D01*
X403118Y305621D01*
X403083Y305785D01*
X403049Y305941D01*
X403032Y306089D01*
X403023Y306210D01*
X403014Y306305D01*
X403014Y306392D01*
X403023Y306556D01*
X403032Y306703D01*
X403049Y306851D01*
X403075Y306972D01*
X403101Y307067D01*
X403118Y307145D01*
X403127Y307197D01*
X403135Y307215D01*
X403179Y307353D01*
X403222Y307483D01*
X403265Y307604D01*
X403309Y307700D01*
X403352Y307786D01*
X403378Y307847D01*
X403395Y307882D01*
X403404Y307899D01*
X403517Y308089D01*
X403568Y308176D01*
X403620Y308254D01*
X403664Y308323D01*
X403698Y308375D01*
X403724Y308410D01*
X403733Y308419D01*
X403802Y308514D01*
X403863Y308600D01*
X403906Y308670D01*
X403950Y308730D01*
X403984Y308774D01*
X404010Y308808D01*
X404019Y308826D01*
X404028Y308834D01*
X404028Y309051D01*
X402287Y309051D01*
X402148Y308748D01*
X402035Y308470D01*
X401940Y308219D01*
X401906Y308107D01*
X401871Y307994D01*
X401845Y307899D01*
X401819Y307812D01*
X401802Y307743D01*
X401784Y307682D01*
X401776Y307630D01*
X401767Y307596D01*
X401758Y307570D01*
X401758Y307561D01*
X401715Y307310D01*
X401680Y307059D01*
X401654Y306825D01*
X401637Y306608D01*
X401628Y306513D01*
X401628Y306426D01*
X401620Y306348D01*
X401620Y306158D01*
X401628Y305803D01*
X401663Y305474D01*
X401715Y305162D01*
X401784Y304867D01*
X401862Y304599D01*
X401958Y304348D01*
X402053Y304122D01*
X402148Y303915D01*
X402252Y303733D01*
X402347Y303577D01*
X402434Y303438D01*
X402520Y303326D01*
X402590Y303239D01*
X402642Y303178D01*
X402676Y303144D01*
X402685Y303126D01*
X402893Y302936D01*
X403110Y302771D01*
X403343Y302624D01*
X403568Y302503D01*
X403811Y302399D01*
X404045Y302312D01*
X404270Y302234D01*
X404487Y302182D01*
X404695Y302130D01*
X404885Y302104D01*
X405058Y302078D01*
X405205Y302061D01*
X405327Y302052D01*
X405413Y302044D01*
X405491Y302044D01*
X405821Y302052D01*
X406141Y302087D01*
X406435Y302139D01*
X406713Y302208D01*
X406964Y302295D01*
X407198Y302381D01*
X407414Y302477D01*
X407605Y302581D01*
X407778Y302685D01*
X407925Y302780D01*
X408055Y302866D01*
X408159Y302953D01*
X408246Y303022D01*
X408298Y303074D01*
X408341Y303109D01*
X408350Y303118D01*
X408531Y303326D01*
X408687Y303551D01*
X408826Y303793D01*
X408947Y304036D01*
X409043Y304287D01*
X409129Y304529D01*
X409198Y304772D01*
X409250Y305015D01*
X409294Y305231D01*
X409328Y305439D01*
X409346Y305621D01*
X409363Y305785D01*
X409372Y305915D01*
X409380Y305967D01*
X409380Y303178D01*
X409380Y309077D01*
X409380Y309077D02*
G37*
G36*
X409224Y301117D02*
X409224Y301117D01*
X409224Y296873D01*
X406791Y296873D01*
X406791Y298068D01*
X406782Y298363D01*
X406756Y298631D01*
X406739Y298752D01*
X406721Y298865D01*
X406695Y298969D01*
X406678Y299064D01*
X406661Y299142D01*
X406635Y299220D01*
X406617Y299289D01*
X406600Y299341D01*
X406583Y299385D01*
X406574Y299411D01*
X406565Y299428D01*
X406565Y299437D01*
X406470Y299636D01*
X406366Y299826D01*
X406254Y300000D01*
X406150Y300147D01*
X406046Y300268D01*
X405968Y300355D01*
X405942Y300389D01*
X405916Y300415D01*
X405907Y300424D01*
X405898Y300433D01*
X405769Y300545D01*
X405639Y300649D01*
X405509Y300736D01*
X405379Y300805D01*
X405266Y300866D01*
X405179Y300900D01*
X405145Y300918D01*
X405119Y300926D01*
X405110Y300935D01*
X405102Y300935D01*
X404920Y300996D01*
X404747Y301039D01*
X404573Y301074D01*
X404426Y301091D01*
X404296Y301108D01*
X404244Y301108D01*
X404201Y301117D01*
X409224Y301117D01*
X401758Y301117D01*
X401758Y301117D01*
X404114Y301117D01*
X403880Y301108D01*
X403672Y301082D01*
X403482Y301039D01*
X403326Y300996D01*
X403196Y300952D01*
X403144Y300935D01*
X403092Y300909D01*
X403058Y300900D01*
X403032Y300883D01*
X403023Y300874D01*
X403014Y300874D01*
X402850Y300779D01*
X402694Y300667D01*
X402564Y300545D01*
X402460Y300441D01*
X402373Y300337D01*
X402304Y300259D01*
X402269Y300199D01*
X402252Y300190D01*
X402252Y300182D01*
X402165Y300034D01*
X402096Y299887D01*
X402027Y299740D01*
X401975Y299610D01*
X401940Y299489D01*
X401914Y299402D01*
X401897Y299367D01*
X401897Y299341D01*
X401888Y299324D01*
X401888Y299315D01*
X401845Y299125D01*
X401810Y298926D01*
X401793Y298726D01*
X401776Y298536D01*
X401767Y298371D01*
X401758Y298302D01*
X401758Y294950D01*
X409224Y294950D01*
X409224Y301117D01*
X409224Y301117D02*
G37*
G36*
X409224Y293590D02*
X409224Y293590D01*
X409224Y289346D01*
X406791Y289346D01*
X406791Y290541D01*
X406782Y290836D01*
X406756Y291104D01*
X406739Y291226D01*
X406721Y291338D01*
X406695Y291442D01*
X406678Y291537D01*
X406661Y291615D01*
X406635Y291693D01*
X406617Y291763D01*
X406600Y291815D01*
X406583Y291858D01*
X406574Y291884D01*
X406565Y291901D01*
X406565Y291910D01*
X406470Y292109D01*
X406366Y292300D01*
X406254Y292473D01*
X406150Y292620D01*
X406046Y292741D01*
X405968Y292828D01*
X405942Y292863D01*
X405916Y292889D01*
X405907Y292897D01*
X405898Y292906D01*
X405769Y293018D01*
X405639Y293123D01*
X405509Y293209D01*
X405379Y293278D01*
X405266Y293339D01*
X405179Y293374D01*
X405145Y293391D01*
X405119Y293400D01*
X405110Y293408D01*
X405102Y293408D01*
X404920Y293469D01*
X404747Y293512D01*
X404573Y293547D01*
X404426Y293564D01*
X404296Y293582D01*
X404244Y293582D01*
X404201Y293590D01*
X404114Y293590D01*
X403880Y293582D01*
X403672Y293556D01*
X403482Y293512D01*
X403326Y293469D01*
X403196Y293426D01*
X403144Y293408D01*
X403092Y293382D01*
X403058Y293374D01*
X403032Y293356D01*
X403023Y293348D01*
X403014Y293348D01*
X402850Y293252D01*
X402694Y293140D01*
X402564Y293018D01*
X402460Y292915D01*
X402373Y292811D01*
X402304Y292733D01*
X402269Y292672D01*
X402252Y292663D01*
X402252Y292655D01*
X402165Y292507D01*
X402096Y292360D01*
X402027Y292213D01*
X401975Y292083D01*
X401940Y291962D01*
X401914Y291875D01*
X401897Y291841D01*
X401897Y291815D01*
X401888Y291797D01*
X401888Y291789D01*
X401845Y291598D01*
X401810Y291399D01*
X401793Y291200D01*
X401776Y291009D01*
X401767Y290844D01*
X401758Y290775D01*
X401758Y287423D01*
X409224Y287423D01*
X409224Y293590D01*
X409224Y293590D02*
G37*
%LPD*%
G36*
X404374Y299099D02*
X404469Y299090D01*
X404547Y299073D01*
X404617Y299056D01*
X404660Y299047D01*
X404695Y299030D01*
X404703Y299030D01*
X404781Y298995D01*
X404850Y298952D01*
X404920Y298908D01*
X404972Y298865D01*
X405024Y298822D01*
X405058Y298787D01*
X405076Y298770D01*
X405084Y298761D01*
X405145Y298674D01*
X405197Y298588D01*
X405240Y298493D01*
X405275Y298415D01*
X405301Y298337D01*
X405318Y298276D01*
X405327Y298241D01*
X405327Y298224D01*
X405344Y298103D01*
X405353Y297964D01*
X405370Y297834D01*
X405370Y297704D01*
X405379Y297592D01*
X405379Y296873D01*
X403153Y296873D01*
X403153Y297522D01*
X403161Y297652D01*
X403161Y297843D01*
X403170Y297903D01*
X403170Y297955D01*
X403179Y298059D01*
X403196Y298172D01*
X403213Y298267D01*
X403239Y298354D01*
X403257Y298432D01*
X403283Y298493D01*
X403291Y298527D01*
X403300Y298545D01*
X403343Y298622D01*
X403387Y298700D01*
X403447Y298770D01*
X403499Y298830D01*
X403543Y298874D01*
X403586Y298917D01*
X403612Y298934D01*
X403620Y298943D01*
X403707Y299004D01*
X403802Y299047D01*
X403889Y299073D01*
X403976Y299099D01*
X404045Y299107D01*
X404105Y299116D01*
X404140Y299116D01*
X404157Y299116D01*
X404270Y299116D01*
X404374Y299099D01*
X404374Y299099D02*
G37*
G36*
X404374Y291572D02*
X404469Y291563D01*
X404547Y291546D01*
X404617Y291529D01*
X404660Y291520D01*
X404695Y291503D01*
X404703Y291503D01*
X404781Y291468D01*
X404850Y291425D01*
X404920Y291381D01*
X404972Y291338D01*
X405024Y291295D01*
X405058Y291260D01*
X405076Y291243D01*
X405084Y291234D01*
X405145Y291148D01*
X405197Y291061D01*
X405240Y290966D01*
X405275Y290888D01*
X405301Y290810D01*
X405318Y290749D01*
X405327Y290715D01*
X405327Y290697D01*
X405344Y290576D01*
X405353Y290437D01*
X405370Y290308D01*
X405370Y290178D01*
X405379Y290065D01*
X405379Y289346D01*
X403153Y289346D01*
X403153Y289996D01*
X403161Y290126D01*
X403161Y290316D01*
X403170Y290377D01*
X403170Y290429D01*
X403179Y290533D01*
X403196Y290645D01*
X403213Y290741D01*
X403239Y290827D01*
X403257Y290905D01*
X403283Y290966D01*
X403291Y291000D01*
X403300Y291018D01*
X403343Y291096D01*
X403387Y291174D01*
X403447Y291243D01*
X403499Y291304D01*
X403543Y291347D01*
X403586Y291390D01*
X403612Y291408D01*
X403620Y291416D01*
X403707Y291477D01*
X403802Y291520D01*
X403889Y291546D01*
X403976Y291572D01*
X404045Y291581D01*
X404105Y291589D01*
X404140Y291589D01*
X404157Y291589D01*
X404270Y291589D01*
X404374Y291572D01*
X404374Y291572D02*
G37*
%LPC*%
G36*
X367720Y335074D02*
X362073Y335074D01*
X362073Y334650D01*
X362081Y334476D01*
X362108Y334312D01*
X362151Y334147D01*
X362203Y333983D01*
X362272Y333818D01*
X362341Y333671D01*
X362419Y333524D01*
X362497Y333385D01*
X362575Y333255D01*
X362653Y333143D01*
X362723Y333047D01*
X362792Y332961D01*
X362844Y332891D01*
X362887Y332839D01*
X362913Y332805D01*
X362922Y332796D01*
X362090Y332796D01*
X362090Y330994D01*
X362073Y330994D01*
X367720Y330994D01*
X367720Y332796D01*
X363952Y332796D01*
X363883Y333030D01*
X363831Y333255D01*
X363788Y333480D01*
X363762Y333680D01*
X363753Y333775D01*
X363745Y333853D01*
X363745Y333931D01*
X363736Y333991D01*
X363736Y334225D01*
X363745Y334338D01*
X363753Y334433D01*
X363753Y334520D01*
X363762Y334589D01*
X363770Y334650D01*
X363779Y334684D01*
X363779Y334693D01*
X363814Y334910D01*
X363814Y335074D01*
X367720Y335074D01*
X367720Y335074D02*
G37*
G36*
X367720Y329332D02*
X363900Y329332D01*
X363718Y329323D01*
X363545Y329305D01*
X363389Y329271D01*
X363242Y329228D01*
X363104Y329167D01*
X362982Y329115D01*
X362870Y329046D01*
X362774Y328985D01*
X362688Y328924D01*
X362618Y328855D01*
X362549Y328803D01*
X362497Y328751D01*
X362463Y328699D01*
X362437Y328665D01*
X362419Y328647D01*
X362411Y328639D01*
X362324Y328500D01*
X362255Y328344D01*
X362186Y328180D01*
X362133Y328006D01*
X362047Y327634D01*
X361995Y327270D01*
X361978Y327105D01*
X361960Y326941D01*
X361952Y326794D01*
X361943Y326673D01*
X361934Y326568D01*
X361934Y323710D01*
X361934Y323710D01*
X361934Y326421D01*
X361943Y326031D01*
X361978Y325633D01*
X362021Y325261D01*
X362047Y325087D01*
X362073Y324923D01*
X362108Y324767D01*
X362133Y324628D01*
X362151Y324507D01*
X362177Y324403D01*
X362194Y324317D01*
X362211Y324256D01*
X362220Y324221D01*
X362220Y324204D01*
X363580Y324204D01*
X363580Y324369D01*
X363511Y324568D01*
X363441Y324758D01*
X363389Y324931D01*
X363346Y325096D01*
X363303Y325243D01*
X363268Y325382D01*
X363242Y325512D01*
X363225Y325624D01*
X363208Y325720D01*
X363190Y325806D01*
X363181Y325884D01*
X363181Y325945D01*
X363173Y325988D01*
X363173Y326196D01*
X363181Y326335D01*
X363190Y326465D01*
X363208Y326577D01*
X363216Y326681D01*
X363233Y326776D01*
X363251Y326863D01*
X363268Y326941D01*
X363294Y327002D01*
X363311Y327062D01*
X363329Y327105D01*
X363337Y327140D01*
X363355Y327175D01*
X363363Y327192D01*
X363372Y327210D01*
X363459Y327322D01*
X363554Y327409D01*
X363658Y327469D01*
X363762Y327504D01*
X363848Y327530D01*
X363926Y327539D01*
X363978Y327547D01*
X363987Y327547D01*
X363996Y327547D01*
X364022Y327547D01*
X364030Y327331D01*
X364048Y327132D01*
X364065Y326932D01*
X364082Y326750D01*
X364126Y326404D01*
X364169Y326083D01*
X364221Y325806D01*
X364273Y325555D01*
X364325Y325330D01*
X364377Y325139D01*
X364429Y324966D01*
X364472Y324828D01*
X364515Y324715D01*
X364559Y324620D01*
X364593Y324550D01*
X364611Y324498D01*
X364628Y324473D01*
X364637Y324464D01*
X364732Y324334D01*
X364845Y324213D01*
X364957Y324117D01*
X365078Y324031D01*
X365200Y323953D01*
X365321Y323892D01*
X365442Y323849D01*
X365555Y323806D01*
X365667Y323771D01*
X365771Y323754D01*
X365867Y323736D01*
X365945Y323719D01*
X366014Y323719D01*
X366066Y323710D01*
X361934Y323710D01*
X366109Y323710D01*
X366248Y323719D01*
X366386Y323736D01*
X366507Y323762D01*
X366629Y323797D01*
X366845Y323884D01*
X366941Y323927D01*
X367027Y323979D01*
X367105Y324031D01*
X367174Y324074D01*
X367235Y324126D01*
X367287Y324161D01*
X367322Y324195D01*
X367348Y324221D01*
X367365Y324239D01*
X367374Y324247D01*
X367460Y324351D01*
X367538Y324464D01*
X367599Y324576D01*
X367659Y324689D01*
X367703Y324802D01*
X367746Y324914D01*
X367807Y325131D01*
X367824Y325226D01*
X367841Y325313D01*
X367850Y325399D01*
X367859Y325468D01*
X367867Y325521D01*
X367867Y325598D01*
X367859Y325806D01*
X367841Y325997D01*
X367815Y326170D01*
X367789Y326309D01*
X367763Y326430D01*
X367737Y326517D01*
X367729Y326543D01*
X367720Y326568D01*
X367711Y326577D01*
X367711Y326586D01*
X367642Y326750D01*
X367556Y326906D01*
X367460Y327071D01*
X367365Y327218D01*
X367270Y327348D01*
X367235Y327400D01*
X367200Y327452D01*
X367174Y327487D01*
X367148Y327513D01*
X367140Y327530D01*
X367131Y327539D01*
X367720Y327539D01*
X367720Y329332D01*
X367720Y329332D02*
G37*
G36*
X367867Y322862D02*
X367867Y320402D01*
X367859Y320627D01*
X367850Y320852D01*
X367798Y321285D01*
X367763Y321493D01*
X367720Y321684D01*
X367677Y321874D01*
X367634Y322039D01*
X367599Y322195D01*
X367556Y322333D01*
X367512Y322463D01*
X367478Y322567D01*
X367452Y322645D01*
X367426Y322706D01*
X367417Y322749D01*
X367408Y322757D01*
X365962Y322757D01*
X365962Y322558D01*
X366074Y322385D01*
X366170Y322212D01*
X366256Y322039D01*
X366334Y321865D01*
X366395Y321701D01*
X366447Y321536D01*
X366490Y321380D01*
X366525Y321233D01*
X366551Y321103D01*
X366568Y320982D01*
X366585Y320869D01*
X366594Y320774D01*
X366594Y320705D01*
X366603Y320644D01*
X366603Y320436D01*
X366585Y320289D01*
X366568Y320142D01*
X366542Y320012D01*
X366516Y319882D01*
X366473Y319769D01*
X366386Y319553D01*
X366282Y319380D01*
X366170Y319224D01*
X366048Y319102D01*
X365919Y318999D01*
X365789Y318912D01*
X365667Y318851D01*
X365555Y318808D01*
X365451Y318773D01*
X365364Y318747D01*
X365295Y318739D01*
X365252Y318730D01*
X365234Y318730D01*
X365234Y322862D01*
X364611Y322862D01*
X364377Y322853D01*
X364152Y322836D01*
X363944Y322801D01*
X363753Y322757D01*
X363571Y322697D01*
X363407Y322645D01*
X363260Y322576D01*
X363130Y322515D01*
X363008Y322454D01*
X362904Y322385D01*
X362818Y322333D01*
X362748Y322281D01*
X362688Y322229D01*
X362653Y322195D01*
X362627Y322177D01*
X362618Y322169D01*
X362497Y322030D01*
X362385Y321883D01*
X362289Y321718D01*
X362211Y321554D01*
X362142Y321380D01*
X362090Y321216D01*
X362038Y321043D01*
X362004Y320878D01*
X361978Y320722D01*
X361952Y320575D01*
X361934Y320445D01*
X361926Y320332D01*
X361926Y320237D01*
X361917Y320168D01*
X361917Y320107D01*
X361926Y319839D01*
X361952Y319579D01*
X361995Y319336D01*
X362047Y319111D01*
X362108Y318903D01*
X362177Y318713D01*
X362246Y318531D01*
X362324Y318375D01*
X362402Y318236D01*
X362471Y318106D01*
X362541Y318002D01*
X362601Y317916D01*
X362653Y317847D01*
X362696Y317803D01*
X362723Y317769D01*
X362731Y317760D01*
X362887Y317613D01*
X363060Y317474D01*
X363233Y317362D01*
X363415Y317266D01*
X363606Y317180D01*
X363788Y317110D01*
X363970Y317058D01*
X364143Y317006D01*
X364308Y316972D01*
X364455Y316946D01*
X364593Y316928D01*
X364706Y316920D01*
X364801Y316911D01*
X364879Y316902D01*
X361917Y316902D01*
X367867Y316902D01*
X367867Y322862D01*
X367867Y322862D02*
G37*
G36*
X367720Y316131D02*
X367720Y314122D01*
X360254Y316131D01*
X360254Y305218D01*
X360254Y305218D01*
X367720Y307228D01*
X367720Y309358D01*
X362861Y310658D01*
X367720Y312000D01*
X367720Y316131D01*
X367720Y316131D02*
G37*
G36*
X367720Y305218D02*
X360254Y305218D01*
X367720Y305218D01*
X367720Y305218D01*
X367720Y305218D02*
G37*
G36*
X365970Y304543D02*
X365936Y304543D01*
X365815Y304534D01*
X365702Y304525D01*
X365494Y304482D01*
X365312Y304413D01*
X365156Y304335D01*
X365035Y304257D01*
X364983Y304222D01*
X364940Y304196D01*
X364905Y304161D01*
X364879Y304144D01*
X364870Y304135D01*
X364862Y304127D01*
X364784Y304040D01*
X364706Y303945D01*
X364645Y303824D01*
X364576Y303702D01*
X364472Y303434D01*
X364377Y303165D01*
X364342Y303036D01*
X364308Y302914D01*
X364282Y302802D01*
X364255Y302706D01*
X364247Y302620D01*
X364230Y302559D01*
X364221Y302525D01*
X364221Y302507D01*
X364195Y302343D01*
X364169Y302187D01*
X364143Y302048D01*
X364117Y301927D01*
X364091Y301823D01*
X364074Y301728D01*
X364056Y301641D01*
X364039Y301572D01*
X364022Y301511D01*
X364004Y301468D01*
X363996Y301425D01*
X363978Y301399D01*
X363970Y301355D01*
X363961Y301346D01*
X363909Y301277D01*
X363857Y301225D01*
X363797Y301191D01*
X363736Y301165D01*
X363684Y301147D01*
X363641Y301139D01*
X363615Y301139D01*
X363606Y301139D01*
X363528Y301147D01*
X363459Y301182D01*
X363398Y301234D01*
X363346Y301286D01*
X363311Y301338D01*
X363285Y301390D01*
X363268Y301425D01*
X363260Y301433D01*
X363216Y301554D01*
X363190Y301676D01*
X363164Y301797D01*
X363156Y301918D01*
X363147Y302013D01*
X363138Y302100D01*
X363138Y302169D01*
X363147Y302360D01*
X363164Y302551D01*
X363199Y302732D01*
X363233Y302906D01*
X363285Y303079D01*
X363337Y303235D01*
X363389Y303391D01*
X363450Y303529D01*
X363511Y303659D01*
X363563Y303780D01*
X363615Y303876D01*
X363667Y303962D01*
X363701Y304032D01*
X363736Y304083D01*
X363753Y304118D01*
X363762Y304127D01*
X363762Y304283D01*
X362341Y304283D01*
X362272Y304092D01*
X362203Y303910D01*
X362108Y303529D01*
X362030Y303174D01*
X362004Y303009D01*
X361986Y302854D01*
X361969Y302706D01*
X361952Y302577D01*
X361943Y302455D01*
X361943Y302360D01*
X361934Y302282D01*
X361934Y304543D01*
X361934Y304543D01*
X361934Y299268D01*
X361934Y299268D01*
X361934Y302169D01*
X361943Y301927D01*
X361960Y301702D01*
X361986Y301485D01*
X362021Y301286D01*
X362064Y301095D01*
X362108Y300922D01*
X362160Y300766D01*
X362203Y300619D01*
X362255Y300489D01*
X362307Y300385D01*
X362350Y300290D01*
X362393Y300203D01*
X362428Y300143D01*
X362454Y300099D01*
X362471Y300073D01*
X362480Y300065D01*
X362584Y299926D01*
X362688Y299813D01*
X362800Y299709D01*
X362913Y299623D01*
X363034Y299545D01*
X363147Y299484D01*
X363251Y299432D01*
X363355Y299389D01*
X363459Y299354D01*
X363545Y299337D01*
X363623Y299320D01*
X363693Y299302D01*
X363753Y299302D01*
X363797Y299294D01*
X363823Y299294D01*
X363831Y299294D01*
X363970Y299302D01*
X364100Y299320D01*
X364221Y299346D01*
X364333Y299389D01*
X364446Y299432D01*
X364550Y299493D01*
X364741Y299623D01*
X364914Y299788D01*
X365061Y299969D01*
X365182Y300160D01*
X365295Y300359D01*
X365390Y300558D01*
X365460Y300749D01*
X365520Y300931D01*
X365563Y301095D01*
X365598Y301225D01*
X365615Y301286D01*
X365624Y301329D01*
X365633Y301373D01*
X365641Y301399D01*
X365641Y301425D01*
X365667Y301572D01*
X365685Y301710D01*
X365711Y301832D01*
X365728Y301936D01*
X365754Y302040D01*
X365771Y302126D01*
X365789Y302195D01*
X365806Y302265D01*
X365823Y302317D01*
X365841Y302360D01*
X365867Y302429D01*
X365875Y302464D01*
X365884Y302472D01*
X365927Y302551D01*
X365979Y302602D01*
X366040Y302646D01*
X366092Y302672D01*
X366135Y302689D01*
X366178Y302698D01*
X366204Y302698D01*
X366213Y302698D01*
X366291Y302689D01*
X366360Y302654D01*
X366429Y302602D01*
X366482Y302533D01*
X366525Y302455D01*
X366559Y302369D01*
X366611Y302178D01*
X366646Y301979D01*
X366655Y301892D01*
X366663Y301814D01*
X366672Y301745D01*
X366672Y301650D01*
X366663Y301433D01*
X366637Y301225D01*
X366603Y301017D01*
X366559Y300818D01*
X366499Y300628D01*
X366438Y300446D01*
X366378Y300273D01*
X366308Y300117D01*
X366239Y299969D01*
X366178Y299839D01*
X366109Y299718D01*
X366057Y299623D01*
X366014Y299545D01*
X365979Y299493D01*
X365953Y299450D01*
X365945Y299441D01*
X365945Y299268D01*
X361934Y299268D01*
X367876Y299268D01*
X367876Y299268D01*
X367426Y299268D01*
X367504Y299467D01*
X367573Y299666D01*
X367634Y299874D01*
X367685Y300073D01*
X367763Y300472D01*
X367798Y300662D01*
X367815Y300835D01*
X367841Y301000D01*
X367850Y301147D01*
X367859Y301286D01*
X367867Y301399D01*
X367876Y301485D01*
X367876Y301615D01*
X367867Y301866D01*
X367850Y302100D01*
X367824Y302325D01*
X367789Y302525D01*
X367755Y302724D01*
X367711Y302897D01*
X367659Y303062D01*
X367607Y303200D01*
X367564Y303330D01*
X367512Y303443D01*
X367469Y303538D01*
X367426Y303624D01*
X367400Y303685D01*
X367374Y303728D01*
X367356Y303754D01*
X367348Y303763D01*
X367244Y303902D01*
X367131Y304023D01*
X367019Y304127D01*
X366906Y304214D01*
X366785Y304291D01*
X366672Y304352D01*
X366551Y304404D01*
X366447Y304447D01*
X366343Y304473D01*
X366239Y304499D01*
X366152Y304517D01*
X366083Y304534D01*
X366022Y304534D01*
X365970Y304543D01*
X365970Y304543D02*
G37*
G36*
X367720Y297995D02*
X364056Y297995D01*
X363874Y297986D01*
X363701Y297977D01*
X363537Y297951D01*
X363381Y297917D01*
X363242Y297882D01*
X363112Y297839D01*
X363000Y297787D01*
X362896Y297743D01*
X362800Y297700D01*
X362714Y297648D01*
X362645Y297605D01*
X362593Y297570D01*
X362549Y297535D01*
X362515Y297518D01*
X362497Y297501D01*
X362489Y297492D01*
X362393Y297397D01*
X362307Y297284D01*
X362229Y297172D01*
X362168Y297059D01*
X362116Y296938D01*
X362073Y296817D01*
X362004Y296583D01*
X361978Y296479D01*
X361960Y296375D01*
X361952Y296288D01*
X361943Y296210D01*
X361934Y296141D01*
X361934Y297995D01*
X361934Y297995D01*
X361934Y292339D01*
X361934Y296054D01*
X361943Y295881D01*
X361969Y295708D01*
X362004Y295535D01*
X362056Y295361D01*
X362116Y295197D01*
X362177Y295041D01*
X362255Y294894D01*
X362324Y294747D01*
X362393Y294617D01*
X362463Y294504D01*
X362532Y294400D01*
X362593Y294314D01*
X362645Y294235D01*
X362679Y294184D01*
X362705Y294149D01*
X362714Y294140D01*
X362090Y294140D01*
X362090Y292339D01*
X361934Y292339D01*
X367720Y292339D01*
X367720Y294140D01*
X363727Y294140D01*
X363615Y294348D01*
X363528Y294547D01*
X363467Y294721D01*
X363433Y294876D01*
X363407Y295006D01*
X363398Y295058D01*
X363398Y295102D01*
X363389Y295145D01*
X363389Y295301D01*
X363407Y295405D01*
X363415Y295500D01*
X363441Y295587D01*
X363467Y295665D01*
X363493Y295725D01*
X363545Y295838D01*
X363606Y295916D01*
X363658Y295968D01*
X363693Y295994D01*
X363710Y296003D01*
X363779Y296037D01*
X363857Y296063D01*
X363944Y296080D01*
X364039Y296106D01*
X364238Y296132D01*
X364437Y296158D01*
X364628Y296167D01*
X364715Y296167D01*
X364784Y296176D01*
X364845Y296176D01*
X364888Y296176D01*
X364922Y296176D01*
X364931Y296176D01*
X367720Y296176D01*
X367720Y297995D01*
X367720Y297995D02*
G37*
G36*
X365234Y291066D02*
X364611Y291066D01*
X364377Y291057D01*
X364152Y291040D01*
X363944Y291005D01*
X363753Y290961D01*
X363571Y290901D01*
X363407Y290849D01*
X363260Y290780D01*
X363130Y290719D01*
X363008Y290658D01*
X362904Y290589D01*
X362818Y290537D01*
X362748Y290485D01*
X362688Y290433D01*
X362653Y290399D01*
X362627Y290381D01*
X362618Y290373D01*
X362497Y290234D01*
X362385Y290087D01*
X362289Y289922D01*
X362211Y289758D01*
X362142Y289584D01*
X362090Y289420D01*
X362038Y289247D01*
X362004Y289082D01*
X361978Y288926D01*
X361952Y288779D01*
X361934Y288649D01*
X361926Y288536D01*
X361926Y288441D01*
X361917Y288372D01*
X361917Y285106D01*
X361917Y288311D01*
X361926Y288043D01*
X361952Y287783D01*
X361995Y287540D01*
X362047Y287315D01*
X362108Y287107D01*
X362177Y286917D01*
X362246Y286735D01*
X362324Y286579D01*
X362402Y286440D01*
X362471Y286310D01*
X362541Y286206D01*
X362601Y286120D01*
X362653Y286050D01*
X362696Y286007D01*
X362723Y285973D01*
X362731Y285964D01*
X362887Y285817D01*
X363060Y285678D01*
X363233Y285565D01*
X363415Y285470D01*
X363606Y285384D01*
X363788Y285314D01*
X363970Y285262D01*
X364143Y285210D01*
X364308Y285176D01*
X364455Y285150D01*
X364593Y285132D01*
X364706Y285124D01*
X364801Y285115D01*
X364879Y285106D01*
X361917Y285106D01*
X367867Y285106D01*
X367867Y288606D01*
X367859Y288831D01*
X367850Y289056D01*
X367798Y289489D01*
X367763Y289697D01*
X367720Y289888D01*
X367677Y290078D01*
X367634Y290243D01*
X367599Y290399D01*
X367556Y290537D01*
X367512Y290667D01*
X367478Y290771D01*
X367452Y290849D01*
X367426Y290910D01*
X367417Y290953D01*
X367408Y290961D01*
X365962Y290961D01*
X365962Y290762D01*
X366074Y290589D01*
X366170Y290416D01*
X366256Y290243D01*
X366334Y290069D01*
X366395Y289905D01*
X366447Y289740D01*
X366490Y289584D01*
X366525Y289437D01*
X366551Y289307D01*
X366568Y289186D01*
X366585Y289073D01*
X366594Y288978D01*
X366594Y288909D01*
X366603Y288848D01*
X366603Y288640D01*
X366585Y288493D01*
X366568Y288346D01*
X366542Y288216D01*
X366516Y288086D01*
X366473Y287973D01*
X366386Y287757D01*
X366282Y287584D01*
X366170Y287428D01*
X366048Y287306D01*
X365919Y287202D01*
X365789Y287116D01*
X365667Y287055D01*
X365555Y287012D01*
X365451Y286977D01*
X365364Y286951D01*
X365295Y286943D01*
X365252Y286934D01*
X365234Y286934D01*
X365234Y291066D01*
X365234Y291066D02*
G37*
G36*
X365434Y284301D02*
X365382Y284301D01*
X365217Y284292D01*
X365052Y284275D01*
X364905Y284249D01*
X364767Y284206D01*
X364637Y284162D01*
X364515Y284110D01*
X364411Y284058D01*
X364308Y283998D01*
X364221Y283946D01*
X364143Y283885D01*
X364082Y283833D01*
X364022Y283790D01*
X363978Y283747D01*
X363952Y283721D01*
X363935Y283703D01*
X363926Y283695D01*
X363831Y283573D01*
X363736Y283426D01*
X363649Y283262D01*
X363563Y283088D01*
X363485Y282906D01*
X363415Y282716D01*
X363285Y282335D01*
X363233Y282153D01*
X363190Y281988D01*
X363147Y281832D01*
X363112Y281694D01*
X363086Y281581D01*
X363069Y281495D01*
X363060Y281469D01*
X363052Y281443D01*
X363052Y281425D01*
X363017Y281243D01*
X362982Y281079D01*
X362948Y280932D01*
X362913Y280802D01*
X362887Y280689D01*
X362852Y280585D01*
X362826Y280499D01*
X362800Y280421D01*
X362783Y280360D01*
X362757Y280308D01*
X362740Y280265D01*
X362723Y280230D01*
X362714Y280204D01*
X362705Y280187D01*
X362696Y280178D01*
X362627Y280100D01*
X362558Y280040D01*
X362480Y280005D01*
X362402Y279970D01*
X362341Y279953D01*
X362289Y279944D01*
X362246Y279944D01*
X362237Y279944D01*
X362177Y279953D01*
X362116Y279961D01*
X362012Y280005D01*
X361926Y280065D01*
X361848Y280135D01*
X361787Y280195D01*
X361744Y280256D01*
X361718Y280299D01*
X361709Y280317D01*
X361640Y280473D01*
X361588Y280646D01*
X361553Y280819D01*
X361527Y280984D01*
X361510Y281131D01*
X361510Y281200D01*
X361501Y281252D01*
X361501Y281365D01*
X361510Y281607D01*
X361536Y281850D01*
X361579Y282084D01*
X361631Y282300D01*
X361700Y282517D01*
X361770Y282716D01*
X361848Y282906D01*
X361926Y283080D01*
X362004Y283236D01*
X362081Y283374D01*
X362151Y283504D01*
X362220Y283608D01*
X362272Y283686D01*
X362315Y283747D01*
X362341Y283790D01*
X362350Y283799D01*
X362350Y284006D01*
X360635Y284006D01*
X360549Y283764D01*
X360462Y283530D01*
X360401Y283288D01*
X360341Y283054D01*
X360289Y282820D01*
X360245Y282595D01*
X360211Y282378D01*
X360185Y282179D01*
X360167Y281997D01*
X360150Y281824D01*
X360141Y281677D01*
X360133Y281547D01*
X360124Y281443D01*
X360124Y284301D01*
X360124Y281304D01*
X360133Y281036D01*
X360150Y280784D01*
X360185Y280542D01*
X360228Y280308D01*
X360280Y280100D01*
X360332Y279901D01*
X360392Y279719D01*
X360453Y279555D01*
X360522Y279407D01*
X360583Y279277D01*
X360635Y279165D01*
X360687Y279078D01*
X360730Y279000D01*
X360765Y278948D01*
X360782Y278913D01*
X360791Y278905D01*
X360921Y278740D01*
X361051Y278593D01*
X361189Y278472D01*
X361337Y278368D01*
X361475Y278273D01*
X361614Y278195D01*
X361752Y278134D01*
X361882Y278091D01*
X362012Y278047D01*
X362125Y278021D01*
X362229Y277995D01*
X362315Y277987D01*
X362385Y277978D01*
X362445Y277969D01*
X362480Y277969D01*
X362489Y277969D01*
X362627Y277978D01*
X362757Y277987D01*
X363000Y278030D01*
X363216Y278091D01*
X363311Y278125D01*
X363398Y278160D01*
X363476Y278195D01*
X363545Y278221D01*
X363606Y278255D01*
X363658Y278281D01*
X363693Y278307D01*
X363718Y278325D01*
X363736Y278342D01*
X363745Y278342D01*
X363918Y278489D01*
X364065Y278654D01*
X364195Y278818D01*
X364299Y278983D01*
X364377Y279121D01*
X364411Y279182D01*
X364437Y279234D01*
X364455Y279277D01*
X364472Y279312D01*
X364481Y279329D01*
X364481Y279338D01*
X364524Y279459D01*
X364567Y279589D01*
X364654Y279875D01*
X364732Y280161D01*
X364801Y280438D01*
X364827Y280568D01*
X364853Y280689D01*
X364879Y280793D01*
X364897Y280888D01*
X364914Y280966D01*
X364931Y281018D01*
X364940Y281061D01*
X364940Y281070D01*
X364974Y281226D01*
X365000Y281365D01*
X365035Y281486D01*
X365070Y281598D01*
X365096Y281694D01*
X365130Y281780D01*
X365156Y281858D01*
X365191Y281919D01*
X365217Y281971D01*
X365234Y282023D01*
X365260Y282058D01*
X365278Y282084D01*
X365304Y282118D01*
X365312Y282127D01*
X365390Y282196D01*
X365460Y282239D01*
X365529Y282274D01*
X365598Y282300D01*
X365650Y282317D01*
X365693Y282326D01*
X365719Y282326D01*
X365728Y282326D01*
X365858Y282309D01*
X365979Y282265D01*
X366074Y282196D01*
X366161Y282101D01*
X366239Y281997D01*
X366300Y281876D01*
X366343Y281746D01*
X366386Y281607D01*
X366421Y281477D01*
X366438Y281347D01*
X366455Y281226D01*
X366473Y281113D01*
X366473Y281018D01*
X366482Y280949D01*
X366482Y280888D01*
X366473Y280611D01*
X366438Y280343D01*
X366395Y280074D01*
X366326Y279823D01*
X366256Y279589D01*
X366170Y279355D01*
X366083Y279147D01*
X365988Y278948D01*
X365901Y278766D01*
X365815Y278610D01*
X365728Y278472D01*
X365659Y278351D01*
X365589Y278264D01*
X365546Y278195D01*
X365511Y278151D01*
X365503Y278134D01*
X365503Y277926D01*
X360124Y277926D01*
X360124Y277926D01*
X367287Y277926D01*
X367391Y278186D01*
X367478Y278446D01*
X367556Y278706D01*
X367616Y278965D01*
X367677Y279217D01*
X367720Y279450D01*
X367755Y279684D01*
X367789Y279901D01*
X367807Y280091D01*
X367824Y280273D01*
X367841Y280438D01*
X367850Y280568D01*
X367859Y280680D01*
X367859Y278195D01*
X367859Y280828D01*
X367850Y281122D01*
X367833Y281399D01*
X367798Y281659D01*
X367755Y281902D01*
X367703Y282127D01*
X367642Y282335D01*
X367581Y282525D01*
X367512Y282698D01*
X367452Y282854D01*
X367391Y282984D01*
X367330Y283097D01*
X367278Y283192D01*
X367235Y283270D01*
X367200Y283322D01*
X367183Y283357D01*
X367174Y283365D01*
X367036Y283530D01*
X366897Y283677D01*
X366750Y283799D01*
X366603Y283902D01*
X366455Y283998D01*
X366300Y284076D01*
X366161Y284136D01*
X366014Y284188D01*
X365884Y284223D01*
X365763Y284249D01*
X365659Y284275D01*
X365563Y284284D01*
X365485Y284292D01*
X365434Y284301D01*
X365434Y284301D02*
G37*
%LPD*%
G36*
X362081Y334927D02*
X362081Y334857D01*
X362073Y334788D01*
X362073Y335074D01*
X362099Y335074D01*
X362081Y334927D01*
X362081Y334927D02*
G37*
G36*
X366317Y327452D02*
X366378Y327357D01*
X366482Y327175D01*
X366551Y327002D01*
X366594Y326846D01*
X366629Y326707D01*
X366637Y326655D01*
X366637Y326603D01*
X366646Y326560D01*
X366646Y326508D01*
X366637Y326326D01*
X366620Y326179D01*
X366603Y326049D01*
X366568Y325945D01*
X366542Y325867D01*
X366525Y325815D01*
X366507Y325780D01*
X366499Y325772D01*
X366429Y325694D01*
X366352Y325642D01*
X366265Y325598D01*
X366178Y325573D01*
X366092Y325555D01*
X366022Y325546D01*
X365979Y325546D01*
X365962Y325546D01*
X365884Y325555D01*
X365815Y325564D01*
X365693Y325607D01*
X365589Y325668D01*
X365503Y325737D01*
X365442Y325798D01*
X365399Y325858D01*
X365373Y325902D01*
X365364Y325919D01*
X365330Y325997D01*
X365304Y326092D01*
X365269Y326205D01*
X365243Y326326D01*
X365191Y326595D01*
X365156Y326872D01*
X365139Y327002D01*
X365122Y327123D01*
X365104Y327235D01*
X365096Y327339D01*
X365087Y327417D01*
X365087Y327487D01*
X365078Y327521D01*
X365078Y327539D01*
X366248Y327539D01*
X366317Y327452D01*
X366317Y327452D02*
G37*
G36*
X364178Y318721D02*
X363978Y318747D01*
X363805Y318799D01*
X363649Y318869D01*
X363519Y318955D01*
X363415Y319050D01*
X363320Y319154D01*
X363242Y319258D01*
X363181Y319371D01*
X363138Y319484D01*
X363104Y319587D01*
X363078Y319691D01*
X363060Y319778D01*
X363052Y319856D01*
X363043Y319908D01*
X363043Y319960D01*
X363052Y320150D01*
X363095Y320315D01*
X363147Y320462D01*
X363216Y320592D01*
X363303Y320696D01*
X363398Y320783D01*
X363502Y320861D01*
X363606Y320921D01*
X363718Y320965D01*
X363823Y320999D01*
X363918Y321034D01*
X363996Y321051D01*
X364074Y321060D01*
X364126Y321068D01*
X364160Y321068D01*
X364178Y321068D01*
X364178Y318721D01*
X364178Y318721D02*
G37*
G36*
X367867Y316902D02*
X364940Y316902D01*
X365200Y316911D01*
X365442Y316946D01*
X365667Y316989D01*
X365875Y317041D01*
X366074Y317110D01*
X366248Y317188D01*
X366412Y317275D01*
X366559Y317362D01*
X366689Y317439D01*
X366802Y317526D01*
X366897Y317604D01*
X366975Y317673D01*
X367036Y317725D01*
X367079Y317777D01*
X367105Y317803D01*
X367114Y317812D01*
X367244Y317994D01*
X367365Y318184D01*
X367460Y318392D01*
X367547Y318600D01*
X367625Y318817D01*
X367685Y319033D01*
X367729Y319241D01*
X367772Y319449D01*
X367807Y319639D01*
X367824Y319821D01*
X367841Y319986D01*
X367859Y320125D01*
X367859Y320237D01*
X367867Y320324D01*
X367867Y316902D01*
X367867Y316902D02*
G37*
G36*
X365399Y312970D02*
X360254Y311662D01*
X360254Y314174D01*
X365399Y312970D01*
X365399Y312970D02*
G37*
G36*
X365399Y308371D02*
X360254Y307228D01*
X360254Y309748D01*
X365399Y308371D01*
X365399Y308371D02*
G37*
G36*
X364178Y286925D02*
X363978Y286951D01*
X363805Y287003D01*
X363649Y287073D01*
X363519Y287159D01*
X363415Y287254D01*
X363320Y287358D01*
X363242Y287462D01*
X363181Y287575D01*
X363138Y287687D01*
X363104Y287791D01*
X363078Y287895D01*
X363060Y287982D01*
X363052Y288060D01*
X363043Y288112D01*
X363043Y288164D01*
X363052Y288354D01*
X363095Y288519D01*
X363147Y288666D01*
X363216Y288796D01*
X363303Y288900D01*
X363398Y288987D01*
X363502Y289065D01*
X363606Y289125D01*
X363718Y289169D01*
X363823Y289203D01*
X363918Y289238D01*
X363996Y289255D01*
X364074Y289264D01*
X364126Y289272D01*
X364160Y289272D01*
X364178Y289272D01*
X364178Y286925D01*
X364178Y286925D02*
G37*
G36*
X367867Y285106D02*
X364940Y285106D01*
X365200Y285115D01*
X365442Y285150D01*
X365667Y285193D01*
X365875Y285245D01*
X366074Y285314D01*
X366248Y285392D01*
X366412Y285479D01*
X366559Y285565D01*
X366689Y285643D01*
X366802Y285730D01*
X366897Y285808D01*
X366975Y285877D01*
X367036Y285929D01*
X367079Y285981D01*
X367105Y286007D01*
X367114Y286016D01*
X367244Y286198D01*
X367365Y286388D01*
X367460Y286596D01*
X367547Y286804D01*
X367625Y287021D01*
X367685Y287237D01*
X367729Y287445D01*
X367772Y287653D01*
X367807Y287843D01*
X367824Y288025D01*
X367841Y288190D01*
X367859Y288328D01*
X367859Y288441D01*
X367867Y288528D01*
X367867Y285106D01*
X367867Y285106D02*
G37*
D10*
X347500Y257500D02*
X356250Y257500D01*
X356250Y274000D01*
X347500Y274000D01*
X347500Y257500D01*
X356500Y257500D02*
X365250Y257500D01*
X365250Y274000D01*
X356500Y274000D01*
X356500Y257500D01*
X365250Y265500D02*
X382250Y265500D01*
X382250Y274000D01*
X365250Y274000D01*
X365250Y265500D01*
X430500Y319500D02*
X430500Y336000D01*
X439250Y336000D01*
X439250Y319500D01*
X430500Y319500D01*
X446750Y281250D02*
X455500Y281250D01*
X464250Y281250D01*
X464250Y264750D01*
X455500Y264750D01*
X455500Y281250D01*
X455500Y264750D01*
X446750Y264750D01*
X446750Y281250D01*
D11*
X290503Y319166D02*
X292169Y317500D01*
X290503Y319166D02*
X300500Y319166D01*
X300500Y320832D01*
X300500Y317500D01*
M02*
