G04*
G04 #@! TF.GenerationSoftware,Altium Limited,Altium Designer,23.2.1 (34)*
G04*
G04 Layer_Physical_Order=3*
G04 Layer_Color=65280*
%FSLAX44Y44*%
%MOMM*%
G71*
G04*
G04 #@! TF.SameCoordinates,F2287B00-1274-4912-88F7-879E23109F00*
G04*
G04*
G04 #@! TF.FilePolarity,Positive*
G04*
G01*
G75*
%ADD16C,0.2000*%
%ADD17C,0.1000*%
%ADD20C,0.3500*%
D16*
X290750Y319750D02*
X439094Y319750D01*
X440594Y321250D01*
X441000Y321250D01*
D17*
X291500Y290000D02*
X291750Y290250D01*
X440250Y290250D01*
X440500Y290500D01*
X438000Y293250D02*
X440500Y295750D01*
X438000Y293250D02*
X299250Y293250D01*
X297750Y294750D01*
X291250Y294750D01*
D20*
X290750Y274750D02*
D03*
X291500Y284750D02*
D03*
X291500Y290000D02*
D03*
X291250Y294750D02*
D03*
X290750Y319750D02*
D03*
X344500Y296500D02*
D03*
X344000Y280000D02*
D03*
X378250Y260750D02*
D03*
X384000Y300000D02*
D03*
X384500Y310000D02*
D03*
X384500Y314750D02*
D03*
X368000Y296750D02*
D03*
X442750Y278750D02*
D03*
X439750Y267500D02*
D03*
X432750Y268000D02*
D03*
X459500Y283750D02*
D03*
X440500Y309750D02*
D03*
X440750Y315250D02*
D03*
X441000Y321250D02*
D03*
X440000Y328500D02*
D03*
X440750Y304750D02*
D03*
X440750Y300250D02*
D03*
X440500Y295750D02*
D03*
X440500Y290500D02*
D03*
M02*
