G04*
G04 #@! TF.GenerationSoftware,Altium Limited,Altium Designer,23.2.1 (34)*
G04*
G04 Layer_Color=8388736*
%FSLAX44Y44*%
%MOMM*%
G71*
G04*
G04 #@! TF.SameCoordinates,F2287B00-1274-4912-88F7-879E23109F00*
G04*
G04*
G04 #@! TF.FilePolarity,Positive*
G04*
G01*
G75*
%ADD11C,0.1500*%
%ADD17C,0.1000*%
G36*
X257000Y269750D02*
X256403Y269750D01*
X255301Y270207D01*
X254457Y271051D01*
X254000Y272153D01*
X254000Y272750D01*
X254000Y272750D01*
X254000Y321750D01*
X254000Y322347D01*
X254457Y323449D01*
X255301Y324293D01*
X256403Y324750D01*
X257000Y324750D01*
X257000Y324750D01*
X301500Y324750D01*
X301500Y269750D01*
X257000Y269750D01*
X257000Y269750D02*
G37*
D11*
X244002Y274916D02*
X245168Y273750D01*
X246335Y273750D01*
X247501Y274916D01*
X247501Y277249D01*
X248667Y278415D01*
X249834Y278415D01*
X251000Y277249D01*
X251000Y274916D01*
X249834Y273750D01*
X244002Y274916D02*
X244002Y277249D01*
X245168Y278415D01*
X245168Y281914D02*
X246335Y281914D01*
X246335Y280748D01*
X246335Y283080D01*
X246335Y281914D01*
X249834Y281914D01*
X251000Y283080D01*
X251000Y286579D02*
X251000Y288912D01*
X251000Y287745D01*
X246335Y287745D01*
X246335Y286579D01*
X247501Y292411D02*
X247501Y294743D01*
X247501Y293577D01*
X247501Y292411D01*
X247501Y293577D02*
X245168Y293577D01*
X247501Y293577D01*
X245168Y293577D02*
X244002Y294743D01*
X245168Y293577D02*
X251000Y293577D01*
X251000Y299408D02*
X245168Y299408D01*
X247501Y299408D01*
X247501Y298242D01*
X247501Y300575D01*
X247501Y299408D01*
X245168Y299408D01*
X244002Y300575D01*
X246335Y304074D02*
X246335Y307572D01*
X247501Y308739D01*
X251000Y308739D01*
X251000Y312238D02*
X249834Y311071D01*
X247501Y311071D01*
X246335Y312238D01*
X246335Y314570D01*
X247501Y315737D01*
X248667Y315737D01*
X248667Y311071D01*
X251000Y312238D02*
X251000Y314570D01*
X251000Y318069D02*
X248667Y318069D01*
X247501Y319235D01*
X246335Y320402D01*
X246335Y321568D01*
X246335Y318069D02*
X251000Y318069D01*
X251000Y304074D02*
X246335Y304074D01*
D17*
X254000Y272750D02*
G03*
X257000Y269750I3000J0D01*
G01*
X342000Y269750D01*
X342000Y254750D01*
X342000Y254750D02*
X387000Y254750D01*
X387000Y269750D01*
X426750Y269750D01*
X427000Y269750D02*
X427000Y254750D01*
X471750Y254750D01*
X471750Y254750D01*
X472000Y254750D02*
X472000Y339750D01*
X425375Y339750D01*
X425375Y339750D02*
X425375Y324750D01*
X385625Y324750D01*
X385375Y324750D02*
X385375Y339750D01*
X342000Y339750D01*
X342000Y339750D02*
X342000Y324750D01*
X257000Y324750D01*
X257000Y324750D02*
G03*
X254000Y321750I0J-3000D01*
G01*
X254000Y272750D01*
X254000Y272750D02*
G03*
X257000Y269750I3000J0D01*
G01*
X257000Y269750D02*
X301500Y269750D01*
X301500Y324750D01*
X257000Y324750D01*
X257000Y324750D02*
G03*
X254000Y321750I0J-3000D01*
G01*
X254000Y272750D01*
M02*
