G04*
G04 #@! TF.GenerationSoftware,Altium Limited,Altium Designer,23.2.1 (34)*
G04*
G04 Layer_Color=65535*
%FSLAX44Y44*%
%MOMM*%
G71*
G04*
G04 #@! TF.SameCoordinates,B12F1025-F82E-46B3-97E8-FF2E5A3D5CD0*
G04*
G04*
G04 #@! TF.FilePolarity,Positive*
G04*
G01*
G75*
%ADD10C,0.7000*%
%ADD11C,0.2500*%
%ADD12C,0.0500*%
%ADD13C,0.2540*%
%ADD14C,0.1270*%
%ADD15C,0.1000*%
%ADD16C,0.2000*%
G36*
X90732Y194984D02*
X90886Y194922D01*
X91195Y194891D01*
X91288Y194798D01*
X91489Y194752D01*
X91535Y194706D01*
X91736Y194659D01*
X91783Y194613D01*
X91844Y194582D01*
X91968Y194458D01*
X92092Y194427D01*
X92246Y194366D01*
X92416Y194196D01*
X92432Y194149D01*
X92493Y194118D01*
X92555Y194026D01*
X92617Y193995D01*
X92725Y193887D01*
X92756Y193825D01*
X92849Y193763D01*
X92895Y193593D01*
X92972Y193516D01*
X93003Y193454D01*
X93127Y193330D01*
X93173Y193160D01*
X93281Y193052D01*
X93312Y192836D01*
X93405Y192743D01*
X93436Y192403D01*
X93498Y192249D01*
X93467Y191383D01*
X93436Y191291D01*
X93405Y191075D01*
X93374Y190920D01*
X93312Y190765D01*
X93281Y190611D01*
X93127Y190487D01*
X93096Y190302D01*
X92972Y190178D01*
X92942Y190117D01*
X92880Y190055D01*
X92802Y189885D01*
X92741Y189854D01*
X92663Y189777D01*
X92648Y189730D01*
X92586Y189699D01*
X92416Y189529D01*
X92385Y189468D01*
X92308Y189390D01*
X92184Y189359D01*
X92092Y189267D01*
X91937Y189174D01*
X91875Y189112D01*
X91752Y189081D01*
X91597Y189019D01*
X91551Y188973D01*
X91520Y188850D01*
X91489Y175376D01*
X91396Y175159D01*
X91365Y174789D01*
X91273Y174634D01*
X91226Y174310D01*
X91180Y174171D01*
X91149Y173954D01*
X91056Y173862D01*
X91010Y173661D01*
X90933Y173491D01*
X90886Y173290D01*
X90701Y172981D01*
X90639Y172826D01*
X90562Y172718D01*
X90500Y172656D01*
X90469Y172595D01*
X90346Y172409D01*
X90299Y172208D01*
X90238Y172146D01*
X90176Y172116D01*
X90098Y172008D01*
X90037Y171853D01*
X90006Y171791D01*
X89898Y171714D01*
X89728Y171544D01*
X89650Y171405D01*
X89588Y171374D01*
X89434Y171158D01*
X89372Y171127D01*
X89295Y171049D01*
X89264Y170988D01*
X89156Y170879D01*
X89094Y170849D01*
X88816Y170632D01*
X88476Y170292D01*
X88322Y170231D01*
X88136Y170107D01*
X88043Y170076D01*
X87920Y169952D01*
X87580Y169798D01*
X87147Y169551D01*
X87024Y169520D01*
X86931Y169489D01*
X86838Y169396D01*
X86715Y169365D01*
X86545Y169319D01*
X86498Y169273D01*
X86282Y169242D01*
X86112Y169195D01*
X85772Y169164D01*
X85664Y169056D01*
X85540Y169025D01*
X85108Y168995D01*
X84953Y168933D01*
X76238Y168902D01*
X76053Y168778D01*
X75497Y168747D01*
X75466Y168685D01*
X75342Y168654D01*
X75095Y168624D01*
X75002Y168593D01*
X74477Y168315D01*
X74431Y168268D01*
X74400Y168206D01*
X74199Y168006D01*
X74137Y167975D01*
X74014Y167851D01*
X73952Y167820D01*
X73890Y167758D01*
X73828Y167727D01*
X73658Y167588D01*
X73596Y167558D01*
X73565Y167496D01*
X73519Y167449D01*
X73396Y167418D01*
X73334Y167388D01*
X73241Y167295D01*
X73056Y167264D01*
X72963Y167171D01*
X72839Y167140D01*
X72685Y167109D01*
X72592Y167017D01*
X72360Y167032D01*
X72082Y167001D01*
X72005Y166924D01*
X71881Y166893D01*
X71480Y166924D01*
X71263Y167017D01*
X70830Y167048D01*
X70614Y167140D01*
X70367Y167171D01*
X70305Y167264D01*
X70104Y167341D01*
X69873Y167449D01*
X69718Y167604D01*
X69656Y167635D01*
X69594Y167696D01*
X69440Y167758D01*
X69270Y167897D01*
X69239Y167959D01*
X69193Y168036D01*
X69146Y168052D01*
X69085Y168206D01*
X69054Y168268D01*
X69007Y168315D01*
X68945Y168346D01*
X68837Y168454D01*
X68745Y168608D01*
X68590Y168855D01*
X68559Y168979D01*
X68528Y169195D01*
X68467Y169319D01*
X68497Y169381D01*
X68405Y169535D01*
X68343Y169597D01*
X68374Y170709D01*
X68436Y170771D01*
X68497Y170957D01*
X68467Y171049D01*
X68528Y171204D01*
X68575Y171405D01*
X68621Y171451D01*
X68683Y171698D01*
X68729Y171745D01*
X68791Y171776D01*
X68837Y171822D01*
X68868Y171977D01*
X68945Y172054D01*
X69007Y172085D01*
X69146Y172224D01*
X69332Y172564D01*
X69378Y172610D01*
X69594Y172734D01*
X69764Y172873D01*
X69811Y172919D01*
X70212Y173104D01*
X70274Y173135D01*
X70367Y173228D01*
X70491Y173259D01*
X70645Y173290D01*
X70862Y173383D01*
X71387Y173414D01*
X71603Y173506D01*
X72005Y173475D01*
X72098Y173383D01*
X72237Y173367D01*
X72592Y173383D01*
X72777Y173259D01*
X72963Y173228D01*
X73056Y173135D01*
X73241Y173104D01*
X73303Y173043D01*
X73473Y172996D01*
X73596Y172873D01*
X73612Y172826D01*
X73890Y172672D01*
X74122Y172502D01*
X74153Y172440D01*
X74493Y172100D01*
X74508Y172054D01*
X74662Y171961D01*
X74724Y171899D01*
X74786Y171868D01*
X74971Y171745D01*
X75095Y171714D01*
X75435Y171528D01*
X75590Y171467D01*
X75775Y171436D01*
X75868Y171405D01*
X76053Y171374D01*
X76146Y171281D01*
X76269Y171250D01*
X76733Y171219D01*
X76887Y171158D01*
X84675Y171189D01*
X84737Y171250D01*
X85262Y171281D01*
X85339Y171389D01*
X85633Y171436D01*
X85726Y171467D01*
X85849Y171498D01*
X86035Y171621D01*
X86158Y171652D01*
X86220Y171714D01*
X86452Y171760D01*
X86560Y171868D01*
X86715Y171961D01*
X86931Y172054D01*
X86993Y172085D01*
X87271Y172363D01*
X87394Y172394D01*
X87534Y172533D01*
X87564Y172595D01*
X87611Y172641D01*
X87673Y172672D01*
X87734Y172734D01*
X87781Y172749D01*
X87812Y172811D01*
X87951Y172950D01*
X88013Y172981D01*
X88090Y173120D01*
X88121Y173244D01*
X88229Y173352D01*
X88291Y173383D01*
X88368Y173460D01*
X88430Y173614D01*
X88522Y173707D01*
X88553Y173923D01*
X88661Y174001D01*
X88708Y174047D01*
X88739Y174233D01*
X88800Y174294D01*
X88831Y174511D01*
X88878Y174557D01*
X88940Y174588D01*
X88970Y174835D01*
X89017Y174974D01*
X89032Y175206D01*
X89017Y175314D01*
X89048Y175407D01*
X89079Y175530D01*
X89140Y175685D01*
X89109Y188726D01*
X89017Y188942D01*
X88986Y189004D01*
X88940Y189050D01*
X88739Y189128D01*
X88708Y189189D01*
X88661Y189236D01*
X88476Y189267D01*
X88352Y189390D01*
X88182Y189437D01*
X88090Y189591D01*
X88059Y189653D01*
X87873Y189777D01*
X87781Y189869D01*
X87750Y189931D01*
X87704Y189977D01*
X87642Y190008D01*
X87503Y190240D01*
X87410Y190456D01*
X87379Y190518D01*
X87147Y190750D01*
X87008Y190765D01*
X68992Y190735D01*
X68822Y190688D01*
X68451Y190657D01*
X68296Y190595D01*
X68080Y190565D01*
X67926Y190472D01*
X67833Y190441D01*
X67648Y190410D01*
X67555Y190317D01*
X67385Y190271D01*
X67308Y190194D01*
X67184Y190163D01*
X66983Y190086D01*
X66937Y190039D01*
X66736Y189962D01*
X66659Y189854D01*
X66473Y189823D01*
X66427Y189777D01*
X66396Y189715D01*
X66164Y189607D01*
X65948Y189390D01*
X65886Y189359D01*
X65840Y189313D01*
X65809Y189251D01*
X65608Y189050D01*
X65546Y189019D01*
X65469Y188942D01*
X65438Y188880D01*
X65361Y188803D01*
X65253Y188757D01*
X65222Y188695D01*
X65160Y188633D01*
X65129Y188571D01*
X65021Y188463D01*
X64959Y188432D01*
X64882Y188324D01*
X64758Y188108D01*
X64665Y188015D01*
X64387Y187490D01*
X64233Y187243D01*
X64202Y187026D01*
X64109Y186933D01*
X64078Y186717D01*
X63986Y186625D01*
X63955Y186408D01*
X63924Y186285D01*
X63893Y186192D01*
X63862Y185728D01*
X63769Y185636D01*
X63738Y185512D01*
X63707Y181680D01*
X63677Y181587D01*
X63707Y179641D01*
X63677Y179548D01*
X63707Y176828D01*
X63677Y176736D01*
X63661Y174681D01*
X63677Y174047D01*
X63646Y173954D01*
X63661Y173166D01*
X63646Y172749D01*
X63677Y172656D01*
X63661Y171621D01*
X63677Y171606D01*
X63646Y171513D01*
X63677Y170802D01*
X63738Y170648D01*
X63769Y168855D01*
X63831Y168701D01*
X63862Y168577D01*
X63893Y168176D01*
X63924Y167187D01*
X63955Y167094D01*
X63986Y166229D01*
X64032Y166151D01*
X64187Y166090D01*
X64310Y165935D01*
X64526Y165904D01*
X64588Y165842D01*
X64743Y165750D01*
X64928Y165564D01*
X65052Y165533D01*
X65098Y165487D01*
X65129Y165425D01*
X65376Y165178D01*
X65500Y164962D01*
X65685Y164838D01*
X65732Y164606D01*
X65917Y164235D01*
X65994Y164158D01*
X66025Y163880D01*
X66118Y163787D01*
X66087Y162428D01*
X65994Y162211D01*
X65963Y161964D01*
X65917Y161918D01*
X65871Y161902D01*
X65840Y161779D01*
X65809Y161624D01*
X65623Y161284D01*
X65562Y161222D01*
X65407Y160944D01*
X65237Y160836D01*
X65083Y160651D01*
X64990Y160558D01*
X64928Y160527D01*
X64774Y160465D01*
X64712Y160434D01*
X64588Y160311D01*
X64248Y160125D01*
X64187Y160063D01*
X63862Y159986D01*
X63707Y159924D01*
X63568Y159878D01*
X61961Y159909D01*
X61900Y159971D01*
X61652Y160002D01*
X61560Y160033D01*
X61312Y160094D01*
X61189Y160218D01*
X61127Y160249D01*
X60911Y160373D01*
X60818Y160465D01*
X60602Y160589D01*
X60293Y160898D01*
X60231Y160929D01*
X60092Y161192D01*
X59937Y161346D01*
X59875Y161500D01*
X59845Y161562D01*
X59752Y161779D01*
X59721Y161840D01*
X59628Y161933D01*
X59597Y162211D01*
X59536Y162273D01*
X59505Y162397D01*
X59536Y163849D01*
X59597Y163911D01*
X59628Y164035D01*
X59659Y164189D01*
X59752Y164282D01*
X59814Y164529D01*
X59937Y164714D01*
X59968Y164869D01*
X60138Y164977D01*
X60184Y165023D01*
X60308Y165240D01*
X60416Y165348D01*
X60478Y165379D01*
X60540Y165471D01*
X60756Y165595D01*
X60880Y165781D01*
X61096Y165935D01*
X61143Y166074D01*
X61173Y166445D01*
X61235Y166507D01*
X61266Y166723D01*
X61251Y167048D01*
X61297Y167156D01*
X61359Y167218D01*
X61390Y167341D01*
X61421Y185945D01*
X61513Y186037D01*
X61544Y186532D01*
X61668Y186655D01*
X61699Y186995D01*
X61730Y187088D01*
X61761Y187304D01*
X61822Y187366D01*
X61853Y187582D01*
X61946Y187737D01*
X62008Y187892D01*
X62039Y188046D01*
X62162Y188262D01*
X62255Y188417D01*
X62317Y188633D01*
X62410Y188788D01*
X62564Y189004D01*
Y189035D01*
X62657Y189189D01*
X62719Y189344D01*
X62796Y189452D01*
X62858Y189483D01*
X62904Y189529D01*
X62935Y189591D01*
X63059Y189807D01*
X63167Y189885D01*
X63275Y190055D01*
X63398Y190271D01*
X63538Y190410D01*
X63599Y190441D01*
X63707Y190611D01*
X63924Y190765D01*
X63955Y190827D01*
X64032Y190905D01*
X64094Y190935D01*
X64310Y191090D01*
X64372Y191121D01*
X64480Y191198D01*
X64511Y191260D01*
X64665Y191414D01*
X64696Y191476D01*
X64743Y191523D01*
X64866Y191553D01*
X65144Y191708D01*
X65299Y191863D01*
X65515Y191955D01*
X65732Y192079D01*
X65917Y192202D01*
X66118Y192280D01*
X66272Y192341D01*
X66319Y192388D01*
X66381Y192419D01*
X66473Y192450D01*
X66782Y192542D01*
X66906Y192573D01*
X67122Y192666D01*
X67308Y192697D01*
X67400Y192790D01*
X67771Y192820D01*
X67987Y192913D01*
X68327Y192944D01*
X68420Y193037D01*
X68544Y193068D01*
X75157Y193099D01*
X80210Y193114D01*
X81059Y193099D01*
X81152Y193130D01*
X87178Y193160D01*
X87394Y193315D01*
X87503Y193423D01*
X87549Y193593D01*
X87812Y193856D01*
X87843Y193918D01*
X87920Y193995D01*
X87982Y194026D01*
X88352Y194396D01*
X88553Y194474D01*
X88631Y194551D01*
X89032Y194736D01*
X89279Y194798D01*
X89372Y194891D01*
X89588Y194922D01*
X90021Y194953D01*
X90114Y194984D01*
X90238Y195015D01*
X90732Y194984D01*
D02*
G37*
G36*
X80843Y183828D02*
X80998Y183766D01*
X81492Y183735D01*
X81616Y183611D01*
X81863Y183581D01*
X81955Y183488D01*
X82126Y183442D01*
X82203Y183333D01*
X82404Y183256D01*
X82666Y182993D01*
X82821Y182901D01*
X83022Y182700D01*
X83114Y182545D01*
X83207Y182453D01*
X83238Y182329D01*
X83300Y182267D01*
X83331Y182205D01*
X83392Y182051D01*
X83423Y181989D01*
X83485Y181835D01*
X83516Y181711D01*
X83609Y181556D01*
X83640Y181464D01*
X83671Y181000D01*
X83732Y180938D01*
X83763Y180815D01*
X83717Y180583D01*
X83671Y180413D01*
X83640Y180197D01*
X83655Y180027D01*
X83624Y179872D01*
X83516Y179764D01*
X83485Y179455D01*
X83392Y179239D01*
X83362Y179177D01*
X83315Y179131D01*
X83253Y179100D01*
X83176Y178899D01*
X83083Y178806D01*
X83053Y178744D01*
X82929Y178621D01*
X82898Y178559D01*
X82805Y178466D01*
X82774Y178404D01*
X82697Y178296D01*
X82651Y178281D01*
X82620Y178219D01*
X82558Y178157D01*
X82527Y178095D01*
X82450Y177987D01*
X82296Y177894D01*
X82187Y177694D01*
X82141Y177493D01*
X82110Y177307D01*
X82002Y177106D01*
X81971Y176983D01*
X81940Y176241D01*
X81909Y176148D01*
X81878Y176025D01*
X81847Y172471D01*
X81708Y172425D01*
X81585Y172456D01*
X79715Y172440D01*
X79622Y172533D01*
X79591Y172842D01*
X79561Y173336D01*
X79576Y174526D01*
X79545Y175113D01*
X79514Y175546D01*
X79483Y176566D01*
X79422Y176720D01*
X79391Y176844D01*
X79375Y176983D01*
X79406Y177076D01*
X79344Y177230D01*
X79282Y177292D01*
X79252Y177415D01*
X79174Y177616D01*
X79097Y177694D01*
X79004Y177848D01*
X78942Y177879D01*
X78912Y177941D01*
X78803Y178018D01*
X78726Y178095D01*
X78695Y178157D01*
X78618Y178234D01*
X78556Y178265D01*
X78170Y178559D01*
X78124Y178605D01*
X78062Y178636D01*
X77984Y178713D01*
X77954Y178775D01*
X77892Y178837D01*
X77861Y178961D01*
X77815Y179038D01*
X77768Y179053D01*
X77737Y179115D01*
X77614Y179239D01*
X77567Y179409D01*
X77475Y179563D01*
X77351Y179594D01*
X76486Y179625D01*
X76393Y179718D01*
X76177Y179749D01*
X68760D01*
X65114Y179779D01*
X65067Y179826D01*
X65098Y181865D01*
X65175Y181943D01*
X65299Y181974D01*
X75327Y181958D01*
X76687Y181989D01*
X76857Y182066D01*
X76980Y182097D01*
X77166Y182128D01*
X77320Y182221D01*
X77444Y182252D01*
X77536Y182283D01*
X77583Y182329D01*
X77598Y182375D01*
X77660Y182406D01*
X77892Y182638D01*
X77923Y182700D01*
X78062Y182839D01*
X78216Y182932D01*
X78433Y183055D01*
X78479Y183102D01*
X78510Y183163D01*
X78556Y183210D01*
X78618Y183241D01*
X78896Y183395D01*
X78958Y183488D01*
X79128Y183534D01*
X79298Y183611D01*
X79483Y183642D01*
X79576Y183735D01*
X79792Y183766D01*
X80225Y183797D01*
X80379Y183859D01*
X80843Y183828D01*
D02*
G37*
G36*
X54019D02*
X54174Y183766D01*
X54637Y183735D01*
X54730Y183642D01*
X54854Y183611D01*
X55039Y183581D01*
X55132Y183488D01*
X55286Y183457D01*
X55379Y183364D01*
X55843Y183117D01*
X55920Y183040D01*
X55951Y182978D01*
X55997Y182932D01*
X56059Y182901D01*
X56198Y182792D01*
X56229Y182731D01*
X56523Y182437D01*
X56723Y182360D01*
X56832Y182252D01*
X57079Y182190D01*
X57172Y182097D01*
X57481Y182066D01*
X57697Y181974D01*
X59211Y181943D01*
X59304Y181974D01*
X60293Y181943D01*
X60463Y181804D01*
X60478Y181665D01*
X60463Y179949D01*
X60494Y179857D01*
X60447Y179779D01*
X60324Y179749D01*
X59536Y179733D01*
X58995Y179749D01*
X58902Y179718D01*
X58423Y179733D01*
X58315Y179687D01*
X58253Y179625D01*
X58130Y179594D01*
X57450Y179563D01*
X57233Y179471D01*
X57017Y179440D01*
X56924Y179409D01*
X56863Y179378D01*
X56785Y179300D01*
X56754Y179239D01*
X56708Y179192D01*
X56492Y179069D01*
X56384Y178961D01*
X56353Y178899D01*
X56229Y178775D01*
X56136Y178621D01*
X56090Y178574D01*
X55920Y178497D01*
X55827Y178342D01*
X55719Y178234D01*
X55518Y178157D01*
X55472Y178111D01*
X55194Y177956D01*
X55163Y177833D01*
X55117Y177724D01*
X55024Y177632D01*
X54993Y177292D01*
X54900Y177076D01*
X54931Y176890D01*
X54900Y176859D01*
X54931Y176797D01*
X54900Y176705D01*
X54931Y176643D01*
X54900Y176550D01*
X54869Y176365D01*
X54838Y176272D01*
X54869Y160233D01*
X54900Y160141D01*
X54931Y160017D01*
X54900Y159924D01*
Y159894D01*
X54931Y159770D01*
X54993Y159708D01*
X55024Y159585D01*
X55055Y159306D01*
X55163Y159229D01*
X55209Y158967D01*
X55271Y158905D01*
X55302Y158719D01*
X55348Y158673D01*
X55410Y158642D01*
X55456Y158503D01*
X55487Y158349D01*
X55642Y158101D01*
X55673Y158039D01*
X55765Y157947D01*
X55858Y157792D01*
X55920Y157730D01*
X55951Y157545D01*
X56167Y157421D01*
X56244Y157220D01*
X56353Y157112D01*
X56384Y157051D01*
X56430Y157004D01*
X56476Y156989D01*
X56507Y156927D01*
X56785Y156649D01*
X56816Y156587D01*
X56924Y156479D01*
X56986Y156448D01*
X57063Y156402D01*
X57094Y156340D01*
X57172Y156263D01*
X57295Y156232D01*
X57465Y156093D01*
X57635Y155923D01*
X57790Y155861D01*
X57851Y155830D01*
X57975Y155706D01*
X58037Y155675D01*
X58315Y155552D01*
X58377Y155521D01*
X58454Y155444D01*
X58469Y155397D01*
X58593Y155366D01*
X58655Y155335D01*
X58809Y155274D01*
X59026Y155243D01*
X59118Y155150D01*
X59273Y155119D01*
X59366Y155026D01*
X59644Y154995D01*
X59798Y154934D01*
X60076Y154903D01*
X60138Y154841D01*
X60293Y154779D01*
X60725Y154748D01*
X60880Y154686D01*
X76671Y154717D01*
X76733Y154779D01*
X77104Y154810D01*
X77289Y154934D01*
X77505Y154965D01*
X77583Y155042D01*
X77614Y155258D01*
X77706Y155413D01*
X77861Y155753D01*
X77892Y155845D01*
X78046Y156000D01*
X78185Y156263D01*
X78247Y156293D01*
X78294Y156340D01*
X78324Y156402D01*
X78402Y156479D01*
X78464Y156510D01*
X78510Y156556D01*
X78525Y156602D01*
X78680Y156695D01*
X78726Y156742D01*
X78757Y156803D01*
X78881Y156927D01*
X78973Y157081D01*
X79066Y157174D01*
X79159Y157390D01*
X79221Y157545D01*
X79252Y157761D01*
X79344Y157854D01*
X79375Y157978D01*
X79406Y158132D01*
X79375Y158225D01*
X79468Y158441D01*
X79499Y158565D01*
X79530Y159276D01*
X79561Y159368D01*
X79530Y159461D01*
X79499Y160141D01*
X79530Y161655D01*
X79499Y162798D01*
X79514Y165904D01*
X79499Y167434D01*
X79591Y167588D01*
X79761Y167635D01*
X81832Y167604D01*
X81878Y167465D01*
X81909Y158997D01*
X81940Y158905D01*
X81971Y158781D01*
X82002Y158225D01*
X82126Y158039D01*
X82156Y157638D01*
X82311Y157298D01*
X82404Y157143D01*
X82465Y156989D01*
X82496Y156927D01*
X82620Y156803D01*
X82744Y156587D01*
X82898Y156433D01*
X82944Y156324D01*
X83083Y156247D01*
X83114Y156185D01*
X83269Y155907D01*
X83315Y155861D01*
X83362Y155845D01*
X83439Y155644D01*
X83516Y155475D01*
X83501Y155397D01*
X83547Y155289D01*
X83640Y155227D01*
X83671Y155104D01*
X83640Y155011D01*
X83671Y154764D01*
X83732Y154702D01*
X83763Y154578D01*
X83732Y153898D01*
X83640Y153682D01*
X83609Y153373D01*
X83516Y153280D01*
X83485Y153064D01*
X83392Y152971D01*
X83362Y152848D01*
X83331Y152786D01*
X83223Y152709D01*
X83192Y152585D01*
X83114Y152477D01*
X83006Y152307D01*
X82898Y152261D01*
X82867Y152199D01*
X82821Y152152D01*
X82759Y152121D01*
X82682Y152075D01*
X82651Y152013D01*
X82543Y151874D01*
X82357Y151843D01*
X82249Y151735D01*
X82234Y151689D01*
X82172Y151658D01*
X82110Y151596D01*
X81940Y151550D01*
X81786Y151519D01*
X81646Y151380D01*
X81399Y151349D01*
X81183Y151256D01*
X79792Y151287D01*
X79576Y151380D01*
X79422Y151411D01*
X79360Y151473D01*
X79298Y151503D01*
X79143Y151565D01*
X78989Y151596D01*
X78803Y151782D01*
X78742Y151812D01*
X78525Y151936D01*
X78464Y151998D01*
X78402Y152029D01*
X78124Y152307D01*
X61034Y152338D01*
X60942Y152431D01*
X60725Y152462D01*
X59953Y152492D01*
X59798Y152554D01*
X59397Y152585D01*
X59211Y152709D01*
X58964Y152740D01*
X58809Y152801D01*
X58686Y152771D01*
X58608Y152817D01*
X58578Y152879D01*
X58330Y152909D01*
X58222Y153018D01*
X58099Y153049D01*
X58006Y153080D01*
X57913Y153172D01*
X57697Y153203D01*
X57604Y153234D01*
X57450Y153327D01*
X56863Y153636D01*
X56785Y153682D01*
X56754Y153744D01*
X56600Y153775D01*
X56507Y153837D01*
X56476Y153898D01*
X56430Y153945D01*
X56275Y154007D01*
X56213Y154068D01*
X56152Y154099D01*
X55982Y154238D01*
X55843Y154377D01*
X55688Y154439D01*
X55611Y154516D01*
X55580Y154578D01*
X55441Y154717D01*
X55379Y154748D01*
X55101Y155026D01*
X55055Y155042D01*
X54962Y155196D01*
X54854Y155304D01*
X54792Y155335D01*
X54622Y155505D01*
X54591Y155567D01*
X54452Y155706D01*
X54313Y155784D01*
X54267Y155954D01*
X54159Y156123D01*
X54035Y156247D01*
X53958Y156448D01*
X53788Y156587D01*
X53757Y156649D01*
X53541Y157051D01*
X53417Y157174D01*
X53386Y157298D01*
X53340Y157468D01*
X53293Y157514D01*
X53139Y157854D01*
X53046Y158101D01*
X52953Y158317D01*
X52922Y158503D01*
X52876Y158549D01*
X52814Y158580D01*
X52783Y158920D01*
X52706Y159090D01*
X52675Y159306D01*
X52644Y159461D01*
X52583Y159523D01*
X52552Y159646D01*
X52521Y160233D01*
X52459Y160388D01*
X52428Y177817D01*
X52320Y177956D01*
X52119Y178003D01*
X52026Y178095D01*
X51995Y178157D01*
X51949Y178204D01*
X51794Y178234D01*
X51624Y178373D01*
X51594Y178435D01*
X51424Y178605D01*
X51362Y178636D01*
X51223Y178775D01*
X51192Y178837D01*
X51099Y178930D01*
X51068Y179053D01*
X51037Y179115D01*
X50991Y179161D01*
X50929Y179192D01*
X50883Y179239D01*
X50852Y179486D01*
X50775Y179594D01*
X50713Y179625D01*
X50666Y179764D01*
X50682Y179841D01*
X50620Y179996D01*
X50574Y180166D01*
X50605Y181495D01*
X50666Y181556D01*
X50697Y181680D01*
X50728Y181835D01*
X50852Y182020D01*
X50898Y182190D01*
X50975Y182298D01*
X51037Y182360D01*
X51068Y182514D01*
X51192Y182638D01*
X51223Y182700D01*
X51362Y182839D01*
X51424Y182870D01*
X51470Y182916D01*
X51485Y182962D01*
X51547Y182993D01*
X51594Y183040D01*
X51624Y183102D01*
X51702Y183179D01*
X51764Y183210D01*
X51825Y183272D01*
X52057Y183318D01*
X52165Y183395D01*
X52258Y183488D01*
X52459Y183565D01*
X52598Y183611D01*
X52752Y183642D01*
X52814Y183735D01*
X52938Y183766D01*
X53309Y183797D01*
X53463Y183859D01*
X54019Y183828D01*
D02*
G37*
G36*
X237200Y172877D02*
X97200D01*
Y204877D01*
X237200D01*
Y172877D01*
D02*
G37*
G36*
Y138892D02*
X97200D01*
Y171892D01*
X237200D01*
Y138892D01*
D02*
G37*
G36*
X36869Y301194D02*
X37049Y301180D01*
X37257Y301166D01*
X37493Y301152D01*
X37978Y301097D01*
X38491Y301028D01*
X38990Y300917D01*
X39226Y300847D01*
X39448Y300764D01*
X39462D01*
X39504Y300750D01*
X39559Y300722D01*
X39642Y300681D01*
X39739Y300625D01*
X39850Y300570D01*
X40100Y300403D01*
X40252Y300306D01*
X40391Y300195D01*
X40558Y300057D01*
X40710Y299918D01*
X40863Y299752D01*
X41015Y299585D01*
X41154Y299391D01*
X41293Y299183D01*
X41307Y299169D01*
X41320Y299128D01*
X41362Y299072D01*
X41404Y298975D01*
X41459Y298864D01*
X41515Y298725D01*
X41584Y298573D01*
X41639Y298379D01*
X41709Y298185D01*
X41778Y297963D01*
X41834Y297713D01*
X41889Y297449D01*
X41931Y297158D01*
X41972Y296853D01*
X41986Y296534D01*
X42000Y296201D01*
Y296021D01*
X41986Y295896D01*
Y295744D01*
X41972Y295577D01*
X41944Y295369D01*
X41917Y295161D01*
X41847Y294690D01*
X41736Y294190D01*
X41584Y293705D01*
X41501Y293469D01*
X41390Y293247D01*
X41376Y293234D01*
X41362Y293192D01*
X41320Y293136D01*
X41279Y293067D01*
X41210Y292970D01*
X41126Y292859D01*
X41043Y292748D01*
X40932Y292623D01*
X40683Y292346D01*
X40377Y292082D01*
X40017Y291833D01*
X39809Y291722D01*
X39601Y291625D01*
X39587D01*
X39545Y291611D01*
X39476Y291583D01*
X39379Y291555D01*
X39268Y291514D01*
X39115Y291472D01*
X38949Y291431D01*
X38755Y291389D01*
X38533Y291334D01*
X38297Y291292D01*
X38034Y291250D01*
X37742Y291223D01*
X37437Y291181D01*
X37104Y291167D01*
X36758Y291139D01*
X36383D01*
X28991D01*
Y292831D01*
X36383D01*
X36397D01*
X36453D01*
X36536D01*
X36661D01*
X36799Y292845D01*
X36952D01*
X37132Y292859D01*
X37312Y292873D01*
X37715Y292901D01*
X38117Y292956D01*
X38505Y293039D01*
X38685Y293081D01*
X38838Y293136D01*
X38852D01*
X38866Y293150D01*
X38907Y293164D01*
X38963Y293192D01*
X39115Y293275D01*
X39282Y293386D01*
X39490Y293525D01*
X39684Y293705D01*
X39878Y293927D01*
X40058Y294190D01*
Y294204D01*
X40072Y294232D01*
X40100Y294274D01*
X40128Y294329D01*
X40156Y294398D01*
X40183Y294496D01*
X40225Y294593D01*
X40266Y294704D01*
X40336Y294981D01*
X40405Y295300D01*
X40461Y295660D01*
X40474Y296049D01*
Y296229D01*
X40461Y296354D01*
X40447Y296506D01*
X40433Y296687D01*
X40405Y296881D01*
X40363Y297089D01*
X40266Y297519D01*
X40197Y297741D01*
X40114Y297963D01*
X40017Y298171D01*
X39906Y298365D01*
X39781Y298545D01*
X39629Y298711D01*
X39615Y298725D01*
X39587Y298753D01*
X39531Y298781D01*
X39462Y298836D01*
X39365Y298892D01*
X39240Y298961D01*
X39088Y299044D01*
X38907Y299114D01*
X38699Y299183D01*
X38463Y299266D01*
X38200Y299336D01*
X37909Y299391D01*
X37576Y299447D01*
X37215Y299488D01*
X36813Y299502D01*
X36383Y299516D01*
X28991D01*
Y301208D01*
X36383D01*
X36411D01*
X36467D01*
X36564D01*
X36702D01*
X36869Y301194D01*
D02*
G37*
G36*
X37826Y289004D02*
X37923Y288976D01*
X38075Y288920D01*
X38242Y288865D01*
X38450Y288782D01*
X38672Y288699D01*
X38907Y288588D01*
X39171Y288463D01*
X39420Y288324D01*
X39698Y288172D01*
X39961Y287991D01*
X40211Y287797D01*
X40461Y287589D01*
X40696Y287353D01*
X40918Y287104D01*
X40932Y287090D01*
X40960Y287034D01*
X41015Y286965D01*
X41085Y286854D01*
X41168Y286729D01*
X41265Y286563D01*
X41362Y286383D01*
X41459Y286161D01*
X41556Y285925D01*
X41653Y285675D01*
X41750Y285398D01*
X41834Y285093D01*
X41903Y284774D01*
X41958Y284441D01*
X41986Y284094D01*
X42000Y283720D01*
Y283526D01*
X41986Y283373D01*
X41972Y283207D01*
X41958Y282999D01*
X41931Y282777D01*
X41889Y282527D01*
X41847Y282264D01*
X41792Y281986D01*
X41723Y281709D01*
X41653Y281432D01*
X41556Y281140D01*
X41445Y280863D01*
X41320Y280599D01*
X41168Y280350D01*
X41154Y280336D01*
X41126Y280294D01*
X41085Y280225D01*
X41015Y280142D01*
X40918Y280031D01*
X40821Y279906D01*
X40696Y279767D01*
X40544Y279615D01*
X40377Y279462D01*
X40197Y279296D01*
X40003Y279143D01*
X39781Y278977D01*
X39545Y278810D01*
X39296Y278658D01*
X39018Y278519D01*
X38727Y278380D01*
X38713Y278367D01*
X38658Y278353D01*
X38561Y278325D01*
X38450Y278283D01*
X38297Y278228D01*
X38131Y278172D01*
X37923Y278117D01*
X37701Y278048D01*
X37451Y277992D01*
X37188Y277923D01*
X36910Y277867D01*
X36605Y277826D01*
X35967Y277743D01*
X35634Y277729D01*
X35301Y277715D01*
X35274D01*
X35218D01*
X35107D01*
X34969Y277729D01*
X34788Y277743D01*
X34580Y277756D01*
X34358Y277784D01*
X34109Y277812D01*
X33845Y277853D01*
X33568Y277895D01*
X32972Y278034D01*
X32680Y278131D01*
X32389Y278228D01*
X32084Y278339D01*
X31807Y278477D01*
X31793Y278491D01*
X31737Y278519D01*
X31668Y278561D01*
X31557Y278616D01*
X31432Y278699D01*
X31294Y278797D01*
X31141Y278907D01*
X30961Y279032D01*
X30794Y279185D01*
X30600Y279337D01*
X30420Y279518D01*
X30226Y279712D01*
X30045Y279920D01*
X29865Y280142D01*
X29699Y280391D01*
X29546Y280641D01*
X29532Y280655D01*
X29518Y280710D01*
X29477Y280780D01*
X29421Y280891D01*
X29366Y281015D01*
X29297Y281182D01*
X29227Y281362D01*
X29158Y281556D01*
X29088Y281778D01*
X29019Y282028D01*
X28950Y282278D01*
X28894Y282555D01*
X28797Y283123D01*
X28783Y283428D01*
X28770Y283748D01*
Y283928D01*
X28783Y284067D01*
X28797Y284233D01*
X28825Y284427D01*
X28853Y284635D01*
X28894Y284871D01*
X28950Y285121D01*
X29005Y285384D01*
X29088Y285648D01*
X29186Y285925D01*
X29297Y286202D01*
X29435Y286466D01*
X29574Y286729D01*
X29754Y286979D01*
X29768Y286993D01*
X29796Y287034D01*
X29851Y287104D01*
X29934Y287187D01*
X30031Y287298D01*
X30156Y287423D01*
X30295Y287547D01*
X30461Y287700D01*
X30642Y287853D01*
X30850Y288005D01*
X31072Y288158D01*
X31321Y288296D01*
X31585Y288449D01*
X31876Y288574D01*
X32181Y288699D01*
X32500Y288810D01*
X32888Y287145D01*
X32875D01*
X32833Y287118D01*
X32750Y287104D01*
X32653Y287062D01*
X32542Y287020D01*
X32417Y286951D01*
X32112Y286812D01*
X31779Y286632D01*
X31432Y286396D01*
X31113Y286147D01*
X30975Y285994D01*
X30850Y285842D01*
X30836Y285828D01*
X30822Y285800D01*
X30794Y285758D01*
X30753Y285689D01*
X30697Y285606D01*
X30642Y285509D01*
X30586Y285398D01*
X30531Y285259D01*
X30475Y285107D01*
X30420Y284954D01*
X30309Y284594D01*
X30240Y284177D01*
X30212Y283955D01*
Y283581D01*
X30226Y283470D01*
X30240Y283345D01*
X30253Y283193D01*
X30267Y283026D01*
X30295Y282860D01*
X30392Y282458D01*
X30517Y282042D01*
X30600Y281834D01*
X30697Y281626D01*
X30808Y281432D01*
X30933Y281237D01*
X30947Y281224D01*
X30961Y281196D01*
X31002Y281140D01*
X31058Y281071D01*
X31127Y281002D01*
X31224Y280905D01*
X31321Y280807D01*
X31432Y280697D01*
X31571Y280585D01*
X31710Y280461D01*
X32029Y280239D01*
X32403Y280031D01*
X32833Y279851D01*
X32847D01*
X32888Y279837D01*
X32958Y279809D01*
X33041Y279795D01*
X33152Y279767D01*
X33277Y279726D01*
X33429Y279698D01*
X33582Y279656D01*
X33762Y279615D01*
X33956Y279587D01*
X34372Y279518D01*
X34816Y279476D01*
X35288Y279462D01*
X35301D01*
X35357D01*
X35440D01*
X35565Y279476D01*
X35704D01*
X35870Y279490D01*
X36050Y279504D01*
X36258Y279518D01*
X36480Y279545D01*
X36702Y279573D01*
X37188Y279656D01*
X37673Y279781D01*
X38145Y279934D01*
X38158D01*
X38200Y279961D01*
X38256Y279989D01*
X38339Y280017D01*
X38450Y280072D01*
X38561Y280142D01*
X38824Y280294D01*
X39129Y280502D01*
X39420Y280752D01*
X39712Y281057D01*
X39836Y281224D01*
X39961Y281404D01*
Y281418D01*
X39989Y281445D01*
X40017Y281501D01*
X40058Y281584D01*
X40100Y281681D01*
X40156Y281792D01*
X40197Y281917D01*
X40252Y282056D01*
X40363Y282374D01*
X40461Y282749D01*
X40530Y283151D01*
X40544Y283359D01*
X40558Y283581D01*
Y283720D01*
X40544Y283817D01*
X40530Y283942D01*
X40516Y284080D01*
X40488Y284247D01*
X40461Y284413D01*
X40363Y284802D01*
X40294Y284996D01*
X40211Y285204D01*
X40114Y285412D01*
X40003Y285606D01*
X39878Y285800D01*
X39739Y285994D01*
X39725Y286008D01*
X39698Y286036D01*
X39656Y286091D01*
X39587Y286161D01*
X39504Y286230D01*
X39393Y286327D01*
X39268Y286424D01*
X39129Y286535D01*
X38963Y286646D01*
X38782Y286757D01*
X38588Y286868D01*
X38366Y286979D01*
X38131Y287076D01*
X37867Y287173D01*
X37590Y287270D01*
X37299Y287339D01*
X37729Y289031D01*
X37756D01*
X37826Y289004D01*
D02*
G37*
G36*
X41792Y273846D02*
X31072D01*
X41792Y270101D01*
Y268575D01*
X30891Y264886D01*
X41792D01*
Y263250D01*
X28991D01*
Y265788D01*
X38061Y268825D01*
X38075D01*
X38117Y268839D01*
X38186Y268867D01*
X38269Y268895D01*
X38366Y268922D01*
X38491Y268964D01*
X38769Y269061D01*
X39074Y269158D01*
X39393Y269255D01*
X39684Y269352D01*
X39823Y269394D01*
X39947Y269435D01*
X39934D01*
X39920Y269449D01*
X39878Y269463D01*
X39823Y269477D01*
X39739Y269505D01*
X39656Y269532D01*
X39545Y269560D01*
X39434Y269602D01*
X39296Y269643D01*
X39143Y269699D01*
X38977Y269754D01*
X38782Y269810D01*
X38588Y269879D01*
X38366Y269949D01*
X38145Y270032D01*
X37895Y270115D01*
X28991Y273194D01*
Y275482D01*
X41792D01*
Y273846D01*
D02*
G37*
G36*
X41085Y76959D02*
X41266Y76945D01*
X41474Y76932D01*
X41709Y76918D01*
X42195Y76862D01*
X42708Y76793D01*
X43207Y76682D01*
X43443Y76613D01*
X43665Y76529D01*
X43679D01*
X43720Y76515D01*
X43776Y76488D01*
X43859Y76446D01*
X43956Y76391D01*
X44067Y76335D01*
X44317Y76169D01*
X44469Y76072D01*
X44608Y75961D01*
X44774Y75822D01*
X44927Y75683D01*
X45079Y75517D01*
X45232Y75351D01*
X45371Y75156D01*
X45509Y74948D01*
X45523Y74935D01*
X45537Y74893D01*
X45579Y74837D01*
X45620Y74740D01*
X45676Y74629D01*
X45731Y74491D01*
X45801Y74338D01*
X45856Y74144D01*
X45925Y73950D01*
X45995Y73728D01*
X46050Y73478D01*
X46106Y73215D01*
X46147Y72924D01*
X46189Y72618D01*
X46203Y72299D01*
X46217Y71967D01*
Y71786D01*
X46203Y71662D01*
Y71509D01*
X46189Y71343D01*
X46161Y71135D01*
X46133Y70927D01*
X46064Y70455D01*
X45953Y69956D01*
X45801Y69470D01*
X45717Y69235D01*
X45606Y69013D01*
X45593Y68999D01*
X45579Y68957D01*
X45537Y68902D01*
X45496Y68832D01*
X45426Y68735D01*
X45343Y68624D01*
X45260Y68513D01*
X45149Y68389D01*
X44899Y68111D01*
X44594Y67848D01*
X44233Y67598D01*
X44025Y67487D01*
X43817Y67390D01*
X43804D01*
X43762Y67376D01*
X43693Y67348D01*
X43595Y67321D01*
X43485Y67279D01*
X43332Y67238D01*
X43166Y67196D01*
X42971Y67154D01*
X42750Y67099D01*
X42514Y67057D01*
X42250Y67016D01*
X41959Y66988D01*
X41654Y66946D01*
X41321Y66933D01*
X40974Y66905D01*
X40600D01*
X33208D01*
Y68597D01*
X40600D01*
X40614D01*
X40669D01*
X40753D01*
X40877D01*
X41016Y68611D01*
X41168D01*
X41349Y68624D01*
X41529Y68638D01*
X41931Y68666D01*
X42333Y68721D01*
X42722Y68805D01*
X42902Y68846D01*
X43055Y68902D01*
X43068D01*
X43082Y68916D01*
X43124Y68930D01*
X43179Y68957D01*
X43332Y69040D01*
X43498Y69151D01*
X43706Y69290D01*
X43901Y69470D01*
X44095Y69692D01*
X44275Y69956D01*
Y69970D01*
X44289Y69997D01*
X44317Y70039D01*
X44344Y70094D01*
X44372Y70164D01*
X44400Y70261D01*
X44441Y70358D01*
X44483Y70469D01*
X44552Y70746D01*
X44622Y71065D01*
X44677Y71426D01*
X44691Y71814D01*
Y71994D01*
X44677Y72119D01*
X44663Y72272D01*
X44650Y72452D01*
X44622Y72646D01*
X44580Y72854D01*
X44483Y73284D01*
X44414Y73506D01*
X44331Y73728D01*
X44233Y73936D01*
X44123Y74130D01*
X43998Y74310D01*
X43845Y74477D01*
X43831Y74491D01*
X43804Y74518D01*
X43748Y74546D01*
X43679Y74602D01*
X43582Y74657D01*
X43457Y74727D01*
X43304Y74810D01*
X43124Y74879D01*
X42916Y74948D01*
X42680Y75032D01*
X42417Y75101D01*
X42126Y75156D01*
X41793Y75212D01*
X41432Y75254D01*
X41030Y75267D01*
X40600Y75281D01*
X33208D01*
Y76973D01*
X40600D01*
X40628D01*
X40683D01*
X40780D01*
X40919D01*
X41085Y76959D01*
D02*
G37*
G36*
X37202Y64714D02*
X37341Y64700D01*
X37493Y64672D01*
X37674Y64644D01*
X37882Y64603D01*
X38090Y64547D01*
X38312Y64478D01*
X38534Y64394D01*
X38769Y64284D01*
X39005Y64173D01*
X39241Y64034D01*
X39463Y63868D01*
X39685Y63687D01*
X39699Y63673D01*
X39726Y63632D01*
X39782Y63576D01*
X39865Y63479D01*
X39948Y63368D01*
X40045Y63216D01*
X40142Y63035D01*
X40239Y62827D01*
X40350Y62578D01*
X40447Y62314D01*
X40545Y61995D01*
X40628Y61663D01*
X40697Y61274D01*
X40753Y60858D01*
X40794Y60414D01*
X40808Y59915D01*
Y56642D01*
X46009D01*
Y54950D01*
X33208D01*
Y60220D01*
X33222Y60497D01*
X33236Y60816D01*
X33264Y61136D01*
X33291Y61441D01*
X33305Y61593D01*
X33333Y61718D01*
Y61732D01*
X33347Y61760D01*
Y61815D01*
X33361Y61870D01*
X33388Y61954D01*
X33402Y62051D01*
X33472Y62273D01*
X33555Y62522D01*
X33666Y62786D01*
X33791Y63049D01*
X33943Y63299D01*
Y63313D01*
X33957Y63327D01*
X34026Y63410D01*
X34123Y63521D01*
X34262Y63673D01*
X34429Y63826D01*
X34650Y64006D01*
X34886Y64173D01*
X35177Y64325D01*
X35191D01*
X35219Y64339D01*
X35261Y64367D01*
X35316Y64394D01*
X35385Y64422D01*
X35482Y64450D01*
X35691Y64533D01*
X35954Y64603D01*
X36245Y64672D01*
X36578Y64714D01*
X36925Y64727D01*
X36939D01*
X36994D01*
X37077D01*
X37202Y64714D01*
D02*
G37*
G36*
X46009Y50595D02*
X35288D01*
X46009Y46851D01*
Y45325D01*
X35108Y41637D01*
X46009D01*
Y40000D01*
X33208D01*
Y42538D01*
X42278Y45575D01*
X42292D01*
X42333Y45589D01*
X42403Y45617D01*
X42486Y45644D01*
X42583Y45672D01*
X42708Y45714D01*
X42985Y45811D01*
X43290Y45908D01*
X43609Y46005D01*
X43901Y46102D01*
X44039Y46144D01*
X44164Y46185D01*
X44150D01*
X44136Y46199D01*
X44095Y46213D01*
X44039Y46227D01*
X43956Y46255D01*
X43873Y46282D01*
X43762Y46310D01*
X43651Y46352D01*
X43512Y46393D01*
X43360Y46449D01*
X43193Y46504D01*
X42999Y46560D01*
X42805Y46629D01*
X42583Y46698D01*
X42361Y46782D01*
X42112Y46865D01*
X33208Y49944D01*
Y52232D01*
X46009D01*
Y50595D01*
D02*
G37*
%LPC*%
G36*
X90207Y193099D02*
X90114Y193068D01*
X89836Y193037D01*
X89650Y192851D01*
X89434Y192728D01*
X89279Y192542D01*
X89249Y192481D01*
X89187Y192450D01*
X89140Y192311D01*
X89109Y192125D01*
X89048Y192063D01*
X89017Y191847D01*
X89048Y191631D01*
X89140Y191414D01*
Y191353D01*
X89156Y191337D01*
X89264Y191229D01*
X89310Y191059D01*
X89450Y190920D01*
X89480Y190858D01*
X89527Y190812D01*
X89728Y190735D01*
X89774Y190688D01*
X90021Y190657D01*
X90176Y190595D01*
X90299Y190565D01*
X90547Y190626D01*
X90701Y190688D01*
X90886Y190719D01*
X90964Y190765D01*
X90995Y190827D01*
X91103Y190935D01*
X91165Y190966D01*
X91396Y191198D01*
X91427Y191260D01*
X91489Y191322D01*
X91520Y191538D01*
X91551Y191693D01*
X91613Y191847D01*
X91551Y192001D01*
X91520Y192125D01*
X91489Y192372D01*
X91427Y192434D01*
X91396Y192496D01*
X91180Y192712D01*
X91165Y192759D01*
X91103Y192790D01*
X90917Y192913D01*
X90856Y192944D01*
X90763Y193037D01*
X90639Y193068D01*
X90207Y193099D01*
D02*
G37*
G36*
X71557Y171482D02*
X71387Y171405D01*
X71201Y171374D01*
X71109Y171281D01*
X70830Y171127D01*
X70753Y171080D01*
X70691Y170926D01*
X70568Y170741D01*
X70537Y170617D01*
X70475Y170555D01*
X70444Y170431D01*
X70475Y169844D01*
X70537Y169783D01*
X70599Y169535D01*
X70645Y169489D01*
X70691Y169473D01*
X70722Y169412D01*
X70892Y169242D01*
X71171Y169087D01*
X71232Y169025D01*
X71449Y168995D01*
X71510Y168933D01*
X71649Y168917D01*
X71928Y168948D01*
X71974Y168995D01*
X72098Y169025D01*
X72252Y169056D01*
X72638Y169350D01*
X72731Y169504D01*
X72839Y169582D01*
X72855Y169597D01*
X72886Y169659D01*
X72947Y169813D01*
X72978Y170061D01*
X73009Y170153D01*
X72978Y170339D01*
X72947Y170431D01*
X72916Y170709D01*
X72700Y171019D01*
X72654Y171127D01*
X72592Y171158D01*
X72298Y171359D01*
X72159Y171405D01*
X71943Y171436D01*
X71850Y171467D01*
X71557Y171482D01*
D02*
G37*
G36*
X63167Y164328D02*
X62301Y164297D01*
X62240Y164235D01*
X62178Y164205D01*
X62116Y164143D01*
X62054Y164112D01*
X61992Y164050D01*
X61853Y163973D01*
X61822Y163911D01*
X61761Y163849D01*
X61730Y163787D01*
X61637Y163571D01*
X61606Y163478D01*
X61544Y163417D01*
X61513Y163293D01*
X61544Y162798D01*
X61668Y162613D01*
X61699Y162458D01*
X61822Y162335D01*
X61853Y162273D01*
X62147Y161980D01*
X62549Y161825D01*
X62750Y161840D01*
X62858Y161825D01*
X62919Y161856D01*
X63012Y161825D01*
X63167Y161856D01*
X63229Y161918D01*
X63460Y161964D01*
X63646Y162150D01*
X63677Y162211D01*
X63924Y162458D01*
X63955Y162582D01*
X64109Y162922D01*
X64078Y163417D01*
X64001Y163494D01*
X63986Y163509D01*
X63955Y163695D01*
X63831Y163880D01*
X63800Y163942D01*
X63754Y163988D01*
X63692Y164019D01*
X63522Y164158D01*
X63337Y164282D01*
X63167Y164328D01*
D02*
G37*
G36*
X80905Y181974D02*
X80070Y181943D01*
X79792Y181788D01*
X79669Y181665D01*
X79607Y181634D01*
X79561Y181587D01*
X79437Y181371D01*
X79375Y181309D01*
X79329Y181139D01*
X79252Y181062D01*
X79236Y180923D01*
X79267Y180243D01*
X79375Y180166D01*
X79437Y180011D01*
X79468Y179949D01*
X79638Y179779D01*
X79700Y179749D01*
X79777Y179702D01*
X79792Y179687D01*
X79854Y179625D01*
X80101Y179563D01*
X80163Y179501D01*
X80256Y179471D01*
X80349Y179501D01*
X80936Y179532D01*
X81090Y179594D01*
X81245Y179687D01*
X81307Y179749D01*
X81368Y179779D01*
X81430Y179841D01*
X81492Y179872D01*
X81600Y179980D01*
X81631Y180135D01*
X81724Y180228D01*
X81755Y180444D01*
X81847Y180537D01*
X81878Y180660D01*
X81847Y181000D01*
X81724Y181124D01*
X81693Y181340D01*
X81569Y181464D01*
X81476Y181618D01*
X81307Y181726D01*
X81245Y181850D01*
X81121Y181881D01*
X80905Y181974D01*
D02*
G37*
G36*
X54112D02*
X53525D01*
X53278Y181943D01*
X53061Y181819D01*
X53000Y181757D01*
X52938Y181726D01*
X52737Y181587D01*
X52706Y181464D01*
X52521Y181278D01*
X52490Y181062D01*
X52459Y180969D01*
X52490Y180320D01*
X52613Y180104D01*
X52768Y179888D01*
X52799Y179826D01*
X52876Y179749D01*
X53031Y179718D01*
X53092Y179625D01*
X53293Y179548D01*
X53432Y179501D01*
X54019Y179532D01*
X54174Y179594D01*
X54267Y179625D01*
X54359Y179718D01*
X54483Y179749D01*
X54591Y179795D01*
X54622Y179857D01*
X54699Y179934D01*
X54746Y179949D01*
X54931Y180351D01*
X54916Y180429D01*
X54946Y180552D01*
X54993Y180691D01*
X54962Y180938D01*
X54900Y181093D01*
X54931Y181124D01*
X54900Y181217D01*
X54746Y181495D01*
X54560Y181680D01*
X54529Y181742D01*
X54452Y181819D01*
X54112Y181974D01*
D02*
G37*
G36*
X80565Y155614D02*
X80472Y155583D01*
X80256Y155521D01*
X80101Y155490D01*
X80040Y155428D01*
X79978Y155397D01*
X79761Y155243D01*
X79653Y155135D01*
X79622Y155073D01*
X79499Y154949D01*
X79468Y154825D01*
X79406Y154671D01*
X79375Y154547D01*
X79344Y154393D01*
X79282Y154238D01*
X79313Y154146D01*
X79406Y153960D01*
X79375Y153868D01*
X79499Y153682D01*
X79530Y153528D01*
X79638Y153450D01*
X79684Y153404D01*
X79715Y153342D01*
X79823Y153234D01*
X79978Y153172D01*
X80163Y153141D01*
X80225Y153080D01*
X80349Y153049D01*
X80998Y153080D01*
X81059Y153141D01*
X81245Y153172D01*
X81600Y153528D01*
X81631Y153589D01*
X81724Y153682D01*
X81755Y153837D01*
X81817Y153898D01*
X81878Y154053D01*
X81847Y154671D01*
X81724Y154795D01*
X81693Y154980D01*
X81631Y155042D01*
X81523Y155243D01*
X81322Y155320D01*
X81214Y155428D01*
X81152Y155459D01*
X81090Y155521D01*
X80982Y155536D01*
X80843Y155521D01*
X80828Y155536D01*
X80704Y155567D01*
X80565Y155614D01*
D02*
G37*
G36*
X106945Y198197D02*
X106611D01*
X105966Y198177D01*
X105362Y198135D01*
X104778Y198052D01*
X104216Y197948D01*
X103716Y197822D01*
X103237Y197698D01*
X102800Y197552D01*
X102404Y197406D01*
X102050Y197239D01*
X101738Y197094D01*
X101467Y196969D01*
X101258Y196844D01*
X101071Y196740D01*
X100946Y196656D01*
X100863Y196614D01*
X100842Y196594D01*
X100446Y196281D01*
X100092Y195969D01*
X99801Y195636D01*
X99551Y195282D01*
X99321Y194948D01*
X99134Y194615D01*
X98988Y194282D01*
X98884Y193969D01*
X98780Y193657D01*
X98717Y193386D01*
X98655Y193136D01*
X98634Y192928D01*
X98613Y192761D01*
X98593Y192616D01*
Y192532D01*
Y192511D01*
X98613Y192178D01*
X98634Y191866D01*
X98738Y191283D01*
X98884Y190762D01*
X98968Y190533D01*
X99051Y190324D01*
X99134Y190137D01*
X99197Y189970D01*
X99280Y189825D01*
X99342Y189700D01*
X99405Y189616D01*
X99446Y189554D01*
X99488Y189512D01*
Y189491D01*
X99842Y189075D01*
X100238Y188721D01*
X100634Y188408D01*
X101029Y188158D01*
X101363Y187971D01*
X101509Y187888D01*
X101634Y187825D01*
X101738Y187783D01*
X101821Y187742D01*
X101863Y187721D01*
X101883D01*
X102175Y187617D01*
X102487Y187513D01*
X103175Y187304D01*
X103862Y187117D01*
X104529Y186950D01*
X104841Y186888D01*
X105133Y186825D01*
X105382Y186763D01*
X105612Y186721D01*
X105799Y186680D01*
X105924Y186638D01*
X106028Y186617D01*
X106049D01*
X106424Y186534D01*
X106757Y186471D01*
X107049Y186388D01*
X107319Y186305D01*
X107549Y186242D01*
X107757Y186159D01*
X107944Y186096D01*
X108090Y186013D01*
X108215Y185951D01*
X108340Y185909D01*
X108423Y185846D01*
X108486Y185805D01*
X108569Y185742D01*
X108590Y185721D01*
X108757Y185534D01*
X108861Y185367D01*
X108944Y185201D01*
X109007Y185034D01*
X109048Y184909D01*
X109069Y184805D01*
Y184743D01*
Y184722D01*
X109027Y184409D01*
X108923Y184118D01*
X108757Y183889D01*
X108527Y183680D01*
X108278Y183493D01*
X107986Y183347D01*
X107674Y183243D01*
X107340Y183139D01*
X107028Y183055D01*
X106715Y183014D01*
X106424Y182972D01*
X106153Y182931D01*
X105924D01*
X105757Y182910D01*
X105612D01*
X104945Y182931D01*
X104299Y183014D01*
X103654Y183118D01*
X103050Y183285D01*
X102487Y183451D01*
X101925Y183659D01*
X101425Y183868D01*
X100946Y184097D01*
X100509Y184305D01*
X100134Y184513D01*
X99801Y184722D01*
X99509Y184888D01*
X99301Y185055D01*
X99134Y185159D01*
X99030Y185242D01*
X98988Y185263D01*
X98488D01*
Y180973D01*
X99113Y180723D01*
X99738Y180515D01*
X100363Y180327D01*
X100988Y180181D01*
X101592Y180035D01*
X102154Y179931D01*
X102717Y179848D01*
X103237Y179765D01*
X103695Y179723D01*
X104133Y179681D01*
X104529Y179640D01*
X104841Y179619D01*
X105112Y179598D01*
X113818D01*
X105466D01*
X106174Y179619D01*
X106840Y179660D01*
X107465Y179744D01*
X108048Y179848D01*
X108590Y179973D01*
X109090Y180119D01*
X109548Y180264D01*
X109965Y180431D01*
X110340Y180577D01*
X110652Y180723D01*
X110923Y180868D01*
X111152Y180993D01*
X111339Y181098D01*
X111464Y181181D01*
X111548Y181223D01*
X111568Y181243D01*
X111964Y181577D01*
X112318Y181910D01*
X112610Y182264D01*
X112860Y182618D01*
X113089Y182972D01*
X113276Y183347D01*
X113422Y183680D01*
X113547Y184034D01*
X113630Y184347D01*
X113693Y184638D01*
X113755Y184888D01*
X113776Y185117D01*
X113797Y185305D01*
X113818Y185430D01*
Y185555D01*
X113797Y185951D01*
X113755Y186346D01*
X113693Y186700D01*
X113589Y187034D01*
X113485Y187346D01*
X113360Y187638D01*
X113235Y187888D01*
X113089Y188137D01*
X112964Y188346D01*
X112818Y188533D01*
X112693Y188679D01*
X112589Y188825D01*
X112485Y188929D01*
X112422Y188992D01*
X112381Y189033D01*
X112360Y189054D01*
X112068Y189283D01*
X111714Y189512D01*
X111319Y189720D01*
X110902Y189929D01*
X110464Y190116D01*
X110006Y190283D01*
X109090Y190595D01*
X108652Y190720D01*
X108257Y190824D01*
X107882Y190928D01*
X107549Y191012D01*
X107278Y191074D01*
X107070Y191116D01*
X107007Y191137D01*
X106945Y191158D01*
X106903D01*
X106466Y191241D01*
X106070Y191324D01*
X105716Y191408D01*
X105403Y191491D01*
X105133Y191553D01*
X104883Y191637D01*
X104674Y191699D01*
X104487Y191762D01*
X104341Y191803D01*
X104216Y191866D01*
X104112Y191907D01*
X104029Y191949D01*
X103966Y191970D01*
X103925Y191991D01*
X103904Y192012D01*
X103716Y192178D01*
X103570Y192345D01*
X103487Y192532D01*
X103404Y192720D01*
X103362Y192866D01*
X103341Y192990D01*
Y193095D01*
Y193115D01*
X103362Y193261D01*
X103383Y193407D01*
X103487Y193657D01*
X103633Y193865D01*
X103800Y194053D01*
X103945Y194198D01*
X104091Y194303D01*
X104195Y194365D01*
X104237Y194386D01*
X104612Y194552D01*
X105028Y194678D01*
X105445Y194761D01*
X105841Y194823D01*
X106195Y194865D01*
X106361D01*
X106486Y194886D01*
X106757D01*
X107340Y194865D01*
X107923Y194802D01*
X108486Y194698D01*
X109007Y194573D01*
X109527Y194407D01*
X110006Y194240D01*
X110464Y194053D01*
X110881Y193865D01*
X111256Y193678D01*
X111589Y193490D01*
X111902Y193324D01*
X112152Y193157D01*
X112339Y193032D01*
X112485Y192928D01*
X112589Y192866D01*
X112610Y192845D01*
X113110D01*
Y196969D01*
X112527Y197177D01*
X111964Y197385D01*
X111381Y197531D01*
X110819Y197677D01*
X110256Y197802D01*
X109715Y197906D01*
X109194Y197989D01*
X108715Y198052D01*
X108278Y198093D01*
X107861Y198135D01*
X107507Y198156D01*
X107194Y198177D01*
X106945Y198197D01*
D02*
G37*
G36*
X142290Y193844D02*
X142081D01*
X141665Y193824D01*
X141248Y193761D01*
X140832Y193678D01*
X140415Y193553D01*
X140020Y193407D01*
X139645Y193261D01*
X139291Y193074D01*
X138936Y192907D01*
X138624Y192740D01*
X138353Y192574D01*
X138103Y192407D01*
X137895Y192262D01*
X137708Y192136D01*
X137583Y192053D01*
X137499Y191991D01*
X137478Y191970D01*
Y193470D01*
X133146D01*
Y193844D01*
X133146D01*
X133146D01*
Y179931D01*
X137478D01*
Y189533D01*
X137978Y189804D01*
X138457Y190012D01*
X138874Y190158D01*
X139249Y190241D01*
X139561Y190304D01*
X139686Y190324D01*
X139790D01*
X139895Y190345D01*
X140269D01*
X140519Y190304D01*
X140748Y190283D01*
X140957Y190220D01*
X141144Y190158D01*
X141290Y190095D01*
X141561Y189970D01*
X141748Y189825D01*
X141873Y189700D01*
X141936Y189616D01*
X141957Y189575D01*
X142040Y189408D01*
X142102Y189221D01*
X142144Y189012D01*
X142206Y188783D01*
X142269Y188304D01*
X142331Y187825D01*
X142352Y187367D01*
Y187159D01*
X142373Y186992D01*
Y186846D01*
Y186742D01*
Y186659D01*
Y186638D01*
Y179931D01*
X140012D01*
X146747D01*
Y188741D01*
X146726Y189179D01*
X146705Y189596D01*
X146643Y189991D01*
X146559Y190366D01*
X146476Y190699D01*
X146372Y191012D01*
X146247Y191283D01*
X146143Y191532D01*
X146039Y191762D01*
X145914Y191970D01*
X145810Y192136D01*
X145726Y192262D01*
X145643Y192366D01*
X145601Y192449D01*
X145560Y192491D01*
X145539Y192511D01*
X145310Y192740D01*
X145039Y192949D01*
X144768Y193136D01*
X144497Y193282D01*
X144206Y193407D01*
X143914Y193511D01*
X143352Y193678D01*
X143102Y193740D01*
X142852Y193782D01*
X142644Y193803D01*
X142456Y193824D01*
X142290Y193844D01*
D02*
G37*
G36*
X235224Y193511D02*
X234891D01*
X234474Y193490D01*
X234079Y193428D01*
X233683Y193324D01*
X233287Y193199D01*
X232892Y193032D01*
X232537Y192866D01*
X232183Y192678D01*
X231850Y192491D01*
X231538Y192303D01*
X231267Y192116D01*
X231038Y191949D01*
X230830Y191782D01*
X230663Y191658D01*
X230538Y191553D01*
X230455Y191491D01*
X230434Y191470D01*
Y193470D01*
X226102D01*
Y193511D01*
D01*
D01*
Y179931D01*
X230434D01*
Y188992D01*
X230996Y189158D01*
X231538Y189283D01*
X232079Y189387D01*
X232558Y189450D01*
X232787Y189471D01*
X232975Y189491D01*
X233162D01*
X233308Y189512D01*
X233870D01*
X234141Y189491D01*
X234370Y189471D01*
X234579D01*
X234745Y189450D01*
X234891Y189429D01*
X234974Y189408D01*
X234995D01*
X235516Y189325D01*
X235912D01*
Y193449D01*
X235557Y193490D01*
X235391D01*
X235224Y193511D01*
D02*
G37*
G36*
X200067Y193886D02*
X199921D01*
X199275Y193865D01*
X198650Y193803D01*
X198067Y193699D01*
X197526Y193574D01*
X197026Y193428D01*
X196567Y193261D01*
X196130Y193095D01*
X195755Y192907D01*
X195422Y192720D01*
X195110Y192553D01*
X194860Y192386D01*
X194651Y192241D01*
X194485Y192116D01*
X194380Y192012D01*
X194297Y191949D01*
X194276Y191928D01*
X193922Y191553D01*
X193589Y191137D01*
X193318Y190720D01*
X193089Y190283D01*
X192881Y189825D01*
X192714Y189387D01*
X192589Y188950D01*
X192464Y188533D01*
X192381Y188137D01*
X192319Y187784D01*
X192277Y187450D01*
X192256Y187180D01*
X192235Y186950D01*
X192214Y186763D01*
Y186784D01*
Y186617D01*
X192235Y185992D01*
X192319Y185409D01*
X192423Y184867D01*
X192548Y184368D01*
X192714Y183889D01*
X192902Y183472D01*
X193110Y183076D01*
X193318Y182722D01*
X193506Y182410D01*
X193714Y182139D01*
X193902Y181910D01*
X194068Y181723D01*
X194193Y181577D01*
X194318Y181473D01*
X194380Y181410D01*
X194401Y181389D01*
X194839Y181077D01*
X195297Y180785D01*
X195797Y180556D01*
X196297Y180348D01*
X196817Y180160D01*
X197338Y180015D01*
X197838Y179911D01*
X198338Y179806D01*
X198796Y179723D01*
X199233Y179681D01*
X199629Y179640D01*
X199962Y179598D01*
X200233D01*
X200441Y179577D01*
X192214D01*
D01*
X206544D01*
Y187450D01*
Y187409D01*
X206523Y187971D01*
X206482Y188512D01*
X206398Y189012D01*
X206294Y189471D01*
X206148Y189908D01*
X206023Y190304D01*
X205857Y190658D01*
X205711Y190970D01*
X205565Y191262D01*
X205399Y191512D01*
X205274Y191720D01*
X205149Y191887D01*
X205024Y192032D01*
X204940Y192116D01*
X204899Y192178D01*
X204878Y192199D01*
X204545Y192491D01*
X204191Y192761D01*
X203795Y192990D01*
X203399Y193178D01*
X202983Y193344D01*
X202587Y193470D01*
X202170Y193594D01*
X201775Y193678D01*
X201400Y193740D01*
X201045Y193803D01*
X200733Y193844D01*
X200462Y193865D01*
X200233D01*
X200067Y193886D01*
D02*
G37*
G36*
X190361Y197885D02*
X185654D01*
X182759Y185513D01*
X179613Y197885D01*
X185347D01*
X175011D01*
X171699Y185513D01*
X168950Y197885D01*
X164118D01*
X168950Y179931D01*
X164118D01*
X185529Y179931D01*
X190361Y197885D01*
D02*
G37*
G36*
X192214Y184014D02*
Y184014D01*
D01*
Y184014D01*
D02*
G37*
G36*
X222103Y193844D02*
X215104D01*
X214167Y193824D01*
X213209Y193740D01*
X212313Y193636D01*
X211897Y193574D01*
X211501Y193511D01*
X211126Y193428D01*
X210793Y193365D01*
X210501Y193324D01*
X210252Y193261D01*
X210043Y193220D01*
X209897Y193178D01*
X209814Y193157D01*
X209772D01*
Y189887D01*
X210168D01*
X210647Y190054D01*
X211105Y190220D01*
X211522Y190345D01*
X211918Y190450D01*
X212272Y190554D01*
X212605Y190637D01*
X212917Y190699D01*
X213188Y190741D01*
X213417Y190783D01*
X213626Y190824D01*
X213813Y190845D01*
X213959D01*
X214063Y190866D01*
X214563D01*
X214896Y190845D01*
X215208Y190824D01*
X215479Y190783D01*
X215729Y190762D01*
X215958Y190720D01*
X216167Y190679D01*
X216354Y190637D01*
X216500Y190574D01*
X216646Y190533D01*
X216750Y190491D01*
X216833Y190470D01*
X216916Y190429D01*
X216958Y190408D01*
X217000Y190387D01*
X217271Y190179D01*
X217479Y189950D01*
X217625Y189700D01*
X217708Y189450D01*
X217770Y189241D01*
X217791Y189054D01*
X217812Y188929D01*
Y188908D01*
Y188887D01*
Y188825D01*
X217291Y188804D01*
X216812Y188762D01*
X216333Y188721D01*
X215896Y188679D01*
X215063Y188575D01*
X214292Y188471D01*
X213626Y188346D01*
X213022Y188221D01*
X212480Y188096D01*
X212022Y187971D01*
X211605Y187846D01*
X211272Y187742D01*
X211001Y187638D01*
X210772Y187533D01*
X210606Y187450D01*
X210481Y187409D01*
X210418Y187367D01*
X210397Y187346D01*
X210085Y187117D01*
X209793Y186846D01*
X209564Y186575D01*
X209356Y186284D01*
X209168Y185992D01*
X209023Y185701D01*
X208918Y185409D01*
X208814Y185138D01*
X208731Y184867D01*
X208689Y184618D01*
X208648Y184389D01*
X208606Y184201D01*
Y184034D01*
X208585Y183909D01*
Y193844D01*
D01*
D01*
Y179577D01*
Y183805D01*
X208606Y183472D01*
X208648Y183139D01*
X208710Y182847D01*
X208794Y182556D01*
X209002Y182035D01*
X209106Y181806D01*
X209231Y181598D01*
X209356Y181410D01*
X209460Y181243D01*
X209585Y181098D01*
X209668Y180973D01*
X209752Y180889D01*
X209814Y180827D01*
X209856Y180785D01*
X209877Y180764D01*
X210126Y180556D01*
X210397Y180369D01*
X210668Y180223D01*
X210939Y180077D01*
X211210Y179973D01*
X211480Y179869D01*
X212001Y179723D01*
X212230Y179681D01*
X212438Y179640D01*
X212647Y179619D01*
X212813Y179598D01*
X212938Y179577D01*
X208585D01*
X213126D01*
X213626Y179598D01*
X214084Y179640D01*
X214500Y179702D01*
X214834Y179765D01*
X215125Y179827D01*
X215333Y179890D01*
X215396Y179911D01*
X215459Y179931D01*
X215479Y179952D01*
X215500D01*
X215896Y180119D01*
X216271Y180327D01*
X216667Y180556D01*
X217021Y180785D01*
X217333Y181014D01*
X217458Y181098D01*
X217583Y181181D01*
X217666Y181243D01*
X217729Y181306D01*
X217770Y181327D01*
X217791Y181348D01*
Y179931D01*
X222103D01*
Y189116D01*
X222082Y189554D01*
X222040Y189970D01*
X221957Y190345D01*
X221853Y190699D01*
X221707Y191033D01*
X221582Y191324D01*
X221415Y191595D01*
X221269Y191824D01*
X221124Y192032D01*
X220957Y192199D01*
X220832Y192366D01*
X220707Y192491D01*
X220582Y192574D01*
X220499Y192636D01*
X220457Y192678D01*
X220436Y192699D01*
X220103Y192907D01*
X219728Y193074D01*
X219333Y193240D01*
X218916Y193365D01*
X218020Y193574D01*
X217146Y193699D01*
X216750Y193740D01*
X216354Y193782D01*
X216000Y193803D01*
X215708Y193824D01*
X215459Y193844D01*
X222103D01*
D02*
G37*
G36*
X157057Y193844D02*
X156786D01*
X156203Y193824D01*
X155661Y193782D01*
X155141Y193719D01*
X154662Y193636D01*
X154203Y193532D01*
X153787Y193428D01*
X153412Y193303D01*
X153058Y193199D01*
X152745Y193074D01*
X152495Y192949D01*
X152266Y192845D01*
X152058Y192740D01*
X151912Y192657D01*
X151808Y192595D01*
X151746Y192553D01*
X151725Y192532D01*
X151391Y192282D01*
X151121Y192032D01*
X150871Y191762D01*
X150663Y191491D01*
X150475Y191199D01*
X150329Y190928D01*
X150204Y190679D01*
X150100Y190429D01*
X150017Y190179D01*
X149975Y189970D01*
X149934Y189783D01*
X149892Y189616D01*
Y189471D01*
X149871Y189366D01*
Y189304D01*
Y189283D01*
X149892Y188950D01*
X149934Y188637D01*
X149996Y188346D01*
X150100Y188075D01*
X150204Y187804D01*
X150350Y187554D01*
X150663Y187096D01*
X151058Y186680D01*
X151496Y186325D01*
X151954Y186034D01*
X152433Y185763D01*
X152912Y185534D01*
X153370Y185367D01*
X153808Y185222D01*
X154203Y185117D01*
X154516Y185034D01*
X154662Y184993D01*
X154766Y184972D01*
X154870Y184951D01*
X154932Y184930D01*
X154995D01*
X155349Y184867D01*
X155682Y184826D01*
X155974Y184763D01*
X156224Y184722D01*
X156474Y184659D01*
X156682Y184618D01*
X156848Y184576D01*
X157015Y184534D01*
X157140Y184493D01*
X157244Y184451D01*
X157411Y184389D01*
X157494Y184368D01*
X157515Y184347D01*
X157702Y184243D01*
X157827Y184118D01*
X157931Y183972D01*
X157994Y183847D01*
X158036Y183743D01*
X158056Y183639D01*
Y183576D01*
Y183555D01*
X158036Y183368D01*
X157952Y183201D01*
X157827Y183035D01*
X157661Y182910D01*
X157473Y182806D01*
X157265Y182722D01*
X156807Y182597D01*
X156328Y182514D01*
X156119Y182493D01*
X155932Y182472D01*
X155765Y182451D01*
X155536D01*
X155016Y182472D01*
X154516Y182535D01*
X154016Y182618D01*
X153537Y182722D01*
X153079Y182868D01*
X152641Y183014D01*
X152225Y183160D01*
X151850Y183326D01*
X151496Y183493D01*
X151183Y183639D01*
X150892Y183805D01*
X150663Y183930D01*
X150475Y184034D01*
X150350Y184118D01*
X150246Y184180D01*
X150225Y184201D01*
X149809D01*
Y193844D01*
D01*
Y179556D01*
X154619D01*
X149809D01*
Y180639D01*
X150288Y180452D01*
X150767Y180285D01*
X151267Y180140D01*
X151746Y180015D01*
X152704Y179827D01*
X153162Y179744D01*
X153579Y179702D01*
X153974Y179640D01*
X154328Y179619D01*
X154662Y179598D01*
X154932Y179577D01*
X155141Y179556D01*
X162493D01*
X155453D01*
X156057Y179577D01*
X156619Y179619D01*
X157161Y179681D01*
X157640Y179765D01*
X158119Y179848D01*
X158535Y179952D01*
X158931Y180077D01*
X159264Y180202D01*
X159577Y180306D01*
X159848Y180431D01*
X160077Y180535D01*
X160285Y180639D01*
X160431Y180702D01*
X160535Y180764D01*
X160597Y180806D01*
X160618Y180827D01*
X160952Y181077D01*
X161243Y181348D01*
X161493Y181618D01*
X161701Y181889D01*
X161889Y182181D01*
X162035Y182451D01*
X162160Y182743D01*
X162264Y182993D01*
X162326Y183243D01*
X162389Y183493D01*
X162430Y183701D01*
X162472Y183868D01*
Y184014D01*
X162493Y184139D01*
Y184222D01*
X162472Y184513D01*
X162451Y184784D01*
X162347Y185284D01*
X162180Y185721D01*
X161993Y186096D01*
X161805Y186388D01*
X161722Y186513D01*
X161660Y186617D01*
X161576Y186700D01*
X161535Y186763D01*
X161514Y186784D01*
X161493Y186805D01*
X161285Y186992D01*
X161056Y187179D01*
X160764Y187325D01*
X160473Y187492D01*
X159827Y187742D01*
X159181Y187971D01*
X158869Y188054D01*
X158577Y188137D01*
X158306Y188200D01*
X158077Y188263D01*
X157869Y188283D01*
X157723Y188325D01*
X157640Y188346D01*
X157598D01*
X157203Y188408D01*
X156828Y188471D01*
X156494Y188533D01*
X156203Y188596D01*
X155953Y188658D01*
X155724Y188700D01*
X155515Y188741D01*
X155349Y188783D01*
X155203Y188825D01*
X155099Y188867D01*
X154995Y188887D01*
X154932Y188929D01*
X154828Y188950D01*
X154807Y188971D01*
X154641Y189096D01*
X154516Y189221D01*
X154432Y189366D01*
X154370Y189512D01*
X154328Y189637D01*
X154307Y189741D01*
Y189804D01*
Y189825D01*
X154328Y190012D01*
X154412Y190179D01*
X154537Y190324D01*
X154662Y190449D01*
X154787Y190533D01*
X154911Y190595D01*
X154995Y190637D01*
X155016Y190658D01*
X155307Y190762D01*
X155599Y190824D01*
X155890Y190887D01*
X156182Y190908D01*
X156411Y190928D01*
X156619Y190949D01*
X156786D01*
X157244Y190928D01*
X157702Y190887D01*
X158140Y190804D01*
X158556Y190720D01*
X158973Y190595D01*
X159348Y190470D01*
X159723Y190345D01*
X160056Y190200D01*
X160368Y190054D01*
X160660Y189929D01*
X160889Y189804D01*
X161097Y189679D01*
X161264Y189596D01*
X161389Y189512D01*
X161472Y189471D01*
X161493Y189450D01*
X161868D01*
Y192866D01*
X161410Y193032D01*
X160972Y193199D01*
X160056Y193428D01*
X159202Y193615D01*
X158806Y193678D01*
X158431Y193719D01*
X158077Y193761D01*
X157765Y193803D01*
X157473Y193824D01*
X157244D01*
X157057Y193844D01*
D02*
G37*
G36*
X123607Y193886D02*
X121633D01*
X123461D01*
X122816Y193865D01*
X122191Y193803D01*
X121608Y193699D01*
X121066Y193574D01*
X120566Y193428D01*
X120108Y193261D01*
X119670Y193095D01*
X119296Y192907D01*
X118962Y192720D01*
X118650Y192553D01*
X118400Y192386D01*
X118192Y192241D01*
X118025Y192116D01*
X117921Y192012D01*
X117838Y191949D01*
X117817Y191928D01*
X117463Y191553D01*
X117129Y191137D01*
X116859Y190720D01*
X116630Y190283D01*
X116421Y189825D01*
X116255Y189387D01*
X116130Y188950D01*
X116005Y188533D01*
X115921Y188137D01*
X115859Y187783D01*
X115817Y187450D01*
X115796Y187179D01*
X115776Y186950D01*
X115755Y186763D01*
Y179577D01*
X124169D01*
X124711Y179598D01*
X125252Y179619D01*
X126294Y179744D01*
X126794Y179827D01*
X127252Y179931D01*
X127710Y180035D01*
X128106Y180140D01*
X128481Y180223D01*
X128814Y180327D01*
X129126Y180431D01*
X129376Y180515D01*
X129564Y180577D01*
X129710Y180639D01*
X129814Y180660D01*
X129835Y180681D01*
Y184159D01*
X129355D01*
X128939Y183889D01*
X128522Y183659D01*
X128106Y183451D01*
X127689Y183264D01*
X127294Y183118D01*
X126898Y182993D01*
X126523Y182889D01*
X126169Y182806D01*
X125856Y182743D01*
X125565Y182701D01*
X125294Y182660D01*
X125065Y182639D01*
X124898D01*
X124753Y182618D01*
X124253D01*
X123899Y182660D01*
X123545Y182701D01*
X123232Y182764D01*
X122920Y182826D01*
X122649Y182931D01*
X122128Y183139D01*
X121712Y183389D01*
X121337Y183659D01*
X121045Y183951D01*
X120795Y184263D01*
X120587Y184576D01*
X120441Y184867D01*
X120337Y185138D01*
X120254Y185388D01*
X120191Y185597D01*
X120170Y185763D01*
X120149Y185867D01*
Y185909D01*
X130084D01*
Y180577D01*
Y187409D01*
X130064Y187971D01*
X130022Y188512D01*
X129939Y189012D01*
X129835Y189471D01*
X129689Y189908D01*
X129564Y190304D01*
X129397Y190658D01*
X129251Y190970D01*
X129106Y191262D01*
X128939Y191512D01*
X128814Y191720D01*
X128689Y191887D01*
X128564Y192032D01*
X128481Y192116D01*
X128439Y192178D01*
X128418Y192199D01*
X128085Y192491D01*
X127731Y192761D01*
X127335Y192990D01*
X126939Y193178D01*
X126523Y193344D01*
X126127Y193470D01*
X125711Y193594D01*
X125315Y193678D01*
X124940Y193740D01*
X124586Y193803D01*
X124274Y193844D01*
X124003Y193865D01*
X123774D01*
X123607Y193886D01*
D02*
G37*
G36*
X235912Y179931D02*
X230503D01*
X235912D01*
D01*
D02*
G37*
%LPD*%
G36*
X200025Y191158D02*
X200421Y191054D01*
X200775Y190928D01*
X201087Y190762D01*
X201337Y190554D01*
X201545Y190324D01*
X201733Y190075D01*
X201879Y189825D01*
X201983Y189554D01*
X202066Y189304D01*
X202149Y189075D01*
X202191Y188887D01*
X202212Y188700D01*
X202233Y188575D01*
Y188492D01*
Y188450D01*
X196588D01*
X196651Y188929D01*
X196776Y189346D01*
X196942Y189720D01*
X197151Y190033D01*
X197380Y190283D01*
X197630Y190512D01*
X197880Y190699D01*
X198150Y190845D01*
X198421Y190949D01*
X198671Y191033D01*
X198921Y191095D01*
X199129Y191137D01*
X199317Y191158D01*
X199442Y191178D01*
X199567D01*
X200025Y191158D01*
D02*
G37*
G36*
X206544Y179577D02*
X200629D01*
X201171Y179598D01*
X201712Y179619D01*
X202753Y179744D01*
X203253Y179827D01*
X203711Y179931D01*
X204170Y180035D01*
X204565Y180140D01*
X204940Y180223D01*
X205274Y180327D01*
X205586Y180431D01*
X205836Y180515D01*
X206023Y180577D01*
X206169Y180639D01*
X206273Y180660D01*
X206294Y180681D01*
Y184159D01*
X205815D01*
X205399Y183889D01*
X204982Y183659D01*
X204565Y183451D01*
X204149Y183264D01*
X203753Y183118D01*
X203357Y182993D01*
X202983Y182889D01*
X202628Y182806D01*
X202316Y182743D01*
X202024Y182701D01*
X201754Y182660D01*
X201525Y182639D01*
X201358D01*
X201212Y182618D01*
X200712D01*
X200358Y182660D01*
X200004Y182701D01*
X199692Y182764D01*
X199379Y182826D01*
X199109Y182931D01*
X198588Y183139D01*
X198171Y183389D01*
X197796Y183659D01*
X197505Y183951D01*
X197255Y184263D01*
X197047Y184576D01*
X196901Y184867D01*
X196797Y185138D01*
X196713Y185388D01*
X196651Y185597D01*
X196630Y185763D01*
X196609Y185867D01*
Y185909D01*
X206544D01*
Y179577D01*
D02*
G37*
G36*
X180426Y179931D02*
X174073D01*
X177197Y191616D01*
X180426Y179931D01*
D02*
G37*
G36*
X217791Y183472D02*
X217583Y183305D01*
X217354Y183160D01*
X216916Y182910D01*
X216500Y182743D01*
X216125Y182639D01*
X215792Y182556D01*
X215667Y182535D01*
X215542D01*
X215438Y182514D01*
X215313D01*
X214875Y182535D01*
X214521Y182577D01*
X214209Y182618D01*
X213959Y182701D01*
X213771Y182764D01*
X213646Y182806D01*
X213563Y182847D01*
X213542Y182868D01*
X213355Y183035D01*
X213230Y183222D01*
X213126Y183430D01*
X213063Y183639D01*
X213022Y183847D01*
X213001Y184014D01*
Y184118D01*
Y184159D01*
X213022Y184347D01*
X213042Y184513D01*
X213147Y184805D01*
X213292Y185055D01*
X213459Y185263D01*
X213605Y185409D01*
X213751Y185513D01*
X213855Y185576D01*
X213896Y185597D01*
X214084Y185680D01*
X214313Y185742D01*
X214584Y185826D01*
X214875Y185888D01*
X215521Y186013D01*
X216187Y186096D01*
X216500Y186138D01*
X216791Y186180D01*
X217062Y186221D01*
X217312Y186242D01*
X217500Y186263D01*
X217666D01*
X217750Y186284D01*
X217791D01*
Y183472D01*
D02*
G37*
G36*
X123565Y191158D02*
X123961Y191053D01*
X124315Y190928D01*
X124628Y190762D01*
X124878Y190554D01*
X125086Y190324D01*
X125273Y190075D01*
X125419Y189825D01*
X125523Y189554D01*
X125606Y189304D01*
X125690Y189075D01*
X125731Y188887D01*
X125752Y188700D01*
X125773Y188575D01*
Y188492D01*
Y188450D01*
X120129D01*
X120191Y188929D01*
X120316Y189345D01*
X120483Y189720D01*
X120691Y190033D01*
X120920Y190283D01*
X121170Y190512D01*
X121420Y190699D01*
X121691Y190845D01*
X121962Y190949D01*
X122212Y191033D01*
X122462Y191095D01*
X122670Y191137D01*
X122857Y191158D01*
X122982Y191178D01*
X123107D01*
X123565Y191158D01*
D02*
G37*
G36*
X115776Y185992D02*
X115859Y185409D01*
X115963Y184867D01*
X116088Y184368D01*
X116255Y183889D01*
X116442Y183472D01*
X116650Y183076D01*
X116859Y182722D01*
X117046Y182410D01*
X117254Y182139D01*
X117442Y181910D01*
X117608Y181723D01*
X117733Y181577D01*
X117858Y181473D01*
X117921Y181410D01*
X117942Y181389D01*
X118379Y181077D01*
X118837Y180785D01*
X119337Y180556D01*
X119837Y180348D01*
X120358Y180160D01*
X120878Y180015D01*
X121378Y179911D01*
X121878Y179806D01*
X122337Y179723D01*
X122774Y179681D01*
X123170Y179640D01*
X123503Y179598D01*
X123774D01*
X123982Y179577D01*
X115755D01*
Y186617D01*
X115776Y185992D01*
D02*
G37*
%LPC*%
G36*
X209533Y162473D02*
Y162098D01*
X205305D01*
X205138Y161494D01*
X204576Y161807D01*
X204305Y161911D01*
X204055Y162015D01*
X203826Y162098D01*
X203659Y162161D01*
X203555Y162182D01*
X203534Y162202D01*
X203514D01*
X203180Y162286D01*
X202826Y162369D01*
X202493Y162411D01*
X202181Y162432D01*
X201910Y162452D01*
X201702Y162473D01*
X201514D01*
X201056Y162452D01*
X200618Y162390D01*
X200223Y162327D01*
X199848Y162244D01*
X199556Y162140D01*
X199431Y162098D01*
X199327Y162078D01*
X199244Y162036D01*
X199181Y162015D01*
X199140Y161994D01*
X199119D01*
X198702Y161807D01*
X198327Y161578D01*
X197994Y161369D01*
X197703Y161161D01*
X197474Y160974D01*
X197307Y160828D01*
X197203Y160724D01*
X197161Y160682D01*
X196870Y160328D01*
X196599Y159953D01*
X196370Y159599D01*
X196182Y159266D01*
X196015Y158974D01*
X195911Y158745D01*
X195870Y158662D01*
X195849Y158599D01*
X195828Y158558D01*
Y158537D01*
X195682Y158058D01*
X195557Y157579D01*
X195474Y157100D01*
X195432Y156641D01*
X195391Y156246D01*
Y156079D01*
X195370Y155933D01*
Y156746D01*
Y155933D01*
Y155662D01*
X195391Y155038D01*
X195432Y154434D01*
X195516Y153892D01*
X195620Y153371D01*
X195724Y152913D01*
X195849Y152476D01*
X195995Y152101D01*
X196140Y151747D01*
X196286Y151434D01*
X196432Y151184D01*
X196557Y150955D01*
X196661Y150768D01*
X196765Y150643D01*
X196849Y150539D01*
X196890Y150476D01*
X196911Y150456D01*
X197224Y150164D01*
X197536Y149893D01*
X197890Y149664D01*
X198244Y149476D01*
X198619Y149310D01*
X198973Y149164D01*
X199348Y149060D01*
X199681Y148956D01*
X200014Y148893D01*
X200327Y148831D01*
X200598Y148810D01*
X200827Y148768D01*
X201035D01*
X201181Y148748D01*
X201306D01*
X201722Y148768D01*
X202139Y148810D01*
X202493Y148852D01*
X202806Y148935D01*
X203076Y148997D01*
X203264Y149039D01*
X203389Y149081D01*
X203430Y149102D01*
X203784Y149247D01*
X204118Y149414D01*
X204409Y149581D01*
X204659Y149747D01*
X204888Y149893D01*
X205034Y150018D01*
X205138Y150101D01*
X205180Y150122D01*
Y149872D01*
Y149581D01*
X205159Y149310D01*
X205117Y149060D01*
X205096Y148852D01*
X205055Y148685D01*
X205013Y148560D01*
X204992Y148477D01*
Y148456D01*
X204930Y148248D01*
X204847Y148039D01*
X204743Y147873D01*
X204659Y147727D01*
X204576Y147623D01*
X204513Y147519D01*
X204472Y147477D01*
X204451Y147456D01*
X204284Y147310D01*
X204097Y147185D01*
X203722Y146998D01*
X203555Y146936D01*
X203430Y146873D01*
X203347Y146852D01*
X203305Y146831D01*
X203014Y146748D01*
X202680Y146706D01*
X202347Y146665D01*
X202056Y146623D01*
X201764D01*
X201556Y146602D01*
X201348D01*
X200993Y146623D01*
X200639Y146644D01*
X200285Y146686D01*
X199973Y146748D01*
X199702Y146790D01*
X199473Y146831D01*
X199390Y146852D01*
X199327D01*
X199306Y146873D01*
X199286D01*
X198869Y146977D01*
X198494Y147060D01*
X198161Y147165D01*
X197890Y147248D01*
X197661Y147331D01*
X197494Y147394D01*
X197390Y147415D01*
X197348Y147435D01*
X196828D01*
Y144061D01*
X197224Y143978D01*
X197619Y143895D01*
X198015Y143832D01*
X198390Y143770D01*
X198702Y143728D01*
X198827Y143707D01*
X198952Y143686D01*
X199056D01*
X199119Y143666D01*
X199181D01*
X199702Y143603D01*
X200202Y143561D01*
X200660Y143520D01*
X201098Y143499D01*
X201452D01*
X201597Y143478D01*
X195370D01*
D01*
X209533D01*
Y162473D01*
D02*
G37*
G36*
X158442Y162515D02*
D01*
Y156037D01*
X158421Y156600D01*
X158379Y157141D01*
X158296Y157641D01*
X158192Y158099D01*
X158046Y158537D01*
X157921Y158932D01*
X157754Y159286D01*
X157609Y159599D01*
X157463Y159890D01*
X157296Y160140D01*
X157171Y160349D01*
X157046Y160515D01*
X156921Y160661D01*
X156838Y160744D01*
X156796Y160807D01*
X156776Y160828D01*
X156442Y161119D01*
X156088Y161390D01*
X155693Y161619D01*
X155297Y161807D01*
X154880Y161973D01*
X154464Y162098D01*
X154068Y162223D01*
X153672Y162307D01*
X153277Y162369D01*
X152943Y162432D01*
X152610Y162473D01*
X152339Y162494D01*
X152110D01*
X151944Y162515D01*
X158442D01*
X144133D01*
X151798D01*
X151152Y162494D01*
X150527Y162432D01*
X149965Y162327D01*
X149423Y162202D01*
X148923Y162057D01*
X148444Y161890D01*
X148028Y161723D01*
X147653Y161536D01*
X147320Y161348D01*
X147007Y161182D01*
X146757Y161015D01*
X146549Y160869D01*
X146382Y160744D01*
X146278Y160640D01*
X146195Y160578D01*
X146174Y160557D01*
X145820Y160182D01*
X145508Y159766D01*
X145237Y159349D01*
X144987Y158912D01*
X144799Y158453D01*
X144633Y158016D01*
X144487Y157579D01*
X144383Y157162D01*
X144300Y156766D01*
X144237Y156412D01*
X144195Y156079D01*
X144175Y155808D01*
X144154Y155579D01*
X144133Y155392D01*
Y155246D01*
X144154Y154621D01*
X144237Y154038D01*
X144341Y153496D01*
X144466Y152996D01*
X144633Y152538D01*
X144820Y152101D01*
X145008Y151705D01*
X145216Y151351D01*
X145424Y151039D01*
X145612Y150768D01*
X145799Y150539D01*
X145966Y150351D01*
X146091Y150205D01*
X146216Y150101D01*
X146278Y150039D01*
X146299Y150018D01*
X146736Y149706D01*
X147195Y149414D01*
X147674Y149185D01*
X148194Y148977D01*
X148694Y148789D01*
X149215Y148643D01*
X149736Y148539D01*
X150236Y148435D01*
X150694Y148352D01*
X151131Y148310D01*
X151527Y148268D01*
X151860Y148227D01*
X152131D01*
X152339Y148206D01*
X144133D01*
X152527D01*
X153110Y148227D01*
X153651Y148248D01*
X154130Y148289D01*
X154568Y148352D01*
X154734Y148373D01*
X154901Y148393D01*
X155047Y148414D01*
X155172Y148435D01*
X155276Y148456D01*
X155338D01*
X155380Y148477D01*
X155401D01*
X155901Y148581D01*
X156401Y148706D01*
X156859Y148852D01*
X157296Y148997D01*
X157650Y149122D01*
X157817Y149164D01*
X157942Y149206D01*
X158046Y149247D01*
X158129Y149289D01*
X158171Y149310D01*
X158192D01*
Y152809D01*
X157692D01*
X157400Y152601D01*
X157067Y152392D01*
X156734Y152205D01*
X156401Y152059D01*
X156109Y151913D01*
X155880Y151809D01*
X155797Y151768D01*
X155734Y151747D01*
X155693Y151726D01*
X155672D01*
X155193Y151559D01*
X154714Y151434D01*
X154255Y151351D01*
X153860Y151288D01*
X153506Y151247D01*
X153360D01*
X153235Y151226D01*
X152610D01*
X152235Y151268D01*
X151902Y151309D01*
X151569Y151351D01*
X151277Y151413D01*
X151006Y151497D01*
X150777Y151559D01*
X150548Y151643D01*
X150361Y151726D01*
X150194Y151788D01*
X150048Y151872D01*
X149923Y151934D01*
X149840Y151976D01*
X149777Y152017D01*
X149736Y152059D01*
X149715D01*
X149527Y152226D01*
X149340Y152413D01*
X149194Y152601D01*
X149069Y152809D01*
X148861Y153226D01*
X148715Y153621D01*
X148611Y153975D01*
X148590Y154142D01*
X148548Y154267D01*
Y154392D01*
X148528Y154475D01*
Y154517D01*
Y154538D01*
X158442D01*
Y148206D01*
D01*
D01*
Y162515D01*
D02*
G37*
G36*
X175667Y167305D02*
Y155496D01*
X175646Y156100D01*
X175604Y156662D01*
X175542Y157183D01*
X175458Y157683D01*
X175333Y158141D01*
X175229Y158558D01*
X175104Y158932D01*
X174979Y159286D01*
X174834Y159599D01*
X174708Y159870D01*
X174604Y160099D01*
X174500Y160286D01*
X174396Y160432D01*
X174334Y160536D01*
X174292Y160599D01*
X174271Y160620D01*
X174000Y160953D01*
X173709Y161224D01*
X173396Y161474D01*
X173063Y161682D01*
X172730Y161869D01*
X172397Y162015D01*
X172084Y162140D01*
X171772Y162244D01*
X171480Y162327D01*
X171189Y162369D01*
X170959Y162411D01*
X170730Y162452D01*
X170564D01*
X170418Y162473D01*
X170314D01*
X169814Y162452D01*
X169356Y162390D01*
X168939Y162307D01*
X168585Y162223D01*
X168293Y162140D01*
X168085Y162057D01*
X168002Y162015D01*
X167939Y161994D01*
X167919Y161973D01*
X167898D01*
X167502Y161765D01*
X167148Y161557D01*
X166794Y161348D01*
X166481Y161140D01*
X166231Y160953D01*
X166023Y160807D01*
X165898Y160724D01*
X165877Y160682D01*
X165857D01*
Y167305D01*
X161504D01*
Y148560D01*
X165669D01*
X165857Y149227D01*
X166148Y149060D01*
X166440Y148935D01*
X166710Y148810D01*
X166961Y148706D01*
X167169Y148643D01*
X167335Y148581D01*
X167439Y148560D01*
X167481Y148539D01*
X167814Y148456D01*
X168148Y148393D01*
X168481Y148352D01*
X168793Y148331D01*
X169064Y148310D01*
X169293Y148289D01*
X161504D01*
X169481D01*
X169960Y148310D01*
X170439Y148373D01*
X170876Y148477D01*
X171293Y148602D01*
X171668Y148748D01*
X172043Y148914D01*
X172376Y149102D01*
X172688Y149289D01*
X172959Y149476D01*
X173188Y149664D01*
X173396Y149831D01*
X173584Y149976D01*
X173709Y150101D01*
X173813Y150205D01*
X173875Y150268D01*
X173896Y150289D01*
X174209Y150685D01*
X174479Y151101D01*
X174708Y151518D01*
X174917Y151955D01*
X175083Y152393D01*
X175229Y152830D01*
X175354Y153246D01*
X175438Y153642D01*
X175521Y154038D01*
X175583Y154392D01*
X175604Y154704D01*
X175646Y154975D01*
Y155183D01*
X175667Y155350D01*
Y148289D01*
X175667D01*
X175667D01*
Y167305D01*
D02*
G37*
G36*
X192267Y162098D02*
X187913D01*
Y152476D01*
X187434Y152205D01*
X187205Y152122D01*
X187018Y152018D01*
X186851Y151955D01*
X186726Y151913D01*
X186622Y151872D01*
X186601D01*
X186122Y151768D01*
X185914Y151726D01*
X185747Y151705D01*
X185581D01*
X185477Y151684D01*
X185081D01*
X184810Y151705D01*
X184602Y151747D01*
X184414Y151788D01*
X184248Y151809D01*
X184144Y151851D01*
X184081Y151872D01*
X184060D01*
X183894Y151955D01*
X183769Y152059D01*
X183644Y152184D01*
X183540Y152288D01*
X183477Y152393D01*
X183415Y152455D01*
X183394Y152517D01*
X183373Y152538D01*
X183290Y152705D01*
X183227Y152892D01*
X183144Y153267D01*
X183123Y153413D01*
X183102Y153559D01*
X183081Y153642D01*
Y153663D01*
X183060Y153934D01*
X183040Y154225D01*
Y154496D01*
X183019Y154767D01*
Y155017D01*
Y155204D01*
Y155329D01*
Y155350D01*
Y155371D01*
Y162098D01*
X178666D01*
Y153267D01*
X178687Y152809D01*
X178728Y152372D01*
X178770Y151976D01*
X178853Y151601D01*
X178937Y151268D01*
X179041Y150955D01*
X179166Y150664D01*
X179270Y150414D01*
X179374Y150185D01*
X179499Y149997D01*
X179603Y149831D01*
X179686Y149706D01*
X179770Y149601D01*
X179832Y149518D01*
X179853Y149476D01*
X179874Y149456D01*
X180103Y149227D01*
X180374Y149039D01*
X180644Y148872D01*
X180915Y148727D01*
X181207Y148602D01*
X181498Y148498D01*
X182040Y148352D01*
X182311Y148289D01*
X182540Y148248D01*
X182748Y148227D01*
X182936Y148206D01*
X183102Y148185D01*
X178666D01*
D01*
X192267D01*
Y162098D01*
D02*
G37*
G36*
X141821Y166514D02*
X124867D01*
Y148560D01*
X141821D01*
X131178D01*
X131949Y148581D01*
X132657Y148602D01*
X132990Y148643D01*
X133302Y148664D01*
X133573Y148685D01*
X133844Y148727D01*
X134073Y148748D01*
X134281Y148768D01*
X134448Y148810D01*
X134615Y148831D01*
X134719Y148852D01*
X134823D01*
X134865Y148872D01*
X134885D01*
X135469Y149018D01*
X136010Y149185D01*
X136489Y149352D01*
X136926Y149539D01*
X137114Y149622D01*
X137281Y149706D01*
X137426Y149789D01*
X137551Y149851D01*
X137655Y149893D01*
X137718Y149935D01*
X137760Y149976D01*
X137780D01*
X138093Y150185D01*
X138405Y150414D01*
X138968Y150893D01*
X139467Y151413D01*
X139884Y151893D01*
X140071Y152122D01*
X140217Y152330D01*
X140363Y152517D01*
X140467Y152684D01*
X140551Y152830D01*
X140634Y152934D01*
X140655Y152996D01*
X140675Y153017D01*
X140884Y153392D01*
X141050Y153788D01*
X141217Y154163D01*
X141342Y154558D01*
X141550Y155308D01*
X141613Y155662D01*
X141675Y156017D01*
X141717Y156329D01*
X141759Y156621D01*
X141779Y156870D01*
X141800Y157100D01*
X141821Y157266D01*
Y157516D01*
X141800Y157995D01*
X141779Y158453D01*
X141717Y158891D01*
X141655Y159328D01*
X141571Y159724D01*
X141488Y160099D01*
X141384Y160432D01*
X141279Y160744D01*
X141175Y161036D01*
X141071Y161286D01*
X140988Y161515D01*
X140905Y161702D01*
X140842Y161848D01*
X140780Y161952D01*
X140759Y162015D01*
X140738Y162036D01*
X140301Y162723D01*
X139842Y163327D01*
X139593Y163598D01*
X139342Y163848D01*
X139113Y164077D01*
X138884Y164285D01*
X138676Y164473D01*
X138468Y164639D01*
X138280Y164764D01*
X138134Y164889D01*
X138010Y164972D01*
X137905Y165035D01*
X137843Y165077D01*
X137822Y165098D01*
X137406Y165327D01*
X136947Y165535D01*
X136489Y165722D01*
X136073Y165868D01*
X135698Y165993D01*
X135531Y166035D01*
X135406Y166076D01*
X135281Y166097D01*
X135198Y166118D01*
X135156Y166139D01*
X135135D01*
X134510Y166264D01*
X133886Y166347D01*
X133240Y166430D01*
X132657Y166472D01*
X132386Y166493D01*
X131928D01*
X131740Y166514D01*
X141821D01*
D02*
G37*
%LPD*%
G36*
X203618Y159286D02*
X203930Y159266D01*
X204076Y159245D01*
X204180Y159224D01*
X204243Y159203D01*
X204263D01*
X204638Y159120D01*
X204784Y159078D01*
X204930Y159057D01*
X205034Y159016D01*
X205117Y158974D01*
X205159Y158953D01*
X205180D01*
Y152809D01*
X204784Y152580D01*
X204597Y152497D01*
X204409Y152413D01*
X204263Y152351D01*
X204139Y152309D01*
X204055Y152268D01*
X204034D01*
X203576Y152163D01*
X203347Y152122D01*
X203160Y152101D01*
X202993D01*
X202868Y152080D01*
X202743D01*
X202243Y152122D01*
X201806Y152205D01*
X201431Y152330D01*
X201118Y152476D01*
X200889Y152601D01*
X200723Y152726D01*
X200618Y152809D01*
X200577Y152851D01*
X200452Y153017D01*
X200348Y153184D01*
X200160Y153601D01*
X200035Y154059D01*
X199952Y154496D01*
X199910Y154913D01*
X199890Y155100D01*
Y155267D01*
X199869Y155392D01*
Y155496D01*
Y155558D01*
Y155579D01*
X199910Y156204D01*
X199994Y156746D01*
X200140Y157204D01*
X200306Y157599D01*
X200369Y157766D01*
X200452Y157912D01*
X200535Y158037D01*
X200598Y158120D01*
X200639Y158203D01*
X200681Y158266D01*
X200723Y158287D01*
Y158308D01*
X200889Y158474D01*
X201077Y158641D01*
X201493Y158891D01*
X201910Y159057D01*
X202326Y159182D01*
X202701Y159266D01*
X202868Y159286D01*
X203014D01*
X203118Y159307D01*
X203284D01*
X203618Y159286D01*
D02*
G37*
G36*
X209533Y143478D02*
X201972D01*
X202618Y143499D01*
X203201Y143541D01*
X203722Y143582D01*
X204201Y143645D01*
X204388Y143686D01*
X204576Y143707D01*
X204722Y143728D01*
X204847Y143770D01*
X204951Y143791D01*
X205034D01*
X205076Y143811D01*
X205096D01*
X205596Y143957D01*
X206055Y144124D01*
X206450Y144311D01*
X206784Y144478D01*
X207075Y144644D01*
X207283Y144769D01*
X207346Y144832D01*
X207408Y144853D01*
X207429Y144894D01*
X207450D01*
X207804Y145186D01*
X208096Y145519D01*
X208367Y145852D01*
X208575Y146186D01*
X208741Y146477D01*
X208866Y146727D01*
X208908Y146811D01*
X208950Y146873D01*
X208971Y146915D01*
Y146936D01*
X209158Y147435D01*
X209304Y147977D01*
X209387Y148518D01*
X209470Y149018D01*
X209491Y149247D01*
X209512Y149456D01*
Y149643D01*
X209533Y149810D01*
Y143478D01*
D02*
G37*
G36*
X151944Y159786D02*
X152339Y159703D01*
X152693Y159599D01*
X152964Y159474D01*
X153172Y159328D01*
X153318Y159224D01*
X153422Y159141D01*
X153443Y159120D01*
X153651Y158828D01*
X153818Y158516D01*
X153943Y158183D01*
X154026Y157849D01*
X154089Y157537D01*
X154110Y157308D01*
X154130Y157204D01*
Y157141D01*
Y157100D01*
Y157079D01*
X148507D01*
X148569Y157579D01*
X148694Y157995D01*
X148840Y158349D01*
X148986Y158641D01*
X149152Y158870D01*
X149277Y159016D01*
X149361Y159120D01*
X149403Y159141D01*
X149715Y159370D01*
X150069Y159536D01*
X150402Y159641D01*
X150736Y159724D01*
X151027Y159766D01*
X151256Y159807D01*
X151464D01*
X151944Y159786D01*
D02*
G37*
G36*
X168897Y159141D02*
X169147Y159099D01*
X169377Y159037D01*
X169751Y158870D01*
X170043Y158703D01*
X170272Y158516D01*
X170418Y158349D01*
X170522Y158245D01*
X170543Y158224D01*
Y158203D01*
X170751Y157808D01*
X170897Y157350D01*
X171022Y156891D01*
X171084Y156433D01*
X171126Y156037D01*
X171147Y155871D01*
X171168Y155704D01*
Y155579D01*
Y155496D01*
Y155433D01*
Y155413D01*
Y155038D01*
X171126Y154704D01*
X171084Y154392D01*
X171043Y154080D01*
X170980Y153809D01*
X170897Y153559D01*
X170814Y153330D01*
X170751Y153142D01*
X170668Y152955D01*
X170585Y152809D01*
X170522Y152663D01*
X170439Y152559D01*
X170397Y152476D01*
X170355Y152413D01*
X170314Y152393D01*
Y152372D01*
X170147Y152205D01*
X169960Y152038D01*
X169564Y151788D01*
X169147Y151622D01*
X168731Y151497D01*
X168335Y151434D01*
X168189Y151393D01*
X168043D01*
X167919Y151372D01*
X167356D01*
X167169Y151393D01*
X166898D01*
X166815Y151413D01*
X166731D01*
X166419Y151476D01*
X166148Y151559D01*
X166023Y151580D01*
X165940Y151622D01*
X165877Y151643D01*
X165857D01*
Y158453D01*
X166294Y158682D01*
X166502Y158787D01*
X166690Y158849D01*
X166856Y158912D01*
X166981Y158953D01*
X167065Y158995D01*
X167085D01*
X167565Y159099D01*
X167773Y159141D01*
X167960Y159162D01*
X168127Y159182D01*
X168647D01*
X168897Y159141D01*
D02*
G37*
G36*
X187913Y148560D02*
X192267D01*
Y148185D01*
X183311D01*
X183810Y148206D01*
X184268Y148248D01*
X184685Y148331D01*
X185039Y148414D01*
X185310Y148498D01*
X185518Y148581D01*
X185602Y148602D01*
X185664Y148623D01*
X185685Y148643D01*
X185706D01*
X186081Y148852D01*
X186476Y149060D01*
X186851Y149289D01*
X187185Y149518D01*
X187476Y149726D01*
X187705Y149893D01*
X187789Y149956D01*
X187851Y149997D01*
X187893Y150039D01*
X187913D01*
Y148560D01*
D02*
G37*
G36*
X131615Y163140D02*
X132011Y163119D01*
X132324Y163098D01*
X132553Y163056D01*
X132719Y163036D01*
X132823Y163015D01*
X132865D01*
X133407Y162890D01*
X133657Y162806D01*
X133886Y162744D01*
X134052Y162661D01*
X134198Y162619D01*
X134302Y162577D01*
X134323Y162556D01*
X134802Y162265D01*
X135239Y161952D01*
X135573Y161619D01*
X135864Y161307D01*
X136093Y161015D01*
X136239Y160786D01*
X136302Y160703D01*
X136343Y160640D01*
X136364Y160599D01*
Y160578D01*
X136572Y160099D01*
X136739Y159578D01*
X136843Y159078D01*
X136926Y158599D01*
X136947Y158391D01*
X136968Y158183D01*
X136989Y158016D01*
X137010Y157849D01*
Y157724D01*
Y157641D01*
Y157579D01*
Y157558D01*
X136989Y156912D01*
X136926Y156350D01*
X136822Y155829D01*
X136718Y155413D01*
X136656Y155225D01*
X136593Y155058D01*
X136552Y154913D01*
X136510Y154788D01*
X136468Y154704D01*
X136427Y154642D01*
X136406Y154600D01*
Y154579D01*
X136156Y154142D01*
X135864Y153767D01*
X135573Y153434D01*
X135260Y153163D01*
X134990Y152934D01*
X134760Y152767D01*
X134677Y152726D01*
X134615Y152684D01*
X134573Y152642D01*
X134552D01*
X134281Y152497D01*
X134011Y152392D01*
X133761Y152288D01*
X133532Y152226D01*
X133344Y152163D01*
X133177Y152122D01*
X133094Y152101D01*
X133053D01*
X132719Y152059D01*
X132344Y152017D01*
X131949Y151997D01*
X131553Y151976D01*
X131199Y151955D01*
X129491D01*
Y163160D01*
X131157D01*
X131615Y163140D01*
D02*
G37*
%LPC*%
G36*
X36966Y62980D02*
X36953D01*
X36925D01*
X36883D01*
X36828D01*
X36675Y62952D01*
X36495Y62924D01*
X36273Y62883D01*
X36051Y62800D01*
X35815Y62703D01*
X35594Y62564D01*
X35566Y62550D01*
X35496Y62495D01*
X35399Y62397D01*
X35288Y62287D01*
X35164Y62120D01*
X35039Y61940D01*
X34928Y61732D01*
X34845Y61496D01*
Y61482D01*
X34831Y61413D01*
X34803Y61302D01*
X34775Y61136D01*
Y61038D01*
X34761Y60927D01*
X34748Y60789D01*
X34734Y60650D01*
Y60484D01*
X34720Y60317D01*
Y56642D01*
X39296D01*
Y60095D01*
X39282Y60206D01*
Y60345D01*
X39269Y60497D01*
X39241Y60678D01*
X39213Y60858D01*
X39144Y61246D01*
X39033Y61635D01*
X38963Y61815D01*
X38880Y61981D01*
X38797Y62148D01*
X38686Y62287D01*
X38672Y62300D01*
X38658Y62314D01*
X38617Y62356D01*
X38575Y62397D01*
X38437Y62508D01*
X38242Y62633D01*
X37993Y62758D01*
X37701Y62869D01*
X37355Y62952D01*
X37174Y62966D01*
X36966Y62980D01*
D02*
G37*
%LPD*%
D10*
X230250Y123000D02*
G03*
X230250Y123000I-1250J0D01*
G01*
Y220000D02*
G03*
X230250Y220000I-1250J0D01*
G01*
D11*
X326500Y148750D02*
G03*
X326500Y148750I-1250J0D01*
G01*
D12*
X245000Y200000D02*
X253750D01*
X245000Y216500D02*
X253750D01*
X245000Y200000D02*
Y216500D01*
X253750Y200000D02*
Y216500D01*
X273250Y154000D02*
X282000D01*
X273250Y137500D02*
X282000D01*
Y154000D01*
X273250Y137500D02*
Y154000D01*
X282500Y138000D02*
X291250D01*
X282500Y154500D02*
X291250D01*
X282500Y138000D02*
Y154500D01*
X291250Y138000D02*
Y154500D01*
X256250Y137600D02*
Y154600D01*
X264750Y137600D02*
Y154600D01*
X256250Y137600D02*
X264750D01*
X256250Y154600D02*
X264750D01*
X264750Y137600D02*
Y154600D01*
X273250Y137600D02*
Y154600D01*
X264750Y137600D02*
X273250D01*
X264750Y154600D02*
X273250D01*
D13*
X241250Y165000D02*
Y186500D01*
D14*
X65600Y338420D02*
X395800D01*
Y246980D02*
Y338420D01*
X65600Y246980D02*
X395800D01*
X65600D02*
Y338420D01*
X63450Y103020D02*
X393650D01*
Y11580D02*
Y103020D01*
X63450Y11580D02*
X393650D01*
X63450D02*
Y103020D01*
D15*
X24500Y206500D02*
X49750D01*
Y254750D01*
X49000Y255500D02*
X49750Y254750D01*
X24500Y255500D02*
X49000D01*
X24500Y206500D02*
Y255500D01*
X25250Y138500D02*
X50500D01*
X25250Y90250D02*
Y138500D01*
Y90250D02*
X26000Y89500D01*
X50500D01*
Y138500D01*
D16*
X223000Y110300D02*
Y135700D01*
X63000D02*
X223000D01*
X63000Y110300D02*
Y135700D01*
Y110300D02*
X223000D01*
Y207300D02*
Y232700D01*
X63000D02*
X223000D01*
X63000Y207300D02*
Y232700D01*
Y207300D02*
X223000D01*
X357350Y129800D02*
X376500D01*
X357350Y220200D02*
X376500D01*
M02*
