G04*
G04 #@! TF.GenerationSoftware,Altium Limited,Altium Designer,23.2.1 (34)*
G04*
G04 Layer_Color=128*
%FSLAX44Y44*%
%MOMM*%
G71*
G04*
G04 #@! TF.SameCoordinates,487D5E4A-F804-4ADF-A167-9DE8C44D793A*
G04*
G04*
G04 #@! TF.FilePolarity,Positive*
G04*
G01*
G75*
%ADD19R,0.5500X0.4000*%
%ADD34R,1.2200X1.2500*%
%ADD35R,0.4000X0.5500*%
%ADD36R,0.6000X0.8000*%
%ADD37R,0.5000X0.5000*%
%ADD38R,0.4500X2.1000*%
%ADD39R,0.5400X0.2200*%
%ADD40R,0.5300X0.2200*%
D19*
X104950Y160200D02*
D03*
Y150000D02*
D03*
X129850Y181900D02*
D03*
Y192100D02*
D03*
X130000Y160200D02*
D03*
Y150000D02*
D03*
X104450Y181900D02*
D03*
Y192100D02*
D03*
D34*
X35500Y133500D02*
D03*
Y104000D02*
D03*
D35*
X397100Y157500D02*
D03*
X386900D02*
D03*
X397100Y166500D02*
D03*
X386900D02*
D03*
D36*
X382750Y190500D02*
D03*
X398750D02*
D03*
X383000Y178800D02*
D03*
X399000D02*
D03*
D37*
X387750Y149000D02*
D03*
X396750D02*
D03*
D38*
X229750Y209500D02*
D03*
X236250D02*
D03*
X242750D02*
D03*
X249250D02*
D03*
X255750D02*
D03*
X262250D02*
D03*
X268750D02*
D03*
X275250D02*
D03*
X281750D02*
D03*
X288250D02*
D03*
X294750D02*
D03*
X301250D02*
D03*
X307750D02*
D03*
X314250D02*
D03*
X229750Y140500D02*
D03*
X236250D02*
D03*
X242750D02*
D03*
X249250D02*
D03*
X255750D02*
D03*
X262250D02*
D03*
X268750D02*
D03*
X275250D02*
D03*
X281750D02*
D03*
X288250D02*
D03*
X294750D02*
D03*
X301250D02*
D03*
X307750D02*
D03*
X314250D02*
D03*
D39*
X23150Y194000D02*
D03*
Y156000D02*
D03*
Y190000D02*
D03*
Y184000D02*
D03*
Y178000D02*
D03*
Y172000D02*
D03*
Y166000D02*
D03*
Y160000D02*
D03*
D40*
X49350Y187000D02*
D03*
Y181000D02*
D03*
Y175000D02*
D03*
Y169000D02*
D03*
Y163000D02*
D03*
M02*
