G04*
G04 #@! TF.GenerationSoftware,Altium Limited,Altium Designer,23.2.1 (34)*
G04*
G04 Layer_Physical_Order=4*
G04 Layer_Color=16711680*
%FSLAX44Y44*%
%MOMM*%
G71*
G04*
G04 #@! TF.SameCoordinates,487D5E4A-F804-4ADF-A167-9DE8C44D793A*
G04*
G04*
G04 #@! TF.FilePolarity,Positive*
G04*
G01*
G75*
%ADD15C,0.1000*%
%ADD16C,0.2000*%
%ADD19R,0.5500X0.4000*%
%ADD24R,1.3980X1.3980*%
%ADD25C,1.3980*%
%ADD26C,1.5700*%
%ADD27R,1.5700X1.5700*%
%ADD28C,0.6000*%
G04:AMPARAMS|DCode=29|XSize=0.85mm|YSize=0.5mm|CornerRadius=0.25mm|HoleSize=0mm|Usage=FLASHONLY|Rotation=90.000|XOffset=0mm|YOffset=0mm|HoleType=Round|Shape=RoundedRectangle|*
%AMROUNDEDRECTD29*
21,1,0.8500,0.0000,0,0,90.0*
21,1,0.3500,0.5000,0,0,90.0*
1,1,0.5000,0.0000,0.1750*
1,1,0.5000,0.0000,-0.1750*
1,1,0.5000,0.0000,-0.1750*
1,1,0.5000,0.0000,0.1750*
%
%ADD29ROUNDEDRECTD29*%
G04:AMPARAMS|DCode=30|XSize=1.3mm|YSize=2.6mm|CornerRadius=0.65mm|HoleSize=0mm|Usage=FLASHONLY|Rotation=90.000|XOffset=0mm|YOffset=0mm|HoleType=Round|Shape=RoundedRectangle|*
%AMROUNDEDRECTD30*
21,1,1.3000,1.3000,0,0,90.0*
21,1,0.0000,2.6000,0,0,90.0*
1,1,1.3000,0.6500,0.0000*
1,1,1.3000,0.6500,0.0000*
1,1,1.3000,-0.6500,0.0000*
1,1,1.3000,-0.6500,0.0000*
%
%ADD30ROUNDEDRECTD30*%
G04:AMPARAMS|DCode=31|XSize=0.6mm|YSize=1.9mm|CornerRadius=0.3mm|HoleSize=0mm|Usage=FLASHONLY|Rotation=90.000|XOffset=0mm|YOffset=0mm|HoleType=Round|Shape=RoundedRectangle|*
%AMROUNDEDRECTD31*
21,1,0.6000,1.3000,0,0,90.0*
21,1,0.0000,1.9000,0,0,90.0*
1,1,0.6000,0.6500,0.0000*
1,1,0.6000,0.6500,0.0000*
1,1,0.6000,-0.6500,0.0000*
1,1,0.6000,-0.6500,0.0000*
%
%ADD31ROUNDEDRECTD31*%
G04:AMPARAMS|DCode=32|XSize=1.25mm|YSize=0.7mm|CornerRadius=0.35mm|HoleSize=0mm|Usage=FLASHONLY|Rotation=90.000|XOffset=0mm|YOffset=0mm|HoleType=Round|Shape=RoundedRectangle|*
%AMROUNDEDRECTD32*
21,1,1.2500,0.0000,0,0,90.0*
21,1,0.5500,0.7000,0,0,90.0*
1,1,0.7000,0.0000,0.2750*
1,1,0.7000,0.0000,-0.2750*
1,1,0.7000,0.0000,-0.2750*
1,1,0.7000,0.0000,0.2750*
%
%ADD32ROUNDEDRECTD32*%
%ADD33C,0.3500*%
%ADD34R,1.2200X1.2500*%
%ADD35R,0.4000X0.5500*%
%ADD36R,0.6000X0.8000*%
%ADD37R,0.5000X0.5000*%
%ADD38R,0.4500X2.1000*%
%ADD39R,0.5400X0.2200*%
%ADD40R,0.5300X0.2200*%
%ADD41C,0.3000*%
G36*
G01X354250Y131800D02*
G01X354250Y138000D01*
G03X348882Y142302I-5367J-1198D01*
G03X348750Y142300I-3J-5329D01*
G03X343250Y137800I-92J-5499D01*
G01X337250Y137800D01*
G03X331250Y131800I0J-6000D01*
G03X337250Y125800I6000J-0D01*
G01X348250D01*
G03X354250Y131800I0J6000D01*
D02*
G37*
G36*
G01X348883Y207698D02*
G03X354250Y212000I0J5499D01*
G01X354250Y218200D01*
G03X348250Y224200I-6000J0D01*
G01X337250D01*
G03X337250Y212200I0J-6000D01*
G01X343250D01*
G03X348750Y207700I5408J999D01*
G03X348883Y207698I133J5514D01*
D02*
G37*
D15*
X33750Y147250D02*
Y162000D01*
X29750Y166000D02*
X33750Y162000D01*
Y147250D02*
X36250Y144750D01*
X89500D01*
X91500Y118500D02*
Y142750D01*
X89500Y144750D02*
X91500Y142750D01*
X37250Y151000D02*
Y165250D01*
X104900Y123000D02*
Y149950D01*
X103950Y151000D02*
X104950Y150000D01*
X37250Y151000D02*
X103950D01*
X37250Y165250D02*
X41000Y169000D01*
X88000Y175750D02*
X227250D01*
X232750Y181250D01*
X85750Y178000D02*
X88000Y175750D01*
X222500Y178000D02*
X229750Y185250D01*
X90750Y178000D02*
X222500D01*
X88500Y180250D02*
X90750Y178000D01*
X85250Y178000D02*
Y183500D01*
X88500Y180250D02*
Y188000D01*
X85250Y178000D02*
X85750D01*
X181100Y123000D02*
Y160200D01*
X134500Y165750D02*
X175550D01*
X181100Y160200D01*
X65000Y163000D02*
X68000Y166000D01*
X134250D01*
X134500Y165750D01*
X43000Y182750D02*
Y189500D01*
X44750Y181000D02*
X49350D01*
X43000Y182750D02*
X44750Y181000D01*
X342850Y168500D02*
X367750D01*
X378750Y157500D02*
X386900D01*
X367750Y168500D02*
X378750Y157500D01*
X379500Y166500D02*
X386900D01*
X356250Y173750D02*
X358750Y176250D01*
X327000Y173750D02*
X356250D01*
X255750Y196750D02*
Y209500D01*
X252750Y193750D02*
X255750Y196750D01*
X237750Y193750D02*
X252750D01*
X232750Y188750D02*
X237750Y193750D01*
X232750Y181250D02*
Y188750D01*
X85250Y191250D02*
X88500Y188000D01*
X49350Y187000D02*
X81750D01*
X85250Y183500D01*
X229750Y185250D02*
Y209500D01*
X44750Y191250D02*
X85250D01*
X43000Y189500D02*
X44750Y191250D01*
X104900Y205000D02*
Y220000D01*
Y192550D02*
Y205000D01*
X36250Y204500D02*
X104400D01*
X104900Y205000D01*
X56500Y238250D02*
X177250D01*
X181100Y234400D01*
Y220000D02*
Y234400D01*
X36250Y178000D02*
Y204500D01*
X39250Y175000D02*
X49350D01*
X36250Y178000D02*
X39250Y175000D01*
X51000Y209250D02*
X54789Y213039D01*
X20750Y209250D02*
X51000D01*
X17500Y206000D02*
X20750Y209250D01*
X19500Y213000D02*
X48750D01*
X50500Y214750D01*
X15500Y209000D02*
X19500Y213000D01*
X17500Y185750D02*
Y206000D01*
X50500Y214750D02*
Y232250D01*
X127000Y233750D02*
X130314Y230436D01*
X59500Y233750D02*
X127000D01*
X130314Y220014D02*
Y230436D01*
X130300Y220000D02*
X130314Y220014D01*
X130300Y192550D02*
Y220000D01*
X129850Y192100D02*
X130300Y192550D01*
X104450Y192100D02*
X104900Y192550D01*
X130000Y150000D02*
X130300Y149700D01*
Y123000D02*
Y149700D01*
X49350Y163000D02*
X65000D01*
X50500Y232250D02*
X56500Y238250D01*
X54789Y213039D02*
Y229039D01*
X59500Y233750D01*
X15500Y180500D02*
X18000Y178000D01*
X17500Y185750D02*
X19250Y184000D01*
X15500Y180500D02*
Y209000D01*
X19250Y184000D02*
X23150D01*
X18000Y178000D02*
X21150D01*
X118150Y112250D02*
X128900Y123000D01*
X97750Y112250D02*
X118150D01*
X91500Y118500D02*
X97750Y112250D01*
X23150Y166000D02*
X29750D01*
X179250Y123450D02*
X179700Y123000D01*
X41000Y169000D02*
X47350D01*
D16*
X30500Y138500D02*
Y158000D01*
Y138500D02*
X35500Y133500D01*
X23150Y160000D02*
X28500D01*
X30500Y158000D01*
X33500Y106000D02*
X273250D01*
X281750Y114500D01*
Y140500D01*
Y154750D01*
X277750Y158750D02*
X281750Y154750D01*
X275250Y124750D02*
Y140500D01*
X382750Y190500D02*
X383000Y190250D01*
Y178800D02*
Y190250D01*
X327000Y188750D02*
X381000D01*
X382750Y190500D01*
X391750Y157500D02*
X397100D01*
Y166500D01*
X396750Y149000D02*
X396925Y149175D01*
Y157325D01*
X397100Y157500D01*
X391750Y178800D02*
X399000D01*
X391250Y190500D02*
X398750D01*
X322000Y183750D02*
X327000Y188750D01*
X322000Y168750D02*
Y183750D01*
Y168750D02*
X327000Y163750D01*
X393250Y131800D02*
Y139500D01*
X387750Y145000D02*
X393250Y139500D01*
X387750Y145000D02*
Y149000D01*
X314250Y140500D02*
Y156250D01*
X307750Y140500D02*
Y156250D01*
X301375Y124875D02*
Y140375D01*
X301250Y140500D02*
X301375Y140375D01*
Y124875D02*
X301500Y124750D01*
X294750Y140500D02*
Y155750D01*
X268750Y124800D02*
X268800Y124750D01*
X268750Y124800D02*
Y140500D01*
X262250Y124750D02*
Y140500D01*
X242750Y124750D02*
Y140500D01*
X249250D01*
X268775Y193775D02*
X268800Y193750D01*
X268750Y209500D02*
X268775Y209475D01*
Y193775D02*
Y209475D01*
X249250Y226750D02*
X249250Y226750D01*
Y209500D02*
Y226750D01*
X138200Y160200D02*
X138250Y160250D01*
X130000Y160200D02*
X138200D01*
X104950D02*
X112250D01*
X122250Y181900D02*
X129850D01*
X97750D02*
X104450D01*
X28750Y190000D02*
X28750Y190000D01*
X23150Y190000D02*
X28750D01*
X25250Y172000D02*
X28250Y175000D01*
X21150Y172000D02*
X25250D01*
D19*
X104950Y160200D02*
D03*
Y150000D02*
D03*
X129850Y181900D02*
D03*
Y192100D02*
D03*
X130000Y160200D02*
D03*
Y150000D02*
D03*
X104450Y181900D02*
D03*
Y192100D02*
D03*
D24*
X345000Y305400D02*
D03*
X342850Y70000D02*
D03*
D25*
X345000Y280000D02*
D03*
X319600Y305400D02*
D03*
Y280000D02*
D03*
X294200Y305400D02*
D03*
Y280000D02*
D03*
X268800Y305400D02*
D03*
Y280000D02*
D03*
X243400Y305400D02*
D03*
Y280000D02*
D03*
X218000Y305400D02*
D03*
Y280000D02*
D03*
X192600Y305400D02*
D03*
Y280000D02*
D03*
X167200Y305400D02*
D03*
Y280000D02*
D03*
X141800Y305400D02*
D03*
Y280000D02*
D03*
X116400Y305400D02*
D03*
Y280000D02*
D03*
X342850Y44600D02*
D03*
X317450Y70000D02*
D03*
Y44600D02*
D03*
X292050Y70000D02*
D03*
Y44600D02*
D03*
X266650Y70000D02*
D03*
Y44600D02*
D03*
X241250Y70000D02*
D03*
Y44600D02*
D03*
X215850Y70000D02*
D03*
Y44600D02*
D03*
X190450Y70000D02*
D03*
Y44600D02*
D03*
X165050Y70000D02*
D03*
Y44600D02*
D03*
X139650Y70000D02*
D03*
Y44600D02*
D03*
X114250Y70000D02*
D03*
Y44600D02*
D03*
D26*
X79500Y123000D02*
D03*
X104900D02*
D03*
X130300D02*
D03*
X155700D02*
D03*
X181100D02*
D03*
X79500Y220000D02*
D03*
X104900D02*
D03*
X130300D02*
D03*
X155700D02*
D03*
X181100D02*
D03*
D27*
X206500Y123000D02*
D03*
Y220000D02*
D03*
D28*
X362750Y139000D02*
D03*
D29*
X362100Y211000D02*
D03*
D30*
X393250Y218200D02*
D03*
Y131800D02*
D03*
D31*
X342750D02*
D03*
D32*
X348850Y214950D02*
D03*
D33*
X37250Y151000D02*
D03*
X38000Y85500D02*
D03*
X358750Y201250D02*
D03*
X358750Y146250D02*
D03*
X275250Y124750D02*
D03*
X391750Y157500D02*
D03*
Y190500D02*
D03*
Y178500D02*
D03*
X379500Y166500D02*
D03*
X327000Y188750D02*
D03*
Y163750D02*
D03*
X342850Y168500D02*
D03*
X358750Y176250D02*
D03*
X327000Y173750D02*
D03*
X36750Y236750D02*
D03*
X307750Y156250D02*
D03*
X314250D02*
D03*
X295000D02*
D03*
X301500Y124750D02*
D03*
X277750Y158750D02*
D03*
X268800Y124750D02*
D03*
X262250D02*
D03*
X242500D02*
D03*
X268800Y193750D02*
D03*
X249250Y226750D02*
D03*
X112250Y160000D02*
D03*
X138200Y160200D02*
D03*
X122250Y181900D02*
D03*
X97750D02*
D03*
X28250Y190000D02*
D03*
X36250Y204500D02*
D03*
X28250Y175000D02*
D03*
D34*
X35500Y133500D02*
D03*
Y104000D02*
D03*
D35*
X397100Y157500D02*
D03*
X386900D02*
D03*
X397100Y166500D02*
D03*
X386900D02*
D03*
D36*
X382750Y190500D02*
D03*
X398750D02*
D03*
X383000Y178800D02*
D03*
X399000D02*
D03*
D37*
X387750Y149000D02*
D03*
X396750D02*
D03*
D38*
X229750Y209500D02*
D03*
X236250D02*
D03*
X242750D02*
D03*
X249250D02*
D03*
X255750D02*
D03*
X262250D02*
D03*
X268750D02*
D03*
X275250D02*
D03*
X281750D02*
D03*
X288250D02*
D03*
X294750D02*
D03*
X301250D02*
D03*
X307750D02*
D03*
X314250D02*
D03*
X229750Y140500D02*
D03*
X236250D02*
D03*
X242750D02*
D03*
X249250D02*
D03*
X255750D02*
D03*
X262250D02*
D03*
X268750D02*
D03*
X275250D02*
D03*
X281750D02*
D03*
X288250D02*
D03*
X294750D02*
D03*
X301250D02*
D03*
X307750D02*
D03*
X314250D02*
D03*
D39*
X23150Y194000D02*
D03*
Y156000D02*
D03*
Y190000D02*
D03*
Y184000D02*
D03*
Y178000D02*
D03*
Y172000D02*
D03*
Y166000D02*
D03*
Y160000D02*
D03*
D40*
X49350Y187000D02*
D03*
Y181000D02*
D03*
Y175000D02*
D03*
Y169000D02*
D03*
Y163000D02*
D03*
D41*
X342750Y218200D02*
X393250D01*
X397739Y131800D02*
X405250Y139311D01*
X393250Y131800D02*
X397739D01*
X405250Y139311D02*
Y210000D01*
X393250Y218200D02*
X397050D01*
X405250Y210000D01*
X352000Y131800D02*
X393250D01*
X348750Y135050D02*
X352000Y131800D01*
M02*
