G04*
G04 #@! TF.GenerationSoftware,Altium Limited,Altium Designer,23.2.1 (34)*
G04*
G04 Layer_Color=8388736*
%FSLAX44Y44*%
%MOMM*%
G71*
G04*
G04 #@! TF.SameCoordinates,B12F1025-F82E-46B3-97E8-FF2E5A3D5CD0*
G04*
G04*
G04 #@! TF.FilePolarity,Negative*
G04*
G01*
G75*
%ADD18R,1.5000X1.0000*%
%ADD19R,0.5500X0.4000*%
%ADD20R,1.7000X0.9000*%
%ADD21R,0.9000X0.2700*%
%ADD22R,0.8000X0.2700*%
%ADD23R,0.6800X0.4800*%
%ADD24R,1.3980X1.3980*%
%ADD25C,1.3980*%
%ADD26C,1.5700*%
%ADD27R,1.5700X1.5700*%
%ADD28C,0.6000*%
G04:AMPARAMS|DCode=29|XSize=0.85mm|YSize=0.5mm|CornerRadius=0.25mm|HoleSize=0mm|Usage=FLASHONLY|Rotation=90.000|XOffset=0mm|YOffset=0mm|HoleType=Round|Shape=RoundedRectangle|*
%AMROUNDEDRECTD29*
21,1,0.8500,0.0000,0,0,90.0*
21,1,0.3500,0.5000,0,0,90.0*
1,1,0.5000,0.0000,0.1750*
1,1,0.5000,0.0000,-0.1750*
1,1,0.5000,0.0000,-0.1750*
1,1,0.5000,0.0000,0.1750*
%
%ADD29ROUNDEDRECTD29*%
G04:AMPARAMS|DCode=30|XSize=1.3mm|YSize=2.6mm|CornerRadius=0.65mm|HoleSize=0mm|Usage=FLASHONLY|Rotation=90.000|XOffset=0mm|YOffset=0mm|HoleType=Round|Shape=RoundedRectangle|*
%AMROUNDEDRECTD30*
21,1,1.3000,1.3000,0,0,90.0*
21,1,0.0000,2.6000,0,0,90.0*
1,1,1.3000,0.6500,0.0000*
1,1,1.3000,0.6500,0.0000*
1,1,1.3000,-0.6500,0.0000*
1,1,1.3000,-0.6500,0.0000*
%
%ADD30ROUNDEDRECTD30*%
G04:AMPARAMS|DCode=31|XSize=0.6mm|YSize=1.9mm|CornerRadius=0.3mm|HoleSize=0mm|Usage=FLASHONLY|Rotation=90.000|XOffset=0mm|YOffset=0mm|HoleType=Round|Shape=RoundedRectangle|*
%AMROUNDEDRECTD31*
21,1,0.6000,1.3000,0,0,90.0*
21,1,0.0000,1.9000,0,0,90.0*
1,1,0.6000,0.6500,0.0000*
1,1,0.6000,0.6500,0.0000*
1,1,0.6000,-0.6500,0.0000*
1,1,0.6000,-0.6500,0.0000*
%
%ADD31ROUNDEDRECTD31*%
G04:AMPARAMS|DCode=32|XSize=1.25mm|YSize=0.7mm|CornerRadius=0.35mm|HoleSize=0mm|Usage=FLASHONLY|Rotation=90.000|XOffset=0mm|YOffset=0mm|HoleType=Round|Shape=RoundedRectangle|*
%AMROUNDEDRECTD32*
21,1,1.2500,0.0000,0,0,90.0*
21,1,0.5500,0.7000,0,0,90.0*
1,1,0.7000,0.0000,0.2750*
1,1,0.7000,0.0000,-0.2750*
1,1,0.7000,0.0000,-0.2750*
1,1,0.7000,0.0000,0.2750*
%
%ADD32ROUNDEDRECTD32*%
G36*
X348643Y224200D02*
X349423Y224097D01*
X350183Y223894D01*
X350909Y223593D01*
X351591Y223200D01*
X352215Y222721D01*
X352771Y222165D01*
X353250Y221541D01*
X353643Y220859D01*
X353944Y220133D01*
X354147Y219373D01*
X354250Y218593D01*
Y218200D01*
X354250Y212000D01*
X354250D01*
X354149Y211546D01*
X353796Y210684D01*
X353303Y209894D01*
X352685Y209198D01*
X351959Y208615D01*
X351144Y208164D01*
X350266Y207855D01*
X349348Y207698D01*
X348883Y207698D01*
X348866D01*
X348833Y207699D01*
X348800Y207699D01*
X348767Y207700D01*
X348750Y207700D01*
X348266Y207692D01*
X347310Y207845D01*
X346395Y208163D01*
X345550Y208636D01*
X344801Y209249D01*
X344170Y209984D01*
X343677Y210817D01*
X343338Y211724D01*
X343250Y212200D01*
X337250D01*
X337250Y212200D01*
X336778D01*
X335845Y212348D01*
X334947Y212640D01*
X334105Y213068D01*
X333341Y213624D01*
X332673Y214291D01*
X332118Y215055D01*
X331690Y215897D01*
X331398Y216795D01*
X331250Y217728D01*
X331250Y218672D01*
X331398Y219605D01*
X331690Y220503D01*
X332118Y221345D01*
X332673Y222109D01*
X333341Y222777D01*
X334105Y223332D01*
X334947Y223760D01*
X335845Y224052D01*
X336778Y224200D01*
X337250Y224200D01*
X348250Y224200D01*
X348643Y224200D01*
D02*
G37*
G36*
X348750Y142300D02*
X348767Y142300D01*
X348800Y142301D01*
X348833Y142301D01*
X348866Y142302D01*
X348882Y142302D01*
X349348Y142302D01*
X350266Y142145D01*
X351144Y141837D01*
X351959Y141385D01*
X352685Y140802D01*
X353303Y140106D01*
X353796Y139316D01*
X354149Y138454D01*
X354250Y138000D01*
X354250Y131800D01*
X354250D01*
X354250Y131407D01*
X354147Y130627D01*
X353944Y129867D01*
X353643Y129141D01*
X353250Y128459D01*
X352771Y127835D01*
X352215Y127279D01*
X351591Y126800D01*
X350909Y126407D01*
X350183Y126106D01*
X349423Y125903D01*
X348643Y125800D01*
X348250Y125800D01*
X337250Y125800D01*
X337250Y125800D01*
X336857Y125800D01*
X336077Y125903D01*
X335317Y126106D01*
X334591Y126407D01*
X333909Y126800D01*
X333285Y127279D01*
X332729Y127835D01*
X332251Y128459D01*
X331857Y129141D01*
X331556Y129867D01*
X331353Y130627D01*
X331250Y131407D01*
X331250Y131800D01*
X331250Y132193D01*
X331353Y132973D01*
X331556Y133733D01*
X331857Y134459D01*
X332251Y135140D01*
X332729Y135765D01*
X333285Y136321D01*
X333909Y136799D01*
X334591Y137193D01*
X335317Y137494D01*
X336077Y137697D01*
X336857Y137800D01*
X337250D01*
X343250Y137800D01*
X343250Y137800D01*
X343338Y138276D01*
X343677Y139183D01*
X344170Y140016D01*
X344801Y140751D01*
X345550Y141364D01*
X346395Y141837D01*
X347310Y142155D01*
X348266Y142308D01*
X348750Y142300D01*
D02*
G37*
D18*
X253750Y182000D02*
D03*
X288750D02*
D03*
X253750Y168000D02*
D03*
X288750D02*
D03*
D19*
X260500Y141000D02*
D03*
Y151200D02*
D03*
X269000Y141000D02*
D03*
Y151200D02*
D03*
D20*
X37000Y213000D02*
D03*
Y249000D02*
D03*
X38000Y132000D02*
D03*
Y96000D02*
D03*
D21*
X335750Y203750D02*
D03*
Y198750D02*
D03*
Y193750D02*
D03*
Y188750D02*
D03*
Y183750D02*
D03*
Y178750D02*
D03*
Y173750D02*
D03*
Y168750D02*
D03*
Y163750D02*
D03*
Y158750D02*
D03*
Y153750D02*
D03*
Y148750D02*
D03*
D22*
X351750Y146250D02*
D03*
Y151250D02*
D03*
Y156250D02*
D03*
Y161250D02*
D03*
Y166250D02*
D03*
Y171250D02*
D03*
Y176250D02*
D03*
Y181250D02*
D03*
Y186250D02*
D03*
Y191250D02*
D03*
Y196250D02*
D03*
Y201250D02*
D03*
D23*
X249250Y203250D02*
D03*
Y213250D02*
D03*
X277750Y150750D02*
D03*
Y140750D02*
D03*
X286750Y141250D02*
D03*
Y151250D02*
D03*
D24*
X345000Y305400D02*
D03*
X342850Y70000D02*
D03*
D25*
X345000Y280000D02*
D03*
X319600Y305400D02*
D03*
Y280000D02*
D03*
X294200Y305400D02*
D03*
Y280000D02*
D03*
X268800Y305400D02*
D03*
Y280000D02*
D03*
X243400Y305400D02*
D03*
Y280000D02*
D03*
X218000Y305400D02*
D03*
Y280000D02*
D03*
X192600Y305400D02*
D03*
Y280000D02*
D03*
X167200Y305400D02*
D03*
Y280000D02*
D03*
X141800Y305400D02*
D03*
Y280000D02*
D03*
X116400Y305400D02*
D03*
Y280000D02*
D03*
X342850Y44600D02*
D03*
X317450Y70000D02*
D03*
Y44600D02*
D03*
X292050Y70000D02*
D03*
Y44600D02*
D03*
X266650Y70000D02*
D03*
Y44600D02*
D03*
X241250Y70000D02*
D03*
Y44600D02*
D03*
X215850Y70000D02*
D03*
Y44600D02*
D03*
X190450Y70000D02*
D03*
Y44600D02*
D03*
X165050Y70000D02*
D03*
Y44600D02*
D03*
X139650Y70000D02*
D03*
Y44600D02*
D03*
X114250Y70000D02*
D03*
Y44600D02*
D03*
D26*
X79500Y123000D02*
D03*
X104900D02*
D03*
X130300D02*
D03*
X155700D02*
D03*
X181100D02*
D03*
X79500Y220000D02*
D03*
X104900D02*
D03*
X130300D02*
D03*
X155700D02*
D03*
X181100D02*
D03*
D27*
X206500Y123000D02*
D03*
Y220000D02*
D03*
D28*
X362750Y139000D02*
D03*
D29*
X362100Y211000D02*
D03*
D30*
X393250Y218200D02*
D03*
Y131800D02*
D03*
D31*
X342750D02*
D03*
D32*
X348850Y214950D02*
D03*
M02*
