G04*
G04 #@! TF.GenerationSoftware,Altium Limited,Altium Designer,23.2.1 (34)*
G04*
G04 Layer_Physical_Order=3*
G04 Layer_Color=16737945*
%FSLAX44Y44*%
%MOMM*%
G71*
G04*
G04 #@! TF.SameCoordinates,487D5E4A-F804-4ADF-A167-9DE8C44D793A*
G04*
G04*
G04 #@! TF.FilePolarity,Positive*
G04*
G01*
G75*
%ADD24R,1.3980X1.3980*%
%ADD25C,1.3980*%
%ADD26C,1.5700*%
%ADD27R,1.5700X1.5700*%
%ADD28C,0.6000*%
G04:AMPARAMS|DCode=29|XSize=0.85mm|YSize=0.5mm|CornerRadius=0.25mm|HoleSize=0mm|Usage=FLASHONLY|Rotation=90.000|XOffset=0mm|YOffset=0mm|HoleType=Round|Shape=RoundedRectangle|*
%AMROUNDEDRECTD29*
21,1,0.8500,0.0000,0,0,90.0*
21,1,0.3500,0.5000,0,0,90.0*
1,1,0.5000,0.0000,0.1750*
1,1,0.5000,0.0000,-0.1750*
1,1,0.5000,0.0000,-0.1750*
1,1,0.5000,0.0000,0.1750*
%
%ADD29ROUNDEDRECTD29*%
G04:AMPARAMS|DCode=30|XSize=1.3mm|YSize=2.6mm|CornerRadius=0.65mm|HoleSize=0mm|Usage=FLASHONLY|Rotation=90.000|XOffset=0mm|YOffset=0mm|HoleType=Round|Shape=RoundedRectangle|*
%AMROUNDEDRECTD30*
21,1,1.3000,1.3000,0,0,90.0*
21,1,0.0000,2.6000,0,0,90.0*
1,1,1.3000,0.6500,0.0000*
1,1,1.3000,0.6500,0.0000*
1,1,1.3000,-0.6500,0.0000*
1,1,1.3000,-0.6500,0.0000*
%
%ADD30ROUNDEDRECTD30*%
G04:AMPARAMS|DCode=31|XSize=0.6mm|YSize=1.9mm|CornerRadius=0.3mm|HoleSize=0mm|Usage=FLASHONLY|Rotation=90.000|XOffset=0mm|YOffset=0mm|HoleType=Round|Shape=RoundedRectangle|*
%AMROUNDEDRECTD31*
21,1,0.6000,1.3000,0,0,90.0*
21,1,0.0000,1.9000,0,0,90.0*
1,1,0.6000,0.6500,0.0000*
1,1,0.6000,0.6500,0.0000*
1,1,0.6000,-0.6500,0.0000*
1,1,0.6000,-0.6500,0.0000*
%
%ADD31ROUNDEDRECTD31*%
G04:AMPARAMS|DCode=32|XSize=1.25mm|YSize=0.7mm|CornerRadius=0.35mm|HoleSize=0mm|Usage=FLASHONLY|Rotation=90.000|XOffset=0mm|YOffset=0mm|HoleType=Round|Shape=RoundedRectangle|*
%AMROUNDEDRECTD32*
21,1,1.2500,0.0000,0,0,90.0*
21,1,0.5500,0.7000,0,0,90.0*
1,1,0.7000,0.0000,0.2750*
1,1,0.7000,0.0000,-0.2750*
1,1,0.7000,0.0000,-0.2750*
1,1,0.7000,0.0000,0.2750*
%
%ADD32ROUNDEDRECTD32*%
%ADD33C,0.3500*%
G36*
X406941Y223234D02*
X405671Y222803D01*
X405099Y223549D01*
X403532Y224751D01*
X401708Y225507D01*
X399750Y225765D01*
X386750D01*
X384792Y225507D01*
X382968Y224751D01*
X381401Y223549D01*
X380199Y221982D01*
X379443Y220158D01*
X379185Y218200D01*
X379443Y216242D01*
X380199Y214418D01*
X381401Y212851D01*
X382968Y211649D01*
X384792Y210893D01*
X386750Y210635D01*
X399750D01*
X401708Y210893D01*
X403532Y211649D01*
X405099Y212851D01*
X405671Y213597D01*
X406941Y213166D01*
X406941Y136834D01*
X405671Y136403D01*
X405099Y137149D01*
X403532Y138351D01*
X401708Y139107D01*
X399750Y139365D01*
X386750D01*
X384792Y139107D01*
X382968Y138351D01*
X381401Y137149D01*
X380199Y135582D01*
X379443Y133758D01*
X379185Y131800D01*
X379443Y129842D01*
X380199Y128018D01*
X381401Y126451D01*
X382968Y125249D01*
X384792Y124493D01*
X386750Y124235D01*
X399750D01*
X401708Y124493D01*
X403532Y125249D01*
X405099Y126451D01*
X405671Y127197D01*
X406941Y126766D01*
Y3059D01*
X13059Y3059D01*
X13059Y346941D01*
X406941D01*
Y223234D01*
D02*
G37*
%LPC*%
G36*
X354490Y314890D02*
X346250D01*
Y306650D01*
X354490D01*
Y314890D01*
D02*
G37*
G36*
X343750D02*
X335510D01*
Y306650D01*
X343750D01*
Y314890D01*
D02*
G37*
G36*
X320652Y313390D02*
X318548D01*
X316516Y312845D01*
X314694Y311794D01*
X313206Y310306D01*
X312155Y308484D01*
X311610Y306452D01*
Y304348D01*
X312155Y302316D01*
X313206Y300494D01*
X314694Y299006D01*
X316516Y297955D01*
X318548Y297410D01*
X320652D01*
X322684Y297955D01*
X324506Y299006D01*
X325994Y300494D01*
X327046Y302316D01*
X327590Y304348D01*
Y306452D01*
X327046Y308484D01*
X325994Y310306D01*
X324506Y311794D01*
X322684Y312845D01*
X320652Y313390D01*
D02*
G37*
G36*
X295252D02*
X293148D01*
X291116Y312845D01*
X289294Y311794D01*
X287806Y310306D01*
X286754Y308484D01*
X286210Y306452D01*
Y304348D01*
X286754Y302316D01*
X287806Y300494D01*
X289294Y299006D01*
X291116Y297955D01*
X293148Y297410D01*
X295252D01*
X297284Y297955D01*
X299106Y299006D01*
X300594Y300494D01*
X301646Y302316D01*
X302190Y304348D01*
Y306452D01*
X301646Y308484D01*
X300594Y310306D01*
X299106Y311794D01*
X297284Y312845D01*
X295252Y313390D01*
D02*
G37*
G36*
X269852D02*
X267748D01*
X265716Y312845D01*
X263894Y311794D01*
X262406Y310306D01*
X261355Y308484D01*
X260810Y306452D01*
Y304348D01*
X261355Y302316D01*
X262406Y300494D01*
X263894Y299006D01*
X265716Y297955D01*
X267748Y297410D01*
X269852D01*
X271884Y297955D01*
X273706Y299006D01*
X275194Y300494D01*
X276245Y302316D01*
X276790Y304348D01*
Y306452D01*
X276245Y308484D01*
X275194Y310306D01*
X273706Y311794D01*
X271884Y312845D01*
X269852Y313390D01*
D02*
G37*
G36*
X244452D02*
X242348D01*
X240316Y312845D01*
X238494Y311794D01*
X237006Y310306D01*
X235954Y308484D01*
X235410Y306452D01*
Y304348D01*
X235954Y302316D01*
X237006Y300494D01*
X238494Y299006D01*
X240316Y297955D01*
X242348Y297410D01*
X244452D01*
X246484Y297955D01*
X248306Y299006D01*
X249794Y300494D01*
X250846Y302316D01*
X251390Y304348D01*
Y306452D01*
X250846Y308484D01*
X249794Y310306D01*
X248306Y311794D01*
X246484Y312845D01*
X244452Y313390D01*
D02*
G37*
G36*
X219052D02*
X216948D01*
X214916Y312845D01*
X213094Y311794D01*
X211606Y310306D01*
X210555Y308484D01*
X210010Y306452D01*
Y304348D01*
X210555Y302316D01*
X211606Y300494D01*
X213094Y299006D01*
X214916Y297955D01*
X216948Y297410D01*
X219052D01*
X221084Y297955D01*
X222906Y299006D01*
X224394Y300494D01*
X225445Y302316D01*
X225990Y304348D01*
Y306452D01*
X225445Y308484D01*
X224394Y310306D01*
X222906Y311794D01*
X221084Y312845D01*
X219052Y313390D01*
D02*
G37*
G36*
X193652D02*
X191548D01*
X189516Y312845D01*
X187694Y311794D01*
X186206Y310306D01*
X185154Y308484D01*
X184610Y306452D01*
Y304348D01*
X185154Y302316D01*
X186206Y300494D01*
X187694Y299006D01*
X189516Y297955D01*
X191548Y297410D01*
X193652D01*
X195684Y297955D01*
X197506Y299006D01*
X198994Y300494D01*
X200046Y302316D01*
X200590Y304348D01*
Y306452D01*
X200046Y308484D01*
X198994Y310306D01*
X197506Y311794D01*
X195684Y312845D01*
X193652Y313390D01*
D02*
G37*
G36*
X168252D02*
X166148D01*
X164116Y312845D01*
X162294Y311794D01*
X160806Y310306D01*
X159754Y308484D01*
X159210Y306452D01*
Y304348D01*
X159754Y302316D01*
X160806Y300494D01*
X162294Y299006D01*
X164116Y297955D01*
X166148Y297410D01*
X168252D01*
X170284Y297955D01*
X172106Y299006D01*
X173594Y300494D01*
X174646Y302316D01*
X175190Y304348D01*
Y306452D01*
X174646Y308484D01*
X173594Y310306D01*
X172106Y311794D01*
X170284Y312845D01*
X168252Y313390D01*
D02*
G37*
G36*
X142852D02*
X140748D01*
X138716Y312845D01*
X136894Y311794D01*
X135406Y310306D01*
X134354Y308484D01*
X133810Y306452D01*
Y304348D01*
X134354Y302316D01*
X135406Y300494D01*
X136894Y299006D01*
X138716Y297955D01*
X140748Y297410D01*
X142852D01*
X144884Y297955D01*
X146706Y299006D01*
X148194Y300494D01*
X149246Y302316D01*
X149790Y304348D01*
Y306452D01*
X149246Y308484D01*
X148194Y310306D01*
X146706Y311794D01*
X144884Y312845D01*
X142852Y313390D01*
D02*
G37*
G36*
X117452D02*
X115348D01*
X113316Y312845D01*
X111494Y311794D01*
X110006Y310306D01*
X108954Y308484D01*
X108410Y306452D01*
Y304348D01*
X108954Y302316D01*
X110006Y300494D01*
X111494Y299006D01*
X113316Y297955D01*
X115348Y297410D01*
X117452D01*
X119484Y297955D01*
X121306Y299006D01*
X122794Y300494D01*
X123846Y302316D01*
X124390Y304348D01*
Y306452D01*
X123846Y308484D01*
X122794Y310306D01*
X121306Y311794D01*
X119484Y312845D01*
X117452Y313390D01*
D02*
G37*
G36*
X354490Y304150D02*
X346250D01*
Y295910D01*
X354490D01*
Y304150D01*
D02*
G37*
G36*
X343750D02*
X335510D01*
Y295910D01*
X343750D01*
Y304150D01*
D02*
G37*
G36*
X346250Y289490D02*
Y281250D01*
X354490D01*
X353843Y283663D01*
X352594Y285827D01*
X350827Y287594D01*
X348663Y288843D01*
X346250Y289490D01*
D02*
G37*
G36*
X343750D02*
X341337Y288843D01*
X339173Y287594D01*
X337406Y285827D01*
X336157Y283663D01*
X335510Y281250D01*
X343750D01*
Y289490D01*
D02*
G37*
G36*
X320652Y287990D02*
X318548D01*
X316516Y287446D01*
X314694Y286394D01*
X313206Y284906D01*
X312155Y283084D01*
X311610Y281052D01*
Y278948D01*
X312155Y276916D01*
X313206Y275094D01*
X314694Y273606D01*
X316516Y272554D01*
X318548Y272010D01*
X320652D01*
X322684Y272554D01*
X324506Y273606D01*
X325994Y275094D01*
X327046Y276916D01*
X327590Y278948D01*
Y281052D01*
X327046Y283084D01*
X325994Y284906D01*
X324506Y286394D01*
X322684Y287446D01*
X320652Y287990D01*
D02*
G37*
G36*
X295252D02*
X293148D01*
X291116Y287446D01*
X289294Y286394D01*
X287806Y284906D01*
X286754Y283084D01*
X286210Y281052D01*
Y278948D01*
X286754Y276916D01*
X287806Y275094D01*
X289294Y273606D01*
X291116Y272554D01*
X293148Y272010D01*
X295252D01*
X297284Y272554D01*
X299106Y273606D01*
X300594Y275094D01*
X301646Y276916D01*
X302190Y278948D01*
Y281052D01*
X301646Y283084D01*
X300594Y284906D01*
X299106Y286394D01*
X297284Y287446D01*
X295252Y287990D01*
D02*
G37*
G36*
X269852D02*
X267748D01*
X265716Y287446D01*
X263894Y286394D01*
X262406Y284906D01*
X261355Y283084D01*
X260810Y281052D01*
Y278948D01*
X261355Y276916D01*
X262406Y275094D01*
X263894Y273606D01*
X265716Y272554D01*
X267748Y272010D01*
X269852D01*
X271884Y272554D01*
X273706Y273606D01*
X275194Y275094D01*
X276245Y276916D01*
X276790Y278948D01*
Y281052D01*
X276245Y283084D01*
X275194Y284906D01*
X273706Y286394D01*
X271884Y287446D01*
X269852Y287990D01*
D02*
G37*
G36*
X244452D02*
X242348D01*
X240316Y287446D01*
X238494Y286394D01*
X237006Y284906D01*
X235954Y283084D01*
X235410Y281052D01*
Y278948D01*
X235954Y276916D01*
X237006Y275094D01*
X238494Y273606D01*
X240316Y272554D01*
X242348Y272010D01*
X244452D01*
X246484Y272554D01*
X248306Y273606D01*
X249794Y275094D01*
X250846Y276916D01*
X251390Y278948D01*
Y281052D01*
X250846Y283084D01*
X249794Y284906D01*
X248306Y286394D01*
X246484Y287446D01*
X244452Y287990D01*
D02*
G37*
G36*
X219052D02*
X216948D01*
X214916Y287446D01*
X213094Y286394D01*
X211606Y284906D01*
X210555Y283084D01*
X210010Y281052D01*
Y278948D01*
X210555Y276916D01*
X211606Y275094D01*
X213094Y273606D01*
X214916Y272554D01*
X216948Y272010D01*
X219052D01*
X221084Y272554D01*
X222906Y273606D01*
X224394Y275094D01*
X225445Y276916D01*
X225990Y278948D01*
Y281052D01*
X225445Y283084D01*
X224394Y284906D01*
X222906Y286394D01*
X221084Y287446D01*
X219052Y287990D01*
D02*
G37*
G36*
X193652D02*
X191548D01*
X189516Y287446D01*
X187694Y286394D01*
X186206Y284906D01*
X185154Y283084D01*
X184610Y281052D01*
Y278948D01*
X185154Y276916D01*
X186206Y275094D01*
X187694Y273606D01*
X189516Y272554D01*
X191548Y272010D01*
X193652D01*
X195684Y272554D01*
X197506Y273606D01*
X198994Y275094D01*
X200046Y276916D01*
X200590Y278948D01*
Y281052D01*
X200046Y283084D01*
X198994Y284906D01*
X197506Y286394D01*
X195684Y287446D01*
X193652Y287990D01*
D02*
G37*
G36*
X168252D02*
X166148D01*
X164116Y287446D01*
X162294Y286394D01*
X160806Y284906D01*
X159754Y283084D01*
X159210Y281052D01*
Y278948D01*
X159754Y276916D01*
X160806Y275094D01*
X162294Y273606D01*
X164116Y272554D01*
X166148Y272010D01*
X168252D01*
X170284Y272554D01*
X172106Y273606D01*
X173594Y275094D01*
X174646Y276916D01*
X175190Y278948D01*
Y281052D01*
X174646Y283084D01*
X173594Y284906D01*
X172106Y286394D01*
X170284Y287446D01*
X168252Y287990D01*
D02*
G37*
G36*
X142852D02*
X140748D01*
X138716Y287446D01*
X136894Y286394D01*
X135406Y284906D01*
X134354Y283084D01*
X133810Y281052D01*
Y278948D01*
X134354Y276916D01*
X135406Y275094D01*
X136894Y273606D01*
X138716Y272554D01*
X140748Y272010D01*
X142852D01*
X144884Y272554D01*
X146706Y273606D01*
X148194Y275094D01*
X149246Y276916D01*
X149790Y278948D01*
Y281052D01*
X149246Y283084D01*
X148194Y284906D01*
X146706Y286394D01*
X144884Y287446D01*
X142852Y287990D01*
D02*
G37*
G36*
X117452D02*
X115348D01*
X113316Y287446D01*
X111494Y286394D01*
X110006Y284906D01*
X108954Y283084D01*
X108410Y281052D01*
Y278948D01*
X108954Y276916D01*
X110006Y275094D01*
X111494Y273606D01*
X113316Y272554D01*
X115348Y272010D01*
X117452D01*
X119484Y272554D01*
X121306Y273606D01*
X122794Y275094D01*
X123846Y276916D01*
X124390Y278948D01*
Y281052D01*
X123846Y283084D01*
X122794Y284906D01*
X121306Y286394D01*
X119484Y287446D01*
X117452Y287990D01*
D02*
G37*
G36*
X354490Y278750D02*
X346250D01*
Y270510D01*
X348663Y271157D01*
X350827Y272406D01*
X352594Y274173D01*
X353843Y276337D01*
X354490Y278750D01*
D02*
G37*
G36*
X343750D02*
X335510D01*
X336157Y276337D01*
X337406Y274173D01*
X339173Y272406D01*
X341337Y271157D01*
X343750Y270510D01*
Y278750D01*
D02*
G37*
G36*
X37297Y239500D02*
X36203D01*
X35192Y239081D01*
X34419Y238308D01*
X34000Y237297D01*
Y236203D01*
X34419Y235192D01*
X35192Y234419D01*
X36203Y234000D01*
X37297D01*
X38308Y234419D01*
X39081Y235192D01*
X39500Y236203D01*
Y237297D01*
X39081Y238308D01*
X38308Y239081D01*
X37297Y239500D01*
D02*
G37*
G36*
X348250Y225282D02*
X348250Y225282D01*
X348250Y225282D01*
X337250Y225282D01*
X336778Y225282D01*
X336695Y225248D01*
X336609Y225269D01*
X335676Y225121D01*
X335600Y225075D01*
X335511Y225082D01*
X334612Y224790D01*
X334544Y224732D01*
X334455Y224725D01*
X333614Y224296D01*
X333556Y224228D01*
X333469Y224207D01*
X332705Y223652D01*
X332658Y223576D01*
X332576Y223542D01*
X331908Y222874D01*
X331874Y222792D01*
X331798Y222745D01*
X331243Y221981D01*
X331222Y221894D01*
X331154Y221836D01*
X330725Y220995D01*
X330718Y220906D01*
X330660Y220838D01*
X330368Y219939D01*
X330375Y219851D01*
X330329Y219774D01*
X330181Y218841D01*
X330202Y218755D01*
X330168Y218672D01*
X330168Y217728D01*
X330202Y217645D01*
X330181Y217558D01*
X330329Y216626D01*
X330375Y216550D01*
X330368Y216460D01*
X330660Y215562D01*
X330718Y215494D01*
X330725Y215405D01*
X331154Y214564D01*
X331222Y214506D01*
X331243Y214419D01*
X331798Y213655D01*
X331874Y213608D01*
X331908Y213526D01*
X332576Y212858D01*
X332658Y212824D01*
X332705Y212748D01*
X333469Y212193D01*
X333556Y212172D01*
X333614Y212104D01*
X334455Y211675D01*
X334544Y211668D01*
X334612Y211610D01*
X335510Y211318D01*
X335600Y211325D01*
X335676Y211279D01*
X336609Y211131D01*
X336695Y211152D01*
X336778Y211118D01*
X337250D01*
X337250Y211118D01*
X342409D01*
X342664Y210438D01*
X342732Y210365D01*
X342746Y210266D01*
X343238Y209433D01*
X343318Y209373D01*
X343349Y209279D01*
X343980Y208544D01*
X344068Y208499D01*
X344115Y208411D01*
X344865Y207798D01*
X344960Y207770D01*
X345022Y207691D01*
X345867Y207219D01*
X345965Y207207D01*
X346040Y207141D01*
X346954Y206823D01*
X347054Y206829D01*
X347138Y206777D01*
X348094Y206623D01*
X348191Y206646D01*
X348284Y206610D01*
X348747Y206617D01*
X348780Y206617D01*
X348783Y206618D01*
X348786Y206617D01*
X348820Y206616D01*
X348823Y206618D01*
X348827Y206616D01*
X348860Y206616D01*
X348863Y206617D01*
X348866Y206616D01*
X349348Y206616D01*
X349437Y206653D01*
X349530Y206631D01*
X350448Y206788D01*
X350529Y206839D01*
X350625Y206834D01*
X351503Y207142D01*
X351575Y207206D01*
X351670Y207217D01*
X352484Y207669D01*
X352543Y207744D01*
X352635Y207771D01*
X353362Y208353D01*
X353408Y208437D01*
X353494Y208479D01*
X354113Y209175D01*
X354144Y209265D01*
X354222Y209321D01*
X354715Y210111D01*
X354730Y210206D01*
X354798Y210274D01*
X355150Y211136D01*
X355150Y211231D01*
X355205Y211310D01*
X355306Y211764D01*
X355285Y211886D01*
X355332Y212000D01*
X355332Y218593D01*
X355304Y218662D01*
X355323Y218734D01*
X355220Y219514D01*
X355183Y219579D01*
X355193Y219653D01*
X354989Y220413D01*
X354944Y220472D01*
Y220547D01*
X354643Y221274D01*
X354590Y221327D01*
X354580Y221401D01*
X354187Y222082D01*
X354128Y222127D01*
X354108Y222199D01*
X353629Y222824D01*
X353565Y222861D01*
X353536Y222930D01*
X352980Y223486D01*
X352911Y223515D01*
X352873Y223579D01*
X352249Y224058D01*
X352177Y224078D01*
X352132Y224137D01*
X351451Y224530D01*
X351376Y224540D01*
X351324Y224593D01*
X350597Y224894D01*
X350522D01*
X350463Y224939D01*
X349703Y225143D01*
X349629Y225133D01*
X349564Y225170D01*
X348784Y225273D01*
X348712Y225254D01*
X348643Y225282D01*
X348250Y225282D01*
D02*
G37*
G36*
X216850Y230350D02*
X207750D01*
Y221250D01*
X216850D01*
Y230350D01*
D02*
G37*
G36*
X205250D02*
X196150D01*
Y221250D01*
X205250D01*
Y230350D01*
D02*
G37*
G36*
X182265Y228850D02*
X179935D01*
X177684Y228247D01*
X175666Y227082D01*
X174018Y225434D01*
X172853Y223416D01*
X172250Y221165D01*
Y218835D01*
X172853Y216584D01*
X174018Y214566D01*
X175666Y212918D01*
X177684Y211753D01*
X179935Y211150D01*
X182265D01*
X184516Y211753D01*
X186534Y212918D01*
X188182Y214566D01*
X189347Y216584D01*
X189950Y218835D01*
Y221165D01*
X189347Y223416D01*
X188182Y225434D01*
X186534Y227082D01*
X184516Y228247D01*
X182265Y228850D01*
D02*
G37*
G36*
X156865D02*
X154535D01*
X152284Y228247D01*
X150266Y227082D01*
X148618Y225434D01*
X147453Y223416D01*
X146850Y221165D01*
Y218835D01*
X147453Y216584D01*
X148618Y214566D01*
X150266Y212918D01*
X152284Y211753D01*
X154535Y211150D01*
X156865D01*
X159116Y211753D01*
X161134Y212918D01*
X162782Y214566D01*
X163947Y216584D01*
X164550Y218835D01*
Y221165D01*
X163947Y223416D01*
X162782Y225434D01*
X161134Y227082D01*
X159116Y228247D01*
X156865Y228850D01*
D02*
G37*
G36*
X131465D02*
X129135D01*
X126884Y228247D01*
X124866Y227082D01*
X123218Y225434D01*
X122053Y223416D01*
X121450Y221165D01*
Y218835D01*
X122053Y216584D01*
X123218Y214566D01*
X124866Y212918D01*
X126884Y211753D01*
X129135Y211150D01*
X131465D01*
X133716Y211753D01*
X135734Y212918D01*
X137382Y214566D01*
X138547Y216584D01*
X139150Y218835D01*
Y221165D01*
X138547Y223416D01*
X137382Y225434D01*
X135734Y227082D01*
X133716Y228247D01*
X131465Y228850D01*
D02*
G37*
G36*
X106065D02*
X103735D01*
X101484Y228247D01*
X99466Y227082D01*
X97818Y225434D01*
X96653Y223416D01*
X96050Y221165D01*
Y218835D01*
X96653Y216584D01*
X97818Y214566D01*
X99466Y212918D01*
X101484Y211753D01*
X103735Y211150D01*
X106065D01*
X108316Y211753D01*
X110334Y212918D01*
X111982Y214566D01*
X113147Y216584D01*
X113750Y218835D01*
Y221165D01*
X113147Y223416D01*
X111982Y225434D01*
X110334Y227082D01*
X108316Y228247D01*
X106065Y228850D01*
D02*
G37*
G36*
X80665D02*
X78335D01*
X76084Y228247D01*
X74066Y227082D01*
X72418Y225434D01*
X71253Y223416D01*
X70650Y221165D01*
Y218835D01*
X71253Y216584D01*
X72418Y214566D01*
X74066Y212918D01*
X76084Y211753D01*
X78335Y211150D01*
X80665D01*
X82916Y211753D01*
X84934Y212918D01*
X86582Y214566D01*
X87747Y216584D01*
X88350Y218835D01*
Y221165D01*
X87747Y223416D01*
X86582Y225434D01*
X84934Y227082D01*
X82916Y228247D01*
X80665Y228850D01*
D02*
G37*
G36*
X216850Y218750D02*
X207750D01*
Y209650D01*
X216850D01*
Y218750D01*
D02*
G37*
G36*
X205250D02*
X196150D01*
Y209650D01*
X205250D01*
Y218750D01*
D02*
G37*
G36*
X362100Y216319D02*
X360734Y216047D01*
X359577Y215273D01*
X358803Y214116D01*
X358531Y212750D01*
Y209250D01*
X358803Y207884D01*
X359577Y206727D01*
X360734Y205953D01*
X362100Y205681D01*
X363466Y205953D01*
X364623Y206727D01*
X365397Y207884D01*
X365669Y209250D01*
Y212750D01*
X365397Y214116D01*
X364623Y215273D01*
X363466Y216047D01*
X362100Y216319D01*
D02*
G37*
G36*
X36797Y207250D02*
X35703D01*
X34692Y206831D01*
X33919Y206058D01*
X33500Y205047D01*
Y203953D01*
X33919Y202942D01*
X34692Y202169D01*
X35703Y201750D01*
X36797D01*
X37808Y202169D01*
X38581Y202942D01*
X39000Y203953D01*
Y205047D01*
X38581Y206058D01*
X37808Y206831D01*
X36797Y207250D01*
D02*
G37*
G36*
X359297Y204000D02*
X358203D01*
X357192Y203581D01*
X356419Y202808D01*
X356000Y201797D01*
Y200703D01*
X356419Y199692D01*
X357192Y198919D01*
X358203Y198500D01*
X359297D01*
X360308Y198919D01*
X361081Y199692D01*
X361500Y200703D01*
Y201797D01*
X361081Y202808D01*
X360308Y203581D01*
X359297Y204000D01*
D02*
G37*
G36*
X269347Y196500D02*
X268253D01*
X267242Y196081D01*
X266469Y195308D01*
X266050Y194297D01*
Y193203D01*
X266469Y192192D01*
X267242Y191419D01*
X268253Y191000D01*
X269347D01*
X270358Y191419D01*
X271131Y192192D01*
X271550Y193203D01*
Y194297D01*
X271131Y195308D01*
X270358Y196081D01*
X269347Y196500D01*
D02*
G37*
G36*
X392297Y193250D02*
X391203D01*
X390192Y192831D01*
X389419Y192058D01*
X389000Y191047D01*
Y189953D01*
X389419Y188942D01*
X390192Y188169D01*
X391203Y187750D01*
X392297D01*
X393308Y188169D01*
X394081Y188942D01*
X394500Y189953D01*
Y191047D01*
X394081Y192058D01*
X393308Y192831D01*
X392297Y193250D01*
D02*
G37*
G36*
X327547Y191500D02*
X326453D01*
X325442Y191081D01*
X324669Y190308D01*
X324250Y189297D01*
Y188203D01*
X324669Y187192D01*
X325442Y186419D01*
X326453Y186000D01*
X327547D01*
X328558Y186419D01*
X329331Y187192D01*
X329750Y188203D01*
Y189297D01*
X329331Y190308D01*
X328558Y191081D01*
X327547Y191500D01*
D02*
G37*
G36*
X392297Y181250D02*
X391203D01*
X390192Y180831D01*
X389419Y180058D01*
X389000Y179047D01*
Y177953D01*
X389419Y176942D01*
X390192Y176169D01*
X391203Y175750D01*
X392297D01*
X393308Y176169D01*
X394081Y176942D01*
X394500Y177953D01*
Y179047D01*
X394081Y180058D01*
X393308Y180831D01*
X392297Y181250D01*
D02*
G37*
G36*
X359297Y179000D02*
X358203D01*
X357192Y178581D01*
X356419Y177808D01*
X356000Y176797D01*
Y175703D01*
X356419Y174692D01*
X357192Y173919D01*
X358203Y173500D01*
X359297D01*
X360308Y173919D01*
X361081Y174692D01*
X361500Y175703D01*
Y176797D01*
X361081Y177808D01*
X360308Y178581D01*
X359297Y179000D01*
D02*
G37*
G36*
X28797Y177750D02*
X27703D01*
X26692Y177331D01*
X25919Y176558D01*
X25500Y175547D01*
Y174453D01*
X25919Y173442D01*
X26692Y172669D01*
X27703Y172250D01*
X28797D01*
X29808Y172669D01*
X30581Y173442D01*
X31000Y174453D01*
Y175547D01*
X30581Y176558D01*
X29808Y177331D01*
X28797Y177750D01*
D02*
G37*
G36*
X327547Y176500D02*
X326453D01*
X325442Y176081D01*
X324669Y175308D01*
X324250Y174297D01*
Y173203D01*
X324669Y172192D01*
X325442Y171419D01*
X326453Y171000D01*
X327547D01*
X328558Y171419D01*
X329331Y172192D01*
X329750Y173203D01*
Y174297D01*
X329331Y175308D01*
X328558Y176081D01*
X327547Y176500D01*
D02*
G37*
G36*
X343397Y171250D02*
X342303D01*
X341292Y170831D01*
X340519Y170058D01*
X340100Y169047D01*
Y167953D01*
X340519Y166942D01*
X341292Y166169D01*
X342303Y165750D01*
X343397D01*
X344408Y166169D01*
X345181Y166942D01*
X345600Y167953D01*
Y169047D01*
X345181Y170058D01*
X344408Y170831D01*
X343397Y171250D01*
D02*
G37*
G36*
X380047Y169250D02*
X378953D01*
X377942Y168831D01*
X377169Y168058D01*
X376750Y167047D01*
Y165953D01*
X377169Y164942D01*
X377942Y164169D01*
X378953Y163750D01*
X380047D01*
X381058Y164169D01*
X381831Y164942D01*
X382250Y165953D01*
Y167047D01*
X381831Y168058D01*
X381058Y168831D01*
X380047Y169250D01*
D02*
G37*
G36*
X327547Y166500D02*
X326453D01*
X325442Y166081D01*
X324669Y165308D01*
X324250Y164297D01*
Y163203D01*
X324669Y162192D01*
X325442Y161419D01*
X326453Y161000D01*
X327547D01*
X328558Y161419D01*
X329331Y162192D01*
X329750Y163203D01*
Y164297D01*
X329331Y165308D01*
X328558Y166081D01*
X327547Y166500D01*
D02*
G37*
G36*
X314797Y159000D02*
X313703D01*
X312692Y158581D01*
X311919Y157808D01*
X311673Y157215D01*
X310327D01*
X310081Y157808D01*
X309308Y158581D01*
X308297Y159000D01*
X307203D01*
X306192Y158581D01*
X305419Y157808D01*
X305000Y156797D01*
Y155703D01*
X305419Y154692D01*
X306192Y153919D01*
X307203Y153500D01*
X308297D01*
X309308Y153919D01*
X310081Y154692D01*
X310327Y155285D01*
X311673D01*
X311919Y154692D01*
X312692Y153919D01*
X313703Y153500D01*
X314797D01*
X315808Y153919D01*
X316581Y154692D01*
X317000Y155703D01*
Y156797D01*
X316581Y157808D01*
X315808Y158581D01*
X314797Y159000D01*
D02*
G37*
G36*
X278297Y161500D02*
X277203D01*
X276192Y161081D01*
X275419Y160308D01*
X275000Y159297D01*
Y158203D01*
X275419Y157192D01*
X276192Y156419D01*
X277203Y156000D01*
X278297D01*
X279308Y156419D01*
X280081Y157192D01*
X280500Y158203D01*
Y159297D01*
X280081Y160308D01*
X279308Y161081D01*
X278297Y161500D01*
D02*
G37*
G36*
X392297Y160250D02*
X391203D01*
X390192Y159831D01*
X389419Y159058D01*
X389000Y158047D01*
Y156953D01*
X389419Y155942D01*
X390192Y155169D01*
X391203Y154750D01*
X392297D01*
X393308Y155169D01*
X394081Y155942D01*
X394500Y156953D01*
Y158047D01*
X394081Y159058D01*
X393308Y159831D01*
X392297Y160250D01*
D02*
G37*
G36*
X295547Y159000D02*
X294453D01*
X293442Y158581D01*
X292669Y157808D01*
X292250Y156797D01*
Y155703D01*
X292669Y154692D01*
X293442Y153919D01*
X294453Y153500D01*
X295547D01*
X296558Y153919D01*
X297331Y154692D01*
X297750Y155703D01*
Y156797D01*
X297331Y157808D01*
X296558Y158581D01*
X295547Y159000D01*
D02*
G37*
G36*
X37797Y153750D02*
X36703D01*
X35692Y153331D01*
X34919Y152558D01*
X34500Y151547D01*
Y150453D01*
X34919Y149442D01*
X35692Y148669D01*
X36703Y148250D01*
X37797D01*
X38808Y148669D01*
X39581Y149442D01*
X40000Y150453D01*
Y151547D01*
X39581Y152558D01*
X38808Y153331D01*
X37797Y153750D01*
D02*
G37*
G36*
X359297Y149000D02*
X358203D01*
X357192Y148581D01*
X356419Y147808D01*
X356000Y146797D01*
Y145703D01*
X356419Y144692D01*
X357192Y143919D01*
X358203Y143500D01*
X359297D01*
X360308Y143919D01*
X361081Y144692D01*
X361500Y145703D01*
Y146797D01*
X361081Y147808D01*
X360308Y148581D01*
X359297Y149000D01*
D02*
G37*
G36*
X348284Y143390D02*
X348191Y143354D01*
X348095Y143377D01*
X347139Y143223D01*
X347054Y143171D01*
X346955Y143177D01*
X346040Y142859D01*
X345966Y142793D01*
X345867Y142781D01*
X345022Y142309D01*
X344960Y142231D01*
X344865Y142202D01*
X344116Y141589D01*
X344068Y141501D01*
X343980Y141456D01*
X343349Y140722D01*
X343318Y140627D01*
X343238Y140567D01*
X342746Y139734D01*
X342732Y139635D01*
X342664Y139562D01*
X342409Y138882D01*
X336857Y138882D01*
X336788Y138854D01*
X336716Y138873D01*
X335936Y138771D01*
X335871Y138733D01*
X335797Y138743D01*
X335037Y138539D01*
X334978Y138494D01*
X334903D01*
X334176Y138193D01*
X334124Y138140D01*
X334049Y138130D01*
X333368Y137737D01*
X333323Y137678D01*
X333251Y137658D01*
X332627Y137179D01*
X332589Y137115D01*
X332520Y137086D01*
X331964Y136530D01*
X331935Y136461D01*
X331871Y136424D01*
X331392Y135799D01*
X331372Y135727D01*
X331313Y135682D01*
X330920Y135001D01*
X330910Y134927D01*
X330857Y134874D01*
X330556Y134147D01*
Y134072D01*
X330511Y134013D01*
X330307Y133253D01*
X330317Y133179D01*
X330280Y133114D01*
X330177Y132335D01*
X330196Y132262D01*
X330168Y132193D01*
X330168Y131800D01*
X330168Y131407D01*
X330196Y131338D01*
X330177Y131265D01*
X330280Y130486D01*
X330317Y130421D01*
X330307Y130347D01*
X330511Y129587D01*
X330556Y129528D01*
Y129453D01*
X330857Y128726D01*
X330910Y128673D01*
X330920Y128599D01*
X331313Y127918D01*
X331372Y127873D01*
X331392Y127801D01*
X331871Y127177D01*
X331935Y127139D01*
X331964Y127070D01*
X332520Y126514D01*
X332589Y126485D01*
X332627Y126420D01*
X333251Y125942D01*
X333323Y125922D01*
X333368Y125863D01*
X334049Y125470D01*
X334123Y125460D01*
X334176Y125407D01*
X334903Y125106D01*
X334978D01*
X335037Y125061D01*
X335797Y124857D01*
X335871Y124867D01*
X335936Y124830D01*
X336716Y124727D01*
X336788Y124746D01*
X336857Y124718D01*
X337250Y124718D01*
X337250Y124718D01*
X348250Y124718D01*
X348643Y124718D01*
X348712Y124746D01*
X348785Y124727D01*
X349564Y124830D01*
X349629Y124867D01*
X349703Y124857D01*
X350463Y125061D01*
X350522Y125106D01*
X350597D01*
X351324Y125407D01*
X351376Y125460D01*
X351451Y125470D01*
X352132Y125863D01*
X352177Y125922D01*
X352249Y125942D01*
X352873Y126421D01*
X352911Y126485D01*
X352980Y126514D01*
X353536Y127070D01*
X353565Y127139D01*
X353629Y127177D01*
X354108Y127801D01*
X354128Y127873D01*
X354187Y127918D01*
X354580Y128599D01*
X354590Y128673D01*
X354643Y128726D01*
X354944Y129453D01*
Y129528D01*
X354989Y129587D01*
X355193Y130347D01*
X355183Y130421D01*
X355220Y130486D01*
X355323Y131265D01*
X355304Y131338D01*
X355332Y131407D01*
X355332Y131800D01*
X355332Y131800D01*
X355332Y138000D01*
X355285Y138114D01*
X355307Y138236D01*
X355205Y138690D01*
X355150Y138769D01*
X355150Y138864D01*
X354798Y139726D01*
X354730Y139794D01*
X354715Y139889D01*
X354222Y140679D01*
X354144Y140735D01*
X354113Y140825D01*
X353494Y141521D01*
X353408Y141563D01*
X353362Y141647D01*
X352635Y142229D01*
X352543Y142256D01*
X352484Y142331D01*
X351670Y142783D01*
X351575Y142794D01*
X351503Y142858D01*
X350625Y143166D01*
X350529Y143161D01*
X350448Y143212D01*
X349530Y143369D01*
X349437Y143347D01*
X349348Y143384D01*
X348884Y143384D01*
X348868Y143384D01*
X348863Y143382D01*
X348859Y143384D01*
X348826Y143384D01*
X348823Y143383D01*
X348820Y143384D01*
X348787Y143383D01*
X348784Y143382D01*
X348780Y143383D01*
X348747Y143383D01*
X348747Y143383D01*
X348284Y143390D01*
D02*
G37*
G36*
X363546Y143000D02*
X361954D01*
X360484Y142391D01*
X359359Y141266D01*
X358750Y139796D01*
Y138204D01*
X359359Y136734D01*
X360484Y135609D01*
X361954Y135000D01*
X363546D01*
X365016Y135609D01*
X366141Y136734D01*
X366750Y138204D01*
Y139796D01*
X366141Y141266D01*
X365016Y142391D01*
X363546Y143000D01*
D02*
G37*
G36*
X275797Y127500D02*
X274703D01*
X273692Y127081D01*
X272919Y126308D01*
X272712Y125810D01*
X271338D01*
X271131Y126308D01*
X270358Y127081D01*
X269347Y127500D01*
X268253D01*
X267242Y127081D01*
X266469Y126308D01*
X266173Y125595D01*
X264877D01*
X264581Y126308D01*
X263808Y127081D01*
X262797Y127500D01*
X261703D01*
X260692Y127081D01*
X259919Y126308D01*
X259500Y125297D01*
Y124203D01*
X259919Y123192D01*
X260692Y122419D01*
X261703Y122000D01*
X262797D01*
X263808Y122419D01*
X264581Y123192D01*
X264877Y123905D01*
X266173D01*
X266469Y123192D01*
X267242Y122419D01*
X268253Y122000D01*
X269347D01*
X270358Y122419D01*
X271131Y123192D01*
X271338Y123690D01*
X272712D01*
X272919Y123192D01*
X273692Y122419D01*
X274703Y122000D01*
X275797D01*
X276808Y122419D01*
X277581Y123192D01*
X278000Y124203D01*
Y125297D01*
X277581Y126308D01*
X276808Y127081D01*
X275797Y127500D01*
D02*
G37*
G36*
X216850Y133350D02*
X207750D01*
Y124250D01*
X216850D01*
Y133350D01*
D02*
G37*
G36*
X205250D02*
X196150D01*
Y124250D01*
X205250D01*
Y133350D01*
D02*
G37*
G36*
X302047Y127500D02*
X300953D01*
X299942Y127081D01*
X299169Y126308D01*
X298750Y125297D01*
Y124203D01*
X299169Y123192D01*
X299942Y122419D01*
X300953Y122000D01*
X302047D01*
X303058Y122419D01*
X303831Y123192D01*
X304250Y124203D01*
Y125297D01*
X303831Y126308D01*
X303058Y127081D01*
X302047Y127500D01*
D02*
G37*
G36*
X243047D02*
X241953D01*
X240942Y127081D01*
X240169Y126308D01*
X239750Y125297D01*
Y124203D01*
X240169Y123192D01*
X240942Y122419D01*
X241953Y122000D01*
X243047D01*
X244058Y122419D01*
X244831Y123192D01*
X245250Y124203D01*
Y125297D01*
X244831Y126308D01*
X244058Y127081D01*
X243047Y127500D01*
D02*
G37*
G36*
X182265Y131850D02*
X179935D01*
X177684Y131247D01*
X175666Y130082D01*
X174018Y128434D01*
X172853Y126416D01*
X172250Y124165D01*
Y121835D01*
X172853Y119584D01*
X174018Y117566D01*
X175666Y115918D01*
X177684Y114753D01*
X179935Y114150D01*
X182265D01*
X184516Y114753D01*
X186534Y115918D01*
X188182Y117566D01*
X189347Y119584D01*
X189950Y121835D01*
Y124165D01*
X189347Y126416D01*
X188182Y128434D01*
X186534Y130082D01*
X184516Y131247D01*
X182265Y131850D01*
D02*
G37*
G36*
X156865D02*
X154535D01*
X152284Y131247D01*
X150266Y130082D01*
X148618Y128434D01*
X147453Y126416D01*
X146850Y124165D01*
Y121835D01*
X147453Y119584D01*
X148618Y117566D01*
X150266Y115918D01*
X152284Y114753D01*
X154535Y114150D01*
X156865D01*
X159116Y114753D01*
X161134Y115918D01*
X162782Y117566D01*
X163947Y119584D01*
X164550Y121835D01*
Y124165D01*
X163947Y126416D01*
X162782Y128434D01*
X161134Y130082D01*
X159116Y131247D01*
X156865Y131850D01*
D02*
G37*
G36*
X131465D02*
X129135D01*
X126884Y131247D01*
X124866Y130082D01*
X123218Y128434D01*
X122053Y126416D01*
X121450Y124165D01*
Y121835D01*
X122053Y119584D01*
X123218Y117566D01*
X124866Y115918D01*
X126884Y114753D01*
X129135Y114150D01*
X131465D01*
X133716Y114753D01*
X135734Y115918D01*
X137382Y117566D01*
X138547Y119584D01*
X139150Y121835D01*
Y124165D01*
X138547Y126416D01*
X137382Y128434D01*
X135734Y130082D01*
X133716Y131247D01*
X131465Y131850D01*
D02*
G37*
G36*
X106065D02*
X103735D01*
X101484Y131247D01*
X99466Y130082D01*
X97818Y128434D01*
X96653Y126416D01*
X96050Y124165D01*
Y121835D01*
X96653Y119584D01*
X97818Y117566D01*
X99466Y115918D01*
X101484Y114753D01*
X103735Y114150D01*
X106065D01*
X108316Y114753D01*
X110334Y115918D01*
X111982Y117566D01*
X113147Y119584D01*
X113750Y121835D01*
Y124165D01*
X113147Y126416D01*
X111982Y128434D01*
X110334Y130082D01*
X108316Y131247D01*
X106065Y131850D01*
D02*
G37*
G36*
X80665D02*
X78335D01*
X76084Y131247D01*
X74066Y130082D01*
X72418Y128434D01*
X71253Y126416D01*
X70650Y124165D01*
Y121835D01*
X71253Y119584D01*
X72418Y117566D01*
X74066Y115918D01*
X76084Y114753D01*
X78335Y114150D01*
X80665D01*
X82916Y114753D01*
X84934Y115918D01*
X86582Y117566D01*
X87747Y119584D01*
X88350Y121835D01*
Y124165D01*
X87747Y126416D01*
X86582Y128434D01*
X84934Y130082D01*
X82916Y131247D01*
X80665Y131850D01*
D02*
G37*
G36*
X216850Y121750D02*
X207750D01*
Y112650D01*
X216850D01*
Y121750D01*
D02*
G37*
G36*
X205250D02*
X196150D01*
Y112650D01*
X205250D01*
Y121750D01*
D02*
G37*
G36*
X38547Y88250D02*
X37453D01*
X36442Y87831D01*
X35669Y87058D01*
X35250Y86047D01*
Y84953D01*
X35669Y83942D01*
X36442Y83169D01*
X37453Y82750D01*
X38547D01*
X39558Y83169D01*
X40331Y83942D01*
X40750Y84953D01*
Y86047D01*
X40331Y87058D01*
X39558Y87831D01*
X38547Y88250D01*
D02*
G37*
G36*
X352340Y79490D02*
X344100D01*
Y71250D01*
X352340D01*
Y79490D01*
D02*
G37*
G36*
X341600D02*
X333360D01*
Y71250D01*
X341600D01*
Y79490D01*
D02*
G37*
G36*
X318502Y77990D02*
X316398D01*
X314366Y77446D01*
X312544Y76394D01*
X311056Y74906D01*
X310005Y73084D01*
X309460Y71052D01*
Y68948D01*
X310005Y66916D01*
X311056Y65094D01*
X312544Y63606D01*
X314366Y62554D01*
X316398Y62010D01*
X318502D01*
X320534Y62554D01*
X322356Y63606D01*
X323844Y65094D01*
X324896Y66916D01*
X325440Y68948D01*
Y71052D01*
X324896Y73084D01*
X323844Y74906D01*
X322356Y76394D01*
X320534Y77446D01*
X318502Y77990D01*
D02*
G37*
G36*
X293102D02*
X290998D01*
X288966Y77446D01*
X287144Y76394D01*
X285656Y74906D01*
X284604Y73084D01*
X284060Y71052D01*
Y68948D01*
X284604Y66916D01*
X285656Y65094D01*
X287144Y63606D01*
X288966Y62554D01*
X290998Y62010D01*
X293102D01*
X295134Y62554D01*
X296956Y63606D01*
X298444Y65094D01*
X299496Y66916D01*
X300040Y68948D01*
Y71052D01*
X299496Y73084D01*
X298444Y74906D01*
X296956Y76394D01*
X295134Y77446D01*
X293102Y77990D01*
D02*
G37*
G36*
X267702D02*
X265598D01*
X263566Y77446D01*
X261744Y76394D01*
X260256Y74906D01*
X259205Y73084D01*
X258660Y71052D01*
Y68948D01*
X259205Y66916D01*
X260256Y65094D01*
X261744Y63606D01*
X263566Y62554D01*
X265598Y62010D01*
X267702D01*
X269734Y62554D01*
X271556Y63606D01*
X273044Y65094D01*
X274095Y66916D01*
X274640Y68948D01*
Y71052D01*
X274095Y73084D01*
X273044Y74906D01*
X271556Y76394D01*
X269734Y77446D01*
X267702Y77990D01*
D02*
G37*
G36*
X242302D02*
X240198D01*
X238166Y77446D01*
X236344Y76394D01*
X234856Y74906D01*
X233804Y73084D01*
X233260Y71052D01*
Y68948D01*
X233804Y66916D01*
X234856Y65094D01*
X236344Y63606D01*
X238166Y62554D01*
X240198Y62010D01*
X242302D01*
X244334Y62554D01*
X246156Y63606D01*
X247644Y65094D01*
X248696Y66916D01*
X249240Y68948D01*
Y71052D01*
X248696Y73084D01*
X247644Y74906D01*
X246156Y76394D01*
X244334Y77446D01*
X242302Y77990D01*
D02*
G37*
G36*
X216902D02*
X214798D01*
X212766Y77446D01*
X210944Y76394D01*
X209456Y74906D01*
X208405Y73084D01*
X207860Y71052D01*
Y68948D01*
X208405Y66916D01*
X209456Y65094D01*
X210944Y63606D01*
X212766Y62554D01*
X214798Y62010D01*
X216902D01*
X218934Y62554D01*
X220756Y63606D01*
X222244Y65094D01*
X223295Y66916D01*
X223840Y68948D01*
Y71052D01*
X223295Y73084D01*
X222244Y74906D01*
X220756Y76394D01*
X218934Y77446D01*
X216902Y77990D01*
D02*
G37*
G36*
X191502D02*
X189398D01*
X187366Y77446D01*
X185544Y76394D01*
X184056Y74906D01*
X183004Y73084D01*
X182460Y71052D01*
Y68948D01*
X183004Y66916D01*
X184056Y65094D01*
X185544Y63606D01*
X187366Y62554D01*
X189398Y62010D01*
X191502D01*
X193534Y62554D01*
X195356Y63606D01*
X196844Y65094D01*
X197896Y66916D01*
X198440Y68948D01*
Y71052D01*
X197896Y73084D01*
X196844Y74906D01*
X195356Y76394D01*
X193534Y77446D01*
X191502Y77990D01*
D02*
G37*
G36*
X166102D02*
X163998D01*
X161966Y77446D01*
X160144Y76394D01*
X158656Y74906D01*
X157605Y73084D01*
X157060Y71052D01*
Y68948D01*
X157605Y66916D01*
X158656Y65094D01*
X160144Y63606D01*
X161966Y62554D01*
X163998Y62010D01*
X166102D01*
X168134Y62554D01*
X169956Y63606D01*
X171444Y65094D01*
X172495Y66916D01*
X173040Y68948D01*
Y71052D01*
X172495Y73084D01*
X171444Y74906D01*
X169956Y76394D01*
X168134Y77446D01*
X166102Y77990D01*
D02*
G37*
G36*
X140702D02*
X138598D01*
X136566Y77446D01*
X134744Y76394D01*
X133256Y74906D01*
X132205Y73084D01*
X131660Y71052D01*
Y68948D01*
X132205Y66916D01*
X133256Y65094D01*
X134744Y63606D01*
X136566Y62554D01*
X138598Y62010D01*
X140702D01*
X142734Y62554D01*
X144556Y63606D01*
X146044Y65094D01*
X147095Y66916D01*
X147640Y68948D01*
Y71052D01*
X147095Y73084D01*
X146044Y74906D01*
X144556Y76394D01*
X142734Y77446D01*
X140702Y77990D01*
D02*
G37*
G36*
X115302D02*
X113198D01*
X111166Y77446D01*
X109344Y76394D01*
X107856Y74906D01*
X106805Y73084D01*
X106260Y71052D01*
Y68948D01*
X106805Y66916D01*
X107856Y65094D01*
X109344Y63606D01*
X111166Y62554D01*
X113198Y62010D01*
X115302D01*
X117334Y62554D01*
X119156Y63606D01*
X120644Y65094D01*
X121695Y66916D01*
X122240Y68948D01*
Y71052D01*
X121695Y73084D01*
X120644Y74906D01*
X119156Y76394D01*
X117334Y77446D01*
X115302Y77990D01*
D02*
G37*
G36*
X352340Y68750D02*
X344100D01*
Y60510D01*
X352340D01*
Y68750D01*
D02*
G37*
G36*
X341600D02*
X333360D01*
Y60510D01*
X341600D01*
Y68750D01*
D02*
G37*
G36*
X344100Y54090D02*
Y45850D01*
X352340D01*
X351693Y48263D01*
X350444Y50427D01*
X348677Y52194D01*
X346513Y53443D01*
X344100Y54090D01*
D02*
G37*
G36*
X341600D02*
X339187Y53443D01*
X337023Y52194D01*
X335256Y50427D01*
X334007Y48263D01*
X333360Y45850D01*
X341600D01*
Y54090D01*
D02*
G37*
G36*
X318502Y52590D02*
X316398D01*
X314366Y52045D01*
X312544Y50994D01*
X311056Y49506D01*
X310005Y47684D01*
X309460Y45652D01*
Y43548D01*
X310005Y41516D01*
X311056Y39694D01*
X312544Y38206D01*
X314366Y37155D01*
X316398Y36610D01*
X318502D01*
X320534Y37155D01*
X322356Y38206D01*
X323844Y39694D01*
X324896Y41516D01*
X325440Y43548D01*
Y45652D01*
X324896Y47684D01*
X323844Y49506D01*
X322356Y50994D01*
X320534Y52045D01*
X318502Y52590D01*
D02*
G37*
G36*
X293102D02*
X290998D01*
X288966Y52045D01*
X287144Y50994D01*
X285656Y49506D01*
X284604Y47684D01*
X284060Y45652D01*
Y43548D01*
X284604Y41516D01*
X285656Y39694D01*
X287144Y38206D01*
X288966Y37155D01*
X290998Y36610D01*
X293102D01*
X295134Y37155D01*
X296956Y38206D01*
X298444Y39694D01*
X299496Y41516D01*
X300040Y43548D01*
Y45652D01*
X299496Y47684D01*
X298444Y49506D01*
X296956Y50994D01*
X295134Y52045D01*
X293102Y52590D01*
D02*
G37*
G36*
X267702D02*
X265598D01*
X263566Y52045D01*
X261744Y50994D01*
X260256Y49506D01*
X259205Y47684D01*
X258660Y45652D01*
Y43548D01*
X259205Y41516D01*
X260256Y39694D01*
X261744Y38206D01*
X263566Y37155D01*
X265598Y36610D01*
X267702D01*
X269734Y37155D01*
X271556Y38206D01*
X273044Y39694D01*
X274095Y41516D01*
X274640Y43548D01*
Y45652D01*
X274095Y47684D01*
X273044Y49506D01*
X271556Y50994D01*
X269734Y52045D01*
X267702Y52590D01*
D02*
G37*
G36*
X242302D02*
X240198D01*
X238166Y52045D01*
X236344Y50994D01*
X234856Y49506D01*
X233804Y47684D01*
X233260Y45652D01*
Y43548D01*
X233804Y41516D01*
X234856Y39694D01*
X236344Y38206D01*
X238166Y37155D01*
X240198Y36610D01*
X242302D01*
X244334Y37155D01*
X246156Y38206D01*
X247644Y39694D01*
X248696Y41516D01*
X249240Y43548D01*
Y45652D01*
X248696Y47684D01*
X247644Y49506D01*
X246156Y50994D01*
X244334Y52045D01*
X242302Y52590D01*
D02*
G37*
G36*
X216902D02*
X214798D01*
X212766Y52045D01*
X210944Y50994D01*
X209456Y49506D01*
X208405Y47684D01*
X207860Y45652D01*
Y43548D01*
X208405Y41516D01*
X209456Y39694D01*
X210944Y38206D01*
X212766Y37155D01*
X214798Y36610D01*
X216902D01*
X218934Y37155D01*
X220756Y38206D01*
X222244Y39694D01*
X223295Y41516D01*
X223840Y43548D01*
Y45652D01*
X223295Y47684D01*
X222244Y49506D01*
X220756Y50994D01*
X218934Y52045D01*
X216902Y52590D01*
D02*
G37*
G36*
X191502D02*
X189398D01*
X187366Y52045D01*
X185544Y50994D01*
X184056Y49506D01*
X183004Y47684D01*
X182460Y45652D01*
Y43548D01*
X183004Y41516D01*
X184056Y39694D01*
X185544Y38206D01*
X187366Y37155D01*
X189398Y36610D01*
X191502D01*
X193534Y37155D01*
X195356Y38206D01*
X196844Y39694D01*
X197896Y41516D01*
X198440Y43548D01*
Y45652D01*
X197896Y47684D01*
X196844Y49506D01*
X195356Y50994D01*
X193534Y52045D01*
X191502Y52590D01*
D02*
G37*
G36*
X166102D02*
X163998D01*
X161966Y52045D01*
X160144Y50994D01*
X158656Y49506D01*
X157605Y47684D01*
X157060Y45652D01*
Y43548D01*
X157605Y41516D01*
X158656Y39694D01*
X160144Y38206D01*
X161966Y37155D01*
X163998Y36610D01*
X166102D01*
X168134Y37155D01*
X169956Y38206D01*
X171444Y39694D01*
X172495Y41516D01*
X173040Y43548D01*
Y45652D01*
X172495Y47684D01*
X171444Y49506D01*
X169956Y50994D01*
X168134Y52045D01*
X166102Y52590D01*
D02*
G37*
G36*
X140702D02*
X138598D01*
X136566Y52045D01*
X134744Y50994D01*
X133256Y49506D01*
X132205Y47684D01*
X131660Y45652D01*
Y43548D01*
X132205Y41516D01*
X133256Y39694D01*
X134744Y38206D01*
X136566Y37155D01*
X138598Y36610D01*
X140702D01*
X142734Y37155D01*
X144556Y38206D01*
X146044Y39694D01*
X147095Y41516D01*
X147640Y43548D01*
Y45652D01*
X147095Y47684D01*
X146044Y49506D01*
X144556Y50994D01*
X142734Y52045D01*
X140702Y52590D01*
D02*
G37*
G36*
X115302D02*
X113198D01*
X111166Y52045D01*
X109344Y50994D01*
X107856Y49506D01*
X106805Y47684D01*
X106260Y45652D01*
Y43548D01*
X106805Y41516D01*
X107856Y39694D01*
X109344Y38206D01*
X111166Y37155D01*
X113198Y36610D01*
X115302D01*
X117334Y37155D01*
X119156Y38206D01*
X120644Y39694D01*
X121695Y41516D01*
X122240Y43548D01*
Y45652D01*
X121695Y47684D01*
X120644Y49506D01*
X119156Y50994D01*
X117334Y52045D01*
X115302Y52590D01*
D02*
G37*
G36*
X352340Y43350D02*
X344100D01*
Y35110D01*
X346513Y35757D01*
X348677Y37006D01*
X350444Y38773D01*
X351693Y40937D01*
X352340Y43350D01*
D02*
G37*
G36*
X341600D02*
X333360D01*
X334007Y40937D01*
X335256Y38773D01*
X337023Y37006D01*
X339187Y35757D01*
X341600Y35110D01*
Y43350D01*
D02*
G37*
%LPD*%
G36*
G01X354250Y131800D02*
G01X354250Y138000D01*
G03X348882Y142302I-5367J-1198D01*
G03X348750Y142300I-3J-5329D01*
G03X343250Y137800I-92J-5499D01*
G01X337250Y137800D01*
G03X331250Y131800I0J-6000D01*
G03X337250Y125800I6000J-0D01*
G01X348250D01*
G03X354250Y131800I0J6000D01*
D02*
G37*
G36*
G01X348883Y207698D02*
G03X354250Y212000I0J5499D01*
G01X354250Y218200D01*
G03X348250Y224200I-6000J0D01*
G01X337250D01*
G03X337250Y212200I0J-6000D01*
G01X343250D01*
G03X348750Y207700I5408J999D01*
G03X348883Y207698I133J5514D01*
D02*
G37*
D24*
X345000Y305400D02*
D03*
X342850Y70000D02*
D03*
D25*
X345000Y280000D02*
D03*
X319600Y305400D02*
D03*
Y280000D02*
D03*
X294200Y305400D02*
D03*
Y280000D02*
D03*
X268800Y305400D02*
D03*
Y280000D02*
D03*
X243400Y305400D02*
D03*
Y280000D02*
D03*
X218000Y305400D02*
D03*
Y280000D02*
D03*
X192600Y305400D02*
D03*
Y280000D02*
D03*
X167200Y305400D02*
D03*
Y280000D02*
D03*
X141800Y305400D02*
D03*
Y280000D02*
D03*
X116400Y305400D02*
D03*
Y280000D02*
D03*
X342850Y44600D02*
D03*
X317450Y70000D02*
D03*
Y44600D02*
D03*
X292050Y70000D02*
D03*
Y44600D02*
D03*
X266650Y70000D02*
D03*
Y44600D02*
D03*
X241250Y70000D02*
D03*
Y44600D02*
D03*
X215850Y70000D02*
D03*
Y44600D02*
D03*
X190450Y70000D02*
D03*
Y44600D02*
D03*
X165050Y70000D02*
D03*
Y44600D02*
D03*
X139650Y70000D02*
D03*
Y44600D02*
D03*
X114250Y70000D02*
D03*
Y44600D02*
D03*
D26*
X79500Y123000D02*
D03*
X104900D02*
D03*
X130300D02*
D03*
X155700D02*
D03*
X181100D02*
D03*
X79500Y220000D02*
D03*
X104900D02*
D03*
X130300D02*
D03*
X155700D02*
D03*
X181100D02*
D03*
D27*
X206500Y123000D02*
D03*
Y220000D02*
D03*
D28*
X362750Y139000D02*
D03*
D29*
X362100Y211000D02*
D03*
D30*
X393250Y218200D02*
D03*
Y131800D02*
D03*
D31*
X342750D02*
D03*
D32*
X348850Y214950D02*
D03*
D33*
X37250Y151000D02*
D03*
X38000Y85500D02*
D03*
X358750Y201250D02*
D03*
X358750Y146250D02*
D03*
X275250Y124750D02*
D03*
X391750Y157500D02*
D03*
Y190500D02*
D03*
Y178500D02*
D03*
X379500Y166500D02*
D03*
X327000Y188750D02*
D03*
Y163750D02*
D03*
X342850Y168500D02*
D03*
X358750Y176250D02*
D03*
X327000Y173750D02*
D03*
X36750Y236750D02*
D03*
X307750Y156250D02*
D03*
X314250D02*
D03*
X295000D02*
D03*
X301500Y124750D02*
D03*
X277750Y158750D02*
D03*
X268800Y124750D02*
D03*
X262250D02*
D03*
X242500D02*
D03*
X268800Y193750D02*
D03*
X249250Y226750D02*
D03*
X112250Y160000D02*
D03*
X138200Y160200D02*
D03*
X122250Y181900D02*
D03*
X97750D02*
D03*
X28250Y190000D02*
D03*
X36250Y204500D02*
D03*
X28250Y175000D02*
D03*
M02*
