G04*
G04 #@! TF.GenerationSoftware,Altium Limited,Altium Designer,26.4.1 (12)*
G04*
G04 Layer_Color=128*
%FSLAX44Y44*%
%MOMM*%
G71*
G04*
G04 #@! TF.SameCoordinates,8F52405A-A2E0-4153-8A60-8C4F9B0F4C2B*
G04*
G04*
G04 #@! TF.FilePolarity,Positive*
G04*
G01*
G75*
%ADD11R,0.4000X0.6000*%
%ADD16R,0.4000X0.5500*%
%ADD25R,0.2500X0.3000*%
%ADD26R,0.5500X0.4000*%
%ADD27R,0.2000X0.3000*%
%ADD29R,0.8000X0.3500*%
%ADD30R,2.6000X0.6000*%
%ADD31R,0.7500X0.3500*%
%ADD32O,2.0000X1.5000*%
%ADD33R,2.3500X2.3500*%
%ADD34O,0.8000X0.2000*%
%ADD35O,0.2000X0.8000*%
D11*
X380630Y1026790D02*
D03*
X390630D02*
D03*
D16*
X380530Y976040D02*
D03*
X390730D02*
D03*
Y1018040D02*
D03*
X380530D02*
D03*
X390730Y984395D02*
D03*
X380530D02*
D03*
D25*
X806749Y1099750D02*
D03*
Y1094750D02*
D03*
D26*
X797750Y1090750D02*
D03*
X799500Y1097250D02*
D03*
X797750Y1103750D02*
D03*
X812749D02*
D03*
Y1097250D02*
D03*
Y1089750D02*
D03*
D27*
X806749D02*
D03*
Y1104750D02*
D03*
D29*
X504040Y1072810D02*
D03*
Y1117810D02*
D03*
Y1112810D02*
D03*
Y1107810D02*
D03*
Y1102810D02*
D03*
Y1097810D02*
D03*
Y1092810D02*
D03*
Y1087810D02*
D03*
Y1082810D02*
D03*
Y1077810D02*
D03*
X404150Y1113450D02*
D03*
Y1108450D02*
D03*
Y1103450D02*
D03*
Y1098450D02*
D03*
Y1093450D02*
D03*
Y1088450D02*
D03*
Y1083450D02*
D03*
Y1078450D02*
D03*
Y1073450D02*
D03*
Y1118450D02*
D03*
D30*
X481040Y1126810D02*
D03*
Y1063810D02*
D03*
X427150Y1127450D02*
D03*
Y1064450D02*
D03*
D31*
X585540Y1072560D02*
D03*
Y1080560D02*
D03*
Y1088560D02*
D03*
Y1096560D02*
D03*
Y1104560D02*
D03*
Y1112560D02*
D03*
Y1120560D02*
D03*
X561540D02*
D03*
Y1112560D02*
D03*
Y1104560D02*
D03*
Y1096560D02*
D03*
Y1088560D02*
D03*
Y1080560D02*
D03*
Y1072560D02*
D03*
D32*
X384150Y1106200D02*
D03*
Y1086200D02*
D03*
D33*
X419630Y1002040D02*
D03*
D34*
X439630Y990040D02*
D03*
Y994040D02*
D03*
Y998040D02*
D03*
Y1002040D02*
D03*
Y1006040D02*
D03*
Y1010040D02*
D03*
Y1014040D02*
D03*
X399630D02*
D03*
Y1010040D02*
D03*
Y1006040D02*
D03*
Y1002040D02*
D03*
Y998040D02*
D03*
Y994040D02*
D03*
Y990040D02*
D03*
D35*
X431630Y1022040D02*
D03*
X427630D02*
D03*
X423630D02*
D03*
X419630D02*
D03*
X415630D02*
D03*
X411630D02*
D03*
X407630D02*
D03*
Y982040D02*
D03*
X411630D02*
D03*
X415630D02*
D03*
X419630D02*
D03*
X423630D02*
D03*
X427630D02*
D03*
X431630D02*
D03*
M02*
