G04*
G04 #@! TF.GenerationSoftware,Altium Limited,Altium Designer,26.4.1 (12)*
G04*
G04 Layer_Physical_Order=4*
G04 Layer_Color=16711680*
%FSLAX44Y44*%
%MOMM*%
G71*
G04*
G04 #@! TF.SameCoordinates,8F52405A-A2E0-4153-8A60-8C4F9B0F4C2B*
G04*
G04*
G04 #@! TF.FilePolarity,Positive*
G04*
G01*
G75*
%ADD11R,0.4000X0.6000*%
%ADD12C,0.1000*%
%ADD13C,0.3000*%
%ADD14C,0.2000*%
%ADD16R,0.4000X0.5500*%
%ADD17C,0.2500*%
%ADD19C,0.1500*%
%ADD21C,0.0762*%
G04:AMPARAMS|DCode=22|XSize=0.2mm|YSize=1.2mm|CornerRadius=0.05mm|HoleSize=0mm|Usage=FLASHONLY|Rotation=90.000|XOffset=0mm|YOffset=0mm|HoleType=Round|Shape=RoundedRectangle|*
%AMROUNDEDRECTD22*
21,1,0.2000,1.1000,0,0,90.0*
21,1,0.1000,1.2000,0,0,90.0*
1,1,0.1000,0.5500,0.0500*
1,1,0.1000,0.5500,-0.0500*
1,1,0.1000,-0.5500,-0.0500*
1,1,0.1000,-0.5500,0.0500*
%
%ADD22ROUNDEDRECTD22*%
G04:AMPARAMS|DCode=23|XSize=0.2mm|YSize=1.2mm|CornerRadius=0.05mm|HoleSize=0mm|Usage=FLASHONLY|Rotation=180.000|XOffset=0mm|YOffset=0mm|HoleType=Round|Shape=RoundedRectangle|*
%AMROUNDEDRECTD23*
21,1,0.2000,1.1000,0,0,180.0*
21,1,0.1000,1.2000,0,0,180.0*
1,1,0.1000,-0.0500,0.5500*
1,1,0.1000,0.0500,0.5500*
1,1,0.1000,0.0500,-0.5500*
1,1,0.1000,-0.0500,-0.5500*
%
%ADD23ROUNDEDRECTD23*%
%ADD24C,0.3500*%
%ADD25R,0.2500X0.3000*%
%ADD26R,0.5500X0.4000*%
%ADD27R,0.2000X0.3000*%
%ADD28C,0.0770*%
%ADD29R,0.8000X0.3500*%
%ADD30R,2.6000X0.6000*%
%ADD31R,0.7500X0.3500*%
%ADD32O,2.0000X1.5000*%
%ADD33R,2.3500X2.3500*%
%ADD34O,0.8000X0.2000*%
%ADD35O,0.2000X0.8000*%
G36*
X505324Y1124148D02*
X505040Y1122929D01*
X503040Y1123285D01*
X502899Y1124498D01*
X505324Y1124148D01*
D02*
G37*
G36*
X506040Y1119529D02*
X502040D01*
X503040Y1121529D01*
X505040D01*
X506040Y1119529D01*
D02*
G37*
G36*
X437900Y1119475D02*
X436664Y1119700D01*
Y1121700D01*
X437900Y1121925D01*
Y1119475D01*
D02*
G37*
G36*
X410120Y1119450D02*
Y1117450D01*
X408120Y1116730D01*
Y1120170D01*
X410120Y1119450D01*
D02*
G37*
G36*
X409119Y1114500D02*
Y1113500D01*
X408120Y1113000D01*
Y1115000D01*
X409119Y1114500D01*
D02*
G37*
G36*
X496781Y1113984D02*
X495542Y1112393D01*
X494484Y1113071D01*
X496033Y1114969D01*
X496781Y1113984D01*
D02*
G37*
G36*
X500070Y1111090D02*
X498070Y1111810D01*
Y1113810D01*
X500070Y1114529D01*
Y1111090D01*
D02*
G37*
G36*
X591759Y1113810D02*
Y1111310D01*
X589259Y1110840D01*
Y1114279D01*
X591759Y1113810D01*
D02*
G37*
G36*
X430625Y1109950D02*
X428175D01*
X428900Y1111427D01*
X429900D01*
X430625Y1109950D01*
D02*
G37*
G36*
X408900Y1108950D02*
Y1107950D01*
X408120Y1107670D01*
Y1109230D01*
X408900Y1108950D01*
D02*
G37*
G36*
X479957Y1108558D02*
X478366Y1107319D01*
X477596Y1108061D01*
X479242Y1109404D01*
X479957Y1108558D01*
D02*
G37*
G36*
X586900Y1108560D02*
X588040Y1106279D01*
X583040D01*
X584180Y1108560D01*
X583040Y1110840D01*
X588040D01*
X586900Y1108560D01*
D02*
G37*
G36*
X500070Y1106090D02*
X498070Y1106810D01*
Y1108810D01*
X500070Y1109529D01*
Y1106090D01*
D02*
G37*
G36*
X414400Y1105973D02*
X413400D01*
X412675Y1107450D01*
X415125D01*
X414400Y1105973D01*
D02*
G37*
G36*
X807596Y1106480D02*
X807719Y1106219D01*
X807468D01*
X807249Y1105773D01*
X806249D01*
X806030Y1106219D01*
X805780D01*
X805902Y1106480D01*
X805524Y1107250D01*
X807974D01*
X807596Y1106480D01*
D02*
G37*
G36*
X813484Y1106251D02*
X813749Y1105720D01*
X811749D01*
X812015Y1106251D01*
X811524Y1107250D01*
X813974D01*
X813484Y1106251D01*
D02*
G37*
G36*
X409119Y1103950D02*
Y1102950D01*
X408120Y1102450D01*
Y1104450D01*
X409119Y1103950D01*
D02*
G37*
G36*
X499168Y1103609D02*
X500070Y1104060D01*
Y1102060D01*
X499168Y1102511D01*
X497790Y1101835D01*
Y1104285D01*
X499168Y1103609D01*
D02*
G37*
G36*
X394274Y1101554D02*
X393404Y1100303D01*
X391838Y1100808D01*
X393550Y1103339D01*
X394274Y1101554D01*
D02*
G37*
G36*
X805530Y1099895D02*
X804760Y1100280D01*
Y1101050D01*
X805530Y1101219D01*
Y1099895D01*
D02*
G37*
G36*
X802000Y1099220D02*
X800496D01*
X800500Y1098781D01*
X797500D01*
X797281Y1099220D01*
X796780D01*
Y1095281D01*
X793781Y1095250D01*
Y1098250D01*
X796780Y1099220D01*
X796943Y1099895D01*
X796000Y1101780D01*
X797395D01*
X797500Y1102219D01*
X800500D01*
X802000Y1099220D01*
D02*
G37*
G36*
X396459Y1100154D02*
X395147Y1098084D01*
X394372Y1099335D01*
X395166Y1100662D01*
X396459Y1100154D01*
D02*
G37*
G36*
X409119Y1098950D02*
Y1097950D01*
X408120Y1097450D01*
Y1099450D01*
X409119Y1098950D01*
D02*
G37*
G36*
X412838Y1097309D02*
X411269Y1097950D01*
X411118Y1098950D01*
X412488Y1099734D01*
X412838Y1097309D01*
D02*
G37*
G36*
X428150Y1097225D02*
X426673Y1097950D01*
Y1098950D01*
X428150Y1099675D01*
Y1097225D01*
D02*
G37*
G36*
X499168Y1098359D02*
X500070Y1098810D01*
Y1096810D01*
X499168Y1097261D01*
X497790Y1096585D01*
Y1099035D01*
X499168Y1098359D01*
D02*
G37*
G36*
X816469Y1097750D02*
Y1096750D01*
X815469Y1096250D01*
Y1098250D01*
X816469Y1097750D01*
D02*
G37*
G36*
X419132Y1096700D02*
X417575Y1096168D01*
X416868Y1096875D01*
X417400Y1098432D01*
X419132Y1096700D01*
D02*
G37*
G36*
X819999Y1096025D02*
X818522Y1096750D01*
Y1097750D01*
X819999Y1098475D01*
Y1096025D01*
D02*
G37*
G36*
X566935Y1097781D02*
X567706Y1097943D01*
X567881Y1095499D01*
X567099Y1095617D01*
X565259Y1094840D01*
Y1098279D01*
X566935Y1097781D01*
D02*
G37*
G36*
X571505Y1095759D02*
X570091Y1094345D01*
X569058Y1095060D01*
X570790Y1096792D01*
X571505Y1095759D01*
D02*
G37*
G36*
X805530Y1093280D02*
X804760Y1093450D01*
Y1094220D01*
X805530Y1094605D01*
Y1093280D01*
D02*
G37*
G36*
X409119Y1093950D02*
Y1092950D01*
X408120Y1092450D01*
Y1094450D01*
X409119Y1093950D01*
D02*
G37*
G36*
X500070Y1092310D02*
X499071Y1092810D01*
Y1093810D01*
X500070Y1094310D01*
Y1092310D01*
D02*
G37*
G36*
X800709Y1095281D02*
X802219D01*
X800750Y1092281D01*
X797750D01*
X797608Y1092719D01*
X796250D01*
X797075Y1094369D01*
X796780Y1095281D01*
X797531D01*
X797750Y1095720D01*
X800750D01*
X800709Y1095281D01*
D02*
G37*
G36*
X499017Y1093810D02*
Y1092810D01*
X497540Y1092085D01*
Y1094535D01*
X499017Y1093810D01*
D02*
G37*
G36*
X593790Y1087583D02*
X592790D01*
X592065Y1089060D01*
X594515D01*
X593790Y1087583D01*
D02*
G37*
G36*
X557820Y1087560D02*
X556820Y1088060D01*
Y1089060D01*
X557820Y1089560D01*
Y1087560D01*
D02*
G37*
G36*
X409119Y1088950D02*
Y1087950D01*
X408120Y1087450D01*
Y1089450D01*
X409119Y1088950D01*
D02*
G37*
G36*
X498921Y1088810D02*
X499071Y1087820D01*
Y1088810D01*
X500070Y1089310D01*
Y1087310D01*
X499071Y1087810D01*
X497702Y1087026D01*
X497352Y1089451D01*
X498921Y1088810D01*
D02*
G37*
G36*
X581820Y1086840D02*
X579820Y1087560D01*
Y1089560D01*
X581820Y1090279D01*
Y1086840D01*
D02*
G37*
G36*
X807416Y1087636D02*
X807974Y1086500D01*
X805524D01*
X806082Y1087636D01*
X805780Y1088280D01*
X807719D01*
X807416Y1087636D01*
D02*
G37*
G36*
X813346Y1087781D02*
X813749D01*
X813546Y1087373D01*
X813974Y1086500D01*
X811524Y1086500D01*
X811953Y1087373D01*
X811749Y1087781D01*
X812153D01*
X812249Y1087977D01*
X813249D01*
X813346Y1087781D01*
D02*
G37*
G36*
X394739Y1088346D02*
X395371Y1088622D01*
X395907Y1086231D01*
X395250Y1086386D01*
X394112Y1085817D01*
X393651Y1088817D01*
X394739Y1088346D01*
D02*
G37*
G36*
X803357Y1086848D02*
X803104Y1085950D01*
X801815Y1086971D01*
X802813Y1087392D01*
X803357Y1086848D01*
D02*
G37*
G36*
X553765Y1084810D02*
X551315D01*
X552040Y1086287D01*
X553040D01*
X553765Y1084810D01*
D02*
G37*
G36*
X400181Y1081950D02*
X399260Y1082410D01*
X398656Y1082133D01*
X397957Y1084481D01*
X398879Y1084299D01*
X400181Y1084950D01*
Y1081950D01*
D02*
G37*
G36*
X498921Y1083810D02*
X499071Y1082820D01*
Y1083810D01*
X500070Y1084310D01*
Y1082310D01*
X499071Y1082810D01*
X497702Y1082026D01*
X497352Y1084451D01*
X498921Y1083810D01*
D02*
G37*
G36*
X589967Y1082279D02*
X589259Y1080865D01*
X587845Y1082279D01*
X589259Y1082987D01*
X589967Y1082279D01*
D02*
G37*
G36*
X557820Y1079560D02*
X556820Y1080060D01*
Y1081060D01*
X557820Y1081560D01*
Y1079560D01*
D02*
G37*
G36*
X554891Y1080206D02*
X554289Y1078870D01*
X552947Y1080512D01*
X554184Y1080913D01*
X554891Y1080206D01*
D02*
G37*
G36*
X500070Y1077310D02*
X499071Y1077810D01*
Y1078810D01*
X500070Y1079310D01*
Y1077310D01*
D02*
G37*
G36*
X435150Y1077225D02*
X433769Y1077700D01*
Y1079200D01*
X435150Y1079675D01*
Y1077225D01*
D02*
G37*
G36*
X397781Y1079200D02*
Y1077700D01*
X396400Y1077225D01*
Y1079675D01*
X397781Y1079200D01*
D02*
G37*
G36*
X499017Y1078810D02*
Y1077810D01*
X497540Y1077085D01*
Y1079535D01*
X499017Y1078810D01*
D02*
G37*
G36*
X409619Y1079200D02*
Y1077700D01*
X408120Y1076950D01*
Y1079950D01*
X409619Y1079200D01*
D02*
G37*
G36*
X400181Y1076950D02*
X398680Y1077700D01*
Y1079200D01*
X400181Y1079950D01*
Y1076950D01*
D02*
G37*
G36*
X392041Y1074620D02*
X390980Y1073559D01*
X389668Y1074200D01*
X391400Y1075932D01*
X392041Y1074620D01*
D02*
G37*
G36*
X400181Y1071950D02*
X398680Y1072700D01*
Y1074200D01*
X400181Y1074950D01*
Y1071950D01*
D02*
G37*
G36*
X495814Y1073860D02*
X495694Y1071860D01*
X493700Y1071939D01*
X494675Y1074183D01*
X495814Y1073860D01*
D02*
G37*
G36*
X500070Y1071090D02*
X498070Y1071860D01*
Y1073860D01*
X500070Y1074529D01*
Y1071090D01*
D02*
G37*
G36*
X415612Y1030540D02*
X413880Y1028808D01*
X413348Y1030365D01*
X414055Y1031072D01*
X415612Y1030540D01*
D02*
G37*
G36*
X467612Y1030290D02*
X465880Y1028558D01*
X465410Y1030221D01*
X465949Y1030760D01*
X467612Y1030290D01*
D02*
G37*
G36*
X384380Y1026315D02*
X383255Y1026867D01*
X382600Y1026540D01*
Y1028540D01*
X383255Y1028213D01*
X384380Y1028765D01*
Y1026315D01*
D02*
G37*
G36*
X393600Y1027290D02*
Y1026290D01*
X392600Y1025790D01*
Y1027790D01*
X393600Y1027290D01*
D02*
G37*
G36*
X428392Y1025645D02*
X426868D01*
X427249Y1026713D01*
X428011D01*
X428392Y1025645D01*
D02*
G37*
G36*
X424392D02*
X422868D01*
X423249Y1026713D01*
X424011D01*
X424392Y1025645D01*
D02*
G37*
G36*
X420392D02*
X418868D01*
X419249Y1026713D01*
X420011D01*
X420392Y1025645D01*
D02*
G37*
G36*
X416160Y1026297D02*
X416392Y1025645D01*
X414868D01*
X415101Y1026297D01*
X414405Y1027540D01*
X416855Y1027540D01*
X416160Y1026297D01*
D02*
G37*
G36*
X617863Y1026040D02*
X616305Y1025508D01*
X615598Y1026215D01*
X616130Y1027773D01*
X617863Y1026040D01*
D02*
G37*
G36*
X408276Y1026360D02*
X408544Y1025418D01*
X406717D01*
X406985Y1026359D01*
X406405Y1027540D01*
X408855Y1027540D01*
X408276Y1026360D01*
D02*
G37*
G36*
X525880Y1025315D02*
X524372Y1026159D01*
Y1026921D01*
X525880Y1027765D01*
Y1025315D01*
D02*
G37*
G36*
X557113Y1025540D02*
X555555Y1025008D01*
X554848Y1025715D01*
X555380Y1027272D01*
X557113Y1025540D01*
D02*
G37*
G36*
X587113Y1025290D02*
X585555Y1024758D01*
X584848Y1025465D01*
X585380Y1027022D01*
X587113Y1025290D01*
D02*
G37*
G36*
X497156Y1024447D02*
X495402Y1025028D01*
X495098Y1025790D01*
X496273Y1026732D01*
X497156Y1024447D01*
D02*
G37*
G36*
X433619Y1021290D02*
Y1020290D01*
X432619Y1019790D01*
Y1021790D01*
X433619Y1021290D01*
D02*
G37*
G36*
X412130Y1017208D02*
X411130D01*
X410717Y1018662D01*
X412543D01*
X412130Y1017208D01*
D02*
G37*
G36*
X321380Y1016563D02*
X320380D01*
X319655Y1018040D01*
X322105D01*
X321380Y1016563D01*
D02*
G37*
G36*
X402480Y1016490D02*
X401230Y1017040D01*
Y1018040D01*
X402480Y1018590D01*
X402480Y1016490D01*
D02*
G37*
G36*
X378561Y1015321D02*
X375561Y1016540D01*
Y1019540D01*
X378561Y1020760D01*
Y1015321D01*
D02*
G37*
G36*
X400542Y1015029D02*
X398719D01*
X399130Y1015940D01*
X400130D01*
X400542Y1015029D01*
D02*
G37*
G36*
X391230Y1014640D02*
X390230D01*
X390050Y1015321D01*
X391410D01*
X391230Y1014640D01*
D02*
G37*
G36*
X412630Y1013760D02*
X410630D01*
X411130Y1014760D01*
X412130D01*
X412630Y1013760D01*
D02*
G37*
G36*
X444462Y1014540D02*
Y1013540D01*
X443008Y1013127D01*
Y1014953D01*
X444462Y1014540D01*
D02*
G37*
G36*
X372761Y1014290D02*
X372912Y1013290D01*
X371542Y1012506D01*
X371192Y1014931D01*
X372761Y1014290D01*
D02*
G37*
G36*
X431863Y1012540D02*
X430829Y1011825D01*
X429415Y1013239D01*
X430130Y1014272D01*
X431863Y1012540D01*
D02*
G37*
G36*
X325630Y1011563D02*
X324630D01*
X323905Y1013040D01*
X326355D01*
X325630Y1011563D01*
D02*
G37*
G36*
X444462Y1010540D02*
Y1009540D01*
X443008Y1009127D01*
Y1010953D01*
X444462Y1010540D01*
D02*
G37*
G36*
X396252Y1009127D02*
X394798Y1009540D01*
Y1010540D01*
X396252Y1010953D01*
Y1009127D01*
D02*
G37*
G36*
X368857Y1009290D02*
Y1008290D01*
X367380Y1007565D01*
Y1010015D01*
X368857Y1009290D01*
D02*
G37*
G36*
X396252Y1005127D02*
X394798Y1005540D01*
Y1006540D01*
X396252Y1006953D01*
Y1005127D01*
D02*
G37*
G36*
Y1001127D02*
X394798Y1001540D01*
Y1002540D01*
X396252Y1002953D01*
Y1001127D01*
D02*
G37*
G36*
X323678Y1000242D02*
Y999242D01*
X322585Y998818D01*
X322636Y1000681D01*
X323678Y1000242D01*
D02*
G37*
G36*
X444544Y998415D02*
X444379Y997415D01*
X443008Y997127D01*
X443066Y998915D01*
X444544Y998415D01*
D02*
G37*
G36*
X396252Y997127D02*
X394798Y997540D01*
Y998540D01*
X396252Y998953D01*
Y997127D01*
D02*
G37*
G36*
X365607Y998540D02*
Y997540D01*
X364130Y996815D01*
Y999265D01*
X365607Y998540D01*
D02*
G37*
G36*
X451546Y996657D02*
X450121Y997415D01*
X450195Y998415D01*
X451721Y999101D01*
X451546Y996657D01*
D02*
G37*
G36*
X444557Y994349D02*
X444334Y993349D01*
X443008Y993127D01*
X443329Y994739D01*
X444557Y994349D01*
D02*
G37*
G36*
X396252Y993127D02*
X394798Y993540D01*
Y994540D01*
X396252Y994953D01*
Y993127D01*
D02*
G37*
G36*
X370107Y994540D02*
Y993540D01*
X368630Y992815D01*
Y995265D01*
X370107Y994540D01*
D02*
G37*
G36*
X366130Y992815D02*
X364653Y993540D01*
Y994540D01*
X366130Y995265D01*
Y992815D01*
D02*
G37*
G36*
X322912Y992965D02*
X322205Y992258D01*
X320648Y992790D01*
X322380Y994522D01*
X322912Y992965D01*
D02*
G37*
G36*
X699613Y990040D02*
X698055Y989508D01*
X697348Y990215D01*
X697880Y991773D01*
X699613Y990040D01*
D02*
G37*
G36*
X416130Y989321D02*
X415130D01*
X414630Y990321D01*
X416630D01*
X416130Y989321D01*
D02*
G37*
G36*
X639362Y989790D02*
X637805Y989258D01*
X637098Y989965D01*
X637630Y991523D01*
X639362Y989790D01*
D02*
G37*
G36*
X444462Y990540D02*
Y989540D01*
X443008Y989127D01*
Y990953D01*
X444462Y990540D01*
D02*
G37*
G36*
X396252Y989127D02*
X394798Y989540D01*
Y990540D01*
X396252Y990953D01*
Y989127D01*
D02*
G37*
G36*
X431742Y991448D02*
X432290Y991033D01*
X432191Y990953D01*
X432764Y990321D01*
X431350Y988906D01*
X430560Y989622D01*
X430391Y989484D01*
X429947Y990177D01*
X429789Y990321D01*
X429830Y990361D01*
X429714Y990543D01*
X431057Y991588D01*
X431350Y991881D01*
X431742Y991448D01*
D02*
G37*
G36*
X391937Y990540D02*
X392230Y989540D01*
X391230Y988540D01*
X390230Y988833D01*
X389627Y990436D01*
X390334Y991144D01*
X391937Y990540D01*
D02*
G37*
G36*
X672613Y988040D02*
X671055Y987508D01*
X670348Y988215D01*
X670880Y989772D01*
X672613Y988040D01*
D02*
G37*
G36*
X391730Y987115D02*
X389730D01*
X390230Y988115D01*
X391230D01*
X391730Y987115D01*
D02*
G37*
G36*
X416544Y985418D02*
X414717D01*
X415130Y986872D01*
X416130D01*
X416544Y985418D01*
D02*
G37*
G36*
X763613Y985540D02*
X761953Y985068D01*
X761408Y985613D01*
X761880Y987272D01*
X763613Y985540D01*
D02*
G37*
G36*
X734362D02*
X732703Y985068D01*
X732158Y985613D01*
X732630Y987272D01*
X734362Y985540D01*
D02*
G37*
G36*
X376345Y986239D02*
X374931Y984825D01*
X373898Y985540D01*
X375630Y987272D01*
X376345Y986239D01*
D02*
G37*
G36*
X378561Y985485D02*
X379555Y985535D01*
Y983256D01*
X378561Y983306D01*
Y982609D01*
X376775Y983395D01*
Y985395D01*
X378561Y986181D01*
Y985485D01*
D02*
G37*
G36*
X433619Y982540D02*
Y981540D01*
X432619Y981040D01*
Y983040D01*
X433619Y982540D01*
D02*
G37*
G36*
X382043Y981676D02*
X382500D01*
X382271Y980218D01*
X382500Y978760D01*
X382043D01*
X382030Y978676D01*
X379030D01*
X379017Y978760D01*
X378561D01*
X378789Y980218D01*
X378561Y981676D01*
X379017D01*
X379030Y981760D01*
X382030D01*
X382043Y981676D01*
D02*
G37*
G36*
X428015Y977361D02*
X427245D01*
X426860Y978447D01*
X428400D01*
X428015Y977361D01*
D02*
G37*
G36*
X420237Y977509D02*
X419467Y977314D01*
X419082Y978240D01*
X420544Y978662D01*
X420237Y977509D01*
D02*
G37*
G36*
X393700Y976540D02*
Y975540D01*
X392700Y975040D01*
Y977040D01*
X393700Y976540D01*
D02*
G37*
G36*
X406381Y972815D02*
X404903Y973540D01*
Y974540D01*
X406381Y975265D01*
Y972815D01*
D02*
G37*
D11*
X380630Y1026790D02*
D03*
X390630D02*
D03*
D12*
X812749Y1103750D02*
X812749Y1103750D01*
X806749Y1104750D02*
Y1108500D01*
X812749Y1103750D02*
Y1108500D01*
X812749Y1085250D02*
X812749Y1085250D01*
X806749D02*
Y1089750D01*
X812749Y1085250D02*
Y1090750D01*
Y1097250D02*
X821249D01*
X496967Y1088810D02*
X496290D01*
X497467Y1088310D02*
X496967Y1088810D01*
X503040Y1088310D02*
X497467D01*
X496540Y1083310D02*
X496290Y1083060D01*
X503040Y1083310D02*
X496540D01*
X593290Y1090310D02*
Y1086310D01*
X587540Y1080560D01*
X585540D01*
X504040Y1103310D02*
X503790Y1103060D01*
X496540D01*
X503290Y1097810D02*
X496540D01*
X503540Y1093310D02*
X496290D01*
X502290Y1078310D02*
X496290D01*
X552540Y1086810D02*
Y1083560D01*
X554290Y1088560D02*
X552540Y1086810D01*
X561540Y1088560D02*
X554290D01*
X554538Y1080560D02*
X552788Y1078810D01*
X552540D01*
X561540Y1080560D02*
X554538D01*
X414150Y1088450D02*
X424150Y1098450D01*
X429400D01*
X404150Y1088450D02*
X414150D01*
X413650Y1098450D02*
X413900Y1098700D01*
X404150Y1098450D02*
X413650D01*
X414150Y1093450D02*
X419150Y1098450D01*
X404150Y1093450D02*
X414150D01*
X413900Y1105450D02*
Y1108700D01*
X411900Y1103450D02*
X413900Y1105450D01*
X404150Y1103450D02*
X411900D01*
X427150Y1116450D02*
X429400Y1114200D01*
Y1108700D02*
Y1114200D01*
X423650Y1108700D02*
Y1108796D01*
X413400Y1112950D02*
X419496D01*
X423650Y1108796D01*
X408900Y1108450D02*
X413400Y1112950D01*
X404150Y1108450D02*
X408900D01*
X411718Y1116450D02*
X427150D01*
X409268Y1114000D02*
X411718Y1116450D01*
X404700Y1114000D02*
X409268D01*
X404150Y1113450D02*
X404700Y1114000D01*
X450880Y984540D02*
X667380D01*
X672630Y989790D01*
X371130Y1008790D02*
X372380Y1010040D01*
X366130Y1008790D02*
X371130D01*
X372380Y1010040D02*
X399630D01*
X320880Y1008040D02*
X326880Y1002040D01*
X325130Y1007790D02*
X328880Y1004040D01*
X390130D01*
X392130Y1006040D01*
X326880Y1002040D02*
X399630D01*
X392130Y1006040D02*
X399630D01*
X370130Y1013540D02*
X370380Y1013790D01*
X374380D01*
X363130Y998040D02*
X399630D01*
X390730Y984395D02*
Y990040D01*
X389980Y990790D02*
X390730Y990040D01*
X324380Y990790D02*
X389980D01*
X390730Y990040D02*
X399630D01*
X367380Y994040D02*
X402630D01*
X329380D02*
X367380D01*
X320630Y994540D02*
X324380Y990790D01*
X401616Y974040D02*
X407630D01*
X399616Y976040D02*
X401616Y974040D01*
X375880Y1012290D02*
X388380D01*
X390730Y1014640D01*
X374380Y1013790D02*
X375880Y1012290D01*
X431630Y982040D02*
X689880D01*
X699630Y991790D01*
X445380Y990040D02*
X450880Y984540D01*
X439630Y990040D02*
X445380D01*
X439822Y993849D02*
X446071D01*
X451380Y988540D01*
X636380D01*
X639380Y991540D01*
X439630Y994040D02*
X439822Y993849D01*
X432092Y1020790D02*
X550630D01*
X390730Y976040D02*
X399616D01*
X415380Y1029040D02*
X415880D01*
X321130Y999790D02*
X321178Y999742D01*
X323678D01*
X329380Y994040D01*
X320880Y1008040D02*
Y1019290D01*
X325130Y1007790D02*
Y1014290D01*
X380630Y1026790D02*
X381380Y1027540D01*
X385630D01*
X412380Y1032040D02*
X415380Y1029040D01*
X402380Y1032040D02*
X412380D01*
X397130Y1026790D02*
X402380Y1032040D01*
X390630Y1026790D02*
X397130D01*
X390730Y1014640D02*
Y1018040D01*
X415630Y994040D02*
X416130Y994540D01*
X415630Y982040D02*
Y994040D01*
X439630Y998040D02*
X439755Y997915D01*
X452755D02*
X452880Y997790D01*
X439755Y997915D02*
X452755D01*
X600130Y1010040D02*
X617880Y1027790D01*
X439630Y1010040D02*
X600130D01*
X439630Y1014040D02*
X574130D01*
X587130Y1027040D01*
X407630Y1022040D02*
Y1028790D01*
Y1022040D02*
X407630Y1022040D01*
X407630Y1028790D02*
X407630Y1028790D01*
X399630Y1015940D02*
X401230Y1017540D01*
X399630Y1014040D02*
Y1015940D01*
X401230Y1017540D02*
X403880D01*
X403880Y1017540D01*
X431630Y1021252D02*
Y1022040D01*
Y1021252D02*
X432092Y1020790D01*
X550630D02*
X557130Y1027290D01*
X411630Y1012040D02*
Y1022040D01*
X411130Y1011540D02*
X411630Y1012040D01*
D13*
X798500Y1096750D02*
X799000Y1097250D01*
X799250Y1097000D01*
X799000Y1097250D02*
Y1103750D01*
X790135Y1094500D02*
X792385Y1096750D01*
X798500D01*
X799250Y1091000D02*
Y1097000D01*
X790000Y1094500D02*
X790135D01*
X585790Y1096810D02*
X585540Y1096560D01*
X593290Y1099810D02*
X590290Y1096810D01*
X593290Y1104560D02*
Y1099810D01*
X590290Y1096810D02*
X585790D01*
X597540Y1108810D02*
X593290Y1104560D01*
X645540Y1108810D02*
X597540D01*
X380530Y984395D02*
Y985145D01*
Y976040D02*
Y984190D01*
X374630Y1018040D02*
X380530D01*
D14*
X502740Y1072860D02*
X494146D01*
X493446Y1073560D02*
X493040D01*
X494146Y1072860D02*
X493446Y1073560D01*
X561415Y1096685D02*
X561290Y1096560D01*
X577290Y1088560D02*
X569040Y1096810D01*
X585540Y1088560D02*
X577290D01*
X504040Y1107810D02*
X479290D01*
X477290Y1109810D01*
X504040Y1125810D02*
Y1117810D01*
X568915Y1096685D02*
X561415D01*
X496540Y1112810D02*
X494415Y1114935D01*
X504040Y1112810D02*
X496540D01*
X569040Y1096810D02*
X568915Y1096685D01*
X412433Y1120700D02*
X439150D01*
X410183Y1118450D02*
X412433Y1120700D01*
X404150Y1118450D02*
X410183D01*
X373880Y987290D02*
X376775Y984395D01*
X380530D01*
X419630Y1002040D02*
X432130Y989540D01*
Y989290D02*
Y989540D01*
X419630Y1002040D02*
X431880Y1014290D01*
D16*
X380530Y976040D02*
D03*
X390730D02*
D03*
Y1018040D02*
D03*
X380530D02*
D03*
X390730Y984395D02*
D03*
X380530D02*
D03*
D17*
X593540Y1112560D02*
X585540D01*
X593540Y1112560D02*
X593540Y1112560D01*
X585540Y1112560D02*
Y1104560D01*
X585540Y1104560D01*
D19*
X392150Y1073450D02*
X404150D01*
X389650Y1075950D02*
X392150Y1073450D01*
X404150Y1078450D02*
X436400D01*
X397109Y1082950D02*
X397650D01*
X398150Y1083450D01*
X395150Y1078450D02*
X404150D01*
X398150Y1083450D02*
X404150D01*
X386017Y1087317D02*
X396476D01*
X396859Y1087700D01*
X384150Y1085450D02*
X386017Y1087317D01*
X389318Y1105450D02*
X396318Y1098450D01*
X384150Y1105450D02*
X389318D01*
X396318Y1098450D02*
X396859D01*
D21*
X526630Y1026540D02*
X526880Y1026290D01*
X513302Y1026540D02*
X526630D01*
X509671Y1022909D02*
X513302Y1026540D01*
X463011Y1022909D02*
X509671D01*
X457285Y1028635D02*
X463011Y1022909D01*
X429130Y1028635D02*
X457285D01*
X427630Y1027135D02*
X429130Y1028635D01*
X427630Y1022040D02*
Y1027135D01*
X459095Y1030397D02*
X464083Y1025409D01*
X423630Y1028790D02*
X425237Y1030397D01*
X464083Y1025409D02*
X496508D01*
X423630Y1022040D02*
Y1028790D01*
X425237Y1030397D02*
X459095D01*
X421999Y1032159D02*
X464011D01*
X419630Y1029790D02*
X421999Y1032159D01*
X419630Y1022040D02*
Y1029790D01*
X464011Y1032159D02*
X467630Y1028540D01*
X415630Y1028790D02*
X415630Y1028790D01*
Y1022040D02*
X415630Y1022040D01*
X415630Y1022040D02*
Y1028790D01*
X497139Y1026040D02*
X497880D01*
X496508Y1025409D02*
X497139Y1026040D01*
D22*
X812500Y1045000D02*
D03*
X287750Y1045000D02*
D03*
X312750D02*
D03*
X337750D02*
D03*
X362750D02*
D03*
X387750D02*
D03*
X412750D02*
D03*
X437750D02*
D03*
X462750D02*
D03*
X487750D02*
D03*
X512750D02*
D03*
X537750D02*
D03*
X562750D02*
D03*
X587750D02*
D03*
X612750D02*
D03*
X637750D02*
D03*
X662750D02*
D03*
X687750D02*
D03*
X712750D02*
D03*
X737750D02*
D03*
X762750D02*
D03*
X787750D02*
D03*
D23*
X690000Y1065000D02*
D03*
Y1090000D02*
D03*
Y1140000D02*
D03*
Y1115000D02*
D03*
X456000Y1065500D02*
D03*
Y1090500D02*
D03*
Y1115500D02*
D03*
Y1140500D02*
D03*
D24*
X801500Y1085250D02*
D03*
Y1108500D02*
D03*
X790000Y1094500D02*
D03*
X806749Y1108500D02*
D03*
X736750Y1074750D02*
D03*
X812749Y1108500D02*
D03*
X806749Y1085250D02*
D03*
X812749D02*
D03*
X821249Y1097250D02*
D03*
X593290Y1104560D02*
D03*
X493040Y1073560D02*
D03*
X496290Y1088060D02*
D03*
Y1083060D02*
D03*
X593540Y1112560D02*
D03*
X593290Y1090310D02*
D03*
X497040Y1065060D02*
D03*
X497290Y1126060D02*
D03*
X496540Y1103060D02*
D03*
Y1097810D02*
D03*
X496290Y1093310D02*
D03*
Y1078310D02*
D03*
X477540Y1109810D02*
D03*
X494290Y1114810D02*
D03*
X504290Y1125560D02*
D03*
X558790Y1132810D02*
D03*
X569040Y1096810D02*
D03*
X552540Y1083560D02*
D03*
Y1078810D02*
D03*
X646290Y1118810D02*
D03*
X645540Y1108810D02*
D03*
Y1103560D02*
D03*
X645790Y1098810D02*
D03*
X646290Y1073810D02*
D03*
X439150Y1072200D02*
D03*
X436400Y1078450D02*
D03*
X389650Y1075950D02*
D03*
X397109Y1082950D02*
D03*
X395150Y1078450D02*
D03*
X396859Y1087700D02*
D03*
Y1098450D02*
D03*
X421150Y1087700D02*
D03*
X429400Y1098450D02*
D03*
X419150D02*
D03*
X413900Y1098700D02*
D03*
X429400Y1108700D02*
D03*
X423650D02*
D03*
X419150D02*
D03*
X413900D02*
D03*
X395150Y1113950D02*
D03*
X439150Y1120700D02*
D03*
X322650Y1118700D02*
D03*
Y1113700D02*
D03*
Y1108950D02*
D03*
Y1103700D02*
D03*
Y1098700D02*
D03*
Y1093450D02*
D03*
Y1088450D02*
D03*
X672630Y989790D02*
D03*
X366130Y1008790D02*
D03*
X370130Y1013540D02*
D03*
X774130Y975540D02*
D03*
X362880Y998040D02*
D03*
X763630Y987290D02*
D03*
X734380D02*
D03*
X373880D02*
D03*
X407630Y974040D02*
D03*
X367380Y994040D02*
D03*
X432130Y989290D02*
D03*
X699630Y991790D02*
D03*
X639380Y991540D02*
D03*
X431880Y1014290D02*
D03*
X320380Y979040D02*
D03*
X320630Y984290D02*
D03*
Y989290D02*
D03*
Y994540D02*
D03*
X321130Y999790D02*
D03*
X320880Y1019290D02*
D03*
X325130Y1014290D02*
D03*
X385630Y1027540D02*
D03*
X374630Y1018040D02*
D03*
X415630Y1028790D02*
D03*
X452880Y997790D02*
D03*
X617880Y1027790D02*
D03*
X587130Y1027040D02*
D03*
X407630Y1028790D02*
D03*
X403880Y1017540D02*
D03*
X557130Y1027290D02*
D03*
X527130Y1026540D02*
D03*
X497880Y1026040D02*
D03*
X467630Y1028540D02*
D03*
D25*
X806749Y1099750D02*
D03*
Y1094750D02*
D03*
D26*
X797750Y1090750D02*
D03*
X799500Y1097250D02*
D03*
X797750Y1103750D02*
D03*
X812749D02*
D03*
Y1097250D02*
D03*
Y1089750D02*
D03*
D27*
X806749D02*
D03*
Y1104750D02*
D03*
D28*
X803085Y1087120D02*
Y1092242D01*
X801500Y1085535D02*
X803085Y1087120D01*
X801500Y1085250D02*
Y1085535D01*
X803085Y1092242D02*
X804678Y1093835D01*
X805884D01*
X806749Y1094700D01*
Y1094750D01*
X801500Y1108750D02*
X803089Y1107161D01*
Y1102254D02*
X804672Y1100672D01*
X803089Y1102254D02*
Y1107161D01*
X804678Y1100665D02*
X805884D01*
X806749Y1099800D01*
Y1099750D02*
Y1099800D01*
X424199Y972540D02*
X748880D01*
X763630Y987290D01*
X722550Y975460D02*
X734380Y987290D01*
X433113Y975460D02*
X722550D01*
X433108Y975455D02*
X433113Y975460D01*
X429215Y975455D02*
X433108D01*
X427630Y981790D02*
X427880Y982040D01*
X427630Y977040D02*
Y981790D01*
Y977040D02*
X429215Y975455D01*
X419852Y976887D02*
X424199Y972540D01*
X419852Y976887D02*
Y981818D01*
D29*
X504040Y1072810D02*
D03*
Y1117810D02*
D03*
Y1112810D02*
D03*
Y1107810D02*
D03*
Y1102810D02*
D03*
Y1097810D02*
D03*
Y1092810D02*
D03*
Y1087810D02*
D03*
Y1082810D02*
D03*
Y1077810D02*
D03*
X404150Y1113450D02*
D03*
Y1108450D02*
D03*
Y1103450D02*
D03*
Y1098450D02*
D03*
Y1093450D02*
D03*
Y1088450D02*
D03*
Y1083450D02*
D03*
Y1078450D02*
D03*
Y1073450D02*
D03*
Y1118450D02*
D03*
D30*
X481040Y1126810D02*
D03*
Y1063810D02*
D03*
X427150Y1127450D02*
D03*
Y1064450D02*
D03*
D31*
X585540Y1072560D02*
D03*
Y1080560D02*
D03*
Y1088560D02*
D03*
Y1096560D02*
D03*
Y1104560D02*
D03*
Y1112560D02*
D03*
Y1120560D02*
D03*
X561540D02*
D03*
Y1112560D02*
D03*
Y1104560D02*
D03*
Y1096560D02*
D03*
Y1088560D02*
D03*
Y1080560D02*
D03*
Y1072560D02*
D03*
D32*
X384150Y1106200D02*
D03*
Y1086200D02*
D03*
D33*
X419630Y1002040D02*
D03*
D34*
X439630Y990040D02*
D03*
Y994040D02*
D03*
Y998040D02*
D03*
Y1002040D02*
D03*
Y1006040D02*
D03*
Y1010040D02*
D03*
Y1014040D02*
D03*
X399630D02*
D03*
Y1010040D02*
D03*
Y1006040D02*
D03*
Y1002040D02*
D03*
Y998040D02*
D03*
Y994040D02*
D03*
Y990040D02*
D03*
D35*
X431630Y1022040D02*
D03*
X427630D02*
D03*
X423630D02*
D03*
X419630D02*
D03*
X415630D02*
D03*
X411630D02*
D03*
X407630D02*
D03*
Y982040D02*
D03*
X411630D02*
D03*
X415630D02*
D03*
X419630D02*
D03*
X423630D02*
D03*
X427630D02*
D03*
X431630D02*
D03*
M02*
