G04*
G04 #@! TF.GenerationSoftware,Altium Limited,Altium Designer,23.2.1 (34)*
G04*
G04 Layer_Physical_Order=3*
G04 Layer_Color=65280*
%FSLAX44Y44*%
%MOMM*%
G71*
G04*
G04 #@! TF.SameCoordinates,58AE84E4-B62A-48DD-9498-F40C1AAB4627*
G04*
G04*
G04 #@! TF.FilePolarity,Positive*
G04*
G01*
G75*
%ADD12C,0.3000*%
%ADD13C,0.1000*%
%ADD14C,0.2000*%
G04:AMPARAMS|DCode=24|XSize=0.2mm|YSize=1.2mm|CornerRadius=0.05mm|HoleSize=0mm|Usage=FLASHONLY|Rotation=90.000|XOffset=0mm|YOffset=0mm|HoleType=Round|Shape=RoundedRectangle|*
%AMROUNDEDRECTD24*
21,1,0.2000,1.1000,0,0,90.0*
21,1,0.1000,1.2000,0,0,90.0*
1,1,0.1000,0.5500,0.0500*
1,1,0.1000,0.5500,-0.0500*
1,1,0.1000,-0.5500,-0.0500*
1,1,0.1000,-0.5500,0.0500*
%
%ADD24ROUNDEDRECTD24*%
G04:AMPARAMS|DCode=25|XSize=0.2mm|YSize=1.2mm|CornerRadius=0.05mm|HoleSize=0mm|Usage=FLASHONLY|Rotation=180.000|XOffset=0mm|YOffset=0mm|HoleType=Round|Shape=RoundedRectangle|*
%AMROUNDEDRECTD25*
21,1,0.2000,1.1000,0,0,180.0*
21,1,0.1000,1.2000,0,0,180.0*
1,1,0.1000,-0.0500,0.5500*
1,1,0.1000,0.0500,0.5500*
1,1,0.1000,0.0500,-0.5500*
1,1,0.1000,-0.0500,-0.5500*
%
%ADD25ROUNDEDRECTD25*%
%ADD26C,0.3500*%
G36*
X325377Y1087950D02*
X323900Y1087225D01*
Y1089675D01*
X325377Y1088950D01*
Y1087950D01*
D02*
G37*
G36*
Y1092950D02*
X323900Y1092225D01*
Y1094675D01*
X325377Y1093950D01*
Y1092950D01*
D02*
G37*
G36*
Y1098200D02*
X323900Y1097475D01*
Y1099925D01*
X325377Y1099200D01*
Y1098200D01*
D02*
G37*
G36*
Y1103200D02*
X323900Y1102475D01*
Y1104925D01*
X325377Y1104200D01*
Y1103200D01*
D02*
G37*
G36*
Y1108450D02*
X323900Y1107725D01*
Y1110175D01*
X325377Y1109450D01*
Y1108450D01*
D02*
G37*
G36*
X325409Y1113325D02*
X323984Y1112567D01*
X323809Y1115011D01*
X325335Y1114325D01*
X325409Y1113325D01*
D02*
G37*
G36*
X325136Y1117450D02*
X323900Y1117225D01*
Y1119675D01*
X325136Y1119450D01*
Y1117450D01*
D02*
G37*
G36*
X419900Y1102725D02*
X418423Y1103450D01*
Y1104450D01*
X419900Y1105175D01*
Y1102725D01*
D02*
G37*
G36*
X426150Y1100973D02*
X425150D01*
X424425Y1102450D01*
X426875D01*
X426150Y1100973D01*
D02*
G37*
G36*
X430650Y1100973D02*
X429650D01*
X428925Y1102450D01*
X431375D01*
X430650Y1100973D01*
D02*
G37*
G36*
X425672Y1087514D02*
X424814Y1087690D01*
Y1088690D01*
X425462Y1088910D01*
X425672Y1087514D01*
D02*
G37*
G36*
X416423Y1109450D02*
X417900Y1110175D01*
Y1107725D01*
X416423Y1108450D01*
Y1109450D01*
D02*
G37*
G36*
X416391Y1114325D02*
X417816Y1115083D01*
X417991Y1112639D01*
X416465Y1113325D01*
X416391Y1114325D01*
D02*
G37*
G36*
X405150Y1123714D02*
X404925Y1124950D01*
X407375D01*
X407150Y1123714D01*
X405150D01*
D02*
G37*
D12*
X323424Y989246D02*
X326630Y986040D01*
X375630D01*
X320630Y989290D02*
X320674Y989246D01*
X323424D01*
X379880Y1018040D02*
X382630Y1015290D01*
Y989040D02*
Y1015290D01*
X374630Y1018040D02*
X379880D01*
X375726Y986136D02*
X379726D01*
X382630Y989040D01*
D13*
X794749Y1108500D02*
X795149Y1108100D01*
X496790Y1103310D02*
X496540Y1103060D01*
X645290Y1103310D02*
X496790D01*
X645540Y1103560D02*
X645290Y1103310D01*
X637790Y1100310D02*
X499040D01*
X496540Y1097810D01*
X639290Y1098810D02*
X637790Y1100310D01*
X645790Y1098810D02*
X639290D01*
X395150Y1084200D02*
X420825D01*
X390900Y1088450D02*
X395150Y1084200D01*
X420825D02*
X424814Y1088190D01*
X322650Y1093450D02*
X391650D01*
X394900Y1094700D02*
X415900D01*
X322650Y1098700D02*
X390900D01*
X394900Y1094700D01*
X393150Y1091950D02*
X399496D01*
X402746Y1088700D01*
X322650Y1088450D02*
X390900D01*
X391650Y1093450D02*
X393150Y1091950D01*
X415900Y1094700D02*
X419150Y1097950D01*
X392804Y1103700D02*
X395304Y1101200D01*
X322650Y1103700D02*
X392804D01*
X397996Y1101200D02*
X400746Y1103950D01*
X395304Y1101200D02*
X397996D01*
X400746Y1103950D02*
X421150D01*
X322775Y1113825D02*
X419025D01*
X322650Y1113700D02*
X322775Y1113825D01*
X419025D02*
X419150Y1113950D01*
X322650Y1108950D02*
X419150D01*
Y1097950D02*
X422900D01*
X425650Y1100700D01*
Y1103700D01*
X430150Y1096046D02*
Y1103700D01*
X426996Y1093200D02*
X427304D01*
X430150Y1096046D01*
X422496Y1088700D02*
X426996Y1093200D01*
X402746Y1088700D02*
X422496D01*
X426890Y1088190D02*
X427150Y1088450D01*
X424814Y1088190D02*
X426890D01*
X404130Y997790D02*
X452880D01*
X400130Y1001790D02*
X404130Y997790D01*
X379880Y1022540D02*
X386630Y1015790D01*
X389130Y1001790D02*
X400130D01*
X386630Y1004290D02*
X389130Y1001790D01*
X386630Y1004290D02*
Y1015790D01*
X373380Y1022540D02*
X379880D01*
X371380Y1014040D02*
Y1020540D01*
X373380Y1022540D01*
X371380Y1014040D02*
X371630Y1013790D01*
D14*
X497946Y1073810D02*
X496446Y1072310D01*
X646290Y1073810D02*
X497946D01*
X496446Y1072310D02*
X496040D01*
X403150Y1118450D02*
X406150Y1121450D01*
X322650Y1118450D02*
X403150D01*
X406150Y1121450D02*
Y1126200D01*
X314380Y990237D02*
X320327Y984290D01*
X415380Y1028540D02*
X415880D01*
X320327Y984290D02*
X320630D01*
X319630Y1025040D02*
X380915D01*
X382165Y1023790D01*
X410630D01*
X415380Y1028540D01*
X314380Y1019790D02*
X319630Y1025040D01*
X314380Y990237D02*
Y1019790D01*
D24*
X812500Y1045000D02*
D03*
X287750Y1045000D02*
D03*
X312750D02*
D03*
X337750D02*
D03*
X362750D02*
D03*
X387750D02*
D03*
X412750D02*
D03*
X437750D02*
D03*
X462750D02*
D03*
X487750D02*
D03*
X512750D02*
D03*
X537750D02*
D03*
X562750D02*
D03*
X587750D02*
D03*
X612750D02*
D03*
X637750D02*
D03*
X662750D02*
D03*
X687750D02*
D03*
X712750D02*
D03*
X737750D02*
D03*
X762750D02*
D03*
X787750D02*
D03*
D25*
X690000Y1065000D02*
D03*
Y1090000D02*
D03*
Y1140000D02*
D03*
Y1115000D02*
D03*
X456000Y1065500D02*
D03*
Y1090500D02*
D03*
Y1115500D02*
D03*
Y1140500D02*
D03*
D26*
X794749Y1094000D02*
D03*
X806749Y1108500D02*
D03*
X736750Y1074750D02*
D03*
X794749Y1108500D02*
D03*
X812749D02*
D03*
X806749Y1085250D02*
D03*
X817999Y1100500D02*
D03*
X817999Y1094000D02*
D03*
X812749Y1085250D02*
D03*
X821249Y1097250D02*
D03*
X497040Y1065060D02*
D03*
X497290Y1126060D02*
D03*
X593040Y1113560D02*
D03*
X496540Y1103060D02*
D03*
Y1097810D02*
D03*
X496290Y1093310D02*
D03*
X496040Y1072310D02*
D03*
X496290Y1078310D02*
D03*
Y1088810D02*
D03*
X496540Y1083810D02*
D03*
X477540Y1109810D02*
D03*
X494290Y1114810D02*
D03*
X504290Y1125560D02*
D03*
X558790Y1132810D02*
D03*
X569040Y1096810D02*
D03*
X553040Y1093560D02*
D03*
X552540Y1083560D02*
D03*
Y1078810D02*
D03*
X592540Y1097060D02*
D03*
X646290Y1118810D02*
D03*
X645540Y1108810D02*
D03*
Y1103560D02*
D03*
X645790Y1098810D02*
D03*
X646290Y1073810D02*
D03*
X397150Y1087950D02*
D03*
X396650Y1130950D02*
D03*
X439650Y1073950D02*
D03*
X322650Y1118450D02*
D03*
Y1113700D02*
D03*
Y1108950D02*
D03*
Y1103700D02*
D03*
Y1098700D02*
D03*
Y1093450D02*
D03*
Y1088450D02*
D03*
X396650Y1097950D02*
D03*
X406150Y1126200D02*
D03*
X430150Y1103700D02*
D03*
X425650Y1103700D02*
D03*
X427150Y1088450D02*
D03*
X421150Y1103950D02*
D03*
Y1091950D02*
D03*
X419150Y1108950D02*
D03*
Y1113950D02*
D03*
X414900Y1070950D02*
D03*
X411650Y1059450D02*
D03*
X404150Y1067950D02*
D03*
X396650Y1104450D02*
D03*
X432880Y1015290D02*
D03*
X433130Y988540D02*
D03*
X320380Y979040D02*
D03*
X320630Y984290D02*
D03*
Y989290D02*
D03*
Y994540D02*
D03*
X321130Y999790D02*
D03*
X320880Y1019290D02*
D03*
X325130Y1014290D02*
D03*
X366630Y1010040D02*
D03*
X375630Y986040D02*
D03*
X385630Y1027540D02*
D03*
X374630Y1018040D02*
D03*
X371630Y1013790D02*
D03*
X647130Y983540D02*
D03*
X677130Y981290D02*
D03*
X775630Y975540D02*
D03*
X737130Y979040D02*
D03*
X409630Y974790D02*
D03*
X707130Y980040D02*
D03*
X767130Y975790D02*
D03*
X392880Y998040D02*
D03*
X415630Y1028790D02*
D03*
X452880Y997790D02*
D03*
X617880Y1027790D02*
D03*
X587130Y1027040D02*
D03*
X407630Y1028790D02*
D03*
X403880Y1017540D02*
D03*
X557130Y1027290D02*
D03*
X527130Y1026540D02*
D03*
X497880Y1026040D02*
D03*
X467630Y1028540D02*
D03*
M02*
