G04*
G04 #@! TF.GenerationSoftware,Altium Limited,Altium Designer,26.4.1 (12)*
G04*
G04 Layer_Color=8421504*
%FSLAX44Y44*%
%MOMM*%
G71*
G04*
G04 #@! TF.SameCoordinates,8F52405A-A2E0-4153-8A60-8C4F9B0F4C2B*
G04*
G04*
G04 #@! TF.FilePolarity,Positive*
G04*
G01*
G75*
%ADD11R,0.4000X0.6000*%
%ADD15R,0.6000X0.4000*%
%ADD16R,0.4000X0.5500*%
%ADD18R,0.3000X1.4500*%
D11*
X811749Y1094000D02*
D03*
X801749D02*
D03*
X431150Y1061200D02*
D03*
X441150D02*
D03*
X389900Y1123200D02*
D03*
X399900D02*
D03*
Y1132200D02*
D03*
X389900D02*
D03*
X399650Y1069950D02*
D03*
X389650D02*
D03*
X399650Y1061200D02*
D03*
X389650D02*
D03*
D15*
X477290Y1125560D02*
D03*
Y1115560D02*
D03*
X486040Y1125560D02*
D03*
Y1115560D02*
D03*
X502290Y1060810D02*
D03*
Y1070810D02*
D03*
X576290Y1132810D02*
D03*
Y1122810D02*
D03*
X585040D02*
D03*
Y1132810D02*
D03*
D16*
X568390Y1123810D02*
D03*
X558190D02*
D03*
D18*
X411150Y1077200D02*
D03*
X416150D02*
D03*
X421150D02*
D03*
X426150D02*
D03*
X431150D02*
D03*
X411150Y1121200D02*
D03*
X416150D02*
D03*
X421150D02*
D03*
X426150D02*
D03*
X431150D02*
D03*
M02*
