G04*
G04 #@! TF.GenerationSoftware,Altium Limited,Altium Designer,23.2.1 (34)*
G04*
G04 Layer_Color=32896*
%FSLAX44Y44*%
%MOMM*%
G71*
G04*
G04 #@! TF.SameCoordinates,084F8A50-16BE-4F63-9AE1-EE7E2292F58F*
G04*
G04*
G04 #@! TF.FilePolarity,Positive*
G04*
G01*
G75*
%ADD13C,0.1000*%
%ADD14C,0.2000*%
%ADD17C,0.2500*%
%ADD19C,0.1500*%
%ADD21C,0.0500*%
%ADD41C,0.4000*%
D13*
X396650Y1075450D02*
X396650Y1115450D01*
X371650Y1115450D01*
X371650Y1075450D01*
X396650Y1075450D01*
D14*
X774883Y984040D02*
X781548Y984040D01*
X784880Y987372D01*
X781548Y990704D01*
X774883Y990704D01*
X774883Y995703D02*
X776549Y994037D01*
X774883Y995703D02*
X784880Y995703D01*
X784880Y997369D01*
X784880Y994037D01*
X784880Y1002367D02*
X783214Y1002367D01*
X783214Y1004034D01*
X784880Y1004034D01*
X784880Y1002367D01*
X784880Y1010698D02*
X774883Y1010698D01*
X774883Y1015696D01*
X776549Y1017363D01*
X779882Y1017363D01*
X781548Y1015696D01*
X781548Y1010698D01*
X781548Y1014030D02*
X784880Y1017363D01*
X784880Y1022361D02*
X783214Y1020695D01*
X776549Y1020695D01*
X774883Y1022361D01*
X774883Y1025693D01*
X776549Y1027359D01*
X783214Y1027359D01*
X784880Y1025693D01*
X784880Y1022361D01*
X819249Y1085000D02*
X819249Y1109500D01*
X794249Y1109500D01*
X794249Y1085000D01*
X819249Y1085000D01*
X782069Y1095081D02*
X782069Y1088416D01*
X780403Y1086750D01*
X777071Y1086750D01*
X775405Y1088416D01*
X775405Y1095081D01*
X777071Y1096747D01*
X780403Y1096747D01*
X782069Y1095081D01*
X772073Y1095081D02*
X772073Y1091748D01*
X770406Y1090082D01*
X765408Y1090082D01*
X765408Y1086750D02*
X765408Y1096747D01*
X770406Y1096747D01*
X772073Y1095081D01*
X768740Y1090082D02*
X772073Y1086750D01*
X750413Y1096747D02*
X748747Y1095081D01*
X750413Y1096747D02*
X750413Y1086750D01*
X752079Y1086750D01*
X748747Y1086750D01*
X742082Y1086750D02*
X745415Y1090082D01*
X745415Y1096747D01*
X738750Y1096747D02*
X738750Y1090082D01*
X742082Y1086750D01*
X757077Y1086750D02*
X757077Y1088416D01*
X758744Y1088416D01*
X758744Y1086750D01*
X757077Y1086750D01*
X590040Y1126560D02*
X557040Y1126560D01*
X556790Y1066560D02*
X589790Y1066560D01*
X441130Y1023540D02*
X436630Y1023540D01*
X441130Y1023540D02*
X441130Y1019040D01*
X441130Y985040D02*
X441130Y980540D01*
X436630Y980540D01*
X398130Y1019040D02*
X398130Y1023540D01*
X402630Y1023540D01*
X398130Y985040D02*
X398130Y980540D01*
X402630Y980540D01*
X398150Y1121950D02*
X398150Y1125282D01*
X398150Y1123616D01*
X388153Y1123616D01*
X389819Y1121950D01*
D17*
X440880Y974040D02*
G03*
X440880Y974040I-1250J0D01*
G01*
X789999Y1090500D02*
G03*
X789999Y1090500I-1250J0D01*
G01*
D19*
X511790Y1072478D02*
X511790Y1074144D01*
X521787Y1074144D01*
X520121Y1075810D01*
X511790Y1075810D02*
X511790Y1072478D01*
D21*
X394130Y971790D02*
X394130Y980290D01*
X377130Y980290D01*
X377130Y971790D01*
X394130Y971790D01*
X394130Y980145D02*
X394130Y988645D01*
X377130Y988645D01*
X377130Y980145D01*
X394130Y980145D01*
X394130Y1013790D02*
X394130Y1022290D01*
X377130Y1022290D01*
X377130Y1013790D01*
X394130Y1013790D01*
X393880Y1022290D02*
X393880Y1031040D01*
X377380Y1031040D01*
X377380Y1022290D01*
X393880Y1022290D01*
D41*
X551443Y1073560D02*
G03*
X551443Y1073560I597J0D01*
G01*
M02*
