G04*
G04 #@! TF.GenerationSoftware,Altium Limited,Altium Designer,23.2.1 (34)*
G04*
G04 Layer_Physical_Order=1*
G04 Layer_Color=255*
%FSLAX44Y44*%
%MOMM*%
G71*
G04*
G04 #@! TF.SameCoordinates,58AE84E4-B62A-48DD-9498-F40C1AAB4627*
G04*
G04*
G04 #@! TF.FilePolarity,Positive*
G04*
G01*
G75*
%ADD10R,3.0000X0.3500*%
%ADD11R,0.4000X0.6000*%
%ADD12C,0.3000*%
%ADD13C,0.1000*%
%ADD14C,0.2000*%
%ADD15R,0.6000X0.4000*%
%ADD16R,0.4000X0.5500*%
%ADD17C,0.2500*%
%ADD18C,0.2500*%
%ADD19C,0.1500*%
%ADD20C,0.1200*%
%ADD21C,0.0500*%
%AMCUSTOMSHAPE22*
4,1,8,1.0000,-3.0000,-2.0000,0.0000,1.0000,3.0000,2.0000,3.0000,2.0000,2.0000,0.0000,0.0000,2.0000,-2.0000,2.0000,-3.0000,1.0000,-3.0000,0.0*%
%ADD22CUSTOMSHAPE22*%

%ADD23C,0.0762*%
G04:AMPARAMS|DCode=24|XSize=0.2mm|YSize=1.2mm|CornerRadius=0.05mm|HoleSize=0mm|Usage=FLASHONLY|Rotation=90.000|XOffset=0mm|YOffset=0mm|HoleType=Round|Shape=RoundedRectangle|*
%AMROUNDEDRECTD24*
21,1,0.2000,1.1000,0,0,90.0*
21,1,0.1000,1.2000,0,0,90.0*
1,1,0.1000,0.5500,0.0500*
1,1,0.1000,0.5500,-0.0500*
1,1,0.1000,-0.5500,-0.0500*
1,1,0.1000,-0.5500,0.0500*
%
%ADD24ROUNDEDRECTD24*%
G04:AMPARAMS|DCode=25|XSize=0.2mm|YSize=1.2mm|CornerRadius=0.05mm|HoleSize=0mm|Usage=FLASHONLY|Rotation=180.000|XOffset=0mm|YOffset=0mm|HoleType=Round|Shape=RoundedRectangle|*
%AMROUNDEDRECTD25*
21,1,0.2000,1.1000,0,0,180.0*
21,1,0.1000,1.2000,0,0,180.0*
1,1,0.1000,-0.0500,0.5500*
1,1,0.1000,0.0500,0.5500*
1,1,0.1000,0.0500,-0.5500*
1,1,0.1000,-0.0500,-0.5500*
%
%ADD25ROUNDEDRECTD25*%
%ADD26C,0.3500*%
G36*
X399281Y1131700D02*
Y1130200D01*
X397900Y1129725D01*
Y1132175D01*
X399281Y1131700D01*
D02*
G37*
G36*
X403211Y1129450D02*
X401680Y1130200D01*
Y1131700D01*
X403211Y1132450D01*
Y1129450D01*
D02*
G37*
G36*
X407311Y1124598D02*
X408150Y1122920D01*
X404150D01*
X404989Y1124598D01*
X404925Y1124950D01*
X407375D01*
X407311Y1124598D01*
D02*
G37*
G36*
X321316Y1117317D02*
X320084Y1117575D01*
X320260Y1119575D01*
X321491Y1119761D01*
X321316Y1117317D01*
D02*
G37*
G36*
X315119Y1119575D02*
Y1117575D01*
X313120Y1116981D01*
Y1120420D01*
X315119Y1119575D01*
D02*
G37*
G36*
X314119Y1114200D02*
Y1113200D01*
X313120Y1112700D01*
Y1114700D01*
X314119Y1114200D01*
D02*
G37*
G36*
X321400Y1112475D02*
X319923Y1113200D01*
Y1114200D01*
X321400Y1114925D01*
Y1112475D01*
D02*
G37*
G36*
X314119Y1109450D02*
Y1108450D01*
X313120Y1107950D01*
Y1109950D01*
X314119Y1109450D01*
D02*
G37*
G36*
X321400Y1107725D02*
X319923Y1108450D01*
Y1109450D01*
X321400Y1110175D01*
Y1107725D01*
D02*
G37*
G36*
X314119Y1104200D02*
Y1103200D01*
X313120Y1102700D01*
Y1104700D01*
X314119Y1104200D01*
D02*
G37*
G36*
X321400Y1102475D02*
X319923Y1103200D01*
Y1104200D01*
X321400Y1104925D01*
Y1102475D01*
D02*
G37*
G36*
X399097Y1103313D02*
X398156Y1102133D01*
X396844Y1102711D01*
X398393Y1104609D01*
X399097Y1103313D01*
D02*
G37*
G36*
X404371Y1098972D02*
X402650Y1099200D01*
Y1100700D01*
X404371Y1100928D01*
Y1098972D01*
D02*
G37*
G36*
X314119Y1099200D02*
Y1098200D01*
X313120Y1097700D01*
Y1099700D01*
X314119Y1099200D01*
D02*
G37*
G36*
X321400Y1097475D02*
X319923Y1098200D01*
Y1099200D01*
X321400Y1099925D01*
Y1097475D01*
D02*
G37*
G36*
X398936Y1096382D02*
X398039Y1095582D01*
X396575Y1096202D01*
X398396Y1097840D01*
X398936Y1096382D01*
D02*
G37*
G36*
X404390Y1093958D02*
X402853Y1094350D01*
Y1095550D01*
X404390Y1095943D01*
Y1093958D01*
D02*
G37*
G36*
X314119Y1093950D02*
Y1092950D01*
X313120Y1092450D01*
Y1094450D01*
X314119Y1093950D01*
D02*
G37*
G36*
X321400Y1092225D02*
X319923Y1092950D01*
Y1093950D01*
X321400Y1094675D01*
Y1092225D01*
D02*
G37*
G36*
X404371Y1088972D02*
X402650Y1089200D01*
Y1090700D01*
X404371Y1090928D01*
Y1088972D01*
D02*
G37*
G36*
X399221Y1089420D02*
X398747Y1088666D01*
X397235Y1089698D01*
X398109Y1090429D01*
X399221Y1089420D01*
D02*
G37*
G36*
X314119Y1088950D02*
Y1087950D01*
X313120Y1087450D01*
Y1089450D01*
X314119Y1088950D01*
D02*
G37*
G36*
X321400Y1087225D02*
X319923Y1087950D01*
Y1088950D01*
X321400Y1089675D01*
Y1087225D01*
D02*
G37*
G36*
X314620Y1084450D02*
Y1082950D01*
X313120Y1082200D01*
Y1085200D01*
X314620Y1084450D01*
D02*
G37*
G36*
Y1079450D02*
Y1077950D01*
X313120Y1077200D01*
Y1080200D01*
X314620Y1079450D01*
D02*
G37*
G36*
Y1074450D02*
Y1072950D01*
X313120Y1072200D01*
Y1075200D01*
X314620Y1074450D01*
D02*
G37*
G36*
X405375Y1069200D02*
X402925D01*
X403400Y1070581D01*
X404900D01*
X405375Y1069200D01*
D02*
G37*
G36*
X412211Y1129450D02*
X410681Y1130200D01*
Y1131700D01*
X412211Y1132450D01*
Y1129450D01*
D02*
G37*
G36*
X410620Y1131700D02*
Y1130200D01*
X409089Y1129450D01*
Y1132450D01*
X410620Y1131700D01*
D02*
G37*
G36*
X419619Y1121700D02*
Y1120200D01*
X418089Y1119450D01*
Y1122450D01*
X419619Y1121700D01*
D02*
G37*
G36*
X415900Y1117480D02*
X414400D01*
X413650Y1119011D01*
X416650D01*
X415900Y1117480D01*
D02*
G37*
G36*
X419132Y1112200D02*
X417575Y1111668D01*
X416868Y1112375D01*
X417400Y1113932D01*
X419132Y1112200D01*
D02*
G37*
G36*
X420015Y1107429D02*
X419404Y1106300D01*
X418404Y1106317D01*
X417896Y1107730D01*
X420015Y1107429D01*
D02*
G37*
G36*
X421650Y1101223D02*
X420650D01*
X419925Y1102700D01*
X422375D01*
X421650Y1101223D01*
D02*
G37*
G36*
X411128Y1100729D02*
X409172D01*
X409400Y1102450D01*
X410900D01*
X411128Y1100729D01*
D02*
G37*
G36*
X416148Y1100702D02*
X414152D01*
X414650Y1102096D01*
X415650D01*
X416148Y1100702D01*
D02*
G37*
G36*
X416797Y1097096D02*
X415717Y1097200D01*
Y1097700D01*
X416797Y1097804D01*
Y1097096D01*
D02*
G37*
G36*
X413833Y1097700D02*
Y1097200D01*
X412753Y1097096D01*
Y1097804D01*
X413833Y1097700D01*
D02*
G37*
G36*
X411939Y1096282D02*
X411400Y1094950D01*
X409879Y1096170D01*
X411122Y1096879D01*
X411939Y1096282D01*
D02*
G37*
G36*
X417448Y1093713D02*
X416387Y1092652D01*
X415010Y1093708D01*
X416392Y1095090D01*
X417448Y1093713D01*
D02*
G37*
G36*
X417350Y1090300D02*
X417218Y1089300D01*
X415834Y1088904D01*
X416015Y1090853D01*
X417350Y1090300D01*
D02*
G37*
G36*
X412021Y1088786D02*
X411314Y1088079D01*
X409976Y1088712D01*
X411388Y1090124D01*
X412021Y1088786D01*
D02*
G37*
G36*
X419595Y1081920D02*
X418180Y1080505D01*
X417473Y1081920D01*
X418180Y1082627D01*
X419595Y1081920D01*
D02*
G37*
G36*
X430900Y1074481D02*
X429400D01*
X428650Y1076011D01*
X431650D01*
X430900Y1074481D01*
D02*
G37*
G36*
X431650Y1072889D02*
X428650D01*
X429400Y1074419D01*
X430900D01*
X431650Y1072889D01*
D02*
G37*
G36*
X439632Y1072200D02*
X438320Y1071559D01*
X437259Y1072620D01*
X437900Y1073932D01*
X439632Y1072200D01*
D02*
G37*
G36*
X415900Y1073436D02*
X416256Y1072138D01*
X417027Y1071873D01*
X418181Y1072450D01*
Y1069450D01*
X417027Y1070027D01*
X416150Y1069725D01*
Y1072032D01*
X413866Y1072362D01*
X414400Y1073677D01*
X415900Y1073436D01*
D02*
G37*
G36*
X433619Y1070700D02*
Y1069200D01*
X432089Y1068450D01*
Y1071450D01*
X433619Y1070700D01*
D02*
G37*
G36*
X430900Y1065480D02*
X429400D01*
X428650Y1067011D01*
X431650D01*
X430900Y1065480D01*
D02*
G37*
G36*
X431650Y1063889D02*
X428650D01*
X429400Y1065419D01*
X430900D01*
X431650Y1063889D01*
D02*
G37*
G36*
X423180Y1063920D02*
X422089Y1061798D01*
X419998Y1063889D01*
X422119Y1064980D01*
X423180Y1063920D01*
D02*
G37*
G36*
X412684Y1060862D02*
X410259Y1060512D01*
X410650Y1061936D01*
X412150Y1062177D01*
X412684Y1060862D01*
D02*
G37*
G36*
X414281Y1060200D02*
Y1058700D01*
X412900Y1058225D01*
Y1060675D01*
X414281Y1060200D01*
D02*
G37*
G36*
X418181Y1057980D02*
X416680Y1058700D01*
Y1060200D01*
X418181Y1060950D01*
Y1057980D01*
D02*
G37*
D10*
X714000Y1094750D02*
D03*
Y1074750D02*
D03*
Y1079750D02*
D03*
Y1084750D02*
D03*
Y1089750D02*
D03*
Y1099750D02*
D03*
Y1104750D02*
D03*
Y1109750D02*
D03*
Y1114750D02*
D03*
Y1119750D02*
D03*
X666040Y1073810D02*
D03*
Y1078810D02*
D03*
Y1083810D02*
D03*
Y1088810D02*
D03*
Y1093810D02*
D03*
Y1098810D02*
D03*
Y1103810D02*
D03*
Y1108810D02*
D03*
Y1113810D02*
D03*
Y1118810D02*
D03*
X298150Y1118700D02*
D03*
Y1113700D02*
D03*
Y1108700D02*
D03*
Y1103700D02*
D03*
Y1098700D02*
D03*
Y1093700D02*
D03*
Y1088700D02*
D03*
Y1083700D02*
D03*
Y1078700D02*
D03*
Y1073700D02*
D03*
X297880Y1024290D02*
D03*
Y1019290D02*
D03*
Y1014290D02*
D03*
Y1009290D02*
D03*
Y1004290D02*
D03*
Y999290D02*
D03*
Y994290D02*
D03*
Y989290D02*
D03*
Y984290D02*
D03*
Y979290D02*
D03*
D11*
X811749Y1094000D02*
D03*
X801749D02*
D03*
X420150Y1078950D02*
D03*
X430150D02*
D03*
X420150Y1069950D02*
D03*
X430150D02*
D03*
X420150Y1060950D02*
D03*
X430150D02*
D03*
D12*
X794980Y1094096D02*
X795020Y1094135D01*
X801249D01*
X794749D02*
X794789Y1094096D01*
X794980D01*
X794749Y1089500D02*
Y1094135D01*
X789999Y1084750D02*
X794749Y1089500D01*
X714000Y1084750D02*
X789999D01*
X576290Y1122810D02*
X568040D01*
X567790Y1123060D01*
X592540Y1097060D02*
X578290D01*
X576290Y1099060D01*
Y1122810D02*
Y1099060D01*
X666040Y1108810D02*
X645540D01*
X297880Y989290D02*
X320380D01*
D13*
X812576Y1085423D02*
Y1087673D01*
X810749Y1089500D02*
X812576Y1087673D01*
X810749Y1089500D02*
Y1097500D01*
X812576Y1085423D02*
X812749Y1085250D01*
X744500Y1108500D02*
X794749D01*
X817999Y1100500D02*
Y1108500D01*
X814749Y1111750D02*
X817999Y1108500D01*
X744715Y1111750D02*
X814749D01*
X812749Y1105750D02*
Y1108500D01*
X810749Y1103750D02*
X812749Y1105750D01*
X810749Y1097500D02*
Y1103750D01*
X810749Y1097500D02*
X810749Y1097500D01*
X743250Y1109750D02*
X744500Y1108500D01*
X714000Y1109750D02*
X743250D01*
X741714Y1114750D02*
X744715Y1111750D01*
X714000Y1114750D02*
X741714D01*
X496415Y1093435D02*
X496290Y1093310D01*
X553040Y1093560D02*
X552915Y1093435D01*
X496415D01*
X558040Y1093560D02*
X553040D01*
X552540Y1078810D02*
X552290Y1078560D01*
X496540D01*
X496290Y1078310D01*
X666040Y1078810D02*
X552540D01*
X666040Y1088810D02*
X496290D01*
X552540Y1083810D02*
X552415Y1083685D01*
X496665D02*
X496540Y1083810D01*
X552415Y1083685D02*
X496665D01*
X666040Y1083810D02*
X552540D01*
X665790Y1093560D02*
X558040D01*
X558190Y1123810D02*
Y1093710D01*
X558040Y1093560D01*
X666040Y1093810D02*
X665790Y1093560D01*
X666040Y1098810D02*
X645790D01*
X645540Y1098560D01*
X645790Y1103810D02*
X645540Y1103560D01*
X666040Y1103810D02*
X645790D01*
X298150Y1113700D02*
X322650D01*
X298150Y1108700D02*
X298400Y1108950D01*
X322650D01*
X298150Y1103700D02*
X322650D01*
X298150Y1098700D02*
X322650D01*
X298150Y1093700D02*
X298400Y1093450D01*
X322650D01*
X298400Y1088450D02*
X322650D01*
X298150Y1088700D02*
X298400Y1088450D01*
X419651Y1088700D02*
X422496D01*
X424400Y1090604D02*
Y1094700D01*
X422496Y1088700D02*
X424400Y1090604D01*
X417900Y1098200D02*
Y1105296D01*
X418904Y1106300D02*
Y1108704D01*
X417150Y1097450D02*
X417900Y1098200D01*
X421150Y1097950D02*
X424400Y1094700D01*
X418904Y1108704D02*
X419150Y1108950D01*
X421150Y1097950D02*
Y1103950D01*
X417900Y1105296D02*
X418904Y1106300D01*
X418551Y1089800D02*
X419651Y1088700D01*
X415300Y1089800D02*
X418551D01*
X415150Y1089950D02*
X415300Y1089800D01*
X415150Y1109950D02*
X419150Y1113950D01*
X415150Y1099950D02*
Y1109950D01*
X410150Y1095200D02*
X412400Y1097450D01*
X410150Y1094950D02*
Y1095200D01*
X418650Y1081450D02*
X420150Y1079950D01*
X410150Y1089950D02*
X418650Y1081450D01*
X420150Y1078950D02*
Y1079950D01*
X418650Y1081450D02*
X418650D01*
X297880Y1019290D02*
X320880D01*
X325130Y1014290D02*
X325380D01*
X297880D02*
X325130D01*
X297880Y999290D02*
X298380Y999790D01*
X321130D01*
X321380Y999540D01*
X320630Y994540D02*
X320880D01*
X298130D02*
X320630D01*
X297880Y994290D02*
X298130Y994540D01*
X364130Y1012540D02*
X366630Y1010040D01*
X360130Y1012540D02*
X364130D01*
X579630Y1027790D02*
X580380Y1027040D01*
X587130D01*
X606130Y1027290D02*
X606630Y1027790D01*
X617880D01*
X668130Y977290D02*
X676380D01*
X677130Y978040D02*
Y981290D01*
X676380Y977290D02*
X677130Y978040D01*
X638130Y977790D02*
X645380D01*
X647130Y979540D01*
Y983540D01*
X697880Y980040D02*
X707130D01*
X697380Y980540D02*
X697880Y980040D01*
X729130Y979540D02*
X729630Y979040D01*
X737130D01*
X759880Y976290D02*
X760380Y975790D01*
X767130D01*
X775630Y975540D02*
X779380Y979290D01*
Y981540D01*
X409380Y974290D02*
Y981540D01*
X392880Y998040D02*
X409380Y981540D01*
X399630Y1028790D02*
X407630D01*
X399130Y1028290D02*
X399630Y1028790D01*
X409130Y1012290D02*
X411130D01*
X403880Y1017540D02*
X409130Y1012290D01*
X551792Y1027790D02*
X552292Y1027290D01*
X557130D01*
X547630Y1027790D02*
X551792D01*
X515880Y1026540D02*
X527130D01*
D14*
X714000Y1074750D02*
X736750D01*
X477540Y1116060D02*
Y1109810D01*
X501290Y1060810D02*
X496915Y1065185D01*
X497290Y1126060D02*
X477790D01*
X497540D02*
X497290D01*
X502290Y1060810D02*
X501290D01*
X477790Y1126060D02*
X477290Y1125560D01*
X497905Y1070810D02*
X496404Y1072310D01*
X496040D01*
X502290Y1070810D02*
X497905D01*
X576290Y1132810D02*
X558790D01*
X585040D02*
X576290D01*
X666040Y1118810D02*
X646290D01*
X666040Y1073810D02*
X646290D01*
X298150Y1118700D02*
X298275Y1118575D01*
X322525D02*
X322650Y1118450D01*
X298275Y1118575D02*
X322525D01*
X406150Y1120950D02*
Y1126200D01*
X297880Y979290D02*
X320880D01*
X320630Y984290D02*
X320630Y984290D01*
X297880Y984290D02*
X320630D01*
D15*
X502290Y1060810D02*
D03*
Y1070810D02*
D03*
X477290Y1115560D02*
D03*
Y1125560D02*
D03*
X486040Y1115560D02*
D03*
Y1125560D02*
D03*
X576290Y1132810D02*
D03*
Y1122810D02*
D03*
X585040D02*
D03*
Y1132810D02*
D03*
X415150Y1130950D02*
D03*
Y1120950D02*
D03*
X406150Y1130950D02*
D03*
Y1120950D02*
D03*
D16*
X568390Y1123810D02*
D03*
X558190D02*
D03*
D17*
X494290Y1114810D02*
X484540D01*
X666040Y1113810D02*
X587040D01*
X585040Y1115810D01*
Y1122810D02*
Y1115810D01*
D18*
X415150Y1099950D02*
D03*
Y1094950D02*
D03*
X405150Y1099950D02*
D03*
X410150D02*
D03*
X405150Y1094950D02*
D03*
X410150D02*
D03*
X405150Y1089950D02*
D03*
X410150D02*
D03*
X415150D02*
D03*
D19*
X398691D02*
X405150D01*
X396650Y1088450D02*
X397191D01*
X398691Y1089950D01*
X396650Y1130950D02*
X415150D01*
X430150Y1060950D02*
Y1078950D01*
X430150Y1069950D02*
X435650D01*
X439650Y1073950D01*
X430150Y1060950D02*
X430150Y1060950D01*
X430150Y1078950D02*
X430150Y1078950D01*
X404150Y1067950D02*
Y1070950D01*
X401400Y1073700D02*
X404150Y1070950D01*
X396775Y1104575D02*
X401400Y1099950D01*
X407400Y1078700D02*
X411400Y1074700D01*
X437150Y1085579D02*
Y1110950D01*
X436271Y1084700D02*
X437150Y1085579D01*
X427150Y1120950D02*
X437150Y1110950D01*
X428425Y1084700D02*
X436271D01*
X425150Y1081425D02*
X428425Y1084700D01*
X425150Y1066950D02*
Y1081425D01*
X421150Y1061950D02*
Y1062950D01*
X425150Y1066950D01*
X415150Y1120950D02*
X427150D01*
X418050Y1092050D02*
X421050D01*
X415150Y1094950D02*
X418050Y1092050D01*
X421050D02*
X421150Y1091950D01*
X410150Y1109950D02*
X415150Y1114950D01*
Y1120950D01*
X410150Y1099950D02*
Y1109950D01*
X415150Y1070950D02*
X419400D01*
X415150D02*
Y1077950D01*
X298150Y1083700D02*
X409400D01*
X415150Y1077950D01*
X298150Y1078700D02*
X407400D01*
X411400Y1060200D02*
Y1074700D01*
X411150Y1059950D02*
X411400Y1060200D01*
X298150Y1073700D02*
X401400D01*
X411650Y1059450D02*
X419650D01*
X420400Y1060200D01*
X419400Y1070950D02*
X419900Y1070450D01*
X401400Y1099950D02*
X405150D01*
D20*
X396650Y1097819D02*
X399519Y1094950D01*
X405150D01*
X396650Y1097819D02*
Y1097950D01*
D21*
X412400Y1097450D02*
X417150D01*
D22*
X354380Y1002040D02*
D03*
X384380D02*
D03*
X414380D02*
D03*
X444380D02*
D03*
X474380D02*
D03*
X504380D02*
D03*
X534380D02*
D03*
X594380D02*
D03*
X624380D02*
D03*
X654380D02*
D03*
X684380D02*
D03*
X714380D02*
D03*
X744380D02*
D03*
X774380D02*
D03*
X564380D02*
D03*
D23*
X497630Y1026290D02*
X497880Y1026040D01*
X489630Y1026290D02*
X497630D01*
X456380Y1028540D02*
X467630D01*
X455880Y1028040D02*
X456380Y1028540D01*
D24*
X812500Y1045000D02*
D03*
X287750Y1045000D02*
D03*
X312750D02*
D03*
X337750D02*
D03*
X362750D02*
D03*
X387750D02*
D03*
X412750D02*
D03*
X437750D02*
D03*
X462750D02*
D03*
X487750D02*
D03*
X512750D02*
D03*
X537750D02*
D03*
X562750D02*
D03*
X587750D02*
D03*
X612750D02*
D03*
X637750D02*
D03*
X662750D02*
D03*
X687750D02*
D03*
X712750D02*
D03*
X737750D02*
D03*
X762750D02*
D03*
X787750D02*
D03*
D25*
X690000Y1065000D02*
D03*
Y1090000D02*
D03*
Y1140000D02*
D03*
Y1115000D02*
D03*
X456000Y1065500D02*
D03*
Y1090500D02*
D03*
Y1115500D02*
D03*
Y1140500D02*
D03*
D26*
X794749Y1094000D02*
D03*
X806749Y1108500D02*
D03*
X736750Y1074750D02*
D03*
X794749Y1108500D02*
D03*
X812749D02*
D03*
X806749Y1085250D02*
D03*
X817999Y1100500D02*
D03*
X817999Y1094000D02*
D03*
X812749Y1085250D02*
D03*
X821249Y1097250D02*
D03*
X497040Y1065060D02*
D03*
X497290Y1126060D02*
D03*
X593040Y1113560D02*
D03*
X496540Y1103060D02*
D03*
Y1097810D02*
D03*
X496290Y1093310D02*
D03*
X496040Y1072310D02*
D03*
X496290Y1078310D02*
D03*
Y1088810D02*
D03*
X496540Y1083810D02*
D03*
X477540Y1109810D02*
D03*
X494290Y1114810D02*
D03*
X504290Y1125560D02*
D03*
X558790Y1132810D02*
D03*
X569040Y1096810D02*
D03*
X553040Y1093560D02*
D03*
X552540Y1083560D02*
D03*
Y1078810D02*
D03*
X592540Y1097060D02*
D03*
X646290Y1118810D02*
D03*
X645540Y1108810D02*
D03*
Y1103560D02*
D03*
X645790Y1098810D02*
D03*
X646290Y1073810D02*
D03*
X397150Y1087950D02*
D03*
X396650Y1130950D02*
D03*
X439650Y1073950D02*
D03*
X322650Y1118450D02*
D03*
Y1113700D02*
D03*
Y1108950D02*
D03*
Y1103700D02*
D03*
Y1098700D02*
D03*
Y1093450D02*
D03*
Y1088450D02*
D03*
X396650Y1097950D02*
D03*
X406150Y1126200D02*
D03*
X430150Y1103700D02*
D03*
X425650Y1103700D02*
D03*
X427150Y1088450D02*
D03*
X421150Y1103950D02*
D03*
Y1091950D02*
D03*
X419150Y1108950D02*
D03*
Y1113950D02*
D03*
X414900Y1070950D02*
D03*
X411650Y1059450D02*
D03*
X404150Y1067950D02*
D03*
X396650Y1104450D02*
D03*
X432880Y1015290D02*
D03*
X433130Y988540D02*
D03*
X320380Y979040D02*
D03*
X320630Y984290D02*
D03*
Y989290D02*
D03*
Y994540D02*
D03*
X321130Y999790D02*
D03*
X320880Y1019290D02*
D03*
X325130Y1014290D02*
D03*
X366630Y1010040D02*
D03*
X375630Y986040D02*
D03*
X385630Y1027540D02*
D03*
X374630Y1018040D02*
D03*
X371630Y1013790D02*
D03*
X647130Y983540D02*
D03*
X677130Y981290D02*
D03*
X775630Y975540D02*
D03*
X737130Y979040D02*
D03*
X409630Y974790D02*
D03*
X707130Y980040D02*
D03*
X767130Y975790D02*
D03*
X392880Y998040D02*
D03*
X415630Y1028790D02*
D03*
X452880Y997790D02*
D03*
X617880Y1027790D02*
D03*
X587130Y1027040D02*
D03*
X407630Y1028790D02*
D03*
X403880Y1017540D02*
D03*
X557130Y1027290D02*
D03*
X527130Y1026540D02*
D03*
X497880Y1026040D02*
D03*
X467630Y1028540D02*
D03*
M02*
