G04*
G04 #@! TF.GenerationSoftware,Altium Limited,Altium Designer,26.4.1 (12)*
G04*
G04 Layer_Color=16711935*
%FSLAX44Y44*%
%MOMM*%
G71*
G04*
G04 #@! TF.SameCoordinates,8F52405A-A2E0-4153-8A60-8C4F9B0F4C2B*
G04*
G04*
G04 #@! TF.FilePolarity,Positive*
G04*
G01*
G75*
%ADD12C,0.1000*%
D12*
X830000Y959710D02*
Y1147500D01*
X279000Y959710D02*
Y1147500D01*
Y959710D02*
X830000D01*
X279000Y1147500D02*
X830000Y1147500D01*
X697000Y1072750D02*
G03*
X700000Y1069750I3000J0D01*
G01*
Y1124750D02*
G03*
X697000Y1121750I0J-3000D01*
G01*
Y1072750D02*
G03*
X700000Y1069750I3000J0D01*
G01*
Y1124750D02*
G03*
X697000Y1121750I0J-3000D01*
G01*
X827000Y1080000D02*
Y1115000D01*
X745000Y1080000D02*
X827000D01*
X745000Y1115000D02*
X827000D01*
X745000D02*
Y1124750D01*
Y1069750D02*
Y1080000D01*
X700000Y1069750D02*
X745000Y1069750D01*
X700000Y1124750D02*
X745000D01*
X697000Y1072750D02*
Y1121750D01*
Y1072750D02*
Y1121750D01*
X700000Y1124750D02*
X744500D01*
X700000Y1069750D02*
X744500D01*
X680040Y1068810D02*
G03*
X683040Y1071810I0J3000D01*
G01*
Y1120810D02*
G03*
X680040Y1123810I-3000J0D01*
G01*
X683040Y1120810D02*
G03*
X680040Y1123810I-3000J0D01*
G01*
Y1068810D02*
G03*
X683040Y1071810I0J3000D01*
G01*
X465290Y1138810D02*
X465290Y1138810D01*
X510040Y1138810D02*
X465290D01*
X465040D02*
Y1053810D01*
X511665D02*
X465040D01*
X511665Y1068810D02*
Y1053810D01*
X551665Y1068810D02*
Y1053810D01*
X551415Y1068810D02*
X511665D01*
X550040Y1123810D02*
X510290D01*
X510040Y1138810D02*
Y1123810D01*
X550040Y1138810D02*
Y1123810D01*
X595040Y1138810D02*
X550040D01*
X595040Y1053810D02*
X551665D01*
X683040Y1120810D02*
Y1071810D01*
X680040Y1123810D02*
X595040D01*
X680040Y1068810D02*
X595040D01*
Y1138810D02*
Y1123810D01*
Y1068810D02*
Y1053810D01*
X683040Y1120810D02*
Y1071810D01*
X680040Y1068810D02*
X635540D01*
X680040Y1123810D02*
X635540D01*
X284150Y1123700D02*
G03*
X281150Y1120700I0J-3000D01*
G01*
Y1071700D02*
G03*
X284150Y1068700I3000J0D01*
G01*
X281150Y1071700D02*
G03*
X284150Y1068700I3000J0D01*
G01*
Y1123700D02*
G03*
X281150Y1120700I0J-3000D01*
G01*
X384150Y1138700D02*
X447150D01*
X384150Y1053700D02*
X447150D01*
Y1138700D01*
X284150Y1068700D02*
X328650D01*
X284150Y1123700D02*
X328650D01*
X281150Y1071700D02*
Y1120700D01*
X384150Y1123700D02*
Y1138700D01*
Y1053700D02*
Y1068700D01*
X284150Y1123700D02*
X384150D01*
X284150Y1068700D02*
X384150D01*
X281150Y1071700D02*
Y1120700D01*
X280880Y977290D02*
G03*
X283880Y974290I3000J0D01*
G01*
Y1029290D02*
G03*
X280880Y1026290I0J-3000D01*
G01*
Y977290D02*
G03*
X283880Y974290I3000J0D01*
G01*
Y1029290D02*
G03*
X280880Y1026290I0J-3000D01*
G01*
X328380Y969540D02*
Y974290D01*
Y969540D02*
X796880D01*
Y1034540D01*
X328380D02*
X796880D01*
X328380Y1029290D02*
Y1034540D01*
X283880Y974290D02*
X328380Y974290D01*
X283880Y1029290D02*
X328380D01*
X280880Y977290D02*
Y1026290D01*
X283880Y1029290D02*
X328380D01*
X283880Y974290D02*
X328380D01*
X280880Y977290D02*
Y1026290D01*
M02*
