G04*
G04 #@! TF.GenerationSoftware,Altium Limited,Altium Designer,26.4.1 (12)*
G04*
G04 Layer_Color=8388736*
%FSLAX44Y44*%
%MOMM*%
G71*
G04*
G04 #@! TF.SameCoordinates,8F52405A-A2E0-4153-8A60-8C4F9B0F4C2B*
G04*
G04*
G04 #@! TF.FilePolarity,Negative*
G04*
G01*
G75*
%ADD10R,3.0000X0.3500*%
%ADD11R,0.4000X0.6000*%
%ADD16R,0.4000X0.5500*%
%ADD18R,0.3000X1.4500*%
G04:AMPARAMS|DCode=22|XSize=0.2mm|YSize=1.2mm|CornerRadius=0.05mm|HoleSize=0mm|Usage=FLASHONLY|Rotation=90.000|XOffset=0mm|YOffset=0mm|HoleType=Round|Shape=RoundedRectangle|*
%AMROUNDEDRECTD22*
21,1,0.2000,1.1000,0,0,90.0*
21,1,0.1000,1.2000,0,0,90.0*
1,1,0.1000,0.5500,0.0500*
1,1,0.1000,0.5500,-0.0500*
1,1,0.1000,-0.5500,-0.0500*
1,1,0.1000,-0.5500,0.0500*
%
%ADD22ROUNDEDRECTD22*%
G04:AMPARAMS|DCode=23|XSize=0.2mm|YSize=1.2mm|CornerRadius=0.05mm|HoleSize=0mm|Usage=FLASHONLY|Rotation=180.000|XOffset=0mm|YOffset=0mm|HoleType=Round|Shape=RoundedRectangle|*
%AMROUNDEDRECTD23*
21,1,0.2000,1.1000,0,0,180.0*
21,1,0.1000,1.2000,0,0,180.0*
1,1,0.1000,-0.0500,0.5500*
1,1,0.1000,0.0500,0.5500*
1,1,0.1000,0.0500,-0.5500*
1,1,0.1000,-0.0500,-0.5500*
%
%ADD23ROUNDEDRECTD23*%
%ADD37R,0.6800X0.4800*%
%ADD38R,0.4800X0.6800*%
D10*
X714000Y1094750D02*
D03*
Y1074750D02*
D03*
Y1079750D02*
D03*
Y1084750D02*
D03*
Y1089750D02*
D03*
Y1099750D02*
D03*
Y1104750D02*
D03*
Y1109750D02*
D03*
Y1114750D02*
D03*
Y1119750D02*
D03*
X666040Y1073810D02*
D03*
Y1078810D02*
D03*
Y1083810D02*
D03*
Y1088810D02*
D03*
Y1093810D02*
D03*
Y1098810D02*
D03*
Y1103810D02*
D03*
Y1108810D02*
D03*
Y1113810D02*
D03*
Y1118810D02*
D03*
X298150Y1118700D02*
D03*
Y1113700D02*
D03*
Y1108700D02*
D03*
Y1103700D02*
D03*
Y1098700D02*
D03*
Y1093700D02*
D03*
Y1088700D02*
D03*
Y1083700D02*
D03*
Y1078700D02*
D03*
Y1073700D02*
D03*
X297880Y1024290D02*
D03*
Y1019290D02*
D03*
Y1014290D02*
D03*
Y1009290D02*
D03*
Y1004290D02*
D03*
Y999290D02*
D03*
Y994290D02*
D03*
Y989290D02*
D03*
Y984290D02*
D03*
Y979290D02*
D03*
D11*
X811749Y1094000D02*
D03*
X801749D02*
D03*
D16*
X568390Y1123810D02*
D03*
X558190D02*
D03*
D18*
X411150Y1077200D02*
D03*
X416150D02*
D03*
X421150D02*
D03*
X426150D02*
D03*
X431150D02*
D03*
X411150Y1121200D02*
D03*
X416150D02*
D03*
X421150D02*
D03*
X426150D02*
D03*
X431150D02*
D03*
D22*
X812500Y1045000D02*
D03*
X287750Y1045000D02*
D03*
X312750D02*
D03*
X337750D02*
D03*
X362750D02*
D03*
X387750D02*
D03*
X412750D02*
D03*
X437750D02*
D03*
X462750D02*
D03*
X487750D02*
D03*
X512750D02*
D03*
X537750D02*
D03*
X562750D02*
D03*
X587750D02*
D03*
X612750D02*
D03*
X637750D02*
D03*
X662750D02*
D03*
X687750D02*
D03*
X712750D02*
D03*
X737750D02*
D03*
X762750D02*
D03*
X787750D02*
D03*
D23*
X690000Y1065000D02*
D03*
Y1090000D02*
D03*
Y1140000D02*
D03*
Y1115000D02*
D03*
X456000Y1065500D02*
D03*
Y1090500D02*
D03*
Y1115500D02*
D03*
Y1140500D02*
D03*
D37*
X477290Y1125560D02*
D03*
Y1115560D02*
D03*
X486040Y1125560D02*
D03*
Y1115560D02*
D03*
X502290Y1060810D02*
D03*
Y1070810D02*
D03*
X576290Y1132810D02*
D03*
Y1122810D02*
D03*
X585040D02*
D03*
Y1132810D02*
D03*
D38*
X431150Y1061200D02*
D03*
X441150D02*
D03*
X389900Y1123200D02*
D03*
X399900D02*
D03*
Y1132200D02*
D03*
X389900D02*
D03*
X399650Y1069950D02*
D03*
X389650D02*
D03*
X399650Y1061200D02*
D03*
X389650D02*
D03*
M02*
