G04*
G04 #@! TF.GenerationSoftware,Altium Limited,Altium Designer,23.2.1 (34)*
G04*
G04 Layer_Color=8388736*
%FSLAX44Y44*%
%MOMM*%
G71*
G04*
G04 #@! TF.SameCoordinates,58AE84E4-B62A-48DD-9498-F40C1AAB4627*
G04*
G04*
G04 #@! TF.FilePolarity,Positive*
G04*
G01*
G75*
%ADD13C,0.1000*%
%ADD19C,0.1500*%
%ADD42C,0.2540*%
G36*
X744500Y1069750D02*
X699403D01*
X698301Y1070207D01*
X697457Y1071051D01*
X697000Y1072153D01*
Y1072750D01*
Y1121750D01*
Y1122347D01*
X697457Y1123449D01*
X698301Y1124293D01*
X699403Y1124750D01*
X744500D01*
Y1069750D01*
D02*
G37*
G36*
X681739Y1123353D02*
X682583Y1122509D01*
X683040Y1121407D01*
Y1120810D01*
Y1071810D01*
Y1071213D01*
X682583Y1070111D01*
X681739Y1069267D01*
X680637Y1068810D01*
X635540D01*
Y1123810D01*
X680637D01*
X681739Y1123353D01*
D02*
G37*
G36*
X328650Y1068700D02*
X283553D01*
X282451Y1069157D01*
X281607Y1070001D01*
X281150Y1071103D01*
Y1071700D01*
Y1120700D01*
Y1121297D01*
X281607Y1122399D01*
X282451Y1123243D01*
X283553Y1123700D01*
X328650D01*
Y1068700D01*
D02*
G37*
G36*
X905972Y1077085D02*
X901523D01*
X901513D01*
X901491D01*
X901449D01*
X901407D01*
X901280Y1077074D01*
X901122D01*
X900953Y1077053D01*
X900783Y1077032D01*
X900625Y1077011D01*
X900488Y1076969D01*
X900477D01*
X900435Y1076947D01*
X900382Y1076916D01*
X900308Y1076873D01*
X900223Y1076810D01*
X900139Y1076747D01*
X900054Y1076652D01*
X899980Y1076546D01*
X899970Y1076535D01*
X899949Y1076493D01*
X899917Y1076430D01*
X899875Y1076345D01*
X899843Y1076239D01*
X899811Y1076113D01*
X899790Y1075975D01*
X899780Y1075827D01*
Y1075753D01*
X899790Y1075701D01*
Y1075637D01*
X899801Y1075563D01*
X899843Y1075394D01*
X899896Y1075193D01*
X899991Y1074982D01*
X900107Y1074781D01*
X900192Y1074676D01*
X900276Y1074581D01*
X900287D01*
X900297Y1074559D01*
X900329Y1074538D01*
X900371Y1074507D01*
X900424Y1074464D01*
X900488Y1074422D01*
X900572Y1074380D01*
X900657Y1074337D01*
X900762Y1074285D01*
X900879Y1074242D01*
X901016Y1074200D01*
X901153Y1074158D01*
X901312Y1074126D01*
X901491Y1074105D01*
X901671Y1074094D01*
X901872Y1074084D01*
X905972D01*
Y1072890D01*
X901386D01*
X901375D01*
X901354D01*
X901312D01*
X901248D01*
X901185Y1072879D01*
X901111D01*
X900931Y1072858D01*
X900741Y1072816D01*
X900540Y1072763D01*
X900350Y1072689D01*
X900181Y1072594D01*
X900160Y1072583D01*
X900118Y1072541D01*
X900054Y1072467D01*
X899980Y1072372D01*
X899906Y1072235D01*
X899843Y1072076D01*
X899801Y1071876D01*
X899780Y1071643D01*
Y1071559D01*
X899790Y1071463D01*
X899811Y1071337D01*
X899843Y1071189D01*
X899896Y1071030D01*
X899959Y1070872D01*
X900054Y1070703D01*
X900065Y1070682D01*
X900107Y1070629D01*
X900160Y1070555D01*
X900255Y1070470D01*
X900361Y1070365D01*
X900498Y1070259D01*
X900657Y1070164D01*
X900836Y1070079D01*
X900847D01*
X900857Y1070069D01*
X900889Y1070058D01*
X900931Y1070048D01*
X900984Y1070037D01*
X901048Y1070016D01*
X901122Y1070005D01*
X901206Y1069984D01*
X901312Y1069963D01*
X901417Y1069952D01*
X901534Y1069931D01*
X901671Y1069921D01*
X901808Y1069910D01*
X901967Y1069900D01*
X902125Y1069889D01*
X902305D01*
X905972D01*
Y1068695D01*
X898903D01*
Y1069762D01*
X899885D01*
X899875Y1069783D01*
X899811Y1069826D01*
X899716Y1069900D01*
X899600Y1070005D01*
X899463Y1070132D01*
X899325Y1070280D01*
X899188Y1070449D01*
X899061Y1070650D01*
Y1070660D01*
X899051Y1070671D01*
X899029Y1070703D01*
X899008Y1070745D01*
X898987Y1070798D01*
X898955Y1070861D01*
X898903Y1071009D01*
X898839Y1071199D01*
X898797Y1071411D01*
X898755Y1071654D01*
X898744Y1071907D01*
Y1072034D01*
X898755Y1072108D01*
X898765Y1072182D01*
X898786Y1072362D01*
X898829Y1072562D01*
X898881Y1072774D01*
X898966Y1072985D01*
X899072Y1073186D01*
Y1073196D01*
X899082Y1073207D01*
X899135Y1073270D01*
X899209Y1073355D01*
X899304Y1073471D01*
X899442Y1073587D01*
X899589Y1073704D01*
X899769Y1073809D01*
X899980Y1073904D01*
X899970Y1073915D01*
X899928Y1073947D01*
X899864Y1073989D01*
X899790Y1074063D01*
X899695Y1074137D01*
X899589Y1074242D01*
X899473Y1074359D01*
X899357Y1074496D01*
X899251Y1074644D01*
X899135Y1074813D01*
X899029Y1074993D01*
X898934Y1075183D01*
X898860Y1075394D01*
X898797Y1075616D01*
X898755Y1075848D01*
X898744Y1076092D01*
Y1076197D01*
X898755Y1076261D01*
X898765Y1076356D01*
X898776Y1076451D01*
X898797Y1076567D01*
X898818Y1076694D01*
X898892Y1076947D01*
X898998Y1077222D01*
X899061Y1077349D01*
X899135Y1077476D01*
X899230Y1077602D01*
X899336Y1077708D01*
X899346Y1077719D01*
X899368Y1077729D01*
X899399Y1077761D01*
X899442Y1077793D01*
X899505Y1077846D01*
X899579Y1077888D01*
X899674Y1077941D01*
X899780Y1077993D01*
X899896Y1078046D01*
X900023Y1078099D01*
X900171Y1078152D01*
X900329Y1078194D01*
X900509Y1078226D01*
X900699Y1078258D01*
X900900Y1078268D01*
X901122Y1078279D01*
X905972D01*
Y1077085D01*
D02*
G37*
G36*
Y1065736D02*
X901523D01*
X901513D01*
X901491D01*
X901449D01*
X901407D01*
X901280Y1065726D01*
X901122D01*
X900953Y1065705D01*
X900783Y1065684D01*
X900625Y1065663D01*
X900488Y1065620D01*
X900477D01*
X900435Y1065599D01*
X900382Y1065567D01*
X900308Y1065525D01*
X900223Y1065462D01*
X900139Y1065398D01*
X900054Y1065303D01*
X899980Y1065198D01*
X899970Y1065187D01*
X899949Y1065145D01*
X899917Y1065081D01*
X899875Y1064997D01*
X899843Y1064891D01*
X899811Y1064764D01*
X899790Y1064627D01*
X899780Y1064479D01*
Y1064405D01*
X899790Y1064352D01*
Y1064289D01*
X899801Y1064215D01*
X899843Y1064046D01*
X899896Y1063845D01*
X899991Y1063634D01*
X900107Y1063433D01*
X900192Y1063327D01*
X900276Y1063232D01*
X900287D01*
X900297Y1063211D01*
X900329Y1063190D01*
X900371Y1063158D01*
X900424Y1063116D01*
X900488Y1063074D01*
X900572Y1063031D01*
X900657Y1062989D01*
X900762Y1062936D01*
X900879Y1062894D01*
X901016Y1062852D01*
X901153Y1062810D01*
X901312Y1062778D01*
X901491Y1062757D01*
X901671Y1062746D01*
X901872Y1062736D01*
X905972D01*
Y1061542D01*
X901386D01*
X901375D01*
X901354D01*
X901312D01*
X901248D01*
X901185Y1061531D01*
X901111D01*
X900931Y1061510D01*
X900741Y1061468D01*
X900540Y1061415D01*
X900350Y1061341D01*
X900181Y1061246D01*
X900160Y1061235D01*
X900118Y1061193D01*
X900054Y1061119D01*
X899980Y1061024D01*
X899906Y1060887D01*
X899843Y1060728D01*
X899801Y1060527D01*
X899780Y1060295D01*
Y1060210D01*
X899790Y1060115D01*
X899811Y1059988D01*
X899843Y1059840D01*
X899896Y1059682D01*
X899959Y1059523D01*
X900054Y1059354D01*
X900065Y1059333D01*
X900107Y1059280D01*
X900160Y1059206D01*
X900255Y1059122D01*
X900361Y1059016D01*
X900498Y1058911D01*
X900657Y1058816D01*
X900836Y1058731D01*
X900847D01*
X900857Y1058720D01*
X900889Y1058710D01*
X900931Y1058699D01*
X900984Y1058689D01*
X901048Y1058668D01*
X901122Y1058657D01*
X901206Y1058636D01*
X901312Y1058615D01*
X901417Y1058604D01*
X901534Y1058583D01*
X901671Y1058572D01*
X901808Y1058562D01*
X901967Y1058551D01*
X902125Y1058541D01*
X902305D01*
X905972D01*
Y1057347D01*
X898903D01*
Y1058414D01*
X899885D01*
X899875Y1058435D01*
X899811Y1058477D01*
X899716Y1058551D01*
X899600Y1058657D01*
X899463Y1058784D01*
X899325Y1058932D01*
X899188Y1059101D01*
X899061Y1059302D01*
Y1059312D01*
X899051Y1059323D01*
X899029Y1059354D01*
X899008Y1059397D01*
X898987Y1059449D01*
X898955Y1059513D01*
X898903Y1059661D01*
X898839Y1059851D01*
X898797Y1060062D01*
X898755Y1060305D01*
X898744Y1060559D01*
Y1060686D01*
X898755Y1060760D01*
X898765Y1060834D01*
X898786Y1061013D01*
X898829Y1061214D01*
X898881Y1061425D01*
X898966Y1061637D01*
X899072Y1061837D01*
Y1061848D01*
X899082Y1061859D01*
X899135Y1061922D01*
X899209Y1062007D01*
X899304Y1062123D01*
X899442Y1062239D01*
X899589Y1062355D01*
X899769Y1062461D01*
X899980Y1062556D01*
X899970Y1062567D01*
X899928Y1062598D01*
X899864Y1062641D01*
X899790Y1062714D01*
X899695Y1062788D01*
X899589Y1062894D01*
X899473Y1063010D01*
X899357Y1063148D01*
X899251Y1063296D01*
X899135Y1063465D01*
X899029Y1063644D01*
X898934Y1063835D01*
X898860Y1064046D01*
X898797Y1064268D01*
X898755Y1064500D01*
X898744Y1064743D01*
Y1064849D01*
X898755Y1064912D01*
X898765Y1065007D01*
X898776Y1065102D01*
X898797Y1065219D01*
X898818Y1065346D01*
X898892Y1065599D01*
X898998Y1065874D01*
X899061Y1066001D01*
X899135Y1066127D01*
X899230Y1066254D01*
X899336Y1066360D01*
X899346Y1066370D01*
X899368Y1066381D01*
X899399Y1066413D01*
X899442Y1066444D01*
X899505Y1066497D01*
X899579Y1066540D01*
X899674Y1066592D01*
X899780Y1066645D01*
X899896Y1066698D01*
X900023Y1066751D01*
X900171Y1066804D01*
X900329Y1066846D01*
X900509Y1066878D01*
X900699Y1066909D01*
X900900Y1066920D01*
X901122Y1066930D01*
X905972D01*
Y1065736D01*
D02*
G37*
G36*
X903298Y1055846D02*
X903393D01*
X903499Y1055825D01*
X903626Y1055815D01*
X903763Y1055783D01*
X903911Y1055751D01*
X904080Y1055698D01*
X904249Y1055646D01*
X904418Y1055572D01*
X904598Y1055487D01*
X904778Y1055381D01*
X904947Y1055265D01*
X905126Y1055128D01*
X905285Y1054969D01*
X905295Y1054959D01*
X905316Y1054927D01*
X905359Y1054874D01*
X905412Y1054811D01*
X905485Y1054716D01*
X905549Y1054610D01*
X905633Y1054483D01*
X905707Y1054346D01*
X905781Y1054187D01*
X905866Y1054008D01*
X905929Y1053818D01*
X905993Y1053617D01*
X906056Y1053395D01*
X906098Y1053163D01*
X906119Y1052909D01*
X906130Y1052645D01*
Y1052581D01*
X906119Y1052507D01*
Y1052402D01*
X906109Y1052285D01*
X906088Y1052138D01*
X906056Y1051979D01*
X906024Y1051810D01*
X905982Y1051630D01*
X905919Y1051440D01*
X905855Y1051250D01*
X905771Y1051049D01*
X905676Y1050859D01*
X905559Y1050669D01*
X905433Y1050479D01*
X905285Y1050310D01*
X905274Y1050299D01*
X905242Y1050267D01*
X905200Y1050225D01*
X905126Y1050172D01*
X905042Y1050109D01*
X904947Y1050035D01*
X904830Y1049950D01*
X904693Y1049876D01*
X904545Y1049792D01*
X904387Y1049707D01*
X904207Y1049633D01*
X904027Y1049570D01*
X903827Y1049517D01*
X903605Y1049475D01*
X903383Y1049443D01*
X903150Y1049433D01*
X903140D01*
X903108D01*
X903055D01*
X902992Y1049443D01*
X902907D01*
X902812Y1049454D01*
X902707Y1049475D01*
X902590Y1049496D01*
X902347Y1049549D01*
X902083Y1049633D01*
X901819Y1049750D01*
X901692Y1049824D01*
X901565Y1049908D01*
X901555Y1049919D01*
X901534Y1049929D01*
X901502Y1049961D01*
X901460Y1050003D01*
X901407Y1050045D01*
X901354Y1050109D01*
X901280Y1050183D01*
X901217Y1050267D01*
X901069Y1050458D01*
X900921Y1050690D01*
X900794Y1050965D01*
X900688Y1051282D01*
Y1051271D01*
X900678Y1051250D01*
X900657Y1051208D01*
X900636Y1051165D01*
X900614Y1051102D01*
X900572Y1051028D01*
X900488Y1050870D01*
X900382Y1050690D01*
X900245Y1050510D01*
X900097Y1050331D01*
X899917Y1050183D01*
X899906D01*
X899896Y1050172D01*
X899864Y1050151D01*
X899822Y1050130D01*
X899716Y1050067D01*
X899579Y1050003D01*
X899399Y1049940D01*
X899188Y1049876D01*
X898955Y1049834D01*
X898702Y1049824D01*
X898691D01*
X898660D01*
X898596Y1049834D01*
X898522D01*
X898438Y1049845D01*
X898332Y1049866D01*
X898216Y1049887D01*
X898078Y1049919D01*
X897941Y1049961D01*
X897804Y1050014D01*
X897656Y1050067D01*
X897497Y1050141D01*
X897349Y1050236D01*
X897201Y1050331D01*
X897054Y1050447D01*
X896916Y1050584D01*
X896906Y1050595D01*
X896884Y1050616D01*
X896853Y1050658D01*
X896800Y1050722D01*
X896747Y1050796D01*
X896684Y1050891D01*
X896620Y1050996D01*
X896546Y1051123D01*
X896483Y1051261D01*
X896420Y1051419D01*
X896356Y1051578D01*
X896303Y1051757D01*
X896250Y1051958D01*
X896219Y1052159D01*
X896198Y1052381D01*
X896187Y1052613D01*
Y1052740D01*
X896198Y1052824D01*
X896208Y1052930D01*
X896229Y1053057D01*
X896250Y1053194D01*
X896282Y1053353D01*
X896324Y1053511D01*
X896367Y1053680D01*
X896430Y1053849D01*
X896504Y1054018D01*
X896589Y1054198D01*
X896694Y1054357D01*
X896800Y1054526D01*
X896937Y1054673D01*
X896948Y1054684D01*
X896969Y1054705D01*
X897011Y1054747D01*
X897064Y1054800D01*
X897138Y1054853D01*
X897223Y1054917D01*
X897328Y1054990D01*
X897434Y1055064D01*
X897561Y1055138D01*
X897698Y1055212D01*
X897846Y1055276D01*
X898004Y1055329D01*
X898174Y1055381D01*
X898353Y1055424D01*
X898543Y1055445D01*
X898734Y1055455D01*
X898744D01*
X898765D01*
X898797D01*
X898850D01*
X898903Y1055445D01*
X898977Y1055434D01*
X899135Y1055413D01*
X899315Y1055371D01*
X899515Y1055307D01*
X899716Y1055212D01*
X899917Y1055096D01*
X899928D01*
X899938Y1055075D01*
X900002Y1055033D01*
X900086Y1054948D01*
X900202Y1054832D01*
X900319Y1054673D01*
X900456Y1054494D01*
X900572Y1054272D01*
X900688Y1054018D01*
Y1054029D01*
X900699Y1054061D01*
X900720Y1054103D01*
X900741Y1054166D01*
X900773Y1054240D01*
X900815Y1054325D01*
X900921Y1054526D01*
X901048Y1054747D01*
X901217Y1054969D01*
X901407Y1055191D01*
X901639Y1055381D01*
X901650Y1055392D01*
X901671Y1055403D01*
X901703Y1055424D01*
X901756Y1055455D01*
X901819Y1055487D01*
X901893Y1055529D01*
X901977Y1055572D01*
X902073Y1055624D01*
X902294Y1055709D01*
X902559Y1055783D01*
X902854Y1055836D01*
X903013Y1055857D01*
X903182D01*
X903193D01*
X903235D01*
X903298Y1055846D01*
D02*
G37*
G36*
X897297Y1048249D02*
X897328Y1048217D01*
X897392Y1048165D01*
X897466Y1048101D01*
X897571Y1048017D01*
X897687Y1047911D01*
X897825Y1047805D01*
X897983Y1047679D01*
X898163Y1047541D01*
X898364Y1047393D01*
X898586Y1047235D01*
X898818Y1047076D01*
X899061Y1046918D01*
X899336Y1046749D01*
X899621Y1046569D01*
X899917Y1046400D01*
X899938Y1046389D01*
X899991Y1046358D01*
X900075Y1046315D01*
X900202Y1046252D01*
X900350Y1046178D01*
X900530Y1046083D01*
X900731Y1045988D01*
X900953Y1045882D01*
X901196Y1045777D01*
X901460Y1045660D01*
X901745Y1045544D01*
X902030Y1045428D01*
X902337Y1045312D01*
X902654Y1045195D01*
X903298Y1044995D01*
X903309D01*
X903351Y1044984D01*
X903425Y1044963D01*
X903510Y1044942D01*
X903626Y1044910D01*
X903763Y1044878D01*
X903922Y1044836D01*
X904091Y1044804D01*
X904281Y1044762D01*
X904492Y1044731D01*
X904714Y1044688D01*
X904947Y1044657D01*
X905190Y1044614D01*
X905443Y1044583D01*
X905972Y1044540D01*
Y1043315D01*
X905961D01*
X905919D01*
X905855D01*
X905771Y1043325D01*
X905655Y1043336D01*
X905528Y1043346D01*
X905369Y1043357D01*
X905200Y1043378D01*
X904999Y1043399D01*
X904799Y1043431D01*
X904566Y1043463D01*
X904323Y1043505D01*
X904059Y1043558D01*
X903784Y1043610D01*
X903499Y1043684D01*
X903203Y1043758D01*
X903182Y1043769D01*
X903129Y1043780D01*
X903045Y1043801D01*
X902928Y1043843D01*
X902780Y1043885D01*
X902601Y1043938D01*
X902411Y1044001D01*
X902199Y1044075D01*
X901967Y1044160D01*
X901713Y1044255D01*
X901449Y1044350D01*
X901185Y1044466D01*
X900625Y1044709D01*
X900054Y1044995D01*
X900033Y1045005D01*
X899991Y1045037D01*
X899906Y1045079D01*
X899801Y1045132D01*
X899674Y1045217D01*
X899526Y1045301D01*
X899357Y1045407D01*
X899167Y1045512D01*
X898977Y1045639D01*
X898765Y1045777D01*
X898343Y1046072D01*
X897909Y1046389D01*
X897698Y1046559D01*
X897497Y1046728D01*
Y1041952D01*
X896346D01*
Y1048260D01*
X897286D01*
X897297Y1048249D01*
D02*
G37*
G36*
X905972Y1038761D02*
X904608D01*
Y1040124D01*
X905972D01*
Y1038761D01*
D02*
G37*
G36*
X903298Y1036911D02*
X903393D01*
X903499Y1036890D01*
X903626Y1036880D01*
X903763Y1036848D01*
X903911Y1036816D01*
X904080Y1036763D01*
X904249Y1036711D01*
X904418Y1036637D01*
X904598Y1036552D01*
X904778Y1036446D01*
X904947Y1036330D01*
X905126Y1036193D01*
X905285Y1036034D01*
X905295Y1036024D01*
X905316Y1035992D01*
X905359Y1035939D01*
X905412Y1035876D01*
X905485Y1035781D01*
X905549Y1035675D01*
X905633Y1035548D01*
X905707Y1035411D01*
X905781Y1035252D01*
X905866Y1035073D01*
X905929Y1034883D01*
X905993Y1034682D01*
X906056Y1034460D01*
X906098Y1034228D01*
X906119Y1033974D01*
X906130Y1033710D01*
Y1033646D01*
X906119Y1033572D01*
Y1033467D01*
X906109Y1033351D01*
X906088Y1033203D01*
X906056Y1033044D01*
X906024Y1032875D01*
X905982Y1032695D01*
X905919Y1032505D01*
X905855Y1032315D01*
X905771Y1032114D01*
X905676Y1031924D01*
X905559Y1031734D01*
X905433Y1031544D01*
X905285Y1031375D01*
X905274Y1031364D01*
X905242Y1031332D01*
X905200Y1031290D01*
X905126Y1031237D01*
X905042Y1031174D01*
X904947Y1031100D01*
X904830Y1031015D01*
X904693Y1030941D01*
X904545Y1030857D01*
X904387Y1030772D01*
X904207Y1030698D01*
X904027Y1030635D01*
X903827Y1030582D01*
X903605Y1030540D01*
X903383Y1030508D01*
X903150Y1030498D01*
X903140D01*
X903108D01*
X903055D01*
X902992Y1030508D01*
X902907D01*
X902812Y1030519D01*
X902707Y1030540D01*
X902590Y1030561D01*
X902347Y1030614D01*
X902083Y1030698D01*
X901819Y1030815D01*
X901692Y1030889D01*
X901565Y1030973D01*
X901555Y1030984D01*
X901534Y1030994D01*
X901502Y1031026D01*
X901460Y1031068D01*
X901407Y1031110D01*
X901354Y1031174D01*
X901280Y1031248D01*
X901217Y1031332D01*
X901069Y1031523D01*
X900921Y1031755D01*
X900794Y1032030D01*
X900688Y1032347D01*
Y1032336D01*
X900678Y1032315D01*
X900657Y1032273D01*
X900636Y1032230D01*
X900614Y1032167D01*
X900572Y1032093D01*
X900488Y1031935D01*
X900382Y1031755D01*
X900245Y1031575D01*
X900097Y1031396D01*
X899917Y1031248D01*
X899906D01*
X899896Y1031237D01*
X899864Y1031216D01*
X899822Y1031195D01*
X899716Y1031132D01*
X899579Y1031068D01*
X899399Y1031005D01*
X899188Y1030941D01*
X898955Y1030899D01*
X898702Y1030889D01*
X898691D01*
X898660D01*
X898596Y1030899D01*
X898522D01*
X898438Y1030910D01*
X898332Y1030931D01*
X898216Y1030952D01*
X898078Y1030984D01*
X897941Y1031026D01*
X897804Y1031079D01*
X897656Y1031132D01*
X897497Y1031206D01*
X897349Y1031301D01*
X897201Y1031396D01*
X897054Y1031512D01*
X896916Y1031649D01*
X896906Y1031660D01*
X896884Y1031681D01*
X896853Y1031723D01*
X896800Y1031787D01*
X896747Y1031861D01*
X896684Y1031956D01*
X896620Y1032061D01*
X896546Y1032188D01*
X896483Y1032326D01*
X896420Y1032484D01*
X896356Y1032643D01*
X896303Y1032822D01*
X896250Y1033023D01*
X896219Y1033224D01*
X896198Y1033446D01*
X896187Y1033678D01*
Y1033805D01*
X896198Y1033889D01*
X896208Y1033995D01*
X896229Y1034122D01*
X896250Y1034259D01*
X896282Y1034418D01*
X896324Y1034576D01*
X896367Y1034745D01*
X896430Y1034914D01*
X896504Y1035083D01*
X896589Y1035263D01*
X896694Y1035422D01*
X896800Y1035591D01*
X896937Y1035739D01*
X896948Y1035749D01*
X896969Y1035770D01*
X897011Y1035812D01*
X897064Y1035865D01*
X897138Y1035918D01*
X897223Y1035982D01*
X897328Y1036056D01*
X897434Y1036129D01*
X897561Y1036203D01*
X897698Y1036277D01*
X897846Y1036341D01*
X898004Y1036394D01*
X898174Y1036446D01*
X898353Y1036489D01*
X898543Y1036510D01*
X898734Y1036520D01*
X898744D01*
X898765D01*
X898797D01*
X898850D01*
X898903Y1036510D01*
X898977Y1036499D01*
X899135Y1036478D01*
X899315Y1036436D01*
X899515Y1036373D01*
X899716Y1036277D01*
X899917Y1036161D01*
X899928D01*
X899938Y1036140D01*
X900002Y1036098D01*
X900086Y1036013D01*
X900202Y1035897D01*
X900319Y1035739D01*
X900456Y1035559D01*
X900572Y1035337D01*
X900688Y1035083D01*
Y1035094D01*
X900699Y1035126D01*
X900720Y1035168D01*
X900741Y1035231D01*
X900773Y1035305D01*
X900815Y1035390D01*
X900921Y1035591D01*
X901048Y1035812D01*
X901217Y1036034D01*
X901407Y1036256D01*
X901639Y1036446D01*
X901650Y1036457D01*
X901671Y1036468D01*
X901703Y1036489D01*
X901756Y1036520D01*
X901819Y1036552D01*
X901893Y1036594D01*
X901977Y1036637D01*
X902073Y1036689D01*
X902294Y1036774D01*
X902559Y1036848D01*
X902854Y1036901D01*
X903013Y1036922D01*
X903182D01*
X903193D01*
X903235D01*
X903298Y1036911D01*
D02*
G37*
G36*
X905972Y1026250D02*
X898353D01*
X898374Y1026229D01*
X898427Y1026176D01*
X898501Y1026081D01*
X898607Y1025943D01*
X898734Y1025785D01*
X898871Y1025584D01*
X899019Y1025362D01*
X899177Y1025109D01*
Y1025098D01*
X899198Y1025077D01*
X899220Y1025045D01*
X899241Y1024992D01*
X899283Y1024929D01*
X899315Y1024855D01*
X899410Y1024686D01*
X899505Y1024496D01*
X899611Y1024285D01*
X899706Y1024063D01*
X899790Y1023851D01*
X898638D01*
X898628Y1023862D01*
X898617Y1023894D01*
X898586Y1023946D01*
X898554Y1024020D01*
X898512Y1024105D01*
X898448Y1024211D01*
X898385Y1024327D01*
X898321Y1024443D01*
X898152Y1024718D01*
X897952Y1025014D01*
X897740Y1025320D01*
X897497Y1025605D01*
X897487Y1025616D01*
X897466Y1025637D01*
X897434Y1025679D01*
X897381Y1025732D01*
X897318Y1025785D01*
X897254Y1025859D01*
X897075Y1026017D01*
X896884Y1026197D01*
X896663Y1026377D01*
X896430Y1026535D01*
X896187Y1026673D01*
Y1027444D01*
X905972D01*
Y1026250D01*
D02*
G37*
G36*
X328380Y974290D02*
X283283D01*
X282181Y974747D01*
X281337Y975591D01*
X280880Y976693D01*
Y977290D01*
Y1026290D01*
Y1026887D01*
X281337Y1027989D01*
X282181Y1028833D01*
X283283Y1029290D01*
X328380D01*
Y974290D01*
D02*
G37*
G36*
X575280Y942245D02*
X575375Y942235D01*
X575470Y942224D01*
X575587Y942203D01*
X575713Y942182D01*
X575967Y942108D01*
X576242Y942002D01*
X576368Y941939D01*
X576495Y941865D01*
X576622Y941770D01*
X576728Y941664D01*
X576738Y941654D01*
X576749Y941633D01*
X576781Y941601D01*
X576812Y941559D01*
X576865Y941495D01*
X576907Y941421D01*
X576960Y941326D01*
X577013Y941220D01*
X577066Y941104D01*
X577119Y940977D01*
X577171Y940829D01*
X577214Y940671D01*
X577245Y940491D01*
X577277Y940301D01*
X577288Y940100D01*
X577298Y939878D01*
Y935029D01*
X576104D01*
Y939477D01*
Y939488D01*
Y939509D01*
Y939551D01*
Y939593D01*
X576094Y939720D01*
Y939878D01*
X576073Y940048D01*
X576051Y940217D01*
X576030Y940375D01*
X575988Y940512D01*
Y940523D01*
X575967Y940565D01*
X575935Y940618D01*
X575893Y940692D01*
X575830Y940777D01*
X575766Y940861D01*
X575671Y940946D01*
X575565Y941020D01*
X575555Y941030D01*
X575513Y941051D01*
X575449Y941083D01*
X575365Y941125D01*
X575259Y941157D01*
X575132Y941189D01*
X574995Y941210D01*
X574847Y941220D01*
X574773D01*
X574720Y941210D01*
X574657D01*
X574583Y941199D01*
X574414Y941157D01*
X574213Y941104D01*
X574002Y941009D01*
X573801Y940893D01*
X573695Y940808D01*
X573600Y940724D01*
Y940713D01*
X573579Y940703D01*
X573558Y940671D01*
X573526Y940629D01*
X573484Y940576D01*
X573442Y940512D01*
X573399Y940428D01*
X573357Y940343D01*
X573304Y940238D01*
X573262Y940122D01*
X573220Y939984D01*
X573177Y939847D01*
X573146Y939688D01*
X573125Y939509D01*
X573114Y939329D01*
X573103Y939128D01*
Y935029D01*
X571909D01*
Y939614D01*
Y939625D01*
Y939646D01*
Y939688D01*
Y939752D01*
X571899Y939815D01*
Y939889D01*
X571878Y940069D01*
X571835Y940259D01*
X571782Y940460D01*
X571709Y940650D01*
X571614Y940819D01*
X571603Y940840D01*
X571561Y940882D01*
X571487Y940946D01*
X571392Y941020D01*
X571254Y941094D01*
X571096Y941157D01*
X570895Y941199D01*
X570662Y941220D01*
X570578D01*
X570483Y941210D01*
X570356Y941189D01*
X570208Y941157D01*
X570050Y941104D01*
X569891Y941041D01*
X569722Y940946D01*
X569701Y940935D01*
X569648Y940893D01*
X569574Y940840D01*
X569490Y940745D01*
X569384Y940639D01*
X569278Y940502D01*
X569183Y940343D01*
X569099Y940164D01*
Y940153D01*
X569088Y940143D01*
X569078Y940111D01*
X569067Y940069D01*
X569056Y940016D01*
X569035Y939952D01*
X569025Y939878D01*
X569004Y939794D01*
X568983Y939688D01*
X568972Y939583D01*
X568951Y939466D01*
X568940Y939329D01*
X568930Y939192D01*
X568919Y939033D01*
X568909Y938875D01*
Y938695D01*
Y935029D01*
X567715D01*
Y942097D01*
X568782D01*
Y941115D01*
X568803Y941125D01*
X568845Y941189D01*
X568919Y941284D01*
X569025Y941400D01*
X569151Y941537D01*
X569299Y941675D01*
X569468Y941812D01*
X569669Y941939D01*
X569680D01*
X569690Y941949D01*
X569722Y941971D01*
X569764Y941992D01*
X569817Y942013D01*
X569881Y942045D01*
X570028Y942097D01*
X570219Y942161D01*
X570430Y942203D01*
X570673Y942245D01*
X570927Y942256D01*
X571054D01*
X571127Y942245D01*
X571201Y942235D01*
X571381Y942214D01*
X571582Y942171D01*
X571793Y942119D01*
X572004Y942034D01*
X572205Y941928D01*
X572216D01*
X572226Y941918D01*
X572290Y941865D01*
X572374Y941791D01*
X572491Y941696D01*
X572607Y941559D01*
X572723Y941411D01*
X572829Y941231D01*
X572924Y941020D01*
X572934Y941030D01*
X572966Y941072D01*
X573008Y941136D01*
X573082Y941210D01*
X573156Y941305D01*
X573262Y941411D01*
X573378Y941527D01*
X573515Y941643D01*
X573663Y941749D01*
X573832Y941865D01*
X574012Y941971D01*
X574202Y942066D01*
X574414Y942140D01*
X574636Y942203D01*
X574868Y942245D01*
X575111Y942256D01*
X575217D01*
X575280Y942245D01*
D02*
G37*
G36*
X563932D02*
X564027Y942235D01*
X564122Y942224D01*
X564238Y942203D01*
X564365Y942182D01*
X564618Y942108D01*
X564893Y942002D01*
X565020Y941939D01*
X565147Y941865D01*
X565274Y941770D01*
X565379Y941664D01*
X565390Y941654D01*
X565400Y941633D01*
X565432Y941601D01*
X565464Y941559D01*
X565517Y941495D01*
X565559Y941421D01*
X565612Y941326D01*
X565665Y941220D01*
X565717Y941104D01*
X565770Y940977D01*
X565823Y940829D01*
X565865Y940671D01*
X565897Y940491D01*
X565929Y940301D01*
X565939Y940100D01*
X565950Y939878D01*
Y935029D01*
X564756D01*
Y939477D01*
Y939488D01*
Y939509D01*
Y939551D01*
Y939593D01*
X564745Y939720D01*
Y939878D01*
X564724Y940048D01*
X564703Y940217D01*
X564682Y940375D01*
X564640Y940512D01*
Y940523D01*
X564618Y940565D01*
X564587Y940618D01*
X564545Y940692D01*
X564481Y940777D01*
X564418Y940861D01*
X564323Y940946D01*
X564217Y941020D01*
X564206Y941030D01*
X564164Y941051D01*
X564101Y941083D01*
X564016Y941125D01*
X563911Y941157D01*
X563784Y941189D01*
X563646Y941210D01*
X563498Y941220D01*
X563424D01*
X563372Y941210D01*
X563308D01*
X563234Y941199D01*
X563065Y941157D01*
X562864Y941104D01*
X562653Y941009D01*
X562452Y940893D01*
X562347Y940808D01*
X562252Y940724D01*
Y940713D01*
X562230Y940703D01*
X562209Y940671D01*
X562178Y940629D01*
X562135Y940576D01*
X562093Y940512D01*
X562051Y940428D01*
X562009Y940343D01*
X561956Y940238D01*
X561913Y940122D01*
X561871Y939984D01*
X561829Y939847D01*
X561797Y939688D01*
X561776Y939509D01*
X561766Y939329D01*
X561755Y939128D01*
Y935029D01*
X560561D01*
Y939614D01*
Y939625D01*
Y939646D01*
Y939688D01*
Y939752D01*
X560550Y939815D01*
Y939889D01*
X560529Y940069D01*
X560487Y940259D01*
X560434Y940460D01*
X560360Y940650D01*
X560265Y940819D01*
X560255Y940840D01*
X560212Y940882D01*
X560138Y940946D01*
X560043Y941020D01*
X559906Y941094D01*
X559747Y941157D01*
X559547Y941199D01*
X559314Y941220D01*
X559230D01*
X559135Y941210D01*
X559008Y941189D01*
X558860Y941157D01*
X558701Y941104D01*
X558543Y941041D01*
X558374Y940946D01*
X558353Y940935D01*
X558300Y940893D01*
X558226Y940840D01*
X558141Y940745D01*
X558036Y940639D01*
X557930Y940502D01*
X557835Y940343D01*
X557750Y940164D01*
Y940153D01*
X557740Y940143D01*
X557729Y940111D01*
X557719Y940069D01*
X557708Y940016D01*
X557687Y939952D01*
X557676Y939878D01*
X557655Y939794D01*
X557634Y939688D01*
X557624Y939583D01*
X557602Y939466D01*
X557592Y939329D01*
X557581Y939192D01*
X557571Y939033D01*
X557560Y938875D01*
Y938695D01*
Y935029D01*
X556366D01*
Y942097D01*
X557433D01*
Y941115D01*
X557454Y941125D01*
X557497Y941189D01*
X557571Y941284D01*
X557676Y941400D01*
X557803Y941537D01*
X557951Y941675D01*
X558120Y941812D01*
X558321Y941939D01*
X558331D01*
X558342Y941949D01*
X558374Y941971D01*
X558416Y941992D01*
X558469Y942013D01*
X558532Y942045D01*
X558680Y942097D01*
X558870Y942161D01*
X559082Y942203D01*
X559325Y942245D01*
X559578Y942256D01*
X559705D01*
X559779Y942245D01*
X559853Y942235D01*
X560033Y942214D01*
X560233Y942171D01*
X560445Y942119D01*
X560656Y942034D01*
X560857Y941928D01*
X560868D01*
X560878Y941918D01*
X560941Y941865D01*
X561026Y941791D01*
X561142Y941696D01*
X561258Y941559D01*
X561375Y941411D01*
X561480Y941231D01*
X561575Y941020D01*
X561586Y941030D01*
X561618Y941072D01*
X561660Y941136D01*
X561734Y941210D01*
X561808Y941305D01*
X561913Y941411D01*
X562030Y941527D01*
X562167Y941643D01*
X562315Y941749D01*
X562484Y941865D01*
X562664Y941971D01*
X562854Y942066D01*
X563065Y942140D01*
X563287Y942203D01*
X563520Y942245D01*
X563763Y942256D01*
X563868D01*
X563932Y942245D01*
D02*
G37*
G36*
X535540Y943513D02*
X531641D01*
X531123Y940893D01*
X531134Y940903D01*
X531165Y940925D01*
X531208Y940946D01*
X531271Y940988D01*
X531356Y941030D01*
X531451Y941083D01*
X531556Y941146D01*
X531683Y941199D01*
X531810Y941252D01*
X531958Y941316D01*
X532264Y941411D01*
X532433Y941453D01*
X532602Y941485D01*
X532782Y941495D01*
X532962Y941506D01*
X533014D01*
X533088Y941495D01*
X533173D01*
X533279Y941474D01*
X533405Y941463D01*
X533553Y941432D01*
X533701Y941400D01*
X533870Y941347D01*
X534039Y941294D01*
X534219Y941220D01*
X534399Y941136D01*
X534578Y941030D01*
X534758Y940914D01*
X534938Y940777D01*
X535107Y940618D01*
X535117Y940608D01*
X535149Y940576D01*
X535191Y940523D01*
X535244Y940460D01*
X535318Y940375D01*
X535392Y940259D01*
X535466Y940143D01*
X535550Y940005D01*
X535635Y939847D01*
X535709Y939667D01*
X535793Y939488D01*
X535857Y939276D01*
X535910Y939065D01*
X535952Y938832D01*
X535984Y938589D01*
X535994Y938336D01*
Y938325D01*
Y938272D01*
Y938209D01*
X535984Y938114D01*
X535973Y937998D01*
X535952Y937871D01*
X535931Y937723D01*
X535899Y937554D01*
X535857Y937385D01*
X535804Y937195D01*
X535741Y937004D01*
X535667Y936814D01*
X535582Y936624D01*
X535476Y936423D01*
X535360Y936233D01*
X535223Y936053D01*
X535212Y936043D01*
X535181Y936001D01*
X535128Y935948D01*
X535054Y935874D01*
X534959Y935779D01*
X534842Y935684D01*
X534705Y935567D01*
X534547Y935462D01*
X534378Y935356D01*
X534187Y935240D01*
X533976Y935145D01*
X533744Y935060D01*
X533501Y934976D01*
X533236Y934923D01*
X532962Y934881D01*
X532666Y934870D01*
X532539D01*
X532444Y934881D01*
X532328Y934891D01*
X532201Y934912D01*
X532053Y934933D01*
X531894Y934965D01*
X531725Y934997D01*
X531546Y935050D01*
X531366Y935113D01*
X531186Y935187D01*
X531007Y935272D01*
X530827Y935367D01*
X530658Y935483D01*
X530489Y935610D01*
X530479Y935620D01*
X530457Y935641D01*
X530415Y935684D01*
X530362Y935747D01*
X530288Y935821D01*
X530214Y935906D01*
X530140Y936011D01*
X530056Y936138D01*
X529971Y936265D01*
X529887Y936413D01*
X529813Y936582D01*
X529739Y936751D01*
X529665Y936941D01*
X529612Y937142D01*
X529570Y937364D01*
X529538Y937586D01*
X530796Y937681D01*
Y937670D01*
X530806Y937638D01*
X530817Y937596D01*
X530827Y937533D01*
X530838Y937459D01*
X530869Y937364D01*
X530922Y937163D01*
X531007Y936941D01*
X531123Y936709D01*
X531260Y936497D01*
X531345Y936402D01*
X531429Y936307D01*
X531440D01*
X531451Y936286D01*
X531482Y936265D01*
X531525Y936233D01*
X531630Y936159D01*
X531778Y936085D01*
X531958Y936001D01*
X532169Y935927D01*
X532402Y935874D01*
X532528Y935863D01*
X532666Y935853D01*
X532750D01*
X532814Y935863D01*
X532888Y935874D01*
X532972Y935884D01*
X533173Y935937D01*
X533405Y936011D01*
X533522Y936064D01*
X533648Y936127D01*
X533775Y936201D01*
X533891Y936286D01*
X534008Y936381D01*
X534124Y936497D01*
X534134Y936508D01*
X534145Y936529D01*
X534177Y936561D01*
X534219Y936613D01*
X534261Y936687D01*
X534314Y936761D01*
X534367Y936857D01*
X534430Y936962D01*
X534483Y937078D01*
X534536Y937205D01*
X534589Y937353D01*
X534631Y937501D01*
X534673Y937670D01*
X534705Y937850D01*
X534716Y938029D01*
X534726Y938230D01*
Y938241D01*
Y938272D01*
Y938325D01*
X534716Y938399D01*
X534705Y938484D01*
X534695Y938589D01*
X534673Y938695D01*
X534652Y938822D01*
X534589Y939075D01*
X534483Y939350D01*
X534420Y939477D01*
X534335Y939604D01*
X534251Y939731D01*
X534145Y939847D01*
X534134Y939857D01*
X534124Y939868D01*
X534082Y939900D01*
X534039Y939942D01*
X533987Y939984D01*
X533913Y940037D01*
X533839Y940090D01*
X533744Y940153D01*
X533638Y940206D01*
X533532Y940259D01*
X533268Y940354D01*
X533131Y940396D01*
X532972Y940428D01*
X532814Y940439D01*
X532645Y940449D01*
X532550D01*
X532433Y940439D01*
X532296Y940417D01*
X532127Y940386D01*
X531947Y940333D01*
X531768Y940269D01*
X531588Y940174D01*
X531567Y940164D01*
X531514Y940132D01*
X531429Y940069D01*
X531324Y939995D01*
X531218Y939889D01*
X531091Y939773D01*
X530975Y939635D01*
X530869Y939488D01*
X529749Y939646D01*
X530690Y944654D01*
X535540D01*
Y943513D01*
D02*
G37*
G36*
X527964D02*
X524065D01*
X523547Y940893D01*
X523558Y940903D01*
X523589Y940925D01*
X523632Y940946D01*
X523695Y940988D01*
X523779Y941030D01*
X523875Y941083D01*
X523980Y941146D01*
X524107Y941199D01*
X524234Y941252D01*
X524382Y941316D01*
X524688Y941411D01*
X524857Y941453D01*
X525026Y941485D01*
X525206Y941495D01*
X525386Y941506D01*
X525438D01*
X525512Y941495D01*
X525597D01*
X525703Y941474D01*
X525829Y941463D01*
X525977Y941432D01*
X526125Y941400D01*
X526294Y941347D01*
X526463Y941294D01*
X526643Y941220D01*
X526823Y941136D01*
X527002Y941030D01*
X527182Y940914D01*
X527361Y940777D01*
X527531Y940618D01*
X527541Y940608D01*
X527573Y940576D01*
X527615Y940523D01*
X527668Y940460D01*
X527742Y940375D01*
X527816Y940259D01*
X527890Y940143D01*
X527974Y940005D01*
X528059Y939847D01*
X528133Y939667D01*
X528217Y939488D01*
X528281Y939276D01*
X528334Y939065D01*
X528376Y938832D01*
X528408Y938589D01*
X528418Y938336D01*
Y938325D01*
Y938272D01*
Y938209D01*
X528408Y938114D01*
X528397Y937998D01*
X528376Y937871D01*
X528355Y937723D01*
X528323Y937554D01*
X528281Y937385D01*
X528228Y937195D01*
X528164Y937004D01*
X528091Y936814D01*
X528006Y936624D01*
X527900Y936423D01*
X527784Y936233D01*
X527647Y936053D01*
X527636Y936043D01*
X527604Y936001D01*
X527552Y935948D01*
X527478Y935874D01*
X527383Y935779D01*
X527266Y935684D01*
X527129Y935567D01*
X526970Y935462D01*
X526801Y935356D01*
X526611Y935240D01*
X526400Y935145D01*
X526167Y935060D01*
X525924Y934976D01*
X525660Y934923D01*
X525386Y934881D01*
X525090Y934870D01*
X524963D01*
X524868Y934881D01*
X524752Y934891D01*
X524625Y934912D01*
X524477Y934933D01*
X524318Y934965D01*
X524149Y934997D01*
X523970Y935050D01*
X523790Y935113D01*
X523610Y935187D01*
X523431Y935272D01*
X523251Y935367D01*
X523082Y935483D01*
X522913Y935610D01*
X522902Y935620D01*
X522881Y935641D01*
X522839Y935684D01*
X522786Y935747D01*
X522712Y935821D01*
X522638Y935906D01*
X522564Y936011D01*
X522480Y936138D01*
X522395Y936265D01*
X522311Y936413D01*
X522237Y936582D01*
X522163Y936751D01*
X522089Y936941D01*
X522036Y937142D01*
X521994Y937364D01*
X521962Y937586D01*
X523219Y937681D01*
Y937670D01*
X523230Y937638D01*
X523241Y937596D01*
X523251Y937533D01*
X523262Y937459D01*
X523293Y937364D01*
X523346Y937163D01*
X523431Y936941D01*
X523547Y936709D01*
X523684Y936497D01*
X523769Y936402D01*
X523853Y936307D01*
X523864D01*
X523875Y936286D01*
X523906Y936265D01*
X523949Y936233D01*
X524054Y936159D01*
X524202Y936085D01*
X524382Y936001D01*
X524593Y935927D01*
X524826Y935874D01*
X524952Y935863D01*
X525090Y935853D01*
X525174D01*
X525238Y935863D01*
X525312Y935874D01*
X525396Y935884D01*
X525597Y935937D01*
X525829Y936011D01*
X525946Y936064D01*
X526072Y936127D01*
X526199Y936201D01*
X526315Y936286D01*
X526432Y936381D01*
X526548Y936497D01*
X526558Y936508D01*
X526569Y936529D01*
X526601Y936561D01*
X526643Y936613D01*
X526685Y936687D01*
X526738Y936761D01*
X526791Y936857D01*
X526854Y936962D01*
X526907Y937078D01*
X526960Y937205D01*
X527013Y937353D01*
X527055Y937501D01*
X527097Y937670D01*
X527129Y937850D01*
X527140Y938029D01*
X527150Y938230D01*
Y938241D01*
Y938272D01*
Y938325D01*
X527140Y938399D01*
X527129Y938484D01*
X527118Y938589D01*
X527097Y938695D01*
X527076Y938822D01*
X527013Y939075D01*
X526907Y939350D01*
X526844Y939477D01*
X526759Y939604D01*
X526675Y939731D01*
X526569Y939847D01*
X526558Y939857D01*
X526548Y939868D01*
X526506Y939900D01*
X526463Y939942D01*
X526410Y939984D01*
X526337Y940037D01*
X526263Y940090D01*
X526167Y940153D01*
X526062Y940206D01*
X525956Y940259D01*
X525692Y940354D01*
X525555Y940396D01*
X525396Y940428D01*
X525238Y940439D01*
X525069Y940449D01*
X524973D01*
X524857Y940439D01*
X524720Y940417D01*
X524551Y940386D01*
X524371Y940333D01*
X524192Y940269D01*
X524012Y940174D01*
X523991Y940164D01*
X523938Y940132D01*
X523853Y940069D01*
X523748Y939995D01*
X523642Y939889D01*
X523515Y939773D01*
X523399Y939635D01*
X523293Y939488D01*
X522173Y939646D01*
X523114Y944654D01*
X527964D01*
Y943513D01*
D02*
G37*
G36*
X545398Y935029D02*
X544204D01*
Y942647D01*
X544183Y942626D01*
X544130Y942573D01*
X544035Y942499D01*
X543898Y942393D01*
X543739Y942266D01*
X543539Y942129D01*
X543317Y941981D01*
X543063Y941823D01*
X543052D01*
X543031Y941802D01*
X543000Y941780D01*
X542947Y941759D01*
X542883Y941717D01*
X542809Y941685D01*
X542640Y941590D01*
X542450Y941495D01*
X542239Y941389D01*
X542017Y941294D01*
X541806Y941210D01*
Y942362D01*
X541816Y942372D01*
X541848Y942383D01*
X541901Y942414D01*
X541975Y942446D01*
X542059Y942488D01*
X542165Y942552D01*
X542281Y942615D01*
X542397Y942679D01*
X542672Y942848D01*
X542968Y943048D01*
X543274Y943260D01*
X543560Y943503D01*
X543570Y943513D01*
X543591Y943534D01*
X543634Y943566D01*
X543686Y943619D01*
X543739Y943682D01*
X543813Y943746D01*
X543972Y943925D01*
X544151Y944116D01*
X544331Y944337D01*
X544490Y944570D01*
X544627Y944813D01*
X545398D01*
Y935029D01*
D02*
G37*
G36*
X539143D02*
X537780D01*
Y936392D01*
X539143D01*
Y935029D01*
D02*
G37*
G36*
X551844Y944802D02*
X551918Y944792D01*
X552108Y944771D01*
X552319Y944739D01*
X552552Y944676D01*
X552784Y944602D01*
X553017Y944496D01*
X553027D01*
X553048Y944485D01*
X553080Y944464D01*
X553122Y944433D01*
X553228Y944369D01*
X553365Y944264D01*
X553524Y944137D01*
X553682Y943978D01*
X553851Y943788D01*
X553999Y943577D01*
Y943566D01*
X554020Y943545D01*
X554031Y943513D01*
X554063Y943471D01*
X554094Y943418D01*
X554137Y943344D01*
X554168Y943260D01*
X554221Y943175D01*
X554316Y942964D01*
X554411Y942721D01*
X554517Y942436D01*
X554602Y942129D01*
Y942119D01*
X554612Y942087D01*
X554623Y942045D01*
X554633Y941971D01*
X554654Y941886D01*
X554675Y941780D01*
X554697Y941664D01*
X554718Y941527D01*
X554728Y941368D01*
X554749Y941199D01*
X554771Y941009D01*
X554792Y940808D01*
X554802Y940586D01*
X554813Y940354D01*
X554823Y940100D01*
Y939836D01*
Y939815D01*
Y939762D01*
Y939667D01*
Y939551D01*
X554813Y939403D01*
X554802Y939245D01*
X554792Y939054D01*
X554781Y938854D01*
X554760Y938632D01*
X554739Y938410D01*
X554675Y937945D01*
X554580Y937490D01*
X554528Y937269D01*
X554464Y937068D01*
Y937057D01*
X554443Y937026D01*
X554432Y936962D01*
X554401Y936899D01*
X554359Y936804D01*
X554316Y936709D01*
X554263Y936592D01*
X554200Y936466D01*
X554052Y936201D01*
X553872Y935937D01*
X553661Y935673D01*
X553534Y935557D01*
X553408Y935441D01*
X553397Y935430D01*
X553376Y935419D01*
X553334Y935388D01*
X553281Y935356D01*
X553217Y935314D01*
X553133Y935261D01*
X553038Y935208D01*
X552921Y935155D01*
X552805Y935102D01*
X552668Y935050D01*
X552531Y935007D01*
X552372Y934955D01*
X552203Y934923D01*
X552023Y934891D01*
X551844Y934881D01*
X551643Y934870D01*
X551580D01*
X551506Y934881D01*
X551410Y934891D01*
X551294Y934902D01*
X551157Y934923D01*
X551009Y934955D01*
X550840Y934997D01*
X550671Y935050D01*
X550491Y935113D01*
X550301Y935198D01*
X550121Y935293D01*
X549942Y935409D01*
X549762Y935546D01*
X549593Y935694D01*
X549435Y935874D01*
X549424Y935884D01*
X549392Y935927D01*
X549350Y936001D01*
X549287Y936106D01*
X549213Y936244D01*
X549128Y936402D01*
X549044Y936603D01*
X548959Y936825D01*
X548864Y937089D01*
X548779Y937374D01*
X548695Y937702D01*
X548621Y938061D01*
X548558Y938452D01*
X548515Y938875D01*
X548484Y939340D01*
X548473Y939836D01*
Y939857D01*
Y939910D01*
Y940005D01*
X548484Y940122D01*
Y940269D01*
X548494Y940439D01*
X548505Y940629D01*
X548515Y940829D01*
X548536Y941051D01*
X548558Y941273D01*
X548621Y941738D01*
X548705Y942193D01*
X548758Y942414D01*
X548822Y942615D01*
Y942626D01*
X548843Y942657D01*
X548864Y942721D01*
X548885Y942795D01*
X548927Y942879D01*
X548970Y942985D01*
X549022Y943091D01*
X549086Y943217D01*
X549234Y943482D01*
X549424Y943746D01*
X549635Y944010D01*
X549752Y944126D01*
X549878Y944242D01*
X549889Y944253D01*
X549910Y944264D01*
X549952Y944295D01*
X550005Y944327D01*
X550069Y944380D01*
X550153Y944422D01*
X550248Y944475D01*
X550364Y944528D01*
X550481Y944581D01*
X550618Y944633D01*
X550766Y944686D01*
X550914Y944728D01*
X551083Y944760D01*
X551263Y944792D01*
X551453Y944802D01*
X551643Y944813D01*
X551770D01*
X551844Y944802D01*
D02*
G37*
%LPC*%
G36*
X898734Y1054230D02*
X898723D01*
X898702D01*
X898670D01*
X898617Y1054219D01*
X898501Y1054209D01*
X898343Y1054177D01*
X898174Y1054124D01*
X897983Y1054040D01*
X897804Y1053923D01*
X897709Y1053860D01*
X897624Y1053775D01*
X897614D01*
X897603Y1053754D01*
X897550Y1053691D01*
X897476Y1053596D01*
X897392Y1053458D01*
X897318Y1053300D01*
X897244Y1053099D01*
X897191Y1052877D01*
X897170Y1052761D01*
Y1052571D01*
X897180Y1052518D01*
Y1052465D01*
X897191Y1052391D01*
X897223Y1052233D01*
X897275Y1052053D01*
X897360Y1051863D01*
X897466Y1051673D01*
X897614Y1051493D01*
X897635Y1051472D01*
X897687Y1051419D01*
X897783Y1051356D01*
X897909Y1051271D01*
X898057Y1051187D01*
X898237Y1051123D01*
X898438Y1051070D01*
X898660Y1051049D01*
X898670D01*
X898691D01*
X898723D01*
X898776Y1051060D01*
X898839D01*
X898903Y1051070D01*
X899061Y1051102D01*
X899241Y1051155D01*
X899431Y1051229D01*
X899621Y1051335D01*
X899790Y1051482D01*
X899811Y1051504D01*
X899854Y1051567D01*
X899928Y1051662D01*
X900002Y1051799D01*
X900086Y1051958D01*
X900160Y1052159D01*
X900202Y1052391D01*
X900223Y1052645D01*
Y1052708D01*
X900213Y1052761D01*
Y1052824D01*
X900202Y1052888D01*
X900171Y1053046D01*
X900118Y1053226D01*
X900044Y1053416D01*
X899938Y1053606D01*
X899790Y1053786D01*
X899769Y1053807D01*
X899716Y1053860D01*
X899621Y1053923D01*
X899494Y1054008D01*
X899346Y1054092D01*
X899156Y1054156D01*
X898955Y1054209D01*
X898734Y1054230D01*
D02*
G37*
G36*
X903203Y1054631D02*
X903193D01*
X903161D01*
X903119D01*
X903055Y1054621D01*
X902981Y1054610D01*
X902897Y1054600D01*
X902696Y1054557D01*
X902474Y1054494D01*
X902231Y1054388D01*
X902115Y1054325D01*
X901999Y1054240D01*
X901882Y1054156D01*
X901777Y1054050D01*
X901766Y1054040D01*
X901756Y1054029D01*
X901724Y1053997D01*
X901692Y1053944D01*
X901639Y1053892D01*
X901597Y1053828D01*
X901544Y1053744D01*
X901491Y1053659D01*
X901386Y1053448D01*
X901291Y1053205D01*
X901227Y1052919D01*
X901217Y1052772D01*
X901206Y1052613D01*
Y1052529D01*
X901217Y1052476D01*
X901227Y1052402D01*
X901238Y1052317D01*
X901280Y1052116D01*
X901343Y1051895D01*
X901439Y1051662D01*
X901502Y1051546D01*
X901576Y1051430D01*
X901671Y1051313D01*
X901766Y1051208D01*
X901777Y1051197D01*
X901787Y1051187D01*
X901819Y1051155D01*
X901861Y1051123D01*
X901925Y1051081D01*
X901988Y1051039D01*
X902062Y1050986D01*
X902147Y1050933D01*
X902347Y1050827D01*
X902590Y1050743D01*
X902865Y1050679D01*
X903002Y1050669D01*
X903161Y1050658D01*
X903171D01*
X903182D01*
X903245D01*
X903351Y1050669D01*
X903478Y1050690D01*
X903626Y1050711D01*
X903795Y1050753D01*
X903974Y1050817D01*
X904154Y1050891D01*
X904175Y1050901D01*
X904228Y1050933D01*
X904323Y1050996D01*
X904429Y1051070D01*
X904545Y1051176D01*
X904661Y1051292D01*
X904788Y1051440D01*
X904894Y1051609D01*
Y1051620D01*
X904904Y1051630D01*
X904936Y1051694D01*
X904978Y1051789D01*
X905021Y1051926D01*
X905063Y1052074D01*
X905105Y1052254D01*
X905137Y1052444D01*
X905147Y1052645D01*
Y1052729D01*
X905137Y1052793D01*
X905126Y1052867D01*
X905116Y1052951D01*
X905073Y1053152D01*
X905010Y1053374D01*
X904915Y1053617D01*
X904852Y1053733D01*
X904778Y1053849D01*
X904693Y1053966D01*
X904598Y1054071D01*
X904587Y1054082D01*
X904577Y1054092D01*
X904545Y1054124D01*
X904503Y1054156D01*
X904439Y1054198D01*
X904376Y1054251D01*
X904302Y1054304D01*
X904218Y1054357D01*
X904017Y1054452D01*
X903774Y1054547D01*
X903510Y1054610D01*
X903362Y1054621D01*
X903203Y1054631D01*
D02*
G37*
G36*
X898734Y1035295D02*
X898723D01*
X898702D01*
X898670D01*
X898617Y1035284D01*
X898501Y1035274D01*
X898343Y1035242D01*
X898174Y1035189D01*
X897983Y1035105D01*
X897804Y1034988D01*
X897709Y1034925D01*
X897624Y1034840D01*
X897614D01*
X897603Y1034819D01*
X897550Y1034756D01*
X897476Y1034661D01*
X897392Y1034523D01*
X897318Y1034365D01*
X897244Y1034164D01*
X897191Y1033942D01*
X897170Y1033826D01*
Y1033636D01*
X897180Y1033583D01*
Y1033530D01*
X897191Y1033456D01*
X897223Y1033298D01*
X897275Y1033118D01*
X897360Y1032928D01*
X897466Y1032738D01*
X897614Y1032558D01*
X897635Y1032537D01*
X897687Y1032484D01*
X897783Y1032421D01*
X897909Y1032336D01*
X898057Y1032252D01*
X898237Y1032188D01*
X898438Y1032135D01*
X898660Y1032114D01*
X898670D01*
X898691D01*
X898723D01*
X898776Y1032125D01*
X898839D01*
X898903Y1032135D01*
X899061Y1032167D01*
X899241Y1032220D01*
X899431Y1032294D01*
X899621Y1032400D01*
X899790Y1032547D01*
X899811Y1032569D01*
X899854Y1032632D01*
X899928Y1032727D01*
X900002Y1032864D01*
X900086Y1033023D01*
X900160Y1033224D01*
X900202Y1033456D01*
X900223Y1033710D01*
Y1033773D01*
X900213Y1033826D01*
Y1033889D01*
X900202Y1033953D01*
X900171Y1034111D01*
X900118Y1034291D01*
X900044Y1034481D01*
X899938Y1034671D01*
X899790Y1034851D01*
X899769Y1034872D01*
X899716Y1034925D01*
X899621Y1034988D01*
X899494Y1035073D01*
X899346Y1035157D01*
X899156Y1035221D01*
X898955Y1035274D01*
X898734Y1035295D01*
D02*
G37*
G36*
X903203Y1035696D02*
X903193D01*
X903161D01*
X903119D01*
X903055Y1035686D01*
X902981Y1035675D01*
X902897Y1035665D01*
X902696Y1035622D01*
X902474Y1035559D01*
X902231Y1035453D01*
X902115Y1035390D01*
X901999Y1035305D01*
X901882Y1035221D01*
X901777Y1035115D01*
X901766Y1035105D01*
X901756Y1035094D01*
X901724Y1035062D01*
X901692Y1035009D01*
X901639Y1034957D01*
X901597Y1034893D01*
X901544Y1034809D01*
X901491Y1034724D01*
X901386Y1034513D01*
X901291Y1034270D01*
X901227Y1033984D01*
X901217Y1033837D01*
X901206Y1033678D01*
Y1033594D01*
X901217Y1033541D01*
X901227Y1033467D01*
X901238Y1033382D01*
X901280Y1033181D01*
X901343Y1032960D01*
X901439Y1032727D01*
X901502Y1032611D01*
X901576Y1032495D01*
X901671Y1032378D01*
X901766Y1032273D01*
X901777Y1032262D01*
X901787Y1032252D01*
X901819Y1032220D01*
X901861Y1032188D01*
X901925Y1032146D01*
X901988Y1032104D01*
X902062Y1032051D01*
X902147Y1031998D01*
X902347Y1031892D01*
X902590Y1031808D01*
X902865Y1031744D01*
X903002Y1031734D01*
X903161Y1031723D01*
X903171D01*
X903182D01*
X903245D01*
X903351Y1031734D01*
X903478Y1031755D01*
X903626Y1031776D01*
X903795Y1031818D01*
X903974Y1031882D01*
X904154Y1031956D01*
X904175Y1031966D01*
X904228Y1031998D01*
X904323Y1032061D01*
X904429Y1032135D01*
X904545Y1032241D01*
X904661Y1032357D01*
X904788Y1032505D01*
X904894Y1032674D01*
Y1032685D01*
X904904Y1032695D01*
X904936Y1032759D01*
X904978Y1032854D01*
X905021Y1032991D01*
X905063Y1033139D01*
X905105Y1033319D01*
X905137Y1033509D01*
X905147Y1033710D01*
Y1033794D01*
X905137Y1033858D01*
X905126Y1033932D01*
X905116Y1034016D01*
X905073Y1034217D01*
X905010Y1034439D01*
X904915Y1034682D01*
X904852Y1034798D01*
X904778Y1034914D01*
X904693Y1035031D01*
X904598Y1035136D01*
X904587Y1035147D01*
X904577Y1035157D01*
X904545Y1035189D01*
X904503Y1035221D01*
X904439Y1035263D01*
X904376Y1035316D01*
X904302Y1035369D01*
X904218Y1035422D01*
X904017Y1035517D01*
X903774Y1035612D01*
X903510Y1035675D01*
X903362Y1035686D01*
X903203Y1035696D01*
D02*
G37*
G36*
X551632Y943820D02*
X551558D01*
X551495Y943809D01*
X551432Y943799D01*
X551347Y943788D01*
X551157Y943735D01*
X550946Y943651D01*
X550840Y943598D01*
X550724Y943524D01*
X550618Y943450D01*
X550512Y943355D01*
X550407Y943249D01*
X550312Y943122D01*
X550301Y943112D01*
X550290Y943080D01*
X550259Y943027D01*
X550216Y942943D01*
X550174Y942837D01*
X550121Y942710D01*
X550058Y942562D01*
X550005Y942372D01*
X549952Y942161D01*
X549889Y941928D01*
X549836Y941654D01*
X549794Y941358D01*
X549752Y941030D01*
X549730Y940660D01*
X549709Y940269D01*
X549699Y939836D01*
Y939826D01*
Y939805D01*
Y939773D01*
Y939731D01*
Y939678D01*
Y939604D01*
X549709Y939445D01*
X549720Y939255D01*
X549730Y939033D01*
X549741Y938790D01*
X549773Y938537D01*
X549836Y937998D01*
X549878Y937734D01*
X549931Y937469D01*
X549995Y937226D01*
X550079Y937004D01*
X550164Y936804D01*
X550259Y936635D01*
X550269Y936624D01*
X550280Y936603D01*
X550312Y936561D01*
X550364Y936508D01*
X550417Y936455D01*
X550481Y936392D01*
X550639Y936244D01*
X550840Y936096D01*
X551083Y935980D01*
X551210Y935927D01*
X551347Y935884D01*
X551495Y935863D01*
X551643Y935853D01*
X551675D01*
X551727Y935863D01*
X551780D01*
X551854Y935874D01*
X551939Y935895D01*
X552129Y935948D01*
X552235Y935990D01*
X552340Y936043D01*
X552457Y936106D01*
X552573Y936191D01*
X552689Y936275D01*
X552805Y936381D01*
X552921Y936508D01*
X553027Y936645D01*
X553038Y936656D01*
X553048Y936687D01*
X553080Y936730D01*
X553112Y936804D01*
X553165Y936899D01*
X553207Y937026D01*
X553260Y937173D01*
X553312Y937343D01*
X553365Y937543D01*
X553418Y937776D01*
X553471Y938029D01*
X553513Y938325D01*
X553545Y938653D01*
X553577Y939012D01*
X553587Y939403D01*
X553598Y939836D01*
Y939847D01*
Y939868D01*
Y939900D01*
Y939942D01*
Y939995D01*
Y940058D01*
X553587Y940227D01*
X553577Y940417D01*
X553566Y940639D01*
X553555Y940882D01*
X553524Y941136D01*
X553460Y941675D01*
X553408Y941939D01*
X553355Y942193D01*
X553291Y942436D01*
X553217Y942668D01*
X553133Y942858D01*
X553027Y943027D01*
X553017Y943038D01*
X553006Y943059D01*
X552974Y943101D01*
X552932Y943154D01*
X552869Y943207D01*
X552805Y943281D01*
X552731Y943355D01*
X552647Y943429D01*
X552446Y943566D01*
X552203Y943693D01*
X552076Y943746D01*
X551928Y943788D01*
X551791Y943809D01*
X551632Y943820D01*
D02*
G37*
%LPD*%
D13*
X700000Y1124750D02*
G03*
X697000Y1121750I0J-3000D01*
G01*
Y1072750D02*
G03*
X700000Y1069750I3000J0D01*
G01*
X697000Y1072750D02*
G03*
X700000Y1069750I3000J0D01*
G01*
Y1124750D02*
G03*
X697000Y1121750I0J-3000D01*
G01*
Y1072750D02*
Y1121750D01*
X700000Y1124750D02*
X745000D01*
X700000Y1069750D02*
X745000Y1069750D01*
Y1080000D01*
Y1115000D02*
Y1124750D01*
Y1115000D02*
X827000D01*
X745000Y1080000D02*
X827000D01*
Y1115000D01*
X697000Y1072750D02*
Y1121750D01*
X700000Y1124750D02*
X744500D01*
X700000Y1069750D02*
X744500D01*
Y1124750D01*
X683040Y1120810D02*
G03*
X680040Y1123810I-3000J0D01*
G01*
Y1068810D02*
G03*
X683040Y1071810I0J3000D01*
G01*
Y1120810D02*
G03*
X680040Y1123810I-3000J0D01*
G01*
Y1068810D02*
G03*
X683040Y1071810I0J3000D01*
G01*
X595040Y1068810D02*
Y1053810D01*
Y1138810D02*
Y1123810D01*
X680040Y1068810D02*
X595040D01*
X680040Y1123810D02*
X595040D01*
X683040Y1120810D02*
Y1071810D01*
X595040Y1053810D02*
X551665D01*
X595040Y1138810D02*
X550040D01*
Y1123810D01*
X510040Y1138810D02*
Y1123810D01*
X550040D02*
X510290D01*
X551415Y1068810D02*
X511665D01*
X551665D02*
Y1053810D01*
X511665Y1068810D02*
Y1053810D01*
Y1053810D02*
X465040D01*
Y1138810D02*
Y1053810D01*
X510040Y1138810D02*
X465290D01*
X465290Y1138810D01*
X683040Y1120810D02*
Y1071810D01*
X680040Y1068810D02*
X635540D01*
X680040Y1123810D02*
X635540D01*
Y1068810D01*
X284150Y1123700D02*
G03*
X281150Y1120700I0J-3000D01*
G01*
Y1071700D02*
G03*
X284150Y1068700I3000J0D01*
G01*
Y1123700D02*
G03*
X281150Y1120700I0J-3000D01*
G01*
Y1071700D02*
G03*
X284150Y1068700I3000J0D01*
G01*
X281150Y1071700D02*
Y1120700D01*
X284150Y1068700D02*
X384150D01*
X284150Y1123700D02*
X384150D01*
Y1053700D02*
Y1068700D01*
Y1123700D02*
Y1138700D01*
X447150Y1053700D02*
Y1138700D01*
X384150Y1053700D02*
X447150D01*
X384150Y1138700D02*
X447150D01*
X328650Y1068700D02*
Y1123700D01*
X284150Y1068700D02*
X328650D01*
X284150Y1123700D02*
X328650D01*
X281150Y1071700D02*
Y1120700D01*
X283880Y1029290D02*
G03*
X280880Y1026290I0J-3000D01*
G01*
Y977290D02*
G03*
X283880Y974290I3000J0D01*
G01*
X280880Y977290D02*
G03*
X283880Y974290I3000J0D01*
G01*
Y1029290D02*
G03*
X280880Y1026290I0J-3000D01*
G01*
Y977290D02*
Y1026290D01*
X283880Y1029290D02*
X328380D01*
X283880Y974290D02*
X328380Y974290D01*
Y1029290D02*
Y1034540D01*
X796880D01*
Y969540D02*
Y1034540D01*
X328380Y969540D02*
X796880D01*
X328380D02*
Y974290D01*
X280880Y977290D02*
Y1026290D01*
X283880Y1029290D02*
X328380D01*
X283880Y974290D02*
X328380D01*
Y1029290D01*
D19*
X702415Y1065831D02*
X701249Y1066998D01*
X698916D01*
X697750Y1065831D01*
Y1064665D01*
X698916Y1063499D01*
X701249D01*
X702415Y1062333D01*
Y1061166D01*
X701249Y1060000D01*
X698916D01*
X697750Y1061166D01*
X705914Y1065831D02*
Y1064665D01*
X704748D01*
X707080D01*
X705914D01*
Y1061166D01*
X707080Y1060000D01*
X710579D02*
X712912D01*
X711746D01*
Y1064665D01*
X710579D01*
X717577Y1060000D02*
Y1065831D01*
Y1063499D01*
X716411D01*
X718743D01*
X717577D01*
Y1065831D01*
X718743Y1066998D01*
X723408Y1060000D02*
Y1065831D01*
Y1063499D01*
X722242D01*
X724575D01*
X723408D01*
Y1065831D01*
X724575Y1066998D01*
X728074Y1060000D02*
Y1064665D01*
X731572D01*
X732739Y1063499D01*
Y1060000D01*
X738570D02*
X736238D01*
X735071Y1061166D01*
Y1063499D01*
X736238Y1064665D01*
X738570D01*
X739736Y1063499D01*
Y1062333D01*
X735071D01*
X742069Y1064665D02*
Y1060000D01*
Y1062333D01*
X743235Y1063499D01*
X744402Y1064665D01*
X745568D01*
X691871Y1115145D02*
X693038Y1116311D01*
Y1118644D01*
X691871Y1119810D01*
X690705D01*
X689539Y1118644D01*
Y1116311D01*
X688373Y1115145D01*
X687206D01*
X686040Y1116311D01*
Y1118644D01*
X687206Y1119810D01*
X691871Y1111646D02*
X690705D01*
Y1112812D01*
Y1110480D01*
Y1111646D01*
X687206D01*
X686040Y1110480D01*
Y1106981D02*
Y1104648D01*
Y1105815D01*
X690705D01*
Y1106981D01*
X686040Y1099983D02*
X691871D01*
X689539D01*
Y1101149D01*
Y1098817D01*
Y1099983D01*
X691871D01*
X693038Y1098817D01*
X686040Y1094152D02*
X691871D01*
X689539D01*
Y1095318D01*
Y1092985D01*
Y1094152D01*
X691871D01*
X693038Y1092985D01*
X686040Y1089486D02*
X690705D01*
Y1085987D01*
X689539Y1084821D01*
X686040D01*
Y1078990D02*
Y1081322D01*
X687206Y1082489D01*
X689539D01*
X690705Y1081322D01*
Y1078990D01*
X689539Y1077823D01*
X688373D01*
Y1082489D01*
X690705Y1075491D02*
X686040D01*
X688373D01*
X689539Y1074325D01*
X690705Y1073158D01*
Y1071992D01*
X271569Y1077865D02*
X270402Y1076699D01*
Y1074366D01*
X271569Y1073200D01*
X272735D01*
X273901Y1074366D01*
Y1076699D01*
X275067Y1077865D01*
X276234D01*
X277400Y1076699D01*
Y1074366D01*
X276234Y1073200D01*
X271569Y1081364D02*
X272735D01*
Y1080198D01*
Y1082530D01*
Y1081364D01*
X276234D01*
X277400Y1082530D01*
Y1086029D02*
Y1088362D01*
Y1087196D01*
X272735D01*
Y1086029D01*
X277400Y1093027D02*
X271569D01*
X273901D01*
Y1091861D01*
Y1094193D01*
Y1093027D01*
X271569D01*
X270402Y1094193D01*
X277400Y1098858D02*
X271569D01*
X273901D01*
Y1097692D01*
Y1100025D01*
Y1098858D01*
X271569D01*
X270402Y1100025D01*
X277400Y1103524D02*
X272735D01*
Y1107022D01*
X273901Y1108189D01*
X277400D01*
Y1114020D02*
Y1111688D01*
X276234Y1110521D01*
X273901D01*
X272735Y1111688D01*
Y1114020D01*
X273901Y1115186D01*
X275067D01*
Y1110521D01*
X272735Y1117519D02*
X277400D01*
X275067D01*
X273901Y1118685D01*
X272735Y1119852D01*
Y1121018D01*
X272882Y985039D02*
X271882Y984039D01*
Y982040D01*
X272882Y981040D01*
X273881D01*
X274881Y982040D01*
Y984039D01*
X275881Y985039D01*
X276880D01*
X277880Y984039D01*
Y982040D01*
X276880Y981040D01*
X272882Y988038D02*
X273881D01*
Y987038D01*
Y989037D01*
Y988038D01*
X276880D01*
X277880Y989037D01*
Y992036D02*
Y994036D01*
Y993036D01*
X273881D01*
Y992036D01*
X277880Y998035D02*
X272882D01*
X274881D01*
Y997035D01*
Y999034D01*
Y998035D01*
X272882D01*
X271882Y999034D01*
X277880Y1003033D02*
X272882D01*
X274881D01*
Y1002033D01*
Y1004033D01*
Y1003033D01*
X272882D01*
X271882Y1004033D01*
X277880Y1007031D02*
X273881D01*
Y1010031D01*
X274881Y1011030D01*
X277880D01*
Y1016029D02*
Y1014029D01*
X276880Y1013030D01*
X274881D01*
X273881Y1014029D01*
Y1016029D01*
X274881Y1017028D01*
X275881D01*
Y1013030D01*
X273881Y1019028D02*
X277880D01*
X275881D01*
X274881Y1020027D01*
X273881Y1021027D01*
Y1022027D01*
D42*
X279000Y940000D02*
X294240Y945080D01*
X279000Y940000D02*
X294240Y934920D01*
X814760D02*
X830000Y940000D01*
X814760Y945080D02*
X830000Y940000D01*
X279000D02*
X519422D01*
X584498D02*
X830000D01*
X279000Y937460D02*
Y956670D01*
X830000Y937460D02*
Y956670D01*
X901000Y1147500D02*
X906080Y1132260D01*
X895920D02*
X901000Y1147500D01*
X895920Y974950D02*
X901000Y959710D01*
X906080Y974950D01*
X901000Y1080819D02*
Y1147500D01*
Y959710D02*
Y1021311D01*
X833040Y1147500D02*
X903540D01*
X833040Y959710D02*
X903540D01*
M02*
