G04*
G04 #@! TF.GenerationSoftware,Altium Limited,Altium Designer,23.2.1 (34)*
G04*
G04 Layer_Color=8421504*
%FSLAX44Y44*%
%MOMM*%
G71*
G04*
G04 #@! TF.SameCoordinates,084F8A50-16BE-4F63-9AE1-EE7E2292F58F*
G04*
G04*
G04 #@! TF.FilePolarity,Positive*
G04*
G01*
G75*
%ADD11R,0.4000X0.6000*%
%ADD15R,0.6000X0.4000*%
%ADD16R,0.4000X0.5500*%
%ADD18C,0.2500*%
D11*
X420150Y1060950D02*
D03*
X430150Y1060950D02*
D03*
X430150Y1069950D02*
D03*
X430150Y1078950D02*
D03*
X420150Y1078950D02*
D03*
X420150Y1069950D02*
D03*
X801749Y1094000D02*
D03*
X811749Y1094000D02*
D03*
D15*
X502290Y1060810D02*
D03*
X502290Y1070810D02*
D03*
X486040Y1115560D02*
D03*
X486040Y1125560D02*
D03*
X477290Y1125560D02*
D03*
X477290Y1115560D02*
D03*
X415150Y1120950D02*
D03*
X415150Y1130950D02*
D03*
X406150Y1130950D02*
D03*
X406150Y1120950D02*
D03*
X576290Y1122810D02*
D03*
X576290Y1132810D02*
D03*
X585040Y1132810D02*
D03*
X585040Y1122810D02*
D03*
D16*
X568390Y1123810D02*
D03*
X558190Y1123810D02*
D03*
D18*
X410150Y1089950D02*
D03*
X415150Y1089950D02*
D03*
X415150Y1094950D02*
D03*
X410150Y1094950D02*
D03*
X410150Y1099950D02*
D03*
X415150Y1099950D02*
D03*
X405150Y1099950D02*
D03*
X405150Y1094950D02*
D03*
X405150Y1089950D02*
D03*
M02*
