G04*
G04 #@! TF.GenerationSoftware,Altium Limited,Altium Designer,23.2.1 (34)*
G04*
G04 Layer_Physical_Order=2*
G04 Layer_Color=36540*
%FSLAX44Y44*%
%MOMM*%
G71*
G04*
G04 #@! TF.SameCoordinates,58AE84E4-B62A-48DD-9498-F40C1AAB4627*
G04*
G04*
G04 #@! TF.FilePolarity,Positive*
G04*
G01*
G75*
%ADD14C,0.2000*%
G04:AMPARAMS|DCode=24|XSize=0.2mm|YSize=1.2mm|CornerRadius=0.05mm|HoleSize=0mm|Usage=FLASHONLY|Rotation=90.000|XOffset=0mm|YOffset=0mm|HoleType=Round|Shape=RoundedRectangle|*
%AMROUNDEDRECTD24*
21,1,0.2000,1.1000,0,0,90.0*
21,1,0.1000,1.2000,0,0,90.0*
1,1,0.1000,0.5500,0.0500*
1,1,0.1000,0.5500,-0.0500*
1,1,0.1000,-0.5500,-0.0500*
1,1,0.1000,-0.5500,0.0500*
%
%ADD24ROUNDEDRECTD24*%
G04:AMPARAMS|DCode=25|XSize=0.2mm|YSize=1.2mm|CornerRadius=0.05mm|HoleSize=0mm|Usage=FLASHONLY|Rotation=180.000|XOffset=0mm|YOffset=0mm|HoleType=Round|Shape=RoundedRectangle|*
%AMROUNDEDRECTD25*
21,1,0.2000,1.1000,0,0,180.0*
21,1,0.1000,1.2000,0,0,180.0*
1,1,0.1000,-0.0500,0.5500*
1,1,0.1000,0.0500,0.5500*
1,1,0.1000,0.0500,-0.5500*
1,1,0.1000,-0.0500,-0.5500*
%
%ADD25ROUNDEDRECTD25*%
%ADD26C,0.3500*%
G36*
X593001Y1136771D02*
Y1123810D01*
X593156Y1123030D01*
X593598Y1122368D01*
X594260Y1121926D01*
X594540Y1121870D01*
Y1116947D01*
X593587Y1116310D01*
X592493D01*
X591482Y1115891D01*
X590709Y1115118D01*
X590290Y1114107D01*
Y1113013D01*
X590709Y1112002D01*
X591482Y1111229D01*
X592493Y1110810D01*
X593587D01*
X594540Y1110173D01*
Y1100583D01*
X593270Y1099734D01*
X593087Y1099810D01*
X591993D01*
X590982Y1099391D01*
X590209Y1098618D01*
X589790Y1097607D01*
Y1096513D01*
X590209Y1095502D01*
X590982Y1094729D01*
X591993Y1094310D01*
X593087D01*
X593270Y1094386D01*
X594540Y1093537D01*
Y1070750D01*
X594260Y1070694D01*
X593598Y1070252D01*
X593156Y1069590D01*
X593001Y1068810D01*
X593001Y1056958D01*
X592103Y1056060D01*
X553704D01*
Y1068810D01*
X553549Y1069590D01*
X553107Y1070252D01*
X552445Y1070694D01*
X552040Y1070774D01*
Y1076060D01*
X553087D01*
X554098Y1076479D01*
X554871Y1077252D01*
X555290Y1078263D01*
Y1079357D01*
X554871Y1080368D01*
X554137Y1081185D01*
X554871Y1082002D01*
X555290Y1083013D01*
Y1084107D01*
X554871Y1085118D01*
X554098Y1085891D01*
X553087Y1086310D01*
X552040D01*
Y1090507D01*
X552493Y1090810D01*
X553587D01*
X554598Y1091229D01*
X555371Y1092002D01*
X555790Y1093013D01*
Y1094107D01*
X555371Y1095118D01*
X554598Y1095891D01*
X553587Y1096310D01*
X552493D01*
X552040Y1096613D01*
Y1136771D01*
X593001Y1136771D01*
D02*
G37*
G36*
X824500Y1082039D02*
X788499D01*
Y1112961D01*
X824500D01*
Y1082039D01*
D02*
G37*
G36*
X444650Y1056450D02*
X414335D01*
X413809Y1057720D01*
X413981Y1057892D01*
X414400Y1058903D01*
Y1059997D01*
X413981Y1061008D01*
X413208Y1061781D01*
X412197Y1062200D01*
X411103D01*
X410092Y1061781D01*
X409319Y1061008D01*
X408900Y1059997D01*
Y1058903D01*
X409319Y1057892D01*
X409491Y1057720D01*
X408965Y1056450D01*
X386189D01*
Y1068700D01*
X386034Y1069480D01*
X385592Y1070142D01*
X384930Y1070584D01*
X384650Y1070640D01*
Y1121760D01*
X384930Y1121816D01*
X385592Y1122258D01*
X386034Y1122920D01*
X386189Y1123700D01*
Y1136450D01*
X444650D01*
Y1056450D01*
D02*
G37*
G36*
X508001Y1123810D02*
X508156Y1123030D01*
X508598Y1122368D01*
X509260Y1121926D01*
X509540Y1121870D01*
Y1056060D01*
X467040D01*
Y1136060D01*
X508001D01*
Y1123810D01*
D02*
G37*
%LPC*%
G36*
X795296Y1111250D02*
X794202D01*
X793192Y1110831D01*
X792418Y1110058D01*
X791999Y1109047D01*
Y1107953D01*
X792418Y1106942D01*
X793192Y1106169D01*
X794202Y1105750D01*
X795296D01*
X796307Y1106169D01*
X797081Y1106942D01*
X797499Y1107953D01*
Y1109047D01*
X797081Y1110058D01*
X796307Y1110831D01*
X795296Y1111250D01*
D02*
G37*
G36*
X818546Y1103250D02*
X817452D01*
X816441Y1102831D01*
X815668Y1102058D01*
X815249Y1101047D01*
Y1099953D01*
X815668Y1098942D01*
X816441Y1098169D01*
X817034Y1097923D01*
X817034Y1096577D01*
X816441Y1096331D01*
X815668Y1095558D01*
X815249Y1094547D01*
Y1093453D01*
X815668Y1092442D01*
X816441Y1091669D01*
X817452Y1091250D01*
X818546D01*
X819557Y1091669D01*
X820331Y1092442D01*
X820749Y1093453D01*
Y1094547D01*
X820331Y1095558D01*
X819557Y1096331D01*
X818965Y1096577D01*
X818965Y1097923D01*
X819557Y1098169D01*
X820331Y1098942D01*
X820749Y1099953D01*
Y1101047D01*
X820331Y1102058D01*
X819557Y1102831D01*
X818546Y1103250D01*
D02*
G37*
G36*
X795296Y1096750D02*
X794202D01*
X793192Y1096331D01*
X792418Y1095558D01*
X791999Y1094547D01*
Y1093453D01*
X792418Y1092442D01*
X793192Y1091669D01*
X794202Y1091250D01*
X795296D01*
X796307Y1091669D01*
X797081Y1092442D01*
X797499Y1093453D01*
Y1094547D01*
X797081Y1095558D01*
X796307Y1096331D01*
X795296Y1096750D01*
D02*
G37*
G36*
X406697Y1128950D02*
X405603D01*
X404592Y1128531D01*
X403819Y1127758D01*
X403400Y1126747D01*
Y1125653D01*
X403819Y1124642D01*
X404592Y1123869D01*
X405603Y1123450D01*
X406697D01*
X407708Y1123869D01*
X408481Y1124642D01*
X408900Y1125653D01*
Y1126747D01*
X408481Y1127758D01*
X407708Y1128531D01*
X406697Y1128950D01*
D02*
G37*
G36*
X397197Y1107200D02*
X396103D01*
X395092Y1106781D01*
X394319Y1106008D01*
X393900Y1104997D01*
Y1103903D01*
X394319Y1102892D01*
X395092Y1102119D01*
X396103Y1101700D01*
X397197D01*
X398208Y1102119D01*
X398981Y1102892D01*
X399400Y1103903D01*
Y1104997D01*
X398981Y1106008D01*
X398208Y1106781D01*
X397197Y1107200D01*
D02*
G37*
G36*
X419697Y1116700D02*
X418603D01*
X417592Y1116281D01*
X416819Y1115508D01*
X416400Y1114497D01*
Y1113403D01*
X416819Y1112392D01*
X416931Y1112280D01*
X417481Y1111450D01*
X416931Y1110620D01*
X416819Y1110508D01*
X416400Y1109497D01*
Y1108403D01*
X416819Y1107392D01*
X417592Y1106619D01*
X417975Y1106460D01*
X418596Y1105759D01*
X418583Y1104938D01*
X418400Y1104497D01*
Y1103403D01*
X418819Y1102392D01*
X419592Y1101619D01*
X420603Y1101200D01*
X421697D01*
X422337Y1101465D01*
X422708Y1101619D01*
X424075Y1101386D01*
X424092Y1101369D01*
X425103Y1100950D01*
X426197D01*
X427208Y1101369D01*
X427900Y1102061D01*
X428592Y1101369D01*
X429603Y1100950D01*
X430697D01*
X431708Y1101369D01*
X432481Y1102142D01*
X432900Y1103153D01*
Y1104247D01*
X432481Y1105258D01*
X431708Y1106031D01*
X430697Y1106450D01*
X429603D01*
X428592Y1106031D01*
X427900Y1105339D01*
X427208Y1106031D01*
X426197Y1106450D01*
X425103D01*
X424463Y1106185D01*
X424092Y1106031D01*
X422725Y1106264D01*
X422708Y1106281D01*
X422325Y1106440D01*
X421704Y1107141D01*
X421717Y1107962D01*
X421900Y1108403D01*
Y1109497D01*
X421481Y1110508D01*
X421369Y1110620D01*
X420819Y1111450D01*
X421369Y1112280D01*
X421481Y1112392D01*
X421900Y1113403D01*
Y1114497D01*
X421481Y1115508D01*
X420708Y1116281D01*
X419697Y1116700D01*
D02*
G37*
G36*
X427697Y1091200D02*
X426603D01*
X425592Y1090781D01*
X424819Y1090008D01*
X424400Y1088997D01*
Y1087903D01*
X424819Y1086892D01*
X425592Y1086119D01*
X426603Y1085700D01*
X427697D01*
X428708Y1086119D01*
X429481Y1086892D01*
X429900Y1087903D01*
Y1088997D01*
X429481Y1090008D01*
X428708Y1090781D01*
X427697Y1091200D01*
D02*
G37*
G36*
X397697Y1090700D02*
X396603D01*
X395592Y1090281D01*
X394819Y1089508D01*
X394400Y1088497D01*
Y1087403D01*
X394819Y1086392D01*
X395592Y1085619D01*
X396603Y1085200D01*
X397697D01*
X398708Y1085619D01*
X399481Y1086392D01*
X399900Y1087403D01*
Y1088497D01*
X399481Y1089508D01*
X398708Y1090281D01*
X397697Y1090700D01*
D02*
G37*
G36*
X415447Y1073700D02*
X414353D01*
X413342Y1073281D01*
X412569Y1072508D01*
X412150Y1071497D01*
Y1070403D01*
X412569Y1069392D01*
X413342Y1068619D01*
X414353Y1068200D01*
X415447D01*
X416458Y1068619D01*
X417231Y1069392D01*
X417650Y1070403D01*
Y1071497D01*
X417231Y1072508D01*
X416458Y1073281D01*
X415447Y1073700D01*
D02*
G37*
G36*
X494837Y1117560D02*
X493743D01*
X492732Y1117141D01*
X491959Y1116368D01*
X491540Y1115357D01*
Y1114263D01*
X491959Y1113252D01*
X492732Y1112479D01*
X493743Y1112060D01*
X494837D01*
X495848Y1112479D01*
X496621Y1113252D01*
X497040Y1114263D01*
Y1115357D01*
X496621Y1116368D01*
X495848Y1117141D01*
X494837Y1117560D01*
D02*
G37*
G36*
X478087Y1112560D02*
X476993D01*
X475982Y1112141D01*
X475209Y1111368D01*
X474790Y1110357D01*
Y1109263D01*
X475209Y1108252D01*
X475982Y1107479D01*
X476993Y1107060D01*
X478087D01*
X479098Y1107479D01*
X479871Y1108252D01*
X480290Y1109263D01*
Y1110357D01*
X479871Y1111368D01*
X479098Y1112141D01*
X478087Y1112560D01*
D02*
G37*
G36*
X497087Y1105810D02*
X495993D01*
X494982Y1105391D01*
X494209Y1104618D01*
X493790Y1103607D01*
Y1102513D01*
X494209Y1101502D01*
X494446Y1101265D01*
X494842Y1100435D01*
X494446Y1099605D01*
X494209Y1099368D01*
X493790Y1098357D01*
Y1097263D01*
X494055Y1096623D01*
X494209Y1096252D01*
X493976Y1094885D01*
X493959Y1094868D01*
X493540Y1093857D01*
Y1092763D01*
X493959Y1091752D01*
X494651Y1091060D01*
X493959Y1090368D01*
X493540Y1089357D01*
Y1088263D01*
X493959Y1087252D01*
X494196Y1087015D01*
X494714Y1086440D01*
X494209Y1085368D01*
X493790Y1084357D01*
Y1083263D01*
X494209Y1082252D01*
X494529Y1081932D01*
X494695Y1080877D01*
X494446Y1080355D01*
X493959Y1079868D01*
X493540Y1078857D01*
Y1077763D01*
X493959Y1076752D01*
X494633Y1076078D01*
X494660Y1075423D01*
X494562Y1074674D01*
X494482Y1074641D01*
X493709Y1073868D01*
X493290Y1072857D01*
Y1071763D01*
X493709Y1070752D01*
X494482Y1069979D01*
X495493Y1069560D01*
X496587D01*
X497598Y1069979D01*
X498371Y1070752D01*
X498790Y1071763D01*
Y1072857D01*
X498371Y1073868D01*
X497697Y1074542D01*
X497670Y1075197D01*
X497768Y1075946D01*
X497848Y1075979D01*
X498621Y1076752D01*
X499040Y1077763D01*
Y1078857D01*
X498621Y1079868D01*
X498301Y1080188D01*
X498135Y1081243D01*
X498384Y1081765D01*
X498871Y1082252D01*
X499290Y1083263D01*
Y1084357D01*
X498871Y1085368D01*
X498634Y1085605D01*
X498116Y1086180D01*
X498621Y1087252D01*
X499040Y1088263D01*
Y1089357D01*
X498621Y1090368D01*
X497929Y1091060D01*
X498621Y1091752D01*
X499040Y1092763D01*
Y1093857D01*
X498775Y1094497D01*
X498621Y1094868D01*
X498854Y1096235D01*
X498871Y1096252D01*
X499290Y1097263D01*
Y1098357D01*
X498871Y1099368D01*
X498634Y1099605D01*
X498238Y1100435D01*
X498634Y1101265D01*
X498871Y1101502D01*
X499290Y1102513D01*
Y1103607D01*
X498871Y1104618D01*
X498098Y1105391D01*
X497087Y1105810D01*
D02*
G37*
%LPD*%
D14*
X790499Y1099000D02*
X794825Y1103326D01*
X742500Y1099000D02*
X790499D01*
X736750Y1074750D02*
Y1093250D01*
X742500Y1099000D01*
X646290Y1118810D02*
X503540D01*
X619391Y1031222D02*
G03*
X616369Y1031222I-1511J-3432D01*
G01*
X621630Y1027790D02*
G03*
X619391Y1031222I-3750J0D01*
G01*
X616369D02*
G03*
X621630Y1027790I1511J-3432D01*
G01*
X590880Y1027040D02*
G03*
X590880Y1027040I-3750J0D01*
G01*
X560880Y1027290D02*
G03*
X560880Y1027290I-3750J0D01*
G01*
X530880Y1026540D02*
G03*
X530880Y1026540I-3750J0D01*
G01*
X501630Y1026040D02*
G03*
X501630Y1026040I-3750J0D01*
G01*
X471380Y1028540D02*
G03*
X470251Y1031222I-3750J0D01*
G01*
X465009D02*
G03*
X471380Y1028540I2621J-2682D01*
G01*
X779380Y975540D02*
G03*
X773009Y972858I-3750J0D01*
G01*
X778251D02*
G03*
X779380Y975540I-2621J2682D01*
G01*
X710880Y980040D02*
G03*
X710880Y980040I-3750J0D01*
G01*
X680880Y981290D02*
G03*
X680880Y981290I-3750J0D01*
G01*
X740880Y979040D02*
G03*
X740880Y979040I-3750J0D01*
G01*
X456630Y997790D02*
G03*
X456630Y997790I-3750J0D01*
G01*
X650880Y983540D02*
G03*
X650880Y983540I-3750J0D01*
G01*
X770880Y975790D02*
G03*
X764792Y972858I-3750J0D01*
G01*
X769468D02*
G03*
X770880Y975790I-2338J2932D01*
G01*
X419380Y1028790D02*
G03*
X418484Y1031222I-3750J0D01*
G01*
X412776D02*
G03*
X419380Y1028790I2854J-2432D01*
G01*
X411380D02*
G03*
X410484Y1031222I-3750J0D01*
G01*
X404776D02*
G03*
X411380Y1028790I2854J-2432D01*
G01*
X407630Y1017540D02*
G03*
X407630Y1017540I-3750J0D01*
G01*
X378380Y1018040D02*
G03*
X370923Y1017473I-3750J0D01*
G01*
X375337Y1014357D02*
G03*
X378380Y1018040I-707J3683D01*
G01*
X370923Y1017473D02*
G03*
X367886Y1013573I707J-3683D01*
G01*
X370374Y1010257D02*
G03*
X375380Y1013790I1256J3533D01*
G01*
X412844Y972858D02*
G03*
X413380Y974790I-3214J1932D01*
G01*
D02*
G03*
X406416Y972858I-3750J0D01*
G01*
X367886Y1013573D02*
G03*
X370380Y1010040I-1256J-3533D01*
G01*
X396630Y998040D02*
G03*
X396630Y998040I-3750J0D01*
G01*
X379380Y986040D02*
G03*
X379380Y986040I-3750J0D01*
G01*
X320380Y979040D02*
X333880D01*
X619391Y1031222D02*
X793562D01*
X470251D02*
X616369D01*
X621197Y1029539D02*
X793562D01*
X589926D02*
X614563D01*
X619750Y1024539D02*
X793562D01*
X559679D02*
X584336D01*
X589925D02*
X616010D01*
X471244Y1029539D02*
X496532D01*
X560131D02*
X584334D01*
X529381D02*
X554129D01*
X530302Y1024539D02*
X554581D01*
X499228Y1029539D02*
X524879D01*
X501317Y1024539D02*
X523958D01*
X767195Y979539D02*
X793562D01*
Y972858D02*
Y1031222D01*
X454750Y994539D02*
X793562D01*
X456197Y999539D02*
X793562D01*
X679002Y984539D02*
X793562D01*
X779244Y974539D02*
X793562D01*
X778251Y972858D02*
X793562D01*
X770665Y974539D02*
X772016D01*
X769468Y972858D02*
X773009D01*
X650744Y984539D02*
X675258D01*
X740847Y979539D02*
X767065D01*
X680446D02*
X703414D01*
X710846D02*
X733413D01*
X418484Y1031222D02*
X465009D01*
X410484D02*
X412776D01*
X407053Y1019539D02*
X793562D01*
X419304Y1029539D02*
X464016D01*
X406129Y1014539D02*
X793562D01*
X334380Y1024539D02*
X494443D01*
X378067Y1019539D02*
X400708D01*
X334380Y1031222D02*
X404776D01*
X334380Y1029539D02*
X403956D01*
X334380Y1019539D02*
X371193D01*
X375975Y1014539D02*
X401631D01*
X334380D02*
X367956D01*
X334380Y1009539D02*
X362914D01*
X394225Y994539D02*
X451010D01*
X396317Y999539D02*
X449563D01*
X379067Y984539D02*
X643516D01*
X334380Y1004539D02*
X793562D01*
X370346Y1009539D02*
X793562D01*
X376978Y989539D02*
X793562D01*
X413372Y974539D02*
X763595D01*
X412844Y972858D02*
X764792D01*
X334380Y979539D02*
X673814D01*
X334380Y994539D02*
X391535D01*
X334380Y999539D02*
X389443D01*
X334380Y972858D02*
Y1031222D01*
Y972858D02*
Y1031222D01*
Y974539D02*
X405888D01*
X334380Y972858D02*
X406416D01*
X334380Y989539D02*
X374282D01*
X334380Y984539D02*
X372193D01*
D24*
X812500Y1045000D02*
D03*
X287750Y1045000D02*
D03*
X312750D02*
D03*
X337750D02*
D03*
X362750D02*
D03*
X387750D02*
D03*
X412750D02*
D03*
X437750D02*
D03*
X462750D02*
D03*
X487750D02*
D03*
X512750D02*
D03*
X537750D02*
D03*
X562750D02*
D03*
X587750D02*
D03*
X612750D02*
D03*
X637750D02*
D03*
X662750D02*
D03*
X687750D02*
D03*
X712750D02*
D03*
X737750D02*
D03*
X762750D02*
D03*
X787750D02*
D03*
D25*
X690000Y1065000D02*
D03*
Y1090000D02*
D03*
Y1140000D02*
D03*
Y1115000D02*
D03*
X456000Y1065500D02*
D03*
Y1090500D02*
D03*
Y1115500D02*
D03*
Y1140500D02*
D03*
D26*
X794749Y1094000D02*
D03*
X806749Y1108500D02*
D03*
X736750Y1074750D02*
D03*
X794749Y1108500D02*
D03*
X812749D02*
D03*
X806749Y1085250D02*
D03*
X817999Y1100500D02*
D03*
X817999Y1094000D02*
D03*
X812749Y1085250D02*
D03*
X821249Y1097250D02*
D03*
X497040Y1065060D02*
D03*
X497290Y1126060D02*
D03*
X593040Y1113560D02*
D03*
X496540Y1103060D02*
D03*
Y1097810D02*
D03*
X496290Y1093310D02*
D03*
X496040Y1072310D02*
D03*
X496290Y1078310D02*
D03*
Y1088810D02*
D03*
X496540Y1083810D02*
D03*
X477540Y1109810D02*
D03*
X494290Y1114810D02*
D03*
X504290Y1125560D02*
D03*
X558790Y1132810D02*
D03*
X569040Y1096810D02*
D03*
X553040Y1093560D02*
D03*
X552540Y1083560D02*
D03*
Y1078810D02*
D03*
X592540Y1097060D02*
D03*
X646290Y1118810D02*
D03*
X645540Y1108810D02*
D03*
Y1103560D02*
D03*
X645790Y1098810D02*
D03*
X646290Y1073810D02*
D03*
X397150Y1087950D02*
D03*
X396650Y1130950D02*
D03*
X439650Y1073950D02*
D03*
X322650Y1118450D02*
D03*
Y1113700D02*
D03*
Y1108950D02*
D03*
Y1103700D02*
D03*
Y1098700D02*
D03*
Y1093450D02*
D03*
Y1088450D02*
D03*
X396650Y1097950D02*
D03*
X406150Y1126200D02*
D03*
X430150Y1103700D02*
D03*
X425650Y1103700D02*
D03*
X427150Y1088450D02*
D03*
X421150Y1103950D02*
D03*
Y1091950D02*
D03*
X419150Y1108950D02*
D03*
Y1113950D02*
D03*
X414900Y1070950D02*
D03*
X411650Y1059450D02*
D03*
X404150Y1067950D02*
D03*
X396650Y1104450D02*
D03*
X432880Y1015290D02*
D03*
X433130Y988540D02*
D03*
X320380Y979040D02*
D03*
X320630Y984290D02*
D03*
Y989290D02*
D03*
Y994540D02*
D03*
X321130Y999790D02*
D03*
X320880Y1019290D02*
D03*
X325130Y1014290D02*
D03*
X366630Y1010040D02*
D03*
X375630Y986040D02*
D03*
X385630Y1027540D02*
D03*
X374630Y1018040D02*
D03*
X371630Y1013790D02*
D03*
X647130Y983540D02*
D03*
X677130Y981290D02*
D03*
X775630Y975540D02*
D03*
X737130Y979040D02*
D03*
X409630Y974790D02*
D03*
X707130Y980040D02*
D03*
X767130Y975790D02*
D03*
X392880Y998040D02*
D03*
X415630Y1028790D02*
D03*
X452880Y997790D02*
D03*
X617880Y1027790D02*
D03*
X587130Y1027040D02*
D03*
X407630Y1028790D02*
D03*
X403880Y1017540D02*
D03*
X557130Y1027290D02*
D03*
X527130Y1026540D02*
D03*
X497880Y1026040D02*
D03*
X467630Y1028540D02*
D03*
M02*
