G04*
G04 #@! TF.GenerationSoftware,Altium Limited,Altium Designer,26.4.1 (12)*
G04*
G04 Layer_Physical_Order=2*
G04 Layer_Color=36540*
%FSLAX44Y44*%
%MOMM*%
G71*
G04*
G04 #@! TF.SameCoordinates,8F52405A-A2E0-4153-8A60-8C4F9B0F4C2B*
G04*
G04*
G04 #@! TF.FilePolarity,Positive*
G04*
G01*
G75*
%ADD14C,0.2000*%
G04:AMPARAMS|DCode=22|XSize=0.2mm|YSize=1.2mm|CornerRadius=0.05mm|HoleSize=0mm|Usage=FLASHONLY|Rotation=90.000|XOffset=0mm|YOffset=0mm|HoleType=Round|Shape=RoundedRectangle|*
%AMROUNDEDRECTD22*
21,1,0.2000,1.1000,0,0,90.0*
21,1,0.1000,1.2000,0,0,90.0*
1,1,0.1000,0.5500,0.0500*
1,1,0.1000,0.5500,-0.0500*
1,1,0.1000,-0.5500,-0.0500*
1,1,0.1000,-0.5500,0.0500*
%
%ADD22ROUNDEDRECTD22*%
G04:AMPARAMS|DCode=23|XSize=0.2mm|YSize=1.2mm|CornerRadius=0.05mm|HoleSize=0mm|Usage=FLASHONLY|Rotation=180.000|XOffset=0mm|YOffset=0mm|HoleType=Round|Shape=RoundedRectangle|*
%AMROUNDEDRECTD23*
21,1,0.2000,1.1000,0,0,180.0*
21,1,0.1000,1.2000,0,0,180.0*
1,1,0.1000,-0.0500,0.5500*
1,1,0.1000,0.0500,0.5500*
1,1,0.1000,0.0500,-0.5500*
1,1,0.1000,-0.0500,-0.5500*
%
%ADD23ROUNDEDRECTD23*%
%ADD24C,0.3500*%
G36*
X645040Y1117585D02*
X643804Y1117810D01*
Y1119810D01*
X645040Y1120035D01*
Y1117585D01*
D02*
G37*
G36*
X824500Y1082039D02*
X803974D01*
X803448Y1083309D01*
X803831Y1083692D01*
X804250Y1084703D01*
Y1085797D01*
X803831Y1086808D01*
X803058Y1087581D01*
X802047Y1088000D01*
X800953D01*
X799942Y1087581D01*
X799169Y1086808D01*
X798750Y1085797D01*
Y1084703D01*
X799169Y1083692D01*
X799552Y1083309D01*
X799026Y1082039D01*
X788499D01*
Y1091113D01*
X789453Y1091750D01*
X790547D01*
X791558Y1092169D01*
X792331Y1092942D01*
X792750Y1093953D01*
Y1095047D01*
X792331Y1096058D01*
X791558Y1096831D01*
X790547Y1097250D01*
X789453D01*
X788499Y1097887D01*
Y1112961D01*
X824500D01*
Y1082039D01*
D02*
G37*
G36*
X737975Y1076000D02*
X735525D01*
X735750Y1077236D01*
X737750D01*
X737975Y1076000D01*
D02*
G37*
G36*
X444650Y1056450D02*
X386189D01*
Y1068700D01*
X386034Y1069480D01*
X385592Y1070142D01*
X384930Y1070584D01*
X384650Y1070640D01*
Y1121760D01*
X384930Y1121816D01*
X385592Y1122258D01*
X386034Y1122920D01*
X386189Y1123700D01*
Y1136450D01*
X444650D01*
Y1056450D01*
D02*
G37*
G36*
X593001Y1136771D02*
Y1123810D01*
X593156Y1123030D01*
X593598Y1122368D01*
X594260Y1121926D01*
X594540Y1121870D01*
Y1115613D01*
X594087Y1115310D01*
X592993D01*
X591982Y1114891D01*
X591209Y1114118D01*
X590790Y1113107D01*
Y1112013D01*
X591209Y1111002D01*
X591982Y1110229D01*
X592993Y1109810D01*
X594087D01*
X594540Y1109507D01*
Y1107780D01*
X593837Y1107310D01*
X592743D01*
X591732Y1106891D01*
X590959Y1106118D01*
X590540Y1105107D01*
Y1104013D01*
X590959Y1103002D01*
X591732Y1102229D01*
X592743Y1101810D01*
X593837D01*
X594540Y1101340D01*
Y1093530D01*
X593837Y1093060D01*
X592743D01*
X591732Y1092641D01*
X590959Y1091868D01*
X590540Y1090857D01*
Y1089763D01*
X590959Y1088752D01*
X591732Y1087979D01*
X592743Y1087560D01*
X593837D01*
X594540Y1087090D01*
Y1070750D01*
X594260Y1070694D01*
X593598Y1070252D01*
X593156Y1069590D01*
X593001Y1068810D01*
X593001Y1056958D01*
X592103Y1056060D01*
X553704D01*
Y1068810D01*
X553549Y1069590D01*
X553107Y1070252D01*
X552445Y1070694D01*
X552040Y1070774D01*
Y1076060D01*
X553087D01*
X554098Y1076479D01*
X554871Y1077252D01*
X555290Y1078263D01*
Y1079357D01*
X554871Y1080368D01*
X554137Y1081185D01*
X554871Y1082002D01*
X555290Y1083013D01*
Y1084107D01*
X554871Y1085118D01*
X554098Y1085891D01*
X553087Y1086310D01*
X552040D01*
Y1136771D01*
X593001Y1136771D01*
D02*
G37*
G36*
X508001Y1123810D02*
X508156Y1123030D01*
X508598Y1122368D01*
X509260Y1121926D01*
X509540Y1121870D01*
Y1056060D01*
X467040D01*
Y1136060D01*
X508001D01*
Y1123810D01*
D02*
G37*
G36*
X322866Y980040D02*
Y978040D01*
X321630Y977815D01*
Y980265D01*
X322866Y980040D01*
D02*
G37*
%LPC*%
G36*
X802047Y1111250D02*
X800953D01*
X799942Y1110831D01*
X799169Y1110058D01*
X798750Y1109047D01*
Y1107953D01*
X799169Y1106942D01*
X799942Y1106169D01*
X800953Y1105750D01*
X802047D01*
X803058Y1106169D01*
X803831Y1106942D01*
X804250Y1107953D01*
Y1109047D01*
X803831Y1110058D01*
X803058Y1110831D01*
X802047Y1111250D01*
D02*
G37*
G36*
X439697Y1123450D02*
X438603D01*
X437592Y1123031D01*
X436819Y1122258D01*
X436400Y1121247D01*
Y1120153D01*
X436819Y1119142D01*
X437592Y1118369D01*
X438603Y1117950D01*
X439697D01*
X440708Y1118369D01*
X441481Y1119142D01*
X441900Y1120153D01*
Y1121247D01*
X441481Y1122258D01*
X440708Y1123031D01*
X439697Y1123450D01*
D02*
G37*
G36*
X429947Y1111450D02*
X428853D01*
X427842Y1111031D01*
X427272Y1110461D01*
X426525Y1110343D01*
X425778Y1110461D01*
X425208Y1111031D01*
X424197Y1111450D01*
X423103D01*
X422092Y1111031D01*
X421319Y1110258D01*
X420900Y1109247D01*
Y1108153D01*
X421319Y1107142D01*
X422092Y1106369D01*
X423103Y1105950D01*
X424197D01*
X425208Y1106369D01*
X425778Y1106939D01*
X426525Y1107057D01*
X427272Y1106939D01*
X427842Y1106369D01*
X428853Y1105950D01*
X429947D01*
X430958Y1106369D01*
X431731Y1107142D01*
X432150Y1108153D01*
Y1109247D01*
X431731Y1110258D01*
X430958Y1111031D01*
X429947Y1111450D01*
D02*
G37*
G36*
X414447D02*
X413353D01*
X412342Y1111031D01*
X411569Y1110258D01*
X411150Y1109247D01*
Y1108153D01*
X411569Y1107142D01*
X412342Y1106369D01*
X413353Y1105950D01*
X414447D01*
X415458Y1106369D01*
X416231Y1107142D01*
X416650Y1108153D01*
Y1109247D01*
X416231Y1110258D01*
X415458Y1111031D01*
X414447Y1111450D01*
D02*
G37*
G36*
X429947Y1101200D02*
X428853D01*
X427842Y1100781D01*
X427069Y1100008D01*
X426650Y1098997D01*
Y1097903D01*
X427069Y1096892D01*
X427842Y1096119D01*
X428853Y1095700D01*
X429947D01*
X430958Y1096119D01*
X431731Y1096892D01*
X432150Y1097903D01*
Y1098997D01*
X431731Y1100008D01*
X430958Y1100781D01*
X429947Y1101200D01*
D02*
G37*
G36*
X414447Y1101450D02*
X413353D01*
X412342Y1101031D01*
X411569Y1100258D01*
X411150Y1099247D01*
Y1098153D01*
X411569Y1097142D01*
X412342Y1096369D01*
X413353Y1095950D01*
X414447D01*
X415458Y1096369D01*
X415601Y1096512D01*
X416676Y1096848D01*
X417230Y1096481D01*
X417592Y1096119D01*
X418603Y1095700D01*
X419697D01*
X420708Y1096119D01*
X421481Y1096892D01*
X421900Y1097903D01*
Y1098997D01*
X421481Y1100008D01*
X420708Y1100781D01*
X419697Y1101200D01*
X418603D01*
X417592Y1100781D01*
X417449Y1100638D01*
X416374Y1100302D01*
X415820Y1100669D01*
X415458Y1101031D01*
X414447Y1101450D01*
D02*
G37*
G36*
X397406Y1101200D02*
X396312D01*
X395301Y1100781D01*
X394528Y1100008D01*
X394109Y1098997D01*
Y1097903D01*
X394528Y1096892D01*
X395301Y1096119D01*
X396312Y1095700D01*
X397406D01*
X398416Y1096119D01*
X399190Y1096892D01*
X399609Y1097903D01*
Y1098997D01*
X399190Y1100008D01*
X398416Y1100781D01*
X397406Y1101200D01*
D02*
G37*
G36*
X436947Y1081200D02*
X435853D01*
X434842Y1080781D01*
X434069Y1080008D01*
X433650Y1078997D01*
Y1077903D01*
X434069Y1076892D01*
X434842Y1076119D01*
X435853Y1075700D01*
X436947D01*
X437958Y1076119D01*
X438731Y1076892D01*
X439150Y1077903D01*
Y1078997D01*
X438731Y1080008D01*
X437958Y1080781D01*
X436947Y1081200D01*
D02*
G37*
G36*
X397406Y1090450D02*
X396312D01*
X395301Y1090031D01*
X394528Y1089258D01*
X394109Y1088247D01*
Y1087153D01*
X394528Y1086142D01*
X395301Y1085369D01*
X394849Y1084580D01*
X394777Y1084508D01*
X394359Y1083497D01*
Y1082403D01*
X394371Y1082374D01*
X394585Y1081291D01*
X393736Y1080841D01*
X393592Y1080781D01*
X392819Y1080008D01*
X392400Y1078997D01*
Y1077903D01*
X392819Y1076892D01*
X393592Y1076119D01*
X394603Y1075700D01*
X395697D01*
X396708Y1076119D01*
X397481Y1076892D01*
X397900Y1077903D01*
Y1078997D01*
X397888Y1079026D01*
X397674Y1080110D01*
X398523Y1080559D01*
X398666Y1080619D01*
X399440Y1081392D01*
X399859Y1082403D01*
Y1083497D01*
X399440Y1084508D01*
X398666Y1085281D01*
X399118Y1086070D01*
X399190Y1086142D01*
X399609Y1087153D01*
Y1088247D01*
X399190Y1089258D01*
X398416Y1090031D01*
X397406Y1090450D01*
D02*
G37*
G36*
X494837Y1117560D02*
X493743D01*
X492732Y1117141D01*
X491959Y1116368D01*
X491540Y1115357D01*
Y1114263D01*
X491959Y1113252D01*
X492732Y1112479D01*
X493743Y1112060D01*
X494837D01*
X495848Y1112479D01*
X496621Y1113252D01*
X497040Y1114263D01*
Y1115357D01*
X496621Y1116368D01*
X495848Y1117141D01*
X494837Y1117560D01*
D02*
G37*
G36*
X478087Y1112560D02*
X476993D01*
X475982Y1112141D01*
X475209Y1111368D01*
X474790Y1110357D01*
Y1109263D01*
X475209Y1108252D01*
X475982Y1107479D01*
X476993Y1107060D01*
X478087D01*
X479098Y1107479D01*
X479871Y1108252D01*
X480290Y1109263D01*
Y1110357D01*
X479871Y1111368D01*
X479098Y1112141D01*
X478087Y1112560D01*
D02*
G37*
G36*
X497087Y1105810D02*
X495993D01*
X494982Y1105391D01*
X494209Y1104618D01*
X493790Y1103607D01*
Y1102513D01*
X494209Y1101502D01*
X494446Y1101265D01*
X494842Y1100435D01*
X494446Y1099605D01*
X494209Y1099368D01*
X493790Y1098357D01*
Y1097263D01*
X494055Y1096623D01*
X494209Y1096252D01*
X493976Y1094885D01*
X493959Y1094868D01*
X493540Y1093857D01*
Y1092763D01*
X493959Y1091752D01*
X494196Y1091515D01*
X494592Y1090685D01*
X494196Y1089855D01*
X493959Y1089618D01*
X493540Y1088607D01*
Y1087513D01*
X493959Y1086502D01*
X494071Y1086390D01*
X494621Y1085560D01*
X494071Y1084730D01*
X493959Y1084618D01*
X493540Y1083607D01*
Y1082513D01*
X493959Y1081502D01*
X494693Y1080685D01*
X493959Y1079868D01*
X493540Y1078857D01*
Y1077763D01*
X493622Y1077566D01*
X492767Y1076310D01*
X492493D01*
X491482Y1075891D01*
X490709Y1075118D01*
X490290Y1074107D01*
Y1073013D01*
X490709Y1072002D01*
X491482Y1071229D01*
X492493Y1070810D01*
X493587D01*
X494598Y1071229D01*
X495371Y1072002D01*
X495790Y1073013D01*
Y1074107D01*
X495708Y1074304D01*
X496563Y1075560D01*
X496837D01*
X497848Y1075979D01*
X498621Y1076752D01*
X499040Y1077763D01*
Y1078857D01*
X498621Y1079868D01*
X497887Y1080685D01*
X498621Y1081502D01*
X499040Y1082513D01*
Y1083607D01*
X498621Y1084618D01*
X498509Y1084730D01*
X497959Y1085560D01*
X498509Y1086390D01*
X498621Y1086502D01*
X499040Y1087513D01*
Y1088607D01*
X498621Y1089618D01*
X498384Y1089855D01*
X497988Y1090685D01*
X498384Y1091515D01*
X498621Y1091752D01*
X499040Y1092763D01*
Y1093857D01*
X498775Y1094497D01*
X498621Y1094868D01*
X498854Y1096235D01*
X498871Y1096252D01*
X499290Y1097263D01*
Y1098357D01*
X498871Y1099368D01*
X498634Y1099605D01*
X498238Y1100435D01*
X498634Y1101265D01*
X498871Y1101502D01*
X499290Y1102513D01*
Y1103607D01*
X498871Y1104618D01*
X498098Y1105391D01*
X497087Y1105810D01*
D02*
G37*
%LPD*%
D14*
X790499Y1099000D02*
X794825Y1103326D01*
X742500Y1099000D02*
X790499D01*
X736750Y1074750D02*
Y1093250D01*
X742500Y1099000D01*
X646290Y1118810D02*
X503540D01*
X619391Y1031222D02*
G03*
X616369Y1031222I-1511J-3432D01*
G01*
X621630Y1027790D02*
G03*
X619391Y1031222I-3750J0D01*
G01*
X616369D02*
G03*
X621630Y1027790I1511J-3432D01*
G01*
X590880Y1027040D02*
G03*
X590880Y1027040I-3750J0D01*
G01*
X560880Y1027290D02*
G03*
X560880Y1027290I-3750J0D01*
G01*
X471380Y1028540D02*
G03*
X470251Y1031222I-3750J0D01*
G01*
X530880Y1026540D02*
G03*
X530880Y1026540I-3750J0D01*
G01*
X465009Y1031222D02*
G03*
X471380Y1028540I2621J-2682D01*
G01*
X767380Y987290D02*
G03*
X767380Y987290I-3750J0D01*
G01*
X776751Y972858D02*
G03*
X777880Y975540I-2621J2682D01*
G01*
D02*
G03*
X771509Y972858I-3750J0D01*
G01*
X703380Y991790D02*
G03*
X703380Y991790I-3750J0D01*
G01*
X643130Y991540D02*
G03*
X643130Y991540I-3750J0D01*
G01*
X501630Y1026040D02*
G03*
X501630Y1026040I-3750J0D01*
G01*
X456630Y997790D02*
G03*
X456630Y997790I-3750J0D01*
G01*
X738130Y987290D02*
G03*
X738130Y987290I-3750J0D01*
G01*
X676380Y989790D02*
G03*
X676380Y989790I-3750J0D01*
G01*
X419380Y1028790D02*
G03*
X418484Y1031222I-3750J0D01*
G01*
X412776D02*
G03*
X419380Y1028790I2854J-2432D01*
G01*
X411380D02*
G03*
X410484Y1031222I-3750J0D01*
G01*
X404776D02*
G03*
X411380Y1028790I2854J-2432D01*
G01*
X407630Y1017540D02*
G03*
X407630Y1017540I-3750J0D01*
G01*
X378380Y1018040D02*
G03*
X370977Y1017193I-3750J0D01*
G01*
X373783Y1014387D02*
G03*
X378380Y1018040I847J3653D01*
G01*
X370977Y1017193D02*
G03*
X366521Y1012520I-847J-3653D01*
G01*
X373880Y1013540D02*
G03*
X373783Y1014387I-3750J0D01*
G01*
X369739Y1009810D02*
G03*
X373880Y1013540I391J3729D01*
G01*
X369880Y1008790D02*
G03*
X369739Y1009810I-3750J0D01*
G01*
X411189Y972858D02*
G03*
X411380Y974040I-3559J1182D01*
G01*
D02*
G03*
X404072Y972858I-3750J0D01*
G01*
X366521Y1012520D02*
G03*
X369880Y1008790I-391J-3729D01*
G01*
X366630Y998040D02*
G03*
X363644Y994369I-3750J0D01*
G01*
X371130Y994040D02*
G03*
X366616Y997711I-3750J0D01*
G01*
X363644Y994369D02*
G03*
X371130Y994040I3736J-329D01*
G01*
X377630Y987290D02*
G03*
X377630Y987290I-3750J0D01*
G01*
X619391Y1031222D02*
X793562D01*
X470251D02*
X616369D01*
X621197Y1029539D02*
X793562D01*
X589926D02*
X614563D01*
X619750Y1024539D02*
X793562D01*
X559679D02*
X584336D01*
X560131Y1029539D02*
X584334D01*
X589925Y1024539D02*
X616010D01*
X418484Y1031222D02*
X465009D01*
X419304Y1029539D02*
X464016D01*
X529381D02*
X554129D01*
X501317Y1024539D02*
X523958D01*
X530302D02*
X554581D01*
X471244Y1029539D02*
X496532D01*
X499228D02*
X524879D01*
X766630Y989539D02*
X793562D01*
Y972858D02*
Y1031222D01*
X702180Y994539D02*
X793562D01*
X456197Y999539D02*
X793562D01*
X737380Y989539D02*
X760630D01*
X777744Y974539D02*
X793562D01*
X776751Y972858D02*
X793562D01*
X766179Y984539D02*
X793562D01*
X736929D02*
X761081D01*
X641631Y994539D02*
X697080D01*
X454750D02*
X637129D01*
X702630Y989539D02*
X731380D01*
X676372D02*
X696630D01*
X642552D02*
X668888D01*
X410484Y1031222D02*
X412776D01*
X334380D02*
X404776D01*
X406129Y1014539D02*
X793562D01*
X407053Y1019539D02*
X793562D01*
X334380Y1024539D02*
X494443D01*
X334380Y1029539D02*
X403956D01*
X369804Y1009539D02*
X793562D01*
X378067Y1019539D02*
X400708D01*
X334380D02*
X371193D01*
X334380Y1014539D02*
X366516D01*
X375975D02*
X401631D01*
X334380Y1009539D02*
X362456D01*
X376880Y989539D02*
X636208D01*
X371097Y994539D02*
X451010D01*
X376429Y984539D02*
X731831D01*
X334380Y1004539D02*
X793562D01*
X366317Y999539D02*
X449563D01*
X334380Y979539D02*
X793562D01*
X411347Y974539D02*
X770516D01*
X411189Y972858D02*
X771509D01*
X334380D02*
X404072D01*
X334380Y974539D02*
X403914D01*
X334380Y999539D02*
X359443D01*
X334380Y972858D02*
Y1031222D01*
Y972858D02*
Y1031222D01*
Y984539D02*
X371331D01*
X334380Y994539D02*
X361535D01*
X334380Y989539D02*
X370880D01*
X320380Y979040D02*
X333880D01*
D22*
X812500Y1045000D02*
D03*
X287750Y1045000D02*
D03*
X312750D02*
D03*
X337750D02*
D03*
X362750D02*
D03*
X387750D02*
D03*
X412750D02*
D03*
X437750D02*
D03*
X462750D02*
D03*
X487750D02*
D03*
X512750D02*
D03*
X537750D02*
D03*
X562750D02*
D03*
X587750D02*
D03*
X612750D02*
D03*
X637750D02*
D03*
X662750D02*
D03*
X687750D02*
D03*
X712750D02*
D03*
X737750D02*
D03*
X762750D02*
D03*
X787750D02*
D03*
D23*
X690000Y1065000D02*
D03*
Y1090000D02*
D03*
Y1140000D02*
D03*
Y1115000D02*
D03*
X456000Y1065500D02*
D03*
Y1090500D02*
D03*
Y1115500D02*
D03*
Y1140500D02*
D03*
D24*
X801500Y1085250D02*
D03*
Y1108500D02*
D03*
X790000Y1094500D02*
D03*
X806749Y1108500D02*
D03*
X736750Y1074750D02*
D03*
X812749Y1108500D02*
D03*
X806749Y1085250D02*
D03*
X812749D02*
D03*
X821249Y1097250D02*
D03*
X593290Y1104560D02*
D03*
X493040Y1073560D02*
D03*
X496290Y1088060D02*
D03*
Y1083060D02*
D03*
X593540Y1112560D02*
D03*
X593290Y1090310D02*
D03*
X497040Y1065060D02*
D03*
X497290Y1126060D02*
D03*
X496540Y1103060D02*
D03*
Y1097810D02*
D03*
X496290Y1093310D02*
D03*
Y1078310D02*
D03*
X477540Y1109810D02*
D03*
X494290Y1114810D02*
D03*
X504290Y1125560D02*
D03*
X558790Y1132810D02*
D03*
X569040Y1096810D02*
D03*
X552540Y1083560D02*
D03*
Y1078810D02*
D03*
X646290Y1118810D02*
D03*
X645540Y1108810D02*
D03*
Y1103560D02*
D03*
X645790Y1098810D02*
D03*
X646290Y1073810D02*
D03*
X439150Y1072200D02*
D03*
X436400Y1078450D02*
D03*
X389650Y1075950D02*
D03*
X397109Y1082950D02*
D03*
X395150Y1078450D02*
D03*
X396859Y1087700D02*
D03*
Y1098450D02*
D03*
X421150Y1087700D02*
D03*
X429400Y1098450D02*
D03*
X419150D02*
D03*
X413900Y1098700D02*
D03*
X429400Y1108700D02*
D03*
X423650D02*
D03*
X419150D02*
D03*
X413900D02*
D03*
X395150Y1113950D02*
D03*
X439150Y1120700D02*
D03*
X322650Y1118700D02*
D03*
Y1113700D02*
D03*
Y1108950D02*
D03*
Y1103700D02*
D03*
Y1098700D02*
D03*
Y1093450D02*
D03*
Y1088450D02*
D03*
X672630Y989790D02*
D03*
X366130Y1008790D02*
D03*
X370130Y1013540D02*
D03*
X774130Y975540D02*
D03*
X362880Y998040D02*
D03*
X763630Y987290D02*
D03*
X734380D02*
D03*
X373880D02*
D03*
X407630Y974040D02*
D03*
X367380Y994040D02*
D03*
X432130Y989290D02*
D03*
X699630Y991790D02*
D03*
X639380Y991540D02*
D03*
X431880Y1014290D02*
D03*
X320380Y979040D02*
D03*
X320630Y984290D02*
D03*
Y989290D02*
D03*
Y994540D02*
D03*
X321130Y999790D02*
D03*
X320880Y1019290D02*
D03*
X325130Y1014290D02*
D03*
X385630Y1027540D02*
D03*
X374630Y1018040D02*
D03*
X415630Y1028790D02*
D03*
X452880Y997790D02*
D03*
X617880Y1027790D02*
D03*
X587130Y1027040D02*
D03*
X407630Y1028790D02*
D03*
X403880Y1017540D02*
D03*
X557130Y1027290D02*
D03*
X527130Y1026540D02*
D03*
X497880Y1026040D02*
D03*
X467630Y1028540D02*
D03*
M02*
