M48
;Layer_Color=9474304
;FILE_FORMAT=4:4
METRIC,LZ
;TYPE=PLATED
T01F00S00C0.1500
%
T01
X0017158Y0008188
X00191Y0010575
X0019275Y00115
X00196Y001185
X00194Y0012275
X0019725Y0013775
X0020125Y0014075
X00189
X00182Y0012975
X0021175Y0013075
X0021725Y0012075
X00226Y001325
X0022625Y00137
X00231078Y0014075
X00217Y00141
X002025Y001585
X002065Y001705
X00217Y00181
X0021175Y00191
X00217Y00201
X002005
X00195Y0020075
X0019375Y0018575
X001735Y0018675
X0017925Y0020175
X0021925Y0022575
X002195Y0023275
X002175Y00238
X0024262Y0022025
X002621Y0022383
X0026225Y0023783
X00261328Y00201
X00265078Y001945
X00256328Y001945
X00247578Y0019495
X00238828Y0019475
Y0018475
X00247828Y00179
X00246078Y0016075
X00251Y00158
X00251078Y0014925
X00262077Y00148501
X00269828Y0016175
X00276578Y00162
X00275578Y00178426
X00280328Y0017825
X00288828
X00299578Y00176
X00304828Y0017675
X0030875Y0018775
X0032575Y001875
X0032165Y0018255
X0032575Y001775
X00327Y00167
X00315Y00168
X00314828Y00162
X00304828Y0015675
X00294828Y00166861
X00292828Y0019675
X00282328Y00209
X00309828Y002135
X00311328Y0020425
X0033425Y001973
X0035025Y001948
X0035915Y001908
X003675Y0019095
X003574Y001753
X0035752Y00170208
X00357012Y00162842
X003694Y001663
X0036365Y0015305
X00387Y001565
X003955Y001645
Y001745
X0040075Y002355
X00401Y0010025
X00365
X0034222Y0010008
X0034272Y0008558
X0032225Y0008208
X0030825Y0007
X0029887Y0008908
Y0009563
X0029775Y0010075
X0027958Y000995
Y000855
X0025985Y0008225
X0023648Y0008895
Y000958
X00235Y0010075
X0022475Y0009575
Y00089
X00241078Y0011475
X00262328Y001125
X00264828Y0012125
X00281828Y001285
X00294078Y00125611
X00299828Y001335
X0031525
X0032865Y001373
X0032615Y0014905
X00342Y0014
X00246078Y00136
X00232Y0016625
X0023Y0017325
X00270828Y0017825
M30
