G04*
G04 #@! TF.GenerationSoftware,Altium Limited,Altium Designer,23.2.1 (34)*
G04*
G04 Layer_Physical_Order=3*
G04 Layer_Color=65280*
%FSLAX44Y44*%
%MOMM*%
G71*
G04*
G04 #@! TF.SameCoordinates,D4FC6264-4346-42C6-8E52-0D0339D1B619*
G04*
G04*
G04 #@! TF.FilePolarity,Positive*
G04*
G01*
G75*
%ADD13C,0.3000*%
%ADD16C,0.1000*%
%ADD34C,0.3500*%
G36*
X444923Y330827D02*
X443923Y330827D01*
X443613Y331620D01*
X445196Y331777D01*
X444923Y330827D01*
X444923Y330827D02*
G37*
G36*
X440000Y330523D02*
X439000Y330523D01*
X438275Y332000D01*
X440725Y332000D01*
X440000Y330523D01*
X440000Y330523D02*
G37*
G36*
X489227Y306750D02*
X489227Y305750D01*
X487750Y305025D01*
X487750Y307475D01*
X489227Y306750D01*
X489227Y306750D02*
G37*
G36*
X281982Y296500D02*
X280425Y295968D01*
X279718Y296675D01*
X280250Y298232D01*
X281982Y296500D01*
X281982Y296500D02*
G37*
G36*
X482233Y296000D02*
X480500Y294268D01*
X479968Y295825D01*
X480675Y296532D01*
X482233Y296000D01*
X482233Y296000D02*
G37*
G36*
X276733Y293250D02*
X275175Y292718D01*
X274468Y293425D01*
X275000Y294982D01*
X276733Y293250D01*
X276733Y293250D02*
G37*
G36*
X270250Y281773D02*
X269250Y281773D01*
X268525Y283250D01*
X270975Y283250D01*
X270250Y281773D01*
X270250Y281773D02*
G37*
G36*
X485477Y270500D02*
X485477Y269500D01*
X484000Y268775D01*
X484000Y271225D01*
X485477Y270500D01*
X485477Y270500D02*
G37*
G36*
X475727Y268750D02*
X475727Y267750D01*
X474250Y267025D01*
X474250Y269475D01*
X475727Y268750D01*
X475727Y268750D02*
G37*
G36*
X489282Y267000D02*
X489131Y266000D01*
X487562Y265359D01*
X487912Y267784D01*
X489282Y267000D01*
X489282Y267000D02*
G37*
G36*
X442975Y260000D02*
X440525Y260000D01*
X441250Y261477D01*
X442250Y261477D01*
X442975Y260000D01*
X442975Y260000D02*
G37*
G36*
X438475Y260000D02*
X436025Y260000D01*
X436750Y261477D01*
X437750Y261477D01*
X438475Y260000D01*
X438475Y260000D02*
G37*
G36*
X433725Y260000D02*
X431275Y260000D01*
X432000Y261477D01*
X433000Y261477D01*
X433725Y260000D01*
X433725Y260000D02*
G37*
G36*
X491977Y309750D02*
X490500Y309025D01*
X490500Y311475D01*
X491977Y310750D01*
X491977Y309750D01*
X491977Y309750D02*
G37*
G36*
X531558Y334096D02*
X533122Y333496D01*
X531257Y331907D01*
X530792Y333448D01*
X531558Y334096D01*
X531558Y334096D02*
G37*
G36*
X545250Y284477D02*
X545975Y283000D01*
X543525Y283000D01*
X544250Y284477D01*
X545250Y284477D01*
X545250Y284477D02*
G37*
G36*
X542023Y335750D02*
X543500Y336475D01*
X543500Y334025D01*
X542023Y334750D01*
X542023Y335750D01*
X542023Y335750D02*
G37*
G36*
X557175Y302532D02*
X558732Y302000D01*
X557000Y300268D01*
X556468Y301825D01*
X557175Y302532D01*
X557175Y302532D02*
G37*
G36*
X565477Y321500D02*
X564000Y320775D01*
X564000Y323225D01*
X565477Y322500D01*
X565477Y321500D01*
X565477Y321500D02*
G37*
G36*
X563114Y327657D02*
X563753Y329107D01*
X565134Y327289D01*
X563768Y326897D01*
X563114Y327657D01*
X563114Y327657D02*
G37*
G36*
X567482Y302811D02*
X566623Y303290D01*
X567850Y304291D01*
X568189Y303518D01*
X567482Y302811D01*
X567482Y302811D02*
G37*
G36*
X574500Y330619D02*
X573859Y332188D01*
X576284Y331838D01*
X575500Y330468D01*
X574500Y330619D01*
X574500Y330619D02*
G37*
G36*
X578628Y335329D02*
X580129Y334960D01*
X578783Y332914D01*
X578074Y334469D01*
X578628Y335329D01*
X578628Y335329D02*
G37*
G36*
X617468Y280175D02*
X618000Y281733D01*
X619733Y280000D01*
X618175Y279468D01*
X617468Y280175D01*
X617468Y280175D02*
G37*
G36*
X617468Y284925D02*
X618000Y286483D01*
X619733Y284750D01*
X618175Y284218D01*
X617468Y284925D01*
X617468Y284925D02*
G37*
G36*
X748091Y334695D02*
X748533Y333730D01*
X748250Y333047D01*
X748250Y331953D01*
X748669Y330942D01*
X749442Y330169D01*
X750453Y329750D01*
X751547Y329750D01*
X752558Y330169D01*
X753331Y330942D01*
X753750Y331953D01*
X755000Y331905D01*
X755000Y265000D01*
X714639Y265000D01*
X714558Y265081D01*
X713547Y265500D01*
X712453Y265500D01*
X711442Y265081D01*
X711361Y265000D01*
X680000Y265000D01*
X680000Y335000D01*
X690815Y335000D01*
X691419Y333808D01*
X691000Y332797D01*
X691000Y331703D01*
X691419Y330692D01*
X692192Y329919D01*
X693203Y329500D01*
X694297Y329500D01*
X695308Y329919D01*
X696081Y330692D01*
X696500Y331703D01*
X696500Y332797D01*
X696081Y333808D01*
X696685Y335000D01*
X708594Y335000D01*
X709091Y333730D01*
X708669Y333308D01*
X708250Y332297D01*
X708250Y331203D01*
X708669Y330192D01*
X709442Y329419D01*
X710453Y329000D01*
X711547Y329000D01*
X712558Y329419D01*
X713331Y330192D01*
X713750Y331203D01*
X713750Y332297D01*
X713331Y333308D01*
X712909Y333730D01*
X713406Y335000D01*
X747815Y335000D01*
X748091Y334695D01*
X748091Y334695D02*
G37*
%LPC*%
G36*
X725297Y326500D02*
X724203Y326500D01*
X723192Y326081D01*
X722375Y325347D01*
X721558Y326081D01*
X720547Y326500D01*
X719453Y326500D01*
X718442Y326081D01*
X717750Y325389D01*
X717058Y326081D01*
X716047Y326500D01*
X714953Y326500D01*
X713942Y326081D01*
X713169Y325308D01*
X712750Y324297D01*
X712750Y323203D01*
X713169Y322192D01*
X713942Y321419D01*
X714953Y321000D01*
X716047Y321000D01*
X717058Y321419D01*
X717750Y322111D01*
X718442Y321419D01*
X719453Y321000D01*
X720547Y321000D01*
X721558Y321419D01*
X722375Y322153D01*
X723192Y321419D01*
X724203Y321000D01*
X725297Y321000D01*
X726308Y321419D01*
X727081Y322192D01*
X727500Y323203D01*
X727500Y324297D01*
X727081Y325308D01*
X726308Y326081D01*
X725297Y326500D01*
X725297Y326500D02*
G37*
G36*
X750797Y314000D02*
X749703Y314000D01*
X748692Y313581D01*
X747919Y312808D01*
X747500Y311797D01*
X747500Y310703D01*
X747919Y309692D01*
X748692Y308919D01*
X749703Y308500D01*
X750797Y308500D01*
X751808Y308919D01*
X752581Y309692D01*
X753000Y310703D01*
X753000Y311797D01*
X752581Y312808D01*
X751808Y313581D01*
X750797Y314000D01*
X750797Y314000D02*
G37*
G36*
X708297Y311750D02*
X707203Y311750D01*
X706192Y311331D01*
X705419Y310558D01*
X705000Y309547D01*
X705000Y308453D01*
X705419Y307442D01*
X706192Y306669D01*
X707203Y306250D01*
X708297Y306250D01*
X709308Y306669D01*
X710081Y307442D01*
X710500Y308453D01*
X710500Y309547D01*
X710081Y310558D01*
X709308Y311331D01*
X708297Y311750D01*
X708297Y311750D02*
G37*
G36*
X708797Y300750D02*
X707703Y300750D01*
X706692Y300331D01*
X705919Y299558D01*
X705500Y298547D01*
X705500Y297453D01*
X705919Y296442D01*
X706692Y295669D01*
X707703Y295250D01*
X708797Y295250D01*
X709808Y295669D01*
X710581Y296442D01*
X711000Y297453D01*
X711000Y298547D01*
X710581Y299558D01*
X709808Y300331D01*
X708797Y300750D01*
X708797Y300750D02*
G37*
G36*
X732297Y296250D02*
X731203Y296250D01*
X730192Y295831D01*
X729419Y295058D01*
X729000Y294047D01*
X729000Y292953D01*
X729419Y291942D01*
X730192Y291169D01*
X731203Y290750D01*
X732297Y290750D01*
X733308Y291169D01*
X734081Y291942D01*
X734500Y292953D01*
X734500Y294047D01*
X734081Y295058D01*
X733308Y295831D01*
X732297Y296250D01*
X732297Y296250D02*
G37*
G36*
X685547Y295000D02*
X684453Y295000D01*
X683442Y294581D01*
X682669Y293808D01*
X682250Y292797D01*
X682250Y291703D01*
X682669Y290692D01*
X683442Y289919D01*
X684453Y289500D01*
X685547Y289500D01*
X686558Y289919D01*
X687331Y290692D01*
X687750Y291703D01*
X687750Y292797D01*
X687331Y293808D01*
X686558Y294581D01*
X685547Y295000D01*
X685547Y295000D02*
G37*
G36*
X707047Y286000D02*
X705953Y286000D01*
X704942Y285581D01*
X704169Y284808D01*
X703750Y283797D01*
X703750Y282703D01*
X704169Y281692D01*
X704942Y280919D01*
X705953Y280500D01*
X707047Y280500D01*
X708058Y280919D01*
X708831Y281692D01*
X709250Y282703D01*
X709250Y283797D01*
X708831Y284808D01*
X708058Y285581D01*
X707047Y286000D01*
X707047Y286000D02*
G37*
G36*
X732047Y279750D02*
X730953Y279750D01*
X729942Y279331D01*
X729169Y278558D01*
X728750Y277547D01*
X728750Y276453D01*
X729169Y275442D01*
X729942Y274669D01*
X730953Y274250D01*
X732047Y274250D01*
X733058Y274669D01*
X733831Y275442D01*
X734250Y276453D01*
X734250Y277547D01*
X733831Y278558D01*
X733058Y279331D01*
X732047Y279750D01*
X732047Y279750D02*
G37*
G36*
X706797Y276750D02*
X705703Y276750D01*
X704692Y276331D01*
X703919Y275558D01*
X703500Y274547D01*
X703500Y273453D01*
X703919Y272442D01*
X704692Y271669D01*
X705703Y271250D01*
X706797Y271250D01*
X707808Y271669D01*
X708581Y272442D01*
X709000Y273453D01*
X709000Y274547D01*
X708581Y275558D01*
X707808Y276331D01*
X706797Y276750D01*
X706797Y276750D02*
G37*
G36*
X693547Y274250D02*
X692453Y274250D01*
X691442Y273831D01*
X690669Y273058D01*
X690250Y272047D01*
X690250Y270953D01*
X690669Y269942D01*
X691442Y269169D01*
X692453Y268750D01*
X693547Y268750D01*
X694558Y269169D01*
X695331Y269942D01*
X695750Y270953D01*
X695750Y272047D01*
X695331Y273058D01*
X694558Y273831D01*
X693547Y274250D01*
X693547Y274250D02*
G37*
G36*
X746047Y273000D02*
X744953Y273000D01*
X743942Y272581D01*
X743169Y271808D01*
X742750Y270797D01*
X742750Y269703D01*
X743169Y268692D01*
X743942Y267919D01*
X744953Y267500D01*
X746047Y267500D01*
X747058Y267919D01*
X747831Y268692D01*
X748250Y269703D01*
X748250Y270797D01*
X747831Y271808D01*
X747058Y272581D01*
X746047Y273000D01*
X746047Y273000D02*
G37*
%LPD*%
D13*
X425750Y259000D02*
X428000Y261250D01*
X428000Y279000D01*
X428500Y279500D01*
X430235Y279500D01*
X432735Y282000D01*
X482750Y282000D01*
X465000Y318500D02*
X471750Y325250D01*
X465000Y318500D02*
X437772Y318500D01*
X434272Y322000D01*
X419000Y322000D01*
X419000Y288250D01*
X427750Y279500D01*
X428000Y279500D02*
X428000Y279000D01*
X555000Y264250D02*
X562250Y271500D01*
X568750Y271500D01*
X578750Y281500D01*
X578750Y303500D01*
X585500Y310250D01*
X597000Y310250D01*
X605750Y319000D01*
X691750Y319000D01*
D16*
X269750Y267750D02*
X269750Y284500D01*
X275250Y288250D02*
X280000Y293000D01*
X280000Y296250D01*
X282000Y298250D01*
X282750Y261500D02*
X407500Y261500D01*
X411250Y265250D01*
X411250Y324503D01*
X415997Y329250D01*
X436922Y329250D01*
X440672Y325500D01*
X461747Y325500D01*
X468747Y332500D01*
X527654Y332500D01*
X534404Y325750D01*
X559075Y325750D01*
X560575Y327250D01*
X563414Y327250D01*
X565164Y329000D01*
X565500Y329000D01*
X566346Y325250D02*
X569500Y328404D01*
X569500Y333250D01*
X572750Y336500D01*
X572750Y336500D02*
X576750Y336500D01*
X580000Y333250D01*
X580500Y333250D01*
X575250Y333250D02*
X575000Y333000D01*
X575000Y310419D01*
X575750Y309669D01*
X575750Y287515D01*
X568485Y280250D01*
X560985Y280250D01*
X559000Y278265D01*
X559000Y273419D01*
X553331Y267750D01*
X532904Y267750D01*
X528654Y263500D01*
X483485Y263500D01*
X478735Y268250D01*
X473000Y268250D01*
X471904Y264750D02*
X479407Y264750D01*
X482657Y261500D01*
X532654Y261500D01*
X533154Y261000D01*
X577346Y261000D01*
X577846Y261500D01*
X606914Y261500D01*
X611500Y266086D01*
X611500Y283000D01*
X619500Y291000D01*
X619750Y286500D02*
X613500Y280250D01*
X613500Y265257D01*
X607743Y259500D01*
X578675Y259500D01*
X578175Y259000D01*
X532325Y259000D01*
X531825Y259500D01*
X481828Y259500D01*
X478578Y262750D01*
X471075Y262750D01*
X467075Y266750D01*
X441000Y266750D01*
X437250Y263000D01*
X437250Y258750D01*
X441750Y258750D02*
X441750Y263250D01*
X443250Y264750D01*
X466096Y264750D01*
X470096Y260750D01*
X477750Y260750D01*
X481000Y257500D01*
X530997Y257500D01*
X531497Y257000D01*
X579003Y257000D01*
X579503Y257500D01*
X611078Y257500D01*
X615500Y261922D01*
X615500Y277500D01*
X619750Y281750D01*
X569836Y306510D02*
X569836Y287257D01*
X566828Y284250D01*
X559328Y284250D01*
X555000Y279922D01*
X555000Y275075D01*
X551674Y271750D01*
X531247Y271750D01*
X529497Y270000D01*
X482750Y270000D01*
X483000Y274500D02*
X483478Y274022D01*
X484564Y274022D01*
X484836Y273750D01*
X550846Y273750D01*
X553000Y275904D01*
X553000Y280750D01*
X558500Y286250D01*
X561750Y286250D01*
X566000Y286250D01*
X567836Y288086D01*
X567836Y303164D01*
X566250Y304750D01*
X566250Y305000D01*
X569836Y306510D02*
X559250Y317096D01*
X559250Y323096D01*
X561404Y325250D01*
X566346Y325250D01*
X569500Y322000D02*
X572250Y319250D01*
X572250Y286843D01*
X567657Y282250D01*
X560157Y282250D01*
X557000Y279093D01*
X557000Y274247D01*
X552503Y269750D01*
X532075Y269750D01*
X528825Y266500D01*
X486750Y266500D01*
X486500Y266750D01*
X482250Y294250D02*
X478750Y297750D01*
X478750Y317346D01*
X481000Y319596D01*
X481000Y326346D01*
X478846Y328500D01*
X470404Y328500D01*
X463404Y321500D01*
X439015Y321500D01*
X435265Y325250D01*
X417654Y325250D01*
X415750Y323346D01*
X415750Y263422D01*
X409828Y257500D01*
X280000Y257500D01*
X269750Y267750D01*
X273250Y268172D02*
X273250Y291500D01*
X276750Y295000D01*
X275250Y288250D02*
X275250Y269000D01*
X282750Y261500D01*
X281922Y259500D02*
X409000Y259500D01*
X413750Y264250D01*
X413750Y324175D01*
X416825Y327250D01*
X436093Y327250D01*
X439843Y323500D01*
X462575Y323500D01*
X469576Y330500D01*
X526825Y330500D01*
X533575Y323750D01*
X554750Y323750D01*
X555500Y323000D01*
X555500Y303500D01*
X558750Y300250D01*
X545750Y299000D02*
X545750Y303596D01*
X543096Y306250D01*
X486750Y306250D01*
X486750Y306250D01*
X486500Y306250D01*
X486500Y306250D01*
X489250Y310250D02*
X544500Y310250D01*
X548500Y306250D01*
X548500Y296213D01*
X544750Y292463D01*
X544750Y281750D01*
X541250Y280654D02*
X544654Y277250D01*
X545250Y277250D01*
X541250Y280654D02*
X541250Y294500D01*
X545750Y299000D01*
X562750Y322000D02*
X569500Y322000D01*
X544750Y335250D02*
X541750Y335250D01*
X540500Y336500D01*
X467250Y336500D01*
X467250Y336500D02*
X467090Y336500D01*
X460590Y330000D01*
X445250Y330000D01*
X444423Y330827D01*
X444423Y333077D01*
X444250Y333250D01*
X439500Y333250D02*
X439500Y329500D01*
X441500Y327500D01*
X460919Y327500D01*
X467919Y334500D01*
X468078Y334500D01*
X468079Y334500D01*
X530447Y334500D01*
X533000Y331947D01*
X533000Y331750D01*
X467904Y268750D02*
X471904Y264750D01*
X467904Y268750D02*
X435500Y268750D01*
X432500Y265750D01*
X432500Y258750D01*
X455500Y258750D02*
X455500Y259096D01*
X281922Y259500D02*
X276500Y264922D01*
X273250Y268172D01*
D34*
X270500Y260250D02*
D03*
X278750Y277500D02*
D03*
X282000Y274250D02*
D03*
X279750Y288000D02*
D03*
X282000Y298250D02*
D03*
X296000Y289750D02*
D03*
X276750Y295000D02*
D03*
X270000Y291750D02*
D03*
X270000Y298750D02*
D03*
X269750Y284500D02*
D03*
X385500Y298250D02*
D03*
X425750Y259000D02*
D03*
X432500Y258750D02*
D03*
X437250Y258750D02*
D03*
X441750Y258750D02*
D03*
X446250Y258750D02*
D03*
X451000Y258500D02*
D03*
X455500Y258750D02*
D03*
X463500Y259750D02*
D03*
X473000Y268250D02*
D03*
X482750Y270000D02*
D03*
X483000Y274500D02*
D03*
X486500Y266750D02*
D03*
X482750Y282000D02*
D03*
X486500Y306250D02*
D03*
X489250Y310250D02*
D03*
X488000Y322750D02*
D03*
X485500Y326500D02*
D03*
X533000Y331750D02*
D03*
X544750Y335250D02*
D03*
X565500Y329000D02*
D03*
X562750Y322000D02*
D03*
X559500Y309250D02*
D03*
X566250Y305000D02*
D03*
X559500Y304750D02*
D03*
X565500Y276750D02*
D03*
X576250Y264500D02*
D03*
X599750Y293500D02*
D03*
X598500Y301750D02*
D03*
X593500Y302000D02*
D03*
X619000Y272750D02*
D03*
X618750Y268250D02*
D03*
X618250Y259750D02*
D03*
X619750Y281750D02*
D03*
X619750Y286500D02*
D03*
X619500Y291000D02*
D03*
X613500Y324500D02*
D03*
X590000Y332000D02*
D03*
X585500Y333250D02*
D03*
X597000Y310250D02*
D03*
X580500Y333250D02*
D03*
X575250Y333250D02*
D03*
X558750Y300250D02*
D03*
X544750Y281750D02*
D03*
X545250Y277250D02*
D03*
X549750Y277250D02*
D03*
X538000Y277500D02*
D03*
X534250Y264500D02*
D03*
X555000Y264250D02*
D03*
X482000Y316000D02*
D03*
X477500Y325250D02*
D03*
X471750Y325250D02*
D03*
X466500Y305500D02*
D03*
X466750Y289000D02*
D03*
X482250Y294250D02*
D03*
X439750Y297750D02*
D03*
X424000Y312250D02*
D03*
X419000Y322000D02*
D03*
X407750Y308250D02*
D03*
X424500Y298250D02*
D03*
X398250Y307750D02*
D03*
X416000Y333000D02*
D03*
X421000Y333000D02*
D03*
X439500Y333250D02*
D03*
X444250Y333250D02*
D03*
X449000Y333250D02*
D03*
X453500Y333250D02*
D03*
X398000Y335250D02*
D03*
X676500Y276500D02*
D03*
X676250Y270500D02*
D03*
X676500Y265500D02*
D03*
X693000Y271500D02*
D03*
X706250Y274000D02*
D03*
X713000Y262750D02*
D03*
X715250Y258750D02*
D03*
X731500Y277000D02*
D03*
X739500Y271250D02*
D03*
X745500Y270250D02*
D03*
X731750Y293500D02*
D03*
X750250Y311250D02*
D03*
X751000Y332500D02*
D03*
X724750Y323750D02*
D03*
X720000Y323750D02*
D03*
X715500Y323750D02*
D03*
X711000Y331750D02*
D03*
X693750Y332250D02*
D03*
X694250Y326750D02*
D03*
X707750Y309000D02*
D03*
X708250Y298000D02*
D03*
X706500Y283250D02*
D03*
X674000Y307000D02*
D03*
X674000Y311500D02*
D03*
X673750Y302500D02*
D03*
X677000Y287500D02*
D03*
X677000Y282250D02*
D03*
X685000Y292250D02*
D03*
M02*
