G04*
G04 #@! TF.GenerationSoftware,Altium Limited,Altium Designer,23.2.1 (34)*
G04*
G04 Layer_Physical_Order=3*
G04 Layer_Color=65280*
%FSLAX44Y44*%
%MOMM*%
G71*
G04*
G04 #@! TF.SameCoordinates,3FB90E65-7FC7-44E4-8F16-70115AC8F52E*
G04*
G04*
G04 #@! TF.FilePolarity,Positive*
G04*
G01*
G75*
%ADD13C,0.3000*%
%ADD16C,0.1000*%
%ADD34C,0.3500*%
G36*
X269250Y281773D02*
X268525Y283250D01*
X270975D01*
X270250Y281773D01*
X269250D01*
D02*
G37*
G36*
X274468Y293425D02*
X275000Y294982D01*
X276733Y293250D01*
X275175Y292718D01*
X274468Y293425D01*
D02*
G37*
G36*
X279718Y296675D02*
X280250Y298232D01*
X281982Y296500D01*
X280425Y295968D01*
X279718Y296675D01*
D02*
G37*
G36*
X410098Y262969D02*
X410097Y261555D01*
X410804Y260847D01*
X412219Y260847D01*
X411865Y262615D01*
X411158Y263322D01*
X410098Y262969D01*
D02*
G37*
G36*
X431825Y329718D02*
X430267Y330250D01*
X432000Y331982D01*
X432532Y330425D01*
X431825Y329718D01*
D02*
G37*
G36*
X421527Y332284D02*
X420802Y333761D01*
X423252D01*
X422527Y332284D01*
X421527D01*
D02*
G37*
G36*
X426096D02*
X425370Y333761D01*
X427821D01*
X427095Y332284D01*
X426096D01*
D02*
G37*
G36*
X442289Y259376D02*
X443766Y260101D01*
Y257651D01*
X442289Y258376D01*
Y259376D01*
D02*
G37*
G36*
X454515Y261603D02*
X455241Y260126D01*
X452790D01*
X453516Y261603D01*
X454515D01*
D02*
G37*
G36*
X476282Y270075D02*
X475750Y268517D01*
X474017Y270250D01*
X475575Y270782D01*
X476282Y270075D01*
D02*
G37*
G36*
X436780Y334896D02*
X436237Y334216D01*
X435597Y335363D01*
X436073Y335603D01*
X436780Y334896D01*
D02*
G37*
G36*
X480750Y263727D02*
X481475Y262250D01*
X479025D01*
X479750Y263727D01*
X480750D01*
D02*
G37*
G36*
X486575Y287218D02*
X485018Y287750D01*
X486750Y289482D01*
X487282Y287925D01*
X486575Y287218D01*
D02*
G37*
G36*
X537325Y264718D02*
X535768Y265250D01*
X537500Y266982D01*
X538032Y265425D01*
X537325Y264718D01*
D02*
G37*
G36*
X563337Y328601D02*
X562772Y327696D01*
X561772Y327749D01*
X561384Y329157D01*
X563337Y328601D01*
D02*
G37*
G36*
X549482Y323250D02*
X547750Y321517D01*
X547218Y323075D01*
X547925Y323782D01*
X549482Y323250D01*
D02*
G37*
G36*
X565227Y321000D02*
Y320000D01*
X563750Y319275D01*
Y321725D01*
X565227Y321000D01*
D02*
G37*
G36*
X555000Y311275D02*
X553523Y312000D01*
Y313000D01*
X555000Y313725D01*
Y311275D01*
D02*
G37*
G36*
X563500Y310619D02*
X562500Y310468D01*
X561716Y311838D01*
X564141Y312188D01*
X563500Y310619D01*
D02*
G37*
G36*
X556477Y305500D02*
Y304500D01*
X555000Y303775D01*
Y306225D01*
X556477Y305500D01*
D02*
G37*
G36*
X556500Y300525D02*
X555023Y301250D01*
Y302250D01*
X556500Y302975D01*
Y300525D01*
D02*
G37*
G36*
X563153Y258452D02*
X563274Y257452D01*
X561883Y256677D01*
X561600Y259111D01*
X563153Y258452D01*
D02*
G37*
G36*
X585482Y335000D02*
X583750Y333268D01*
X583218Y334825D01*
X583925Y335532D01*
X585482Y335000D01*
D02*
G37*
G36*
X581232Y330000D02*
X579675Y329468D01*
X578968Y330175D01*
X579500Y331732D01*
X581232Y330000D01*
D02*
G37*
G36*
X575500Y329023D02*
X574500D01*
X573775Y330500D01*
X576225D01*
X575500Y329023D01*
D02*
G37*
G36*
X581000Y269525D02*
X579523Y270250D01*
Y271250D01*
X581000Y271975D01*
Y269525D01*
D02*
G37*
G36*
X589869Y260500D02*
X591438Y261141D01*
X591088Y258716D01*
X589718Y259500D01*
X589869Y260500D01*
D02*
G37*
G36*
X605968Y299425D02*
X606500Y300982D01*
X608232Y299250D01*
X606675Y298718D01*
X605968Y299425D01*
D02*
G37*
G36*
X748091Y334695D02*
X748533Y333730D01*
X748250Y333047D01*
Y331953D01*
X748669Y330942D01*
X749442Y330169D01*
X750453Y329750D01*
X751547D01*
X752558Y330169D01*
X753331Y330942D01*
X753750Y331953D01*
X755000Y331905D01*
Y256039D01*
X680000D01*
Y335000D01*
X690815D01*
X691419Y333808D01*
X691000Y332797D01*
Y331703D01*
X691419Y330692D01*
X692192Y329919D01*
X693203Y329500D01*
X694297D01*
X695308Y329919D01*
X696081Y330692D01*
X696500Y331703D01*
Y332797D01*
X696081Y333808D01*
X696685Y335000D01*
X708594D01*
X709091Y333730D01*
X708669Y333308D01*
X708250Y332297D01*
Y331203D01*
X708669Y330192D01*
X709442Y329419D01*
X710453Y329000D01*
X711547D01*
X712558Y329419D01*
X713331Y330192D01*
X713750Y331203D01*
Y332297D01*
X713331Y333308D01*
X712909Y333730D01*
X713406Y335000D01*
X747815D01*
X748091Y334695D01*
D02*
G37*
%LPC*%
G36*
X725297Y326500D02*
X724203D01*
X723192Y326081D01*
X722375Y325347D01*
X721558Y326081D01*
X720547Y326500D01*
X719453D01*
X718442Y326081D01*
X717750Y325389D01*
X717058Y326081D01*
X716047Y326500D01*
X714953D01*
X713942Y326081D01*
X713169Y325308D01*
X712750Y324297D01*
Y323203D01*
X713169Y322192D01*
X713942Y321419D01*
X714953Y321000D01*
X716047D01*
X717058Y321419D01*
X717750Y322111D01*
X718442Y321419D01*
X719453Y321000D01*
X720547D01*
X721558Y321419D01*
X722375Y322153D01*
X723192Y321419D01*
X724203Y321000D01*
X725297D01*
X726308Y321419D01*
X727081Y322192D01*
X727500Y323203D01*
Y324297D01*
X727081Y325308D01*
X726308Y326081D01*
X725297Y326500D01*
D02*
G37*
G36*
X750797Y314000D02*
X749703D01*
X748692Y313581D01*
X747919Y312808D01*
X747500Y311797D01*
Y310703D01*
X747919Y309692D01*
X748692Y308919D01*
X749703Y308500D01*
X750797D01*
X751808Y308919D01*
X752581Y309692D01*
X753000Y310703D01*
Y311797D01*
X752581Y312808D01*
X751808Y313581D01*
X750797Y314000D01*
D02*
G37*
G36*
X708297Y311750D02*
X707203D01*
X706192Y311331D01*
X705419Y310558D01*
X705000Y309547D01*
Y308453D01*
X705419Y307442D01*
X706192Y306669D01*
X707203Y306250D01*
X708297D01*
X709308Y306669D01*
X710081Y307442D01*
X710500Y308453D01*
Y309547D01*
X710081Y310558D01*
X709308Y311331D01*
X708297Y311750D01*
D02*
G37*
G36*
X708797Y300750D02*
X707703D01*
X706692Y300331D01*
X705919Y299558D01*
X705500Y298547D01*
Y297453D01*
X705919Y296442D01*
X706692Y295669D01*
X707703Y295250D01*
X708797D01*
X709808Y295669D01*
X710581Y296442D01*
X711000Y297453D01*
Y298547D01*
X710581Y299558D01*
X709808Y300331D01*
X708797Y300750D01*
D02*
G37*
G36*
X732297Y296250D02*
X731203D01*
X730192Y295831D01*
X729419Y295058D01*
X729000Y294047D01*
Y292953D01*
X729419Y291942D01*
X730192Y291169D01*
X731203Y290750D01*
X732297D01*
X733308Y291169D01*
X734081Y291942D01*
X734500Y292953D01*
Y294047D01*
X734081Y295058D01*
X733308Y295831D01*
X732297Y296250D01*
D02*
G37*
G36*
X685547Y295000D02*
X684453D01*
X683442Y294581D01*
X682669Y293808D01*
X682250Y292797D01*
Y291703D01*
X682669Y290692D01*
X683442Y289919D01*
X684453Y289500D01*
X685547D01*
X686558Y289919D01*
X687331Y290692D01*
X687750Y291703D01*
Y292797D01*
X687331Y293808D01*
X686558Y294581D01*
X685547Y295000D01*
D02*
G37*
G36*
X707047Y286000D02*
X705953D01*
X704942Y285581D01*
X704169Y284808D01*
X703750Y283797D01*
Y282703D01*
X704169Y281692D01*
X704942Y280919D01*
X705953Y280500D01*
X707047D01*
X708058Y280919D01*
X708831Y281692D01*
X709250Y282703D01*
Y283797D01*
X708831Y284808D01*
X708058Y285581D01*
X707047Y286000D01*
D02*
G37*
G36*
X732047Y279750D02*
X730953D01*
X729942Y279331D01*
X729169Y278558D01*
X728750Y277547D01*
Y276453D01*
X729169Y275442D01*
X729942Y274669D01*
X730953Y274250D01*
X732047D01*
X733058Y274669D01*
X733831Y275442D01*
X734250Y276453D01*
Y277547D01*
X733831Y278558D01*
X733058Y279331D01*
X732047Y279750D01*
D02*
G37*
G36*
X693547Y274250D02*
X692453D01*
X691442Y273831D01*
X690669Y273058D01*
X690250Y272047D01*
Y270953D01*
X690669Y269942D01*
X691442Y269169D01*
X692453Y268750D01*
X693547D01*
X694558Y269169D01*
X695331Y269942D01*
X695750Y270953D01*
Y272047D01*
X695331Y273058D01*
X694558Y273831D01*
X693547Y274250D01*
D02*
G37*
G36*
X746047Y273000D02*
X744953D01*
X743942Y272581D01*
X743169Y271808D01*
X742750Y270797D01*
Y269703D01*
X743169Y268692D01*
X743942Y267919D01*
X744953Y267500D01*
X746047D01*
X747058Y267919D01*
X747831Y268692D01*
X748250Y269703D01*
Y270797D01*
X747831Y271808D01*
X747058Y272581D01*
X746047Y273000D01*
D02*
G37*
G36*
X706797Y276750D02*
X705703D01*
X704692Y276331D01*
X703919Y275558D01*
X703500Y274547D01*
Y273453D01*
X703919Y272442D01*
X704692Y271669D01*
X705703Y271250D01*
X706624D01*
X707165Y270740D01*
X707560Y270191D01*
X707500Y270047D01*
Y268953D01*
X707919Y267942D01*
X708692Y267169D01*
X709703Y266750D01*
X710797D01*
X711597Y267081D01*
X712226Y266790D01*
X712750Y266315D01*
Y265453D01*
X713169Y264442D01*
X713942Y263669D01*
X714953Y263250D01*
X716047D01*
X717058Y263669D01*
X717831Y264442D01*
X718250Y265453D01*
Y266547D01*
X717831Y267558D01*
X717058Y268331D01*
X716047Y268750D01*
X714953D01*
X714153Y268419D01*
X713524Y268710D01*
X713000Y269185D01*
Y270047D01*
X712581Y271058D01*
X711808Y271831D01*
X710797Y272250D01*
X709876D01*
X709335Y272760D01*
X708940Y273309D01*
X709000Y273453D01*
Y274547D01*
X708581Y275558D01*
X707808Y276331D01*
X706797Y276750D01*
D02*
G37*
%LPD*%
D13*
X555731Y265096D02*
X557635Y267000D01*
X555404Y265096D02*
X555731D01*
X559150Y267000D02*
X562649Y270500D01*
X566507D01*
X557635Y267000D02*
X559150D01*
X555375Y265125D02*
X555404Y265096D01*
X584250Y288243D02*
Y307243D01*
X566507Y270500D02*
X584250Y288243D01*
X605000Y318250D02*
X691000D01*
X597000Y310250D02*
X605000Y318250D01*
X584250Y307243D02*
X587257Y310250D01*
X426016Y278011D02*
X429505Y281500D01*
X485000D01*
X587257Y310250D02*
X597000D01*
X420915Y283361D02*
Y314091D01*
X413915Y321091D02*
X420915Y314091D01*
Y283361D02*
X425765Y278511D01*
X426016Y271268D02*
Y278011D01*
X417015Y269511D02*
X424258D01*
X426016Y271268D01*
Y278011D02*
Y278511D01*
D16*
X529683Y308750D02*
X536717Y301717D01*
X543533D01*
X550750Y294500D01*
X551425Y311750D02*
X552175Y312500D01*
X541654Y313750D02*
X550596D01*
X549482Y309750D02*
X550982Y308250D01*
X533825Y318750D02*
X540825Y311750D01*
X539997Y309750D02*
X549482D01*
X530512Y310750D02*
X537512Y303750D01*
X540825Y311750D02*
X551425D01*
X532169Y314750D02*
X539169Y307750D01*
X550982Y308250D02*
X556596D01*
X534654Y320750D02*
X541654Y313750D01*
X532997Y316750D02*
X539997Y309750D01*
X531340Y312750D02*
X538340Y305750D01*
X545575D01*
X556596Y308250D02*
X559500Y311154D01*
X537512Y303750D02*
X544747D01*
X539169Y307750D02*
X546404D01*
X589298Y257952D02*
X590750Y256500D01*
X593846D01*
X560298Y257952D02*
X589298D01*
X481407Y270250D02*
X546997D01*
X480578Y272250D02*
X547825D01*
X480250Y261000D02*
Y269093D01*
X478250Y268154D02*
Y269922D01*
X480250Y269093D02*
X481407Y270250D01*
X479750Y274250D02*
X548654D01*
X474000Y268500D02*
X479750Y274250D01*
X478250Y269922D02*
X480578Y272250D01*
X554078Y272000D02*
X557078D01*
X554907Y270000D02*
X557907D01*
X557078Y272000D02*
X560250Y275172D01*
X562250Y274343D02*
Y277343D01*
X548904Y274000D02*
X556250D01*
X560250Y275172D02*
Y278172D01*
X558250Y276000D02*
Y279753D01*
X556250Y274000D02*
X558250Y276000D01*
X557907Y270000D02*
X562250Y274343D01*
X558250Y279753D02*
X562497Y284000D01*
X568522D01*
X548075Y272000D02*
X554078D01*
X564154Y280000D02*
X570179D01*
X560250Y278172D02*
Y278925D01*
X562250Y277343D02*
Y278096D01*
X547247Y270000D02*
X554907D01*
X560250Y278925D02*
X563325Y282000D01*
X569351D01*
X562250Y278096D02*
X564154Y280000D01*
X546997Y270250D02*
X547247Y270000D01*
X547825Y272250D02*
X548075Y272000D01*
X548654Y274250D02*
X548904Y274000D01*
X475346Y265250D02*
X478250Y268154D01*
X592000Y260000D02*
X592500Y259500D01*
X589250Y260000D02*
X592000D01*
X586750Y262500D02*
X589250Y260000D01*
X586750Y262500D02*
Y270846D01*
X589250Y267596D02*
X595836Y261010D01*
X589250Y295500D02*
X591250Y297500D01*
X589250Y267596D02*
Y295500D01*
X591250Y297500D02*
X604750D01*
X595836Y258490D02*
Y261010D01*
X583596Y274000D02*
X586750Y270846D01*
X574250Y274000D02*
X583596D01*
X563500Y263250D02*
X574250Y274000D01*
X575071Y270750D02*
X582250D01*
X565571Y261250D02*
X575071Y270750D01*
X559404Y261250D02*
X565571D01*
X471654Y256500D02*
X554654D01*
X559404Y261250D01*
X558575Y263250D02*
X563500D01*
X555293Y259967D02*
X558575Y263250D01*
X542783Y259967D02*
X555293D01*
X535750Y267000D02*
X542783Y259967D01*
X466750Y261404D02*
X471654Y256500D01*
X466750Y261404D02*
Y272750D01*
X570179Y280000D02*
X577000Y286821D01*
X568522Y284000D02*
X572500Y287978D01*
X569351Y282000D02*
X575000Y287649D01*
X577000Y286821D02*
Y327500D01*
X581000Y331500D01*
X581250D01*
X572500Y287978D02*
Y317000D01*
X575000Y287649D02*
Y331750D01*
X593846Y256500D02*
X595836Y258490D01*
X604750Y297500D02*
X608250Y301000D01*
X472000Y278000D02*
X486096D01*
X466750Y272750D02*
X472000Y278000D01*
X488250Y280154D02*
Y286250D01*
X486096Y278000D02*
X488250Y280154D01*
X485000Y289500D02*
X488250Y286250D01*
X470500Y265250D02*
X475346D01*
X470250Y265500D02*
X470500Y265250D01*
X566000Y298000D02*
Y314596D01*
X550750Y294500D02*
X562500D01*
X566000Y298000D01*
X561500Y296500D02*
X563000Y298000D01*
Y313000D01*
X564096Y316500D02*
X566000Y314596D01*
X561904Y316500D02*
X564096D01*
X551997Y296500D02*
X561500D01*
X559250Y298500D02*
X561000Y300250D01*
X559500Y305000D02*
X561000Y303500D01*
Y300250D02*
Y303500D01*
X562750Y313250D02*
X563000Y313000D01*
X552825Y298500D02*
X559250D01*
X553750Y305000D02*
X559500D01*
X544747Y303750D02*
X551997Y296500D01*
X545575Y305750D02*
X552825Y298500D01*
X546404Y307750D02*
X552404Y301750D01*
X557750D01*
X438983Y314750D02*
X532169D01*
X436000Y326218D02*
X441468Y320750D01*
X432686Y318218D02*
X438155Y312750D01*
X531340D01*
X441468Y320750D02*
X534654D01*
X439811Y316750D02*
X532997D01*
X440640Y318750D02*
X533825D01*
X433515Y320218D02*
X438983Y314750D01*
X436498Y308750D02*
X529683D01*
X434343Y322218D02*
X439811Y316750D01*
X435172Y324218D02*
X440640Y318750D01*
X431030Y314218D02*
X436498Y308750D01*
X437326Y310750D02*
X530512D01*
X431858Y316218D02*
X437326Y310750D01*
X567404Y330000D02*
X568654D01*
X573904Y335250D01*
X583500D01*
X585500Y333250D01*
X555250Y318336D02*
Y323503D01*
X559500Y327753D02*
Y331596D01*
X551096Y314250D02*
X551164D01*
X555250Y318336D01*
Y323503D02*
X559500Y327753D01*
X550596Y313750D02*
X551096Y314250D01*
X559500Y331596D02*
X561404Y333500D01*
X557250Y322675D02*
X562272Y327696D01*
X559250Y321846D02*
X567404Y330000D01*
X559250Y319154D02*
Y321846D01*
X557250Y316096D02*
Y322675D01*
X559250Y319154D02*
X561904Y316500D01*
X557250Y316096D02*
X559500Y313846D01*
X545250Y325750D02*
X549500Y321500D01*
X545250Y325750D02*
Y328250D01*
X538250Y335250D02*
X545250Y328250D01*
X543250Y323000D02*
X549250Y317000D01*
X543250Y323000D02*
Y327422D01*
X552175Y312500D02*
X556250D01*
X436427Y335250D02*
X538250D01*
X457500Y331750D02*
X538922D01*
X543250Y327422D01*
X562272Y327696D02*
Y329772D01*
X562750Y330250D01*
X435177Y334000D02*
X436427Y335250D01*
X561404Y333500D02*
X566250D01*
X454000Y328250D02*
X457500Y331750D01*
X434000Y328250D02*
X454000D01*
X430250Y332000D02*
X434000Y328250D01*
X434500Y334000D02*
X435177D01*
X559500Y311154D02*
Y313846D01*
X562578Y320500D02*
X569000D01*
X572500Y317000D01*
X411512Y262262D02*
X414897Y258876D01*
X280000Y257500D02*
X406750D01*
X411512Y262262D01*
X409134Y264640D02*
X411512Y262262D01*
X281922Y259500D02*
X404250D01*
X403422Y261500D02*
X405019Y263098D01*
Y288583D01*
X407019Y262269D02*
Y287755D01*
X404250Y259500D02*
X407019Y262269D01*
X282750Y261500D02*
X403422D01*
X430355Y326218D02*
X436000D01*
X426213Y316218D02*
X431858D01*
X427041Y318218D02*
X432686D01*
X425384Y314218D02*
X431030D01*
X428698Y322218D02*
X434343D01*
X427869Y320218D02*
X433515D01*
X429526Y324218D02*
X435172D01*
X417588Y330500D02*
X427869Y320218D01*
X426595Y329977D02*
X430355Y326218D01*
X418416Y332500D02*
X428698Y322218D01*
X422027Y331717D02*
X429526Y324218D01*
X415102Y324500D02*
X425384Y314218D01*
X415931Y326500D02*
X426213Y316218D01*
X416759Y328500D02*
X427041Y318218D01*
X410258Y328500D02*
X416759D01*
X409429Y330500D02*
X417588D01*
X411915Y324500D02*
X415102D01*
X411086Y326500D02*
X415931D01*
X408601Y332500D02*
X418416D01*
X426595Y329977D02*
Y335011D01*
X422027Y331717D02*
Y335011D01*
X406665Y324908D02*
X410258Y328500D01*
X402665Y326565D02*
X408601Y332500D01*
X408666Y318506D02*
Y324079D01*
X406665Y317678D02*
Y324908D01*
X402665Y316021D02*
Y326565D01*
X404665Y316849D02*
Y325736D01*
X408666Y324079D02*
X411086Y326500D01*
X404665Y325736D02*
X409429Y330500D01*
X410666Y323251D02*
X411915Y324500D01*
X410666Y319335D02*
Y323251D01*
X408666Y318506D02*
X415750Y311422D01*
X406665Y317678D02*
X413750Y310593D01*
X402665Y316021D02*
X409750Y308936D01*
X404665Y316849D02*
X411750Y309765D01*
X413750Y291657D02*
Y310593D01*
X415750Y290828D02*
Y311422D01*
X409750Y293314D02*
Y308936D01*
X405019Y288583D02*
X409750Y293314D01*
X411750Y292485D02*
Y309765D01*
X410666Y319335D02*
X417750Y312250D01*
Y290000D02*
Y312250D01*
X409134Y287040D02*
X413750Y291657D01*
X411134Y286212D02*
X415750Y290828D01*
X413765Y286015D02*
X417750Y290000D01*
X407019Y287755D02*
X411750Y292485D01*
X409134Y264640D02*
Y287040D01*
X411134Y265468D02*
Y286212D01*
X413765Y265665D02*
Y286015D01*
Y265665D02*
X415304Y264126D01*
X414475Y262126D02*
X446362D01*
X411134Y265468D02*
X414475Y262126D01*
X454016Y258876D02*
Y261735D01*
X415304Y264126D02*
X451624D01*
X454016Y261735D01*
X446362Y262126D02*
X449515Y258973D01*
X414897Y258876D02*
X445016D01*
X449515D02*
Y258973D01*
X273250Y268172D02*
X281922Y259500D01*
X269750Y267750D02*
X280000Y257500D01*
X275250Y269000D02*
Y288250D01*
X280000Y293000D01*
X275250Y269000D02*
X282750Y261500D01*
X280000Y296250D02*
X282000Y298250D01*
X280000Y293000D02*
Y296250D01*
X273250Y268172D02*
Y291500D01*
X276750Y295000D01*
X269750Y267750D02*
Y284500D01*
D34*
X539250Y298000D02*
D03*
X550250Y277250D02*
D03*
X560500Y257750D02*
D03*
X592500Y259750D02*
D03*
X582250Y270750D02*
D03*
X555500Y265000D02*
D03*
X677000Y277250D02*
D03*
Y266500D02*
D03*
X676750Y261750D02*
D03*
X608250Y301000D02*
D03*
X715500Y260750D02*
D03*
Y266000D02*
D03*
X710250Y269500D02*
D03*
X535750Y267000D02*
D03*
X540750D02*
D03*
X474000Y268500D02*
D03*
X480250Y261000D02*
D03*
X470500Y265500D02*
D03*
X554250Y328750D02*
D03*
X549500Y321500D02*
D03*
X549250Y317000D02*
D03*
X485000Y289500D02*
D03*
X557750Y301750D02*
D03*
X553750Y305000D02*
D03*
X484750Y297250D02*
D03*
X464000Y288250D02*
D03*
X471750Y261000D02*
D03*
X485000Y281500D02*
D03*
X463750Y295500D02*
D03*
X437750Y276000D02*
D03*
Y288500D02*
D03*
X427500Y288750D02*
D03*
X488250Y325750D02*
D03*
X556250Y312500D02*
D03*
X562500Y320500D02*
D03*
X562750Y313250D02*
D03*
X566250Y333250D02*
D03*
X581250Y331750D02*
D03*
X585500Y333250D02*
D03*
X575000Y331750D02*
D03*
X562750Y330250D02*
D03*
X474500Y325500D02*
D03*
X452500Y332000D02*
D03*
X413915Y321091D02*
D03*
X426595Y335011D02*
D03*
X425444Y310968D02*
D03*
X422027Y335011D02*
D03*
X417015Y269511D02*
D03*
X405765Y334261D02*
D03*
X400750Y334250D02*
D03*
X383565Y297311D02*
D03*
X430250Y332000D02*
D03*
X434500Y334000D02*
D03*
X438250Y331500D02*
D03*
X449515Y258876D02*
D03*
X445016D02*
D03*
X454016D02*
D03*
X270000Y298250D02*
D03*
X280079Y286000D02*
D03*
X426016Y297261D02*
D03*
X539750Y320250D02*
D03*
X543750Y317500D02*
D03*
X270500Y260250D02*
D03*
X278750Y277500D02*
D03*
X269750Y284500D02*
D03*
X694250Y326750D02*
D03*
X693000Y271500D02*
D03*
X685000Y292250D02*
D03*
X396016Y334261D02*
D03*
X282000Y274250D02*
D03*
X270000Y291750D02*
D03*
X296000Y289750D02*
D03*
X276750Y295000D02*
D03*
X282000Y298250D02*
D03*
X544750Y282250D02*
D03*
X483516Y325511D02*
D03*
X469766Y325511D02*
D03*
X597000Y310250D02*
D03*
X619000Y272750D02*
D03*
X618750Y268250D02*
D03*
X565500Y276750D02*
D03*
X545250Y277500D02*
D03*
X396265Y306761D02*
D03*
X405765Y307261D02*
D03*
X711000Y331750D02*
D03*
X437766Y296761D02*
D03*
X576250Y264500D02*
D03*
X613500Y324500D02*
D03*
X599750Y293500D02*
D03*
X593500Y302000D02*
D03*
X706500Y283250D02*
D03*
X674000Y311500D02*
D03*
Y307000D02*
D03*
X673750Y302500D02*
D03*
X707750Y309000D02*
D03*
X708250Y298000D02*
D03*
X677000Y287500D02*
D03*
Y282250D02*
D03*
X706250Y274000D02*
D03*
X739500Y271250D02*
D03*
X745500Y270250D02*
D03*
X715500Y323750D02*
D03*
X720000D02*
D03*
X724750D02*
D03*
X731500Y277000D02*
D03*
X731750Y293500D02*
D03*
X693750Y332250D02*
D03*
X751000Y332500D02*
D03*
X750250Y311250D02*
D03*
M02*
