G04*
G04 #@! TF.GenerationSoftware,Altium Limited,Altium Designer,23.2.1 (34)*
G04*
G04 Layer_Physical_Order=1*
G04 Layer_Color=255*
%FSLAX44Y44*%
%MOMM*%
G71*
G04*
G04 #@! TF.SameCoordinates,D4FC6264-4346-42C6-8E52-0D0339D1B619*
G04*
G04*
G04 #@! TF.FilePolarity,Positive*
G04*
G01*
G75*
%ADD10C,0.2500*%
%ADD13C,0.3000*%
%ADD14C,0.2000*%
%ADD16C,0.1000*%
%ADD17R,0.5500X0.4000*%
%ADD18R,0.4000X0.6000*%
%ADD19R,0.4000X0.5500*%
%ADD20C,0.2500*%
%ADD21R,0.4750X0.2500*%
%ADD22R,0.2500X0.4750*%
%ADD23R,0.2500X0.2500*%
%ADD24R,0.6000X0.4000*%
%ADD25R,0.6000X0.8000*%
%ADD26O,1.7000X1.2000*%
%ADD27R,1.4000X0.8000*%
%ADD28R,0.8750X0.7750*%
%ADD29R,0.4500X0.4500*%
%ADD30R,0.5800X0.6400*%
%ADD31R,0.6400X0.5800*%
%ADD32R,0.8000X1.8000*%
%ADD34C,0.3500*%
%ADD37C,0.2651*%
%AMCUSTOMSHAPE38*
4,1,5,-0.1375,0.3875,-0.4375,0.0875,-0.4375,-0.3875,0.4375,-0.3875,0.4375,0.3875,-0.1375,0.3875,0.0*%
%ADD38CUSTOMSHAPE38*%

%ADD39C,0.1200*%
%ADD40C,0.1500*%
G36*
X414588Y331966D02*
X413218Y332750D01*
X413369Y333750D01*
X414938Y334391D01*
X414588Y331966D01*
X414588Y331966D02*
G37*
G36*
X696236Y333250D02*
X696477Y331750D01*
X695162Y331216D01*
X694812Y333641D01*
X696236Y333250D01*
X696236Y333250D02*
G37*
G36*
X421336Y331283D02*
X419781Y330574D01*
X418921Y331128D01*
X419290Y332629D01*
X421336Y331283D01*
X421336Y331283D02*
G37*
G36*
X576284Y331838D02*
X575500Y330468D01*
X574500Y330619D01*
X573859Y332188D01*
X576284Y331838D01*
X576284Y331838D02*
G37*
G36*
X586429Y331767D02*
X585625Y330454D01*
X584625Y330685D01*
X584036Y332292D01*
X586429Y331767D01*
X586429Y331767D02*
G37*
G36*
X581429Y331767D02*
X580625Y330454D01*
X579625Y330685D01*
X579036Y332292D01*
X581429Y331767D01*
X581429Y331767D02*
G37*
G36*
X752170Y331199D02*
X751925Y329964D01*
X749925Y330069D01*
X749723Y331304D01*
X752170Y331199D01*
X752170Y331199D02*
G37*
G36*
X590204Y330262D02*
X588641Y329620D01*
X587839Y330233D01*
X588266Y331761D01*
X590204Y330262D01*
X590204Y330262D02*
G37*
G36*
X585970Y328965D02*
X584125Y328934D01*
X584625Y329964D01*
X585625Y329964D01*
X585970Y328965D01*
X585970Y328965D02*
G37*
G36*
X580970Y328965D02*
X579125Y328934D01*
X579625Y329964D01*
X580625Y329964D01*
X580970Y328965D01*
X580970Y328965D02*
G37*
G36*
X575970Y328965D02*
X574000Y328934D01*
X574500Y329964D01*
X575500Y329964D01*
X575970Y328965D01*
X575970Y328965D02*
G37*
G36*
X687750Y328900D02*
X686250Y328900D01*
X685620Y330280D01*
X688381Y330280D01*
X687750Y328900D01*
X687750Y328900D02*
G37*
G36*
X701968Y329981D02*
X700502Y328687D01*
X699497Y330185D01*
X700744Y331059D01*
X701968Y329981D01*
X701968Y329981D02*
G37*
G36*
X568300Y329022D02*
X568001Y328022D01*
X566367Y327480D01*
X567037Y329837D01*
X568300Y329022D01*
X568300Y329022D02*
G37*
G36*
X752820Y327219D02*
X748925Y327189D01*
X749925Y329219D01*
X751925Y329219D01*
X752820Y327219D01*
X752820Y327219D02*
G37*
G36*
X741750Y327189D02*
X739750Y327189D01*
X740250Y328219D01*
X741250Y328219D01*
X741750Y327189D01*
X741750Y327189D02*
G37*
G36*
X697816Y327502D02*
X696393Y326602D01*
X695442Y327773D01*
X696527Y329007D01*
X697816Y327502D01*
X697816Y327502D02*
G37*
G36*
X485482Y328250D02*
X483750Y326517D01*
X483218Y328075D01*
X483925Y328782D01*
X485482Y328250D01*
X485482Y328250D02*
G37*
G36*
X693000Y325525D02*
X691619Y326000D01*
X691619Y327500D01*
X693000Y327975D01*
X693000Y325525D01*
X693000Y325525D02*
G37*
G36*
X412594Y327000D02*
X412594Y326000D01*
X411564Y325500D01*
X411564Y327500D01*
X412594Y327000D01*
X412594Y327000D02*
G37*
G36*
X704998Y323752D02*
X703750Y324198D01*
X702720Y323830D01*
X702500Y322500D01*
X701000Y322500D01*
X700752Y323998D01*
X702502Y323998D01*
X702502Y324224D01*
X702280Y324219D01*
X702280Y325281D01*
X702502Y325276D01*
X702502Y325748D01*
X703750Y325302D01*
X704998Y325748D01*
X704998Y323752D01*
X704998Y323752D02*
G37*
G36*
X477335Y326992D02*
X475755Y325120D01*
X475150Y326684D01*
X475795Y327454D01*
X477335Y326992D01*
X477335Y326992D02*
G37*
G36*
X722079Y325622D02*
X721710Y324121D01*
X719664Y325467D01*
X721219Y326176D01*
X722079Y325622D01*
X722079Y325622D02*
G37*
G36*
X567190Y323781D02*
X565775Y323073D01*
X565068Y323781D01*
X565775Y325195D01*
X567190Y323781D01*
X567190Y323781D02*
G37*
G36*
X539902Y324311D02*
X537250Y322690D01*
X536220Y323781D01*
X537311Y325902D01*
X539902Y324311D01*
X539902Y324311D02*
G37*
G36*
X472607Y324000D02*
X472975Y324000D01*
X472823Y323559D01*
X473250Y322689D01*
X472527Y322696D01*
X472500Y322619D01*
X471000Y322619D01*
X470968Y322713D01*
X470280Y322719D01*
X470679Y323551D01*
X470525Y324000D01*
X470895Y324000D01*
X471000Y324220D01*
X472500Y324220D01*
X472607Y324000D01*
X472607Y324000D02*
G37*
G36*
X465150Y322139D02*
X463150Y322139D01*
X463650Y323170D01*
X464650Y323170D01*
X465150Y322139D01*
X465150Y322139D02*
G37*
G36*
X455350Y322139D02*
X453350Y322139D01*
X453850Y323170D01*
X454850Y323170D01*
X455350Y322139D01*
X455350Y322139D02*
G37*
G36*
X614725Y323250D02*
X614523Y322663D01*
X615000Y321689D01*
X612000Y321689D01*
X612477Y322663D01*
X612275Y323250D01*
X614725Y323250D01*
X614725Y323250D02*
G37*
G36*
X490631Y323500D02*
X490631Y322000D01*
X489250Y321525D01*
X489250Y323975D01*
X490631Y323500D01*
X490631Y323500D02*
G37*
G36*
X727032Y322175D02*
X726325Y321468D01*
X724768Y322000D01*
X726500Y323732D01*
X727032Y322175D01*
X727032Y322175D02*
G37*
G36*
X716000Y321023D02*
X715000Y321023D01*
X714275Y322500D01*
X716725Y322500D01*
X716000Y321023D01*
X716000Y321023D02*
G37*
G36*
X590700Y321189D02*
X589066Y320055D01*
X588328Y321469D01*
X589286Y321927D01*
X590700Y321189D01*
X590700Y321189D02*
G37*
G36*
X399552Y320945D02*
X398844Y319884D01*
X397784Y320945D01*
X398844Y321652D01*
X399552Y320945D01*
X399552Y320945D02*
G37*
G36*
X479311Y319250D02*
X477780Y320000D01*
X477780Y321500D01*
X479311Y322250D01*
X479311Y319250D01*
X479311Y319250D02*
G37*
G36*
X477719Y321500D02*
X477719Y320000D01*
X476189Y319250D01*
X476189Y322250D01*
X477719Y321500D01*
X477719Y321500D02*
G37*
G36*
X448220Y319069D02*
X446000Y319069D01*
X446750Y320569D01*
X448250Y320569D01*
X448220Y319069D01*
X448220Y319069D02*
G37*
G36*
X419993Y320075D02*
X420500Y319039D01*
X417500Y319039D01*
X418007Y320075D01*
X417775Y320750D01*
X420225Y320750D01*
X419993Y320075D01*
X419993Y320075D02*
G37*
G36*
X565775Y318780D02*
X564845Y318845D01*
X564845Y319845D01*
X565806Y320275D01*
X565775Y318780D01*
X565775Y318780D02*
G37*
G36*
X732748Y318752D02*
X730752Y318752D01*
X731250Y320145D01*
X732250Y320145D01*
X732748Y318752D01*
X732748Y318752D02*
G37*
G36*
X727748Y318752D02*
X725752Y318752D01*
X726250Y320145D01*
X727250Y320145D01*
X727748Y318752D01*
X727748Y318752D02*
G37*
G36*
X742619Y321780D02*
X742213Y320289D01*
X743075Y318539D01*
X739075Y318539D01*
X739881Y320175D01*
X739075Y321811D01*
X742619Y321780D01*
X742619Y321780D02*
G37*
G36*
X688000Y318280D02*
X686000Y318280D01*
X685000Y320280D01*
X689000Y320280D01*
X688000Y318280D01*
X688000Y318280D02*
G37*
G36*
X433561Y315600D02*
X432125Y316304D01*
X430689Y315600D01*
X430689Y318600D01*
X432125Y317896D01*
X433561Y318600D01*
X433561Y315600D01*
X433561Y315600D02*
G37*
G36*
X704000Y317689D02*
X700281Y317719D01*
X701000Y319720D01*
X703000Y319720D01*
X704000Y317689D01*
X704000Y317689D02*
G37*
G36*
X720998Y317001D02*
X719604Y317500D01*
X719604Y318500D01*
X720998Y318998D01*
X720998Y317001D01*
X720998Y317001D02*
G37*
G36*
X457927Y315830D02*
X457220Y315123D01*
X455805Y315830D01*
X457220Y317245D01*
X457927Y315830D01*
X457927Y315830D02*
G37*
G36*
X574945Y316189D02*
X573561Y314805D01*
X572823Y316220D01*
X573531Y316927D01*
X574945Y316189D01*
X574945Y316189D02*
G37*
G36*
X484631Y316750D02*
X484631Y315250D01*
X483250Y314775D01*
X483250Y317225D01*
X484631Y316750D01*
X484631Y316750D02*
G37*
G36*
X449280Y315131D02*
X448220Y314070D01*
X446098Y315161D01*
X448189Y317252D01*
X449280Y315131D01*
X449280Y315131D02*
G37*
G36*
X595724Y314250D02*
X593725Y313780D01*
X593725Y316220D01*
X595724Y316250D01*
X595724Y314250D01*
X595724Y314250D02*
G37*
G36*
X443750Y313631D02*
X442250Y313631D01*
X442281Y315131D01*
X444500Y315161D01*
X443750Y313631D01*
X443750Y313631D02*
G37*
G36*
X748695Y314280D02*
X747281Y313573D01*
X746573Y314280D01*
X747281Y315695D01*
X748695Y314280D01*
X748695Y314280D02*
G37*
G36*
X425133Y314634D02*
X425210Y313514D01*
X423445Y313910D01*
X423633Y314733D01*
X425133Y314634D01*
X425133Y314634D02*
G37*
G36*
X706050Y316000D02*
X706050Y314000D01*
X704220Y313169D01*
X704220Y316831D01*
X706050Y316000D01*
X706050Y316000D02*
G37*
G36*
X586677Y314030D02*
X586219Y313073D01*
X584805Y313780D01*
X585970Y315445D01*
X586677Y314030D01*
X586677Y314030D02*
G37*
G36*
X579945Y313811D02*
X578531Y313073D01*
X577823Y313780D01*
X578561Y315195D01*
X579945Y313811D01*
X579945Y313811D02*
G37*
G36*
X566940Y313811D02*
X565526Y313073D01*
X565068Y314030D01*
X565806Y315445D01*
X566940Y313811D01*
X566940Y313811D02*
G37*
G36*
X614296Y314375D02*
X615000Y312939D01*
X612000Y312939D01*
X612704Y314375D01*
X612000Y315811D01*
X615000Y315811D01*
X614296Y314375D01*
X614296Y314375D02*
G37*
G36*
X539402Y314219D02*
X537281Y312098D01*
X535690Y314750D01*
X536750Y315811D01*
X539402Y314219D01*
X539402Y314219D02*
G37*
G36*
X733896Y313500D02*
X733896Y312500D01*
X732502Y312001D01*
X732502Y313998D01*
X733896Y313500D01*
X733896Y313500D02*
G37*
G36*
X720998Y312001D02*
X719604Y312500D01*
X719604Y313500D01*
X720998Y313998D01*
X720998Y312001D01*
X720998Y312001D02*
G37*
G36*
X690311Y312000D02*
X688280Y313000D01*
X688280Y315000D01*
X690311Y316000D01*
X690311Y312000D01*
X690311Y312000D02*
G37*
G36*
X422750Y311025D02*
X421369Y311500D01*
X421369Y313000D01*
X422750Y313475D01*
X422750Y311025D01*
X422750Y311025D02*
G37*
G36*
X672350Y310917D02*
X671750Y311000D01*
X671750Y312000D01*
X672350Y312083D01*
X672350Y310917D01*
X672350Y310917D02*
G37*
G36*
X726890Y311758D02*
X725513Y310702D01*
X724452Y311762D01*
X725508Y313140D01*
X726890Y311758D01*
X726890Y311758D02*
G37*
G36*
X461995Y312439D02*
X461061Y310605D01*
X459970Y312373D01*
X460580Y313177D01*
X461995Y312439D01*
X461995Y312439D02*
G37*
G36*
X708975Y310250D02*
X706525Y310250D01*
X706750Y311486D01*
X708750Y311486D01*
X708975Y310250D01*
X708975Y310250D02*
G37*
G36*
X453452Y311989D02*
X451361Y309898D01*
X450270Y312020D01*
X451330Y313080D01*
X453452Y311989D01*
X453452Y311989D02*
G37*
G36*
X583561Y307120D02*
X582252Y307761D01*
X580970Y307120D01*
X580970Y310120D01*
X582252Y309479D01*
X583561Y310120D01*
X583561Y307120D01*
X583561Y307120D02*
G37*
G36*
X561782Y310825D02*
X561250Y309268D01*
X559518Y311000D01*
X561075Y311532D01*
X561782Y310825D01*
X561782Y310825D02*
G37*
G36*
X479311Y309250D02*
X477780Y310000D01*
X477780Y311500D01*
X479311Y312250D01*
X479311Y309250D01*
X479311Y309250D02*
G37*
G36*
X477719Y311500D02*
X477719Y310000D01*
X476189Y309250D01*
X476189Y312250D01*
X477719Y311500D01*
X477719Y311500D02*
G37*
G36*
X420500Y309039D02*
X417500Y309039D01*
X418250Y310570D01*
X419750Y310570D01*
X420500Y309039D01*
X420500Y309039D02*
G37*
G36*
X595750Y309025D02*
X595196Y309126D01*
X593725Y308780D01*
X593725Y311220D01*
X594514Y311231D01*
X594514Y311250D01*
X595750Y311475D01*
X595750Y309025D01*
X595750Y309025D02*
G37*
G36*
X693538Y310375D02*
X694220Y308969D01*
X690281Y308969D01*
X690962Y310375D01*
X690281Y311780D01*
X694220Y311780D01*
X693538Y310375D01*
X693538Y310375D02*
G37*
G36*
X703293Y310375D02*
X704000Y308939D01*
X700281Y308969D01*
X700786Y310375D01*
X700281Y311780D01*
X704000Y311811D01*
X703293Y310375D01*
X703293Y310375D02*
G37*
G36*
X601530Y308250D02*
X599530Y309250D01*
X599530Y311250D01*
X601530Y312250D01*
X601530Y308250D01*
X601530Y308250D02*
G37*
G36*
X750920Y308869D02*
X751250Y308189D01*
X749250Y308189D01*
X749580Y308869D01*
X749025Y310000D01*
X751475Y310000D01*
X750920Y308869D01*
X750920Y308869D02*
G37*
G36*
X727280Y307470D02*
X726789Y306859D01*
X726890Y306758D01*
X726417Y306395D01*
X725993Y305868D01*
X725878Y305982D01*
X725513Y305702D01*
X724452Y306762D01*
X724732Y307128D01*
X724618Y307243D01*
X725145Y307666D01*
X725508Y308140D01*
X725609Y308039D01*
X726220Y308530D01*
X727280Y307470D01*
X727280Y307470D02*
G37*
G36*
X433561Y305600D02*
X432125Y306304D01*
X430689Y305600D01*
X430689Y308600D01*
X432125Y307896D01*
X433561Y308600D01*
X433561Y305600D01*
X433561Y305600D02*
G37*
G36*
X724048Y309237D02*
X722992Y307860D01*
X721610Y309242D01*
X722987Y310298D01*
X724048Y309237D01*
X724048Y309237D02*
G37*
G36*
X568620Y307780D02*
X567620Y307780D01*
X567120Y308780D01*
X569120Y308780D01*
X568620Y307780D01*
X568620Y307780D02*
G37*
G36*
X472402Y308780D02*
X470280Y307720D01*
X469220Y308780D01*
X470280Y310902D01*
X472402Y308780D01*
X472402Y308780D02*
G37*
G36*
X463079Y307530D02*
X462079Y307530D01*
X461579Y308561D01*
X463579Y308561D01*
X463079Y307530D01*
X463079Y307530D02*
G37*
G36*
X720971Y307022D02*
X719250Y307250D01*
X719250Y308750D01*
X720971Y308977D01*
X720971Y307022D01*
X720971Y307022D02*
G37*
G36*
X744927Y308369D02*
X744189Y306955D01*
X742805Y308339D01*
X744220Y309076D01*
X744927Y308369D01*
X744927Y308369D02*
G37*
G36*
X740195Y308339D02*
X738811Y306955D01*
X738073Y308369D01*
X738781Y309076D01*
X740195Y308339D01*
X740195Y308339D02*
G37*
G36*
X440530Y309069D02*
X439439Y306948D01*
X437348Y309039D01*
X439470Y310130D01*
X440530Y309069D01*
X440530Y309069D02*
G37*
G36*
X676388Y306709D02*
X676096Y305646D01*
X675248Y305774D01*
X675686Y307469D01*
X676388Y306709D01*
X676388Y306709D02*
G37*
G36*
X614250Y305530D02*
X612750Y305530D01*
X612000Y307061D01*
X615000Y307061D01*
X614250Y305530D01*
X614250Y305530D02*
G37*
G36*
X408250Y305523D02*
X407250Y305523D01*
X406525Y307000D01*
X408975Y307000D01*
X408250Y305523D01*
X408250Y305523D02*
G37*
G36*
X732500Y305500D02*
X731000Y305500D01*
X730772Y307221D01*
X732728Y307221D01*
X732500Y305500D01*
X732500Y305500D02*
G37*
G36*
X568474Y306524D02*
X567982Y305253D01*
X566492Y306733D01*
X567766Y307231D01*
X568474Y306524D01*
X568474Y306524D02*
G37*
G36*
X468983Y306423D02*
X468217Y305164D01*
X466871Y307210D01*
X468167Y307728D01*
X468983Y306423D01*
X468983Y306423D02*
G37*
G36*
X426250Y304130D02*
X425250Y304130D01*
X424781Y305131D01*
X426750Y305131D01*
X426250Y304130D01*
X426250Y304130D02*
G37*
G36*
X444402Y305161D02*
X442281Y304070D01*
X441220Y305131D01*
X442311Y307252D01*
X444402Y305161D01*
X444402Y305161D02*
G37*
G36*
X604728Y305500D02*
X605470Y303969D01*
X601530Y303969D01*
X602272Y305500D01*
X601530Y307031D01*
X605470Y307031D01*
X604728Y305500D01*
X604728Y305500D02*
G37*
G36*
X615000Y303939D02*
X612000Y303939D01*
X612750Y305469D01*
X614250Y305469D01*
X615000Y303939D01*
X615000Y303939D02*
G37*
G36*
X299500Y303000D02*
X287500Y303000D01*
X287500Y311000D01*
X299500Y311000D01*
X299500Y303000D01*
X299500Y303000D02*
G37*
G36*
X467534Y304088D02*
X467000Y302773D01*
X466976Y302777D01*
X466969Y302470D01*
X464750Y302470D01*
X465331Y303631D01*
X465109Y304438D01*
X467534Y304088D01*
X467534Y304088D02*
G37*
G36*
X593483Y303750D02*
X591750Y302017D01*
X591109Y303330D01*
X592170Y304391D01*
X593483Y303750D01*
X593483Y303750D02*
G37*
G36*
X598483Y303500D02*
X596750Y301768D01*
X596218Y303325D01*
X596925Y304032D01*
X598483Y303500D01*
X598483Y303500D02*
G37*
G36*
X458377Y302220D02*
X457639Y300805D01*
X456255Y302189D01*
X457669Y302927D01*
X458377Y302220D01*
X458377Y302220D02*
G37*
G36*
X734250Y300689D02*
X729250Y300689D01*
X730500Y303219D01*
X733000Y303219D01*
X734250Y300689D01*
X734250Y300689D02*
G37*
G36*
X725969Y300469D02*
X722030Y300469D01*
X722750Y302969D01*
X725250Y302969D01*
X725969Y300469D01*
X725969Y300469D02*
G37*
G36*
X477134Y301880D02*
X475719Y300466D01*
X472891Y301911D01*
X475689Y304709D01*
X477134Y301880D01*
X477134Y301880D02*
G37*
G36*
X703293Y301625D02*
X704000Y300189D01*
X700530Y300219D01*
X700831Y301500D01*
X700281Y303030D01*
X704000Y303061D01*
X703293Y301625D01*
X703293Y301625D02*
G37*
G36*
X693540Y301630D02*
X694250Y300189D01*
X690530Y300219D01*
X691004Y301537D01*
X690281Y303030D01*
X694220Y303030D01*
X693540Y301630D01*
X693540Y301630D02*
G37*
G36*
X674250Y299773D02*
X673250Y299773D01*
X672525Y301250D01*
X674975Y301250D01*
X674250Y299773D01*
X674250Y299773D02*
G37*
G36*
X709475Y299250D02*
X707025Y299250D01*
X707250Y300486D01*
X709250Y300486D01*
X709475Y299250D01*
X709475Y299250D02*
G37*
G36*
X690530Y294875D02*
X688736Y295772D01*
X687719Y295530D01*
X687719Y299470D01*
X688913Y299066D01*
X690530Y299875D01*
X690530Y294875D01*
X690530Y294875D02*
G37*
G36*
X712030Y295929D02*
X710193Y296848D01*
X709449Y296726D01*
X709548Y299174D01*
X710244Y299036D01*
X712030Y299929D01*
X712030Y295929D01*
X712030Y295929D02*
G37*
G36*
X561477Y300750D02*
X561477Y299750D01*
X560000Y299025D01*
X560000Y301475D01*
X561477Y300750D01*
X561477Y300750D02*
G37*
G36*
X440975Y299000D02*
X438668Y299000D01*
X438338Y296716D01*
X437541Y297040D01*
X436439Y296500D01*
X436439Y299500D01*
X437716Y298874D01*
X438562Y299106D01*
X439000Y300381D01*
X440500Y300381D01*
X440975Y299000D01*
X440975Y299000D02*
G37*
G36*
X427131Y299000D02*
X427131Y297500D01*
X425750Y297025D01*
X425750Y299475D01*
X427131Y299000D01*
X427131Y299000D02*
G37*
G36*
X423250Y297025D02*
X421869Y297500D01*
X421869Y299000D01*
X423250Y299475D01*
X423250Y297025D01*
X423250Y297025D02*
G37*
G36*
X432531Y296750D02*
X431031Y297500D01*
X431031Y299000D01*
X432531Y299750D01*
X432531Y296750D01*
X432531Y296750D02*
G37*
G36*
X700530Y295720D02*
X699000Y296250D01*
X699000Y298250D01*
X700530Y298780D01*
X700530Y295720D01*
X700530Y295720D02*
G37*
G36*
X343570Y299413D02*
X343570Y296762D01*
X340889Y295437D01*
X340919Y300270D01*
X343570Y299413D01*
X343570Y299413D02*
G37*
G36*
X737420Y294259D02*
X734752Y295500D01*
X735318Y298000D01*
X738629Y299230D01*
X737420Y294259D01*
X737420Y294259D02*
G37*
G36*
X705697Y296250D02*
X705697Y294250D01*
X704470Y294280D01*
X704439Y296477D01*
X705697Y296250D01*
X705697Y296250D02*
G37*
G36*
X569530Y293750D02*
X568531Y294250D01*
X568531Y295250D01*
X569530Y295750D01*
X569530Y293750D01*
X569530Y293750D02*
G37*
G36*
X445250Y293531D02*
X443750Y293531D01*
X443000Y295061D01*
X446000Y295061D01*
X445250Y293531D01*
X445250Y293531D02*
G37*
G36*
X686250Y293030D02*
X683750Y293030D01*
X682500Y295530D01*
X687500Y295530D01*
X686250Y293030D01*
X686250Y293030D02*
G37*
G36*
X470311Y293000D02*
X469281Y293500D01*
X469281Y294500D01*
X470311Y295000D01*
X470311Y293000D01*
X470311Y293000D02*
G37*
G36*
X598688Y292109D02*
X597475Y292250D01*
X597119Y294250D01*
X598338Y294534D01*
X598688Y292109D01*
X598688Y292109D02*
G37*
G36*
X725250Y292030D02*
X722750Y292030D01*
X722030Y294530D01*
X725969Y294530D01*
X725250Y292030D01*
X725250Y292030D02*
G37*
G36*
X262000Y291950D02*
X261000Y291950D01*
X260569Y292911D01*
X262430Y292911D01*
X262000Y291950D01*
X262000Y291950D02*
G37*
G36*
X579445Y292530D02*
X578031Y291823D01*
X577323Y292530D01*
X578031Y293945D01*
X579445Y292530D01*
X579445Y292530D02*
G37*
G36*
X694029Y292750D02*
X694470Y291220D01*
X690530Y291220D01*
X690971Y292750D01*
X690530Y294280D01*
X694470Y294280D01*
X694029Y292750D01*
X694029Y292750D02*
G37*
G36*
X317061Y286900D02*
X315221Y287809D01*
X313419Y286931D01*
X313389Y291900D01*
X315225Y290993D01*
X317061Y291900D01*
X317061Y286900D01*
X317061Y286900D02*
G37*
G36*
X543470Y293750D02*
X543470Y291750D01*
X541469Y290781D01*
X541469Y294720D01*
X543470Y293750D01*
X543470Y293750D02*
G37*
G36*
X418750Y290720D02*
X415750Y290720D01*
X416500Y292220D01*
X418000Y292220D01*
X418750Y290720D01*
X418750Y290720D02*
G37*
G36*
X734250Y290689D02*
X729250Y290689D01*
X730500Y293219D01*
X733000Y293219D01*
X734250Y290689D01*
X734250Y290689D02*
G37*
G36*
X562396Y291750D02*
X562396Y290750D01*
X561002Y290252D01*
X561002Y292248D01*
X562396Y291750D01*
X562396Y291750D02*
G37*
G36*
X590250Y294250D02*
X590250Y292250D01*
X588250Y290250D01*
X586250Y293250D01*
X588250Y296000D01*
X590250Y294250D01*
X590250Y294250D02*
G37*
G36*
X464000Y291750D02*
X464000Y290250D01*
X462279Y290023D01*
X462279Y291978D01*
X464000Y291750D01*
X464000Y291750D02*
G37*
G36*
X452864Y289924D02*
X451500Y290250D01*
X451275Y291250D01*
X452565Y291830D01*
X452864Y289924D01*
X452864Y289924D02*
G37*
G36*
X331500Y289000D02*
X326500Y289000D01*
X326500Y326000D01*
X264500Y326000D01*
X264500Y311000D01*
X282500Y311000D01*
X282500Y303000D01*
X256500Y303000D01*
X256500Y334000D01*
X331500Y334000D01*
X331500Y289000D01*
X331500Y289000D02*
G37*
G36*
X466461Y290726D02*
X465019Y288746D01*
X464281Y290025D01*
X465156Y291271D01*
X466461Y290726D01*
X466461Y290726D02*
G37*
G36*
X551471Y286273D02*
X550250Y286434D01*
X549029Y286273D01*
X549029Y288228D01*
X550250Y288066D01*
X551471Y288228D01*
X551471Y286273D01*
X551471Y286273D02*
G37*
G36*
X557066Y289250D02*
X557228Y288029D01*
X555471Y288029D01*
X555471Y286273D01*
X554250Y286434D01*
X553029Y286273D01*
X553029Y288228D01*
X554250Y288066D01*
X555296Y288204D01*
X555434Y289250D01*
X555273Y290471D01*
X557228Y290471D01*
X557066Y289250D01*
X557066Y289250D02*
G37*
G36*
X432061Y287400D02*
X430531Y288150D01*
X430531Y289650D01*
X432061Y290400D01*
X432061Y287400D01*
X432061Y287400D02*
G37*
G36*
X430470Y289650D02*
X430470Y288150D01*
X428939Y287400D01*
X428939Y290400D01*
X430470Y289650D01*
X430470Y289650D02*
G37*
G36*
X438969Y289600D02*
X438969Y288100D01*
X437439Y287350D01*
X437439Y290350D01*
X438969Y289600D01*
X438969Y289600D02*
G37*
G36*
X307111Y287275D02*
X304580Y288525D01*
X304580Y291025D01*
X307111Y292275D01*
X307111Y287275D01*
X307111Y287275D02*
G37*
G36*
X737000Y290000D02*
X737000Y287500D01*
X734719Y286780D01*
X734719Y290719D01*
X737000Y290000D01*
X737000Y290000D02*
G37*
G36*
X278500Y286775D02*
X277023Y287500D01*
X277023Y288500D01*
X278500Y289225D01*
X278500Y286775D01*
X278500Y286775D02*
G37*
G36*
X679486Y288500D02*
X679486Y286500D01*
X678250Y286275D01*
X678250Y288725D01*
X679486Y288500D01*
X679486Y288500D02*
G37*
G36*
X547471Y286273D02*
X545750Y286500D01*
X545750Y288000D01*
X547471Y288228D01*
X547471Y286273D01*
X547471Y286273D02*
G37*
G36*
X562396Y287750D02*
X562396Y286750D01*
X561002Y286252D01*
X561002Y288248D01*
X562396Y287750D01*
X562396Y287750D02*
G37*
G36*
X469139Y287857D02*
X470311Y288381D01*
X470311Y285620D01*
X468900Y286250D01*
X468900Y287467D01*
X468188Y286652D01*
X466874Y287254D01*
X468498Y289089D01*
X469139Y287857D01*
X469139Y287857D02*
G37*
G36*
X681780Y285530D02*
X679781Y286500D01*
X679781Y288500D01*
X681780Y289470D01*
X681780Y285530D01*
X681780Y285530D02*
G37*
G36*
X716968Y286481D02*
X715502Y285187D01*
X714497Y286685D01*
X715744Y287560D01*
X716968Y286481D01*
X716968Y286481D02*
G37*
G36*
X425802Y286630D02*
X423150Y285040D01*
X422090Y286100D01*
X423531Y288602D01*
X425802Y286630D01*
X425802Y286630D02*
G37*
G36*
X540031Y284689D02*
X537970Y284689D01*
X538250Y285750D01*
X539750Y285750D01*
X540031Y284689D01*
X540031Y284689D02*
G37*
G36*
X711998Y284252D02*
X710604Y284750D01*
X710604Y285750D01*
X711998Y286248D01*
X711998Y284252D01*
X711998Y284252D02*
G37*
G36*
X584469Y287250D02*
X584469Y285250D01*
X582439Y284250D01*
X582439Y288250D01*
X584469Y287250D01*
X584469Y287250D02*
G37*
G36*
X742149Y287109D02*
X738070Y284157D01*
X737007Y286975D01*
X739038Y288480D01*
X742149Y287109D01*
X742149Y287109D02*
G37*
G36*
X689134Y285530D02*
X687719Y284116D01*
X686159Y285530D01*
X687719Y287092D01*
X689134Y285530D01*
X689134Y285530D02*
G37*
G36*
X455371Y285164D02*
X454738Y283826D01*
X453326Y285238D01*
X454664Y285871D01*
X455371Y285164D01*
X455371Y285164D02*
G37*
G36*
X703250Y283780D02*
X701750Y283780D01*
X701000Y285311D01*
X704000Y285311D01*
X703250Y283780D01*
X703250Y283780D02*
G37*
G36*
X265219Y285000D02*
X265219Y284000D01*
X264189Y283500D01*
X264189Y285500D01*
X265219Y285000D01*
X265219Y285000D02*
G37*
G36*
X570592Y284030D02*
X569530Y283323D01*
X568823Y284030D01*
X569530Y285091D01*
X570592Y284030D01*
X570592Y284030D02*
G37*
G36*
X268500Y283275D02*
X267023Y284000D01*
X267023Y285000D01*
X268500Y285725D01*
X268500Y283275D01*
X268500Y283275D02*
G37*
G36*
X708782Y284825D02*
X708250Y283267D01*
X706517Y285000D01*
X708075Y285532D01*
X708782Y284825D01*
X708782Y284825D02*
G37*
G36*
X330661Y284529D02*
X331170Y282719D01*
X327230Y282719D01*
X327539Y284221D01*
X327030Y286031D01*
X330970Y286031D01*
X330661Y284529D01*
X330661Y284529D02*
G37*
G36*
X562250Y284000D02*
X562475Y283000D01*
X561185Y282420D01*
X560886Y284326D01*
X562250Y284000D01*
X562250Y284000D02*
G37*
G36*
X546939Y282672D02*
X546458Y282132D01*
X545847Y283114D01*
X546232Y283379D01*
X546939Y282672D01*
X546939Y282672D02*
G37*
G36*
X339549Y282096D02*
X336856Y282101D01*
X335827Y284731D01*
X340919Y284731D01*
X339549Y282096D01*
X339549Y282096D02*
G37*
G36*
X462000Y281854D02*
X461000Y281854D01*
X460502Y283248D01*
X462498Y283248D01*
X462000Y281854D01*
X462000Y281854D02*
G37*
G36*
X317061Y277349D02*
X315225Y278257D01*
X313389Y277349D01*
X313389Y282651D01*
X315225Y281743D01*
X317061Y282651D01*
X317061Y277349D01*
X317061Y277349D02*
G37*
G36*
X262000Y281681D02*
X261000Y281681D01*
X260500Y282711D01*
X262500Y282711D01*
X262000Y281681D01*
X262000Y281681D02*
G37*
G36*
X552424Y282012D02*
X551087Y281379D01*
X550379Y282086D01*
X551012Y283424D01*
X552424Y282012D01*
X552424Y282012D02*
G37*
G36*
X557248Y282498D02*
X556750Y281104D01*
X555750Y281104D01*
X555252Y282498D01*
X557248Y282498D01*
X557248Y282498D02*
G37*
G36*
X679631Y283000D02*
X679631Y281500D01*
X678250Y281025D01*
X678250Y283475D01*
X679631Y283000D01*
X679631Y283000D02*
G37*
G36*
X485236Y283000D02*
X485236Y281000D01*
X484000Y280775D01*
X484000Y283225D01*
X485236Y283000D01*
X485236Y283000D02*
G37*
G36*
X481500Y280775D02*
X480264Y281000D01*
X480264Y283000D01*
X481500Y283225D01*
X481500Y280775D01*
X481500Y280775D02*
G37*
G36*
X420219Y280720D02*
X418000Y280720D01*
X418750Y282220D01*
X420250Y282220D01*
X420219Y280720D01*
X420219Y280720D02*
G37*
G36*
X622477Y282250D02*
X622477Y281250D01*
X621000Y280525D01*
X621000Y282975D01*
X622477Y282250D01*
X622477Y282250D02*
G37*
G36*
X711998Y280252D02*
X710604Y280750D01*
X710604Y281750D01*
X711998Y282248D01*
X711998Y280252D01*
X711998Y280252D02*
G37*
G36*
X729031Y280030D02*
X726531Y280750D01*
X726531Y283250D01*
X729031Y283969D01*
X729031Y280030D01*
X729031Y280030D02*
G37*
G36*
X262500Y279569D02*
X260500Y279569D01*
X261000Y280569D01*
X262000Y280569D01*
X262500Y279569D01*
X262500Y279569D02*
G37*
G36*
X538923Y279627D02*
X539225Y278750D01*
X536775Y278750D01*
X537077Y279627D01*
X536500Y280781D01*
X539500Y280781D01*
X538923Y279627D01*
X538923Y279627D02*
G37*
G36*
X273969Y278000D02*
X273969Y277000D01*
X272939Y276500D01*
X272939Y278500D01*
X273969Y278000D01*
X273969Y278000D02*
G37*
G36*
X676344Y278243D02*
X674754Y276378D01*
X674154Y277943D01*
X674802Y278708D01*
X676344Y278243D01*
X676344Y278243D02*
G37*
G36*
X277500Y276275D02*
X276023Y277000D01*
X276023Y278000D01*
X277500Y278725D01*
X277500Y276275D01*
X277500Y276275D02*
G37*
G36*
X719000Y278000D02*
X719000Y276500D01*
X717502Y276252D01*
X717502Y278248D01*
X719000Y278000D01*
X719000Y278000D02*
G37*
G36*
X711998Y276252D02*
X710604Y276750D01*
X710604Y277750D01*
X711998Y278248D01*
X711998Y276252D01*
X711998Y276252D02*
G37*
G36*
X477634Y278969D02*
X476189Y276141D01*
X473391Y278939D01*
X476219Y280384D01*
X477634Y278969D01*
X477634Y278969D02*
G37*
G36*
X552477Y277750D02*
X552477Y276750D01*
X551000Y276025D01*
X551000Y278475D01*
X552477Y277750D01*
X552477Y277750D02*
G37*
G36*
X455646Y277500D02*
X455646Y276500D01*
X454252Y276002D01*
X454252Y277998D01*
X455646Y277500D01*
X455646Y277500D02*
G37*
G36*
X452748Y276002D02*
X451354Y276500D01*
X451354Y277500D01*
X452748Y277998D01*
X452748Y276002D01*
X452748Y276002D02*
G37*
G36*
X438177Y276530D02*
X437469Y275823D01*
X436055Y276530D01*
X437469Y277945D01*
X438177Y276530D01*
X438177Y276530D02*
G37*
G36*
X567775Y278000D02*
X568131Y276000D01*
X566912Y275716D01*
X566562Y278141D01*
X567775Y278000D01*
X567775Y278000D02*
G37*
G36*
X426250Y275431D02*
X425250Y275431D01*
X424750Y276430D01*
X426750Y276430D01*
X426250Y275431D01*
X426250Y275431D02*
G37*
G36*
X418000Y275280D02*
X416500Y275280D01*
X415750Y276811D01*
X418750Y276811D01*
X418000Y275280D01*
X418000Y275280D02*
G37*
G36*
X679227Y277000D02*
X679227Y276000D01*
X677750Y275275D01*
X677750Y277725D01*
X679227Y277000D01*
X679227Y277000D02*
G37*
G36*
X545750Y274600D02*
X544750Y274600D01*
X544200Y275850D01*
X546300Y275850D01*
X545750Y274600D01*
X545750Y274600D02*
G37*
G36*
X542250Y274420D02*
X540250Y274420D01*
X540750Y275420D01*
X541750Y275420D01*
X542250Y274420D01*
X542250Y274420D02*
G37*
G36*
X708532Y275575D02*
X708000Y274018D01*
X706267Y275750D01*
X707825Y276282D01*
X708532Y275575D01*
X708532Y275575D02*
G37*
G36*
X567500Y273970D02*
X563500Y273970D01*
X564500Y275970D01*
X566500Y275970D01*
X567500Y273970D01*
X567500Y273970D02*
G37*
G36*
X311896Y275271D02*
X312826Y273389D01*
X307524Y273389D01*
X308454Y275271D01*
X307524Y277131D01*
X312826Y277131D01*
X311896Y275271D01*
X311896Y275271D02*
G37*
G36*
X705000Y272775D02*
X703523Y273500D01*
X703523Y274500D01*
X705000Y275225D01*
X705000Y272775D01*
X705000Y272775D02*
G37*
G36*
X618983Y274500D02*
X617250Y272768D01*
X616535Y273801D01*
X617949Y275215D01*
X618983Y274500D01*
X618983Y274500D02*
G37*
G36*
X748000Y275282D02*
X746750Y272752D01*
X744250Y272752D01*
X743003Y275306D01*
X748000Y275282D01*
X748000Y275282D02*
G37*
G36*
X282600Y271556D02*
X281400Y271556D01*
X280775Y273000D01*
X283225Y273000D01*
X282600Y271556D01*
X282600Y271556D02*
G37*
G36*
X715003Y271815D02*
X713756Y270940D01*
X712532Y272019D01*
X713998Y273313D01*
X715003Y271815D01*
X715003Y271815D02*
G37*
G36*
X678583Y271972D02*
X677998Y270409D01*
X676376Y272245D01*
X677922Y272725D01*
X678583Y271972D01*
X678583Y271972D02*
G37*
G36*
X551969Y271250D02*
X551969Y270250D01*
X550970Y270380D01*
X550939Y271750D01*
X551969Y271250D01*
X551969Y271250D02*
G37*
G36*
X729061Y269991D02*
X727650Y270622D01*
X727650Y272122D01*
X729061Y272752D01*
X729061Y269991D01*
X729061Y269991D02*
G37*
G36*
X540250Y269481D02*
X539250Y269481D01*
X538750Y270511D01*
X540750Y270511D01*
X540250Y269481D01*
X540250Y269481D02*
G37*
G36*
X675000Y269275D02*
X673523Y270000D01*
X673523Y271000D01*
X675000Y271725D01*
X675000Y269275D01*
X675000Y269275D02*
G37*
G36*
X452721Y269023D02*
X451000Y269250D01*
X451000Y270750D01*
X452721Y270978D01*
X452721Y269023D01*
X452721Y269023D02*
G37*
G36*
X672000Y271000D02*
X672000Y270000D01*
X671000Y269000D01*
X670000Y270500D01*
X671000Y272000D01*
X672000Y271000D01*
X672000Y271000D02*
G37*
G36*
X481500Y268775D02*
X480023Y269500D01*
X480023Y270500D01*
X481500Y271225D01*
X481500Y268775D01*
X481500Y268775D02*
G37*
G36*
X740606Y270000D02*
X740725Y270000D01*
X740693Y269822D01*
X741469Y268220D01*
X737531Y268220D01*
X738307Y269822D01*
X738275Y270000D01*
X738394Y270000D01*
X738500Y270219D01*
X740500Y270219D01*
X740606Y270000D01*
X740606Y270000D02*
G37*
G36*
X335079Y272460D02*
X332220Y268030D01*
X329061Y271939D01*
X332737Y273805D01*
X335079Y272460D01*
X335079Y272460D02*
G37*
G36*
X324912Y271702D02*
X326281Y271970D01*
X326281Y268030D01*
X324758Y268472D01*
X322739Y267474D01*
X322739Y272776D01*
X324912Y271702D01*
X324912Y271702D02*
G37*
G36*
X460748Y269227D02*
X462299Y269039D01*
X461850Y267850D01*
X460850Y267932D01*
X460544Y269075D01*
X459354Y269500D01*
X459354Y270500D01*
X460748Y270998D01*
X460748Y269227D01*
X460748Y269227D02*
G37*
G36*
X701250Y270000D02*
X701250Y267500D01*
X699969Y267530D01*
X699969Y270031D01*
X701250Y270000D01*
X701250Y270000D02*
G37*
G36*
X274170Y268100D02*
X274170Y266900D01*
X272939Y266300D01*
X272939Y268700D01*
X274170Y268100D01*
X274170Y268100D02*
G37*
G36*
X692469Y272559D02*
X692469Y270059D01*
X690439Y269044D01*
X691737Y267530D01*
X689969Y265763D01*
X687908Y267530D01*
X689969Y269592D01*
X689969Y273470D01*
X692469Y272559D01*
X692469Y272559D02*
G37*
G36*
X679227Y266000D02*
X679227Y265000D01*
X677750Y264275D01*
X677750Y266725D01*
X679227Y266000D01*
X679227Y266000D02*
G37*
G36*
X540402Y264220D02*
X537030Y264220D01*
X537572Y266050D01*
X539572Y266050D01*
X540402Y264220D01*
X540402Y264220D02*
G37*
G36*
X676268Y263765D02*
X674738Y263335D01*
X674123Y264133D01*
X674761Y265697D01*
X676268Y263765D01*
X676268Y263765D02*
G37*
G36*
X545531Y260181D02*
X543968Y260792D01*
X542469Y260281D01*
X542439Y263963D01*
X544000Y263194D01*
X545561Y263963D01*
X545531Y260181D01*
X545531Y260181D02*
G37*
G36*
X706816Y266719D02*
X703280Y263184D01*
X701513Y266719D01*
X703280Y268487D01*
X706816Y266719D01*
X706816Y266719D02*
G37*
G36*
X575379Y262982D02*
X574258Y263025D01*
X573531Y265025D01*
X574715Y265340D01*
X575379Y262982D01*
X575379Y262982D02*
G37*
G36*
X534232Y262750D02*
X532675Y262218D01*
X531968Y262925D01*
X532500Y264482D01*
X534232Y262750D01*
X534232Y262750D02*
G37*
G36*
X554696Y262527D02*
X553632Y261873D01*
X552509Y263579D01*
X553271Y264520D01*
X554696Y262527D01*
X554696Y262527D02*
G37*
G36*
X696531Y264219D02*
X696531Y261201D01*
X694732Y261750D01*
X694732Y264250D01*
X696531Y264219D01*
X696531Y264219D02*
G37*
G36*
X552294Y262950D02*
X552294Y260950D01*
X550939Y260625D01*
X550939Y263275D01*
X552294Y262950D01*
X552294Y262950D02*
G37*
G36*
X751066Y268220D02*
X748096Y265250D01*
X751066Y262281D01*
X747531Y260513D01*
X745763Y262281D01*
X747247Y265250D01*
X745763Y268220D01*
X747531Y269987D01*
X751066Y268220D01*
X751066Y268220D02*
G37*
G36*
X686330Y260500D02*
X685331Y261000D01*
X685331Y262000D01*
X686330Y262500D01*
X686330Y260500D01*
X686330Y260500D02*
G37*
G36*
X727719Y264000D02*
X727719Y261500D01*
X725189Y260250D01*
X725189Y265250D01*
X727719Y264000D01*
X727719Y264000D02*
G37*
G36*
X711720Y264000D02*
X711720Y261500D01*
X709189Y260250D01*
X709189Y265250D01*
X711720Y264000D01*
X711720Y264000D02*
G37*
G36*
X447475Y260000D02*
X445025Y260000D01*
X445750Y261477D01*
X446750Y261477D01*
X447475Y260000D01*
X447475Y260000D02*
G37*
G36*
X452225Y259750D02*
X449775Y259750D01*
X450500Y261227D01*
X451500Y261227D01*
X452225Y259750D01*
X452225Y259750D02*
G37*
G36*
X717280Y260261D02*
X716829Y259505D01*
X715259Y260500D01*
X716135Y261237D01*
X717280Y260261D01*
X717280Y260261D02*
G37*
G36*
X425732Y260750D02*
X424000Y259018D01*
X423359Y260330D01*
X424420Y261391D01*
X425732Y260750D01*
X425732Y260750D02*
G37*
G36*
X457647Y260536D02*
X457230Y259012D01*
X455273Y260485D01*
X456836Y261139D01*
X457647Y260536D01*
X457647Y260536D02*
G37*
G36*
X466282Y260000D02*
X466131Y259000D01*
X464562Y258359D01*
X464912Y260784D01*
X466282Y260000D01*
X466282Y260000D02*
G37*
G36*
X326281Y258030D02*
X323781Y259000D01*
X323781Y261500D01*
X326281Y261970D01*
X326281Y258030D01*
X326281Y258030D02*
G37*
G36*
X617819Y258054D02*
X616332Y257711D01*
X615806Y258599D01*
X616546Y260147D01*
X617819Y258054D01*
X617819Y258054D02*
G37*
D10*
X301500Y260250D02*
X329000Y260250D01*
X329250Y260000D01*
X319000Y289000D02*
X318600Y289400D01*
X310350Y289400D01*
X309975Y289775D01*
X296025Y289775D01*
X296000Y289750D01*
X296000Y265750D01*
X301500Y260250D01*
X339000Y330000D02*
X339000Y333786D01*
X340465Y335250D01*
X398000Y335250D01*
X684750Y297500D02*
X684750Y297000D01*
X685000Y296750D01*
X685000Y292250D01*
X687250Y271500D02*
X687441Y271309D01*
X692809Y271309D01*
X693000Y271500D01*
X698000Y270500D02*
X698000Y269500D01*
X698750Y268750D01*
X701250Y268750D01*
X705250Y264750D01*
X706250Y262750D02*
X713000Y262750D01*
X722250Y262750D02*
X730750Y262750D01*
X734500Y259000D01*
X744250Y259000D01*
X749500Y264250D01*
X749500Y265250D01*
X750000Y265750D02*
X745500Y270250D01*
X745500Y281000D01*
X745250Y281250D02*
X744500Y281250D01*
X737000Y288750D01*
X732500Y288750D01*
X731750Y288750D02*
X731750Y293250D01*
X731750Y298750D02*
X731750Y304750D01*
X733250Y298250D02*
X733250Y298250D01*
X734750Y296750D01*
X744250Y296750D01*
X745500Y295500D01*
X724000Y305250D02*
X724750Y306000D01*
X724000Y305250D02*
X724000Y297500D01*
X724000Y283750D01*
X724000Y282250D01*
X724250Y282000D01*
X731750Y282000D01*
X731500Y277000D02*
X731229Y277000D01*
X730279Y276050D01*
X728068Y276050D01*
X726750Y274732D01*
X726750Y274715D01*
X725285Y273250D01*
X716750Y273250D01*
X692500Y288250D02*
X692500Y297250D01*
X692500Y297375D02*
X685875Y297375D01*
X688233Y269267D02*
X688233Y269267D01*
X688750Y268750D01*
X688750Y268750D01*
X691000Y266500D01*
X691232Y266500D01*
X694732Y263000D01*
X697750Y263000D01*
X698500Y262250D01*
X698500Y261500D01*
D13*
X264500Y262103D02*
X264500Y265150D01*
X262750Y266900D01*
X262000Y266900D01*
X261500Y267400D01*
X264500Y262103D02*
X266257Y260346D01*
X270404Y260346D01*
X270500Y260250D01*
D14*
X473250Y277000D02*
X474250Y277000D01*
X479250Y282000D01*
X478500Y282000D02*
X482750Y282000D01*
X528500Y282000D01*
X534250Y276250D01*
X534250Y270372D01*
X538572Y266050D01*
X538572Y263250D01*
X539572Y262250D01*
X539750Y262250D01*
X540037Y261963D01*
X548250Y261963D01*
X548263Y261950D01*
X552294Y261950D01*
X554594Y264250D01*
X555000Y264250D01*
X565250Y261000D02*
X568275Y264025D01*
X575775Y264025D01*
X576250Y264500D01*
X565500Y273000D02*
X565500Y276750D01*
X565750Y277000D01*
X614750Y277000D01*
X619000Y272750D01*
X599500Y293250D02*
X599750Y293500D01*
X599500Y293250D02*
X587250Y293250D01*
X587250Y296000D01*
X584250Y299000D01*
X568672Y299000D01*
X564171Y294500D01*
X554904Y294500D01*
X554154Y293750D01*
X552250Y293750D01*
X550346Y293750D01*
X549596Y294500D01*
X545500Y294500D01*
X543750Y292750D01*
X539000Y292750D01*
X552250Y293750D02*
X552250Y291250D01*
X580250Y286250D02*
X584500Y286250D01*
X587250Y289000D01*
X587250Y293250D01*
X587243Y300250D02*
X589500Y300250D01*
X592250Y297500D01*
X601000Y297500D01*
X603500Y300000D01*
X603500Y301000D01*
X603500Y309750D01*
X603500Y309750D01*
X603500Y309750D02*
X603391Y309858D01*
X603500Y310000D02*
X603250Y310250D01*
X599500Y310250D01*
X599500Y310250D01*
X597000Y310250D01*
X597000Y310250D02*
X591380Y310250D01*
X591380Y315250D02*
X601000Y315250D01*
X602500Y316750D01*
X602500Y317500D01*
X584993Y302500D02*
X587243Y300250D01*
X584993Y302500D02*
X577672Y302500D01*
X574750Y305422D01*
X574750Y308370D01*
X574750Y308620D01*
X677000Y287500D02*
X684750Y287500D01*
X685500Y287500D01*
X685625Y287625D01*
X688500Y284750D01*
X688500Y284422D01*
X689672Y283250D01*
X696328Y283250D01*
X697500Y284422D01*
X697500Y295750D01*
X699000Y297250D01*
X702500Y297250D01*
X702500Y295750D02*
X703000Y295250D01*
X705697Y295250D01*
X706697Y294250D01*
X709339Y294250D01*
X711839Y291750D01*
X718500Y291750D01*
X720250Y290000D01*
X720250Y282750D01*
X718846Y281346D01*
X716846Y281346D01*
X716750Y281250D01*
X713321Y297929D02*
X713000Y297929D01*
X708321Y297929D01*
X708250Y298000D02*
X708250Y303500D01*
X712750Y308000D01*
X718500Y308000D01*
X741075Y316675D02*
X741075Y324000D01*
X750850Y324500D02*
X750925Y324575D01*
X750925Y332425D01*
X751000Y332500D01*
X711000Y331750D02*
X710713Y331463D01*
X708463Y331463D01*
X705750Y328750D01*
X702000Y322000D02*
X702000Y315000D01*
X702000Y314750D02*
X702000Y298271D01*
X692250Y297500D02*
X692250Y306000D01*
X692250Y314000D01*
X692250Y314750D01*
X692250Y315750D01*
X693250Y316750D01*
X693578Y316750D01*
X694750Y317922D01*
X694750Y321615D01*
X697750Y324615D01*
X697750Y324750D01*
X702500Y315000D02*
X706050Y315000D01*
X707750Y313300D01*
X707750Y309000D01*
X692250Y314000D02*
X688172Y314000D01*
X687000Y315172D01*
X687000Y320750D01*
X739500Y271250D02*
X739500Y265250D01*
X478500Y282000D02*
X478500Y299100D01*
X473750Y303850D01*
D16*
X261500Y277600D02*
X261500Y284650D01*
X261650Y284500D01*
X269500Y284500D01*
X265450Y288000D02*
X279750Y288000D01*
X265450Y288000D02*
X261500Y291950D01*
X261500Y294850D01*
X270000Y277500D02*
X278750Y277500D01*
X270000Y277500D02*
X270000Y277500D01*
X394500Y317100D02*
X395000Y317100D01*
X399375Y321475D01*
X399496Y321475D01*
X400623Y322602D01*
X400623Y330623D01*
X403250Y333250D01*
X415750Y333250D01*
X416000Y333000D01*
X421000Y333000D02*
X421000Y332500D01*
X415000Y326500D01*
X407600Y326500D01*
X407250Y326850D01*
X407750Y308250D02*
X407750Y305250D01*
X411000Y302000D01*
X424250Y302000D01*
X425750Y303500D01*
X425750Y305600D01*
X427150Y307000D01*
X428000Y307000D01*
X454500Y299350D02*
X454800Y299350D01*
X462579Y307129D01*
X462579Y311079D01*
X462750Y311250D01*
X462750Y311750D02*
X461300Y311750D01*
X454350Y318700D01*
X454350Y319000D01*
X454350Y327100D01*
X458750Y331500D01*
X480500Y331500D01*
X485500Y326500D01*
X477250Y325500D02*
X477041Y325500D01*
X473041Y329500D01*
X467000Y329500D01*
X464150Y326650D01*
X464150Y319000D01*
X459250Y294000D02*
X473250Y294000D01*
X459250Y294000D02*
X457875Y292625D01*
X457875Y289375D01*
X456500Y288000D01*
X452250Y288000D01*
X449750Y285500D01*
X449750Y278500D01*
X451250Y277000D01*
X456750Y277000D01*
X461500Y281750D01*
X461500Y284000D01*
X462250Y287139D02*
X462250Y287250D01*
X458578Y287250D01*
X457097Y285769D01*
X455269Y285769D01*
X453500Y284000D01*
X453000Y290750D02*
X453500Y291250D01*
X453000Y290750D02*
X450750Y290750D01*
X447750Y287750D01*
X447750Y276250D01*
X449750Y274250D01*
X461139Y274250D01*
X467139Y268250D01*
X473000Y268250D01*
X471904Y264750D02*
X483904Y264750D01*
X486154Y262500D01*
X532250Y262500D01*
X534250Y264500D01*
X535129Y260000D02*
X536629Y258500D01*
X609500Y258500D01*
X614000Y263000D01*
X673697Y263000D01*
X676197Y265500D01*
X680000Y265500D01*
X684000Y261500D01*
X688250Y261500D01*
X700621Y275000D02*
X701621Y274000D01*
X706250Y274000D01*
X706250Y274000D02*
X709500Y277250D01*
X712750Y277250D01*
X712750Y281250D02*
X709096Y281250D01*
X705346Y277500D01*
X685050Y277500D01*
X684050Y276500D01*
X676303Y276500D01*
X673750Y279053D01*
X673750Y287750D01*
X673750Y287750D02*
X673750Y288500D01*
X677500Y292250D02*
G03*
X673750Y288500I0J-3750D01*
G01*
X670500Y289174D02*
X670500Y270500D01*
X676250Y270500D01*
X676404Y270500D01*
X680404Y274500D01*
X684878Y274500D01*
X685378Y275000D01*
X700621Y275000D01*
X712750Y285250D02*
X708500Y285250D01*
X706500Y283250D01*
X712250Y319096D02*
X712250Y325500D01*
X716500Y329750D01*
X739500Y329750D01*
X740750Y328500D01*
X740750Y324000D01*
X749500Y316500D02*
X750250Y316500D01*
X749500Y316500D02*
X745500Y312500D01*
X745500Y309650D01*
X742250Y306400D01*
X741500Y306400D01*
X741500Y306250D02*
X740900Y306250D01*
X734150Y313000D01*
X731750Y313000D01*
X731750Y318000D02*
X731750Y325000D01*
X731750Y325000D02*
X729750Y327000D01*
X722750Y327000D01*
X720000Y324250D01*
X720000Y323750D01*
X724750Y323750D02*
X726750Y321750D01*
X726750Y318000D01*
X722000Y318000D02*
X722000Y318000D01*
X722000Y318000D02*
X721750Y318000D01*
X717250Y318000D01*
X717250Y318000D02*
X715500Y319750D01*
X715500Y323500D01*
X712250Y319096D02*
X718346Y313000D01*
X721750Y313000D01*
X750250Y310750D02*
X750250Y306250D01*
X705500Y324750D02*
X701750Y324750D01*
X674000Y311500D02*
X671750Y311500D01*
X671750Y311500D02*
G03*
X670250Y310000I0J-1500D01*
G01*
X670250Y294086D01*
X670153Y293882D01*
X669619Y293382D02*
G03*
X670153Y293882I-369J929D01*
G01*
X669619Y293382D02*
G03*
X668500Y291750I631J-1632D01*
G01*
X668500Y288000D01*
X668500Y287978D01*
X666912Y284166D02*
G03*
X668500Y287978I-3834J3834D01*
G01*
X673121Y292997D02*
G03*
X670500Y289174I1477J-3823D01*
G01*
X673121Y292997D02*
G03*
X673705Y293630I-371J929D01*
G01*
X673750Y293774D01*
X673750Y302500D01*
X677500Y303539D02*
G03*
X674000Y307000I-3500J-40D01*
G01*
X677500Y303540D02*
X677500Y292250D01*
X661078Y281750D02*
G03*
X666912Y284166I-0J8250D01*
G01*
X661078Y281750D02*
X661068Y281750D01*
X619750Y281750D01*
X616500Y280000D02*
X622250Y274250D01*
X622250Y271404D01*
X619096Y268250D01*
X618750Y268250D01*
X615154Y265000D02*
X669000Y265000D01*
X670500Y266500D01*
X670500Y270500D01*
X616500Y280000D02*
X564154Y280000D01*
X563154Y279000D01*
X560250Y279000D01*
X552000Y270750D01*
X549000Y270750D01*
X548250Y271600D02*
X547500Y271600D01*
X546000Y273100D01*
X546000Y273850D01*
X545250Y274600D01*
X545250Y277250D01*
X545250Y277346D01*
X548404Y280500D01*
X549500Y280500D01*
X552000Y283000D01*
X552500Y283000D01*
X556250Y283250D02*
X556250Y278750D01*
X554750Y277250D01*
X549750Y277250D01*
X541250Y277879D02*
X544750Y281379D01*
X544750Y281750D01*
X545311Y281750D01*
X546586Y283025D01*
X548025Y283025D01*
X548250Y283250D01*
X558750Y300250D02*
X563404Y300250D01*
X564904Y301750D01*
X569250Y301750D01*
X571995Y304495D01*
X571995Y311361D01*
X572884Y312250D01*
X577000Y312250D01*
X579750Y315000D01*
X574750Y315250D02*
X574500Y315250D01*
X572000Y317750D01*
X572000Y324250D01*
X571995Y324255D01*
X571995Y326871D01*
X570345Y328522D01*
X565978Y328522D01*
X565500Y329000D01*
X566995Y325000D02*
X567870Y325000D01*
X566995Y325000D02*
X564473Y322478D01*
X563228Y322478D01*
X562750Y322000D01*
X564845Y319345D02*
X567595Y319345D01*
X567750Y319500D01*
X567750Y320250D02*
X568120Y320250D01*
X564845Y319345D02*
X562250Y316750D01*
X562250Y312750D01*
X561731Y312231D01*
X561731Y311481D01*
X559500Y309250D01*
X564245Y309399D02*
X564245Y312500D01*
X566995Y315250D01*
X568120Y315250D01*
X568120Y310250D02*
X568120Y306878D01*
X566250Y305008D01*
X566250Y305000D01*
X564245Y309399D02*
X559596Y304750D01*
X559500Y304750D01*
X560250Y291250D02*
X564500Y291250D01*
X568000Y294750D01*
X571750Y294750D01*
X568703Y290250D02*
X575750Y290250D01*
X580250Y294750D01*
X568703Y290250D02*
X565703Y287250D01*
X560250Y287250D01*
X560500Y283500D02*
X569000Y283500D01*
X571250Y285750D01*
X571500Y285750D01*
X560500Y283500D02*
X560250Y283250D01*
X568121Y266750D02*
X571121Y269750D01*
X610404Y269750D01*
X615154Y265000D01*
X617664Y259750D02*
X618250Y259750D01*
X617664Y259750D02*
X614414Y256500D01*
X535800Y256500D01*
X534300Y258000D01*
X484997Y258000D01*
X483497Y259500D01*
X463750Y259500D01*
X463500Y259750D01*
X460404Y264000D02*
X469825Y264000D01*
X471075Y262750D01*
X483075Y262750D01*
X485825Y260000D01*
X535129Y260000D01*
X539750Y269336D02*
X540336Y268750D01*
X556346Y268750D01*
X558346Y266750D01*
X568121Y266750D01*
X598500Y301750D02*
X593000Y307250D01*
X588384Y307250D01*
X587500Y308134D01*
X587500Y312500D01*
X584750Y315250D01*
X587505Y323000D02*
X587505Y329192D01*
X590000Y331687D01*
X590000Y332000D01*
X585125Y332875D02*
X585500Y333250D01*
X585125Y332875D02*
X585125Y327245D01*
X584750Y326870D01*
X587505Y323000D02*
X590255Y320250D01*
X591380Y320250D01*
X580125Y332875D02*
X580500Y333250D01*
X580125Y332875D02*
X580125Y327245D01*
X579750Y326870D01*
X574750Y326870D02*
X575000Y327120D01*
X575000Y333000D01*
X575250Y333250D01*
X544250Y328250D02*
X546250Y326250D01*
X538750Y308250D02*
X539250Y307750D01*
X541250Y277879D02*
X541250Y270950D01*
X539750Y272450D02*
X539750Y269336D01*
X486500Y266750D02*
X486500Y266750D01*
X479156Y266750D01*
X474406Y271500D01*
X466717Y271500D01*
X461500Y276718D01*
X461500Y277000D01*
X465000Y276046D02*
X467546Y273500D01*
X475446Y273500D01*
X478946Y270000D01*
X482750Y270000D01*
X465000Y284389D02*
X465000Y276046D01*
X461750Y270000D02*
X457389Y270000D01*
X453639Y266250D01*
X448750Y266250D01*
X446250Y263750D01*
X446250Y258750D01*
X441750Y258750D02*
X441750Y264838D01*
X442750Y265838D01*
X442750Y271250D01*
X439000Y275000D01*
X439000Y275000D01*
X435350Y278650D01*
X437000Y272750D02*
X439750Y270000D01*
X439750Y261346D01*
X437250Y258846D01*
X437250Y258750D01*
X451000Y258500D02*
X451000Y262250D01*
X453000Y264250D01*
X457825Y264250D01*
X459575Y266000D01*
X470654Y266000D01*
X471904Y264750D01*
X460404Y264000D02*
X455500Y259096D01*
X455500Y258750D01*
X437000Y272750D02*
X427250Y272750D01*
X425750Y274250D01*
X425750Y278250D01*
X426250Y278750D01*
X462250Y287139D02*
X465000Y284389D01*
D17*
X261500Y267400D02*
D03*
X261500Y277600D02*
D03*
X261500Y284650D02*
D03*
X261500Y294850D02*
D03*
X426250Y278400D02*
D03*
X434750Y278500D02*
D03*
X473000Y293650D02*
D03*
X473000Y303850D02*
D03*
X434750Y288700D02*
D03*
X426250Y288600D02*
D03*
X539750Y272450D02*
D03*
X548250Y272350D02*
D03*
X548250Y262150D02*
D03*
X539750Y262250D02*
D03*
X731750Y271800D02*
D03*
X731750Y282000D02*
D03*
X741500Y306400D02*
D03*
X741500Y316600D02*
D03*
D18*
X319000Y289000D02*
D03*
X329000Y289000D02*
D03*
X339000Y330000D02*
D03*
X329000Y330000D02*
D03*
X434500Y298000D02*
D03*
X444500Y298000D02*
D03*
X603500Y301000D02*
D03*
X613500Y301000D02*
D03*
X613500Y310000D02*
D03*
X613500Y318750D02*
D03*
X603500Y318750D02*
D03*
X603500Y310000D02*
D03*
X688000Y270500D02*
D03*
X698000Y270500D02*
D03*
X714000Y297500D02*
D03*
X724000Y297500D02*
D03*
X739500Y265250D02*
D03*
X749500Y265250D02*
D03*
X702250Y306000D02*
D03*
X702250Y314750D02*
D03*
X692250Y314750D02*
D03*
X692250Y306000D02*
D03*
X692500Y297250D02*
D03*
X692500Y288250D02*
D03*
X702500Y288250D02*
D03*
X702500Y297250D02*
D03*
D19*
X319000Y280000D02*
D03*
X329200Y280000D02*
D03*
X288600Y308000D02*
D03*
X278400Y308000D02*
D03*
X688300Y261500D02*
D03*
X698500Y261500D02*
D03*
X740650Y324500D02*
D03*
X750850Y324500D02*
D03*
D20*
X453500Y270000D02*
D03*
X453500Y277000D02*
D03*
X461500Y277000D02*
D03*
X461500Y270000D02*
D03*
X461500Y284000D02*
D03*
X461500Y291000D02*
D03*
X453500Y291000D02*
D03*
X453500Y284000D02*
D03*
X548250Y283250D02*
D03*
X552250Y283250D02*
D03*
X556250Y283250D02*
D03*
X556250Y287250D02*
D03*
X556250Y291250D02*
D03*
X552250Y291250D02*
D03*
X552250Y287250D02*
D03*
X548250Y287250D02*
D03*
X548250Y291250D02*
D03*
X560250Y291250D02*
D03*
X560250Y287250D02*
D03*
X560250Y283250D02*
D03*
X697750Y324750D02*
D03*
X697750Y328750D02*
D03*
X701750Y328750D02*
D03*
X701750Y324750D02*
D03*
X705750Y324750D02*
D03*
X705750Y328750D02*
D03*
X712750Y285250D02*
D03*
X712750Y281250D02*
D03*
X716750Y281250D02*
D03*
X716750Y285250D02*
D03*
X716750Y277250D02*
D03*
X716750Y273250D02*
D03*
X712750Y273250D02*
D03*
X712750Y277250D02*
D03*
X721750Y308000D02*
D03*
X726750Y308000D02*
D03*
X731750Y308000D02*
D03*
X731750Y313000D02*
D03*
X731750Y318000D02*
D03*
X726750Y318000D02*
D03*
X726750Y313000D02*
D03*
X721750Y313000D02*
D03*
X721750Y318000D02*
D03*
D21*
X568120Y310000D02*
D03*
X568120Y315000D02*
D03*
X568120Y320000D02*
D03*
X568120Y325000D02*
D03*
X591380Y325000D02*
D03*
X591380Y320000D02*
D03*
X591380Y315000D02*
D03*
X591380Y310000D02*
D03*
D22*
X574750Y308370D02*
D03*
X579750Y308370D02*
D03*
X579750Y326620D02*
D03*
X574750Y326620D02*
D03*
X584750Y326620D02*
D03*
X584750Y308370D02*
D03*
D23*
X574750Y315000D02*
D03*
X579750Y315000D02*
D03*
X579750Y320000D02*
D03*
X574750Y320000D02*
D03*
X584750Y320000D02*
D03*
X584750Y315000D02*
D03*
D24*
X270000Y267500D02*
D03*
X270000Y277500D02*
D03*
X329250Y270000D02*
D03*
X329250Y260000D02*
D03*
X417250Y278750D02*
D03*
X417250Y288750D02*
D03*
X436500Y307100D02*
D03*
X445250Y307100D02*
D03*
X445250Y317100D02*
D03*
X436500Y317100D02*
D03*
X464000Y300500D02*
D03*
X473250Y287000D02*
D03*
X473250Y277000D02*
D03*
X473250Y310750D02*
D03*
X482250Y310750D02*
D03*
X482250Y320750D02*
D03*
X473250Y320750D02*
D03*
X464000Y310500D02*
D03*
X427750Y307100D02*
D03*
X419000Y307100D02*
D03*
X419000Y317100D02*
D03*
X427750Y317100D02*
D03*
X538500Y292750D02*
D03*
X538500Y282750D02*
D03*
X565250Y272000D02*
D03*
X565250Y262000D02*
D03*
X684750Y287500D02*
D03*
X684750Y297500D02*
D03*
X686750Y322250D02*
D03*
X731750Y298750D02*
D03*
X731750Y288750D02*
D03*
X750250Y306250D02*
D03*
X750250Y316250D02*
D03*
X686750Y332250D02*
D03*
D25*
X706250Y262750D02*
D03*
X722250Y262750D02*
D03*
D26*
X745750Y281250D02*
D03*
X745750Y295500D02*
D03*
D27*
X544250Y310250D02*
D03*
X544250Y328250D02*
D03*
D28*
X394500Y317100D02*
D03*
X394500Y326850D02*
D03*
X407250Y326850D02*
D03*
D29*
X571750Y286250D02*
D03*
X571750Y294750D02*
D03*
X580250Y294750D02*
D03*
X580250Y286250D02*
D03*
D30*
X310100Y270250D02*
D03*
X319900Y270250D02*
D03*
X454350Y319000D02*
D03*
X464150Y319000D02*
D03*
D31*
X310250Y280000D02*
D03*
X310250Y289800D02*
D03*
X337750Y287600D02*
D03*
X337750Y297400D02*
D03*
X454500Y299350D02*
D03*
X454500Y309150D02*
D03*
D32*
X326500Y308000D02*
D03*
X297500Y308000D02*
D03*
D34*
X270500Y260250D02*
D03*
X278750Y277500D02*
D03*
X282000Y274250D02*
D03*
X279750Y288000D02*
D03*
X282000Y298250D02*
D03*
X296000Y289750D02*
D03*
X276750Y295000D02*
D03*
X270000Y291750D02*
D03*
X270000Y298750D02*
D03*
X269750Y284500D02*
D03*
X385500Y298250D02*
D03*
X425750Y259000D02*
D03*
X432500Y258750D02*
D03*
X437250Y258750D02*
D03*
X441750Y258750D02*
D03*
X446250Y258750D02*
D03*
X451000Y258500D02*
D03*
X455500Y258750D02*
D03*
X463500Y259750D02*
D03*
X473000Y268250D02*
D03*
X482750Y270000D02*
D03*
X483000Y274500D02*
D03*
X486500Y266750D02*
D03*
X482750Y282000D02*
D03*
X486500Y306250D02*
D03*
X489250Y310250D02*
D03*
X488000Y322750D02*
D03*
X485500Y326500D02*
D03*
X533000Y331750D02*
D03*
X544750Y335250D02*
D03*
X565500Y329000D02*
D03*
X562750Y322000D02*
D03*
X559500Y309250D02*
D03*
X566250Y305000D02*
D03*
X559500Y304750D02*
D03*
X565500Y276750D02*
D03*
X576250Y264500D02*
D03*
X599750Y293500D02*
D03*
X598500Y301750D02*
D03*
X593500Y302000D02*
D03*
X619000Y272750D02*
D03*
X618750Y268250D02*
D03*
X618250Y259750D02*
D03*
X619750Y281750D02*
D03*
X619750Y286500D02*
D03*
X619500Y291000D02*
D03*
X613500Y324500D02*
D03*
X590000Y332000D02*
D03*
X585500Y333250D02*
D03*
X597000Y310250D02*
D03*
X580500Y333250D02*
D03*
X575250Y333250D02*
D03*
X558750Y300250D02*
D03*
X544750Y281750D02*
D03*
X545250Y277250D02*
D03*
X549750Y277250D02*
D03*
X538000Y277500D02*
D03*
X534250Y264500D02*
D03*
X555000Y264250D02*
D03*
X482000Y316000D02*
D03*
X477500Y325250D02*
D03*
X471750Y325250D02*
D03*
X466500Y305500D02*
D03*
X466750Y289000D02*
D03*
X482250Y294250D02*
D03*
X439750Y297750D02*
D03*
X424000Y312250D02*
D03*
X419000Y322000D02*
D03*
X407750Y308250D02*
D03*
X424500Y298250D02*
D03*
X398250Y307750D02*
D03*
X416000Y333000D02*
D03*
X421000Y333000D02*
D03*
X439500Y333250D02*
D03*
X444250Y333250D02*
D03*
X449000Y333250D02*
D03*
X453500Y333250D02*
D03*
X398000Y335250D02*
D03*
X676500Y276500D02*
D03*
X676250Y270500D02*
D03*
X676500Y265500D02*
D03*
X693000Y271500D02*
D03*
X706250Y274000D02*
D03*
X713000Y262750D02*
D03*
X715250Y258750D02*
D03*
X731500Y277000D02*
D03*
X739500Y271250D02*
D03*
X745500Y270250D02*
D03*
X731750Y293500D02*
D03*
X750250Y311250D02*
D03*
X751000Y332500D02*
D03*
X724750Y323750D02*
D03*
X720000Y323750D02*
D03*
X715500Y323750D02*
D03*
X711000Y331750D02*
D03*
X693750Y332250D02*
D03*
X694250Y326750D02*
D03*
X707750Y309000D02*
D03*
X708250Y298000D02*
D03*
X706500Y283250D02*
D03*
X674000Y307000D02*
D03*
X674000Y311500D02*
D03*
X673750Y302500D02*
D03*
X677000Y287500D02*
D03*
X677000Y282250D02*
D03*
X685000Y292250D02*
D03*
D37*
X310100Y270250D02*
X310175Y270325D01*
X310175Y279425D01*
X310250Y279500D01*
X310250Y280000D02*
X319000Y280000D01*
X329100Y279850D02*
X329100Y288900D01*
X329000Y289000D01*
X329000Y279750D02*
X329100Y279850D01*
X329250Y270125D02*
X320025Y270125D01*
X319900Y270250D01*
X329250Y270000D02*
X331020Y270622D01*
X331464Y270778D01*
X331464Y270778D02*
G03*
X338499Y284980I-11767J14673D01*
G01*
X338505Y285451D01*
X338349Y285894D01*
X337750Y287600D01*
X337750Y298500D02*
X338162Y298088D01*
X385337Y298088D01*
X385500Y298250D01*
D38*
X407250Y317100D02*
D03*
D39*
X270000Y267500D02*
X280250Y267500D01*
X282000Y269250D01*
X282000Y274250D01*
X282000Y274500D01*
D40*
X421266Y261234D02*
X423516Y261234D01*
X425750Y259000D01*
X421266Y261234D02*
X417250Y265250D01*
X417250Y278750D01*
X419500Y278000D02*
X419500Y282450D01*
X424000Y286950D01*
X425250Y288950D02*
X426000Y288950D01*
X426050Y288900D01*
X434750Y288900D01*
X434750Y288850D02*
X444400Y288850D01*
X444500Y288750D01*
X444500Y298000D01*
X444500Y298500D01*
X439750Y298000D02*
X439750Y302600D01*
X444250Y307100D01*
X445250Y307100D01*
X437500Y307100D02*
X443000Y312600D01*
X443000Y315850D01*
X444150Y317000D01*
X444250Y317000D01*
X446800Y316550D02*
X447500Y315850D01*
X447500Y315850D01*
X454200Y309150D01*
X454500Y309150D01*
X447500Y317250D02*
X447500Y331709D01*
X449000Y333209D01*
X449000Y333750D01*
X447500Y317250D02*
X447250Y317000D01*
X436500Y317100D02*
X427600Y317100D01*
X426500Y317000D02*
X426500Y316850D01*
X424383Y314733D01*
X424383Y312633D01*
X424000Y312250D01*
X420000Y312250D01*
X419000Y311250D01*
X419000Y307100D01*
X428000Y307100D02*
X437500Y307100D01*
X439250Y298000D02*
X434500Y298000D01*
X434250Y298250D01*
X424500Y298250D01*
X424500Y298250D02*
X419500Y298250D01*
X417250Y296000D01*
X417250Y288750D01*
X419250Y277750D02*
X419500Y278000D01*
X444500Y275250D02*
X444500Y288750D01*
X444500Y275250D02*
X449750Y270000D01*
X453500Y270000D01*
X461500Y291000D02*
X464366Y291000D01*
X466366Y289000D01*
X466750Y289000D01*
X466900Y289000D01*
X468900Y287000D01*
X472750Y287000D01*
X473000Y303850D02*
X473750Y303850D01*
X466250Y304750D02*
X471250Y309750D01*
X471250Y310000D01*
X473000Y310750D02*
X473125Y310875D01*
X473250Y311000D01*
X473125Y310875D02*
X473250Y310750D01*
X482250Y310750D01*
X482250Y310750D01*
X482000Y316000D02*
X535500Y316000D01*
X537750Y313750D01*
X536250Y322750D02*
X538000Y324500D01*
X538000Y325000D01*
X540000Y327000D01*
X540500Y327000D01*
X540500Y330750D01*
X536250Y322750D02*
X488000Y322750D01*
X482250Y320750D02*
X482250Y320750D01*
X473000Y320750D01*
X471750Y322000D01*
X471750Y325197D01*
X473000Y311000D02*
X473125Y310875D01*
X466250Y304750D02*
X466250Y301750D01*
X465000Y300500D01*
X464000Y300500D01*
X419000Y317100D02*
X419000Y322000D01*
X538000Y277500D02*
X538000Y281750D01*
X539000Y282750D01*
X539000Y285750D01*
X540500Y287250D01*
X548250Y287250D01*
X552250Y287250D01*
X556000Y287250D01*
X556250Y287250D02*
X556250Y291250D01*
X556250Y291250D01*
X579750Y308620D02*
X584750Y308620D01*
X584750Y308370D01*
X584750Y307245D01*
X586995Y305000D01*
X590500Y305000D01*
X593500Y302000D01*
X613500Y301000D02*
X613500Y310000D01*
X613500Y318750D01*
X613500Y318750D01*
X613500Y324500D01*
X613500Y324500D01*
X677000Y282250D02*
X686783Y282250D01*
X689283Y279750D01*
X700250Y279750D01*
X702500Y282000D01*
X702500Y288250D01*
X702500Y289250D01*
X704750Y291500D01*
X708200Y291500D01*
X711450Y288250D01*
X713993Y288250D01*
X716750Y285493D01*
X716750Y285250D01*
X723750Y282000D02*
X719000Y277250D01*
X716750Y277250D01*
X716750Y270250D02*
X726528Y270250D01*
X727650Y271372D01*
X730872Y271372D01*
X731250Y271750D01*
X716750Y270250D02*
X716750Y260791D01*
X715250Y259291D01*
X715250Y258750D01*
X715507Y270250D02*
X716750Y270250D01*
X715507Y270250D02*
X712750Y273007D01*
X712750Y273250D01*
X718500Y308000D02*
X721750Y308000D01*
X722000Y308250D02*
X726750Y313000D01*
X726750Y308000D02*
X724750Y306000D01*
X731750Y305250D02*
X731750Y308000D01*
X698243Y332500D02*
X701750Y328993D01*
X701750Y328750D01*
X697750Y328750D02*
X697479Y328750D01*
X695862Y327133D01*
X694633Y327133D01*
X694250Y326750D01*
X689150Y326750D01*
X687000Y328900D01*
X687000Y332000D01*
X693500Y332500D02*
X698243Y332500D01*
X701750Y324750D02*
X701750Y324750D01*
X701750Y324750D02*
X701750Y322500D01*
X705500Y324750D02*
X705500Y324750D01*
M02*
