G04*
G04 #@! TF.GenerationSoftware,Altium Limited,Altium Designer,23.2.1 (34)*
G04*
G04 Layer_Color=65535*
%FSLAX44Y44*%
%MOMM*%
G71*
G04*
G04 #@! TF.SameCoordinates,D4FC6264-4346-42C6-8E52-0D0339D1B619*
G04*
G04*
G04 #@! TF.FilePolarity,Positive*
G04*
G01*
G75*
%ADD10C,0.2500*%
%ADD11C,0.4000*%
%ADD12C,0.5000*%
%ADD13C,0.3000*%
%ADD14C,0.2000*%
%ADD15C,0.0500*%
%ADD16C,0.1000*%
D10*
X418625Y326975D02*
G03*
X418625Y326975I-1250J0D01*
G01*
X755559Y301250D02*
G03*
X755559Y301250I-559J0D01*
G01*
D11*
X446500Y269500D02*
G03*
X446500Y269500I-500J0D01*
G01*
D12*
X559118Y333000D02*
G03*
X559118Y333000I-1118J0D01*
G01*
D13*
X566000Y295250D02*
G03*
X566000Y295250I-500J0D01*
G01*
X708000Y288750D02*
G03*
X708000Y288750I-500J0D01*
G01*
X720900Y323500D02*
G03*
X720900Y323500I-500J0D01*
G01*
D14*
X322500Y320000D02*
X327500Y320000D01*
X390375Y309225D02*
X411375Y309225D01*
X411375Y334725D02*
X390375Y334725D01*
X544750Y295250D02*
G03*
X544750Y295250I-500J0D01*
G01*
X562750Y301500D02*
X562750Y332500D01*
X597750Y332500D01*
X597750Y301500D01*
X562750Y301500D01*
X693850Y320850D02*
G03*
X693850Y320850I-500J0D01*
G01*
D15*
X257250Y264000D02*
X257250Y281000D01*
X265750Y281000D01*
X265750Y264000D01*
X257250Y264000D01*
X265750Y264250D02*
X265750Y280750D01*
X274500Y280750D01*
X274500Y264250D01*
X265750Y264250D01*
X292000Y303750D02*
X292000Y312250D01*
X275000Y312250D01*
X275000Y303750D01*
X292000Y303750D01*
X305250Y275400D02*
X305250Y294400D01*
X315250Y294400D01*
X315250Y275400D01*
X305250Y275400D01*
X305500Y275250D02*
X324500Y275250D01*
X324500Y265250D01*
X305500Y265250D01*
X305500Y275250D01*
X315600Y275750D02*
X315600Y284250D01*
X332600Y284250D01*
X332600Y275750D01*
X315600Y275750D01*
X325000Y273250D02*
X333750Y273250D01*
X333750Y256750D01*
X325000Y256750D01*
X325000Y273250D01*
X332750Y283000D02*
X342750Y283000D01*
X342750Y302000D01*
X332750Y302000D01*
X332750Y283000D01*
X332250Y284500D02*
X332250Y293250D01*
X315750Y293250D01*
X315750Y284500D01*
X332250Y284500D01*
X342250Y325500D02*
X342250Y334250D01*
X325750Y334250D01*
X325750Y325500D01*
X342250Y325500D01*
X413000Y275500D02*
X413000Y292000D01*
X421750Y292000D01*
X421750Y275500D01*
X413000Y275500D01*
X422000Y275000D02*
X430500Y275000D01*
X430500Y292000D01*
X422000Y292000D01*
X422000Y275000D01*
X430500Y275100D02*
X439000Y275100D01*
X439000Y292100D01*
X430500Y292100D01*
X430500Y275100D01*
X432000Y303850D02*
X432000Y320350D01*
X423250Y320350D01*
X423250Y303850D01*
X432000Y303850D01*
X432000Y303850D02*
X432000Y320350D01*
X440750Y320350D01*
X440750Y303850D01*
X432000Y303850D01*
X441000Y303850D02*
X441000Y320350D01*
X449750Y320350D01*
X449750Y303850D01*
X441000Y303850D01*
X447750Y302500D02*
X447750Y293750D01*
X431250Y293750D01*
X431250Y302500D01*
X447750Y302500D01*
X449500Y294750D02*
X459500Y294750D01*
X459500Y313750D01*
X449500Y313750D01*
X449500Y294750D01*
X468750Y273750D02*
X468750Y290250D01*
X477500Y290250D01*
X477500Y273750D01*
X468750Y273750D01*
X468750Y290250D02*
X477250Y290250D01*
X477250Y307250D01*
X468750Y307250D01*
X468750Y290250D01*
X468500Y297250D02*
X468500Y313750D01*
X459750Y313750D01*
X459750Y297250D01*
X468500Y297250D01*
X486500Y307500D02*
X486500Y324000D01*
X477750Y324000D01*
X477750Y307500D01*
X486500Y307500D01*
X477500Y307500D02*
X477500Y324000D01*
X468750Y324000D01*
X468750Y307500D01*
X477500Y307500D01*
X468750Y314000D02*
X468750Y324000D01*
X449750Y324000D01*
X449750Y314000D01*
X468750Y314000D01*
X423250Y320350D02*
X423250Y303850D01*
X414500Y303850D01*
X414500Y320350D01*
X423250Y320350D01*
X535500Y275850D02*
X544000Y275850D01*
X544000Y258850D01*
X535500Y258850D01*
X535500Y275850D01*
X544000Y275750D02*
X552500Y275750D01*
X552500Y258750D01*
X544000Y258750D01*
X544000Y275750D01*
X561000Y275250D02*
X569750Y275250D01*
X569750Y258750D01*
X561000Y258750D01*
X561000Y275250D01*
X600250Y296750D02*
X600250Y305500D01*
X616750Y305500D01*
X616750Y296750D01*
X600250Y296750D01*
X616750Y305750D02*
X616750Y314500D01*
X600250Y314500D01*
X600250Y305750D01*
X616750Y305750D01*
X616750Y314250D02*
X616750Y323000D01*
X600250Y323000D01*
X600250Y314250D01*
X616750Y314250D01*
X684750Y274750D02*
X701250Y274750D01*
X701250Y266000D01*
X684750Y266000D01*
X684750Y274750D01*
X684900Y265750D02*
X701900Y265750D01*
X701900Y257250D01*
X684900Y257250D01*
X684900Y265750D01*
X702000Y268250D02*
X726500Y268250D01*
X726500Y257250D01*
X702000Y257250D01*
X702000Y268250D01*
X727500Y268400D02*
X727500Y285400D01*
X736000Y285400D01*
X736000Y268400D01*
X727500Y268400D01*
X736250Y269750D02*
X752750Y269750D01*
X752750Y261000D01*
X736250Y261000D01*
X736250Y269750D01*
X737250Y303000D02*
X737250Y320000D01*
X745750Y320000D01*
X745750Y303000D01*
X754500Y303000D01*
X754500Y319500D01*
X745750Y319500D01*
X745750Y303000D01*
X737250Y303000D01*
X737250Y320250D02*
X754250Y320250D01*
X754250Y328750D01*
X737250Y328750D01*
X737250Y320250D01*
X736000Y302000D02*
X727250Y302000D01*
X727250Y293250D01*
X710750Y293250D01*
X710750Y302000D01*
X727250Y302000D01*
X727250Y285500D01*
X736000Y285500D01*
X736000Y302000D01*
X705500Y310250D02*
X705500Y319000D01*
X689000Y319000D01*
X689000Y310250D01*
X705500Y310250D01*
X705500Y310500D02*
X705500Y301750D01*
X689000Y301750D01*
X689000Y310500D01*
X705500Y310500D01*
X691000Y319000D02*
X691000Y335500D01*
X682250Y335500D01*
X682250Y319000D01*
X691000Y319000D01*
X689250Y301750D02*
X705750Y301750D01*
X705750Y293000D01*
X689250Y293000D01*
X689250Y301750D01*
X689000Y300750D02*
X680250Y300750D01*
X680250Y284250D01*
X689000Y284250D01*
X689000Y300750D01*
X689250Y292750D02*
X705750Y292750D01*
X705750Y284000D01*
X689250Y284000D01*
X689250Y292750D01*
X584000Y298500D02*
X584000Y282500D01*
X568000Y282500D01*
X568000Y298500D01*
X584000Y298500D01*
X563250Y294250D02*
X563250Y291250D01*
X563250Y294250D02*
X560250Y294250D01*
X560250Y280250D02*
X563250Y280250D01*
X563250Y283250D01*
X545250Y283250D02*
X545250Y280250D01*
X548250Y280250D01*
X542750Y279500D02*
X542750Y296000D01*
X534000Y296000D01*
X534000Y279500D01*
X542750Y279500D01*
X545250Y291250D02*
X545250Y294250D01*
X548250Y294250D01*
X265750Y298250D02*
X265750Y281250D01*
X257250Y281250D01*
X257250Y298250D01*
X265750Y298250D01*
D16*
X535750Y304750D02*
X535750Y333750D01*
X552750Y333750D01*
X552750Y304750D01*
X535750Y304750D01*
M02*
