G04*
G04 #@! TF.GenerationSoftware,Altium Limited,Altium Designer,23.2.1 (34)*
G04*
G04 Layer_Physical_Order=4*
G04 Layer_Color=16711680*
%FSLAX44Y44*%
%MOMM*%
G71*
G04*
G04 #@! TF.SameCoordinates,3FB90E65-7FC7-44E4-8F16-70115AC8F52E*
G04*
G04*
G04 #@! TF.FilePolarity,Positive*
G04*
G01*
G75*
%ADD10C,0.2500*%
%ADD13C,0.3000*%
%ADD14C,0.2000*%
%ADD16C,0.1000*%
%ADD19R,0.4000X0.6000*%
%ADD30R,0.5800X0.6400*%
%ADD34C,0.3500*%
%ADD37C,0.2651*%
%ADD39C,0.1500*%
%ADD41C,0.4500*%
%ADD42C,0.6000*%
%ADD43R,0.2000X0.8500*%
%ADD44R,4.7000X4.7000*%
%ADD45R,0.8500X0.2000*%
%ADD46R,0.5400X0.2200*%
%ADD47R,0.5300X0.2200*%
%ADD48R,0.8000X0.3500*%
%ADD49R,2.6000X0.6000*%
%ADD50R,0.3548X0.6842*%
%ADD51O,1.2000X1.7000*%
%ADD52R,0.8000X1.8000*%
G36*
X423248Y333757D02*
X422521Y332282D01*
X421521Y332286D01*
X420798Y333765D01*
X423248Y333757D01*
D02*
G37*
G36*
X400732Y332500D02*
X399175Y331968D01*
X398468Y332675D01*
X399000Y334232D01*
X400732Y332500D01*
D02*
G37*
G36*
X406265Y331534D02*
X405266D01*
X404540Y333011D01*
X406991D01*
X406265Y331534D01*
D02*
G37*
G36*
X435435Y332521D02*
X434633Y331205D01*
X433633Y331430D01*
X433040Y333035D01*
X435435Y332521D01*
D02*
G37*
G36*
X696381Y333000D02*
Y331500D01*
X695000Y331025D01*
Y333475D01*
X696381Y333000D01*
D02*
G37*
G36*
X451250Y330775D02*
X449869Y331250D01*
Y332750D01*
X451250Y333225D01*
Y330775D01*
D02*
G37*
G36*
X698811Y330750D02*
X697280Y331500D01*
Y333000D01*
X698811Y333750D01*
Y330750D01*
D02*
G37*
G36*
X431284Y330588D02*
X430500Y329218D01*
X430487Y329220D01*
X430485Y329080D01*
X429000Y329050D01*
X429342Y329755D01*
X428859Y330938D01*
X431284Y330588D01*
D02*
G37*
G36*
X442485Y329080D02*
X440546D01*
X441016Y330080D01*
X442015D01*
X442485Y329080D01*
D02*
G37*
G36*
X426485D02*
X424546D01*
X425015Y330080D01*
X426016D01*
X426485Y329080D01*
D02*
G37*
G36*
X446485D02*
X444580Y329050D01*
X445015Y330266D01*
X446516D01*
X446485Y329080D01*
D02*
G37*
G36*
X434485D02*
X433133Y329050D01*
X433633Y330080D01*
X434633D01*
X434485Y329080D01*
D02*
G37*
G36*
X422485D02*
X421021Y329050D01*
X421521Y330080D01*
X422521D01*
X422485Y329080D01*
D02*
G37*
G36*
X439249Y330063D02*
X438457Y328712D01*
X437457Y328890D01*
X437391Y329058D01*
X436957Y329050D01*
X437198Y329547D01*
X436833Y330473D01*
X439249Y330063D01*
D02*
G37*
G36*
X459192Y329230D02*
X458455Y327816D01*
X456921Y329050D01*
X458689Y330141D01*
X459192Y329230D01*
D02*
G37*
G36*
X475354Y327028D02*
X473232Y326706D01*
X473738Y328125D01*
X474738Y328150D01*
X475354Y327028D01*
D02*
G37*
G36*
X556532Y327175D02*
X555825Y326468D01*
X554268Y327000D01*
X556000Y328732D01*
X556532Y327175D01*
D02*
G37*
G36*
X464576Y323361D02*
X463520Y323879D01*
X462485Y323361D01*
Y326361D01*
X463520Y325843D01*
X464576Y326361D01*
Y323361D01*
D02*
G37*
G36*
X692462Y327877D02*
X693000Y327975D01*
Y325525D01*
X692462Y325623D01*
X690689Y324750D01*
Y328750D01*
X692462Y327877D01*
D02*
G37*
G36*
X402735Y326011D02*
Y325011D01*
X401705Y324511D01*
Y326511D01*
X402735Y326011D01*
D02*
G37*
G36*
X482266Y324286D02*
X480788Y325011D01*
Y326011D01*
X482266Y326736D01*
Y324286D01*
D02*
G37*
G36*
X406265Y325511D02*
X405266Y324011D01*
X404266Y325011D01*
Y326011D01*
X405266Y327011D01*
X406265Y325511D01*
D02*
G37*
G36*
X467484Y325861D02*
X468150Y326184D01*
X469060Y323909D01*
X467833Y324035D01*
X466485Y323361D01*
Y326361D01*
X467484Y325861D01*
D02*
G37*
G36*
X714250Y322525D02*
X712773Y323250D01*
Y324250D01*
X714250Y324975D01*
Y322525D01*
D02*
G37*
G36*
X726604Y322268D02*
X725897Y321561D01*
X725131Y322042D01*
X726293Y322924D01*
X726604Y322268D01*
D02*
G37*
G36*
X722333Y322278D02*
X721672Y321525D01*
X720126Y322005D01*
X721748Y323841D01*
X722333Y322278D01*
D02*
G37*
G36*
X390525Y321061D02*
X391265Y319550D01*
X388265D01*
X389006Y321061D01*
X388265Y322572D01*
X391265D01*
X390525Y321061D01*
D02*
G37*
G36*
X451516Y318800D02*
X447515D01*
X448516Y320830D01*
X450516D01*
X451516Y318800D01*
D02*
G37*
G36*
X414945Y319272D02*
X415415Y318330D01*
X412416D01*
X412886Y319272D01*
X412691Y319841D01*
X415140D01*
X414945Y319272D01*
D02*
G37*
G36*
X539733Y318500D02*
X538175Y317968D01*
X537468Y318675D01*
X538000Y320233D01*
X539733Y318500D01*
D02*
G37*
G36*
X478235Y317861D02*
Y316861D01*
X477235Y316391D01*
Y318330D01*
X478235Y317861D01*
D02*
G37*
G36*
X397796Y315611D02*
X396796Y316111D01*
Y317111D01*
X397796Y317611D01*
Y315611D01*
D02*
G37*
G36*
X543732Y315750D02*
X542175Y315218D01*
X541468Y315925D01*
X542000Y317482D01*
X543732Y315750D01*
D02*
G37*
G36*
X551532Y315425D02*
X550825Y314718D01*
X549268Y315250D01*
X551000Y316982D01*
X551532Y315425D01*
D02*
G37*
G36*
X402442Y313641D02*
X401735Y312934D01*
X400321Y313672D01*
X401704Y315056D01*
X402442Y313641D01*
D02*
G37*
G36*
X392796D02*
X391735Y312581D01*
X389614Y313672D01*
X391704Y315763D01*
X392796Y313641D01*
D02*
G37*
G36*
X478235Y313861D02*
Y312861D01*
X477235Y312391D01*
Y314330D01*
X478235Y313861D01*
D02*
G37*
G36*
X409796Y312391D02*
X408796Y312861D01*
Y313861D01*
X409796Y314330D01*
Y312391D01*
D02*
G37*
G36*
X722970Y313250D02*
Y312250D01*
X721939Y311750D01*
Y313750D01*
X722970Y313250D01*
D02*
G37*
G36*
X714031Y311031D02*
X713030Y311000D01*
Y312000D01*
X714061Y312500D01*
X714031Y311031D01*
D02*
G37*
G36*
X676727Y312000D02*
Y311000D01*
X675250Y310275D01*
Y312725D01*
X676727Y312000D01*
D02*
G37*
G36*
X478235Y309761D02*
Y308761D01*
X477235Y308391D01*
X477205Y310261D01*
X478235Y309761D01*
D02*
G37*
G36*
X409796Y308391D02*
X408796Y308761D01*
Y309761D01*
X409827Y310261D01*
X409796Y308391D01*
D02*
G37*
G36*
X399046Y305261D02*
X398096Y305736D01*
X397515Y305536D01*
Y307986D01*
X398096Y307786D01*
X399046Y308261D01*
Y305261D01*
D02*
G37*
G36*
X397153Y308269D02*
X394819Y307746D01*
X395133Y309145D01*
X396633Y309494D01*
X397153Y308269D01*
D02*
G37*
G36*
X722970Y308250D02*
Y307250D01*
X721939Y306750D01*
Y308750D01*
X722970Y308250D01*
D02*
G37*
G36*
X714031Y306031D02*
X713030Y306000D01*
Y307000D01*
X714061Y307500D01*
X714031Y306031D01*
D02*
G37*
G36*
X408019Y305714D02*
X407312Y305007D01*
X405959Y305522D01*
X407505Y307068D01*
X408019Y305714D01*
D02*
G37*
G36*
X478235Y306011D02*
Y305011D01*
X477205Y304511D01*
X477235Y306330D01*
X478235Y306011D01*
D02*
G37*
G36*
X409796Y304391D02*
X408796Y304861D01*
Y305861D01*
X409796Y306330D01*
Y304391D01*
D02*
G37*
G36*
X420076Y299861D02*
X418819Y300477D01*
X418235Y300391D01*
Y302330D01*
X418819Y302245D01*
X420076Y302861D01*
Y299861D01*
D02*
G37*
G36*
X714061Y301750D02*
X713030Y302250D01*
Y303250D01*
X714061Y303750D01*
Y301750D01*
D02*
G37*
G36*
X392706Y302544D02*
X393716Y300500D01*
X388415D01*
X389391Y302474D01*
X389046Y303791D01*
X392985D01*
X392706Y302544D01*
D02*
G37*
G36*
X478235Y301861D02*
Y300861D01*
X477235Y300391D01*
Y302330D01*
X478235Y301861D01*
D02*
G37*
G36*
X610977Y301500D02*
Y300500D01*
X609500Y299775D01*
Y302225D01*
X610977Y301500D01*
D02*
G37*
G36*
X593483Y300250D02*
X592449Y299535D01*
X591035Y300949D01*
X591750Y301982D01*
X593483Y300250D01*
D02*
G37*
G36*
X265984Y299930D02*
X264569Y298516D01*
X261741Y299930D01*
X264569Y302070D01*
X265984Y299930D01*
D02*
G37*
G36*
X284632Y298692D02*
X285480Y299070D01*
X285511Y297125D01*
X284579Y297577D01*
X283159Y296939D01*
X283334Y299383D01*
X284632Y298692D01*
D02*
G37*
G36*
X268750Y297025D02*
X267514Y297250D01*
Y299250D01*
X268750Y299475D01*
Y297025D01*
D02*
G37*
G36*
X714061Y296750D02*
X713030Y297250D01*
Y298250D01*
X714061Y298750D01*
Y296750D01*
D02*
G37*
G36*
X478235Y297805D02*
Y296805D01*
X477235Y296391D01*
X477205Y298305D01*
X478235Y297805D01*
D02*
G37*
G36*
X483462Y296065D02*
X482007Y296805D01*
X482040Y297805D01*
X483540Y298514D01*
X483462Y296065D01*
D02*
G37*
G36*
X487477Y297750D02*
Y296750D01*
X486000Y296025D01*
Y298475D01*
X487477Y297750D01*
D02*
G37*
G36*
X406436Y298686D02*
Y296035D01*
X403785Y294710D01*
Y300012D01*
X406436Y298686D01*
D02*
G37*
G36*
X388276Y294660D02*
X385595Y295986D01*
Y298636D01*
X388276Y299962D01*
Y294660D01*
D02*
G37*
G36*
X265569Y295500D02*
Y294500D01*
X264569Y294000D01*
Y296000D01*
X265569Y295500D01*
D02*
G37*
G36*
X275500Y293775D02*
X274023Y294500D01*
X274023Y295500D01*
X275500Y296225D01*
X275500Y293775D01*
D02*
G37*
G36*
X602215Y294551D02*
X601500Y293517D01*
X599767Y295250D01*
X600801Y295965D01*
X602215Y294551D01*
D02*
G37*
G36*
X478235Y293861D02*
Y292861D01*
X477235Y292391D01*
Y294330D01*
X478235Y293861D01*
D02*
G37*
G36*
X409796Y292391D02*
X408796Y292861D01*
Y293861D01*
X409796Y294330D01*
Y292391D01*
D02*
G37*
G36*
X714061Y292000D02*
X713030Y292500D01*
Y293500D01*
X714061Y294000D01*
Y292000D01*
D02*
G37*
G36*
X285511Y291000D02*
X284480Y291500D01*
Y292500D01*
X285511Y293000D01*
Y291000D01*
D02*
G37*
G36*
X478235Y289861D02*
Y288861D01*
X477235Y288391D01*
Y290330D01*
X478235Y289861D01*
D02*
G37*
G36*
X409796Y288391D02*
X408796Y288861D01*
Y289861D01*
X409796Y290330D01*
Y288391D01*
D02*
G37*
G36*
X483852Y288179D02*
X482321Y288861D01*
X482238Y289861D01*
X483657Y290622D01*
X483852Y288179D01*
D02*
G37*
G36*
X714061Y286750D02*
X713030Y287250D01*
Y288250D01*
X714061Y288750D01*
Y286750D01*
D02*
G37*
G36*
X282360Y287575D02*
X281828Y286017D01*
X280096Y287750D01*
X281653Y288282D01*
X282360Y287575D01*
D02*
G37*
G36*
X679485Y286596D02*
X678187Y285065D01*
X677135Y285755D01*
X678747Y287600D01*
X679485Y286596D01*
D02*
G37*
G36*
X676944Y285751D02*
X675903Y285044D01*
X674527Y286496D01*
X675250Y287521D01*
X676944Y285751D01*
D02*
G37*
G36*
X291719Y286500D02*
Y285500D01*
X290720Y285000D01*
Y287000D01*
X291719Y286500D01*
D02*
G37*
G36*
X285511Y285000D02*
X284480Y285500D01*
Y286500D01*
X285511Y287000D01*
Y285000D01*
D02*
G37*
G36*
X478235Y285861D02*
Y284861D01*
X477235Y284391D01*
Y286330D01*
X478235Y285861D01*
D02*
G37*
G36*
X409796Y284391D02*
X408796Y284861D01*
Y285861D01*
X409796Y286330D01*
Y284391D01*
D02*
G37*
G36*
X705250Y282025D02*
X703773Y282750D01*
Y283750D01*
X705250Y284475D01*
Y282025D01*
D02*
G37*
G36*
X265569Y283500D02*
Y282500D01*
X264569Y282000D01*
Y284000D01*
X265569Y283500D01*
D02*
G37*
G36*
X547176Y283469D02*
X546467Y281914D01*
X545121Y283960D01*
X546622Y284329D01*
X547176Y283469D01*
D02*
G37*
G36*
X683493Y281087D02*
X680006D01*
X680750Y282917D01*
X682750D01*
X683493Y281087D01*
D02*
G37*
G36*
X723969Y283750D02*
Y281750D01*
X721970Y281031D01*
Y284470D01*
X723969Y283750D01*
D02*
G37*
G36*
X478735Y282180D02*
Y280680D01*
X477235Y280391D01*
Y282330D01*
X478735Y282180D01*
D02*
G37*
G36*
X483800Y280226D02*
X482404Y280680D01*
X482338Y282180D01*
X483703Y282674D01*
X483800Y280226D01*
D02*
G37*
G36*
X692006Y275196D02*
X690742Y275828D01*
X689463Y275196D01*
Y280196D01*
X690742Y279564D01*
X692006Y280196D01*
Y275196D01*
D02*
G37*
G36*
X291719Y280500D02*
Y279500D01*
X290720Y279000D01*
Y281000D01*
X291719Y280500D01*
D02*
G37*
G36*
X566787Y278986D02*
X566913Y277782D01*
X564497Y278184D01*
X564787Y279398D01*
X566787Y278986D01*
D02*
G37*
G36*
X281032Y279075D02*
X280500Y277518D01*
X278768Y279250D01*
X280325Y279782D01*
X281032Y279075D01*
D02*
G37*
G36*
X614110Y278648D02*
X612639Y277291D01*
X610289Y278239D01*
X613228Y280932D01*
X614110Y278648D01*
D02*
G37*
G36*
X409796Y276391D02*
X409002Y276502D01*
Y277502D01*
X409827Y277796D01*
X409796Y276391D01*
D02*
G37*
G36*
X675750Y276025D02*
X674273Y276750D01*
Y277750D01*
X675750Y278475D01*
Y276025D01*
D02*
G37*
G36*
X265569Y277500D02*
Y276500D01*
X264569Y276000D01*
Y278000D01*
X265569Y277500D01*
D02*
G37*
G36*
X549947Y275526D02*
X548431Y275128D01*
X547846Y275957D01*
X548521Y277518D01*
X549947Y275526D01*
D02*
G37*
G36*
X694500Y272521D02*
X692000D01*
X692006Y274305D01*
X695035Y274336D01*
X694500Y272521D01*
D02*
G37*
G36*
X740725Y272500D02*
X738275D01*
X738500Y273736D01*
X740500D01*
X740725Y272500D01*
D02*
G37*
G36*
X618696Y274473D02*
X617271Y272480D01*
X616509Y273421D01*
X617632Y275127D01*
X618696Y274473D01*
D02*
G37*
G36*
X288600Y271931D02*
X287600D01*
X287100Y272961D01*
X289100D01*
X288600Y271931D01*
D02*
G37*
G36*
X477942Y272391D02*
X477235Y271684D01*
X475821Y272422D01*
X477205Y273806D01*
X477942Y272391D01*
D02*
G37*
G36*
X621486Y273750D02*
Y271750D01*
X620250Y271525D01*
Y273975D01*
X621486Y273750D01*
D02*
G37*
G36*
X414266Y271391D02*
X413265D01*
X412766Y272422D01*
X414766D01*
X414266Y271391D01*
D02*
G37*
G36*
X724470Y272000D02*
X721970Y271031D01*
Y274470D01*
X724470Y274500D01*
Y272000D01*
D02*
G37*
G36*
X266569Y272000D02*
Y270000D01*
X264569Y269930D01*
Y272070D01*
X266569Y272000D01*
D02*
G37*
G36*
X695076Y268610D02*
X692006Y268640D01*
X692000Y270466D01*
X694500D01*
X695076Y268610D01*
D02*
G37*
G36*
X541975Y268250D02*
X539525D01*
X540250Y269727D01*
X541250D01*
X541975Y268250D01*
D02*
G37*
G36*
X536975D02*
X534525D01*
X535250Y269727D01*
X536250D01*
X536975Y268250D01*
D02*
G37*
G36*
X677945Y267973D02*
X676363Y268130D01*
X676673Y268923D01*
X677673D01*
X677945Y267973D01*
D02*
G37*
G36*
X666318Y269207D02*
Y267793D01*
X665404Y267293D01*
X663697Y268000D01*
Y269000D01*
X665404Y269707D01*
X666318Y269207D01*
D02*
G37*
G36*
X687421Y268640D02*
X686006Y267226D01*
X685299Y268640D01*
X686006Y269348D01*
X687421Y268640D01*
D02*
G37*
G36*
X621381Y269000D02*
X621532Y268000D01*
X620162Y267216D01*
X619812Y269641D01*
X621381Y269000D01*
D02*
G37*
G36*
X418016Y267025D02*
X416016D01*
X415790Y268261D01*
X418241D01*
X418016Y267025D01*
D02*
G37*
G36*
X476282Y266925D02*
X475575Y266218D01*
X474017Y266750D01*
X475750Y268482D01*
X476282Y266925D01*
D02*
G37*
G36*
X714250Y264775D02*
X712773Y265500D01*
Y266500D01*
X714250Y267225D01*
Y264775D01*
D02*
G37*
G36*
X467485Y266000D02*
Y265000D01*
X466485Y264500D01*
Y266500D01*
X467485Y266000D01*
D02*
G37*
G36*
X469250Y264275D02*
X467773Y265000D01*
Y266000D01*
X469250Y266725D01*
Y264275D01*
D02*
G37*
G36*
X602170Y263259D02*
X600026Y264250D01*
X600002Y266250D01*
X602032Y267250D01*
X602170Y263259D01*
D02*
G37*
G36*
X680006Y261859D02*
X679542Y261845D01*
X679548Y261829D01*
X678335Y261007D01*
X677524Y263319D01*
X679070Y262861D01*
X680006Y263329D01*
Y261859D01*
D02*
G37*
G36*
X481475Y262250D02*
X479025D01*
X479750Y263727D01*
X480750D01*
X481475Y262250D01*
D02*
G37*
G36*
X578038Y262075D02*
X582299Y262656D01*
X582587Y258052D01*
X578169Y257314D01*
X577362Y261368D01*
X576199Y261049D01*
X575831Y257314D01*
X571509Y257786D01*
X571559Y262404D01*
X575042Y262012D01*
X575142Y262605D01*
X575025Y263250D01*
X575281D01*
X577250Y263966D01*
X578038Y262075D01*
D02*
G37*
G36*
X271603Y261609D02*
X269163Y261380D01*
X269336Y262607D01*
X271336Y262837D01*
X271603Y261609D01*
D02*
G37*
G36*
X700000Y260859D02*
X699000D01*
X698500Y261890D01*
X700500D01*
X700000Y260859D01*
D02*
G37*
G36*
X463192Y261515D02*
X462712Y260581D01*
X460945Y261672D01*
X462454Y262929D01*
X463192Y261515D01*
D02*
G37*
G36*
X459192D02*
X458712Y260581D01*
X456945Y261672D01*
X458455Y262929D01*
X459192Y261515D01*
D02*
G37*
G36*
X450246Y261133D02*
X450741Y260126D01*
X448290D01*
X448785Y261133D01*
X448546Y261641D01*
X450485D01*
X450246Y261133D01*
D02*
G37*
G36*
X470500Y259775D02*
X469023Y260500D01*
Y261500D01*
X470500Y262225D01*
Y259775D01*
D02*
G37*
G36*
X445127Y261641D02*
X446485D01*
X446154Y260936D01*
X446547Y259724D01*
X444199Y260424D01*
X444733Y261243D01*
X444546Y261641D01*
X444993D01*
X445015Y261676D01*
X445127Y261641D01*
D02*
G37*
G36*
X454038D02*
X454485D01*
X454298Y261243D01*
X454832Y260424D01*
X452485Y259724D01*
X452877Y260936D01*
X452546Y261641D01*
X453904D01*
X454016Y261676D01*
X454038Y261641D01*
D02*
G37*
G36*
X595227Y260250D02*
Y259250D01*
X593750Y258525D01*
Y260975D01*
X595227Y260250D01*
D02*
G37*
G36*
X272132Y260114D02*
X272250Y260233D01*
X272848Y259368D01*
X274119Y258045D01*
X272705Y256631D01*
X271382Y257902D01*
X270518Y258500D01*
X270636Y258619D01*
X270499Y258750D01*
X272000Y260251D01*
X272132Y260114D01*
D02*
G37*
G36*
X559250Y256525D02*
X557773Y257250D01*
X557773Y258250D01*
X559250Y258975D01*
X559250Y256525D01*
D02*
G37*
G36*
G01X577000Y257000D02*
G03X579500Y259500I0J2500D01*
G03X577000Y262000I-2500J0D01*
G03X574500Y259500I0J-2500D01*
G03X577000Y257000I2500J0D01*
D02*
G37*
G36*
G01X576250Y272750D02*
G03X578750Y275250I0J2500D01*
G03X576250Y277750I-2500J0D01*
G03X573750Y275250I0J-2500D01*
G03X576250Y272750I2500J0D01*
D02*
G37*
D10*
X704000Y269500D02*
X710250D01*
X700274Y273226D02*
X704000Y269500D01*
X693250Y265250D02*
Y270466D01*
X693191Y271025D02*
Y271309D01*
X693000Y271500D02*
Y271771D01*
X693250Y272521D02*
Y277500D01*
X693000Y271500D02*
X693191Y271309D01*
X269843Y291750D02*
X270000D01*
X267093Y289000D02*
X269843Y291750D01*
X261900Y289000D02*
X267093D01*
X700274Y273226D02*
Y277172D01*
X710500Y274182D02*
X713568Y277250D01*
X710500Y269750D02*
Y274182D01*
X699750Y277696D02*
X700274Y277172D01*
X713568Y277250D02*
X717500D01*
X687750Y277696D02*
X693446D01*
X693500Y277750D01*
X717500Y277250D02*
X718000Y277750D01*
X718500Y273250D02*
X727750D01*
X731500Y277000D01*
X718000Y272750D02*
X718500Y273250D01*
D13*
X270500Y260250D02*
Y260385D01*
D14*
X599750Y293500D02*
X599750D01*
X603000Y296750D01*
X613000D01*
X616000Y293750D01*
Y287500D02*
Y293750D01*
Y280197D02*
Y287500D01*
Y280197D02*
X616586Y279461D01*
X589670Y297427D02*
Y298170D01*
Y296513D02*
Y297427D01*
X600000Y265250D02*
X608000D01*
X576250Y259250D02*
Y259501D01*
Y264500D01*
X417015Y257234D02*
Y269511D01*
X273750Y257000D02*
X417250D01*
X427639D01*
X429515Y258876D02*
Y265861D01*
X427639Y257000D02*
X429515Y258876D01*
X270500Y260250D02*
X273750Y257000D01*
X268750Y265386D02*
Y269550D01*
Y265386D02*
X270336Y263800D01*
Y260549D02*
Y263800D01*
Y260549D02*
X270500Y260385D01*
X261900Y271000D02*
X267300D01*
X268750Y269550D01*
X261900Y301000D02*
X262000Y300900D01*
X263600D01*
X266250Y298250D01*
X270000D01*
X449266Y316011D02*
X449515Y316261D01*
Y324861D01*
X687000Y327000D02*
X687250Y326750D01*
X694250D01*
X672213Y281963D02*
X676713D01*
X663000Y272750D02*
X672213Y281963D01*
X670713Y284963D02*
X674408D01*
X676945Y287500D02*
X677167D01*
X676713Y281963D02*
X677000Y282250D01*
X674408Y284963D02*
X676945Y287500D01*
X662250Y276500D02*
X670713Y284963D01*
X616586Y279461D02*
X619546Y276500D01*
X662250D01*
X619000Y272750D02*
X663000D01*
X608000Y283344D02*
X618594Y272750D01*
X608000Y283344D02*
Y285000D01*
X565787Y277037D02*
Y280953D01*
X566959Y282125D02*
X570375D01*
X565787Y280953D02*
X566959Y282125D01*
X565500Y276750D02*
X565787Y277037D01*
X570375Y282125D02*
X570500Y282000D01*
X589670Y298170D02*
X593500Y302000D01*
X589670Y296513D02*
X594000Y292183D01*
X576000Y259000D02*
X576250Y259250D01*
X595500Y269750D02*
X600000Y265250D01*
X708037Y309287D02*
Y311380D01*
X713657Y317000D01*
X717250D01*
X707750Y309000D02*
X708037Y309287D01*
X717250Y317000D02*
X718000Y317750D01*
X681750Y277696D02*
Y282917D01*
X677167Y287500D02*
X681750Y282917D01*
X739500Y271250D02*
X739750Y271000D01*
X739500Y271250D02*
Y278500D01*
X735250Y282750D02*
X739500Y278500D01*
X718000Y282750D02*
X735250D01*
D16*
X537750Y274000D02*
X540750Y271000D01*
X537750Y274000D02*
Y276169D01*
X535500Y278419D02*
X537750Y276169D01*
X539827Y275499D02*
Y276920D01*
Y275499D02*
X543825Y271500D01*
X541827Y276327D02*
X544154Y274000D01*
X541827Y276327D02*
Y277749D01*
X539500Y280075D02*
X541827Y277749D01*
X537500Y279247D02*
X539827Y276920D01*
X533500Y277590D02*
X535750Y275340D01*
Y267000D02*
Y275340D01*
X543825Y271500D02*
X547000D01*
X541500Y280904D02*
Y282564D01*
X539500Y280075D02*
Y281735D01*
X537500Y280907D02*
Y285253D01*
X544154Y274000D02*
X546596D01*
X539500Y281735D02*
Y284425D01*
X533500Y277590D02*
Y284000D01*
X537500Y279247D02*
Y280907D01*
X535500Y278419D02*
Y280078D01*
X541500Y280904D02*
X544904Y277500D01*
X535500Y280078D02*
Y286082D01*
X541500Y282564D02*
Y283596D01*
X540750Y267000D02*
Y271000D01*
X473016Y285361D02*
X532139D01*
X533500Y284000D01*
X536750Y287332D02*
Y291422D01*
X541500Y283596D02*
X546250Y288346D01*
X535500Y286082D02*
X536750Y287332D01*
X537500Y285253D02*
X539249Y287001D01*
X539500Y284425D02*
X544250Y289175D01*
X535250Y297250D02*
X539249Y293251D01*
X484750Y297250D02*
X535250D01*
X539249Y287001D02*
Y293251D01*
X473016Y301361D02*
X541389D01*
X544250Y298500D01*
Y289175D02*
Y298500D01*
X473166Y305511D02*
X541818D01*
X546250Y301078D01*
X473016Y305361D02*
X473166Y305511D01*
X534811Y293361D02*
X536750Y291422D01*
X473016Y293361D02*
X534811D01*
X548250Y285250D02*
Y301907D01*
X546250Y288346D02*
Y301078D01*
X544904Y277500D02*
X545250D01*
X549846Y277250D02*
X550250D01*
X546596Y274000D02*
X549846Y277250D01*
X544750Y281750D02*
X548250Y285250D01*
X540896Y309261D02*
X548250Y301907D01*
X554654Y257750D02*
X560000D01*
X560250Y258000D01*
X549750Y262654D02*
X554654Y257750D01*
X592500Y259750D02*
X601500D01*
X604750Y256500D01*
X698500D01*
X557250Y325750D02*
X596021D01*
X554250Y316750D02*
X602192D01*
X608250Y301000D02*
X612285D01*
X622536Y290750D01*
X602192Y316750D02*
X623692Y295250D01*
X596021Y325750D02*
X624521Y297250D01*
X557404Y306750D02*
X609364D01*
X622864Y293250D01*
X623692Y295250D02*
X676753D01*
X622864Y293250D02*
X677581D01*
X445500Y336500D02*
X588099D01*
X625349Y299250D02*
X675096D01*
X588099Y336500D02*
X625349Y299250D01*
X624521Y297250D02*
X675925D01*
X622536Y290750D02*
X677910D01*
X698500Y256500D02*
X708000Y266000D01*
X547000Y271500D02*
X549750Y268750D01*
Y262654D02*
Y268750D01*
X673654Y277250D02*
X677000D01*
X664904Y268500D02*
X674904Y258500D01*
X664904Y268500D02*
X673654Y277250D01*
X677173Y266673D02*
Y268923D01*
X678750Y270500D01*
X684147D01*
X677000Y266500D02*
X677173Y266673D01*
X676750Y261750D02*
X677427D01*
X678006Y262329D01*
X680476D01*
X697672Y258500D02*
X699500Y260328D01*
X674904Y258500D02*
X697672D01*
X680476Y262329D02*
X681750Y263603D01*
Y265250D01*
X553000Y311154D02*
X557404Y306750D01*
X549500Y321500D02*
X554250Y316750D01*
X549250Y317000D02*
X553000Y313250D01*
Y311154D02*
Y313250D01*
X554250Y328750D02*
X557250Y325750D01*
X675925Y297250D02*
X680675Y302000D01*
X677581Y293250D02*
X682331Y298000D01*
X676753Y295250D02*
X681503Y300000D01*
X675096Y299250D02*
X679846Y304000D01*
X679439Y309250D02*
X692567D01*
X696067Y305750D01*
X677310Y307120D02*
X679439Y309250D01*
X682331Y298000D02*
X689675D01*
X674120Y307120D02*
X677310D01*
X691331Y302000D02*
X701081Y292250D01*
X683160Y296000D02*
X688846D01*
X680675Y302000D02*
X691331D01*
X690503Y300000D02*
X700253Y290250D01*
X676717Y305121D02*
X678138D01*
X679846Y304000D02*
X692160D01*
X688846Y296000D02*
X701596Y283250D01*
X689675Y298000D02*
X699925Y287750D01*
X678138Y305121D02*
X679018Y306000D01*
X678203Y291043D02*
X683160Y296000D01*
X679018Y306000D02*
X692988D01*
X692160Y304000D02*
X694410Y301750D01*
X681503Y300000D02*
X690503D01*
X692988Y306000D02*
X695238Y303750D01*
X674096Y302500D02*
X676717Y305121D01*
X674000Y307000D02*
X674120Y307120D01*
X708000Y266000D02*
X715500D01*
X699500Y260328D02*
Y266250D01*
X441516Y332515D02*
X442750Y333750D01*
Y333750D02*
X445500Y336500D01*
X473116Y309261D02*
X540896D01*
X474000Y268500D02*
X476265Y266234D01*
Y260765D02*
Y266234D01*
X480250Y261000D02*
Y269376D01*
X476265Y273361D02*
X480250Y269376D01*
X465765Y265750D02*
Y266750D01*
X466016Y265500D02*
X470500D01*
X473016Y289361D02*
X484861D01*
X485000Y289500D01*
X473071Y297305D02*
X484695D01*
X473016Y297361D02*
X473071Y297305D01*
X484695D02*
X484750Y297250D01*
X465765Y265750D02*
X466016Y265500D01*
X467137Y260111D02*
X468026Y261000D01*
X458016Y261985D02*
X462250Y257750D01*
X473250D02*
X476265Y260765D01*
X462250Y257750D02*
X473250D01*
X468026Y261000D02*
X471750D01*
X463889Y260111D02*
X467137D01*
X539500Y320000D02*
X540250D01*
X473016Y317361D02*
X536861D01*
X539500Y320000D01*
X539611Y313361D02*
X543500Y317250D01*
X543750D01*
X473016Y313361D02*
X539611D01*
X471638Y330750D02*
X474238Y328150D01*
Y325762D02*
X474500Y325500D01*
X474238Y325762D02*
Y328150D01*
X433633Y333883D02*
X433750Y334000D01*
X458016Y328761D02*
X460005Y330750D01*
X472466Y332750D02*
X479705Y325511D01*
X460005Y330750D02*
X471638D01*
X458005Y332750D02*
X472466D01*
X454016Y328761D02*
X458005Y332750D01*
X441516Y324861D02*
Y332515D01*
X425500Y328595D02*
X425516Y328611D01*
Y333254D01*
X426595Y334334D02*
Y335011D01*
X425500Y324876D02*
Y328595D01*
X425516Y333254D02*
X426595Y334334D01*
X437957Y325303D02*
Y331207D01*
X437515Y324861D02*
X437957Y325303D01*
Y331207D02*
X438250Y331500D01*
X421271Y325105D02*
X421516Y324861D01*
X422021Y325105D02*
Y334767D01*
X405765Y316011D02*
Y325511D01*
Y316011D02*
X408415Y313361D01*
X399766Y325511D02*
X405765D01*
Y334261D01*
X402769Y312607D02*
X405015D01*
X399766Y315611D02*
Y316611D01*
Y315611D02*
X402769Y312607D01*
X395766Y316611D02*
X399766D01*
X405015Y312607D02*
X408362Y309261D01*
X394766Y317611D02*
X395766Y316611D01*
X394766Y317611D02*
Y328265D01*
X400750Y334250D01*
X411281Y259500D02*
X413765Y261985D01*
X278172Y259500D02*
X411281D01*
X413765Y261985D02*
Y273111D01*
X404255Y267522D02*
Y270755D01*
X402255Y268350D02*
Y286866D01*
X403061Y263500D02*
X406255Y266693D01*
Y283950D01*
X300828Y267500D02*
X401405D01*
X402255Y268350D01*
X399000Y265500D02*
X402233D01*
X404255Y267522D01*
X299172Y263500D02*
X403061D01*
X409002Y277003D02*
X415257D01*
X404750Y261500D02*
X408255Y265005D01*
X407665Y285361D02*
X414016D01*
X404255Y286037D02*
X407578Y289361D01*
X408255Y265005D02*
Y276255D01*
X402255Y286866D02*
X408750Y293361D01*
X406255Y283950D02*
X407665Y285361D01*
X404255Y270755D02*
Y286037D01*
X408255Y276255D02*
X409002Y277003D01*
X408750Y293361D02*
X414016D01*
X407578Y289361D02*
X413915D01*
X293750Y269500D02*
X296750Y266500D01*
X300000Y265500D02*
X399000D01*
X299000Y266500D02*
X300000Y265500D01*
X296750Y266500D02*
X299000D01*
X290500Y264500D02*
X298172D01*
X299172Y263500D01*
X291500Y261500D02*
X404750D01*
X295750Y272578D02*
X300828Y267500D01*
X280000Y262500D02*
X290500D01*
X271250Y266422D02*
X278172Y259500D01*
X290500Y262500D02*
X291500Y261500D01*
X288100Y266900D02*
X290500Y264500D01*
X288100Y266900D02*
Y274000D01*
X273250Y267250D02*
Y275328D01*
X277750Y262750D02*
X279750D01*
X280000Y262500D01*
X273250Y267250D02*
X277750Y262750D01*
X413765Y273111D02*
X414016Y273361D01*
X430000Y324876D02*
Y331750D01*
X429500Y324876D02*
X429515Y324861D01*
X433516D02*
X433633Y324978D01*
X434133D02*
Y333883D01*
X711578Y293000D02*
X718500D01*
X479705Y325511D02*
X483516D01*
X271250Y266422D02*
Y274500D01*
X261900Y277000D02*
X268750D01*
X265578Y283000D02*
X273250Y275328D01*
X261900Y283000D02*
X265578D01*
X268750Y277000D02*
X271250Y274500D01*
X293750Y269500D02*
Y278750D01*
X457515Y265861D02*
X458016Y265361D01*
Y261985D02*
Y265361D01*
X462015Y261985D02*
Y265361D01*
X461516Y265861D02*
X462015Y265361D01*
Y261985D02*
X463889Y260111D01*
X445016Y258876D02*
X445516Y259376D01*
X449515Y258876D02*
Y265861D01*
Y257876D02*
Y258876D01*
X449500Y257861D02*
X449515Y257876D01*
X453516Y259376D02*
X454016Y258876D01*
X445516Y259376D02*
Y265861D01*
X453516Y259376D02*
Y265861D01*
X261900Y295000D02*
X276750D01*
X282125Y298125D02*
X288875D01*
X288100Y286000D02*
X293500D01*
X284011D02*
X288100D01*
X282153Y290403D02*
X283750Y292000D01*
X282153Y288075D02*
Y290403D01*
X283329Y282079D02*
Y285318D01*
X280079Y286000D02*
X282153Y288075D01*
X278750Y277500D02*
X283329Y282079D01*
Y285318D02*
X284011Y286000D01*
X283750Y292000D02*
X288250D01*
X687147Y267500D02*
X687500D01*
X684147Y270500D02*
X687147Y267500D01*
X276750Y295000D02*
X276750Y295000D01*
X288875Y298125D02*
X289000Y298000D01*
X282000Y298250D02*
X282125Y298125D01*
X295750Y272578D02*
Y283750D01*
X293500Y286000D02*
X295750Y283750D01*
X292500Y280000D02*
X293750Y278750D01*
X288100Y280000D02*
X292500D01*
X677910Y290750D02*
X678203Y291043D01*
X473016Y273361D02*
X476265D01*
X704621Y311500D02*
X709250Y316129D01*
X674000Y311500D02*
X704621D01*
X618750Y268250D02*
X619000Y268500D01*
X664904D01*
X699925Y287750D02*
X718000D01*
X695238Y303750D02*
X709925D01*
X696067Y305750D02*
X709096D01*
X700253Y290250D02*
X708828D01*
X701596Y283250D02*
X706500D01*
X701081Y292250D02*
X707250D01*
X694410Y301750D02*
X711376D01*
X709925Y303750D02*
X712675Y306500D01*
X711000Y307654D02*
Y310500D01*
X711376Y301750D02*
X712376Y302750D01*
X673750Y302500D02*
X674096D01*
X709096Y305750D02*
X711000Y307654D01*
X407665Y305361D02*
X414016D01*
X405765Y307261D02*
X407665Y305361D01*
X408362Y309261D02*
X414515D01*
X408415Y313361D02*
X414016D01*
X453516Y324861D02*
X454016Y325361D01*
Y328761D01*
X458016Y325361D02*
Y328761D01*
X457515Y324861D02*
X458016Y325361D01*
X473016Y309361D02*
X473116Y309261D01*
X708828Y290250D02*
X711578Y293000D01*
X712750Y297750D02*
X718000D01*
X707250Y292250D02*
X712750Y297750D01*
X712376Y302750D02*
X718000D01*
X709250Y316129D02*
Y321250D01*
X712000Y311500D02*
X716750D01*
X711000Y310500D02*
X712000Y311500D01*
X711750Y323750D02*
X715500D01*
X709250Y321250D02*
X711750Y323750D01*
X716750Y311500D02*
X718000Y312750D01*
X723500D01*
X712675Y306500D02*
X716750D01*
X720154Y323750D02*
X724250Y319654D01*
X716750Y306500D02*
X718000Y307750D01*
X723500Y312750D02*
X724250Y313500D01*
X718000Y307750D02*
X724000D01*
X720000Y323750D02*
X720154D01*
X724750Y323414D02*
X726250Y321914D01*
Y310000D02*
Y321914D01*
X724750Y323414D02*
Y323750D01*
X724250Y313500D02*
Y319654D01*
X724000Y307750D02*
X726250Y310000D01*
D19*
X399766Y325511D02*
D03*
X389766D02*
D03*
X399766Y316611D02*
D03*
X389766D02*
D03*
X401016Y306761D02*
D03*
X391016D02*
D03*
D30*
X400915Y297361D02*
D03*
X391115D02*
D03*
D34*
X539250Y298000D02*
D03*
X550250Y277250D02*
D03*
X560500Y257750D02*
D03*
X592500Y259750D02*
D03*
X582250Y270750D02*
D03*
X555500Y265000D02*
D03*
X677000Y277250D02*
D03*
Y266500D02*
D03*
X676750Y261750D02*
D03*
X608250Y301000D02*
D03*
X715500Y260750D02*
D03*
Y266000D02*
D03*
X710250Y269500D02*
D03*
X535750Y267000D02*
D03*
X540750D02*
D03*
X474000Y268500D02*
D03*
X480250Y261000D02*
D03*
X470500Y265500D02*
D03*
X554250Y328750D02*
D03*
X549500Y321500D02*
D03*
X549250Y317000D02*
D03*
X485000Y289500D02*
D03*
X557750Y301750D02*
D03*
X553750Y305000D02*
D03*
X484750Y297250D02*
D03*
X464000Y288250D02*
D03*
X471750Y261000D02*
D03*
X485000Y281500D02*
D03*
X463750Y295500D02*
D03*
X437750Y276000D02*
D03*
Y288500D02*
D03*
X427500Y288750D02*
D03*
X488250Y325750D02*
D03*
X556250Y312500D02*
D03*
X562500Y320500D02*
D03*
X562750Y313250D02*
D03*
X566250Y333250D02*
D03*
X581250Y331750D02*
D03*
X585500Y333250D02*
D03*
X575000Y331750D02*
D03*
X562750Y330250D02*
D03*
X474500Y325500D02*
D03*
X452500Y332000D02*
D03*
X413915Y321091D02*
D03*
X426595Y335011D02*
D03*
X425444Y310968D02*
D03*
X422027Y335011D02*
D03*
X417015Y269511D02*
D03*
X405765Y334261D02*
D03*
X400750Y334250D02*
D03*
X383565Y297311D02*
D03*
X430250Y332000D02*
D03*
X434500Y334000D02*
D03*
X438250Y331500D02*
D03*
X449515Y258876D02*
D03*
X445016D02*
D03*
X454016D02*
D03*
X270000Y298250D02*
D03*
X280079Y286000D02*
D03*
X426016Y297261D02*
D03*
X539750Y320250D02*
D03*
X543750Y317500D02*
D03*
X270500Y260250D02*
D03*
X278750Y277500D02*
D03*
X269750Y284500D02*
D03*
X694250Y326750D02*
D03*
X693000Y271500D02*
D03*
X685000Y292250D02*
D03*
X396016Y334261D02*
D03*
X282000Y274250D02*
D03*
X270000Y291750D02*
D03*
X296000Y289750D02*
D03*
X276750Y295000D02*
D03*
X282000Y298250D02*
D03*
X544750Y282250D02*
D03*
X483516Y325511D02*
D03*
X469766Y325511D02*
D03*
X597000Y310250D02*
D03*
X619000Y272750D02*
D03*
X618750Y268250D02*
D03*
X565500Y276750D02*
D03*
X545250Y277500D02*
D03*
X396265Y306761D02*
D03*
X405765Y307261D02*
D03*
X711000Y331750D02*
D03*
X437766Y296761D02*
D03*
X576250Y264500D02*
D03*
X613500Y324500D02*
D03*
X599750Y293500D02*
D03*
X593500Y302000D02*
D03*
X706500Y283250D02*
D03*
X674000Y311500D02*
D03*
Y307000D02*
D03*
X673750Y302500D02*
D03*
X707750Y309000D02*
D03*
X708250Y298000D02*
D03*
X677000Y287500D02*
D03*
Y282250D02*
D03*
X706250Y274000D02*
D03*
X739500Y271250D02*
D03*
X745500Y270250D02*
D03*
X715500Y323750D02*
D03*
X720000D02*
D03*
X724750D02*
D03*
X731500Y277000D02*
D03*
X731750Y293500D02*
D03*
X693750Y332250D02*
D03*
X751000Y332500D02*
D03*
X750250Y311250D02*
D03*
D37*
X391065Y297711D02*
Y306711D01*
Y297711D02*
X391265Y297511D01*
X391016Y306761D02*
X391065Y306711D01*
X401615Y297361D02*
X414016D01*
X414016Y297361D01*
X401516Y297261D02*
X401615Y297361D01*
X383516Y297261D02*
X383565Y297311D01*
X391065D01*
D39*
X447500Y332000D02*
X452500D01*
X445516Y324861D02*
X445765Y325111D01*
Y330266D02*
X447500Y332000D01*
X445765Y325111D02*
Y330266D01*
X473016Y281361D02*
X473085Y281430D01*
X484930D01*
X485000Y281500D01*
X543625Y317375D02*
X543750Y317500D01*
X413915Y317461D02*
Y321091D01*
Y317461D02*
X414016Y317361D01*
X417015Y257234D02*
X417250Y257000D01*
X465516Y324861D02*
X468574D01*
X461516D02*
X465516D01*
X468574D02*
X469224Y325511D01*
X469766D01*
X396265Y306761D02*
X401016D01*
X389766Y315611D02*
X395883Y309494D01*
Y307143D02*
Y309494D01*
X389766Y315611D02*
Y316611D01*
X395883Y307143D02*
X396265Y306761D01*
X389766Y325511D02*
X389766Y325511D01*
X389766Y317261D02*
Y325511D01*
X414016Y301361D02*
X422166D01*
X422266Y301261D01*
X693750Y332250D02*
X702250D01*
X702750Y331750D01*
D41*
X589670Y297427D02*
G03*
X585250Y300115I-13170J-16677D01*
G01*
X593750Y293160D02*
G03*
X589670Y297427I-17250J-12410D01*
G01*
X585250Y300115D02*
G03*
X576250Y259501I-8750J-19365D01*
G01*
D02*
G03*
X576500Y259500I250J21249D01*
G01*
X594250Y292433D02*
G03*
X593750Y293160I-17750J-11683D01*
G01*
X576500Y259500D02*
G03*
X576752Y259501I0J21250D01*
G01*
D02*
G03*
X597750Y280750I-251J21249D01*
G01*
D02*
G03*
X594250Y292433I-21250J0D01*
G01*
D42*
X576000Y275273D02*
G03*
X582000Y280750I500J5477D01*
G01*
D02*
G03*
X576000Y275273I-5500J0D01*
G01*
D43*
X437515Y324861D02*
D03*
X441516D02*
D03*
X457515D02*
D03*
X453516D02*
D03*
X449515D02*
D03*
X445516D02*
D03*
X433516D02*
D03*
X429515D02*
D03*
X425516D02*
D03*
X421516D02*
D03*
Y265861D02*
D03*
X425516D02*
D03*
X433516D02*
D03*
X437515D02*
D03*
X441516D02*
D03*
X445516D02*
D03*
X449515D02*
D03*
X453516D02*
D03*
X457515D02*
D03*
X461516D02*
D03*
X465516D02*
D03*
Y324861D02*
D03*
X461516D02*
D03*
X429515Y265861D02*
D03*
D44*
X443516Y295361D02*
D03*
D45*
X414016Y313361D02*
D03*
Y309361D02*
D03*
Y305361D02*
D03*
Y301361D02*
D03*
Y297361D02*
D03*
Y293361D02*
D03*
Y289361D02*
D03*
Y285361D02*
D03*
Y281361D02*
D03*
Y277361D02*
D03*
Y273361D02*
D03*
X473016D02*
D03*
Y277361D02*
D03*
Y285361D02*
D03*
Y289361D02*
D03*
Y293361D02*
D03*
Y297361D02*
D03*
Y301361D02*
D03*
Y305361D02*
D03*
Y309361D02*
D03*
Y313361D02*
D03*
Y317361D02*
D03*
X414016D02*
D03*
X473016Y281361D02*
D03*
D46*
X261900Y271000D02*
D03*
Y277000D02*
D03*
Y283000D02*
D03*
Y289000D02*
D03*
Y295000D02*
D03*
Y301000D02*
D03*
Y267000D02*
D03*
Y305000D02*
D03*
D47*
X288100Y274000D02*
D03*
Y280000D02*
D03*
Y286000D02*
D03*
Y292000D02*
D03*
Y298000D02*
D03*
D48*
X718000Y317750D02*
D03*
Y272750D02*
D03*
Y277750D02*
D03*
Y282750D02*
D03*
Y287750D02*
D03*
Y292750D02*
D03*
Y297750D02*
D03*
Y302750D02*
D03*
Y307750D02*
D03*
Y312750D02*
D03*
D49*
X741000Y263750D02*
D03*
Y326750D02*
D03*
D50*
X681750Y265250D02*
D03*
Y277696D02*
D03*
X687750D02*
D03*
X693750D02*
D03*
X699750D02*
D03*
Y265250D02*
D03*
X693750D02*
D03*
X687750D02*
D03*
D51*
X608000Y286250D02*
D03*
Y267000D02*
D03*
D52*
X686750Y325000D02*
D03*
X702750D02*
D03*
M02*
