G04*
G04 #@! TF.GenerationSoftware,Altium Limited,Altium Designer,23.2.1 (34)*
G04*
G04 Layer_Physical_Order=2*
G04 Layer_Color=36540*
%FSLAX44Y44*%
%MOMM*%
G71*
G04*
G04 #@! TF.SameCoordinates,3FB90E65-7FC7-44E4-8F16-70115AC8F52E*
G04*
G04*
G04 #@! TF.FilePolarity,Positive*
G04*
G01*
G75*
%ADD10C,0.2500*%
%ADD11C,0.4000*%
%ADD34C,0.3500*%
%ADD39C,0.1500*%
G36*
X267325Y298900D02*
X268682Y299402D01*
X268822Y296956D01*
X267420Y297400D01*
X267325Y298900D01*
D02*
G37*
G36*
X288750Y278000D02*
X286250Y275500D01*
Y273000D01*
X288750Y270500D01*
X291250Y274250D01*
D01*
X288750Y278000D01*
D02*
G37*
G36*
X494750Y259284D02*
X483890D01*
X483000Y260453D01*
Y261547D01*
X482581Y262558D01*
X481808Y263331D01*
X480797Y263750D01*
X479703D01*
X478692Y263331D01*
X477919Y262558D01*
X477500Y261547D01*
Y260453D01*
X476609Y259284D01*
X475391D01*
X474500Y260453D01*
Y261547D01*
X474081Y262558D01*
X473308Y263331D01*
X472921Y263491D01*
X472831Y263942D01*
X473250Y264953D01*
Y265614D01*
X473453Y265750D01*
X474547D01*
X475558Y266169D01*
X476331Y266942D01*
X476750Y267953D01*
Y269047D01*
X476331Y270058D01*
X475558Y270831D01*
X474547Y271250D01*
X473453D01*
X472442Y270831D01*
X471669Y270058D01*
X471250Y269047D01*
Y268386D01*
X471047Y268250D01*
X469953D01*
X468942Y267831D01*
X468169Y267058D01*
X467750Y266047D01*
Y264953D01*
X468169Y263942D01*
X468942Y263169D01*
X469329Y263008D01*
X469419Y262558D01*
X469000Y261547D01*
Y260453D01*
X468110Y259284D01*
X461739D01*
X457385Y263638D01*
X456806Y264025D01*
X456124Y264161D01*
X386500D01*
Y336961D01*
X397776D01*
X398162Y336267D01*
X398370Y335691D01*
X398000Y334797D01*
Y333703D01*
X398419Y332692D01*
X399192Y331919D01*
X400203Y331500D01*
X401297D01*
X402308Y331919D01*
X402434Y332044D01*
X403252Y332583D01*
X404093Y332044D01*
X404208Y331930D01*
X405219Y331511D01*
X406312D01*
X407323Y331930D01*
X408097Y332703D01*
X408516Y333714D01*
Y334808D01*
X408150Y335691D01*
X408372Y336300D01*
X408751Y336961D01*
X418484D01*
X419332Y335691D01*
X419277Y335558D01*
Y334464D01*
X419696Y333453D01*
X420470Y332679D01*
X421480Y332261D01*
X422574D01*
X423585Y332679D01*
X424311Y333406D01*
X425038Y332679D01*
X426049Y332261D01*
X427142D01*
X427648Y331096D01*
X427919Y330442D01*
X428692Y329669D01*
X429703Y329250D01*
X430797D01*
X431808Y329669D01*
X432581Y330442D01*
X432582Y330443D01*
X433953Y331250D01*
X435047D01*
X435815Y330193D01*
X435919Y329942D01*
X436692Y329169D01*
X437703Y328750D01*
X438797D01*
X439808Y329169D01*
X440581Y329942D01*
X441000Y330953D01*
Y332047D01*
X440581Y333058D01*
X439808Y333831D01*
X438797Y334250D01*
X437703D01*
X436935Y335307D01*
X436831Y335558D01*
X436698Y335691D01*
X437224Y336961D01*
X494750D01*
Y259284D01*
D02*
G37*
G36*
X615000Y257500D02*
X595798D01*
X595071Y258770D01*
X595250Y259203D01*
Y260297D01*
X594831Y261308D01*
X594058Y262081D01*
X593047Y262500D01*
X591953D01*
X590942Y262081D01*
X590169Y261308D01*
X589750Y260297D01*
Y259203D01*
X589929Y258770D01*
X589202Y257500D01*
X563250D01*
Y258297D01*
X562831Y259308D01*
X562058Y260081D01*
X561047Y260500D01*
X560569D01*
X560043Y261770D01*
X566762Y268488D01*
X567149Y269067D01*
X567284Y269750D01*
Y273798D01*
X567728Y275089D01*
X567831Y275192D01*
X568250Y276203D01*
Y277297D01*
X567831Y278308D01*
X567058Y279081D01*
X566047Y279500D01*
X564953D01*
X563942Y279081D01*
X563169Y278308D01*
X562750Y277297D01*
Y276203D01*
X563169Y275192D01*
X563272Y275089D01*
X563716Y273798D01*
Y270489D01*
X559375Y266149D01*
X557877Y266447D01*
X557831Y266558D01*
X557058Y267331D01*
X556047Y267750D01*
X554953D01*
X553942Y267331D01*
X553169Y266558D01*
X552750Y265547D01*
Y264453D01*
X553169Y263442D01*
X553942Y262669D01*
X554053Y262623D01*
X554351Y261125D01*
X552511Y259284D01*
X532000D01*
Y265549D01*
X533270Y265801D01*
X533419Y265442D01*
X534192Y264669D01*
X535203Y264250D01*
X536297D01*
X537308Y264669D01*
X537420Y264781D01*
X538250Y265331D01*
X539080Y264781D01*
X539192Y264669D01*
X540203Y264250D01*
X541297D01*
X542308Y264669D01*
X543081Y265442D01*
X543500Y266453D01*
Y267547D01*
X543081Y268558D01*
X542308Y269331D01*
X541297Y269750D01*
X540203D01*
X539192Y269331D01*
X539080Y269219D01*
X538250Y268669D01*
X537420Y269219D01*
X537308Y269331D01*
X536297Y269750D01*
X535203D01*
X534192Y269331D01*
X533419Y268558D01*
X533270Y268199D01*
X532000Y268451D01*
Y335000D01*
X562213D01*
X562967Y333872D01*
X562554Y333000D01*
X562203D01*
X561192Y332581D01*
X560419Y331808D01*
X560000Y330797D01*
Y329703D01*
X560419Y328692D01*
X561192Y327919D01*
X562203Y327500D01*
X563297D01*
X564308Y327919D01*
X565081Y328692D01*
X565500Y329703D01*
Y329837D01*
X565703Y330500D01*
X566797D01*
X567808Y330919D01*
X568581Y331692D01*
X569000Y332703D01*
Y333797D01*
X569876Y335000D01*
X572594D01*
X573091Y333730D01*
X572669Y333308D01*
X572250Y332297D01*
Y331203D01*
X572669Y330192D01*
X573442Y329419D01*
X574453Y329000D01*
X575547D01*
X576558Y329419D01*
X577331Y330192D01*
X577438Y330449D01*
X578812D01*
X578919Y330192D01*
X579692Y329419D01*
X580703Y329000D01*
X581797D01*
X582808Y329419D01*
X583303Y329914D01*
X583581Y330192D01*
X584944Y330504D01*
X584953Y330500D01*
X586047D01*
X587058Y330919D01*
X587831Y331692D01*
X588250Y332703D01*
Y333797D01*
X589126Y335000D01*
X615000D01*
Y257500D01*
D02*
G37*
G36*
X566250Y274119D02*
X564750D01*
X564275Y275500D01*
X566725D01*
X566250Y274119D01*
D02*
G37*
G36*
X755000Y256039D02*
X680000D01*
Y335000D01*
X690815D01*
X691419Y333808D01*
X691000Y332797D01*
Y331703D01*
X691419Y330692D01*
X692031Y330080D01*
X692191Y329839D01*
X692166Y328555D01*
X691919Y328308D01*
X691500Y327297D01*
Y326203D01*
X691919Y325192D01*
X692692Y324419D01*
X693703Y324000D01*
X694797D01*
X695808Y324419D01*
X696581Y325192D01*
X697000Y326203D01*
Y327297D01*
X696581Y328308D01*
X695969Y328920D01*
X695809Y329161D01*
X695834Y330445D01*
X696081Y330692D01*
X696500Y331703D01*
Y332797D01*
X696081Y333808D01*
X696685Y335000D01*
X755000D01*
Y256039D01*
D02*
G37*
%LPC*%
G36*
X453047Y334750D02*
X451953D01*
X450942Y334331D01*
X450169Y333558D01*
X449750Y332547D01*
Y331453D01*
X450169Y330442D01*
X450942Y329669D01*
X451953Y329250D01*
X453047D01*
X454058Y329669D01*
X454831Y330442D01*
X455250Y331453D01*
Y332547D01*
X454831Y333558D01*
X454058Y334331D01*
X453047Y334750D01*
D02*
G37*
G36*
X484062Y328261D02*
X482968D01*
X481958Y327842D01*
X481184Y327069D01*
X480765Y326058D01*
Y324964D01*
X481184Y323953D01*
X481958Y323180D01*
X482968Y322761D01*
X484062D01*
X485073Y323180D01*
X485847Y323953D01*
X486265Y324964D01*
Y326058D01*
X485847Y327069D01*
X485073Y327842D01*
X484062Y328261D01*
D02*
G37*
G36*
X470312Y328261D02*
X469218D01*
X468208Y327842D01*
X467434Y327069D01*
X467016Y326058D01*
Y324964D01*
X467434Y323953D01*
X468208Y323180D01*
X469218Y322761D01*
X470312D01*
X471323Y323180D01*
X472138Y323915D01*
X472942Y323169D01*
X473953Y322750D01*
X475047D01*
X476058Y323169D01*
X476831Y323942D01*
X477250Y324953D01*
Y326047D01*
X476831Y327058D01*
X476058Y327831D01*
X475047Y328250D01*
X473953D01*
X472942Y327831D01*
X472127Y327096D01*
X471323Y327842D01*
X470312Y328261D01*
D02*
G37*
G36*
X414463Y323841D02*
X413368D01*
X412358Y323422D01*
X411584Y322648D01*
X411166Y321638D01*
Y320544D01*
X411584Y319533D01*
X412358Y318759D01*
X413368Y318341D01*
X414463D01*
X415473Y318759D01*
X416247Y319533D01*
X416665Y320544D01*
Y321638D01*
X416247Y322648D01*
X415473Y323422D01*
X414463Y323841D01*
D02*
G37*
G36*
X406312Y310011D02*
X405219D01*
X404208Y309592D01*
X403434Y308819D01*
X403016Y307808D01*
Y306714D01*
X403434Y305703D01*
X404208Y304930D01*
X405219Y304511D01*
X406312D01*
X407323Y304930D01*
X408097Y305703D01*
X408516Y306714D01*
Y307808D01*
X408097Y308819D01*
X407323Y309592D01*
X406312Y310011D01*
D02*
G37*
G36*
X485297Y300000D02*
X484203D01*
X483192Y299581D01*
X482419Y298808D01*
X482000Y297797D01*
Y296703D01*
X482419Y295692D01*
X483192Y294919D01*
X484203Y294500D01*
X485297D01*
X486308Y294919D01*
X487081Y295692D01*
X487500Y296703D01*
Y297797D01*
X487081Y298808D01*
X486308Y299581D01*
X485297Y300000D01*
D02*
G37*
G36*
X485547Y292250D02*
X484453D01*
X483442Y291831D01*
X482669Y291058D01*
X482250Y290047D01*
Y288953D01*
X482669Y287942D01*
X483442Y287169D01*
X484453Y286750D01*
X485547D01*
X486558Y287169D01*
X487331Y287942D01*
X487750Y288953D01*
Y290047D01*
X487331Y291058D01*
X486558Y291831D01*
X485547Y292250D01*
D02*
G37*
G36*
Y284250D02*
X484453D01*
X483442Y283831D01*
X482669Y283058D01*
X482250Y282047D01*
Y280953D01*
X482669Y279942D01*
X483442Y279169D01*
X484453Y278750D01*
X485547D01*
X486558Y279169D01*
X487331Y279942D01*
X487750Y280953D01*
Y282047D01*
X487331Y283058D01*
X486558Y283831D01*
X485547Y284250D01*
D02*
G37*
G36*
X417562Y272261D02*
X416469D01*
X415458Y271842D01*
X414684Y271069D01*
X414266Y270058D01*
Y268964D01*
X414684Y267953D01*
X415458Y267180D01*
X416469Y266761D01*
X417562D01*
X418573Y267180D01*
X419347Y267953D01*
X419766Y268964D01*
Y270058D01*
X419347Y271069D01*
X418573Y271842D01*
X417562Y272261D01*
D02*
G37*
G36*
X554797Y331500D02*
X553703D01*
X552692Y331081D01*
X551919Y330308D01*
X551500Y329297D01*
Y328203D01*
X551919Y327192D01*
X552692Y326419D01*
X553703Y326000D01*
X554797D01*
X555808Y326419D01*
X556581Y327192D01*
X557000Y328203D01*
Y329297D01*
X556581Y330308D01*
X555808Y331081D01*
X554797Y331500D01*
D02*
G37*
G36*
X550047Y324250D02*
X548953D01*
X547942Y323831D01*
X547169Y323058D01*
X546750Y322047D01*
Y320953D01*
X547015Y320313D01*
X546894Y320072D01*
X546815Y320002D01*
X545363Y319776D01*
X545308Y319831D01*
X544297Y320250D01*
X543203D01*
X542500Y320720D01*
Y320797D01*
X542081Y321808D01*
X541308Y322581D01*
X540297Y323000D01*
X539203D01*
X538192Y322581D01*
X537419Y321808D01*
X537000Y320797D01*
Y319703D01*
X537419Y318692D01*
X538192Y317919D01*
X539203Y317500D01*
X540297D01*
X541000Y317030D01*
Y316953D01*
X541419Y315942D01*
X542192Y315169D01*
X543203Y314750D01*
X544297D01*
X545308Y315169D01*
X545555Y315416D01*
X546839Y315441D01*
X547080Y315281D01*
X547692Y314669D01*
X548703Y314250D01*
X549797D01*
X550808Y314669D01*
X551581Y315442D01*
X552000Y316453D01*
Y317547D01*
X551735Y318187D01*
X551581Y318558D01*
X551814Y319925D01*
X551831Y319942D01*
X552250Y320953D01*
Y322047D01*
X551831Y323058D01*
X551058Y323831D01*
X550047Y324250D01*
D02*
G37*
G36*
X563047Y323250D02*
X561953D01*
X560942Y322831D01*
X560169Y322058D01*
X559750Y321047D01*
Y319953D01*
X560169Y318942D01*
X560942Y318169D01*
X561953Y317750D01*
X563047D01*
X564058Y318169D01*
X564831Y318942D01*
X565250Y319953D01*
Y321047D01*
X564831Y322058D01*
X564058Y322831D01*
X563047Y323250D01*
D02*
G37*
G36*
X563297Y316000D02*
X562203D01*
X561192Y315581D01*
X560419Y314808D01*
X560032Y313874D01*
X559747Y313777D01*
X558730Y313699D01*
X558581Y314058D01*
X557808Y314831D01*
X556797Y315250D01*
X555703D01*
X554692Y314831D01*
X553919Y314058D01*
X553500Y313047D01*
Y311953D01*
X553919Y310942D01*
X554692Y310169D01*
X555703Y309750D01*
X556797D01*
X557808Y310169D01*
X558581Y310942D01*
X558968Y311876D01*
X559253Y311973D01*
X560270Y312051D01*
X560419Y311692D01*
X561192Y310919D01*
X562203Y310500D01*
X563297D01*
X564308Y310919D01*
X565081Y311692D01*
X565500Y312703D01*
Y313797D01*
X565081Y314808D01*
X564308Y315581D01*
X563297Y316000D01*
D02*
G37*
G36*
X597547Y313000D02*
X596453D01*
X595442Y312581D01*
X594669Y311808D01*
X594250Y310797D01*
Y309703D01*
X594669Y308692D01*
X595442Y307919D01*
X596453Y307500D01*
X597547D01*
X598558Y307919D01*
X599331Y308692D01*
X599750Y309703D01*
Y310797D01*
X599331Y311808D01*
X598558Y312581D01*
X597547Y313000D01*
D02*
G37*
G36*
X554297Y307750D02*
X553203D01*
X552192Y307331D01*
X551419Y306558D01*
X551000Y305547D01*
Y304453D01*
X551419Y303442D01*
X552192Y302669D01*
X553203Y302250D01*
X554297D01*
X554991Y301216D01*
X555013Y301172D01*
X555419Y300192D01*
X556192Y299419D01*
X557203Y299000D01*
X558297D01*
X559308Y299419D01*
X560081Y300192D01*
X560500Y301203D01*
Y302297D01*
X560081Y303308D01*
X559308Y304081D01*
X558297Y304500D01*
X557203D01*
X556509Y305534D01*
X556487Y305578D01*
X556081Y306558D01*
X555308Y307331D01*
X554297Y307750D01*
D02*
G37*
G36*
X608797Y303750D02*
X607703D01*
X606692Y303331D01*
X605919Y302558D01*
X605500Y301547D01*
Y300453D01*
X605919Y299442D01*
X606692Y298669D01*
X607703Y298250D01*
X608797D01*
X609808Y298669D01*
X610581Y299442D01*
X611000Y300453D01*
Y301547D01*
X610581Y302558D01*
X609808Y303331D01*
X608797Y303750D01*
D02*
G37*
G36*
X600297Y296250D02*
X599203D01*
X598192Y295831D01*
X597419Y295058D01*
X597000Y294047D01*
Y292953D01*
X597419Y291942D01*
X598192Y291169D01*
X599203Y290750D01*
X600297D01*
X601308Y291169D01*
X602081Y291942D01*
X602500Y292953D01*
Y294047D01*
X602081Y295058D01*
X601308Y295831D01*
X600297Y296250D01*
D02*
G37*
G36*
X545297Y285000D02*
X544203D01*
X543192Y284581D01*
X542419Y283808D01*
X542000Y282797D01*
Y281703D01*
X542419Y280692D01*
X542588Y280523D01*
X542909Y279099D01*
X542777Y278716D01*
X542500Y278047D01*
Y276953D01*
X542919Y275942D01*
X543692Y275169D01*
X544703Y274750D01*
X545797D01*
X546808Y275169D01*
X547880Y275674D01*
X548455Y275156D01*
X548692Y274919D01*
X549703Y274500D01*
X550797D01*
X551808Y274919D01*
X552581Y275692D01*
X553000Y276703D01*
Y277797D01*
X552581Y278808D01*
X551808Y279581D01*
X550797Y280000D01*
X549703D01*
X548692Y279581D01*
X548640Y279557D01*
X547176Y280271D01*
X547091Y280651D01*
X547223Y281034D01*
X547500Y281703D01*
Y282797D01*
X547081Y283808D01*
X546308Y284581D01*
X545297Y285000D01*
D02*
G37*
G36*
X582797Y273500D02*
X581703D01*
X580692Y273081D01*
X579919Y272308D01*
X579500Y271297D01*
Y270203D01*
X579919Y269192D01*
X580692Y268419D01*
X581703Y268000D01*
X582797D01*
X583808Y268419D01*
X584581Y269192D01*
X585000Y270203D01*
Y271297D01*
X584581Y272308D01*
X583808Y273081D01*
X582797Y273500D01*
D02*
G37*
G36*
X725297Y326500D02*
X724203D01*
X723192Y326081D01*
X722375Y325347D01*
X721558Y326081D01*
X720547Y326500D01*
X719453D01*
X718442Y326081D01*
X717750Y325389D01*
X717058Y326081D01*
X716047Y326500D01*
X714953D01*
X713942Y326081D01*
X713169Y325308D01*
X712750Y324297D01*
Y323203D01*
X713169Y322192D01*
X713942Y321419D01*
X714953Y321000D01*
X716047D01*
X717058Y321419D01*
X717750Y322111D01*
X718442Y321419D01*
X719453Y321000D01*
X720547D01*
X721558Y321419D01*
X722375Y322153D01*
X723192Y321419D01*
X724203Y321000D01*
X725297D01*
X726308Y321419D01*
X727081Y322192D01*
X727500Y323203D01*
Y324297D01*
X727081Y325308D01*
X726308Y326081D01*
X725297Y326500D01*
D02*
G37*
G36*
X708297Y311750D02*
X707203D01*
X706192Y311331D01*
X705419Y310558D01*
X705000Y309547D01*
Y308453D01*
X705419Y307442D01*
X706192Y306669D01*
X707203Y306250D01*
X708297D01*
X709308Y306669D01*
X710081Y307442D01*
X710500Y308453D01*
Y309547D01*
X710081Y310558D01*
X709308Y311331D01*
X708297Y311750D01*
D02*
G37*
G36*
X707047Y286000D02*
X705953D01*
X704942Y285581D01*
X704169Y284808D01*
X703750Y283797D01*
Y282703D01*
X704169Y281692D01*
X704942Y280919D01*
X705953Y280500D01*
X707047D01*
X708058Y280919D01*
X708831Y281692D01*
X709250Y282703D01*
Y283797D01*
X708831Y284808D01*
X708058Y285581D01*
X707047Y286000D01*
D02*
G37*
G36*
X740047Y274000D02*
X738953D01*
X737942Y273581D01*
X737169Y272808D01*
X736750Y271797D01*
Y270703D01*
X737169Y269692D01*
X737942Y268919D01*
X738953Y268500D01*
X740047D01*
X741058Y268919D01*
X741831Y269692D01*
X742250Y270703D01*
Y271797D01*
X741831Y272808D01*
X741058Y273581D01*
X740047Y274000D01*
D02*
G37*
G36*
X706797Y276750D02*
X705703D01*
X704692Y276331D01*
X703919Y275558D01*
X703500Y274547D01*
Y273453D01*
X703919Y272442D01*
X704692Y271669D01*
X705703Y271250D01*
X706624D01*
X707165Y270740D01*
X707560Y270191D01*
X707500Y270047D01*
Y268953D01*
X707919Y267942D01*
X708692Y267169D01*
X709703Y266750D01*
X710797D01*
X711597Y267081D01*
X712226Y266790D01*
X712750Y266315D01*
Y265453D01*
X713169Y264442D01*
X713406Y264205D01*
X713802Y263375D01*
X713406Y262545D01*
X713169Y262308D01*
X712750Y261297D01*
Y260203D01*
X713169Y259192D01*
X713942Y258419D01*
X714953Y258000D01*
X716047D01*
X717058Y258419D01*
X717831Y259192D01*
X718250Y260203D01*
Y261297D01*
X717831Y262308D01*
X717594Y262545D01*
X717198Y263375D01*
X717594Y264205D01*
X717831Y264442D01*
X718250Y265453D01*
Y266547D01*
X717831Y267558D01*
X717058Y268331D01*
X716047Y268750D01*
X714953D01*
X714153Y268419D01*
X713524Y268710D01*
X713000Y269185D01*
Y270047D01*
X712581Y271058D01*
X711808Y271831D01*
X710797Y272250D01*
X709876D01*
X709335Y272760D01*
X708940Y273309D01*
X709000Y273453D01*
Y274547D01*
X708581Y275558D01*
X707808Y276331D01*
X706797Y276750D01*
D02*
G37*
%LPD*%
D10*
X295809Y289941D02*
X296000Y289750D01*
X295102Y289941D02*
X295809D01*
X295043Y290000D02*
X295102Y289941D01*
X289750Y290000D02*
X295043D01*
X292500Y266000D02*
X391527D01*
X290000Y268500D02*
X292500Y266000D01*
X290000Y268500D02*
Y274250D01*
X488250Y325750D02*
X536000D01*
X536000Y325750D01*
X276093Y290000D02*
X289750D01*
X290000Y289750D01*
X270000Y291750D02*
X274343D01*
X276093Y290000D01*
X290000Y274250D02*
Y289750D01*
X282000Y274250D02*
X290000D01*
D11*
X550250Y289000D02*
X550250Y289000D01*
X613500Y324500D02*
X681734D01*
X613484D02*
X613500D01*
D34*
X539250Y298000D02*
D03*
X550250Y277250D02*
D03*
X560500Y257750D02*
D03*
X592500Y259750D02*
D03*
X582250Y270750D02*
D03*
X555500Y265000D02*
D03*
X677000Y277250D02*
D03*
Y266500D02*
D03*
X676750Y261750D02*
D03*
X608250Y301000D02*
D03*
X715500Y260750D02*
D03*
Y266000D02*
D03*
X710250Y269500D02*
D03*
X535750Y267000D02*
D03*
X540750D02*
D03*
X474000Y268500D02*
D03*
X480250Y261000D02*
D03*
X470500Y265500D02*
D03*
X554250Y328750D02*
D03*
X549500Y321500D02*
D03*
X549250Y317000D02*
D03*
X485000Y289500D02*
D03*
X557750Y301750D02*
D03*
X553750Y305000D02*
D03*
X484750Y297250D02*
D03*
X464000Y288250D02*
D03*
X471750Y261000D02*
D03*
X485000Y281500D02*
D03*
X463750Y295500D02*
D03*
X437750Y276000D02*
D03*
Y288500D02*
D03*
X427500Y288750D02*
D03*
X488250Y325750D02*
D03*
X556250Y312500D02*
D03*
X562500Y320500D02*
D03*
X562750Y313250D02*
D03*
X566250Y333250D02*
D03*
X581250Y331750D02*
D03*
X585500Y333250D02*
D03*
X575000Y331750D02*
D03*
X562750Y330250D02*
D03*
X474500Y325500D02*
D03*
X452500Y332000D02*
D03*
X413915Y321091D02*
D03*
X426595Y335011D02*
D03*
X425444Y310968D02*
D03*
X422027Y335011D02*
D03*
X417015Y269511D02*
D03*
X405765Y334261D02*
D03*
X400750Y334250D02*
D03*
X383565Y297311D02*
D03*
X430250Y332000D02*
D03*
X434500Y334000D02*
D03*
X438250Y331500D02*
D03*
X449515Y258876D02*
D03*
X445016D02*
D03*
X454016D02*
D03*
X270000Y298250D02*
D03*
X280079Y286000D02*
D03*
X426016Y297261D02*
D03*
X539750Y320250D02*
D03*
X543750Y317500D02*
D03*
X270500Y260250D02*
D03*
X278750Y277500D02*
D03*
X269750Y284500D02*
D03*
X694250Y326750D02*
D03*
X693000Y271500D02*
D03*
X685000Y292250D02*
D03*
X396016Y334261D02*
D03*
X282000Y274250D02*
D03*
X270000Y291750D02*
D03*
X296000Y289750D02*
D03*
X276750Y295000D02*
D03*
X282000Y298250D02*
D03*
X544750Y282250D02*
D03*
X483516Y325511D02*
D03*
X469766Y325511D02*
D03*
X597000Y310250D02*
D03*
X619000Y272750D02*
D03*
X618750Y268250D02*
D03*
X565500Y276750D02*
D03*
X545250Y277500D02*
D03*
X396265Y306761D02*
D03*
X405765Y307261D02*
D03*
X711000Y331750D02*
D03*
X437766Y296761D02*
D03*
X576250Y264500D02*
D03*
X613500Y324500D02*
D03*
X599750Y293500D02*
D03*
X593500Y302000D02*
D03*
X706500Y283250D02*
D03*
X674000Y311500D02*
D03*
Y307000D02*
D03*
X673750Y302500D02*
D03*
X707750Y309000D02*
D03*
X708250Y298000D02*
D03*
X677000Y287500D02*
D03*
Y282250D02*
D03*
X706250Y274000D02*
D03*
X739500Y271250D02*
D03*
X745500Y270250D02*
D03*
X715500Y323750D02*
D03*
X720000D02*
D03*
X724750D02*
D03*
X731500Y277000D02*
D03*
X731750Y293500D02*
D03*
X693750Y332250D02*
D03*
X751000Y332500D02*
D03*
X750250Y311250D02*
D03*
D39*
X456124Y262376D02*
X461000Y257500D01*
X553250D01*
X279874Y262376D02*
X456124D01*
X277500Y264750D02*
X279874Y262376D01*
X553250Y257500D02*
X565500Y269750D01*
Y276750D01*
X269750Y264750D02*
X277500D01*
X265250Y269250D02*
X269750Y264750D01*
X265250Y269250D02*
Y296500D01*
X266900Y298150D02*
X269900D01*
X265250Y296500D02*
X266900Y298150D01*
X269900D02*
X270000Y298250D01*
M02*
