G04*
G04 #@! TF.GenerationSoftware,Altium Limited,Altium Designer,23.2.1 (34)*
G04*
G04 Layer_Color=32896*
%FSLAX44Y44*%
%MOMM*%
G71*
G04*
G04 #@! TF.SameCoordinates,D4FC6264-4346-42C6-8E52-0D0339D1B619*
G04*
G04*
G04 #@! TF.FilePolarity,Positive*
G04*
G01*
G75*
%ADD11C,0.4000*%
%ADD12C,0.5000*%
%ADD15C,0.0500*%
%ADD40C,0.1500*%
%ADD55C,0.1524*%
%ADD56C,0.1300*%
D11*
X483000Y325850D02*
G03*
X483000Y325850I-1250J0D01*
G01*
D12*
X682876Y287983D02*
G03*
X682876Y287983I-1016J0D01*
G01*
D15*
X388500Y293350D02*
X388500Y303350D01*
X407500Y303350D01*
X407500Y293350D01*
X388500Y293350D01*
X389750Y303500D02*
X406250Y303500D01*
X406250Y312250D01*
X389750Y312250D01*
X389750Y303500D01*
X388500Y313350D02*
X405000Y313350D01*
X405000Y322100D01*
X388500Y322100D01*
X388500Y313350D01*
X388500Y322250D02*
X405000Y322250D01*
X405000Y331000D01*
X388500Y331000D01*
X388500Y322250D01*
D40*
X620835Y266500D02*
X627500Y266500D01*
X627505Y271500D02*
X625839Y273166D01*
X627505Y271500D02*
X630837Y271500D01*
X632503Y273166D01*
X632503Y279831D01*
X630837Y281497D01*
X627505Y281497D01*
X625839Y279831D01*
X623418Y283250D02*
X623418Y289914D01*
X626750Y286582D02*
X620085Y286582D01*
X635835Y278165D02*
X635835Y271500D01*
X635835Y276498D01*
X642500Y276498D01*
X642500Y278165D02*
X639168Y281497D01*
X635835Y278165D01*
X642500Y278165D02*
X642500Y271500D01*
X699253Y313666D02*
X700919Y312000D01*
X699253Y313666D02*
X709250Y313666D01*
X709250Y315332D01*
X709250Y312000D01*
D55*
X260500Y262000D02*
X289500Y262000D01*
X289500Y264800D01*
X288000Y266300D02*
X288000Y269725D01*
X288000Y302275D02*
X288000Y305700D01*
X289500Y307200D02*
X289500Y310000D01*
X260500Y310000D01*
X676018Y259662D02*
X676018Y283284D01*
X705482Y259662D02*
X705482Y283284D01*
D56*
X257453Y257784D02*
X259119Y259450D01*
X257453Y257784D02*
X267450Y257784D01*
X267450Y256118D01*
X267450Y259450D01*
M02*
