G04*
G04 #@! TF.GenerationSoftware,Altium Limited,Altium Designer,23.2.1 (34)*
G04*
G04 Layer_Physical_Order=4*
G04 Layer_Color=16711680*
%FSLAX44Y44*%
%MOMM*%
G71*
G04*
G04 #@! TF.SameCoordinates,65844937-C824-47D7-9260-582DF4BCFB51*
G04*
G04*
G04 #@! TF.FilePolarity,Positive*
G04*
G01*
G75*
%ADD15C,0.1000*%
%ADD16C,0.2000*%
%ADD19R,0.5500X0.4000*%
%ADD24R,1.3980X1.3980*%
%ADD25C,1.3980*%
%ADD26C,1.5700*%
%ADD27R,1.5700X1.5700*%
%ADD28C,0.6000*%
G04:AMPARAMS|DCode=29|XSize=0.85mm|YSize=0.5mm|CornerRadius=0.25mm|HoleSize=0mm|Usage=FLASHONLY|Rotation=90.000|XOffset=0mm|YOffset=0mm|HoleType=Round|Shape=RoundedRectangle|*
%AMROUNDEDRECTD29*
21,1,0.8500,0.0000,0,0,90.0*
21,1,0.3500,0.5000,0,0,90.0*
1,1,0.5000,0.0000,0.1750*
1,1,0.5000,0.0000,-0.1750*
1,1,0.5000,0.0000,-0.1750*
1,1,0.5000,0.0000,0.1750*
%
%ADD29ROUNDEDRECTD29*%
G04:AMPARAMS|DCode=30|XSize=1.3mm|YSize=2.6mm|CornerRadius=0.65mm|HoleSize=0mm|Usage=FLASHONLY|Rotation=90.000|XOffset=0mm|YOffset=0mm|HoleType=Round|Shape=RoundedRectangle|*
%AMROUNDEDRECTD30*
21,1,1.3000,1.3000,0,0,90.0*
21,1,0.0000,2.6000,0,0,90.0*
1,1,1.3000,0.6500,0.0000*
1,1,1.3000,0.6500,0.0000*
1,1,1.3000,-0.6500,0.0000*
1,1,1.3000,-0.6500,0.0000*
%
%ADD30ROUNDEDRECTD30*%
G04:AMPARAMS|DCode=31|XSize=0.6mm|YSize=1.9mm|CornerRadius=0.3mm|HoleSize=0mm|Usage=FLASHONLY|Rotation=90.000|XOffset=0mm|YOffset=0mm|HoleType=Round|Shape=RoundedRectangle|*
%AMROUNDEDRECTD31*
21,1,0.6000,1.3000,0,0,90.0*
21,1,0.0000,1.9000,0,0,90.0*
1,1,0.6000,0.6500,0.0000*
1,1,0.6000,0.6500,0.0000*
1,1,0.6000,-0.6500,0.0000*
1,1,0.6000,-0.6500,0.0000*
%
%ADD31ROUNDEDRECTD31*%
G04:AMPARAMS|DCode=32|XSize=1.25mm|YSize=0.7mm|CornerRadius=0.35mm|HoleSize=0mm|Usage=FLASHONLY|Rotation=90.000|XOffset=0mm|YOffset=0mm|HoleType=Round|Shape=RoundedRectangle|*
%AMROUNDEDRECTD32*
21,1,1.2500,0.0000,0,0,90.0*
21,1,0.5500,0.7000,0,0,90.0*
1,1,0.7000,0.0000,0.2750*
1,1,0.7000,0.0000,-0.2750*
1,1,0.7000,0.0000,-0.2750*
1,1,0.7000,0.0000,0.2750*
%
%ADD32ROUNDEDRECTD32*%
%ADD33C,0.3500*%
%ADD34R,0.4000X0.5500*%
%ADD35R,0.6000X0.8000*%
%ADD36R,0.5000X0.5000*%
%ADD37R,0.4500X2.1000*%
%ADD38R,0.5400X0.2200*%
%ADD39R,0.5300X0.2200*%
%ADD40C,0.3000*%
G36*
G01X1096670Y654670D02*
G01X1096670Y660870D01*
G03X1091302Y665172I-5367J-1198D01*
G03X1091170Y665170I-3J-5329D01*
G03X1085670Y660670I-92J-5499D01*
G01X1079670Y660670D01*
G03X1073670Y654670I0J-6000D01*
G03X1079670Y648670I6000J-0D01*
G01X1090670Y648670D01*
G03X1096670Y654670I0J6000D01*
X1096670Y654670D02*
G37*
G36*
G01X1091302Y730568D02*
G03X1096670Y734870I0J5499D01*
G01X1096670Y741070D01*
G03X1090670Y747070I-6000J0D01*
G01X1079670Y747070D01*
G03X1079670Y735070I0J-6000D01*
G01X1085670Y735070D01*
G03X1091170Y730570I5408J999D01*
G03X1091302Y730568I133J5514D01*
X1091302Y730568D02*
G37*
D15*
X757920Y703370D02*
X760420Y700870D01*
X763570Y700870D01*
X765570Y706870D02*
X761670Y706870D01*
X759920Y708620D01*
X759920Y728870D01*
X763170Y732120D01*
X793420Y732120D01*
X797209Y735909D01*
X797209Y751909D01*
X801920Y756620D01*
X869420Y756620D01*
X872734Y753306D01*
X872734Y742884D01*
X872720Y742870D01*
X872720Y715420D01*
X872270Y714970D01*
X876670Y688870D02*
X876920Y688620D01*
X917970Y688620D01*
X923520Y683070D01*
X923520Y645870D01*
X922120Y645870D02*
X921670Y646320D01*
X969670Y698620D02*
X975170Y704120D01*
X975170Y711620D01*
X980170Y716620D01*
X995170Y716620D01*
X998170Y719620D01*
X998170Y732370D01*
X972170Y732370D02*
X972170Y708120D01*
X964920Y700870D01*
X833170Y700870D01*
X830920Y703120D01*
X830920Y710870D01*
X827670Y714120D01*
X787170Y714120D01*
X785420Y712370D01*
X785420Y705620D01*
X787170Y703870D01*
X791770Y703870D01*
X791770Y709870D02*
X824170Y709870D01*
X827670Y706370D01*
X827670Y700870D01*
X828170Y700870D01*
X830420Y698620D01*
X969670Y698620D01*
X923520Y742870D02*
X923520Y757270D01*
X919670Y761120D01*
X798920Y761120D01*
X792920Y755120D01*
X792920Y737620D01*
X791170Y735870D01*
X761920Y735870D01*
X757920Y731870D01*
X757920Y703370D01*
X773920Y661620D02*
X781670Y653870D01*
X804570Y653870D01*
X805920Y655220D01*
X827320Y655220D01*
X833920Y648620D01*
X833920Y641370D01*
X840170Y635120D01*
X860570Y635120D01*
X871320Y645870D01*
X872720Y645870D02*
X872720Y672570D01*
X872420Y672870D01*
X876670Y688870D02*
X810420Y688870D01*
X807420Y685870D01*
X791770Y685870D01*
X789770Y691870D02*
X783420Y691870D01*
X779920Y688370D01*
X779920Y662620D01*
X784420Y658120D01*
X833670Y658120D01*
X845920Y645870D01*
X847320Y645870D02*
X847320Y672820D01*
X847370Y672870D01*
X847320Y715420D02*
X847320Y727870D01*
X847320Y742870D01*
X847320Y727870D02*
X846820Y727370D01*
X778670Y727370D01*
X778670Y700870D01*
X781670Y697870D01*
X791770Y697870D01*
X772170Y688870D02*
X773920Y687120D01*
X773920Y661620D01*
X772170Y688870D02*
X765570Y688870D01*
X846870Y714970D02*
X847320Y715420D01*
X1069420Y696620D02*
X1098670Y696620D01*
X1101170Y699120D01*
X1110170Y691370D02*
X1121170Y680370D01*
X1129320Y680370D01*
X1129320Y689370D02*
X1121920Y689370D01*
X1110170Y691370D02*
X1085270Y691370D01*
D16*
X760170Y682870D02*
X760170Y682870D01*
X765570Y682870D01*
X763570Y694870D02*
X767670Y694870D01*
X770670Y697870D01*
X771170Y712870D02*
X771170Y712870D01*
X771170Y712870D02*
X765570Y712870D01*
X847370Y683070D02*
X854670Y683070D01*
X872420Y683070D02*
X880620Y683070D01*
X880670Y683120D01*
X872270Y704770D02*
X864670Y704770D01*
X846870Y704770D02*
X840170Y704770D01*
X985170Y647620D02*
X985170Y663370D01*
X991670Y663370D01*
X1004670Y663370D02*
X1004670Y647620D01*
X1011170Y647670D02*
X1011220Y647620D01*
X1011170Y647670D02*
X1011170Y663370D01*
X1017670Y647620D02*
X1017670Y663370D01*
X1024170Y663370D02*
X1024170Y677620D01*
X1020170Y681620D01*
X1037170Y678620D02*
X1037170Y663370D01*
X1043795Y647745D02*
X1043795Y663245D01*
X1043670Y663370D01*
X1050170Y663370D02*
X1050170Y679120D01*
X1056670Y679120D02*
X1056670Y663370D01*
X1043795Y647745D02*
X1043920Y647620D01*
X1069420Y686620D02*
X1064420Y691620D01*
X1064420Y706620D01*
X1069420Y711620D01*
X1123420Y711620D01*
X1125170Y713370D01*
X1125420Y713120D01*
X1125420Y701670D01*
X1134170Y701670D02*
X1141420Y701670D01*
X1139520Y689370D02*
X1139520Y680370D01*
X1134170Y680370D01*
X1139345Y680195D02*
X1139520Y680370D01*
X1139345Y680195D02*
X1139345Y672045D01*
X1139170Y671870D01*
X1130170Y671870D02*
X1130170Y667870D01*
X1135670Y662370D01*
X1135670Y654670D01*
X1133670Y713370D02*
X1141170Y713370D01*
X991670Y749620D02*
X991670Y749620D01*
X991670Y749620D02*
X991670Y732370D01*
X1011170Y732370D02*
X1011195Y732345D01*
X1011195Y716645D01*
X1011220Y716620D01*
D19*
X847370Y672870D02*
D03*
X847370Y683070D02*
D03*
X872420Y683070D02*
D03*
X872420Y672870D02*
D03*
X872270Y704770D02*
D03*
X872270Y714970D02*
D03*
X846870Y714970D02*
D03*
X846870Y704770D02*
D03*
D24*
X1085270Y592870D02*
D03*
X1087420Y828270D02*
D03*
D25*
X856670Y567470D02*
D03*
X882070Y567470D02*
D03*
X907470Y567470D02*
D03*
X932870Y567470D02*
D03*
X958270Y567470D02*
D03*
X983670Y567470D02*
D03*
X1009070Y567470D02*
D03*
X1034470Y567470D02*
D03*
X1059870Y567470D02*
D03*
X1085270Y567470D02*
D03*
X1059870Y592870D02*
D03*
X1034470Y592870D02*
D03*
X1009070Y592870D02*
D03*
X983670Y592870D02*
D03*
X958270Y592870D02*
D03*
X932870Y592870D02*
D03*
X907470Y592870D02*
D03*
X882070Y592870D02*
D03*
X856670Y592870D02*
D03*
X1062020Y802870D02*
D03*
X1087420Y802870D02*
D03*
X1062020Y828270D02*
D03*
X1036620Y828270D02*
D03*
X1036620Y802870D02*
D03*
X1011220Y828270D02*
D03*
X1011220Y802870D02*
D03*
X985820Y828270D02*
D03*
X985820Y802870D02*
D03*
X960420Y828270D02*
D03*
X960420Y802870D02*
D03*
X935020Y828270D02*
D03*
X935020Y802870D02*
D03*
X909620Y828270D02*
D03*
X909620Y802870D02*
D03*
X884220Y828270D02*
D03*
X884220Y802870D02*
D03*
X858820Y828270D02*
D03*
X858820Y802870D02*
D03*
D26*
X821920Y645870D02*
D03*
X847320Y645870D02*
D03*
X872720Y645870D02*
D03*
X898120Y645870D02*
D03*
X923520Y645870D02*
D03*
X923520Y742870D02*
D03*
X898120Y742870D02*
D03*
X872720Y742870D02*
D03*
X847320Y742870D02*
D03*
X821920Y742870D02*
D03*
D27*
X948920Y645870D02*
D03*
X948920Y742870D02*
D03*
D28*
X1105170Y661870D02*
D03*
D29*
X1104520Y733870D02*
D03*
D30*
X1135670Y654670D02*
D03*
X1135670Y741070D02*
D03*
D31*
X1085170Y654670D02*
D03*
D32*
X1091270Y737820D02*
D03*
D33*
X760170Y682870D02*
D03*
X779920Y662620D02*
D03*
X770670Y697870D02*
D03*
X770670Y712870D02*
D03*
X778670Y727370D02*
D03*
X779170Y759620D02*
D03*
X854670Y682870D02*
D03*
X880620Y683070D02*
D03*
X864670Y704770D02*
D03*
X840170Y704770D02*
D03*
X780420Y628870D02*
D03*
X984920Y647620D02*
D03*
X1004670Y647620D02*
D03*
X1011220Y647620D02*
D03*
X1017670Y647620D02*
D03*
X1043920Y647620D02*
D03*
X1050170Y679120D02*
D03*
X1056670Y679120D02*
D03*
X1069420Y686620D02*
D03*
X1069420Y696620D02*
D03*
X1085270Y691370D02*
D03*
X1101170Y669120D02*
D03*
X1134170Y680370D02*
D03*
X1134170Y701370D02*
D03*
X1121920Y689370D02*
D03*
X1134170Y713370D02*
D03*
X1101170Y724120D02*
D03*
X1101170Y699120D02*
D03*
X1069420Y711620D02*
D03*
X1037420Y679120D02*
D03*
X1020170Y681620D02*
D03*
X1011220Y716620D02*
D03*
X991670Y749620D02*
D03*
D34*
X1129320Y680370D02*
D03*
X1139520Y680370D02*
D03*
X1139520Y689370D02*
D03*
X1129320Y689370D02*
D03*
D35*
X1125420Y701670D02*
D03*
X1141420Y701670D02*
D03*
X1141170Y713370D02*
D03*
X1125170Y713370D02*
D03*
D36*
X1130170Y671870D02*
D03*
X1139170Y671870D02*
D03*
D37*
X972170Y663370D02*
D03*
X978670Y663370D02*
D03*
X985170Y663370D02*
D03*
X991670Y663370D02*
D03*
X998170Y663370D02*
D03*
X1004670Y663370D02*
D03*
X1011170Y663370D02*
D03*
X1017670Y663370D02*
D03*
X1024170Y663370D02*
D03*
X1030670Y663370D02*
D03*
X1037170Y663370D02*
D03*
X1043670Y663370D02*
D03*
X1050170Y663370D02*
D03*
X1056670Y663370D02*
D03*
X1056670Y732370D02*
D03*
X1050170Y732370D02*
D03*
X1043670Y732370D02*
D03*
X1037170Y732370D02*
D03*
X1030670Y732370D02*
D03*
X1024170Y732370D02*
D03*
X1017670Y732370D02*
D03*
X1011170Y732370D02*
D03*
X1004670Y732370D02*
D03*
X998170Y732370D02*
D03*
X991670Y732370D02*
D03*
X985170Y732370D02*
D03*
X978670Y732370D02*
D03*
X972170Y732370D02*
D03*
D38*
X765570Y678870D02*
D03*
X765570Y682870D02*
D03*
X765570Y688870D02*
D03*
X765570Y694870D02*
D03*
X765570Y700870D02*
D03*
X765570Y706870D02*
D03*
X765570Y712870D02*
D03*
X765570Y716870D02*
D03*
D39*
X791770Y685870D02*
D03*
X791770Y691870D02*
D03*
X791770Y697870D02*
D03*
X791770Y703870D02*
D03*
X791770Y709870D02*
D03*
D40*
X1091170Y657920D02*
X1094420Y654670D01*
X1135670Y654670D01*
X1140159Y654670D01*
X1147670Y662181D01*
X1147670Y732870D01*
X1139470Y741070D01*
X1135670Y741070D01*
X1085170Y741070D01*
M02*
