G04*
G04 #@! TF.GenerationSoftware,Altium Limited,Altium Designer,23.2.1 (34)*
G04*
G04 Layer_Color=8388736*
%FSLAX44Y44*%
%MOMM*%
G71*
G04*
G04 #@! TF.SameCoordinates,65844937-C824-47D7-9260-582DF4BCFB51*
G04*
G04*
G04 #@! TF.FilePolarity,Negative*
G04*
G01*
G75*
%ADD18R,1.5000X1.0000*%
%ADD19R,0.5500X0.4000*%
%ADD20R,1.7000X0.9000*%
%ADD21R,0.9000X0.2700*%
%ADD22R,0.8000X0.2700*%
%ADD23R,0.6800X0.4800*%
%ADD24R,1.3980X1.3980*%
%ADD25C,1.3980*%
%ADD26C,1.5700*%
%ADD27R,1.5700X1.5700*%
%ADD28C,0.6000*%
G04:AMPARAMS|DCode=29|XSize=0.85mm|YSize=0.5mm|CornerRadius=0.25mm|HoleSize=0mm|Usage=FLASHONLY|Rotation=90.000|XOffset=0mm|YOffset=0mm|HoleType=Round|Shape=RoundedRectangle|*
%AMROUNDEDRECTD29*
21,1,0.8500,0.0000,0,0,90.0*
21,1,0.3500,0.5000,0,0,90.0*
1,1,0.5000,0.0000,0.1750*
1,1,0.5000,0.0000,-0.1750*
1,1,0.5000,0.0000,-0.1750*
1,1,0.5000,0.0000,0.1750*
%
%ADD29ROUNDEDRECTD29*%
G04:AMPARAMS|DCode=30|XSize=1.3mm|YSize=2.6mm|CornerRadius=0.65mm|HoleSize=0mm|Usage=FLASHONLY|Rotation=90.000|XOffset=0mm|YOffset=0mm|HoleType=Round|Shape=RoundedRectangle|*
%AMROUNDEDRECTD30*
21,1,1.3000,1.3000,0,0,90.0*
21,1,0.0000,2.6000,0,0,90.0*
1,1,1.3000,0.6500,0.0000*
1,1,1.3000,0.6500,0.0000*
1,1,1.3000,-0.6500,0.0000*
1,1,1.3000,-0.6500,0.0000*
%
%ADD30ROUNDEDRECTD30*%
G04:AMPARAMS|DCode=31|XSize=0.6mm|YSize=1.9mm|CornerRadius=0.3mm|HoleSize=0mm|Usage=FLASHONLY|Rotation=90.000|XOffset=0mm|YOffset=0mm|HoleType=Round|Shape=RoundedRectangle|*
%AMROUNDEDRECTD31*
21,1,0.6000,1.3000,0,0,90.0*
21,1,0.0000,1.9000,0,0,90.0*
1,1,0.6000,0.6500,0.0000*
1,1,0.6000,0.6500,0.0000*
1,1,0.6000,-0.6500,0.0000*
1,1,0.6000,-0.6500,0.0000*
%
%ADD31ROUNDEDRECTD31*%
G04:AMPARAMS|DCode=32|XSize=1.25mm|YSize=0.7mm|CornerRadius=0.35mm|HoleSize=0mm|Usage=FLASHONLY|Rotation=90.000|XOffset=0mm|YOffset=0mm|HoleType=Round|Shape=RoundedRectangle|*
%AMROUNDEDRECTD32*
21,1,1.2500,0.0000,0,0,90.0*
21,1,0.5500,0.7000,0,0,90.0*
1,1,0.7000,0.0000,0.2750*
1,1,0.7000,0.0000,-0.2750*
1,1,0.7000,0.0000,-0.2750*
1,1,0.7000,0.0000,0.2750*
%
%ADD32ROUNDEDRECTD32*%
G36*
X1091063Y747070D02*
X1091843Y746967D01*
X1092603Y746764D01*
X1093329Y746463D01*
X1094010Y746069D01*
X1094634Y745591D01*
X1095191Y745034D01*
X1095669Y744410D01*
X1096063Y743729D01*
X1096364Y743003D01*
X1096567Y742243D01*
X1096670Y741463D01*
X1096670Y741070D01*
X1096670Y734870D01*
X1096670Y734870D01*
X1096569Y734416D01*
X1096216Y733554D01*
X1095723Y732764D01*
X1095105Y732067D01*
X1094378Y731485D01*
X1093564Y731033D01*
X1092686Y730725D01*
X1091768Y730568D01*
X1091302Y730568D01*
X1091286Y730568D01*
X1091253Y730568D01*
X1091219Y730569D01*
X1091186Y730570D01*
X1091170Y730570D01*
X1090686Y730562D01*
X1089730Y730715D01*
X1088815Y731033D01*
X1087970Y731506D01*
X1087221Y732119D01*
X1086590Y732854D01*
X1086097Y733687D01*
X1085758Y734594D01*
X1085670Y735070D01*
X1079670Y735070D01*
X1079670Y735070D01*
X1079198Y735070D01*
X1078265Y735218D01*
X1077367Y735509D01*
X1076525Y735938D01*
X1075761Y736493D01*
X1075093Y737161D01*
X1074538Y737925D01*
X1074109Y738767D01*
X1073818Y739665D01*
X1073670Y740598D01*
X1073670Y741542D01*
X1073818Y742475D01*
X1074109Y743373D01*
X1074538Y744214D01*
X1075093Y744979D01*
X1075761Y745646D01*
X1076525Y746201D01*
X1077367Y746630D01*
X1078265Y746922D01*
X1079198Y747070D01*
X1079670Y747070D01*
X1090670Y747070D01*
X1091063Y747070D01*
X1091063Y747070D02*
G37*
G36*
X1091170Y665170D02*
X1091187Y665170D01*
X1091220Y665171D01*
X1091253Y665171D01*
X1091286Y665171D01*
X1091302Y665171D01*
X1091768Y665171D01*
X1092686Y665015D01*
X1093564Y664706D01*
X1094378Y664255D01*
X1095105Y663672D01*
X1095723Y662976D01*
X1096216Y662186D01*
X1096569Y661324D01*
X1096670Y660870D01*
X1096670Y654670D01*
X1096670Y654670D01*
X1096670Y654277D01*
X1096567Y653497D01*
X1096364Y652737D01*
X1096063Y652010D01*
X1095669Y651329D01*
X1095191Y650705D01*
X1094634Y650149D01*
X1094010Y649670D01*
X1093329Y649277D01*
X1092603Y648976D01*
X1091843Y648773D01*
X1091063Y648670D01*
X1090670Y648670D01*
X1079670Y648670D01*
X1079670Y648670D01*
X1079277Y648670D01*
X1078497Y648773D01*
X1077737Y648976D01*
X1077010Y649277D01*
X1076329Y649670D01*
X1075705Y650149D01*
X1075149Y650705D01*
X1074670Y651329D01*
X1074277Y652010D01*
X1073976Y652737D01*
X1073773Y653497D01*
X1073670Y654277D01*
X1073670Y654670D01*
X1073670Y655063D01*
X1073773Y655843D01*
X1073976Y656603D01*
X1074277Y657329D01*
X1074670Y658010D01*
X1075149Y658634D01*
X1075705Y659191D01*
X1076329Y659669D01*
X1077010Y660063D01*
X1077737Y660364D01*
X1078497Y660567D01*
X1079277Y660670D01*
X1079670Y660670D01*
X1085670Y660670D01*
X1085670Y660670D01*
X1085758Y661146D01*
X1086097Y662053D01*
X1086590Y662886D01*
X1087221Y663621D01*
X1087970Y664234D01*
X1088815Y664707D01*
X1089730Y665025D01*
X1090686Y665178D01*
X1091170Y665170D01*
X1091170Y665170D02*
G37*
D18*
X996170Y690870D02*
D03*
X996170Y704870D02*
D03*
X1031170Y704870D02*
D03*
X1031170Y690870D02*
D03*
D19*
X1002920Y663870D02*
D03*
X1011420Y663870D02*
D03*
X1011420Y674070D02*
D03*
X1002920Y674070D02*
D03*
D20*
X780420Y618870D02*
D03*
X780420Y654870D02*
D03*
X779420Y735870D02*
D03*
X779420Y771870D02*
D03*
D21*
X1078170Y671620D02*
D03*
X1078170Y676620D02*
D03*
X1078170Y681620D02*
D03*
X1078170Y686620D02*
D03*
X1078170Y691620D02*
D03*
X1078170Y696620D02*
D03*
X1078170Y701620D02*
D03*
X1078170Y706620D02*
D03*
X1078170Y711620D02*
D03*
X1078170Y716620D02*
D03*
X1078170Y721620D02*
D03*
X1078170Y726620D02*
D03*
D22*
X1094170Y669120D02*
D03*
X1094170Y674120D02*
D03*
X1094170Y679120D02*
D03*
X1094170Y684120D02*
D03*
X1094170Y689120D02*
D03*
X1094170Y694120D02*
D03*
X1094170Y699120D02*
D03*
X1094170Y704120D02*
D03*
X1094170Y709120D02*
D03*
X1094170Y714120D02*
D03*
X1094170Y719120D02*
D03*
X1094170Y724120D02*
D03*
D23*
X991670Y726120D02*
D03*
X991670Y736120D02*
D03*
X1020170Y673620D02*
D03*
X1029170Y674120D02*
D03*
X1029170Y664120D02*
D03*
X1020170Y663620D02*
D03*
D24*
X1085270Y592870D02*
D03*
X1087420Y828270D02*
D03*
D25*
X856670Y567470D02*
D03*
X882070Y567470D02*
D03*
X907470Y567470D02*
D03*
X932870Y567470D02*
D03*
X958270Y567470D02*
D03*
X983670Y567470D02*
D03*
X1009070Y567470D02*
D03*
X1034470Y567470D02*
D03*
X1059870Y567470D02*
D03*
X1085270Y567470D02*
D03*
X1059870Y592870D02*
D03*
X1034470Y592870D02*
D03*
X1009070Y592870D02*
D03*
X983670Y592870D02*
D03*
X958270Y592870D02*
D03*
X932870Y592870D02*
D03*
X907470Y592870D02*
D03*
X882070Y592870D02*
D03*
X856670Y592870D02*
D03*
X1062020Y802870D02*
D03*
X1087420Y802870D02*
D03*
X1062020Y828270D02*
D03*
X1036620Y828270D02*
D03*
X1036620Y802870D02*
D03*
X1011220Y828270D02*
D03*
X1011220Y802870D02*
D03*
X985820Y828270D02*
D03*
X985820Y802870D02*
D03*
X960420Y828270D02*
D03*
X960420Y802870D02*
D03*
X935020Y828270D02*
D03*
X935020Y802870D02*
D03*
X909620Y828270D02*
D03*
X909620Y802870D02*
D03*
X884220Y828270D02*
D03*
X884220Y802870D02*
D03*
X858820Y828270D02*
D03*
X858820Y802870D02*
D03*
D26*
X821920Y645870D02*
D03*
X847320Y645870D02*
D03*
X872720Y645870D02*
D03*
X898120Y645870D02*
D03*
X923520Y645870D02*
D03*
X923520Y742870D02*
D03*
X898120Y742870D02*
D03*
X872720Y742870D02*
D03*
X847320Y742870D02*
D03*
X821920Y742870D02*
D03*
D27*
X948920Y645870D02*
D03*
X948920Y742870D02*
D03*
D28*
X1105170Y661870D02*
D03*
D29*
X1104520Y733870D02*
D03*
D30*
X1135670Y654670D02*
D03*
X1135670Y741070D02*
D03*
D31*
X1085170Y654670D02*
D03*
D32*
X1091270Y737820D02*
D03*
M02*
