G04*
G04 #@! TF.GenerationSoftware,Altium Limited,Altium Designer,23.2.1 (34)*
G04*
G04 Layer_Physical_Order=2*
G04 Layer_Color=36540*
%FSLAX44Y44*%
%MOMM*%
G71*
G04*
G04 #@! TF.SameCoordinates,65844937-C824-47D7-9260-582DF4BCFB51*
G04*
G04*
G04 #@! TF.FilePolarity,Positive*
G04*
G01*
G75*
%ADD24R,1.3980X1.3980*%
%ADD25C,1.3980*%
%ADD26C,1.5700*%
%ADD27R,1.5700X1.5700*%
%ADD28C,0.6000*%
G04:AMPARAMS|DCode=29|XSize=0.85mm|YSize=0.5mm|CornerRadius=0.25mm|HoleSize=0mm|Usage=FLASHONLY|Rotation=90.000|XOffset=0mm|YOffset=0mm|HoleType=Round|Shape=RoundedRectangle|*
%AMROUNDEDRECTD29*
21,1,0.8500,0.0000,0,0,90.0*
21,1,0.3500,0.5000,0,0,90.0*
1,1,0.5000,0.0000,0.1750*
1,1,0.5000,0.0000,-0.1750*
1,1,0.5000,0.0000,-0.1750*
1,1,0.5000,0.0000,0.1750*
%
%ADD29ROUNDEDRECTD29*%
G04:AMPARAMS|DCode=30|XSize=1.3mm|YSize=2.6mm|CornerRadius=0.65mm|HoleSize=0mm|Usage=FLASHONLY|Rotation=90.000|XOffset=0mm|YOffset=0mm|HoleType=Round|Shape=RoundedRectangle|*
%AMROUNDEDRECTD30*
21,1,1.3000,1.3000,0,0,90.0*
21,1,0.0000,2.6000,0,0,90.0*
1,1,1.3000,0.6500,0.0000*
1,1,1.3000,0.6500,0.0000*
1,1,1.3000,-0.6500,0.0000*
1,1,1.3000,-0.6500,0.0000*
%
%ADD30ROUNDEDRECTD30*%
G04:AMPARAMS|DCode=31|XSize=0.6mm|YSize=1.9mm|CornerRadius=0.3mm|HoleSize=0mm|Usage=FLASHONLY|Rotation=90.000|XOffset=0mm|YOffset=0mm|HoleType=Round|Shape=RoundedRectangle|*
%AMROUNDEDRECTD31*
21,1,0.6000,1.3000,0,0,90.0*
21,1,0.0000,1.9000,0,0,90.0*
1,1,0.6000,0.6500,0.0000*
1,1,0.6000,0.6500,0.0000*
1,1,0.6000,-0.6500,0.0000*
1,1,0.6000,-0.6500,0.0000*
%
%ADD31ROUNDEDRECTD31*%
G04:AMPARAMS|DCode=32|XSize=1.25mm|YSize=0.7mm|CornerRadius=0.35mm|HoleSize=0mm|Usage=FLASHONLY|Rotation=90.000|XOffset=0mm|YOffset=0mm|HoleType=Round|Shape=RoundedRectangle|*
%AMROUNDEDRECTD32*
21,1,1.2500,0.0000,0,0,90.0*
21,1,0.5500,0.7000,0,0,90.0*
1,1,0.7000,0.0000,0.2750*
1,1,0.7000,0.0000,-0.2750*
1,1,0.7000,0.0000,-0.2750*
1,1,0.7000,0.0000,0.2750*
%
%ADD32ROUNDEDRECTD32*%
%ADD33C,0.3500*%
G36*
X1149361Y746104D02*
X1148091Y745673D01*
X1147519Y746419D01*
X1145952Y747621D01*
X1144128Y748377D01*
X1142170Y748635D01*
X1129170Y748635D01*
X1127212Y748377D01*
X1125387Y747621D01*
X1123821Y746419D01*
X1122619Y744852D01*
X1121863Y743028D01*
X1121605Y741070D01*
X1121863Y739112D01*
X1122619Y737288D01*
X1123821Y735721D01*
X1125387Y734519D01*
X1127212Y733763D01*
X1129170Y733505D01*
X1142170Y733505D01*
X1144128Y733763D01*
X1145952Y734519D01*
X1147519Y735721D01*
X1148091Y736467D01*
X1149361Y736036D01*
X1149361Y659704D01*
X1148091Y659273D01*
X1147519Y660019D01*
X1145952Y661221D01*
X1144128Y661977D01*
X1142170Y662235D01*
X1129170Y662235D01*
X1127212Y661977D01*
X1125387Y661221D01*
X1123821Y660019D01*
X1122619Y658452D01*
X1121863Y656628D01*
X1121605Y654670D01*
X1121863Y652712D01*
X1122619Y650888D01*
X1123821Y649321D01*
X1125387Y648119D01*
X1127212Y647363D01*
X1129170Y647105D01*
X1142170Y647105D01*
X1144128Y647363D01*
X1145952Y648119D01*
X1147519Y649321D01*
X1148091Y650067D01*
X1149361Y649635D01*
X1149361Y525928D01*
X755479Y525928D01*
X755479Y869811D01*
X1149361Y869811D01*
X1149361Y746104D01*
X1149361Y746104D02*
G37*
%LPC*%
G36*
X961670Y837760D02*
X961670Y829520D01*
X969910Y829520D01*
X969263Y831933D01*
X968014Y834097D01*
X966247Y835864D01*
X964083Y837113D01*
X961670Y837760D01*
X961670Y837760D02*
G37*
G36*
X959170Y837760D02*
X956757Y837113D01*
X954593Y835864D01*
X952826Y834097D01*
X951577Y831933D01*
X950930Y829520D01*
X959170Y829520D01*
X959170Y837760D01*
X959170Y837760D02*
G37*
G36*
X1095410Y836260D02*
X1079430Y836260D01*
X1079430Y820280D01*
X1095410Y820280D01*
X1095410Y836260D01*
X1095410Y836260D02*
G37*
G36*
X1063072Y836260D02*
X1060968Y836260D01*
X1058936Y835715D01*
X1057114Y834663D01*
X1055626Y833176D01*
X1054574Y831354D01*
X1054030Y829322D01*
X1054030Y827218D01*
X1054574Y825186D01*
X1055626Y823364D01*
X1057114Y821876D01*
X1058936Y820824D01*
X1060968Y820280D01*
X1063072Y820280D01*
X1065104Y820824D01*
X1066926Y821876D01*
X1068413Y823364D01*
X1069465Y825186D01*
X1070010Y827218D01*
X1070010Y829322D01*
X1069465Y831354D01*
X1068413Y833176D01*
X1066926Y834663D01*
X1065104Y835715D01*
X1063072Y836260D01*
X1063072Y836260D02*
G37*
G36*
X1037672Y836260D02*
X1035568Y836260D01*
X1033536Y835715D01*
X1031714Y834663D01*
X1030226Y833176D01*
X1029174Y831354D01*
X1028630Y829322D01*
X1028630Y827218D01*
X1029174Y825186D01*
X1030226Y823364D01*
X1031714Y821876D01*
X1033536Y820824D01*
X1035568Y820280D01*
X1037672Y820280D01*
X1039704Y820824D01*
X1041526Y821876D01*
X1043014Y823364D01*
X1044065Y825186D01*
X1044610Y827218D01*
X1044610Y829322D01*
X1044065Y831354D01*
X1043014Y833176D01*
X1041526Y834663D01*
X1039704Y835715D01*
X1037672Y836260D01*
X1037672Y836260D02*
G37*
G36*
X1012272Y836260D02*
X1010168Y836260D01*
X1008136Y835715D01*
X1006314Y834663D01*
X1004826Y833176D01*
X1003774Y831354D01*
X1003230Y829322D01*
X1003230Y827218D01*
X1003774Y825186D01*
X1004826Y823364D01*
X1006314Y821876D01*
X1008136Y820824D01*
X1010168Y820280D01*
X1012272Y820280D01*
X1014304Y820824D01*
X1016126Y821876D01*
X1017614Y823364D01*
X1018665Y825186D01*
X1019210Y827218D01*
X1019210Y829322D01*
X1018665Y831354D01*
X1017614Y833176D01*
X1016126Y834663D01*
X1014304Y835715D01*
X1012272Y836260D01*
X1012272Y836260D02*
G37*
G36*
X986872Y836260D02*
X984768Y836260D01*
X982736Y835715D01*
X980914Y834663D01*
X979426Y833176D01*
X978374Y831354D01*
X977830Y829322D01*
X977830Y827218D01*
X978374Y825186D01*
X979426Y823364D01*
X980914Y821876D01*
X982736Y820824D01*
X984768Y820280D01*
X986872Y820280D01*
X988904Y820824D01*
X990726Y821876D01*
X992214Y823364D01*
X993265Y825186D01*
X993810Y827218D01*
X993810Y829322D01*
X993265Y831354D01*
X992214Y833176D01*
X990726Y834663D01*
X988904Y835715D01*
X986872Y836260D01*
X986872Y836260D02*
G37*
G36*
X936072Y836260D02*
X933968Y836260D01*
X931936Y835715D01*
X930114Y834663D01*
X928626Y833176D01*
X927574Y831354D01*
X927030Y829322D01*
X927030Y827218D01*
X927574Y825186D01*
X928626Y823364D01*
X930114Y821876D01*
X931936Y820824D01*
X933968Y820280D01*
X936072Y820280D01*
X938104Y820824D01*
X939926Y821876D01*
X941413Y823364D01*
X942465Y825186D01*
X943010Y827218D01*
X943010Y829322D01*
X942465Y831354D01*
X941413Y833176D01*
X939926Y834663D01*
X938104Y835715D01*
X936072Y836260D01*
X936072Y836260D02*
G37*
G36*
X910672Y836260D02*
X908568Y836260D01*
X906536Y835715D01*
X904714Y834663D01*
X903226Y833176D01*
X902174Y831354D01*
X901630Y829322D01*
X901630Y827218D01*
X902174Y825186D01*
X903226Y823364D01*
X904714Y821876D01*
X906536Y820824D01*
X908568Y820280D01*
X910672Y820280D01*
X912704Y820824D01*
X914526Y821876D01*
X916013Y823364D01*
X917065Y825186D01*
X917610Y827218D01*
X917610Y829322D01*
X917065Y831354D01*
X916013Y833176D01*
X914526Y834663D01*
X912704Y835715D01*
X910672Y836260D01*
X910672Y836260D02*
G37*
G36*
X885272Y836260D02*
X883168Y836260D01*
X881136Y835715D01*
X879314Y834663D01*
X877826Y833176D01*
X876774Y831354D01*
X876230Y829322D01*
X876230Y827218D01*
X876774Y825186D01*
X877826Y823364D01*
X879314Y821876D01*
X881136Y820824D01*
X883168Y820280D01*
X885272Y820280D01*
X887304Y820824D01*
X889126Y821876D01*
X890613Y823364D01*
X891665Y825186D01*
X892210Y827218D01*
X892210Y829322D01*
X891665Y831354D01*
X890613Y833176D01*
X889126Y834663D01*
X887304Y835715D01*
X885272Y836260D01*
X885272Y836260D02*
G37*
G36*
X859872Y836260D02*
X857768Y836260D01*
X855736Y835715D01*
X853914Y834663D01*
X852426Y833176D01*
X851374Y831354D01*
X850830Y829322D01*
X850830Y827218D01*
X851374Y825186D01*
X852426Y823364D01*
X853914Y821876D01*
X855736Y820824D01*
X857768Y820280D01*
X859872Y820280D01*
X861904Y820824D01*
X863726Y821876D01*
X865213Y823364D01*
X866265Y825186D01*
X866810Y827218D01*
X866810Y829322D01*
X866265Y831354D01*
X865213Y833176D01*
X863726Y834663D01*
X861904Y835715D01*
X859872Y836260D01*
X859872Y836260D02*
G37*
G36*
X969910Y827020D02*
X961670Y827020D01*
X961670Y818780D01*
X964083Y819427D01*
X966247Y820676D01*
X968014Y822443D01*
X969263Y824607D01*
X969910Y827020D01*
X969910Y827020D02*
G37*
G36*
X959170Y827020D02*
X950930Y827020D01*
X951577Y824607D01*
X952826Y822443D01*
X954593Y820676D01*
X956757Y819427D01*
X959170Y818780D01*
X959170Y827020D01*
X959170Y827020D02*
G37*
G36*
X1063270Y812360D02*
X1063270Y804120D01*
X1071510Y804120D01*
X1070863Y806533D01*
X1069614Y808697D01*
X1067847Y810464D01*
X1065683Y811713D01*
X1063270Y812360D01*
X1063270Y812360D02*
G37*
G36*
X1060770Y812360D02*
X1058357Y811713D01*
X1056193Y810464D01*
X1054426Y808697D01*
X1053177Y806533D01*
X1052530Y804120D01*
X1060770Y804120D01*
X1060770Y812360D01*
X1060770Y812360D02*
G37*
G36*
X1037870Y812360D02*
X1037870Y804120D01*
X1046110Y804120D01*
X1045463Y806533D01*
X1044214Y808697D01*
X1042447Y810464D01*
X1040283Y811713D01*
X1037870Y812360D01*
X1037870Y812360D02*
G37*
G36*
X1035370Y812360D02*
X1032957Y811713D01*
X1030793Y810464D01*
X1029026Y808697D01*
X1027777Y806533D01*
X1027130Y804120D01*
X1035370Y804120D01*
X1035370Y812360D01*
X1035370Y812360D02*
G37*
G36*
X1012470Y812360D02*
X1012470Y804120D01*
X1020710Y804120D01*
X1020063Y806533D01*
X1018814Y808697D01*
X1017047Y810464D01*
X1014883Y811713D01*
X1012470Y812360D01*
X1012470Y812360D02*
G37*
G36*
X1009970Y812360D02*
X1007557Y811713D01*
X1005393Y810464D01*
X1003626Y808697D01*
X1002377Y806533D01*
X1001730Y804120D01*
X1009970Y804120D01*
X1009970Y812360D01*
X1009970Y812360D02*
G37*
G36*
X987070Y812360D02*
X987070Y804120D01*
X995310Y804120D01*
X994663Y806533D01*
X993414Y808697D01*
X991647Y810464D01*
X989483Y811713D01*
X987070Y812360D01*
X987070Y812360D02*
G37*
G36*
X984570Y812360D02*
X982157Y811713D01*
X979993Y810464D01*
X978226Y808697D01*
X976977Y806533D01*
X976330Y804120D01*
X984570Y804120D01*
X984570Y812360D01*
X984570Y812360D02*
G37*
G36*
X961670Y812360D02*
X961670Y804120D01*
X969910Y804120D01*
X969263Y806533D01*
X968014Y808697D01*
X966247Y810464D01*
X964083Y811713D01*
X961670Y812360D01*
X961670Y812360D02*
G37*
G36*
X959170Y812360D02*
X956757Y811713D01*
X954593Y810464D01*
X952826Y808697D01*
X951577Y806533D01*
X950930Y804120D01*
X959170Y804120D01*
X959170Y812360D01*
X959170Y812360D02*
G37*
G36*
X936270Y812360D02*
X936270Y804120D01*
X944510Y804120D01*
X943863Y806533D01*
X942614Y808697D01*
X940847Y810464D01*
X938683Y811713D01*
X936270Y812360D01*
X936270Y812360D02*
G37*
G36*
X933770Y812360D02*
X931357Y811713D01*
X929193Y810464D01*
X927426Y808697D01*
X926177Y806533D01*
X925530Y804120D01*
X933770Y804120D01*
X933770Y812360D01*
X933770Y812360D02*
G37*
G36*
X910870Y812360D02*
X910870Y804120D01*
X919110Y804120D01*
X918463Y806533D01*
X917214Y808697D01*
X915447Y810464D01*
X913283Y811713D01*
X910870Y812360D01*
X910870Y812360D02*
G37*
G36*
X908370Y812360D02*
X905957Y811713D01*
X903793Y810464D01*
X902026Y808697D01*
X900777Y806533D01*
X900130Y804120D01*
X908370Y804120D01*
X908370Y812360D01*
X908370Y812360D02*
G37*
G36*
X885470Y812360D02*
X885470Y804120D01*
X893710Y804120D01*
X893063Y806533D01*
X891814Y808697D01*
X890047Y810464D01*
X887883Y811713D01*
X885470Y812360D01*
X885470Y812360D02*
G37*
G36*
X882970Y812360D02*
X880557Y811713D01*
X878393Y810464D01*
X876626Y808697D01*
X875377Y806533D01*
X874730Y804120D01*
X882970Y804120D01*
X882970Y812360D01*
X882970Y812360D02*
G37*
G36*
X860070Y812360D02*
X860070Y804120D01*
X868310Y804120D01*
X867663Y806533D01*
X866414Y808697D01*
X864647Y810464D01*
X862483Y811713D01*
X860070Y812360D01*
X860070Y812360D02*
G37*
G36*
X857570Y812360D02*
X855157Y811713D01*
X852993Y810464D01*
X851226Y808697D01*
X849977Y806533D01*
X849330Y804120D01*
X857570Y804120D01*
X857570Y812360D01*
X857570Y812360D02*
G37*
G36*
X1088472Y810860D02*
X1086368Y810860D01*
X1084336Y810315D01*
X1082514Y809264D01*
X1081026Y807776D01*
X1079974Y805954D01*
X1079430Y803922D01*
X1079430Y801818D01*
X1079974Y799786D01*
X1081026Y797964D01*
X1082514Y796476D01*
X1084336Y795424D01*
X1086368Y794880D01*
X1088472Y794880D01*
X1090504Y795424D01*
X1092326Y796476D01*
X1093813Y797964D01*
X1094865Y799786D01*
X1095410Y801818D01*
X1095410Y803922D01*
X1094865Y805954D01*
X1093813Y807776D01*
X1092326Y809264D01*
X1090504Y810315D01*
X1088472Y810860D01*
X1088472Y810860D02*
G37*
G36*
X1071510Y801620D02*
X1063270Y801620D01*
X1063270Y793380D01*
X1065683Y794027D01*
X1067847Y795276D01*
X1069614Y797043D01*
X1070863Y799207D01*
X1071510Y801620D01*
X1071510Y801620D02*
G37*
G36*
X1060770Y801620D02*
X1052530Y801620D01*
X1053177Y799207D01*
X1054426Y797043D01*
X1056193Y795276D01*
X1058357Y794027D01*
X1060770Y793380D01*
X1060770Y801620D01*
X1060770Y801620D02*
G37*
G36*
X1046110Y801620D02*
X1037870Y801620D01*
X1037870Y793380D01*
X1040283Y794027D01*
X1042447Y795276D01*
X1044214Y797043D01*
X1045463Y799207D01*
X1046110Y801620D01*
X1046110Y801620D02*
G37*
G36*
X1035370Y801620D02*
X1027130Y801620D01*
X1027777Y799207D01*
X1029026Y797043D01*
X1030793Y795276D01*
X1032957Y794027D01*
X1035370Y793380D01*
X1035370Y801620D01*
X1035370Y801620D02*
G37*
G36*
X1020710Y801620D02*
X1012470Y801620D01*
X1012470Y793380D01*
X1014883Y794027D01*
X1017047Y795276D01*
X1018814Y797043D01*
X1020063Y799207D01*
X1020710Y801620D01*
X1020710Y801620D02*
G37*
G36*
X1009970Y801620D02*
X1001730Y801620D01*
X1002377Y799207D01*
X1003626Y797043D01*
X1005393Y795276D01*
X1007557Y794027D01*
X1009970Y793380D01*
X1009970Y801620D01*
X1009970Y801620D02*
G37*
G36*
X995310Y801620D02*
X987070Y801620D01*
X987070Y793380D01*
X989483Y794027D01*
X991647Y795276D01*
X993414Y797043D01*
X994663Y799207D01*
X995310Y801620D01*
X995310Y801620D02*
G37*
G36*
X984570Y801620D02*
X976330Y801620D01*
X976977Y799207D01*
X978226Y797043D01*
X979993Y795276D01*
X982157Y794027D01*
X984570Y793380D01*
X984570Y801620D01*
X984570Y801620D02*
G37*
G36*
X969910Y801620D02*
X961670Y801620D01*
X961670Y793380D01*
X964083Y794027D01*
X966247Y795276D01*
X968014Y797043D01*
X969263Y799207D01*
X969910Y801620D01*
X969910Y801620D02*
G37*
G36*
X959170Y801620D02*
X950930Y801620D01*
X951577Y799207D01*
X952826Y797043D01*
X954593Y795276D01*
X956757Y794027D01*
X959170Y793380D01*
X959170Y801620D01*
X959170Y801620D02*
G37*
G36*
X944510Y801620D02*
X936270Y801620D01*
X936270Y793380D01*
X938683Y794027D01*
X940847Y795276D01*
X942614Y797043D01*
X943863Y799207D01*
X944510Y801620D01*
X944510Y801620D02*
G37*
G36*
X933770Y801620D02*
X925530Y801620D01*
X926177Y799207D01*
X927426Y797043D01*
X929193Y795276D01*
X931357Y794027D01*
X933770Y793380D01*
X933770Y801620D01*
X933770Y801620D02*
G37*
G36*
X919110Y801620D02*
X910870Y801620D01*
X910870Y793380D01*
X913283Y794027D01*
X915447Y795276D01*
X917214Y797043D01*
X918463Y799207D01*
X919110Y801620D01*
X919110Y801620D02*
G37*
G36*
X908370Y801620D02*
X900130Y801620D01*
X900777Y799207D01*
X902026Y797043D01*
X903793Y795276D01*
X905957Y794027D01*
X908370Y793380D01*
X908370Y801620D01*
X908370Y801620D02*
G37*
G36*
X893710Y801620D02*
X885470Y801620D01*
X885470Y793380D01*
X887883Y794027D01*
X890047Y795276D01*
X891814Y797043D01*
X893063Y799207D01*
X893710Y801620D01*
X893710Y801620D02*
G37*
G36*
X882970Y801620D02*
X874730Y801620D01*
X875377Y799207D01*
X876626Y797043D01*
X878393Y795276D01*
X880557Y794027D01*
X882970Y793380D01*
X882970Y801620D01*
X882970Y801620D02*
G37*
G36*
X868310Y801620D02*
X860070Y801620D01*
X860070Y793380D01*
X862483Y794027D01*
X864647Y795276D01*
X866414Y797043D01*
X867663Y799207D01*
X868310Y801620D01*
X868310Y801620D02*
G37*
G36*
X857570Y801620D02*
X849330Y801620D01*
X849977Y799207D01*
X851226Y797043D01*
X852993Y795276D01*
X855157Y794027D01*
X857570Y793380D01*
X857570Y801620D01*
X857570Y801620D02*
G37*
G36*
X1090670Y748152D02*
X1090670Y748152D01*
X1090670Y748152D01*
X1079670Y748152D01*
X1079198Y748152D01*
X1079115Y748118D01*
X1079028Y748139D01*
X1078096Y747991D01*
X1078019Y747944D01*
X1077930Y747952D01*
X1077032Y747660D01*
X1076964Y747602D01*
X1076875Y747595D01*
X1076034Y747166D01*
X1075976Y747098D01*
X1075889Y747077D01*
X1075125Y746522D01*
X1075078Y746446D01*
X1074996Y746412D01*
X1074328Y745744D01*
X1074294Y745661D01*
X1074218Y745615D01*
X1073663Y744851D01*
X1073642Y744764D01*
X1073574Y744706D01*
X1073145Y743865D01*
X1073138Y743775D01*
X1073080Y743708D01*
X1072788Y742809D01*
X1072795Y742720D01*
X1072749Y742644D01*
X1072601Y741711D01*
X1072622Y741625D01*
X1072588Y741542D01*
X1072588Y740598D01*
X1072622Y740515D01*
X1072601Y740428D01*
X1072749Y739495D01*
X1072795Y739419D01*
X1072788Y739330D01*
X1073080Y738432D01*
X1073138Y738364D01*
X1073145Y738275D01*
X1073574Y737434D01*
X1073642Y737376D01*
X1073663Y737289D01*
X1074218Y736525D01*
X1074294Y736478D01*
X1074328Y736396D01*
X1074996Y735728D01*
X1075078Y735694D01*
X1075125Y735618D01*
X1075889Y735063D01*
X1075976Y735042D01*
X1076034Y734974D01*
X1076875Y734545D01*
X1076964Y734538D01*
X1077032Y734480D01*
X1077930Y734188D01*
X1078019Y734195D01*
X1078096Y734149D01*
X1079028Y734001D01*
X1079115Y734022D01*
X1079198Y733988D01*
X1079670Y733988D01*
X1079670Y733988D01*
X1084829Y733988D01*
X1085084Y733307D01*
X1085152Y733235D01*
X1085166Y733136D01*
X1085658Y732303D01*
X1085738Y732243D01*
X1085769Y732148D01*
X1086400Y731414D01*
X1086488Y731369D01*
X1086535Y731281D01*
X1087285Y730668D01*
X1087380Y730639D01*
X1087442Y730561D01*
X1088287Y730088D01*
X1088385Y730077D01*
X1088460Y730011D01*
X1089374Y729693D01*
X1089474Y729698D01*
X1089558Y729646D01*
X1090514Y729493D01*
X1090611Y729516D01*
X1090704Y729480D01*
X1091167Y729487D01*
X1091200Y729487D01*
X1091203Y729488D01*
X1091206Y729487D01*
X1091239Y729486D01*
X1091243Y729488D01*
X1091247Y729486D01*
X1091280Y729486D01*
X1091283Y729487D01*
X1091286Y729486D01*
X1091768Y729486D01*
X1091857Y729522D01*
X1091950Y729501D01*
X1092868Y729658D01*
X1092949Y729709D01*
X1093045Y729704D01*
X1093923Y730012D01*
X1093994Y730076D01*
X1094090Y730087D01*
X1094904Y730539D01*
X1094963Y730614D01*
X1095055Y730641D01*
X1095782Y731223D01*
X1095828Y731307D01*
X1095914Y731349D01*
X1096533Y732045D01*
X1096564Y732135D01*
X1096642Y732191D01*
X1097134Y732981D01*
X1097150Y733076D01*
X1097217Y733144D01*
X1097570Y734006D01*
X1097570Y734101D01*
X1097625Y734180D01*
X1097726Y734634D01*
X1097705Y734756D01*
X1097752Y734870D01*
X1097752Y741463D01*
X1097724Y741532D01*
X1097743Y741604D01*
X1097640Y742384D01*
X1097603Y742449D01*
X1097613Y742523D01*
X1097409Y743283D01*
X1097364Y743342D01*
X1097364Y743417D01*
X1097063Y744144D01*
X1097010Y744196D01*
X1097000Y744270D01*
X1096607Y744952D01*
X1096547Y744997D01*
X1096528Y745069D01*
X1096049Y745693D01*
X1095985Y745731D01*
X1095956Y745800D01*
X1095400Y746356D01*
X1095331Y746385D01*
X1095293Y746449D01*
X1094669Y746928D01*
X1094597Y746947D01*
X1094552Y747007D01*
X1093870Y747400D01*
X1093796Y747410D01*
X1093744Y747463D01*
X1093017Y747764D01*
X1092942Y747764D01*
X1092883Y747809D01*
X1092123Y748013D01*
X1092049Y748003D01*
X1091984Y748040D01*
X1091204Y748143D01*
X1091132Y748124D01*
X1091063Y748152D01*
X1090670Y748152D01*
X1090670Y748152D02*
G37*
G36*
X992217Y752370D02*
X991123Y752370D01*
X990112Y751951D01*
X989339Y751178D01*
X988920Y750167D01*
X988920Y749073D01*
X989339Y748062D01*
X990112Y747289D01*
X991123Y746870D01*
X992217Y746870D01*
X993228Y747289D01*
X994001Y748062D01*
X994420Y749073D01*
X994420Y750167D01*
X994001Y751178D01*
X993228Y751951D01*
X992217Y752370D01*
X992217Y752370D02*
G37*
G36*
X899482Y753220D02*
X899370Y753220D01*
X899370Y744120D01*
X908470Y744120D01*
X908470Y744232D01*
X907765Y746865D01*
X906402Y749225D01*
X904475Y751152D01*
X902115Y752514D01*
X899482Y753220D01*
X899482Y753220D02*
G37*
G36*
X896870Y753220D02*
X896757Y753220D01*
X894125Y752514D01*
X891765Y751152D01*
X889838Y749225D01*
X888475Y746865D01*
X887770Y744232D01*
X887770Y744120D01*
X896870Y744120D01*
X896870Y753220D01*
X896870Y753220D02*
G37*
G36*
X957770Y751720D02*
X940070Y751720D01*
X940070Y734020D01*
X957770Y734020D01*
X957770Y751720D01*
X957770Y751720D02*
G37*
G36*
X924685Y751720D02*
X922355Y751720D01*
X920104Y751117D01*
X918086Y749952D01*
X916438Y748304D01*
X915273Y746286D01*
X914670Y744035D01*
X914670Y741705D01*
X915273Y739454D01*
X916438Y737436D01*
X918086Y735788D01*
X920104Y734623D01*
X922355Y734020D01*
X924685Y734020D01*
X926936Y734623D01*
X928954Y735788D01*
X930602Y737436D01*
X931767Y739454D01*
X932370Y741705D01*
X932370Y744035D01*
X931767Y746286D01*
X930602Y748304D01*
X928954Y749952D01*
X926936Y751117D01*
X924685Y751720D01*
X924685Y751720D02*
G37*
G36*
X873885Y751720D02*
X871555Y751720D01*
X869304Y751117D01*
X867286Y749952D01*
X865638Y748304D01*
X864473Y746286D01*
X863870Y744035D01*
X863870Y741705D01*
X864473Y739454D01*
X865638Y737436D01*
X867286Y735788D01*
X869304Y734623D01*
X871555Y734020D01*
X873885Y734020D01*
X876136Y734623D01*
X878154Y735788D01*
X879802Y737436D01*
X880967Y739454D01*
X881570Y741705D01*
X881570Y744035D01*
X880967Y746286D01*
X879802Y748304D01*
X878154Y749952D01*
X876136Y751117D01*
X873885Y751720D01*
X873885Y751720D02*
G37*
G36*
X848485Y751720D02*
X846155Y751720D01*
X843904Y751117D01*
X841886Y749952D01*
X840238Y748304D01*
X839073Y746286D01*
X838470Y744035D01*
X838470Y741705D01*
X839073Y739454D01*
X840238Y737436D01*
X841886Y735788D01*
X843904Y734623D01*
X846155Y734020D01*
X848485Y734020D01*
X850736Y734623D01*
X852754Y735788D01*
X854402Y737436D01*
X855567Y739454D01*
X856170Y741705D01*
X856170Y744035D01*
X855567Y746286D01*
X854402Y748304D01*
X852754Y749952D01*
X850736Y751117D01*
X848485Y751720D01*
X848485Y751720D02*
G37*
G36*
X823085Y751720D02*
X820755Y751720D01*
X818504Y751117D01*
X816486Y749952D01*
X814838Y748304D01*
X813673Y746286D01*
X813070Y744035D01*
X813070Y741705D01*
X813673Y739454D01*
X814838Y737436D01*
X816486Y735788D01*
X818504Y734623D01*
X820755Y734020D01*
X823085Y734020D01*
X825336Y734623D01*
X827354Y735788D01*
X829002Y737436D01*
X830167Y739454D01*
X830770Y741705D01*
X830770Y744035D01*
X830167Y746286D01*
X829002Y748304D01*
X827354Y749952D01*
X825336Y751117D01*
X823085Y751720D01*
X823085Y751720D02*
G37*
G36*
X908470Y741620D02*
X899370Y741620D01*
X899370Y732520D01*
X899482Y732520D01*
X902115Y733225D01*
X904475Y734588D01*
X906402Y736515D01*
X907765Y738875D01*
X908470Y741507D01*
X908470Y741620D01*
X908470Y741620D02*
G37*
G36*
X896870Y741620D02*
X887770Y741620D01*
X887770Y741507D01*
X888475Y738875D01*
X889838Y736515D01*
X891765Y734588D01*
X894125Y733225D01*
X896757Y732520D01*
X896870Y732520D01*
X896870Y741620D01*
X896870Y741620D02*
G37*
G36*
X1104520Y739189D02*
X1103154Y738917D01*
X1101997Y738143D01*
X1101223Y736985D01*
X1100951Y735620D01*
X1100951Y732120D01*
X1101223Y730754D01*
X1101997Y729596D01*
X1103154Y728823D01*
X1104520Y728551D01*
X1105885Y728823D01*
X1107043Y729596D01*
X1107817Y730754D01*
X1108089Y732120D01*
X1108089Y735620D01*
X1107817Y736985D01*
X1107043Y738143D01*
X1105885Y738917D01*
X1104520Y739189D01*
X1104520Y739189D02*
G37*
G36*
X779217Y730120D02*
X778123Y730120D01*
X777112Y729701D01*
X776339Y728928D01*
X775920Y727917D01*
X775920Y726823D01*
X776339Y725812D01*
X777112Y725039D01*
X778123Y724620D01*
X779217Y724620D01*
X780228Y725039D01*
X781001Y725812D01*
X781420Y726823D01*
X781420Y727917D01*
X781001Y728928D01*
X780228Y729701D01*
X779217Y730120D01*
X779217Y730120D02*
G37*
G36*
X771217Y715620D02*
X770123Y715620D01*
X769112Y715201D01*
X768339Y714428D01*
X767920Y713417D01*
X767920Y712323D01*
X768339Y711312D01*
X769112Y710539D01*
X770123Y710120D01*
X771217Y710120D01*
X772228Y710539D01*
X773001Y711312D01*
X773420Y712323D01*
X773420Y713417D01*
X773001Y714428D01*
X772228Y715201D01*
X771217Y715620D01*
X771217Y715620D02*
G37*
G36*
X1069967Y714370D02*
X1068873Y714370D01*
X1067862Y713951D01*
X1067089Y713178D01*
X1066670Y712167D01*
X1066670Y711073D01*
X1067089Y710062D01*
X1067862Y709289D01*
X1068873Y708870D01*
X1069967Y708870D01*
X1070978Y709289D01*
X1071751Y710062D01*
X1072170Y711073D01*
X1072170Y712167D01*
X1071751Y713178D01*
X1070978Y713951D01*
X1069967Y714370D01*
X1069967Y714370D02*
G37*
G36*
X865217Y707520D02*
X864123Y707520D01*
X863112Y707101D01*
X862339Y706328D01*
X861920Y705317D01*
X861920Y704223D01*
X862339Y703212D01*
X863112Y702439D01*
X864123Y702020D01*
X865217Y702020D01*
X866228Y702439D01*
X867001Y703212D01*
X867420Y704223D01*
X867420Y705317D01*
X867001Y706328D01*
X866228Y707101D01*
X865217Y707520D01*
X865217Y707520D02*
G37*
G36*
X840717Y707520D02*
X839623Y707520D01*
X838612Y707101D01*
X837839Y706328D01*
X837420Y705317D01*
X837420Y704223D01*
X837839Y703212D01*
X838612Y702439D01*
X839623Y702020D01*
X840717Y702020D01*
X841728Y702439D01*
X842501Y703212D01*
X842920Y704223D01*
X842920Y705317D01*
X842501Y706328D01*
X841728Y707101D01*
X840717Y707520D01*
X840717Y707520D02*
G37*
G36*
X1101717Y701870D02*
X1100623Y701870D01*
X1099612Y701451D01*
X1098839Y700678D01*
X1098420Y699667D01*
X1098420Y698573D01*
X1098839Y697562D01*
X1099612Y696789D01*
X1100623Y696370D01*
X1101717Y696370D01*
X1102728Y696789D01*
X1103501Y697562D01*
X1103920Y698573D01*
X1103920Y699667D01*
X1103501Y700678D01*
X1102728Y701451D01*
X1101717Y701870D01*
X1101717Y701870D02*
G37*
G36*
X1069967Y699370D02*
X1068873Y699370D01*
X1067862Y698951D01*
X1067089Y698178D01*
X1066670Y697167D01*
X1066670Y696073D01*
X1067089Y695062D01*
X1067862Y694289D01*
X1068873Y693870D01*
X1069967Y693870D01*
X1070978Y694289D01*
X1071751Y695062D01*
X1072170Y696073D01*
X1072170Y697167D01*
X1071751Y698178D01*
X1070978Y698951D01*
X1069967Y699370D01*
X1069967Y699370D02*
G37*
G36*
X1085817Y694120D02*
X1084723Y694120D01*
X1083712Y693701D01*
X1082939Y692928D01*
X1082520Y691917D01*
X1082520Y690823D01*
X1082939Y689812D01*
X1083712Y689039D01*
X1084723Y688620D01*
X1085817Y688620D01*
X1086828Y689039D01*
X1087601Y689812D01*
X1088020Y690823D01*
X1088020Y691917D01*
X1087601Y692928D01*
X1086828Y693701D01*
X1085817Y694120D01*
X1085817Y694120D02*
G37*
G36*
X1122467Y692120D02*
X1121373Y692120D01*
X1120362Y691701D01*
X1119589Y690928D01*
X1119170Y689917D01*
X1119170Y688823D01*
X1119589Y687812D01*
X1120362Y687039D01*
X1121373Y686620D01*
X1122467Y686620D01*
X1123478Y687039D01*
X1124251Y687812D01*
X1124670Y688823D01*
X1124670Y689917D01*
X1124251Y690928D01*
X1123478Y691701D01*
X1122467Y692120D01*
X1122467Y692120D02*
G37*
G36*
X1069967Y689370D02*
X1068873Y689370D01*
X1067862Y688951D01*
X1067089Y688178D01*
X1066670Y687167D01*
X1066670Y686073D01*
X1067089Y685062D01*
X1067862Y684288D01*
X1068873Y683870D01*
X1069967Y683870D01*
X1070978Y684288D01*
X1071751Y685062D01*
X1072170Y686073D01*
X1072170Y687167D01*
X1071751Y688178D01*
X1070978Y688951D01*
X1069967Y689370D01*
X1069967Y689370D02*
G37*
G36*
X881167Y685820D02*
X880073Y685820D01*
X879062Y685401D01*
X878288Y684628D01*
X877870Y683617D01*
X877870Y682523D01*
X878288Y681512D01*
X879062Y680739D01*
X880073Y680320D01*
X881167Y680320D01*
X882178Y680739D01*
X882951Y681512D01*
X883370Y682523D01*
X883370Y683617D01*
X882951Y684628D01*
X882178Y685401D01*
X881167Y685820D01*
X881167Y685820D02*
G37*
G36*
X855217Y685620D02*
X854123Y685620D01*
X853112Y685201D01*
X852339Y684428D01*
X851920Y683417D01*
X851920Y682323D01*
X852339Y681312D01*
X853112Y680539D01*
X854123Y680120D01*
X855217Y680120D01*
X856228Y680539D01*
X857001Y681312D01*
X857420Y682323D01*
X857420Y683417D01*
X857001Y684428D01*
X856228Y685201D01*
X855217Y685620D01*
X855217Y685620D02*
G37*
G36*
X1057217Y681870D02*
X1056123Y681870D01*
X1055112Y681451D01*
X1054339Y680678D01*
X1054093Y680085D01*
X1052747Y680085D01*
X1052501Y680678D01*
X1051728Y681451D01*
X1050717Y681870D01*
X1049623Y681870D01*
X1048612Y681451D01*
X1047839Y680678D01*
X1047420Y679667D01*
X1047420Y678573D01*
X1047839Y677562D01*
X1048612Y676789D01*
X1049623Y676370D01*
X1050717Y676370D01*
X1051728Y676789D01*
X1052501Y677562D01*
X1052747Y678155D01*
X1054093Y678155D01*
X1054339Y677562D01*
X1055112Y676789D01*
X1056123Y676370D01*
X1057217Y676370D01*
X1058228Y676789D01*
X1059001Y677562D01*
X1059420Y678573D01*
X1059420Y679667D01*
X1059001Y680678D01*
X1058228Y681451D01*
X1057217Y681870D01*
X1057217Y681870D02*
G37*
G36*
X1020717Y684370D02*
X1019623Y684370D01*
X1018612Y683951D01*
X1017839Y683178D01*
X1017420Y682167D01*
X1017420Y681073D01*
X1017839Y680062D01*
X1018612Y679289D01*
X1019623Y678870D01*
X1020717Y678870D01*
X1021728Y679289D01*
X1022501Y680062D01*
X1022920Y681073D01*
X1022920Y682167D01*
X1022501Y683178D01*
X1021728Y683951D01*
X1020717Y684370D01*
X1020717Y684370D02*
G37*
G36*
X1090704Y666260D02*
X1090611Y666224D01*
X1090515Y666247D01*
X1089558Y666093D01*
X1089474Y666041D01*
X1089374Y666047D01*
X1088460Y665729D01*
X1088385Y665663D01*
X1088287Y665651D01*
X1087442Y665179D01*
X1087380Y665100D01*
X1087285Y665072D01*
X1086535Y664458D01*
X1086488Y664371D01*
X1086400Y664326D01*
X1085769Y663591D01*
X1085738Y663497D01*
X1085658Y663437D01*
X1085166Y662604D01*
X1085152Y662505D01*
X1085084Y662432D01*
X1084829Y661752D01*
X1079277Y661752D01*
X1079208Y661724D01*
X1079135Y661743D01*
X1078356Y661640D01*
X1078291Y661603D01*
X1078217Y661613D01*
X1077457Y661409D01*
X1077398Y661364D01*
X1077323Y661364D01*
X1076596Y661063D01*
X1076543Y661010D01*
X1076469Y661000D01*
X1075788Y660607D01*
X1075743Y660547D01*
X1075670Y660528D01*
X1075046Y660049D01*
X1075009Y659985D01*
X1074940Y659956D01*
X1074384Y659400D01*
X1074355Y659331D01*
X1074290Y659293D01*
X1073812Y658669D01*
X1073792Y658597D01*
X1073733Y658552D01*
X1073340Y657870D01*
X1073330Y657796D01*
X1073277Y657744D01*
X1072976Y657017D01*
X1072976Y656942D01*
X1072931Y656883D01*
X1072727Y656123D01*
X1072737Y656049D01*
X1072700Y655984D01*
X1072597Y655204D01*
X1072616Y655132D01*
X1072588Y655063D01*
X1072588Y654670D01*
X1072588Y654277D01*
X1072616Y654208D01*
X1072597Y654135D01*
X1072700Y653355D01*
X1072737Y653291D01*
X1072727Y653217D01*
X1072931Y652457D01*
X1072976Y652398D01*
X1072976Y652323D01*
X1073277Y651596D01*
X1073330Y651543D01*
X1073340Y651469D01*
X1073733Y650788D01*
X1073792Y650743D01*
X1073812Y650670D01*
X1074290Y650046D01*
X1074355Y650009D01*
X1074384Y649940D01*
X1074940Y649384D01*
X1075009Y649355D01*
X1075046Y649290D01*
X1075670Y648812D01*
X1075743Y648792D01*
X1075788Y648733D01*
X1076469Y648340D01*
X1076543Y648330D01*
X1076596Y648277D01*
X1077323Y647976D01*
X1077398Y647976D01*
X1077457Y647931D01*
X1078217Y647727D01*
X1078291Y647737D01*
X1078356Y647699D01*
X1079135Y647597D01*
X1079208Y647616D01*
X1079277Y647588D01*
X1079670Y647588D01*
X1079670Y647588D01*
X1090670Y647588D01*
X1091063Y647588D01*
X1091132Y647616D01*
X1091205Y647597D01*
X1091984Y647699D01*
X1092049Y647737D01*
X1092123Y647727D01*
X1092883Y647931D01*
X1092942Y647976D01*
X1093017Y647976D01*
X1093744Y648277D01*
X1093796Y648330D01*
X1093870Y648340D01*
X1094552Y648733D01*
X1094597Y648792D01*
X1094669Y648812D01*
X1095293Y649290D01*
X1095331Y649355D01*
X1095400Y649384D01*
X1095956Y649940D01*
X1095985Y650009D01*
X1096049Y650046D01*
X1096528Y650670D01*
X1096547Y650743D01*
X1096607Y650788D01*
X1097000Y651469D01*
X1097010Y651543D01*
X1097063Y651596D01*
X1097364Y652323D01*
X1097364Y652398D01*
X1097409Y652457D01*
X1097613Y653217D01*
X1097603Y653291D01*
X1097640Y653355D01*
X1097743Y654135D01*
X1097724Y654208D01*
X1097752Y654277D01*
X1097752Y654670D01*
X1097752Y654670D01*
X1097752Y660870D01*
X1097705Y660984D01*
X1097726Y661106D01*
X1097625Y661560D01*
X1097570Y661638D01*
X1097570Y661734D01*
X1097218Y662596D01*
X1097150Y662664D01*
X1097134Y662758D01*
X1096642Y663549D01*
X1096564Y663604D01*
X1096533Y663695D01*
X1095914Y664391D01*
X1095828Y664433D01*
X1095782Y664517D01*
X1095055Y665099D01*
X1094963Y665126D01*
X1094904Y665201D01*
X1094090Y665653D01*
X1093994Y665664D01*
X1093923Y665728D01*
X1093045Y666036D01*
X1092949Y666031D01*
X1092868Y666082D01*
X1091950Y666238D01*
X1091856Y666217D01*
X1091768Y666254D01*
X1091304Y666254D01*
X1091288Y666254D01*
X1091283Y666252D01*
X1091279Y666254D01*
X1091246Y666254D01*
X1091243Y666252D01*
X1091240Y666254D01*
X1091207Y666253D01*
X1091203Y666252D01*
X1091200Y666253D01*
X1091167Y666253D01*
X1091167Y666252D01*
X1090704Y666260D01*
X1090704Y666260D02*
G37*
G36*
X780467Y665370D02*
X779373Y665370D01*
X778362Y664951D01*
X777589Y664178D01*
X777170Y663167D01*
X777170Y662073D01*
X777589Y661062D01*
X778362Y660289D01*
X779373Y659870D01*
X780467Y659870D01*
X781478Y660289D01*
X782251Y661062D01*
X782670Y662073D01*
X782670Y663167D01*
X782251Y664178D01*
X781478Y664951D01*
X780467Y665370D01*
X780467Y665370D02*
G37*
G36*
X1105966Y665870D02*
X1104374Y665870D01*
X1102904Y665261D01*
X1101779Y664136D01*
X1101170Y662665D01*
X1101170Y661074D01*
X1101779Y659604D01*
X1102904Y658479D01*
X1104374Y657870D01*
X1105966Y657870D01*
X1107436Y658479D01*
X1108561Y659604D01*
X1109170Y661074D01*
X1109170Y662665D01*
X1108561Y664136D01*
X1107436Y665261D01*
X1105966Y665870D01*
X1105966Y665870D02*
G37*
G36*
X1011767Y650370D02*
X1010673Y650370D01*
X1009662Y649951D01*
X1008889Y649178D01*
X1008593Y648465D01*
X1007297Y648465D01*
X1007001Y649178D01*
X1006228Y649951D01*
X1005217Y650370D01*
X1004123Y650370D01*
X1003112Y649951D01*
X1002339Y649178D01*
X1001920Y648167D01*
X1001920Y647073D01*
X1002339Y646062D01*
X1003112Y645288D01*
X1004123Y644870D01*
X1005217Y644870D01*
X1006228Y645288D01*
X1007001Y646062D01*
X1007297Y646775D01*
X1008593Y646775D01*
X1008889Y646062D01*
X1009662Y645288D01*
X1010673Y644870D01*
X1011767Y644870D01*
X1012778Y645288D01*
X1013551Y646062D01*
X1013970Y647073D01*
X1013970Y648167D01*
X1013551Y649178D01*
X1012778Y649951D01*
X1011767Y650370D01*
X1011767Y650370D02*
G37*
G36*
X899482Y656220D02*
X899370Y656220D01*
X899370Y647120D01*
X908470Y647120D01*
X908470Y647233D01*
X907765Y649865D01*
X906402Y652225D01*
X904475Y654152D01*
X902115Y655515D01*
X899482Y656220D01*
X899482Y656220D02*
G37*
G36*
X896870Y656220D02*
X896757Y656220D01*
X894125Y655515D01*
X891765Y654152D01*
X889838Y652225D01*
X888475Y649865D01*
X887770Y647233D01*
X887770Y647120D01*
X896870Y647120D01*
X896870Y656220D01*
X896870Y656220D02*
G37*
G36*
X1044467Y650370D02*
X1043373Y650370D01*
X1042362Y649951D01*
X1041589Y649178D01*
X1041170Y648167D01*
X1041170Y647073D01*
X1041589Y646062D01*
X1042362Y645288D01*
X1043373Y644870D01*
X1044467Y644870D01*
X1045478Y645288D01*
X1046251Y646062D01*
X1046670Y647073D01*
X1046670Y648167D01*
X1046251Y649178D01*
X1045478Y649951D01*
X1044467Y650370D01*
X1044467Y650370D02*
G37*
G36*
X957770Y654720D02*
X940070Y654720D01*
X940070Y637020D01*
X957770Y637020D01*
X957770Y654720D01*
X957770Y654720D02*
G37*
G36*
X924685Y654720D02*
X922355Y654720D01*
X920104Y654117D01*
X918086Y652952D01*
X916438Y651304D01*
X915273Y649286D01*
X914670Y647035D01*
X914670Y644705D01*
X915273Y642454D01*
X916438Y640436D01*
X918086Y638788D01*
X920104Y637623D01*
X922355Y637020D01*
X924685Y637020D01*
X926936Y637623D01*
X928954Y638788D01*
X930602Y640436D01*
X931767Y642454D01*
X932370Y644705D01*
X932370Y647035D01*
X931767Y649286D01*
X930602Y651304D01*
X928954Y652952D01*
X926936Y654117D01*
X924685Y654720D01*
X924685Y654720D02*
G37*
G36*
X873885Y654720D02*
X871555Y654720D01*
X869304Y654117D01*
X867286Y652952D01*
X865638Y651304D01*
X864473Y649286D01*
X863870Y647035D01*
X863870Y644705D01*
X864473Y642454D01*
X865638Y640436D01*
X867286Y638788D01*
X869304Y637623D01*
X871555Y637020D01*
X873885Y637020D01*
X876136Y637623D01*
X878154Y638788D01*
X879802Y640436D01*
X880967Y642454D01*
X881570Y644705D01*
X881570Y647035D01*
X880967Y649286D01*
X879802Y651304D01*
X878154Y652952D01*
X876136Y654117D01*
X873885Y654720D01*
X873885Y654720D02*
G37*
G36*
X848485Y654720D02*
X846155Y654720D01*
X843904Y654117D01*
X841886Y652952D01*
X840238Y651304D01*
X839073Y649286D01*
X838470Y647035D01*
X838470Y644705D01*
X839073Y642454D01*
X840238Y640436D01*
X841886Y638788D01*
X843904Y637623D01*
X846155Y637020D01*
X848485Y637020D01*
X850736Y637623D01*
X852754Y638788D01*
X854402Y640436D01*
X855567Y642454D01*
X856170Y644705D01*
X856170Y647035D01*
X855567Y649286D01*
X854402Y651304D01*
X852754Y652952D01*
X850736Y654117D01*
X848485Y654720D01*
X848485Y654720D02*
G37*
G36*
X823085Y654720D02*
X820755Y654720D01*
X818504Y654117D01*
X816486Y652952D01*
X814838Y651304D01*
X813673Y649286D01*
X813070Y647035D01*
X813070Y644705D01*
X813673Y642454D01*
X814838Y640436D01*
X816486Y638788D01*
X818504Y637623D01*
X820755Y637020D01*
X823085Y637020D01*
X825336Y637623D01*
X827354Y638788D01*
X829002Y640436D01*
X830167Y642454D01*
X830770Y644705D01*
X830770Y647035D01*
X830167Y649286D01*
X829002Y651304D01*
X827354Y652952D01*
X825336Y654117D01*
X823085Y654720D01*
X823085Y654720D02*
G37*
G36*
X908470Y644620D02*
X899370Y644620D01*
X899370Y635520D01*
X899482Y635520D01*
X902115Y636225D01*
X904475Y637588D01*
X906402Y639515D01*
X907765Y641875D01*
X908470Y644507D01*
X908470Y644620D01*
X908470Y644620D02*
G37*
G36*
X896870Y644620D02*
X887770Y644620D01*
X887770Y644507D01*
X888475Y641875D01*
X889838Y639515D01*
X891765Y637588D01*
X894125Y636225D01*
X896757Y635520D01*
X896870Y635520D01*
X896870Y644620D01*
X896870Y644620D02*
G37*
G36*
X959520Y602360D02*
X959520Y594120D01*
X967760Y594120D01*
X967113Y596533D01*
X965864Y598697D01*
X964097Y600464D01*
X961933Y601713D01*
X959520Y602360D01*
X959520Y602360D02*
G37*
G36*
X957020Y602360D02*
X954607Y601713D01*
X952443Y600464D01*
X950676Y598697D01*
X949427Y596533D01*
X948780Y594120D01*
X957020Y594120D01*
X957020Y602360D01*
X957020Y602360D02*
G37*
G36*
X1093260Y600860D02*
X1077280Y600860D01*
X1077280Y584880D01*
X1093260Y584880D01*
X1093260Y600860D01*
X1093260Y600860D02*
G37*
G36*
X1060922Y600860D02*
X1058818Y600860D01*
X1056786Y600315D01*
X1054964Y599263D01*
X1053476Y597776D01*
X1052424Y595954D01*
X1051880Y593922D01*
X1051880Y591818D01*
X1052424Y589786D01*
X1053476Y587964D01*
X1054964Y586476D01*
X1056786Y585424D01*
X1058818Y584880D01*
X1060922Y584880D01*
X1062954Y585424D01*
X1064776Y586476D01*
X1066264Y587964D01*
X1067315Y589786D01*
X1067860Y591818D01*
X1067860Y593922D01*
X1067315Y595954D01*
X1066264Y597776D01*
X1064776Y599263D01*
X1062954Y600315D01*
X1060922Y600860D01*
X1060922Y600860D02*
G37*
G36*
X1035522Y600860D02*
X1033418Y600860D01*
X1031386Y600315D01*
X1029564Y599263D01*
X1028076Y597776D01*
X1027024Y595954D01*
X1026480Y593922D01*
X1026480Y591818D01*
X1027024Y589786D01*
X1028076Y587964D01*
X1029564Y586476D01*
X1031386Y585424D01*
X1033418Y584880D01*
X1035522Y584880D01*
X1037554Y585424D01*
X1039376Y586476D01*
X1040863Y587964D01*
X1041915Y589786D01*
X1042460Y591818D01*
X1042460Y593922D01*
X1041915Y595954D01*
X1040863Y597776D01*
X1039376Y599263D01*
X1037554Y600315D01*
X1035522Y600860D01*
X1035522Y600860D02*
G37*
G36*
X1010122Y600860D02*
X1008018Y600860D01*
X1005986Y600315D01*
X1004164Y599263D01*
X1002676Y597776D01*
X1001624Y595954D01*
X1001080Y593922D01*
X1001080Y591818D01*
X1001624Y589786D01*
X1002676Y587964D01*
X1004164Y586476D01*
X1005986Y585424D01*
X1008018Y584880D01*
X1010122Y584880D01*
X1012154Y585424D01*
X1013976Y586476D01*
X1015463Y587964D01*
X1016515Y589786D01*
X1017060Y591818D01*
X1017060Y593922D01*
X1016515Y595954D01*
X1015463Y597776D01*
X1013976Y599263D01*
X1012154Y600315D01*
X1010122Y600860D01*
X1010122Y600860D02*
G37*
G36*
X984722Y600860D02*
X982618Y600860D01*
X980586Y600315D01*
X978764Y599263D01*
X977276Y597776D01*
X976224Y595954D01*
X975680Y593922D01*
X975680Y591818D01*
X976224Y589786D01*
X977276Y587964D01*
X978764Y586476D01*
X980586Y585424D01*
X982618Y584880D01*
X984722Y584880D01*
X986754Y585424D01*
X988576Y586476D01*
X990063Y587964D01*
X991115Y589786D01*
X991660Y591818D01*
X991660Y593922D01*
X991115Y595954D01*
X990063Y597776D01*
X988576Y599263D01*
X986754Y600315D01*
X984722Y600860D01*
X984722Y600860D02*
G37*
G36*
X933922Y600860D02*
X931818Y600860D01*
X929786Y600315D01*
X927964Y599263D01*
X926476Y597776D01*
X925424Y595954D01*
X924880Y593922D01*
X924880Y591818D01*
X925424Y589786D01*
X926476Y587964D01*
X927964Y586476D01*
X929786Y585424D01*
X931818Y584880D01*
X933922Y584880D01*
X935954Y585424D01*
X937776Y586476D01*
X939264Y587964D01*
X940315Y589786D01*
X940860Y591818D01*
X940860Y593922D01*
X940315Y595954D01*
X939264Y597776D01*
X937776Y599263D01*
X935954Y600315D01*
X933922Y600860D01*
X933922Y600860D02*
G37*
G36*
X908522Y600860D02*
X906418Y600860D01*
X904386Y600315D01*
X902564Y599263D01*
X901076Y597776D01*
X900024Y595954D01*
X899480Y593922D01*
X899480Y591818D01*
X900024Y589786D01*
X901076Y587964D01*
X902564Y586476D01*
X904386Y585424D01*
X906418Y584880D01*
X908522Y584880D01*
X910554Y585424D01*
X912376Y586476D01*
X913864Y587964D01*
X914915Y589786D01*
X915460Y591818D01*
X915460Y593922D01*
X914915Y595954D01*
X913864Y597776D01*
X912376Y599263D01*
X910554Y600315D01*
X908522Y600860D01*
X908522Y600860D02*
G37*
G36*
X883122Y600860D02*
X881018Y600860D01*
X878986Y600315D01*
X877164Y599263D01*
X875676Y597776D01*
X874624Y595954D01*
X874080Y593922D01*
X874080Y591818D01*
X874624Y589786D01*
X875676Y587964D01*
X877164Y586476D01*
X878986Y585424D01*
X881018Y584880D01*
X883122Y584880D01*
X885154Y585424D01*
X886976Y586476D01*
X888464Y587964D01*
X889515Y589786D01*
X890060Y591818D01*
X890060Y593922D01*
X889515Y595954D01*
X888464Y597776D01*
X886976Y599263D01*
X885154Y600315D01*
X883122Y600860D01*
X883122Y600860D02*
G37*
G36*
X857722Y600860D02*
X855618Y600860D01*
X853586Y600315D01*
X851764Y599263D01*
X850276Y597776D01*
X849224Y595954D01*
X848680Y593922D01*
X848680Y591818D01*
X849224Y589786D01*
X850276Y587964D01*
X851764Y586476D01*
X853586Y585424D01*
X855618Y584880D01*
X857722Y584880D01*
X859754Y585424D01*
X861576Y586476D01*
X863064Y587964D01*
X864115Y589786D01*
X864660Y591818D01*
X864660Y593922D01*
X864115Y595954D01*
X863064Y597776D01*
X861576Y599263D01*
X859754Y600315D01*
X857722Y600860D01*
X857722Y600860D02*
G37*
G36*
X967760Y591620D02*
X959520Y591620D01*
X959520Y583380D01*
X961933Y584027D01*
X964097Y585276D01*
X965864Y587043D01*
X967113Y589207D01*
X967760Y591620D01*
X967760Y591620D02*
G37*
G36*
X957020Y591620D02*
X948780Y591620D01*
X949427Y589207D01*
X950676Y587043D01*
X952443Y585276D01*
X954607Y584027D01*
X957020Y583380D01*
X957020Y591620D01*
X957020Y591620D02*
G37*
G36*
X1061120Y576960D02*
X1061120Y568720D01*
X1069360Y568720D01*
X1068713Y571133D01*
X1067464Y573297D01*
X1065697Y575064D01*
X1063533Y576313D01*
X1061120Y576960D01*
X1061120Y576960D02*
G37*
G36*
X1058620Y576960D02*
X1056207Y576313D01*
X1054043Y575064D01*
X1052276Y573297D01*
X1051027Y571133D01*
X1050380Y568720D01*
X1058620Y568720D01*
X1058620Y576960D01*
X1058620Y576960D02*
G37*
G36*
X1035720Y576960D02*
X1035720Y568720D01*
X1043960Y568720D01*
X1043313Y571133D01*
X1042064Y573297D01*
X1040297Y575064D01*
X1038133Y576313D01*
X1035720Y576960D01*
X1035720Y576960D02*
G37*
G36*
X1033220Y576960D02*
X1030807Y576313D01*
X1028643Y575064D01*
X1026876Y573297D01*
X1025627Y571133D01*
X1024980Y568720D01*
X1033220Y568720D01*
X1033220Y576960D01*
X1033220Y576960D02*
G37*
G36*
X1010320Y576960D02*
X1010320Y568720D01*
X1018560Y568720D01*
X1017913Y571133D01*
X1016664Y573297D01*
X1014897Y575064D01*
X1012733Y576313D01*
X1010320Y576960D01*
X1010320Y576960D02*
G37*
G36*
X1007820Y576960D02*
X1005407Y576313D01*
X1003243Y575064D01*
X1001476Y573297D01*
X1000227Y571133D01*
X999580Y568720D01*
X1007820Y568720D01*
X1007820Y576960D01*
X1007820Y576960D02*
G37*
G36*
X984920Y576960D02*
X984920Y568720D01*
X993160Y568720D01*
X992513Y571133D01*
X991264Y573297D01*
X989497Y575064D01*
X987333Y576313D01*
X984920Y576960D01*
X984920Y576960D02*
G37*
G36*
X982420Y576960D02*
X980007Y576313D01*
X977843Y575064D01*
X976076Y573297D01*
X974827Y571133D01*
X974180Y568720D01*
X982420Y568720D01*
X982420Y576960D01*
X982420Y576960D02*
G37*
G36*
X959520Y576960D02*
X959520Y568720D01*
X967760Y568720D01*
X967113Y571133D01*
X965864Y573297D01*
X964097Y575064D01*
X961933Y576313D01*
X959520Y576960D01*
X959520Y576960D02*
G37*
G36*
X957020Y576960D02*
X954607Y576313D01*
X952443Y575064D01*
X950676Y573297D01*
X949427Y571133D01*
X948780Y568720D01*
X957020Y568720D01*
X957020Y576960D01*
X957020Y576960D02*
G37*
G36*
X934120Y576960D02*
X934120Y568720D01*
X942360Y568720D01*
X941713Y571133D01*
X940464Y573297D01*
X938697Y575064D01*
X936533Y576313D01*
X934120Y576960D01*
X934120Y576960D02*
G37*
G36*
X931620Y576960D02*
X929207Y576313D01*
X927043Y575064D01*
X925276Y573297D01*
X924027Y571133D01*
X923380Y568720D01*
X931620Y568720D01*
X931620Y576960D01*
X931620Y576960D02*
G37*
G36*
X908720Y576960D02*
X908720Y568720D01*
X916960Y568720D01*
X916313Y571133D01*
X915064Y573297D01*
X913297Y575064D01*
X911133Y576313D01*
X908720Y576960D01*
X908720Y576960D02*
G37*
G36*
X906220Y576960D02*
X903807Y576313D01*
X901643Y575064D01*
X899876Y573297D01*
X898627Y571133D01*
X897980Y568720D01*
X906220Y568720D01*
X906220Y576960D01*
X906220Y576960D02*
G37*
G36*
X883320Y576960D02*
X883320Y568720D01*
X891560Y568720D01*
X890913Y571133D01*
X889664Y573297D01*
X887897Y575064D01*
X885733Y576313D01*
X883320Y576960D01*
X883320Y576960D02*
G37*
G36*
X880820Y576960D02*
X878407Y576313D01*
X876243Y575064D01*
X874476Y573297D01*
X873227Y571133D01*
X872580Y568720D01*
X880820Y568720D01*
X880820Y576960D01*
X880820Y576960D02*
G37*
G36*
X857920Y576960D02*
X857920Y568720D01*
X866160Y568720D01*
X865513Y571133D01*
X864264Y573297D01*
X862497Y575064D01*
X860333Y576313D01*
X857920Y576960D01*
X857920Y576960D02*
G37*
G36*
X855420Y576960D02*
X853007Y576313D01*
X850843Y575064D01*
X849076Y573297D01*
X847827Y571133D01*
X847180Y568720D01*
X855420Y568720D01*
X855420Y576960D01*
X855420Y576960D02*
G37*
G36*
X1086322Y575460D02*
X1084218Y575460D01*
X1082186Y574915D01*
X1080364Y573863D01*
X1078876Y572376D01*
X1077824Y570554D01*
X1077280Y568522D01*
X1077280Y566418D01*
X1077824Y564386D01*
X1078876Y562564D01*
X1080364Y561076D01*
X1082186Y560024D01*
X1084218Y559480D01*
X1086322Y559480D01*
X1088354Y560024D01*
X1090176Y561076D01*
X1091664Y562564D01*
X1092715Y564386D01*
X1093260Y566418D01*
X1093260Y568522D01*
X1092715Y570554D01*
X1091664Y572376D01*
X1090176Y573863D01*
X1088354Y574915D01*
X1086322Y575460D01*
X1086322Y575460D02*
G37*
G36*
X1069360Y566220D02*
X1061120Y566220D01*
X1061120Y557980D01*
X1063533Y558627D01*
X1065697Y559876D01*
X1067464Y561643D01*
X1068713Y563807D01*
X1069360Y566220D01*
X1069360Y566220D02*
G37*
G36*
X1058620Y566220D02*
X1050380Y566220D01*
X1051027Y563807D01*
X1052276Y561643D01*
X1054043Y559876D01*
X1056207Y558627D01*
X1058620Y557980D01*
X1058620Y566220D01*
X1058620Y566220D02*
G37*
G36*
X1043960Y566220D02*
X1035720Y566220D01*
X1035720Y557980D01*
X1038133Y558627D01*
X1040297Y559876D01*
X1042064Y561643D01*
X1043313Y563807D01*
X1043960Y566220D01*
X1043960Y566220D02*
G37*
G36*
X1033220Y566220D02*
X1024980Y566220D01*
X1025627Y563807D01*
X1026876Y561643D01*
X1028643Y559876D01*
X1030807Y558627D01*
X1033220Y557980D01*
X1033220Y566220D01*
X1033220Y566220D02*
G37*
G36*
X1018560Y566220D02*
X1010320Y566220D01*
X1010320Y557980D01*
X1012733Y558627D01*
X1014897Y559876D01*
X1016664Y561643D01*
X1017913Y563807D01*
X1018560Y566220D01*
X1018560Y566220D02*
G37*
G36*
X1007820Y566220D02*
X999580Y566220D01*
X1000227Y563807D01*
X1001476Y561643D01*
X1003243Y559876D01*
X1005407Y558627D01*
X1007820Y557980D01*
X1007820Y566220D01*
X1007820Y566220D02*
G37*
G36*
X993160Y566220D02*
X984920Y566220D01*
X984920Y557980D01*
X987333Y558627D01*
X989497Y559876D01*
X991264Y561643D01*
X992513Y563807D01*
X993160Y566220D01*
X993160Y566220D02*
G37*
G36*
X982420Y566220D02*
X974180Y566220D01*
X974827Y563807D01*
X976076Y561643D01*
X977843Y559876D01*
X980007Y558627D01*
X982420Y557980D01*
X982420Y566220D01*
X982420Y566220D02*
G37*
G36*
X967760Y566220D02*
X959520Y566220D01*
X959520Y557980D01*
X961933Y558627D01*
X964097Y559876D01*
X965864Y561643D01*
X967113Y563807D01*
X967760Y566220D01*
X967760Y566220D02*
G37*
G36*
X957020Y566220D02*
X948780Y566220D01*
X949427Y563807D01*
X950676Y561643D01*
X952443Y559876D01*
X954607Y558627D01*
X957020Y557980D01*
X957020Y566220D01*
X957020Y566220D02*
G37*
G36*
X942360Y566220D02*
X934120Y566220D01*
X934120Y557980D01*
X936533Y558627D01*
X938697Y559876D01*
X940464Y561643D01*
X941713Y563807D01*
X942360Y566220D01*
X942360Y566220D02*
G37*
G36*
X931620Y566220D02*
X923380Y566220D01*
X924027Y563807D01*
X925276Y561643D01*
X927043Y559876D01*
X929207Y558627D01*
X931620Y557980D01*
X931620Y566220D01*
X931620Y566220D02*
G37*
G36*
X916960Y566220D02*
X908720Y566220D01*
X908720Y557980D01*
X911133Y558627D01*
X913297Y559876D01*
X915064Y561643D01*
X916313Y563807D01*
X916960Y566220D01*
X916960Y566220D02*
G37*
G36*
X906220Y566220D02*
X897980Y566220D01*
X898627Y563807D01*
X899876Y561643D01*
X901643Y559876D01*
X903807Y558627D01*
X906220Y557980D01*
X906220Y566220D01*
X906220Y566220D02*
G37*
G36*
X891560Y566220D02*
X883320Y566220D01*
X883320Y557980D01*
X885733Y558627D01*
X887897Y559876D01*
X889664Y561643D01*
X890913Y563807D01*
X891560Y566220D01*
X891560Y566220D02*
G37*
G36*
X880820Y566220D02*
X872580Y566220D01*
X873227Y563807D01*
X874476Y561643D01*
X876243Y559876D01*
X878407Y558627D01*
X880820Y557980D01*
X880820Y566220D01*
X880820Y566220D02*
G37*
G36*
X866160Y566220D02*
X857920Y566220D01*
X857920Y557980D01*
X860333Y558627D01*
X862497Y559876D01*
X864264Y561643D01*
X865513Y563807D01*
X866160Y566220D01*
X866160Y566220D02*
G37*
G36*
X855420Y566220D02*
X847180Y566220D01*
X847827Y563807D01*
X849076Y561643D01*
X850843Y559876D01*
X853007Y558627D01*
X855420Y557980D01*
X855420Y566220D01*
X855420Y566220D02*
G37*
%LPD*%
G36*
G01X1096670Y654670D02*
G01X1096670Y660870D01*
G03X1091302Y665172I-5367J-1198D01*
G03X1091170Y665170I-3J-5329D01*
G03X1085670Y660670I-92J-5499D01*
G01X1079670Y660670D01*
G03X1073670Y654670I0J-6000D01*
G03X1079670Y648670I6000J-0D01*
G01X1090670Y648670D01*
G03X1096670Y654670I0J6000D01*
X1096670Y654670D02*
G37*
G36*
G01X1091302Y730568D02*
G03X1096670Y734870I0J5499D01*
G01X1096670Y741070D01*
G03X1090670Y747070I-6000J0D01*
G01X1079670Y747070D01*
G03X1079670Y735070I0J-6000D01*
G01X1085670Y735070D01*
G03X1091170Y730570I5408J999D01*
G03X1091302Y730568I133J5514D01*
X1091302Y730568D02*
G37*
D24*
X1085270Y592870D02*
D03*
X1087420Y828270D02*
D03*
D25*
X856670Y567470D02*
D03*
X882070Y567470D02*
D03*
X907470Y567470D02*
D03*
X932870Y567470D02*
D03*
X958270Y567470D02*
D03*
X983670Y567470D02*
D03*
X1009070Y567470D02*
D03*
X1034470Y567470D02*
D03*
X1059870Y567470D02*
D03*
X1085270Y567470D02*
D03*
X1059870Y592870D02*
D03*
X1034470Y592870D02*
D03*
X1009070Y592870D02*
D03*
X983670Y592870D02*
D03*
X958270Y592870D02*
D03*
X932870Y592870D02*
D03*
X907470Y592870D02*
D03*
X882070Y592870D02*
D03*
X856670Y592870D02*
D03*
X1062020Y802870D02*
D03*
X1087420Y802870D02*
D03*
X1062020Y828270D02*
D03*
X1036620Y828270D02*
D03*
X1036620Y802870D02*
D03*
X1011220Y828270D02*
D03*
X1011220Y802870D02*
D03*
X985820Y828270D02*
D03*
X985820Y802870D02*
D03*
X960420Y828270D02*
D03*
X960420Y802870D02*
D03*
X935020Y828270D02*
D03*
X935020Y802870D02*
D03*
X909620Y828270D02*
D03*
X909620Y802870D02*
D03*
X884220Y828270D02*
D03*
X884220Y802870D02*
D03*
X858820Y828270D02*
D03*
X858820Y802870D02*
D03*
D26*
X821920Y645870D02*
D03*
X847320Y645870D02*
D03*
X872720Y645870D02*
D03*
X898120Y645870D02*
D03*
X923520Y645870D02*
D03*
X923520Y742870D02*
D03*
X898120Y742870D02*
D03*
X872720Y742870D02*
D03*
X847320Y742870D02*
D03*
X821920Y742870D02*
D03*
D27*
X948920Y645870D02*
D03*
X948920Y742870D02*
D03*
D28*
X1105170Y661870D02*
D03*
D29*
X1104520Y733870D02*
D03*
D30*
X1135670Y654670D02*
D03*
X1135670Y741070D02*
D03*
D31*
X1085170Y654670D02*
D03*
D32*
X1091270Y737820D02*
D03*
D33*
X760170Y682870D02*
D03*
X779920Y662620D02*
D03*
X770670Y697870D02*
D03*
X770670Y712870D02*
D03*
X778670Y727370D02*
D03*
X779170Y759620D02*
D03*
X854670Y682870D02*
D03*
X880620Y683070D02*
D03*
X864670Y704770D02*
D03*
X840170Y704770D02*
D03*
X780420Y628870D02*
D03*
X984920Y647620D02*
D03*
X1004670Y647620D02*
D03*
X1011220Y647620D02*
D03*
X1017670Y647620D02*
D03*
X1043920Y647620D02*
D03*
X1050170Y679120D02*
D03*
X1056670Y679120D02*
D03*
X1069420Y686620D02*
D03*
X1069420Y696620D02*
D03*
X1085270Y691370D02*
D03*
X1101170Y669120D02*
D03*
X1134170Y680370D02*
D03*
X1134170Y701370D02*
D03*
X1121920Y689370D02*
D03*
X1134170Y713370D02*
D03*
X1101170Y724120D02*
D03*
X1101170Y699120D02*
D03*
X1069420Y711620D02*
D03*
X1037420Y679120D02*
D03*
X1020170Y681620D02*
D03*
X1011220Y716620D02*
D03*
X991670Y749620D02*
D03*
M02*
