G04*
G04 #@! TF.GenerationSoftware,Altium Limited,Altium Designer,23.2.1 (34)*
G04*
G04 Layer_Color=32896*
%FSLAX44Y44*%
%MOMM*%
G71*
G04*
G04 #@! TF.SameCoordinates,65844937-C824-47D7-9260-582DF4BCFB51*
G04*
G04*
G04 #@! TF.FilePolarity,Positive*
G04*
G01*
G75*
%ADD12C,0.0500*%
%ADD13C,0.2540*%
%ADD15C,0.1000*%
%ADD42C,0.5000*%
%ADD43C,0.6000*%
%ADD44C,0.1524*%
%ADD45C,0.1500*%
G36*
X816170Y529370D02*
X786170Y529370D01*
X786170Y544370D01*
X816170Y544370D01*
X816170Y529370D01*
X816170Y529370D02*
G37*
%LPC*%
G36*
X808739Y539800D02*
X808739Y539800D01*
X808739Y539309D01*
X808739Y539309D01*
X808739Y539800D01*
X808739Y539800D02*
G37*
G36*
X792501Y539800D02*
X792501Y539800D01*
X792501Y534452D01*
X792497Y534473D01*
X792489Y534518D01*
X792468Y534581D01*
X792439Y534652D01*
X792418Y534689D01*
X792397Y534727D01*
X792368Y534764D01*
X792335Y534798D01*
X792297Y534835D01*
X792251Y534868D01*
X792243Y534872D01*
X792226Y534885D01*
X792193Y534897D01*
X792143Y534918D01*
X792081Y534935D01*
X792006Y534947D01*
X791914Y534960D01*
X791806Y534964D01*
X790914Y534964D01*
X790131Y538647D01*
X790964Y538442D01*
X790973Y538442D01*
X790997Y538434D01*
X791031Y538426D01*
X791072Y538417D01*
X791122Y538409D01*
X791172Y538401D01*
X791218Y538396D01*
X791260Y538392D01*
X791285Y538392D01*
X791310Y538396D01*
X791343Y538405D01*
X791381Y538417D01*
X791422Y538434D01*
X791460Y538455D01*
X791497Y538488D01*
X791501Y538492D01*
X791510Y538505D01*
X791526Y538526D01*
X791543Y538555D01*
X791560Y538592D01*
X791577Y538638D01*
X791585Y538688D01*
X791589Y538746D01*
X791589Y538751D01*
X791589Y538755D01*
X791589Y538780D01*
X791581Y538817D01*
X791572Y538867D01*
X791560Y538917D01*
X791539Y538976D01*
X791510Y539030D01*
X791468Y539084D01*
X791464Y539088D01*
X791443Y539109D01*
X791410Y539134D01*
X791364Y539163D01*
X791335Y539180D01*
X791302Y539201D01*
X791264Y539217D01*
X791222Y539238D01*
X791177Y539255D01*
X791122Y539276D01*
X791068Y539292D01*
X791006Y539309D01*
X789002Y539800D01*
X789002Y539800D01*
X790031Y534964D01*
X789090Y534964D01*
X789040Y534960D01*
X788977Y534952D01*
X788911Y534943D01*
X788848Y534927D01*
X788785Y534902D01*
X788761Y534889D01*
X788740Y534872D01*
X788736Y534868D01*
X788723Y534856D01*
X788706Y534835D01*
X788686Y534806D01*
X788669Y534768D01*
X788652Y534727D01*
X788640Y534673D01*
X788636Y534614D01*
X788636Y534081D01*
X792501Y534081D01*
X792501Y539800D01*
X792501Y539800D02*
G37*
G36*
X808739Y539800D02*
X805369Y539800D01*
X805331Y539796D01*
X805281Y539796D01*
X805223Y539788D01*
X805152Y539780D01*
X805073Y539767D01*
X804986Y539750D01*
X804898Y539729D01*
X804802Y539705D01*
X804711Y539671D01*
X804615Y539634D01*
X804519Y539588D01*
X804427Y539534D01*
X804340Y539475D01*
X804257Y539405D01*
X804252Y539400D01*
X804240Y539388D01*
X804219Y539363D01*
X804190Y539334D01*
X804157Y539296D01*
X804123Y539250D01*
X804082Y539196D01*
X804044Y539134D01*
X804003Y539067D01*
X803965Y538992D01*
X803932Y538913D01*
X803898Y538826D01*
X803869Y538734D01*
X803848Y538634D01*
X803836Y538534D01*
X803832Y538426D01*
X803832Y538380D01*
X803836Y538346D01*
X803840Y538305D01*
X803844Y538255D01*
X803848Y538201D01*
X803861Y538142D01*
X803869Y538080D01*
X803886Y538009D01*
X803923Y537868D01*
X803948Y537793D01*
X803978Y537718D01*
X804015Y537643D01*
X804053Y537572D01*
X804057Y537568D01*
X804061Y537555D01*
X804078Y537534D01*
X804094Y537505D01*
X804123Y537468D01*
X804152Y537426D01*
X804194Y537376D01*
X804240Y537318D01*
X804294Y537255D01*
X804352Y537188D01*
X804423Y537113D01*
X804502Y537034D01*
X804586Y536951D01*
X804681Y536868D01*
X804786Y536776D01*
X804898Y536680D01*
X804906Y536676D01*
X804927Y536655D01*
X804965Y536626D01*
X804994Y536605D01*
X805023Y536580D01*
X805056Y536555D01*
X805094Y536526D01*
X805135Y536493D01*
X805185Y536455D01*
X805236Y536414D01*
X805294Y536372D01*
X805352Y536326D01*
X805419Y536272D01*
X805490Y536218D01*
X805569Y536164D01*
X805648Y536101D01*
X805735Y536035D01*
X805827Y535968D01*
X805923Y535897D01*
X806027Y535818D01*
X806135Y535739D01*
X806248Y535656D01*
X806364Y535568D01*
X806489Y535481D01*
X806623Y535385D01*
X806756Y535285D01*
X806898Y535181D01*
X807048Y535077D01*
X807202Y534964D01*
X805260Y534964D01*
X805256Y534968D01*
X805231Y534985D01*
X805198Y535006D01*
X805152Y535031D01*
X805102Y535052D01*
X805048Y535072D01*
X804990Y535089D01*
X804936Y535093D01*
X804911Y535093D01*
X804881Y535089D01*
X804844Y535081D01*
X804802Y535068D01*
X804761Y535052D01*
X804719Y535031D01*
X804681Y534997D01*
X804677Y534993D01*
X804665Y534981D01*
X804648Y534960D01*
X804632Y534935D01*
X804615Y534902D01*
X804598Y534860D01*
X804586Y534814D01*
X804582Y534764D01*
X804582Y534760D01*
X804582Y534748D01*
X804582Y534727D01*
X804586Y534697D01*
X804590Y534660D01*
X804598Y534614D01*
X804611Y534564D01*
X804623Y534502D01*
X804711Y534081D01*
X803832Y534081D01*
X808739Y534081D01*
X808539Y535014D01*
X808535Y535014D01*
X808531Y535018D01*
X808505Y535039D01*
X808464Y535064D01*
X808410Y535106D01*
X808343Y535151D01*
X808260Y535210D01*
X808168Y535276D01*
X808068Y535347D01*
X807985Y535406D01*
X807956Y535426D01*
X807835Y535514D01*
X807706Y535606D01*
X807572Y535701D01*
X807431Y535801D01*
X807285Y535905D01*
X806985Y536122D01*
X806681Y536343D01*
X806377Y536568D01*
X806227Y536680D01*
X806081Y536789D01*
X805944Y536893D01*
X805806Y536997D01*
X805677Y537097D01*
X805556Y537193D01*
X805440Y537280D01*
X805335Y537364D01*
X805244Y537443D01*
X805161Y537513D01*
X805090Y537576D01*
X805031Y537630D01*
X805027Y537634D01*
X805019Y537643D01*
X805002Y537659D01*
X804986Y537680D01*
X804961Y537709D01*
X804936Y537738D01*
X804911Y537776D01*
X804881Y537817D01*
X804827Y537909D01*
X804777Y538013D01*
X804761Y538068D01*
X804744Y538122D01*
X804736Y538180D01*
X804732Y538238D01*
X804732Y538242D01*
X804732Y538251D01*
X804732Y538267D01*
X804736Y538284D01*
X804740Y538309D01*
X804744Y538338D01*
X804761Y538401D01*
X804790Y538476D01*
X804831Y538555D01*
X804856Y538596D01*
X804886Y538638D01*
X804923Y538676D01*
X804965Y538713D01*
X804969Y538717D01*
X804977Y538722D01*
X804990Y538730D01*
X805006Y538746D01*
X805031Y538759D01*
X805061Y538776D01*
X805094Y538796D01*
X805131Y538813D01*
X805173Y538834D01*
X805223Y538851D01*
X805277Y538867D01*
X805335Y538884D01*
X805398Y538896D01*
X805465Y538905D01*
X805535Y538909D01*
X805610Y538913D01*
X805648Y538913D01*
X805677Y538909D01*
X805710Y538909D01*
X805748Y538905D01*
X805794Y538896D01*
X805844Y538892D01*
X805952Y538867D01*
X806069Y538834D01*
X806189Y538792D01*
X806252Y538763D01*
X806310Y538730D01*
X806314Y538730D01*
X806323Y538722D01*
X806339Y538713D01*
X806360Y538697D01*
X806389Y538680D01*
X806419Y538655D01*
X806489Y538596D01*
X806569Y538521D01*
X806652Y538434D01*
X806735Y538326D01*
X806810Y538205D01*
X806814Y538197D01*
X806827Y538176D01*
X806843Y538147D01*
X806868Y538113D01*
X806927Y538034D01*
X806960Y538001D01*
X806993Y537972D01*
X807002Y537967D01*
X807018Y537955D01*
X807048Y537938D01*
X807085Y537922D01*
X807135Y537901D01*
X807189Y537884D01*
X807247Y537872D01*
X807314Y537868D01*
X807339Y537868D01*
X807368Y537872D01*
X807406Y537880D01*
X807443Y537892D01*
X807489Y537909D01*
X807531Y537934D01*
X807572Y537967D01*
X807577Y537972D01*
X807589Y537984D01*
X807606Y538009D01*
X807622Y538038D01*
X807639Y538076D01*
X807656Y538117D01*
X807668Y538163D01*
X807672Y538217D01*
X807672Y538222D01*
X807672Y538226D01*
X807672Y538238D01*
X807668Y538255D01*
X807664Y538276D01*
X807660Y538301D01*
X807652Y538330D01*
X807639Y538363D01*
X807610Y538442D01*
X807589Y538488D01*
X807568Y538534D01*
X807539Y538588D01*
X807506Y538647D01*
X807468Y538705D01*
X807422Y538767D01*
X807418Y538771D01*
X807406Y538788D01*
X807385Y538813D01*
X807360Y538851D01*
X807322Y538892D01*
X807281Y538938D01*
X807235Y538992D01*
X807177Y539050D01*
X807114Y539109D01*
X807048Y539171D01*
X806973Y539234D01*
X806893Y539296D01*
X806810Y539359D01*
X806723Y539421D01*
X806627Y539475D01*
X806527Y539530D01*
X806518Y539534D01*
X806502Y539542D01*
X806473Y539555D01*
X806431Y539571D01*
X806385Y539592D01*
X806323Y539617D01*
X806256Y539638D01*
X806181Y539667D01*
X806102Y539692D01*
X806014Y539713D01*
X805923Y539738D01*
X805823Y539759D01*
X805723Y539775D01*
X805619Y539788D01*
X805510Y539796D01*
X805402Y539800D01*
X808739Y539800D01*
X808739Y539800D02*
G37*
G36*
X813704Y539309D02*
X808739Y539309D01*
X809676Y539309D01*
X808489Y539305D01*
X808443Y539305D01*
X808393Y539300D01*
X808331Y539292D01*
X808264Y539284D01*
X808197Y539267D01*
X808139Y539242D01*
X808114Y539230D01*
X808093Y539213D01*
X808089Y539209D01*
X808076Y539196D01*
X808060Y539175D01*
X808039Y539146D01*
X808018Y539109D01*
X808001Y539067D01*
X807989Y539013D01*
X807985Y538955D01*
X807985Y538951D01*
X807985Y538942D01*
X807985Y538930D01*
X807989Y538913D01*
X807997Y538863D01*
X808014Y538801D01*
X808047Y538730D01*
X808064Y538697D01*
X808089Y538659D01*
X808118Y538621D01*
X808151Y538584D01*
X808189Y538546D01*
X808235Y538513D01*
X808243Y538509D01*
X808260Y538497D01*
X808297Y538484D01*
X808343Y538467D01*
X808410Y538447D01*
X808447Y538438D01*
X808489Y538434D01*
X808535Y538426D01*
X808585Y538422D01*
X808585Y538422D01*
X808643Y538417D01*
X808701Y538417D01*
X808739Y538358D01*
X808739Y538358D01*
X811438Y534081D01*
X812284Y534081D01*
X813175Y538417D01*
X813225Y538417D01*
X813250Y538422D01*
X813279Y538422D01*
X813346Y538430D01*
X813413Y538438D01*
X813479Y538451D01*
X813538Y538471D01*
X813562Y538488D01*
X813583Y538501D01*
X813587Y538505D01*
X813600Y538521D01*
X813621Y538542D01*
X813642Y538576D01*
X813667Y538613D01*
X813683Y538659D01*
X813700Y538713D01*
X813704Y538771D01*
X813704Y534614D01*
X813704Y539309D01*
X813704Y539309D02*
G37*
G36*
X801836Y535110D02*
X800482Y535110D01*
X800482Y535110D01*
X800991Y535110D01*
X800941Y535102D01*
X800878Y535093D01*
X800812Y535077D01*
X800745Y535056D01*
X800678Y535022D01*
X800620Y534981D01*
X800616Y534977D01*
X800599Y534960D01*
X800578Y534931D01*
X800549Y534893D01*
X800524Y534843D01*
X800503Y534789D01*
X800487Y534723D01*
X800482Y534647D01*
X800482Y534622D01*
X800487Y534602D01*
X800491Y534577D01*
X800495Y534548D01*
X800512Y534481D01*
X800537Y534406D01*
X800578Y534323D01*
X800603Y534277D01*
X800637Y534235D01*
X800670Y534193D01*
X800712Y534152D01*
X800716Y534148D01*
X800720Y534143D01*
X800732Y534131D01*
X800753Y534118D01*
X800774Y534102D01*
X800799Y534085D01*
X800833Y534064D01*
X800866Y534048D01*
X800949Y534006D01*
X801049Y533973D01*
X801157Y533948D01*
X801220Y533943D01*
X801282Y533939D01*
X801307Y533939D01*
X801328Y533943D01*
X801378Y533948D01*
X801441Y533956D01*
X801512Y533969D01*
X801578Y533993D01*
X801645Y534023D01*
X801703Y534064D01*
X801707Y534068D01*
X801724Y534089D01*
X801745Y534114D01*
X801770Y534152D01*
X801795Y534202D01*
X801815Y534260D01*
X801832Y534327D01*
X801836Y534402D01*
X801836Y534127D01*
X801836Y534402D01*
X801836Y534448D01*
X801836Y534431D01*
X801832Y534448D01*
X801828Y534473D01*
X801824Y534502D01*
X801807Y534568D01*
X801782Y534643D01*
X801741Y534727D01*
X801716Y534768D01*
X801686Y534810D01*
X801649Y534852D01*
X801611Y534893D01*
X801607Y534897D01*
X801599Y534902D01*
X801586Y534914D01*
X801570Y534927D01*
X801549Y534943D01*
X801520Y534960D01*
X801491Y534981D01*
X801453Y535002D01*
X801370Y535043D01*
X801274Y535077D01*
X801161Y535102D01*
X801099Y535106D01*
X801037Y535110D01*
X801836Y535110D01*
X801836Y534564D01*
X801836Y535110D01*
X801836Y535110D02*
G37*
G36*
X798404Y539309D02*
X793026Y539309D01*
X796788Y539309D01*
X794784Y539305D01*
X794746Y539305D01*
X794705Y539300D01*
X794647Y539300D01*
X794580Y539292D01*
X794501Y539284D01*
X794413Y539276D01*
X794317Y539259D01*
X794218Y539238D01*
X794118Y539217D01*
X794013Y539184D01*
X793909Y539151D01*
X793809Y539109D01*
X793713Y539059D01*
X793626Y539005D01*
X793543Y538938D01*
X793539Y538934D01*
X793526Y538921D01*
X793505Y538901D01*
X793476Y538871D01*
X793447Y538838D01*
X793409Y538792D01*
X793372Y538742D01*
X793334Y538688D01*
X793297Y538621D01*
X793259Y538551D01*
X793222Y538476D01*
X793193Y538392D01*
X793164Y538305D01*
X793143Y538213D01*
X793130Y538113D01*
X793126Y538009D01*
X793126Y538005D01*
X793126Y537988D01*
X793126Y537959D01*
X793130Y537922D01*
X793134Y537876D01*
X793143Y537826D01*
X793155Y537767D01*
X793168Y537701D01*
X793184Y537630D01*
X793205Y537559D01*
X793230Y537480D01*
X793264Y537401D01*
X793301Y537322D01*
X793343Y537243D01*
X793393Y537164D01*
X793451Y537084D01*
X793455Y537080D01*
X793468Y537068D01*
X793484Y537043D01*
X793509Y537014D01*
X793547Y536980D01*
X793588Y536939D01*
X793634Y536889D01*
X793693Y536839D01*
X793755Y536784D01*
X793826Y536726D01*
X793905Y536668D01*
X793992Y536605D01*
X794088Y536543D01*
X794188Y536480D01*
X794301Y536418D01*
X794417Y536360D01*
X794413Y536355D01*
X794409Y536347D01*
X794397Y536335D01*
X794380Y536318D01*
X794359Y536293D01*
X794334Y536264D01*
X794305Y536230D01*
X794276Y536193D01*
X794242Y536151D01*
X794205Y536105D01*
X794130Y536001D01*
X794047Y535881D01*
X793959Y535743D01*
X793959Y535739D01*
X793951Y535731D01*
X793943Y535718D01*
X793934Y535697D01*
X793918Y535672D01*
X793901Y535639D01*
X793880Y535601D01*
X793855Y535556D01*
X793830Y535506D01*
X793801Y535447D01*
X793772Y535385D01*
X793738Y535314D01*
X793701Y535235D01*
X793663Y535151D01*
X793622Y535060D01*
X793580Y534964D01*
X793526Y534964D01*
X793497Y534960D01*
X793464Y534960D01*
X793393Y534952D01*
X793318Y534943D01*
X793243Y534927D01*
X793180Y534906D01*
X793151Y534893D01*
X793130Y534877D01*
X793126Y534872D01*
X793114Y534860D01*
X793097Y534839D01*
X793076Y534810D01*
X793059Y534772D01*
X793043Y534731D01*
X793030Y534677D01*
X793026Y534614D01*
X793026Y534081D01*
X793026Y534589D01*
X793030Y534568D01*
X793035Y534548D01*
X793039Y534523D01*
X793059Y534460D01*
X793089Y534389D01*
X793109Y534352D01*
X793134Y534314D01*
X793164Y534277D01*
X793197Y534239D01*
X793234Y534202D01*
X793280Y534169D01*
X793284Y534164D01*
X793305Y534156D01*
X793338Y534139D01*
X793384Y534127D01*
X793447Y534110D01*
X793522Y534094D01*
X793609Y534085D01*
X793718Y534081D01*
X794222Y534081D01*
X794222Y534081D01*
X794234Y534081D01*
X794222Y534081D01*
X794222Y534085D01*
X794226Y534089D01*
X794230Y534102D01*
X794238Y534118D01*
X794259Y534164D01*
X794284Y534223D01*
X794317Y534293D01*
X794355Y534373D01*
X794397Y534464D01*
X794447Y534564D01*
X794501Y534668D01*
X794555Y534781D01*
X794676Y535002D01*
X794738Y535114D01*
X794805Y535218D01*
X794867Y535322D01*
X794934Y535418D01*
X794938Y535422D01*
X794951Y535439D01*
X794967Y535464D01*
X794992Y535497D01*
X795021Y535539D01*
X795059Y535585D01*
X795101Y535635D01*
X795142Y535685D01*
X795242Y535797D01*
X795350Y535905D01*
X795405Y535956D01*
X795463Y536001D01*
X795521Y536043D01*
X795575Y536076D01*
X796450Y536076D01*
X796688Y534964D01*
X796317Y534964D01*
X796267Y534960D01*
X796205Y534952D01*
X796138Y534943D01*
X796071Y534927D01*
X796013Y534902D01*
X795988Y534889D01*
X795967Y534872D01*
X795963Y534868D01*
X795950Y534856D01*
X795934Y534835D01*
X795913Y534806D01*
X795892Y534768D01*
X795875Y534727D01*
X795863Y534673D01*
X795859Y534614D01*
X795859Y534610D01*
X795859Y534602D01*
X795859Y534589D01*
X795863Y534568D01*
X795867Y534548D01*
X795871Y534523D01*
X795892Y534460D01*
X795921Y534389D01*
X795942Y534352D01*
X795967Y534314D01*
X795996Y534277D01*
X796034Y534239D01*
X796071Y534202D01*
X796117Y534169D01*
X796121Y534164D01*
X796142Y534156D01*
X796175Y534139D01*
X796221Y534127D01*
X796284Y534110D01*
X796359Y534094D01*
X796446Y534085D01*
X796554Y534081D01*
X794234Y534081D01*
X797946Y534081D01*
X797996Y534085D01*
X798058Y534094D01*
X798125Y534102D01*
X798192Y534118D01*
X798250Y534143D01*
X798279Y534156D01*
X798300Y534173D01*
X798304Y534177D01*
X798316Y534189D01*
X798333Y534210D01*
X798350Y534239D01*
X798371Y534277D01*
X798387Y534318D01*
X798400Y534368D01*
X798404Y534427D01*
X798404Y534094D01*
X798404Y534427D01*
X798404Y534452D01*
X798400Y534473D01*
X798391Y534518D01*
X798371Y534581D01*
X798341Y534652D01*
X798321Y534685D01*
X798300Y534723D01*
X798271Y534760D01*
X798237Y534798D01*
X798200Y534835D01*
X798154Y534868D01*
X798146Y534872D01*
X798129Y534885D01*
X798096Y534897D01*
X798046Y534918D01*
X797983Y534935D01*
X797908Y534947D01*
X797817Y534960D01*
X797708Y534964D01*
X797571Y534964D01*
X796838Y538417D01*
X797021Y538417D01*
X797075Y538422D01*
X797138Y538430D01*
X797204Y538438D01*
X797267Y538455D01*
X797329Y538480D01*
X797354Y538492D01*
X797375Y538509D01*
X797379Y538513D01*
X797392Y538526D01*
X797408Y538546D01*
X797425Y538580D01*
X797446Y538617D01*
X797462Y538659D01*
X797475Y538713D01*
X797479Y538771D01*
X797479Y538776D01*
X797479Y538784D01*
X797479Y538796D01*
X797475Y538817D01*
X797467Y538863D01*
X797446Y538926D01*
X797417Y538996D01*
X797396Y539030D01*
X797375Y539067D01*
X797346Y539105D01*
X797312Y539142D01*
X797275Y539180D01*
X797229Y539213D01*
X797221Y539217D01*
X797204Y539230D01*
X797171Y539242D01*
X797121Y539263D01*
X797063Y539280D01*
X796983Y539292D01*
X796892Y539305D01*
X796788Y539309D01*
X798404Y539309D01*
X798404Y539309D02*
G37*
%LPD*%
G36*
X792501Y534081D02*
X792043Y534081D01*
X792093Y534085D01*
X792156Y534094D01*
X792222Y534102D01*
X792289Y534118D01*
X792347Y534143D01*
X792376Y534156D01*
X792397Y534173D01*
X792401Y534177D01*
X792414Y534189D01*
X792430Y534210D01*
X792447Y534239D01*
X792468Y534277D01*
X792485Y534318D01*
X792497Y534368D01*
X792501Y534427D01*
X792501Y534081D01*
X792501Y534081D02*
G37*
G36*
X788640Y534568D02*
X788644Y534548D01*
X788648Y534523D01*
X788669Y534460D01*
X788698Y534389D01*
X788719Y534352D01*
X788744Y534314D01*
X788773Y534277D01*
X788806Y534239D01*
X788844Y534202D01*
X788890Y534169D01*
X788894Y534164D01*
X788915Y534156D01*
X788948Y534139D01*
X788994Y534127D01*
X789052Y534110D01*
X789127Y534094D01*
X789219Y534085D01*
X789323Y534081D01*
X788636Y534081D01*
X788636Y534589D01*
X788640Y534568D01*
X788640Y534568D02*
G37*
G36*
X813704Y538796D02*
X813700Y538817D01*
X813692Y538863D01*
X813671Y538926D01*
X813642Y538996D01*
X813621Y539030D01*
X813600Y539067D01*
X813571Y539105D01*
X813538Y539142D01*
X813500Y539180D01*
X813454Y539213D01*
X813446Y539217D01*
X813429Y539230D01*
X813396Y539242D01*
X813346Y539263D01*
X813283Y539280D01*
X813208Y539292D01*
X813117Y539305D01*
X813008Y539309D01*
X813704Y539309D01*
X813704Y538796D01*
X813704Y538796D02*
G37*
G36*
X811817Y539305D02*
X811767Y539305D01*
X811717Y539300D01*
X811655Y539292D01*
X811588Y539284D01*
X811526Y539267D01*
X811463Y539242D01*
X811438Y539230D01*
X811417Y539213D01*
X811413Y539209D01*
X811401Y539196D01*
X811384Y539175D01*
X811363Y539146D01*
X811346Y539109D01*
X811330Y539067D01*
X811317Y539013D01*
X811313Y538955D01*
X811313Y538951D01*
X811313Y538942D01*
X811313Y538930D01*
X811317Y538909D01*
X811321Y538888D01*
X811326Y538863D01*
X811346Y538801D01*
X811376Y538730D01*
X811396Y538692D01*
X811421Y538655D01*
X811451Y538617D01*
X811488Y538580D01*
X811526Y538542D01*
X811571Y538509D01*
X811575Y538505D01*
X811596Y538497D01*
X811630Y538480D01*
X811675Y538463D01*
X811734Y538447D01*
X811809Y538430D01*
X811900Y538422D01*
X812005Y538417D01*
X812213Y538417D01*
X811588Y535368D01*
X809655Y538417D01*
X809905Y538417D01*
X809959Y538422D01*
X810022Y538430D01*
X810088Y538438D01*
X810155Y538455D01*
X810213Y538480D01*
X810243Y538492D01*
X810263Y538509D01*
X810267Y538513D01*
X810280Y538526D01*
X810297Y538546D01*
X810313Y538580D01*
X810334Y538617D01*
X810351Y538659D01*
X810363Y538713D01*
X810368Y538771D01*
X810368Y538776D01*
X810368Y538784D01*
X810368Y538796D01*
X810363Y538817D01*
X810355Y538863D01*
X810334Y538926D01*
X810305Y538996D01*
X810284Y539030D01*
X810263Y539067D01*
X810234Y539105D01*
X810201Y539142D01*
X810163Y539180D01*
X810118Y539213D01*
X810109Y539217D01*
X810093Y539230D01*
X810059Y539242D01*
X810009Y539263D01*
X809951Y539280D01*
X809872Y539292D01*
X809780Y539305D01*
X809676Y539309D01*
X813008Y539309D01*
X811817Y539305D01*
X811817Y539305D02*
G37*
G36*
X796267Y536959D02*
X795517Y536959D01*
X795488Y536964D01*
X795455Y536964D01*
X795417Y536968D01*
X795376Y536968D01*
X795280Y536976D01*
X795180Y536993D01*
X795080Y537009D01*
X794980Y537034D01*
X794976Y537034D01*
X794963Y537038D01*
X794947Y537047D01*
X794921Y537055D01*
X794892Y537063D01*
X794859Y537076D01*
X794776Y537105D01*
X794684Y537143D01*
X794588Y537184D01*
X794492Y537230D01*
X794405Y537280D01*
X794397Y537284D01*
X794376Y537297D01*
X794347Y537322D01*
X794305Y537351D01*
X794263Y537388D01*
X794218Y537430D01*
X794172Y537476D01*
X794130Y537530D01*
X794126Y537538D01*
X794113Y537555D01*
X794097Y537584D01*
X794076Y537626D01*
X794059Y537672D01*
X794043Y537722D01*
X794030Y537780D01*
X794026Y537838D01*
X794026Y537842D01*
X794026Y537847D01*
X794026Y537859D01*
X794030Y537876D01*
X794038Y537922D01*
X794055Y537976D01*
X794080Y538038D01*
X794122Y538105D01*
X794147Y538138D01*
X794176Y538176D01*
X794209Y538209D01*
X794251Y538242D01*
X794255Y538247D01*
X794259Y538251D01*
X794276Y538259D01*
X794293Y538272D01*
X794317Y538284D01*
X794347Y538297D01*
X794380Y538313D01*
X794417Y538330D01*
X794463Y538346D01*
X794517Y538363D01*
X794572Y538376D01*
X794634Y538388D01*
X794701Y538401D01*
X794776Y538409D01*
X794855Y538417D01*
X795950Y538417D01*
X796267Y536959D01*
X796267Y536959D02*
G37*
D12*
X843120Y669470D02*
X843120Y686470D01*
X851620Y686470D01*
X851620Y669470D01*
X843120Y669470D01*
X868170Y669470D02*
X868170Y686470D01*
X876670Y686470D01*
X876670Y669470D01*
X868170Y669470D01*
X868020Y701370D02*
X868020Y718370D01*
X876520Y718370D01*
X876520Y701370D01*
X868020Y701370D01*
X851120Y718370D02*
X851120Y701370D01*
X842620Y701370D01*
X842620Y718370D01*
X851120Y718370D01*
X1125920Y685120D02*
X1142920Y685120D01*
X1142920Y693620D01*
X1125920Y693620D01*
X1125920Y685120D01*
X1125920Y684620D02*
X1142920Y684620D01*
X1142920Y676120D01*
X1125920Y676120D01*
X1125920Y684620D01*
X1126170Y675870D02*
X1143170Y675870D01*
X1143170Y667870D01*
X1126170Y667870D01*
X1126170Y675870D01*
X1145670Y696170D02*
X1145670Y707170D01*
X1121170Y707170D01*
X1121170Y696170D01*
X1145670Y696170D01*
X1145420Y707870D02*
X1145420Y718870D01*
X1120920Y718870D01*
X1120920Y707870D01*
X1145420Y707870D01*
D13*
X1097051Y585160D02*
X1099591Y585160D01*
X1099591Y600395D01*
X1102130Y597856D01*
X1102130Y585160D02*
X1097051Y585160D01*
X1098452Y821060D02*
X1100991Y821060D01*
X1100991Y836295D01*
X1103530Y833756D01*
X1103530Y821060D02*
X1098452Y821060D01*
D15*
X966920Y678870D02*
X1061920Y678870D01*
X1061920Y716870D01*
X966920Y716870D01*
X966920Y678870D01*
D42*
X966670Y748620D02*
G03*
X966670Y748620I-2500J0D01*
G01*
D43*
X979920Y706870D02*
G03*
X979920Y706870I-3000J0D01*
G01*
D44*
X764170Y673870D02*
X793170Y673870D01*
X793170Y676670D01*
X791670Y678170D02*
X791670Y681595D01*
X791670Y714145D02*
X791670Y717570D01*
X793170Y719070D02*
X793170Y721870D01*
X764170Y721870D01*
D45*
X759923Y726704D02*
X761589Y728370D01*
X759923Y726704D02*
X769920Y726704D01*
X769920Y725038D01*
X769920Y728370D01*
X826262Y732617D02*
X829594Y732617D01*
X829594Y722620D01*
X837925Y722620D02*
X841257Y722620D01*
X842923Y724286D01*
X842923Y729284D02*
X841257Y727618D01*
X837925Y727618D01*
X836259Y725952D01*
X836259Y724286D01*
X837925Y722620D01*
X836259Y730950D02*
X837925Y732617D01*
X841257Y732617D01*
X842923Y730950D01*
X842923Y729284D01*
X846255Y727618D02*
X847922Y725952D01*
X852920Y725952D01*
X852920Y722620D02*
X852920Y732617D01*
X847922Y732617D01*
X846255Y730950D01*
X846255Y727618D01*
X849588Y725952D02*
X846255Y722620D01*
X877928Y722620D02*
X876262Y724286D01*
X876262Y730950D01*
X877928Y732617D01*
X882926Y732617D01*
X882926Y722620D01*
X877928Y722620D01*
X886259Y722620D02*
X886259Y732617D01*
X886259Y722620D02*
X892923Y732617D01*
X892923Y722620D01*
X897922Y722620D02*
X896255Y724286D01*
X896255Y727618D01*
X899588Y727618D01*
X896255Y730950D02*
X897922Y732617D01*
X901254Y732617D01*
X902920Y730950D01*
X902920Y724286D01*
X901254Y722620D01*
X897922Y722620D01*
X930094Y722620D02*
X933426Y722620D01*
X935092Y724286D01*
X935092Y725952D01*
X933426Y727618D01*
X935092Y729284D01*
X935092Y730950D01*
X933426Y732617D01*
X930094Y732617D01*
X928428Y730950D01*
X928428Y729284D01*
X930094Y727618D01*
X928428Y725952D01*
X928428Y724286D01*
X930094Y722620D01*
X930094Y727618D02*
X933426Y727618D01*
X938425Y725952D02*
X938425Y732617D01*
X938425Y725952D02*
X941757Y722620D01*
X945089Y725952D01*
X945089Y732617D01*
X951754Y732617D02*
X953420Y730950D01*
X951754Y732617D02*
X951754Y722620D01*
X950088Y722620D01*
X953420Y722620D01*
X928420Y754786D02*
X926754Y753120D01*
X923421Y753120D01*
X921755Y754786D01*
X918423Y753120D02*
X911759Y753120D01*
X908426Y753120D02*
X908426Y756452D01*
X901762Y763117D01*
X906760Y758118D01*
X901762Y753120D01*
X908426Y753120D02*
X908426Y763117D01*
X921755Y761451D02*
X923421Y763117D01*
X926754Y763117D01*
X928420Y761451D01*
X928420Y754786D01*
X918423Y753120D02*
X918423Y763117D01*
X873670Y763117D02*
X870338Y763117D01*
X872004Y763117D01*
X872004Y753120D01*
X873670Y753120D01*
X870338Y753120D01*
X865339Y754786D02*
X863673Y753120D01*
X860341Y753120D01*
X858675Y754786D01*
X858675Y761451D01*
X860341Y763117D01*
X863673Y763117D01*
X865339Y761451D01*
X865339Y754786D01*
X832926Y732617D02*
X826262Y732617D01*
X865591Y666367D02*
X868923Y666367D01*
X870589Y664700D01*
X870589Y658036D01*
X868923Y656370D01*
X865591Y656370D01*
X863925Y658036D01*
X863925Y664700D01*
X865591Y666367D01*
X875588Y666367D02*
X877254Y666367D01*
X877254Y656370D01*
X878920Y656370D01*
X875588Y656370D01*
X883178Y635867D02*
X888176Y635867D01*
X888176Y625870D01*
X883178Y625870D01*
X881512Y627536D01*
X881512Y634201D01*
X883178Y635867D01*
X891509Y625870D02*
X891509Y635867D01*
X898173Y635867D02*
X891509Y625870D01*
X898173Y625870D02*
X898173Y635867D01*
X903171Y635867D02*
X906504Y635867D01*
X908170Y634201D01*
X908170Y627536D01*
X906504Y625870D01*
X903171Y625870D01*
X901505Y627536D01*
X901505Y630868D01*
X904838Y630868D01*
X901505Y634201D02*
X903171Y635867D01*
X907012Y656370D02*
X912010Y661368D01*
X907012Y666367D01*
X913676Y659702D01*
X913676Y656370D01*
X913676Y666367D01*
X917009Y656370D02*
X923673Y656370D01*
X923673Y666367D01*
X928671Y666367D02*
X932004Y666367D01*
X933670Y664700D01*
X933670Y658036D01*
X932004Y656370D01*
X928671Y656370D01*
X927005Y658036D01*
X937094Y635617D02*
X935428Y633951D01*
X935428Y632284D01*
X937094Y630618D01*
X935428Y628952D01*
X935428Y627286D01*
X937094Y625620D01*
X940426Y625620D01*
X942093Y627286D01*
X942093Y628952D01*
X940426Y630618D01*
X942093Y632284D01*
X942093Y633951D01*
X940426Y635617D01*
X937094Y635617D01*
X937094Y630618D02*
X940426Y630618D01*
X945425Y628952D02*
X945425Y635617D01*
X952089Y635617D02*
X952089Y628952D01*
X948757Y625620D01*
X945425Y628952D01*
X957088Y625620D02*
X958754Y625620D01*
X958754Y635617D01*
X960420Y633951D01*
X960420Y625620D02*
X957088Y625620D01*
X927005Y664700D02*
X928671Y666367D01*
X878920Y666367D02*
X875588Y666367D01*
X858170Y635867D02*
X853171Y635867D01*
X851505Y634201D01*
X851505Y630868D01*
X853171Y629202D01*
X858170Y629202D01*
X858170Y625870D02*
X858170Y635867D01*
X846507Y635867D02*
X848173Y634201D01*
X848173Y632534D01*
X846507Y630868D01*
X843175Y630868D01*
X841509Y629202D01*
X841509Y627536D01*
X843175Y625870D01*
X846507Y625870D01*
X848173Y627536D01*
X851505Y625870D02*
X854838Y629202D01*
X841509Y634201D02*
X843175Y635867D01*
X846507Y635867D01*
X838176Y635867D02*
X831512Y635867D01*
X834844Y635867D01*
X834844Y625870D01*
M02*
