G04*
G04 #@! TF.GenerationSoftware,Altium Limited,Altium Designer,23.2.1 (34)*
G04*
G04 Layer_Physical_Order=1*
G04 Layer_Color=255*
%FSLAX44Y44*%
%MOMM*%
G71*
G04*
G04 #@! TF.SameCoordinates,65844937-C824-47D7-9260-582DF4BCFB51*
G04*
G04*
G04 #@! TF.FilePolarity,Positive*
G04*
G01*
G75*
%ADD15C,0.1000*%
%ADD16C,0.2000*%
%ADD17R,0.6000X0.4000*%
%ADD18R,1.5000X1.0000*%
%ADD19R,0.5500X0.4000*%
%ADD20R,1.7000X0.9000*%
%ADD21R,0.9000X0.2700*%
%ADD22R,0.8000X0.2700*%
%ADD24R,1.3980X1.3980*%
%ADD25C,1.3980*%
%ADD26C,1.5700*%
%ADD27R,1.5700X1.5700*%
%ADD28C,0.6000*%
G04:AMPARAMS|DCode=29|XSize=0.85mm|YSize=0.5mm|CornerRadius=0.25mm|HoleSize=0mm|Usage=FLASHONLY|Rotation=90.000|XOffset=0mm|YOffset=0mm|HoleType=Round|Shape=RoundedRectangle|*
%AMROUNDEDRECTD29*
21,1,0.8500,0.0000,0,0,90.0*
21,1,0.3500,0.5000,0,0,90.0*
1,1,0.5000,0.0000,0.1750*
1,1,0.5000,0.0000,-0.1750*
1,1,0.5000,0.0000,-0.1750*
1,1,0.5000,0.0000,0.1750*
%
%ADD29ROUNDEDRECTD29*%
G04:AMPARAMS|DCode=30|XSize=1.3mm|YSize=2.6mm|CornerRadius=0.65mm|HoleSize=0mm|Usage=FLASHONLY|Rotation=90.000|XOffset=0mm|YOffset=0mm|HoleType=Round|Shape=RoundedRectangle|*
%AMROUNDEDRECTD30*
21,1,1.3000,1.3000,0,0,90.0*
21,1,0.0000,2.6000,0,0,90.0*
1,1,1.3000,0.6500,0.0000*
1,1,1.3000,0.6500,0.0000*
1,1,1.3000,-0.6500,0.0000*
1,1,1.3000,-0.6500,0.0000*
%
%ADD30ROUNDEDRECTD30*%
G04:AMPARAMS|DCode=31|XSize=0.6mm|YSize=1.9mm|CornerRadius=0.3mm|HoleSize=0mm|Usage=FLASHONLY|Rotation=90.000|XOffset=0mm|YOffset=0mm|HoleType=Round|Shape=RoundedRectangle|*
%AMROUNDEDRECTD31*
21,1,0.6000,1.3000,0,0,90.0*
21,1,0.0000,1.9000,0,0,90.0*
1,1,0.6000,0.6500,0.0000*
1,1,0.6000,0.6500,0.0000*
1,1,0.6000,-0.6500,0.0000*
1,1,0.6000,-0.6500,0.0000*
%
%ADD31ROUNDEDRECTD31*%
G04:AMPARAMS|DCode=32|XSize=1.25mm|YSize=0.7mm|CornerRadius=0.35mm|HoleSize=0mm|Usage=FLASHONLY|Rotation=90.000|XOffset=0mm|YOffset=0mm|HoleType=Round|Shape=RoundedRectangle|*
%AMROUNDEDRECTD32*
21,1,1.2500,0.0000,0,0,90.0*
21,1,0.5500,0.7000,0,0,90.0*
1,1,0.7000,0.0000,0.2750*
1,1,0.7000,0.0000,-0.2750*
1,1,0.7000,0.0000,-0.2750*
1,1,0.7000,0.0000,0.2750*
%
%ADD32ROUNDEDRECTD32*%
%ADD33C,0.3500*%
G36*
G01X1096670Y654670D02*
G01X1096670Y660870D01*
G03X1091302Y665172I-5367J-1198D01*
G03X1091170Y665170I-3J-5329D01*
G03X1085670Y660670I-92J-5499D01*
G01X1079670Y660670D01*
G03X1073670Y654670I0J-6000D01*
G03X1079670Y648670I6000J-0D01*
G01X1090670Y648670D01*
G03X1096670Y654670I0J6000D01*
X1096670Y654670D02*
G37*
G36*
G01X1091302Y730568D02*
G03X1096670Y734870I0J5499D01*
G01X1096670Y741070D01*
G03X1090670Y747070I-6000J0D01*
G01X1079670Y747070D01*
G03X1079670Y735070I0J-6000D01*
G01X1085670Y735070D01*
G03X1091170Y730570I5408J999D01*
G03X1091302Y730568I133J5514D01*
X1091302Y730568D02*
G37*
D15*
X779920Y655370D02*
X780420Y654870D01*
X779920Y655370D02*
X779920Y662620D01*
X820520Y645870D02*
X820520Y590520D01*
X833420Y577620D01*
X918420Y577620D01*
X932870Y592070D01*
X932870Y592870D01*
X925420Y609370D02*
X967170Y609370D01*
X983670Y592870D01*
X970670Y599620D02*
X970670Y584870D01*
X975670Y579870D01*
X996070Y579870D01*
X1009070Y592870D01*
X970670Y599620D02*
X964670Y605620D01*
X876920Y605620D01*
X871320Y611220D01*
X871320Y645870D01*
X845920Y645870D02*
X845920Y588620D01*
X854420Y580120D01*
X903420Y580120D01*
X903506Y580034D01*
X907470Y583998D01*
X907470Y592870D01*
X925420Y609370D02*
X921170Y613620D01*
X921170Y644920D01*
X922120Y645870D01*
X923520Y742870D02*
X923520Y808470D01*
X928920Y813870D01*
X1015920Y813870D01*
X1021670Y819620D01*
X1021670Y839620D01*
X1017670Y843620D01*
X988920Y843620D01*
X985820Y840520D01*
X985820Y828270D01*
X1000320Y817370D02*
X1011220Y828270D01*
X1000320Y817370D02*
X880170Y817370D01*
X872720Y809920D01*
X872720Y742870D01*
X847320Y742870D02*
X847320Y833520D01*
X857420Y843620D01*
X905170Y843620D01*
X909620Y839170D01*
X909620Y828270D01*
X935020Y828270D02*
X935020Y838770D01*
X928170Y845620D01*
X833170Y845620D01*
X821920Y834370D01*
X821920Y742870D01*
X779420Y735870D02*
X778670Y735120D01*
X778670Y727370D01*
X1050170Y679120D02*
X1050170Y699120D01*
X1052670Y701620D01*
X1078170Y701620D01*
X1081320Y701620D01*
X1088820Y694120D01*
X1094170Y694120D01*
X1094170Y699120D02*
X1101170Y699120D01*
X1101170Y699120D01*
X1094170Y704120D02*
X1115670Y704120D01*
X1121920Y697870D01*
X1121920Y689370D01*
X1084845Y691620D02*
X1084854Y691628D01*
X1084845Y691620D02*
X1078170Y691620D01*
X1078170Y696620D02*
X1069420Y696620D01*
X1060170Y696620D01*
X1056670Y693120D01*
X1056670Y679120D01*
D16*
X780420Y618870D02*
X780420Y628870D01*
X779420Y759620D02*
X779420Y771870D01*
X1002920Y656420D02*
X1002920Y663870D01*
X1011320Y663770D02*
X1011420Y663870D01*
X1011320Y663770D02*
X1011320Y647720D01*
X1011220Y647620D01*
X1004670Y647620D02*
X1004670Y654670D01*
X1002920Y656420D01*
X1020170Y650140D02*
X1020170Y663620D01*
X1029170Y664120D02*
X1041170Y664120D01*
X1043920Y661370D01*
X1043920Y647620D01*
X1078170Y671620D02*
X1084420Y671620D01*
X1086920Y669120D01*
X1094170Y669120D01*
X1101170Y669120D01*
X1094170Y684120D02*
X1087520Y684120D01*
X1085020Y686620D01*
X1078170Y686620D01*
X1069420Y686620D01*
X1069420Y686620D01*
X1087420Y709120D02*
X1094170Y709120D01*
X1094170Y724120D02*
X1101170Y724120D01*
X1101170Y724120D01*
X1094170Y724120D02*
X1087420Y724120D01*
X1084920Y726620D01*
X1078170Y726620D01*
X1078170Y711620D02*
X1084920Y711620D01*
X1087420Y709120D01*
X1078170Y711620D02*
X1069420Y711620D01*
X1057545Y711620D01*
X1054795Y708870D01*
X1035170Y708870D01*
X1031170Y704870D01*
X1031170Y690870D01*
X1028670Y690870D01*
X1020457Y682657D01*
X1020457Y681907D01*
X1020170Y681620D01*
X1020170Y673620D01*
X1029170Y674120D02*
X1030170Y674120D01*
X1034883Y678833D01*
X1037133Y678833D01*
X1037420Y679120D01*
X1020170Y650140D02*
X1017670Y647640D01*
X1017670Y647620D01*
X1011420Y674070D02*
X1011420Y701420D01*
X1007970Y704870D01*
X996170Y704870D01*
X996170Y690870D02*
X996170Y680070D01*
X1002170Y674070D01*
X1002920Y674070D01*
X1011220Y716620D02*
X1011220Y724320D01*
X1009420Y726120D01*
X991670Y726120D01*
X991670Y736120D02*
X991670Y749620D01*
D17*
X991670Y726120D02*
D03*
X991670Y736120D02*
D03*
X1020170Y673620D02*
D03*
X1029170Y674120D02*
D03*
X1029170Y664120D02*
D03*
X1020170Y663620D02*
D03*
D18*
X996170Y690870D02*
D03*
X996170Y704870D02*
D03*
X1031170Y704870D02*
D03*
X1031170Y690870D02*
D03*
D19*
X1002920Y663870D02*
D03*
X1011420Y663870D02*
D03*
X1011420Y674070D02*
D03*
X1002920Y674070D02*
D03*
D20*
X780420Y618870D02*
D03*
X780420Y654870D02*
D03*
X779420Y735870D02*
D03*
X779420Y771870D02*
D03*
D21*
X1078170Y671620D02*
D03*
X1078170Y676620D02*
D03*
X1078170Y681620D02*
D03*
X1078170Y686620D02*
D03*
X1078170Y691620D02*
D03*
X1078170Y696620D02*
D03*
X1078170Y701620D02*
D03*
X1078170Y706620D02*
D03*
X1078170Y711620D02*
D03*
X1078170Y716620D02*
D03*
X1078170Y721620D02*
D03*
X1078170Y726620D02*
D03*
D22*
X1094170Y669120D02*
D03*
X1094170Y674120D02*
D03*
X1094170Y679120D02*
D03*
X1094170Y684120D02*
D03*
X1094170Y689120D02*
D03*
X1094170Y694120D02*
D03*
X1094170Y699120D02*
D03*
X1094170Y704120D02*
D03*
X1094170Y709120D02*
D03*
X1094170Y714120D02*
D03*
X1094170Y719120D02*
D03*
X1094170Y724120D02*
D03*
D24*
X1085270Y592870D02*
D03*
X1087420Y828270D02*
D03*
D25*
X856670Y567470D02*
D03*
X882070Y567470D02*
D03*
X907470Y567470D02*
D03*
X932870Y567470D02*
D03*
X958270Y567470D02*
D03*
X983670Y567470D02*
D03*
X1009070Y567470D02*
D03*
X1034470Y567470D02*
D03*
X1059870Y567470D02*
D03*
X1085270Y567470D02*
D03*
X1059870Y592870D02*
D03*
X1034470Y592870D02*
D03*
X1009070Y592870D02*
D03*
X983670Y592870D02*
D03*
X958270Y592870D02*
D03*
X932870Y592870D02*
D03*
X907470Y592870D02*
D03*
X882070Y592870D02*
D03*
X856670Y592870D02*
D03*
X1062020Y802870D02*
D03*
X1087420Y802870D02*
D03*
X1062020Y828270D02*
D03*
X1036620Y828270D02*
D03*
X1036620Y802870D02*
D03*
X1011220Y828270D02*
D03*
X1011220Y802870D02*
D03*
X985820Y828270D02*
D03*
X985820Y802870D02*
D03*
X960420Y828270D02*
D03*
X960420Y802870D02*
D03*
X935020Y828270D02*
D03*
X935020Y802870D02*
D03*
X909620Y828270D02*
D03*
X909620Y802870D02*
D03*
X884220Y828270D02*
D03*
X884220Y802870D02*
D03*
X858820Y828270D02*
D03*
X858820Y802870D02*
D03*
D26*
X821920Y645870D02*
D03*
X847320Y645870D02*
D03*
X872720Y645870D02*
D03*
X898120Y645870D02*
D03*
X923520Y645870D02*
D03*
X923520Y742870D02*
D03*
X898120Y742870D02*
D03*
X872720Y742870D02*
D03*
X847320Y742870D02*
D03*
X821920Y742870D02*
D03*
D27*
X948920Y645870D02*
D03*
X948920Y742870D02*
D03*
D28*
X1105170Y661870D02*
D03*
D29*
X1104520Y733870D02*
D03*
D30*
X1135670Y654670D02*
D03*
X1135670Y741070D02*
D03*
D31*
X1085170Y654670D02*
D03*
D32*
X1091270Y737820D02*
D03*
D33*
X760170Y682870D02*
D03*
X779920Y662620D02*
D03*
X770670Y697870D02*
D03*
X770670Y712870D02*
D03*
X778670Y727370D02*
D03*
X779170Y759620D02*
D03*
X854670Y682870D02*
D03*
X880620Y683070D02*
D03*
X864670Y704770D02*
D03*
X840170Y704770D02*
D03*
X780420Y628870D02*
D03*
X984920Y647620D02*
D03*
X1004670Y647620D02*
D03*
X1011220Y647620D02*
D03*
X1017670Y647620D02*
D03*
X1043920Y647620D02*
D03*
X1050170Y679120D02*
D03*
X1056670Y679120D02*
D03*
X1069420Y686620D02*
D03*
X1069420Y696620D02*
D03*
X1085270Y691370D02*
D03*
X1101170Y669120D02*
D03*
X1134170Y680370D02*
D03*
X1134170Y701370D02*
D03*
X1121920Y689370D02*
D03*
X1134170Y713370D02*
D03*
X1101170Y724120D02*
D03*
X1101170Y699120D02*
D03*
X1069420Y711620D02*
D03*
X1037420Y679120D02*
D03*
X1020170Y681620D02*
D03*
X1011220Y716620D02*
D03*
X991670Y749620D02*
D03*
M02*
