M48
;Layer_Color=9474304
;FILE_FORMAT=4:4
METRIC,TZ
;TYPE=PLATED
T1F00S00C0.1500
T4F00S00C0.8900
T5F00S00C1.0200
%
T01
X854670Y682870
X880620Y683070
X864670Y704770
X840170Y704770
X1011220Y716620
X1020170Y681620
X1037420Y679120
X1050170Y679120
X1056670Y679120
X1069420Y686620
X1069420Y696620
X1069420Y711620
X1085270Y691370
X1101170Y699120
X1101170Y724120
X1134170Y713370
X1134170Y701370
X1134170Y680370
X1121920Y689370
X1101170Y669120
X1043920Y647620
X1017670Y647620
X1011220Y647620
X1004670Y647620
X984920Y647620
X991670Y749620
X779170Y759620
X778670Y727370
X770670Y712870
X770670Y697870
X760170Y682870
X779920Y662620
X780420Y628870
T04
X856670Y567470
X882070Y567470
X907470Y567470
X932870Y567470
X958270Y567470
X983670Y567470
X1009070Y567470
X1034470Y567470
X1059870Y567470
X1085270Y567470
X1085270Y592870
X1059870Y592870
X1034470Y592870
X1009070Y592870
X983670Y592870
X958270Y592870
X932870Y592870
X907470Y592870
X882070Y592870
X856670Y592870
X858820Y802870
X884220Y802870
X909620Y802870
X935020Y802870
X960420Y802870
X985820Y802870
X1011220Y802870
X1036620Y802870
X1062020Y802870
X1087420Y802870
X1087420Y828270
X1062020Y828270
X1036620Y828270
X1011220Y828270
X985820Y828270
X960420Y828270
X935020Y828270
X909620Y828270
X884220Y828270
X858820Y828270
T05
X821920Y645870
X847320Y645870
X872720Y645870
X898120Y645870
X923520Y645870
X948920Y645870
X948920Y742870
X923520Y742870
X898120Y742870
X872720Y742870
X847320Y742870
X821920Y742870
M30
