G04*
G04 #@! TF.GenerationSoftware,Altium Limited,Altium Designer,23.2.1 (34)*
G04*
G04 Layer_Color=8388736*
%FSLAX44Y44*%
%MOMM*%
G71*
G04*
G04 #@! TF.SameCoordinates,A09DFDA7-D9F1-4DE4-ACD4-BFB300AD21FA*
G04*
G04*
G04 #@! TF.FilePolarity,Positive*
G04*
G01*
G75*
%ADD12C,0.1500*%
%ADD19C,0.1000*%
%ADD26C,0.2540*%
G36*
X257000Y269750D02*
X256403Y269750D01*
X255301Y270207D01*
X254457Y271051D01*
X254000Y272153D01*
X254000Y272750D01*
X254000Y272750D01*
X254000Y321750D01*
X254000Y322347D01*
X254457Y323449D01*
X255301Y324293D01*
X256403Y324750D01*
X257000Y324750D01*
X257000Y324750D01*
X301500Y324750D01*
X301500Y269750D01*
X257000Y269750D01*
X257000Y269750D02*
G37*
G36*
X328812Y400810D02*
X328894Y400804D01*
X328996Y400797D01*
X329104Y400785D01*
X329231Y400759D01*
X329370Y400734D01*
X329516Y400702D01*
X329669Y400658D01*
X329828Y400607D01*
X329986Y400543D01*
X330145Y400467D01*
X330298Y400385D01*
X330450Y400283D01*
X330590Y400169D01*
X330596Y400162D01*
X330621Y400137D01*
X330659Y400105D01*
X330710Y400048D01*
X330768Y399985D01*
X330831Y399908D01*
X330901Y399813D01*
X330977Y399705D01*
X331053Y399585D01*
X331129Y399451D01*
X331206Y399305D01*
X331275Y399146D01*
X331339Y398975D01*
X331390Y398791D01*
X331441Y398600D01*
X331472Y398391D01*
X330285Y398296D01*
X330285Y398302D01*
X330279Y398327D01*
X330266Y398365D01*
X330253Y398410D01*
X330240Y398467D01*
X330215Y398537D01*
X330196Y398607D01*
X330164Y398689D01*
X330101Y398854D01*
X330024Y399026D01*
X329929Y399184D01*
X329879Y399254D01*
X329828Y399318D01*
X329821Y399324D01*
X329809Y399343D01*
X329777Y399369D01*
X329739Y399400D01*
X329694Y399439D01*
X329637Y399483D01*
X329574Y399527D01*
X329497Y399578D01*
X329415Y399623D01*
X329320Y399667D01*
X329224Y399712D01*
X329117Y399750D01*
X329002Y399788D01*
X328888Y399813D01*
X328761Y399826D01*
X328628Y399832D01*
X328570Y399832D01*
X328532Y399826D01*
X328481Y399826D01*
X328424Y399813D01*
X328361Y399807D01*
X328291Y399794D01*
X328132Y399756D01*
X327961Y399699D01*
X327878Y399661D01*
X327789Y399623D01*
X327707Y399572D01*
X327624Y399515D01*
X327618Y399508D01*
X327599Y399496D01*
X327567Y399470D01*
X327529Y399439D01*
X327485Y399394D01*
X327427Y399343D01*
X327364Y399280D01*
X327300Y399210D01*
X327230Y399127D01*
X327154Y399039D01*
X327085Y398937D01*
X327008Y398829D01*
X326932Y398715D01*
X326862Y398588D01*
X326792Y398454D01*
X326729Y398308D01*
X326722Y398302D01*
X326716Y398270D01*
X326697Y398226D01*
X326678Y398162D01*
X326653Y398080D01*
X326627Y397978D01*
X326595Y397864D01*
X326564Y397730D01*
X326532Y397578D01*
X326507Y397407D01*
X326475Y397222D01*
X326450Y397019D01*
X326430Y396803D01*
X326411Y396568D01*
X326399Y396314D01*
X326392Y396048D01*
X326399Y396054D01*
X326411Y396079D01*
X326437Y396111D01*
X326469Y396156D01*
X326513Y396213D01*
X326564Y396276D01*
X326621Y396346D01*
X326684Y396416D01*
X326761Y396498D01*
X326837Y396575D01*
X326926Y396657D01*
X327021Y396740D01*
X327224Y396892D01*
X327332Y396962D01*
X327446Y397025D01*
X327453Y397032D01*
X327472Y397038D01*
X327510Y397057D01*
X327554Y397076D01*
X327612Y397102D01*
X327681Y397127D01*
X327758Y397159D01*
X327846Y397191D01*
X327942Y397216D01*
X328043Y397248D01*
X328151Y397273D01*
X328266Y397299D01*
X328507Y397337D01*
X328634Y397343D01*
X328761Y397349D01*
X328812Y397349D01*
X328875Y397343D01*
X328964Y397337D01*
X329066Y397324D01*
X329186Y397305D01*
X329320Y397273D01*
X329466Y397241D01*
X329624Y397191D01*
X329790Y397133D01*
X329955Y397064D01*
X330132Y396975D01*
X330304Y396873D01*
X330475Y396759D01*
X330640Y396619D01*
X330806Y396467D01*
X330818Y396454D01*
X330844Y396429D01*
X330882Y396378D01*
X330939Y396308D01*
X331002Y396219D01*
X331072Y396111D01*
X331148Y395990D01*
X331231Y395851D01*
X331307Y395692D01*
X331383Y395521D01*
X331453Y395336D01*
X331517Y395133D01*
X331574Y394917D01*
X331612Y394689D01*
X331644Y394441D01*
X331650Y394187D01*
X331650Y394174D01*
X331650Y394149D01*
X331650Y394098D01*
X331644Y394028D01*
X331637Y393952D01*
X331631Y393857D01*
X331618Y393749D01*
X331599Y393628D01*
X331580Y393501D01*
X331555Y393362D01*
X331523Y393222D01*
X331479Y393076D01*
X331434Y392923D01*
X331383Y392777D01*
X331320Y392625D01*
X331250Y392473D01*
X331244Y392466D01*
X331231Y392441D01*
X331212Y392396D01*
X331180Y392346D01*
X331136Y392276D01*
X331091Y392200D01*
X331034Y392117D01*
X330964Y392028D01*
X330895Y391933D01*
X330812Y391831D01*
X330723Y391730D01*
X330628Y391634D01*
X330520Y391533D01*
X330412Y391437D01*
X330291Y391349D01*
X330164Y391266D01*
X330158Y391260D01*
X330132Y391247D01*
X330094Y391228D01*
X330044Y391203D01*
X329980Y391171D01*
X329897Y391133D01*
X329809Y391101D01*
X329707Y391063D01*
X329599Y391018D01*
X329478Y390987D01*
X329345Y390949D01*
X329205Y390917D01*
X329066Y390891D01*
X328913Y390872D01*
X328755Y390860D01*
X328589Y390853D01*
X328526Y390853D01*
X328488Y390860D01*
X328443Y390860D01*
X328399Y390866D01*
X328342Y390872D01*
X328215Y390885D01*
X328069Y390910D01*
X327904Y390949D01*
X327719Y390993D01*
X327535Y391050D01*
X327332Y391120D01*
X327129Y391209D01*
X326926Y391317D01*
X326722Y391444D01*
X326519Y391590D01*
X326329Y391761D01*
X326234Y391850D01*
X326145Y391952D01*
X326145Y391958D01*
X326132Y391965D01*
X326119Y391984D01*
X326107Y392003D01*
X326081Y392034D01*
X326056Y392072D01*
X326030Y392111D01*
X325999Y392161D01*
X325961Y392219D01*
X325922Y392282D01*
X325884Y392358D01*
X325846Y392435D01*
X325802Y392517D01*
X325757Y392612D01*
X325719Y392714D01*
X325675Y392816D01*
X325630Y392930D01*
X325586Y393057D01*
X325541Y393184D01*
X325497Y393324D01*
X325459Y393470D01*
X325421Y393622D01*
X325383Y393781D01*
X325345Y393946D01*
X325313Y394124D01*
X325287Y394308D01*
X325262Y394498D01*
X325237Y394701D01*
X325224Y394911D01*
X325211Y395127D01*
X325199Y395349D01*
X325199Y395584D01*
X325199Y395590D01*
X325199Y395616D01*
X325199Y395654D01*
X325199Y395711D01*
X325205Y395775D01*
X325205Y395857D01*
X325211Y395946D01*
X325218Y396048D01*
X325224Y396162D01*
X325230Y396283D01*
X325243Y396410D01*
X325256Y396549D01*
X325268Y396695D01*
X325287Y396841D01*
X325332Y397159D01*
X325383Y397495D01*
X325452Y397832D01*
X325541Y398175D01*
X325643Y398518D01*
X325764Y398842D01*
X325903Y399153D01*
X325980Y399299D01*
X326062Y399439D01*
X326151Y399572D01*
X326246Y399699D01*
X326246Y399705D01*
X326259Y399712D01*
X326291Y399750D01*
X326342Y399800D01*
X326411Y399877D01*
X326507Y399959D01*
X326615Y400055D01*
X326748Y400156D01*
X326894Y400258D01*
X327065Y400359D01*
X327250Y400461D01*
X327453Y400556D01*
X327669Y400645D01*
X327904Y400715D01*
X328158Y400766D01*
X328424Y400804D01*
X328564Y400816D01*
X328755Y400816D01*
X328812Y400810D01*
X328812Y400810D02*
G37*
G36*
X317432Y400810D02*
X317515Y400804D01*
X317617Y400797D01*
X317725Y400785D01*
X317852Y400759D01*
X317991Y400734D01*
X318137Y400702D01*
X318290Y400658D01*
X318449Y400607D01*
X318607Y400543D01*
X318766Y400467D01*
X318918Y400385D01*
X319071Y400283D01*
X319210Y400169D01*
X319217Y400162D01*
X319242Y400137D01*
X319280Y400105D01*
X319331Y400048D01*
X319388Y399985D01*
X319452Y399908D01*
X319522Y399813D01*
X319598Y399705D01*
X319674Y399585D01*
X319750Y399451D01*
X319826Y399305D01*
X319896Y399146D01*
X319960Y398975D01*
X320011Y398791D01*
X320061Y398600D01*
X320093Y398391D01*
X318906Y398296D01*
X318906Y398302D01*
X318899Y398327D01*
X318887Y398365D01*
X318874Y398410D01*
X318861Y398467D01*
X318836Y398537D01*
X318817Y398607D01*
X318785Y398689D01*
X318722Y398854D01*
X318645Y399026D01*
X318550Y399184D01*
X318499Y399254D01*
X318449Y399318D01*
X318442Y399324D01*
X318429Y399343D01*
X318398Y399369D01*
X318360Y399400D01*
X318315Y399439D01*
X318258Y399483D01*
X318195Y399527D01*
X318118Y399578D01*
X318036Y399623D01*
X317941Y399667D01*
X317845Y399712D01*
X317737Y399750D01*
X317623Y399788D01*
X317509Y399813D01*
X317382Y399826D01*
X317248Y399832D01*
X317191Y399832D01*
X317153Y399826D01*
X317102Y399826D01*
X317045Y399813D01*
X316982Y399807D01*
X316912Y399794D01*
X316753Y399756D01*
X316582Y399699D01*
X316499Y399661D01*
X316410Y399623D01*
X316328Y399572D01*
X316245Y399515D01*
X316239Y399508D01*
X316220Y399496D01*
X316188Y399470D01*
X316150Y399439D01*
X316105Y399394D01*
X316048Y399343D01*
X315985Y399280D01*
X315921Y399210D01*
X315851Y399127D01*
X315775Y399039D01*
X315705Y398937D01*
X315629Y398829D01*
X315553Y398715D01*
X315483Y398588D01*
X315413Y398454D01*
X315350Y398308D01*
X315343Y398302D01*
X315337Y398270D01*
X315318Y398226D01*
X315299Y398162D01*
X315273Y398080D01*
X315248Y397978D01*
X315216Y397864D01*
X315185Y397730D01*
X315153Y397578D01*
X315127Y397407D01*
X315096Y397222D01*
X315070Y397019D01*
X315051Y396803D01*
X315032Y396568D01*
X315019Y396314D01*
X315013Y396048D01*
X315019Y396054D01*
X315032Y396079D01*
X315058Y396111D01*
X315089Y396156D01*
X315134Y396213D01*
X315185Y396276D01*
X315242Y396346D01*
X315305Y396416D01*
X315381Y396498D01*
X315458Y396575D01*
X315546Y396657D01*
X315642Y396740D01*
X315845Y396892D01*
X315953Y396962D01*
X316067Y397025D01*
X316074Y397032D01*
X316093Y397038D01*
X316131Y397057D01*
X316175Y397076D01*
X316232Y397102D01*
X316302Y397127D01*
X316378Y397159D01*
X316467Y397191D01*
X316562Y397216D01*
X316664Y397248D01*
X316772Y397273D01*
X316886Y397299D01*
X317128Y397337D01*
X317255Y397343D01*
X317382Y397349D01*
X317432Y397349D01*
X317496Y397343D01*
X317585Y397337D01*
X317687Y397324D01*
X317807Y397305D01*
X317941Y397273D01*
X318086Y397241D01*
X318245Y397191D01*
X318410Y397133D01*
X318575Y397064D01*
X318753Y396975D01*
X318925Y396873D01*
X319096Y396759D01*
X319261Y396619D01*
X319426Y396467D01*
X319439Y396454D01*
X319464Y396429D01*
X319503Y396378D01*
X319560Y396308D01*
X319623Y396219D01*
X319693Y396111D01*
X319769Y395990D01*
X319852Y395851D01*
X319928Y395692D01*
X320004Y395521D01*
X320074Y395336D01*
X320138Y395133D01*
X320195Y394917D01*
X320233Y394689D01*
X320265Y394441D01*
X320271Y394187D01*
X320271Y394174D01*
X320271Y394149D01*
X320271Y394098D01*
X320265Y394028D01*
X320258Y393952D01*
X320252Y393857D01*
X320239Y393749D01*
X320220Y393628D01*
X320201Y393501D01*
X320176Y393362D01*
X320144Y393222D01*
X320099Y393076D01*
X320055Y392923D01*
X320004Y392777D01*
X319941Y392625D01*
X319871Y392473D01*
X319865Y392466D01*
X319852Y392441D01*
X319833Y392396D01*
X319801Y392346D01*
X319757Y392276D01*
X319712Y392200D01*
X319655Y392117D01*
X319585Y392028D01*
X319515Y391933D01*
X319433Y391831D01*
X319344Y391730D01*
X319249Y391634D01*
X319141Y391533D01*
X319033Y391437D01*
X318912Y391349D01*
X318785Y391266D01*
X318779Y391260D01*
X318753Y391247D01*
X318715Y391228D01*
X318664Y391203D01*
X318601Y391171D01*
X318518Y391133D01*
X318429Y391101D01*
X318328Y391063D01*
X318220Y391018D01*
X318099Y390987D01*
X317966Y390949D01*
X317826Y390917D01*
X317687Y390891D01*
X317534Y390872D01*
X317375Y390860D01*
X317210Y390853D01*
X317147Y390853D01*
X317109Y390860D01*
X317064Y390860D01*
X317020Y390866D01*
X316963Y390872D01*
X316836Y390885D01*
X316689Y390910D01*
X316524Y390949D01*
X316340Y390993D01*
X316156Y391050D01*
X315953Y391120D01*
X315750Y391209D01*
X315546Y391317D01*
X315343Y391444D01*
X315140Y391590D01*
X314950Y391761D01*
X314854Y391850D01*
X314765Y391952D01*
X314765Y391958D01*
X314753Y391965D01*
X314740Y391984D01*
X314727Y392003D01*
X314702Y392034D01*
X314677Y392072D01*
X314651Y392111D01*
X314619Y392161D01*
X314581Y392219D01*
X314543Y392282D01*
X314505Y392358D01*
X314467Y392435D01*
X314423Y392517D01*
X314378Y392612D01*
X314340Y392714D01*
X314296Y392816D01*
X314251Y392930D01*
X314207Y393057D01*
X314162Y393184D01*
X314118Y393324D01*
X314080Y393470D01*
X314042Y393622D01*
X314004Y393781D01*
X313965Y393946D01*
X313934Y394124D01*
X313908Y394308D01*
X313883Y394498D01*
X313857Y394701D01*
X313845Y394911D01*
X313832Y395127D01*
X313819Y395349D01*
X313819Y395584D01*
X313819Y395590D01*
X313819Y395616D01*
X313819Y395654D01*
X313819Y395711D01*
X313826Y395775D01*
X313826Y395857D01*
X313832Y395946D01*
X313838Y396048D01*
X313845Y396162D01*
X313851Y396283D01*
X313864Y396410D01*
X313876Y396549D01*
X313889Y396695D01*
X313908Y396841D01*
X313953Y397159D01*
X314004Y397495D01*
X314073Y397832D01*
X314162Y398175D01*
X314264Y398518D01*
X314384Y398842D01*
X314524Y399153D01*
X314600Y399299D01*
X314683Y399439D01*
X314772Y399572D01*
X314867Y399699D01*
X314867Y399705D01*
X314880Y399712D01*
X314911Y399750D01*
X314962Y399800D01*
X315032Y399877D01*
X315127Y399959D01*
X315235Y400055D01*
X315369Y400156D01*
X315515Y400258D01*
X315686Y400359D01*
X315870Y400461D01*
X316074Y400556D01*
X316290Y400645D01*
X316524Y400715D01*
X316778Y400766D01*
X317045Y400804D01*
X317185Y400816D01*
X317375Y400816D01*
X317432Y400810D01*
X317432Y400810D02*
G37*
G36*
X359622Y398245D02*
X359692Y398245D01*
X359781Y398232D01*
X359882Y398219D01*
X359996Y398200D01*
X360117Y398181D01*
X360244Y398149D01*
X360378Y398111D01*
X360511Y398061D01*
X360651Y398003D01*
X360778Y397940D01*
X360911Y397857D01*
X361032Y397769D01*
X361139Y397667D01*
X361146Y397660D01*
X361165Y397641D01*
X361190Y397603D01*
X361228Y397559D01*
X361273Y397495D01*
X361317Y397419D01*
X361368Y397330D01*
X361425Y397222D01*
X361476Y397102D01*
X361527Y396975D01*
X361571Y396822D01*
X361616Y396664D01*
X361654Y396486D01*
X361679Y396295D01*
X361698Y396092D01*
X361705Y395870D01*
X361705Y391018D01*
X360517Y391018D01*
X360517Y395470D01*
X360517Y395476D01*
X360517Y395502D01*
X360517Y395540D01*
X360517Y395584D01*
X360511Y395648D01*
X360511Y395711D01*
X360504Y395787D01*
X360504Y395870D01*
X360485Y396035D01*
X360466Y396206D01*
X360435Y396371D01*
X360416Y396441D01*
X360397Y396505D01*
X360397Y396511D01*
X360390Y396517D01*
X360371Y396556D01*
X360346Y396613D01*
X360301Y396689D01*
X360244Y396772D01*
X360168Y396854D01*
X360079Y396937D01*
X359971Y397013D01*
X359965Y397013D01*
X359958Y397019D01*
X359939Y397032D01*
X359920Y397045D01*
X359851Y397076D01*
X359768Y397114D01*
X359660Y397146D01*
X359539Y397178D01*
X359406Y397203D01*
X359254Y397210D01*
X359184Y397210D01*
X359133Y397203D01*
X359069Y397197D01*
X358993Y397184D01*
X358911Y397165D01*
X358822Y397146D01*
X358727Y397121D01*
X358625Y397089D01*
X358523Y397051D01*
X358415Y397000D01*
X358314Y396943D01*
X358212Y396880D01*
X358111Y396803D01*
X358015Y396714D01*
X358009Y396708D01*
X357996Y396689D01*
X357971Y396664D01*
X357939Y396619D01*
X357901Y396568D01*
X357863Y396498D01*
X357818Y396422D01*
X357774Y396333D01*
X357723Y396225D01*
X357679Y396111D01*
X357641Y395978D01*
X357603Y395838D01*
X357571Y395679D01*
X357545Y395508D01*
X357533Y395324D01*
X357526Y395127D01*
X357526Y391018D01*
X356326Y391018D01*
X356326Y395610D01*
X356326Y395616D01*
X356326Y395648D01*
X356326Y395686D01*
X356320Y395743D01*
X356320Y395806D01*
X356314Y395882D01*
X356301Y395971D01*
X356288Y396060D01*
X356256Y396257D01*
X356206Y396454D01*
X356129Y396645D01*
X356085Y396733D01*
X356034Y396810D01*
X356028Y396816D01*
X356021Y396829D01*
X356002Y396848D01*
X355977Y396873D01*
X355945Y396905D01*
X355907Y396937D01*
X355863Y396975D01*
X355806Y397013D01*
X355742Y397045D01*
X355672Y397083D01*
X355596Y397114D01*
X355507Y397146D01*
X355412Y397172D01*
X355310Y397191D01*
X355196Y397203D01*
X355075Y397210D01*
X355024Y397210D01*
X354986Y397203D01*
X354942Y397203D01*
X354891Y397197D01*
X354834Y397191D01*
X354771Y397178D01*
X354624Y397146D01*
X354466Y397095D01*
X354301Y397032D01*
X354136Y396943D01*
X354129Y396943D01*
X354116Y396930D01*
X354097Y396918D01*
X354066Y396892D01*
X353989Y396829D01*
X353900Y396746D01*
X353799Y396638D01*
X353691Y396498D01*
X353596Y396346D01*
X353513Y396162D01*
X353513Y396156D01*
X353507Y396137D01*
X353494Y396111D01*
X353481Y396067D01*
X353469Y396016D01*
X353456Y395946D01*
X353437Y395870D01*
X353418Y395787D01*
X353399Y395686D01*
X353386Y395578D01*
X353367Y395451D01*
X353354Y395324D01*
X353342Y395178D01*
X353329Y395025D01*
X353323Y394860D01*
X353323Y394682D01*
X353323Y391018D01*
X352122Y391018D01*
X352122Y398086D01*
X353196Y398086D01*
X353196Y397095D01*
X353202Y397102D01*
X353208Y397121D01*
X353227Y397146D01*
X353259Y397184D01*
X353291Y397229D01*
X353329Y397280D01*
X353373Y397337D01*
X353431Y397394D01*
X353488Y397464D01*
X353558Y397527D01*
X353710Y397667D01*
X353881Y397807D01*
X354078Y397934D01*
X354085Y397940D01*
X354104Y397946D01*
X354136Y397965D01*
X354180Y397984D01*
X354231Y398010D01*
X354294Y398035D01*
X354364Y398061D01*
X354447Y398092D01*
X354535Y398124D01*
X354631Y398149D01*
X354739Y398175D01*
X354847Y398200D01*
X355088Y398238D01*
X355215Y398245D01*
X355342Y398251D01*
X355418Y398251D01*
X355469Y398245D01*
X355539Y398238D01*
X355615Y398232D01*
X355704Y398226D01*
X355793Y398213D01*
X355996Y398168D01*
X356212Y398111D01*
X356320Y398073D01*
X356428Y398029D01*
X356529Y397978D01*
X356625Y397921D01*
X356631Y397915D01*
X356650Y397908D01*
X356675Y397889D01*
X356707Y397864D01*
X356752Y397826D01*
X356796Y397788D01*
X356847Y397737D01*
X356904Y397686D01*
X356961Y397622D01*
X357025Y397553D01*
X357082Y397483D01*
X357139Y397400D01*
X357196Y397311D01*
X357247Y397216D01*
X357298Y397114D01*
X357336Y397006D01*
X357336Y397013D01*
X357349Y397019D01*
X357355Y397038D01*
X357374Y397057D01*
X357425Y397121D01*
X357488Y397203D01*
X357571Y397292D01*
X357672Y397400D01*
X357787Y397514D01*
X357926Y397629D01*
X358073Y397743D01*
X358238Y397857D01*
X358415Y397965D01*
X358612Y398054D01*
X358822Y398137D01*
X359038Y398200D01*
X359158Y398219D01*
X359273Y398238D01*
X359393Y398245D01*
X359520Y398251D01*
X359565Y398251D01*
X359622Y398245D01*
X359622Y398245D02*
G37*
G36*
X348262Y398245D02*
X348332Y398245D01*
X348420Y398232D01*
X348522Y398219D01*
X348636Y398200D01*
X348757Y398181D01*
X348884Y398149D01*
X349017Y398111D01*
X349151Y398061D01*
X349290Y398003D01*
X349417Y397940D01*
X349551Y397857D01*
X349671Y397769D01*
X349779Y397667D01*
X349786Y397660D01*
X349805Y397641D01*
X349830Y397603D01*
X349868Y397559D01*
X349913Y397495D01*
X349957Y397419D01*
X350008Y397330D01*
X350065Y397222D01*
X350116Y397102D01*
X350167Y396975D01*
X350211Y396822D01*
X350256Y396664D01*
X350294Y396486D01*
X350319Y396295D01*
X350338Y396092D01*
X350345Y395870D01*
X350345Y391018D01*
X349157Y391018D01*
X349157Y395470D01*
X349157Y395476D01*
X349157Y395502D01*
X349157Y395540D01*
X349157Y395584D01*
X349151Y395648D01*
X349151Y395711D01*
X349144Y395787D01*
X349144Y395870D01*
X349125Y396035D01*
X349106Y396206D01*
X349075Y396371D01*
X349055Y396441D01*
X349036Y396505D01*
X349036Y396511D01*
X349030Y396517D01*
X349011Y396556D01*
X348986Y396613D01*
X348941Y396689D01*
X348884Y396772D01*
X348808Y396854D01*
X348719Y396937D01*
X348611Y397013D01*
X348605Y397013D01*
X348598Y397019D01*
X348579Y397032D01*
X348560Y397045D01*
X348490Y397076D01*
X348408Y397114D01*
X348300Y397146D01*
X348179Y397178D01*
X348046Y397203D01*
X347893Y397210D01*
X347824Y397210D01*
X347773Y397203D01*
X347709Y397197D01*
X347633Y397184D01*
X347551Y397165D01*
X347462Y397146D01*
X347366Y397121D01*
X347265Y397089D01*
X347163Y397051D01*
X347055Y397000D01*
X346954Y396943D01*
X346852Y396880D01*
X346750Y396803D01*
X346655Y396714D01*
X346649Y396708D01*
X346636Y396689D01*
X346611Y396664D01*
X346579Y396619D01*
X346541Y396568D01*
X346503Y396498D01*
X346458Y396422D01*
X346414Y396333D01*
X346363Y396225D01*
X346319Y396111D01*
X346281Y395978D01*
X346242Y395838D01*
X346211Y395679D01*
X346185Y395508D01*
X346173Y395324D01*
X346166Y395127D01*
X346166Y391018D01*
X344966Y391018D01*
X344966Y395610D01*
X344966Y395616D01*
X344966Y395648D01*
X344966Y395686D01*
X344960Y395743D01*
X344960Y395806D01*
X344953Y395882D01*
X344941Y395971D01*
X344928Y396060D01*
X344896Y396257D01*
X344845Y396454D01*
X344769Y396645D01*
X344725Y396733D01*
X344674Y396810D01*
X344668Y396816D01*
X344661Y396829D01*
X344642Y396848D01*
X344617Y396873D01*
X344585Y396905D01*
X344547Y396937D01*
X344502Y396975D01*
X344445Y397013D01*
X344382Y397045D01*
X344312Y397083D01*
X344236Y397114D01*
X344147Y397146D01*
X344052Y397172D01*
X343950Y397191D01*
X343836Y397203D01*
X343715Y397210D01*
X343664Y397210D01*
X343626Y397203D01*
X343582Y397203D01*
X343531Y397197D01*
X343474Y397191D01*
X343410Y397178D01*
X343264Y397146D01*
X343106Y397095D01*
X342940Y397032D01*
X342775Y396943D01*
X342769Y396943D01*
X342756Y396930D01*
X342737Y396918D01*
X342705Y396892D01*
X342629Y396829D01*
X342540Y396746D01*
X342439Y396638D01*
X342331Y396498D01*
X342236Y396346D01*
X342153Y396162D01*
X342153Y396156D01*
X342147Y396137D01*
X342134Y396111D01*
X342121Y396067D01*
X342109Y396016D01*
X342096Y395946D01*
X342077Y395870D01*
X342058Y395787D01*
X342039Y395686D01*
X342026Y395578D01*
X342007Y395451D01*
X341994Y395324D01*
X341982Y395178D01*
X341969Y395025D01*
X341963Y394860D01*
X341963Y394682D01*
X341963Y391018D01*
X340762Y391018D01*
X340762Y398086D01*
X341836Y398086D01*
X341836Y397095D01*
X341842Y397102D01*
X341848Y397121D01*
X341867Y397146D01*
X341899Y397184D01*
X341931Y397229D01*
X341969Y397280D01*
X342013Y397337D01*
X342071Y397394D01*
X342128Y397464D01*
X342197Y397527D01*
X342350Y397667D01*
X342521Y397807D01*
X342718Y397934D01*
X342724Y397940D01*
X342744Y397946D01*
X342775Y397965D01*
X342820Y397984D01*
X342871Y398010D01*
X342934Y398035D01*
X343004Y398061D01*
X343087Y398092D01*
X343175Y398124D01*
X343271Y398149D01*
X343379Y398175D01*
X343487Y398200D01*
X343728Y398238D01*
X343855Y398245D01*
X343982Y398251D01*
X344058Y398251D01*
X344109Y398245D01*
X344179Y398238D01*
X344255Y398232D01*
X344344Y398226D01*
X344433Y398213D01*
X344636Y398168D01*
X344852Y398111D01*
X344960Y398073D01*
X345068Y398029D01*
X345169Y397978D01*
X345265Y397921D01*
X345271Y397915D01*
X345290Y397908D01*
X345315Y397889D01*
X345347Y397864D01*
X345392Y397826D01*
X345436Y397788D01*
X345487Y397737D01*
X345544Y397686D01*
X345601Y397622D01*
X345665Y397553D01*
X345722Y397483D01*
X345779Y397400D01*
X345836Y397311D01*
X345887Y397216D01*
X345938Y397114D01*
X345976Y397006D01*
X345976Y397013D01*
X345988Y397019D01*
X345995Y397038D01*
X346014Y397057D01*
X346065Y397121D01*
X346128Y397203D01*
X346211Y397292D01*
X346312Y397400D01*
X346427Y397514D01*
X346566Y397629D01*
X346712Y397743D01*
X346877Y397857D01*
X347055Y397965D01*
X347252Y398054D01*
X347462Y398137D01*
X347677Y398200D01*
X347798Y398219D01*
X347912Y398238D01*
X348033Y398245D01*
X348160Y398251D01*
X348205Y398251D01*
X348262Y398245D01*
X348262Y398245D02*
G37*
G36*
X323503Y391018D02*
X322138Y391018D01*
X322138Y392384D01*
X323503Y392384D01*
X323503Y391018D01*
X323503Y391018D02*
G37*
G36*
X310803Y391018D02*
X309603Y391018D01*
X309603Y398657D01*
X309597Y398651D01*
X309584Y398638D01*
X309559Y398619D01*
X309527Y398588D01*
X309482Y398549D01*
X309431Y398505D01*
X309368Y398454D01*
X309298Y398397D01*
X309222Y398334D01*
X309133Y398270D01*
X309044Y398200D01*
X308943Y398130D01*
X308835Y398054D01*
X308720Y397978D01*
X308593Y397902D01*
X308466Y397826D01*
X308460Y397819D01*
X308435Y397807D01*
X308396Y397788D01*
X308346Y397756D01*
X308288Y397724D01*
X308212Y397686D01*
X308136Y397641D01*
X308047Y397597D01*
X307952Y397546D01*
X307850Y397495D01*
X307634Y397394D01*
X307418Y397292D01*
X307203Y397210D01*
X307203Y398365D01*
X307215Y398372D01*
X307247Y398384D01*
X307298Y398416D01*
X307374Y398448D01*
X307463Y398499D01*
X307565Y398549D01*
X307679Y398613D01*
X307799Y398689D01*
X307933Y398765D01*
X308079Y398854D01*
X308219Y398950D01*
X308371Y399051D01*
X308669Y399273D01*
X308962Y399515D01*
X308968Y399521D01*
X308993Y399547D01*
X309031Y399578D01*
X309082Y399629D01*
X309146Y399692D01*
X309216Y399762D01*
X309298Y399839D01*
X309381Y399927D01*
X309463Y400029D01*
X309552Y400131D01*
X309730Y400347D01*
X309813Y400461D01*
X309895Y400582D01*
X309965Y400696D01*
X310028Y400816D01*
X310803Y400816D01*
X310803Y391018D01*
X310803Y391018D02*
G37*
G36*
X336159Y400810D02*
X336228Y400810D01*
X336305Y400797D01*
X336394Y400791D01*
X336495Y400778D01*
X336597Y400759D01*
X336711Y400740D01*
X336940Y400683D01*
X337054Y400645D01*
X337175Y400607D01*
X337289Y400556D01*
X337403Y400499D01*
X337410Y400493D01*
X337429Y400486D01*
X337460Y400467D01*
X337505Y400442D01*
X337549Y400410D01*
X337613Y400372D01*
X337676Y400321D01*
X337746Y400270D01*
X337822Y400207D01*
X337898Y400143D01*
X337981Y400067D01*
X338064Y399985D01*
X338146Y399896D01*
X338229Y399800D01*
X338305Y399699D01*
X338381Y399591D01*
X338387Y399585D01*
X338400Y399566D01*
X338419Y399527D01*
X338445Y399483D01*
X338476Y399426D01*
X338515Y399356D01*
X338559Y399273D01*
X338603Y399184D01*
X338648Y399083D01*
X338699Y398975D01*
X338749Y398854D01*
X338800Y398727D01*
X338851Y398588D01*
X338895Y398448D01*
X338940Y398296D01*
X338984Y398137D01*
X338984Y398124D01*
X338997Y398099D01*
X339003Y398048D01*
X339022Y397978D01*
X339035Y397896D01*
X339054Y397788D01*
X339073Y397667D01*
X339099Y397527D01*
X339118Y397368D01*
X339137Y397197D01*
X339156Y397006D01*
X339175Y396803D01*
X339188Y396581D01*
X339200Y396346D01*
X339207Y396098D01*
X339207Y395832D01*
X339207Y395825D01*
X339207Y395813D01*
X339207Y395787D01*
X339207Y395756D01*
X339207Y395717D01*
X339207Y395667D01*
X339200Y395610D01*
X339200Y395546D01*
X339200Y395476D01*
X339194Y395400D01*
X339188Y395235D01*
X339175Y395044D01*
X339162Y394841D01*
X339143Y394625D01*
X339118Y394397D01*
X339054Y393933D01*
X339016Y393704D01*
X338972Y393476D01*
X338914Y393260D01*
X338851Y393057D01*
X338845Y393044D01*
X338832Y393012D01*
X338813Y392955D01*
X338787Y392885D01*
X338749Y392796D01*
X338705Y392695D01*
X338648Y392580D01*
X338591Y392460D01*
X338521Y392327D01*
X338438Y392193D01*
X338356Y392060D01*
X338260Y391926D01*
X338159Y391793D01*
X338045Y391660D01*
X337924Y391539D01*
X337797Y391425D01*
X337791Y391418D01*
X337765Y391399D01*
X337727Y391374D01*
X337670Y391336D01*
X337600Y391292D01*
X337518Y391247D01*
X337422Y391190D01*
X337314Y391139D01*
X337194Y391088D01*
X337060Y391037D01*
X336914Y390987D01*
X336755Y390942D01*
X336590Y390904D01*
X336413Y390879D01*
X336222Y390860D01*
X336025Y390853D01*
X335962Y390853D01*
X335930Y390860D01*
X335892Y390860D01*
X335790Y390872D01*
X335676Y390885D01*
X335536Y390904D01*
X335384Y390936D01*
X335219Y390980D01*
X335047Y391031D01*
X334863Y391101D01*
X334679Y391184D01*
X334495Y391279D01*
X334311Y391393D01*
X334133Y391533D01*
X333968Y391685D01*
X333809Y391863D01*
X333809Y391869D01*
X333796Y391876D01*
X333784Y391895D01*
X333771Y391920D01*
X333746Y391952D01*
X333720Y391996D01*
X333689Y392041D01*
X333657Y392098D01*
X333625Y392161D01*
X333587Y392231D01*
X333542Y392308D01*
X333504Y392396D01*
X333460Y392485D01*
X333415Y392587D01*
X333371Y392701D01*
X333326Y392816D01*
X333282Y392943D01*
X333238Y393076D01*
X333193Y393215D01*
X333149Y393368D01*
X333111Y393527D01*
X333066Y393692D01*
X333028Y393870D01*
X332996Y394054D01*
X332965Y394244D01*
X332933Y394447D01*
X332907Y394657D01*
X332888Y394873D01*
X332869Y395102D01*
X332857Y395336D01*
X332844Y395578D01*
X332844Y395832D01*
X332844Y395838D01*
X332844Y395851D01*
X332844Y395876D01*
X332844Y395908D01*
X332844Y395952D01*
X332844Y395997D01*
X332850Y396054D01*
X332850Y396118D01*
X332850Y396187D01*
X332857Y396264D01*
X332863Y396435D01*
X332876Y396626D01*
X332888Y396829D01*
X332907Y397051D01*
X332933Y397273D01*
X332996Y397737D01*
X333034Y397972D01*
X333085Y398200D01*
X333136Y398416D01*
X333200Y398619D01*
X333206Y398632D01*
X333219Y398664D01*
X333238Y398721D01*
X333269Y398791D01*
X333301Y398880D01*
X333352Y398981D01*
X333403Y399096D01*
X333466Y399216D01*
X333536Y399350D01*
X333612Y399477D01*
X333701Y399616D01*
X333796Y399750D01*
X333898Y399883D01*
X334006Y400010D01*
X334127Y400131D01*
X334254Y400245D01*
X334260Y400251D01*
X334285Y400270D01*
X334324Y400296D01*
X334381Y400334D01*
X334450Y400378D01*
X334533Y400429D01*
X334628Y400480D01*
X334743Y400531D01*
X334863Y400582D01*
X334997Y400639D01*
X335143Y400683D01*
X335301Y400728D01*
X335466Y400766D01*
X335644Y400791D01*
X335828Y400810D01*
X336025Y400816D01*
X336101Y400816D01*
X336159Y400810D01*
X336159Y400810D02*
G37*
G36*
X297488Y215300D02*
X297558Y215300D01*
X297647Y215287D01*
X297749Y215275D01*
X297863Y215256D01*
X297983Y215236D01*
X298111Y215205D01*
X298244Y215167D01*
X298377Y215116D01*
X298517Y215059D01*
X298644Y214995D01*
X298777Y214913D01*
X298898Y214824D01*
X299006Y214722D01*
X299012Y214716D01*
X299031Y214697D01*
X299057Y214659D01*
X299095Y214614D01*
X299139Y214551D01*
X299184Y214475D01*
X299234Y214386D01*
X299292Y214278D01*
X299342Y214157D01*
X299393Y214030D01*
X299438Y213878D01*
X299482Y213719D01*
X299520Y213541D01*
X299546Y213351D01*
X299565Y213147D01*
X299571Y212925D01*
X299571Y208074D01*
X298384Y208074D01*
X298384Y212525D01*
X298384Y212531D01*
X298384Y212557D01*
X298384Y212595D01*
X298384Y212639D01*
X298377Y212703D01*
X298377Y212766D01*
X298371Y212843D01*
X298371Y212925D01*
X298352Y213090D01*
X298333Y213262D01*
X298301Y213427D01*
X298282Y213497D01*
X298263Y213560D01*
X298263Y213566D01*
X298256Y213573D01*
X298237Y213611D01*
X298212Y213668D01*
X298168Y213744D01*
X298111Y213827D01*
X298034Y213909D01*
X297945Y213992D01*
X297837Y214068D01*
X297831Y214068D01*
X297825Y214074D01*
X297806Y214087D01*
X297787Y214100D01*
X297717Y214132D01*
X297634Y214170D01*
X297526Y214202D01*
X297406Y214233D01*
X297272Y214259D01*
X297120Y214265D01*
X297050Y214265D01*
X296999Y214259D01*
X296936Y214252D01*
X296859Y214240D01*
X296777Y214221D01*
X296688Y214202D01*
X296593Y214176D01*
X296491Y214144D01*
X296390Y214106D01*
X296282Y214055D01*
X296180Y213998D01*
X296078Y213935D01*
X295977Y213859D01*
X295882Y213770D01*
X295875Y213763D01*
X295863Y213744D01*
X295837Y213719D01*
X295805Y213674D01*
X295767Y213624D01*
X295729Y213554D01*
X295685Y213478D01*
X295640Y213389D01*
X295590Y213281D01*
X295545Y213166D01*
X295507Y213033D01*
X295469Y212893D01*
X295437Y212735D01*
X295412Y212563D01*
X295399Y212379D01*
X295393Y212182D01*
X295393Y208074D01*
X294193Y208074D01*
X294193Y212665D01*
X294193Y212671D01*
X294193Y212703D01*
X294193Y212741D01*
X294186Y212798D01*
X294186Y212862D01*
X294180Y212938D01*
X294167Y213027D01*
X294154Y213116D01*
X294123Y213312D01*
X294072Y213509D01*
X293996Y213700D01*
X293951Y213789D01*
X293900Y213865D01*
X293894Y213871D01*
X293888Y213884D01*
X293869Y213903D01*
X293843Y213928D01*
X293811Y213960D01*
X293773Y213992D01*
X293729Y214030D01*
X293672Y214068D01*
X293608Y214100D01*
X293538Y214138D01*
X293462Y214170D01*
X293373Y214202D01*
X293278Y214227D01*
X293176Y214246D01*
X293062Y214259D01*
X292942Y214265D01*
X292891Y214265D01*
X292853Y214259D01*
X292808Y214259D01*
X292757Y214252D01*
X292700Y214246D01*
X292637Y214233D01*
X292491Y214202D01*
X292332Y214151D01*
X292167Y214087D01*
X292002Y213998D01*
X291995Y213998D01*
X291983Y213986D01*
X291964Y213973D01*
X291932Y213948D01*
X291856Y213884D01*
X291767Y213801D01*
X291665Y213694D01*
X291557Y213554D01*
X291462Y213401D01*
X291380Y213217D01*
X291380Y213211D01*
X291373Y213192D01*
X291360Y213166D01*
X291348Y213122D01*
X291335Y213071D01*
X291322Y213001D01*
X291303Y212925D01*
X291284Y212843D01*
X291265Y212741D01*
X291252Y212633D01*
X291233Y212506D01*
X291221Y212379D01*
X291208Y212233D01*
X291195Y212081D01*
X291189Y211915D01*
X291189Y211738D01*
X291189Y208074D01*
X289989Y208074D01*
X289989Y215141D01*
X291062Y215141D01*
X291062Y214151D01*
X291068Y214157D01*
X291075Y214176D01*
X291094Y214202D01*
X291126Y214240D01*
X291157Y214284D01*
X291195Y214335D01*
X291240Y214392D01*
X291297Y214449D01*
X291354Y214519D01*
X291424Y214583D01*
X291576Y214722D01*
X291748Y214862D01*
X291945Y214989D01*
X291951Y214995D01*
X291970Y215002D01*
X292002Y215021D01*
X292046Y215040D01*
X292097Y215065D01*
X292160Y215091D01*
X292230Y215116D01*
X292313Y215148D01*
X292402Y215179D01*
X292497Y215205D01*
X292605Y215230D01*
X292713Y215256D01*
X292954Y215294D01*
X293081Y215300D01*
X293208Y215306D01*
X293284Y215306D01*
X293335Y215300D01*
X293405Y215294D01*
X293481Y215287D01*
X293570Y215281D01*
X293659Y215268D01*
X293862Y215224D01*
X294078Y215167D01*
X294186Y215129D01*
X294294Y215084D01*
X294396Y215033D01*
X294491Y214976D01*
X294497Y214970D01*
X294516Y214963D01*
X294542Y214944D01*
X294573Y214919D01*
X294618Y214881D01*
X294662Y214843D01*
X294713Y214792D01*
X294770Y214741D01*
X294827Y214678D01*
X294891Y214608D01*
X294948Y214538D01*
X295005Y214456D01*
X295063Y214367D01*
X295113Y214271D01*
X295164Y214170D01*
X295202Y214062D01*
X295202Y214068D01*
X295215Y214074D01*
X295221Y214093D01*
X295240Y214113D01*
X295291Y214176D01*
X295355Y214259D01*
X295437Y214347D01*
X295539Y214456D01*
X295653Y214570D01*
X295793Y214684D01*
X295939Y214798D01*
X296104Y214913D01*
X296282Y215021D01*
X296479Y215110D01*
X296688Y215192D01*
X296904Y215256D01*
X297025Y215275D01*
X297139Y215294D01*
X297260Y215300D01*
X297387Y215306D01*
X297431Y215306D01*
X297488Y215300D01*
X297488Y215300D02*
G37*
G36*
X286128Y215300D02*
X286198Y215300D01*
X286287Y215287D01*
X286388Y215275D01*
X286503Y215256D01*
X286623Y215236D01*
X286750Y215205D01*
X286884Y215167D01*
X287017Y215116D01*
X287157Y215059D01*
X287284Y214995D01*
X287417Y214913D01*
X287538Y214824D01*
X287646Y214722D01*
X287652Y214716D01*
X287671Y214697D01*
X287696Y214659D01*
X287735Y214614D01*
X287779Y214551D01*
X287824Y214475D01*
X287874Y214386D01*
X287931Y214278D01*
X287982Y214157D01*
X288033Y214030D01*
X288078Y213878D01*
X288122Y213719D01*
X288160Y213541D01*
X288185Y213351D01*
X288204Y213147D01*
X288211Y212925D01*
X288211Y208074D01*
X287023Y208074D01*
X287023Y212525D01*
X287023Y212531D01*
X287023Y212557D01*
X287023Y212595D01*
X287023Y212639D01*
X287017Y212703D01*
X287017Y212766D01*
X287011Y212843D01*
X287011Y212925D01*
X286992Y213090D01*
X286973Y213262D01*
X286941Y213427D01*
X286922Y213497D01*
X286903Y213560D01*
X286903Y213566D01*
X286896Y213573D01*
X286877Y213611D01*
X286852Y213668D01*
X286807Y213744D01*
X286750Y213827D01*
X286674Y213909D01*
X286585Y213992D01*
X286477Y214068D01*
X286471Y214068D01*
X286465Y214074D01*
X286446Y214087D01*
X286427Y214100D01*
X286357Y214132D01*
X286274Y214170D01*
X286166Y214202D01*
X286045Y214233D01*
X285912Y214259D01*
X285760Y214265D01*
X285690Y214265D01*
X285639Y214259D01*
X285576Y214252D01*
X285499Y214240D01*
X285417Y214221D01*
X285328Y214202D01*
X285233Y214176D01*
X285131Y214144D01*
X285030Y214106D01*
X284921Y214055D01*
X284820Y213998D01*
X284718Y213935D01*
X284617Y213859D01*
X284522Y213770D01*
X284515Y213763D01*
X284502Y213744D01*
X284477Y213719D01*
X284445Y213674D01*
X284407Y213624D01*
X284369Y213554D01*
X284325Y213478D01*
X284280Y213389D01*
X284229Y213281D01*
X284185Y213166D01*
X284147Y213033D01*
X284109Y212893D01*
X284077Y212735D01*
X284052Y212563D01*
X284039Y212379D01*
X284032Y212182D01*
X284032Y208074D01*
X282832Y208074D01*
X282832Y212665D01*
X282832Y212671D01*
X282832Y212703D01*
X282832Y212741D01*
X282826Y212798D01*
X282826Y212862D01*
X282820Y212938D01*
X282807Y213027D01*
X282794Y213116D01*
X282763Y213312D01*
X282712Y213509D01*
X282635Y213700D01*
X282591Y213789D01*
X282540Y213865D01*
X282534Y213871D01*
X282528Y213884D01*
X282509Y213903D01*
X282483Y213928D01*
X282451Y213960D01*
X282413Y213992D01*
X282369Y214030D01*
X282312Y214068D01*
X282248Y214100D01*
X282178Y214138D01*
X282102Y214170D01*
X282013Y214202D01*
X281918Y214227D01*
X281816Y214246D01*
X281702Y214259D01*
X281581Y214265D01*
X281531Y214265D01*
X281493Y214259D01*
X281448Y214259D01*
X281397Y214252D01*
X281340Y214246D01*
X281277Y214233D01*
X281131Y214202D01*
X280972Y214151D01*
X280807Y214087D01*
X280642Y213998D01*
X280635Y213998D01*
X280623Y213986D01*
X280604Y213973D01*
X280572Y213948D01*
X280496Y213884D01*
X280407Y213801D01*
X280305Y213694D01*
X280197Y213554D01*
X280102Y213401D01*
X280019Y213217D01*
X280019Y213211D01*
X280013Y213192D01*
X280000Y213166D01*
X279988Y213122D01*
X279975Y213071D01*
X279962Y213001D01*
X279943Y212925D01*
X279924Y212843D01*
X279905Y212741D01*
X279892Y212633D01*
X279873Y212506D01*
X279861Y212379D01*
X279848Y212233D01*
X279835Y212081D01*
X279829Y211915D01*
X279829Y211738D01*
X279829Y208074D01*
X278629Y208074D01*
X278629Y215141D01*
X279702Y215141D01*
X279702Y214151D01*
X279708Y214157D01*
X279715Y214176D01*
X279734Y214202D01*
X279765Y214240D01*
X279797Y214284D01*
X279835Y214335D01*
X279880Y214392D01*
X279937Y214449D01*
X279994Y214519D01*
X280064Y214583D01*
X280216Y214722D01*
X280388Y214862D01*
X280585Y214989D01*
X280591Y214995D01*
X280610Y215002D01*
X280642Y215021D01*
X280686Y215040D01*
X280737Y215065D01*
X280800Y215091D01*
X280870Y215116D01*
X280953Y215148D01*
X281042Y215179D01*
X281137Y215205D01*
X281245Y215230D01*
X281353Y215256D01*
X281594Y215294D01*
X281721Y215300D01*
X281848Y215306D01*
X281924Y215306D01*
X281975Y215300D01*
X282045Y215294D01*
X282121Y215287D01*
X282210Y215281D01*
X282299Y215268D01*
X282502Y215224D01*
X282718Y215167D01*
X282826Y215129D01*
X282934Y215084D01*
X283036Y215033D01*
X283131Y214976D01*
X283137Y214970D01*
X283156Y214963D01*
X283182Y214944D01*
X283213Y214919D01*
X283258Y214881D01*
X283302Y214843D01*
X283353Y214792D01*
X283410Y214741D01*
X283467Y214678D01*
X283531Y214608D01*
X283588Y214538D01*
X283645Y214456D01*
X283702Y214367D01*
X283753Y214271D01*
X283804Y214170D01*
X283842Y214062D01*
X283842Y214068D01*
X283855Y214074D01*
X283861Y214093D01*
X283880Y214113D01*
X283931Y214176D01*
X283994Y214259D01*
X284077Y214347D01*
X284179Y214456D01*
X284293Y214570D01*
X284433Y214684D01*
X284579Y214798D01*
X284744Y214913D01*
X284921Y215021D01*
X285118Y215110D01*
X285328Y215192D01*
X285544Y215256D01*
X285665Y215275D01*
X285779Y215294D01*
X285899Y215300D01*
X286026Y215306D01*
X286071Y215306D01*
X286128Y215300D01*
X286128Y215300D02*
G37*
G36*
X261369Y208074D02*
X260004Y208074D01*
X260004Y209439D01*
X261369Y209439D01*
X261369Y208074D01*
X261369Y208074D02*
G37*
G36*
X256785Y211509D02*
X258099Y211509D01*
X258099Y210410D01*
X256785Y210410D01*
X256785Y208074D01*
X255585Y208074D01*
X255585Y210410D01*
X251349Y210410D01*
X251349Y211509D01*
X255800Y217834D01*
X256785Y217834D01*
X256785Y211509D01*
X256785Y211509D02*
G37*
G36*
X274025Y217865D02*
X274095Y217865D01*
X274171Y217853D01*
X274260Y217846D01*
X274361Y217834D01*
X274463Y217815D01*
X274577Y217796D01*
X274806Y217738D01*
X274920Y217700D01*
X275041Y217662D01*
X275155Y217611D01*
X275270Y217554D01*
X275276Y217548D01*
X275295Y217542D01*
X275327Y217523D01*
X275371Y217497D01*
X275416Y217465D01*
X275479Y217427D01*
X275543Y217376D01*
X275612Y217326D01*
X275689Y217262D01*
X275765Y217199D01*
X275847Y217122D01*
X275930Y217040D01*
X276012Y216951D01*
X276095Y216856D01*
X276171Y216754D01*
X276247Y216646D01*
X276254Y216640D01*
X276266Y216621D01*
X276285Y216583D01*
X276311Y216538D01*
X276343Y216481D01*
X276381Y216411D01*
X276425Y216329D01*
X276470Y216240D01*
X276514Y216138D01*
X276565Y216030D01*
X276616Y215910D01*
X276667Y215783D01*
X276717Y215643D01*
X276762Y215503D01*
X276806Y215351D01*
X276851Y215192D01*
X276851Y215179D01*
X276863Y215154D01*
X276870Y215103D01*
X276889Y215033D01*
X276901Y214951D01*
X276921Y214843D01*
X276940Y214722D01*
X276965Y214583D01*
X276984Y214424D01*
X277003Y214252D01*
X277022Y214062D01*
X277041Y213859D01*
X277054Y213636D01*
X277067Y213401D01*
X277073Y213154D01*
X277073Y212887D01*
X277073Y212881D01*
X277073Y212868D01*
X277073Y212843D01*
X277073Y212811D01*
X277073Y212773D01*
X277073Y212722D01*
X277067Y212665D01*
X277067Y212601D01*
X277067Y212531D01*
X277060Y212455D01*
X277054Y212290D01*
X277041Y212100D01*
X277029Y211896D01*
X277009Y211681D01*
X276984Y211452D01*
X276921Y210988D01*
X276882Y210760D01*
X276838Y210531D01*
X276781Y210315D01*
X276717Y210112D01*
X276711Y210099D01*
X276698Y210068D01*
X276679Y210011D01*
X276654Y209941D01*
X276616Y209852D01*
X276571Y209750D01*
X276514Y209636D01*
X276457Y209515D01*
X276387Y209382D01*
X276305Y209249D01*
X276222Y209115D01*
X276127Y208982D01*
X276025Y208848D01*
X275911Y208715D01*
X275790Y208594D01*
X275663Y208480D01*
X275657Y208474D01*
X275632Y208455D01*
X275593Y208429D01*
X275536Y208391D01*
X275466Y208347D01*
X275384Y208302D01*
X275289Y208245D01*
X275181Y208194D01*
X275060Y208144D01*
X274927Y208093D01*
X274781Y208042D01*
X274622Y207997D01*
X274457Y207959D01*
X274279Y207934D01*
X274088Y207915D01*
X273892Y207909D01*
X273828Y207909D01*
X273796Y207915D01*
X273758Y207915D01*
X273657Y207928D01*
X273542Y207940D01*
X273403Y207959D01*
X273250Y207991D01*
X273085Y208036D01*
X272914Y208086D01*
X272729Y208156D01*
X272545Y208239D01*
X272361Y208334D01*
X272177Y208448D01*
X271999Y208588D01*
X271834Y208741D01*
X271675Y208918D01*
X271675Y208925D01*
X271663Y208931D01*
X271650Y208950D01*
X271637Y208975D01*
X271612Y209007D01*
X271586Y209052D01*
X271555Y209096D01*
X271523Y209153D01*
X271491Y209217D01*
X271453Y209287D01*
X271409Y209363D01*
X271371Y209452D01*
X271326Y209541D01*
X271282Y209642D01*
X271237Y209757D01*
X271193Y209871D01*
X271148Y209998D01*
X271104Y210131D01*
X271059Y210271D01*
X271015Y210423D01*
X270977Y210582D01*
X270933Y210747D01*
X270894Y210925D01*
X270863Y211109D01*
X270831Y211299D01*
X270799Y211503D01*
X270774Y211712D01*
X270755Y211928D01*
X270736Y212157D01*
X270723Y212392D01*
X270710Y212633D01*
X270710Y212887D01*
X270710Y212893D01*
X270710Y212906D01*
X270710Y212931D01*
X270710Y212963D01*
X270710Y213008D01*
X270710Y213052D01*
X270717Y213109D01*
X270717Y213173D01*
X270717Y213243D01*
X270723Y213319D01*
X270729Y213490D01*
X270742Y213681D01*
X270755Y213884D01*
X270774Y214106D01*
X270799Y214328D01*
X270863Y214792D01*
X270901Y215027D01*
X270951Y215256D01*
X271002Y215471D01*
X271066Y215675D01*
X271072Y215687D01*
X271085Y215719D01*
X271104Y215776D01*
X271136Y215846D01*
X271167Y215935D01*
X271218Y216037D01*
X271269Y216151D01*
X271332Y216272D01*
X271402Y216405D01*
X271479Y216532D01*
X271567Y216672D01*
X271663Y216805D01*
X271764Y216938D01*
X271872Y217065D01*
X271993Y217186D01*
X272120Y217300D01*
X272126Y217307D01*
X272152Y217326D01*
X272190Y217351D01*
X272247Y217389D01*
X272317Y217434D01*
X272399Y217484D01*
X272495Y217535D01*
X272609Y217586D01*
X272729Y217637D01*
X272863Y217694D01*
X273009Y217738D01*
X273168Y217783D01*
X273333Y217821D01*
X273511Y217846D01*
X273695Y217865D01*
X273892Y217872D01*
X273968Y217872D01*
X274025Y217865D01*
X274025Y217865D02*
G37*
G36*
X266424Y217865D02*
X266513Y217859D01*
X266621Y217846D01*
X266748Y217834D01*
X266887Y217808D01*
X267040Y217777D01*
X267199Y217738D01*
X267364Y217688D01*
X267535Y217631D01*
X267713Y217561D01*
X267878Y217472D01*
X268050Y217376D01*
X268208Y217262D01*
X268361Y217129D01*
X268367Y217122D01*
X268393Y217097D01*
X268431Y217053D01*
X268481Y216996D01*
X268545Y216926D01*
X268608Y216837D01*
X268678Y216735D01*
X268754Y216627D01*
X268824Y216500D01*
X268894Y216360D01*
X268964Y216214D01*
X269021Y216056D01*
X269072Y215884D01*
X269110Y215706D01*
X269135Y215522D01*
X269142Y215325D01*
X269142Y215319D01*
X269142Y215294D01*
X269142Y215262D01*
X269135Y215211D01*
X269129Y215154D01*
X269123Y215084D01*
X269110Y215008D01*
X269097Y214925D01*
X269053Y214735D01*
X268989Y214538D01*
X268951Y214436D01*
X268907Y214335D01*
X268850Y214233D01*
X268786Y214138D01*
X268780Y214132D01*
X268767Y214119D01*
X268748Y214087D01*
X268716Y214055D01*
X268685Y214011D01*
X268634Y213967D01*
X268583Y213909D01*
X268519Y213852D01*
X268443Y213795D01*
X268367Y213732D01*
X268278Y213662D01*
X268177Y213598D01*
X268075Y213535D01*
X267954Y213478D01*
X267834Y213414D01*
X267700Y213363D01*
X267713Y213357D01*
X267738Y213351D01*
X267789Y213332D01*
X267846Y213306D01*
X267923Y213274D01*
X268011Y213236D01*
X268107Y213192D01*
X268208Y213135D01*
X268316Y213071D01*
X268431Y213001D01*
X268545Y212925D01*
X268659Y212843D01*
X268773Y212747D01*
X268881Y212646D01*
X268977Y212538D01*
X269072Y212417D01*
X269078Y212411D01*
X269091Y212385D01*
X269116Y212354D01*
X269148Y212303D01*
X269180Y212239D01*
X269218Y212163D01*
X269262Y212081D01*
X269307Y211979D01*
X269351Y211871D01*
X269396Y211750D01*
X269434Y211623D01*
X269466Y211490D01*
X269497Y211344D01*
X269523Y211192D01*
X269536Y211026D01*
X269542Y210861D01*
X269542Y210855D01*
X269542Y210849D01*
X269542Y210830D01*
X269542Y210804D01*
X269536Y210741D01*
X269529Y210652D01*
X269516Y210544D01*
X269497Y210423D01*
X269466Y210284D01*
X269434Y210131D01*
X269383Y209966D01*
X269326Y209801D01*
X269256Y209623D01*
X269167Y209445D01*
X269066Y209268D01*
X268945Y209096D01*
X268812Y208925D01*
X268653Y208759D01*
X268640Y208753D01*
X268615Y208721D01*
X268564Y208683D01*
X268494Y208626D01*
X268405Y208563D01*
X268297Y208493D01*
X268170Y208417D01*
X268030Y208334D01*
X267872Y208258D01*
X267694Y208175D01*
X267504Y208106D01*
X267300Y208042D01*
X267078Y207985D01*
X266837Y207947D01*
X266589Y207921D01*
X266322Y207909D01*
X266259Y207909D01*
X266227Y207915D01*
X266183Y207915D01*
X266081Y207921D01*
X265960Y207934D01*
X265821Y207953D01*
X265662Y207978D01*
X265490Y208017D01*
X265306Y208061D01*
X265122Y208118D01*
X264925Y208188D01*
X264729Y208271D01*
X264538Y208366D01*
X264347Y208480D01*
X264163Y208607D01*
X263992Y208759D01*
X263979Y208772D01*
X263954Y208798D01*
X263909Y208848D01*
X263852Y208912D01*
X263789Y208995D01*
X263713Y209096D01*
X263630Y209217D01*
X263554Y209350D01*
X263471Y209496D01*
X263389Y209655D01*
X263312Y209833D01*
X263249Y210023D01*
X263192Y210220D01*
X263147Y210436D01*
X263122Y210658D01*
X263109Y210893D01*
X263109Y210906D01*
X263109Y210938D01*
X263116Y210988D01*
X263116Y211052D01*
X263122Y211134D01*
X263135Y211230D01*
X263147Y211331D01*
X263173Y211452D01*
X263198Y211573D01*
X263230Y211700D01*
X263268Y211833D01*
X263312Y211966D01*
X263370Y212100D01*
X263433Y212233D01*
X263509Y212366D01*
X263592Y212487D01*
X263598Y212493D01*
X263617Y212512D01*
X263643Y212551D01*
X263681Y212595D01*
X263732Y212646D01*
X263789Y212703D01*
X263865Y212773D01*
X263948Y212843D01*
X264036Y212912D01*
X264138Y212989D01*
X264252Y213058D01*
X264373Y213128D01*
X264506Y213198D01*
X264652Y213262D01*
X264805Y213319D01*
X264963Y213363D01*
X264957Y213370D01*
X264932Y213376D01*
X264894Y213395D01*
X264843Y213414D01*
X264779Y213440D01*
X264709Y213478D01*
X264633Y213516D01*
X264544Y213566D01*
X264367Y213674D01*
X264182Y213808D01*
X264011Y213967D01*
X263928Y214049D01*
X263859Y214144D01*
X263852Y214151D01*
X263846Y214170D01*
X263827Y214195D01*
X263801Y214233D01*
X263776Y214284D01*
X263744Y214341D01*
X263713Y214411D01*
X263681Y214487D01*
X263643Y214570D01*
X263611Y214665D01*
X263579Y214767D01*
X263554Y214868D01*
X263528Y214982D01*
X263509Y215103D01*
X263503Y215230D01*
X263497Y215357D01*
X263497Y215370D01*
X263497Y215402D01*
X263503Y215459D01*
X263509Y215535D01*
X263522Y215624D01*
X263535Y215732D01*
X263560Y215853D01*
X263592Y215979D01*
X263636Y216119D01*
X263687Y216265D01*
X263744Y216411D01*
X263820Y216564D01*
X263909Y216716D01*
X264011Y216862D01*
X264132Y217008D01*
X264265Y217148D01*
X264271Y217154D01*
X264303Y217180D01*
X264347Y217218D01*
X264405Y217262D01*
X264481Y217313D01*
X264576Y217376D01*
X264684Y217440D01*
X264811Y217510D01*
X264944Y217580D01*
X265103Y217643D01*
X265268Y217707D01*
X265452Y217757D01*
X265643Y217808D01*
X265853Y217840D01*
X266068Y217865D01*
X266303Y217872D01*
X266360Y217872D01*
X266424Y217865D01*
X266424Y217865D02*
G37*
G36*
X365624Y210603D02*
X365707Y210596D01*
X365808Y210590D01*
X365916Y210577D01*
X366043Y210552D01*
X366183Y210527D01*
X366329Y210495D01*
X366481Y210450D01*
X366640Y210399D01*
X366799Y210336D01*
X366958Y210260D01*
X367110Y210177D01*
X367262Y210076D01*
X367402Y209961D01*
X367408Y209955D01*
X367434Y209930D01*
X367472Y209898D01*
X367523Y209841D01*
X367580Y209777D01*
X367643Y209701D01*
X367713Y209606D01*
X367789Y209498D01*
X367866Y209377D01*
X367942Y209244D01*
X368018Y209098D01*
X368088Y208939D01*
X368151Y208768D01*
X368202Y208583D01*
X368253Y208393D01*
X368285Y208183D01*
X367097Y208088D01*
X367097Y208095D01*
X367091Y208120D01*
X367078Y208158D01*
X367066Y208202D01*
X367053Y208260D01*
X367028Y208329D01*
X367008Y208399D01*
X366977Y208482D01*
X366913Y208647D01*
X366837Y208818D01*
X366742Y208977D01*
X366691Y209047D01*
X366640Y209111D01*
X366634Y209117D01*
X366621Y209136D01*
X366589Y209161D01*
X366551Y209193D01*
X366507Y209231D01*
X366450Y209276D01*
X366386Y209320D01*
X366310Y209371D01*
X366227Y209415D01*
X366132Y209460D01*
X366037Y209504D01*
X365929Y209542D01*
X365815Y209580D01*
X365700Y209606D01*
X365573Y209618D01*
X365440Y209625D01*
X365383Y209625D01*
X365345Y209618D01*
X365294Y209618D01*
X365237Y209606D01*
X365173Y209599D01*
X365103Y209587D01*
X364945Y209549D01*
X364773Y209492D01*
X364691Y209453D01*
X364602Y209415D01*
X364519Y209364D01*
X364437Y209307D01*
X364430Y209301D01*
X364411Y209288D01*
X364380Y209263D01*
X364341Y209231D01*
X364297Y209187D01*
X364240Y209136D01*
X364176Y209072D01*
X364113Y209002D01*
X364043Y208920D01*
X363967Y208831D01*
X363897Y208729D01*
X363821Y208622D01*
X363745Y208507D01*
X363675Y208380D01*
X363605Y208247D01*
X363541Y208101D01*
X363535Y208095D01*
X363529Y208063D01*
X363510Y208018D01*
X363490Y207955D01*
X363465Y207872D01*
X363440Y207771D01*
X363408Y207656D01*
X363376Y207523D01*
X363344Y207371D01*
X363319Y207199D01*
X363287Y207015D01*
X363262Y206812D01*
X363243Y206596D01*
X363224Y206361D01*
X363211Y206107D01*
X363205Y205840D01*
X363211Y205847D01*
X363224Y205872D01*
X363249Y205904D01*
X363281Y205948D01*
X363325Y206005D01*
X363376Y206069D01*
X363433Y206139D01*
X363497Y206208D01*
X363573Y206291D01*
X363649Y206367D01*
X363738Y206450D01*
X363833Y206532D01*
X364037Y206685D01*
X364145Y206755D01*
X364259Y206818D01*
X364265Y206824D01*
X364284Y206831D01*
X364322Y206850D01*
X364367Y206869D01*
X364424Y206894D01*
X364494Y206920D01*
X364570Y206952D01*
X364659Y206983D01*
X364754Y207009D01*
X364856Y207040D01*
X364964Y207066D01*
X365078Y207091D01*
X365319Y207129D01*
X365446Y207136D01*
X365573Y207142D01*
X365624Y207142D01*
X365688Y207136D01*
X365776Y207129D01*
X365878Y207117D01*
X365999Y207097D01*
X366132Y207066D01*
X366278Y207034D01*
X366437Y206983D01*
X366602Y206926D01*
X366767Y206856D01*
X366945Y206767D01*
X367116Y206666D01*
X367288Y206551D01*
X367453Y206412D01*
X367618Y206259D01*
X367631Y206247D01*
X367656Y206221D01*
X367694Y206170D01*
X367751Y206101D01*
X367815Y206012D01*
X367885Y205904D01*
X367961Y205783D01*
X368044Y205643D01*
X368120Y205485D01*
X368196Y205313D01*
X368266Y205129D01*
X368329Y204926D01*
X368386Y204710D01*
X368424Y204481D01*
X368456Y204234D01*
X368463Y203980D01*
X368463Y203967D01*
X368463Y203942D01*
X368463Y203891D01*
X368456Y203821D01*
X368450Y203745D01*
X368443Y203650D01*
X368431Y203542D01*
X368412Y203421D01*
X368393Y203294D01*
X368367Y203154D01*
X368336Y203015D01*
X368291Y202868D01*
X368247Y202716D01*
X368196Y202570D01*
X368132Y202418D01*
X368063Y202265D01*
X368056Y202259D01*
X368044Y202233D01*
X368024Y202189D01*
X367993Y202138D01*
X367948Y202068D01*
X367904Y201992D01*
X367847Y201910D01*
X367777Y201821D01*
X367707Y201725D01*
X367624Y201624D01*
X367536Y201522D01*
X367440Y201427D01*
X367332Y201325D01*
X367224Y201230D01*
X367104Y201141D01*
X366977Y201059D01*
X366970Y201052D01*
X366945Y201040D01*
X366907Y201021D01*
X366856Y200995D01*
X366792Y200963D01*
X366710Y200925D01*
X366621Y200894D01*
X366520Y200856D01*
X366412Y200811D01*
X366291Y200779D01*
X366157Y200741D01*
X366018Y200709D01*
X365878Y200684D01*
X365726Y200665D01*
X365567Y200652D01*
X365402Y200646D01*
X365338Y200646D01*
X365300Y200652D01*
X365256Y200652D01*
X365211Y200659D01*
X365154Y200665D01*
X365027Y200678D01*
X364881Y200703D01*
X364716Y200741D01*
X364532Y200786D01*
X364348Y200843D01*
X364145Y200913D01*
X363941Y201001D01*
X363738Y201110D01*
X363535Y201236D01*
X363332Y201383D01*
X363141Y201554D01*
X363046Y201643D01*
X362957Y201744D01*
X362957Y201751D01*
X362944Y201757D01*
X362932Y201776D01*
X362919Y201795D01*
X362894Y201827D01*
X362868Y201865D01*
X362843Y201903D01*
X362811Y201954D01*
X362773Y202011D01*
X362735Y202075D01*
X362697Y202151D01*
X362659Y202227D01*
X362614Y202310D01*
X362570Y202405D01*
X362532Y202507D01*
X362487Y202608D01*
X362443Y202722D01*
X362398Y202849D01*
X362354Y202976D01*
X362309Y203116D01*
X362271Y203262D01*
X362233Y203414D01*
X362195Y203573D01*
X362157Y203738D01*
X362125Y203916D01*
X362100Y204100D01*
X362075Y204291D01*
X362049Y204494D01*
X362036Y204704D01*
X362024Y204919D01*
X362011Y205142D01*
X362011Y205377D01*
X362011Y205383D01*
X362011Y205408D01*
X362011Y205446D01*
X362011Y205504D01*
X362017Y205567D01*
X362017Y205650D01*
X362024Y205739D01*
X362030Y205840D01*
X362036Y205954D01*
X362043Y206075D01*
X362055Y206202D01*
X362068Y206342D01*
X362081Y206488D01*
X362100Y206634D01*
X362144Y206952D01*
X362195Y207288D01*
X362265Y207625D01*
X362354Y207967D01*
X362455Y208310D01*
X362576Y208634D01*
X362716Y208945D01*
X362792Y209091D01*
X362875Y209231D01*
X362963Y209364D01*
X363059Y209492D01*
X363059Y209498D01*
X363071Y209504D01*
X363103Y209542D01*
X363154Y209593D01*
X363224Y209669D01*
X363319Y209752D01*
X363427Y209847D01*
X363560Y209949D01*
X363706Y210050D01*
X363878Y210152D01*
X364062Y210254D01*
X364265Y210349D01*
X364481Y210438D01*
X364716Y210508D01*
X364970Y210558D01*
X365237Y210596D01*
X365377Y210609D01*
X365567Y210609D01*
X365624Y210603D01*
X365624Y210603D02*
G37*
G36*
X407813Y208037D02*
X407883Y208037D01*
X407972Y208025D01*
X408074Y208012D01*
X408188Y207993D01*
X408309Y207974D01*
X408436Y207942D01*
X408569Y207904D01*
X408703Y207853D01*
X408842Y207796D01*
X408969Y207733D01*
X409103Y207650D01*
X409223Y207561D01*
X409331Y207460D01*
X409338Y207453D01*
X409357Y207434D01*
X409382Y207396D01*
X409420Y207351D01*
X409464Y207288D01*
X409509Y207212D01*
X409560Y207123D01*
X409617Y207015D01*
X409668Y206894D01*
X409719Y206767D01*
X409763Y206615D01*
X409807Y206456D01*
X409846Y206278D01*
X409871Y206088D01*
X409890Y205885D01*
X409896Y205662D01*
X409896Y200811D01*
X408709Y200811D01*
X408709Y205262D01*
X408709Y205269D01*
X408709Y205294D01*
X408709Y205332D01*
X408709Y205377D01*
X408703Y205440D01*
X408703Y205504D01*
X408696Y205580D01*
X408696Y205662D01*
X408677Y205828D01*
X408658Y205999D01*
X408626Y206164D01*
X408607Y206234D01*
X408588Y206297D01*
X408588Y206304D01*
X408582Y206310D01*
X408563Y206348D01*
X408537Y206405D01*
X408493Y206482D01*
X408436Y206564D01*
X408360Y206647D01*
X408271Y206729D01*
X408163Y206805D01*
X408156Y206805D01*
X408150Y206812D01*
X408131Y206824D01*
X408112Y206837D01*
X408042Y206869D01*
X407960Y206907D01*
X407852Y206939D01*
X407731Y206971D01*
X407598Y206996D01*
X407445Y207002D01*
X407375Y207002D01*
X407325Y206996D01*
X407261Y206990D01*
X407185Y206977D01*
X407102Y206958D01*
X407013Y206939D01*
X406918Y206913D01*
X406817Y206882D01*
X406715Y206843D01*
X406607Y206793D01*
X406505Y206736D01*
X406404Y206672D01*
X406302Y206596D01*
X406207Y206507D01*
X406201Y206501D01*
X406188Y206482D01*
X406162Y206456D01*
X406131Y206412D01*
X406093Y206361D01*
X406055Y206291D01*
X406010Y206215D01*
X405966Y206126D01*
X405915Y206018D01*
X405870Y205904D01*
X405832Y205770D01*
X405794Y205631D01*
X405762Y205472D01*
X405737Y205301D01*
X405724Y205116D01*
X405718Y204919D01*
X405718Y200811D01*
X404518Y200811D01*
X404518Y205402D01*
X404518Y205408D01*
X404518Y205440D01*
X404518Y205478D01*
X404511Y205535D01*
X404511Y205599D01*
X404505Y205675D01*
X404492Y205764D01*
X404480Y205853D01*
X404448Y206050D01*
X404397Y206247D01*
X404321Y206437D01*
X404277Y206526D01*
X404226Y206602D01*
X404219Y206609D01*
X404213Y206621D01*
X404194Y206640D01*
X404169Y206666D01*
X404137Y206698D01*
X404099Y206729D01*
X404054Y206767D01*
X403997Y206805D01*
X403934Y206837D01*
X403864Y206875D01*
X403788Y206907D01*
X403699Y206939D01*
X403604Y206964D01*
X403502Y206983D01*
X403388Y206996D01*
X403267Y207002D01*
X403216Y207002D01*
X403178Y206996D01*
X403134Y206996D01*
X403083Y206990D01*
X403026Y206983D01*
X402962Y206971D01*
X402816Y206939D01*
X402657Y206888D01*
X402492Y206824D01*
X402327Y206736D01*
X402321Y206736D01*
X402308Y206723D01*
X402289Y206710D01*
X402257Y206685D01*
X402181Y206621D01*
X402092Y206539D01*
X401991Y206431D01*
X401883Y206291D01*
X401787Y206139D01*
X401705Y205954D01*
X401705Y205948D01*
X401698Y205929D01*
X401686Y205904D01*
X401673Y205859D01*
X401660Y205809D01*
X401648Y205739D01*
X401629Y205662D01*
X401610Y205580D01*
X401590Y205478D01*
X401578Y205370D01*
X401559Y205243D01*
X401546Y205116D01*
X401533Y204970D01*
X401521Y204818D01*
X401514Y204653D01*
X401514Y204475D01*
X401514Y200811D01*
X400314Y200811D01*
X400314Y207879D01*
X401387Y207879D01*
X401387Y206888D01*
X401394Y206894D01*
X401400Y206913D01*
X401419Y206939D01*
X401451Y206977D01*
X401483Y207021D01*
X401521Y207072D01*
X401565Y207129D01*
X401622Y207186D01*
X401679Y207256D01*
X401749Y207320D01*
X401902Y207460D01*
X402073Y207599D01*
X402270Y207726D01*
X402276Y207733D01*
X402295Y207739D01*
X402327Y207758D01*
X402372Y207777D01*
X402422Y207802D01*
X402486Y207828D01*
X402556Y207853D01*
X402638Y207885D01*
X402727Y207917D01*
X402822Y207942D01*
X402930Y207967D01*
X403038Y207993D01*
X403280Y208031D01*
X403407Y208037D01*
X403534Y208044D01*
X403610Y208044D01*
X403661Y208037D01*
X403731Y208031D01*
X403807Y208025D01*
X403896Y208018D01*
X403984Y208006D01*
X404188Y207961D01*
X404404Y207904D01*
X404511Y207866D01*
X404619Y207821D01*
X404721Y207771D01*
X404816Y207714D01*
X404823Y207707D01*
X404842Y207701D01*
X404867Y207682D01*
X404899Y207656D01*
X404943Y207618D01*
X404988Y207580D01*
X405039Y207529D01*
X405096Y207479D01*
X405153Y207415D01*
X405216Y207345D01*
X405274Y207275D01*
X405331Y207193D01*
X405388Y207104D01*
X405439Y207009D01*
X405489Y206907D01*
X405527Y206799D01*
X405527Y206805D01*
X405540Y206812D01*
X405547Y206831D01*
X405566Y206850D01*
X405616Y206913D01*
X405680Y206996D01*
X405762Y207085D01*
X405864Y207193D01*
X405978Y207307D01*
X406118Y207421D01*
X406264Y207536D01*
X406429Y207650D01*
X406607Y207758D01*
X406804Y207847D01*
X407013Y207929D01*
X407229Y207993D01*
X407350Y208012D01*
X407464Y208031D01*
X407585Y208037D01*
X407712Y208044D01*
X407756Y208044D01*
X407813Y208037D01*
X407813Y208037D02*
G37*
G36*
X396453Y208037D02*
X396523Y208037D01*
X396612Y208025D01*
X396714Y208012D01*
X396828Y207993D01*
X396949Y207974D01*
X397076Y207942D01*
X397209Y207904D01*
X397342Y207853D01*
X397482Y207796D01*
X397609Y207733D01*
X397742Y207650D01*
X397863Y207561D01*
X397971Y207460D01*
X397977Y207453D01*
X397996Y207434D01*
X398022Y207396D01*
X398060Y207351D01*
X398104Y207288D01*
X398149Y207212D01*
X398200Y207123D01*
X398257Y207015D01*
X398308Y206894D01*
X398358Y206767D01*
X398403Y206615D01*
X398447Y206456D01*
X398485Y206278D01*
X398511Y206088D01*
X398530Y205885D01*
X398536Y205662D01*
X398536Y200811D01*
X397349Y200811D01*
X397349Y205262D01*
X397349Y205269D01*
X397349Y205294D01*
X397349Y205332D01*
X397349Y205377D01*
X397342Y205440D01*
X397342Y205504D01*
X397336Y205580D01*
X397336Y205662D01*
X397317Y205828D01*
X397298Y205999D01*
X397266Y206164D01*
X397247Y206234D01*
X397228Y206297D01*
X397228Y206304D01*
X397222Y206310D01*
X397203Y206348D01*
X397177Y206405D01*
X397133Y206482D01*
X397076Y206564D01*
X397000Y206647D01*
X396911Y206729D01*
X396803Y206805D01*
X396796Y206805D01*
X396790Y206812D01*
X396771Y206824D01*
X396752Y206837D01*
X396682Y206869D01*
X396599Y206907D01*
X396492Y206939D01*
X396371Y206971D01*
X396237Y206996D01*
X396085Y207002D01*
X396015Y207002D01*
X395964Y206996D01*
X395901Y206990D01*
X395825Y206977D01*
X395742Y206958D01*
X395653Y206939D01*
X395558Y206913D01*
X395456Y206882D01*
X395355Y206843D01*
X395247Y206793D01*
X395145Y206736D01*
X395044Y206672D01*
X394942Y206596D01*
X394847Y206507D01*
X394841Y206501D01*
X394828Y206482D01*
X394802Y206456D01*
X394771Y206412D01*
X394733Y206361D01*
X394694Y206291D01*
X394650Y206215D01*
X394605Y206126D01*
X394555Y206018D01*
X394510Y205904D01*
X394472Y205770D01*
X394434Y205631D01*
X394402Y205472D01*
X394377Y205301D01*
X394364Y205116D01*
X394358Y204919D01*
X394358Y200811D01*
X393158Y200811D01*
X393158Y205402D01*
X393158Y205408D01*
X393158Y205440D01*
X393158Y205478D01*
X393151Y205535D01*
X393151Y205599D01*
X393145Y205675D01*
X393132Y205764D01*
X393120Y205853D01*
X393088Y206050D01*
X393037Y206247D01*
X392961Y206437D01*
X392916Y206526D01*
X392866Y206602D01*
X392859Y206609D01*
X392853Y206621D01*
X392834Y206640D01*
X392808Y206666D01*
X392777Y206698D01*
X392739Y206729D01*
X392694Y206767D01*
X392637Y206805D01*
X392574Y206837D01*
X392504Y206875D01*
X392427Y206907D01*
X392339Y206939D01*
X392243Y206964D01*
X392142Y206983D01*
X392027Y206996D01*
X391907Y207002D01*
X391856Y207002D01*
X391818Y206996D01*
X391773Y206996D01*
X391723Y206990D01*
X391665Y206983D01*
X391602Y206971D01*
X391456Y206939D01*
X391297Y206888D01*
X391132Y206824D01*
X390967Y206736D01*
X390961Y206736D01*
X390948Y206723D01*
X390929Y206710D01*
X390897Y206685D01*
X390821Y206621D01*
X390732Y206539D01*
X390630Y206431D01*
X390522Y206291D01*
X390427Y206139D01*
X390345Y205954D01*
X390345Y205948D01*
X390338Y205929D01*
X390326Y205904D01*
X390313Y205859D01*
X390300Y205809D01*
X390288Y205739D01*
X390269Y205662D01*
X390249Y205580D01*
X390230Y205478D01*
X390218Y205370D01*
X390199Y205243D01*
X390186Y205116D01*
X390173Y204970D01*
X390160Y204818D01*
X390154Y204653D01*
X390154Y204475D01*
X390154Y200811D01*
X388954Y200811D01*
X388954Y207879D01*
X390027Y207879D01*
X390027Y206888D01*
X390033Y206894D01*
X390040Y206913D01*
X390059Y206939D01*
X390091Y206977D01*
X390122Y207021D01*
X390160Y207072D01*
X390205Y207129D01*
X390262Y207186D01*
X390319Y207256D01*
X390389Y207320D01*
X390541Y207460D01*
X390713Y207599D01*
X390910Y207726D01*
X390916Y207733D01*
X390935Y207739D01*
X390967Y207758D01*
X391011Y207777D01*
X391062Y207802D01*
X391126Y207828D01*
X391196Y207853D01*
X391278Y207885D01*
X391367Y207917D01*
X391462Y207942D01*
X391570Y207967D01*
X391678Y207993D01*
X391920Y208031D01*
X392047Y208037D01*
X392174Y208044D01*
X392250Y208044D01*
X392300Y208037D01*
X392370Y208031D01*
X392447Y208025D01*
X392535Y208018D01*
X392624Y208006D01*
X392827Y207961D01*
X393043Y207904D01*
X393151Y207866D01*
X393259Y207821D01*
X393361Y207771D01*
X393456Y207714D01*
X393462Y207707D01*
X393482Y207701D01*
X393507Y207682D01*
X393539Y207656D01*
X393583Y207618D01*
X393628Y207580D01*
X393678Y207529D01*
X393736Y207479D01*
X393793Y207415D01*
X393856Y207345D01*
X393913Y207275D01*
X393970Y207193D01*
X394028Y207104D01*
X394078Y207009D01*
X394129Y206907D01*
X394167Y206799D01*
X394167Y206805D01*
X394180Y206812D01*
X394186Y206831D01*
X394206Y206850D01*
X394256Y206913D01*
X394320Y206996D01*
X394402Y207085D01*
X394504Y207193D01*
X394618Y207307D01*
X394758Y207421D01*
X394904Y207536D01*
X395069Y207650D01*
X395247Y207758D01*
X395444Y207847D01*
X395653Y207929D01*
X395869Y207993D01*
X395990Y208012D01*
X396104Y208031D01*
X396225Y208037D01*
X396352Y208044D01*
X396396Y208044D01*
X396453Y208037D01*
X396453Y208037D02*
G37*
G36*
X376641Y210603D02*
X376711Y210596D01*
X376794Y210590D01*
X376889Y210584D01*
X376991Y210565D01*
X377105Y210546D01*
X377219Y210527D01*
X377467Y210463D01*
X377594Y210425D01*
X377727Y210380D01*
X377854Y210330D01*
X377981Y210266D01*
X377988Y210260D01*
X378013Y210254D01*
X378045Y210228D01*
X378089Y210203D01*
X378146Y210171D01*
X378216Y210126D01*
X378286Y210076D01*
X378362Y210019D01*
X378445Y209955D01*
X378527Y209885D01*
X378616Y209809D01*
X378699Y209726D01*
X378781Y209638D01*
X378864Y209542D01*
X378940Y209441D01*
X379010Y209333D01*
X379016Y209326D01*
X379023Y209307D01*
X379042Y209276D01*
X379067Y209231D01*
X379092Y209174D01*
X379124Y209111D01*
X379156Y209034D01*
X379188Y208952D01*
X379220Y208863D01*
X379251Y208768D01*
X379308Y208552D01*
X379353Y208323D01*
X379359Y208202D01*
X379366Y208075D01*
X379366Y208069D01*
X379366Y208050D01*
X379366Y208012D01*
X379359Y207967D01*
X379353Y207910D01*
X379347Y207847D01*
X379340Y207771D01*
X379321Y207694D01*
X379283Y207517D01*
X379220Y207320D01*
X379181Y207218D01*
X379137Y207117D01*
X379086Y207021D01*
X379023Y206920D01*
X379016Y206913D01*
X379010Y206894D01*
X378984Y206869D01*
X378959Y206837D01*
X378927Y206793D01*
X378883Y206742D01*
X378832Y206685D01*
X378769Y206621D01*
X378705Y206558D01*
X378629Y206494D01*
X378546Y206424D01*
X378457Y206355D01*
X378362Y206285D01*
X378254Y206221D01*
X378140Y206158D01*
X378019Y206094D01*
X378032Y206094D01*
X378057Y206088D01*
X378102Y206075D01*
X378165Y206056D01*
X378235Y206031D01*
X378318Y205999D01*
X378413Y205961D01*
X378515Y205916D01*
X378623Y205866D01*
X378731Y205809D01*
X378845Y205739D01*
X378953Y205662D01*
X379067Y205580D01*
X379169Y205485D01*
X379270Y205383D01*
X379366Y205269D01*
X379372Y205262D01*
X379385Y205237D01*
X379410Y205205D01*
X379442Y205154D01*
X379480Y205097D01*
X379518Y205021D01*
X379562Y204932D01*
X379607Y204837D01*
X379651Y204729D01*
X379696Y204608D01*
X379734Y204481D01*
X379772Y204342D01*
X379804Y204189D01*
X379829Y204030D01*
X379842Y203865D01*
X379848Y203694D01*
X379848Y203688D01*
X379848Y203681D01*
X379848Y203662D01*
X379848Y203637D01*
X379842Y203567D01*
X379835Y203478D01*
X379823Y203370D01*
X379797Y203243D01*
X379772Y203097D01*
X379734Y202945D01*
X379683Y202773D01*
X379619Y202602D01*
X379543Y202418D01*
X379454Y202240D01*
X379347Y202056D01*
X379226Y201871D01*
X379080Y201694D01*
X378915Y201522D01*
X378902Y201509D01*
X378870Y201484D01*
X378819Y201440D01*
X378750Y201383D01*
X378654Y201319D01*
X378546Y201243D01*
X378413Y201160D01*
X378267Y201084D01*
X378108Y201001D01*
X377930Y200919D01*
X377734Y200843D01*
X377524Y200779D01*
X377302Y200722D01*
X377067Y200678D01*
X376813Y200652D01*
X376553Y200640D01*
X376495Y200640D01*
X376432Y200646D01*
X376337Y200652D01*
X376229Y200665D01*
X376102Y200678D01*
X375962Y200703D01*
X375803Y200735D01*
X375638Y200773D01*
X375467Y200824D01*
X375289Y200887D01*
X375111Y200963D01*
X374933Y201046D01*
X374755Y201148D01*
X374584Y201268D01*
X374419Y201402D01*
X374412Y201408D01*
X374381Y201440D01*
X374343Y201478D01*
X374286Y201541D01*
X374222Y201618D01*
X374146Y201706D01*
X374063Y201814D01*
X373981Y201935D01*
X373898Y202068D01*
X373809Y202221D01*
X373733Y202386D01*
X373657Y202557D01*
X373587Y202748D01*
X373530Y202951D01*
X373485Y203160D01*
X373454Y203383D01*
X374647Y203548D01*
X374647Y203535D01*
X374660Y203503D01*
X374673Y203453D01*
X374686Y203383D01*
X374711Y203300D01*
X374743Y203199D01*
X374775Y203097D01*
X374813Y202983D01*
X374914Y202741D01*
X375035Y202494D01*
X375105Y202379D01*
X375181Y202265D01*
X375263Y202164D01*
X375352Y202075D01*
X375359Y202068D01*
X375378Y202056D01*
X375403Y202037D01*
X375441Y202005D01*
X375492Y201973D01*
X375549Y201935D01*
X375613Y201897D01*
X375689Y201852D01*
X375771Y201814D01*
X375867Y201770D01*
X375968Y201732D01*
X376076Y201700D01*
X376184Y201668D01*
X376305Y201649D01*
X376432Y201637D01*
X376565Y201630D01*
X376603Y201630D01*
X376648Y201637D01*
X376705Y201637D01*
X376781Y201649D01*
X376864Y201662D01*
X376959Y201681D01*
X377061Y201706D01*
X377168Y201732D01*
X377283Y201770D01*
X377403Y201821D01*
X377524Y201878D01*
X377645Y201941D01*
X377759Y202024D01*
X377880Y202113D01*
X377988Y202214D01*
X377994Y202221D01*
X378013Y202240D01*
X378045Y202271D01*
X378077Y202322D01*
X378121Y202379D01*
X378172Y202443D01*
X378223Y202526D01*
X378280Y202614D01*
X378337Y202716D01*
X378388Y202824D01*
X378438Y202945D01*
X378483Y203072D01*
X378521Y203205D01*
X378546Y203351D01*
X378565Y203503D01*
X378572Y203662D01*
X378572Y203675D01*
X378572Y203700D01*
X378565Y203745D01*
X378565Y203802D01*
X378553Y203872D01*
X378546Y203954D01*
X378527Y204043D01*
X378502Y204145D01*
X378476Y204253D01*
X378438Y204361D01*
X378394Y204475D01*
X378343Y204589D01*
X378280Y204704D01*
X378210Y204818D01*
X378127Y204926D01*
X378032Y205027D01*
X378026Y205034D01*
X378007Y205053D01*
X377975Y205078D01*
X377937Y205110D01*
X377880Y205154D01*
X377816Y205199D01*
X377740Y205243D01*
X377657Y205294D01*
X377562Y205345D01*
X377461Y205389D01*
X377346Y205440D01*
X377226Y205478D01*
X377099Y205510D01*
X376959Y205535D01*
X376813Y205555D01*
X376660Y205561D01*
X376603Y205561D01*
X376565Y205555D01*
X376527Y205555D01*
X376483Y205548D01*
X376432Y205542D01*
X376305Y205529D01*
X376165Y205504D01*
X376000Y205472D01*
X375816Y205427D01*
X375949Y206482D01*
X375968Y206482D01*
X375994Y206475D01*
X376019Y206475D01*
X376083Y206469D01*
X376216Y206469D01*
X376267Y206475D01*
X376337Y206482D01*
X376413Y206488D01*
X376502Y206501D01*
X376603Y206520D01*
X376705Y206539D01*
X376813Y206564D01*
X376927Y206602D01*
X377048Y206640D01*
X377162Y206685D01*
X377283Y206736D01*
X377403Y206799D01*
X377518Y206869D01*
X377524Y206875D01*
X377543Y206888D01*
X377575Y206913D01*
X377613Y206945D01*
X377664Y206990D01*
X377715Y207040D01*
X377765Y207104D01*
X377829Y207174D01*
X377886Y207256D01*
X377937Y207345D01*
X377994Y207447D01*
X378038Y207555D01*
X378077Y207675D01*
X378108Y207809D01*
X378127Y207948D01*
X378134Y208101D01*
X378134Y208107D01*
X378134Y208133D01*
X378134Y208164D01*
X378127Y208209D01*
X378121Y208266D01*
X378108Y208336D01*
X378096Y208406D01*
X378077Y208488D01*
X378051Y208571D01*
X378026Y208660D01*
X377988Y208748D01*
X377943Y208837D01*
X377892Y208933D01*
X377829Y209022D01*
X377765Y209111D01*
X377683Y209193D01*
X377676Y209199D01*
X377664Y209212D01*
X377638Y209231D01*
X377600Y209263D01*
X377556Y209295D01*
X377505Y209333D01*
X377441Y209371D01*
X377372Y209409D01*
X377295Y209447D01*
X377206Y209492D01*
X377111Y209523D01*
X377010Y209555D01*
X376902Y209587D01*
X376787Y209606D01*
X376660Y209618D01*
X376533Y209625D01*
X376464Y209625D01*
X376419Y209618D01*
X376356Y209612D01*
X376286Y209599D01*
X376210Y209587D01*
X376127Y209568D01*
X376038Y209549D01*
X375943Y209517D01*
X375841Y209485D01*
X375746Y209441D01*
X375644Y209390D01*
X375549Y209333D01*
X375454Y209263D01*
X375365Y209187D01*
X375359Y209180D01*
X375346Y209168D01*
X375321Y209142D01*
X375289Y209104D01*
X375251Y209060D01*
X375213Y209002D01*
X375168Y208933D01*
X375117Y208857D01*
X375067Y208768D01*
X375016Y208672D01*
X374965Y208564D01*
X374921Y208444D01*
X374876Y208317D01*
X374832Y208177D01*
X374800Y208025D01*
X374768Y207866D01*
X373574Y208082D01*
X373574Y208088D01*
X373574Y208095D01*
X373581Y208113D01*
X373587Y208133D01*
X373600Y208196D01*
X373619Y208279D01*
X373651Y208380D01*
X373682Y208501D01*
X373727Y208628D01*
X373778Y208768D01*
X373841Y208914D01*
X373911Y209066D01*
X373993Y209225D01*
X374089Y209377D01*
X374190Y209530D01*
X374305Y209682D01*
X374432Y209822D01*
X374571Y209949D01*
X374578Y209955D01*
X374609Y209980D01*
X374654Y210012D01*
X374711Y210050D01*
X374787Y210101D01*
X374882Y210158D01*
X374984Y210215D01*
X375105Y210279D01*
X375238Y210342D01*
X375390Y210399D01*
X375549Y210457D01*
X375721Y210508D01*
X375898Y210546D01*
X376095Y210584D01*
X376298Y210603D01*
X376508Y210609D01*
X376584Y210609D01*
X376641Y210603D01*
X376641Y210603D02*
G37*
G36*
X371695Y200811D02*
X370330Y200811D01*
X370330Y202176D01*
X371695Y202176D01*
X371695Y200811D01*
X371695Y200811D02*
G37*
G36*
X384350Y210603D02*
X384420Y210603D01*
X384496Y210590D01*
X384585Y210584D01*
X384687Y210571D01*
X384788Y210552D01*
X384903Y210533D01*
X385131Y210476D01*
X385246Y210438D01*
X385366Y210399D01*
X385481Y210349D01*
X385595Y210292D01*
X385601Y210285D01*
X385620Y210279D01*
X385652Y210260D01*
X385696Y210234D01*
X385741Y210203D01*
X385804Y210165D01*
X385868Y210114D01*
X385938Y210063D01*
X386014Y210000D01*
X386090Y209936D01*
X386173Y209860D01*
X386255Y209777D01*
X386338Y209688D01*
X386420Y209593D01*
X386497Y209492D01*
X386573Y209384D01*
X386579Y209377D01*
X386592Y209358D01*
X386611Y209320D01*
X386636Y209276D01*
X386668Y209218D01*
X386706Y209149D01*
X386751Y209066D01*
X386795Y208977D01*
X386839Y208876D01*
X386890Y208768D01*
X386941Y208647D01*
X386992Y208520D01*
X387043Y208380D01*
X387087Y208241D01*
X387132Y208088D01*
X387176Y207929D01*
X387176Y207917D01*
X387189Y207891D01*
X387195Y207840D01*
X387214Y207771D01*
X387227Y207688D01*
X387246Y207580D01*
X387265Y207460D01*
X387290Y207320D01*
X387309Y207161D01*
X387328Y206990D01*
X387347Y206799D01*
X387366Y206596D01*
X387379Y206374D01*
X387392Y206139D01*
X387398Y205891D01*
X387398Y205624D01*
X387398Y205618D01*
X387398Y205605D01*
X387398Y205580D01*
X387398Y205548D01*
X387398Y205510D01*
X387398Y205459D01*
X387392Y205402D01*
X387392Y205339D01*
X387392Y205269D01*
X387386Y205193D01*
X387379Y205027D01*
X387366Y204837D01*
X387354Y204634D01*
X387335Y204418D01*
X387309Y204189D01*
X387246Y203726D01*
X387208Y203497D01*
X387163Y203269D01*
X387106Y203053D01*
X387043Y202849D01*
X387036Y202837D01*
X387024Y202805D01*
X387005Y202748D01*
X386979Y202678D01*
X386941Y202589D01*
X386897Y202487D01*
X386839Y202373D01*
X386782Y202253D01*
X386712Y202119D01*
X386630Y201986D01*
X386547Y201852D01*
X386452Y201719D01*
X386351Y201586D01*
X386236Y201452D01*
X386116Y201332D01*
X385989Y201217D01*
X385982Y201211D01*
X385957Y201192D01*
X385919Y201167D01*
X385862Y201129D01*
X385792Y201084D01*
X385709Y201040D01*
X385614Y200982D01*
X385506Y200932D01*
X385385Y200881D01*
X385252Y200830D01*
X385106Y200779D01*
X384947Y200735D01*
X384782Y200697D01*
X384604Y200671D01*
X384414Y200652D01*
X384217Y200646D01*
X384153Y200646D01*
X384122Y200652D01*
X384084Y200652D01*
X383982Y200665D01*
X383868Y200678D01*
X383728Y200697D01*
X383576Y200728D01*
X383410Y200773D01*
X383239Y200824D01*
X383055Y200894D01*
X382871Y200976D01*
X382687Y201071D01*
X382502Y201186D01*
X382325Y201325D01*
X382160Y201478D01*
X382001Y201656D01*
X382001Y201662D01*
X381988Y201668D01*
X381975Y201687D01*
X381963Y201713D01*
X381937Y201744D01*
X381912Y201789D01*
X381880Y201833D01*
X381848Y201891D01*
X381817Y201954D01*
X381778Y202024D01*
X381734Y202100D01*
X381696Y202189D01*
X381651Y202278D01*
X381607Y202379D01*
X381563Y202494D01*
X381518Y202608D01*
X381474Y202735D01*
X381429Y202868D01*
X381385Y203008D01*
X381340Y203160D01*
X381302Y203319D01*
X381258Y203484D01*
X381220Y203662D01*
X381188Y203846D01*
X381156Y204037D01*
X381124Y204240D01*
X381099Y204450D01*
X381080Y204666D01*
X381061Y204894D01*
X381048Y205129D01*
X381036Y205370D01*
X381036Y205624D01*
X381036Y205631D01*
X381036Y205643D01*
X381036Y205669D01*
X381036Y205700D01*
X381036Y205745D01*
X381036Y205789D01*
X381042Y205847D01*
X381042Y205910D01*
X381042Y205980D01*
X381048Y206056D01*
X381055Y206228D01*
X381067Y206418D01*
X381080Y206621D01*
X381099Y206843D01*
X381124Y207066D01*
X381188Y207529D01*
X381226Y207764D01*
X381277Y207993D01*
X381328Y208209D01*
X381391Y208412D01*
X381398Y208425D01*
X381410Y208456D01*
X381429Y208514D01*
X381461Y208583D01*
X381493Y208672D01*
X381544Y208774D01*
X381594Y208888D01*
X381658Y209009D01*
X381728Y209142D01*
X381804Y209269D01*
X381893Y209409D01*
X381988Y209542D01*
X382090Y209676D01*
X382198Y209803D01*
X382318Y209923D01*
X382445Y210038D01*
X382452Y210044D01*
X382477Y210063D01*
X382515Y210088D01*
X382572Y210126D01*
X382642Y210171D01*
X382725Y210222D01*
X382820Y210273D01*
X382934Y210323D01*
X383055Y210374D01*
X383188Y210431D01*
X383334Y210476D01*
X383493Y210520D01*
X383658Y210558D01*
X383836Y210584D01*
X384020Y210603D01*
X384217Y210609D01*
X384293Y210609D01*
X384350Y210603D01*
X384350Y210603D02*
G37*
G36*
X348791Y372189D02*
X348861Y372189D01*
X348950Y372177D01*
X349052Y372164D01*
X349166Y372145D01*
X349287Y372126D01*
X349414Y372094D01*
X349547Y372056D01*
X349680Y372005D01*
X349820Y371948D01*
X349947Y371885D01*
X350080Y371802D01*
X350201Y371713D01*
X350309Y371612D01*
X350315Y371605D01*
X350334Y371586D01*
X350360Y371548D01*
X350398Y371504D01*
X350442Y371440D01*
X350487Y371364D01*
X350538Y371275D01*
X350595Y371167D01*
X350645Y371046D01*
X350696Y370919D01*
X350741Y370767D01*
X350785Y370608D01*
X350823Y370430D01*
X350849Y370240D01*
X350868Y370037D01*
X350874Y369815D01*
X350874Y364963D01*
X349687Y364963D01*
X349687Y369414D01*
X349687Y369421D01*
X349687Y369446D01*
X349687Y369484D01*
X349687Y369529D01*
X349680Y369592D01*
X349680Y369656D01*
X349674Y369732D01*
X349674Y369815D01*
X349655Y369980D01*
X349636Y370151D01*
X349604Y370316D01*
X349585Y370386D01*
X349566Y370450D01*
X349566Y370456D01*
X349560Y370462D01*
X349541Y370500D01*
X349515Y370558D01*
X349471Y370634D01*
X349414Y370716D01*
X349337Y370799D01*
X349249Y370881D01*
X349141Y370958D01*
X349134Y370958D01*
X349128Y370964D01*
X349109Y370977D01*
X349090Y370989D01*
X349020Y371021D01*
X348937Y371059D01*
X348829Y371091D01*
X348709Y371123D01*
X348575Y371148D01*
X348423Y371154D01*
X348353Y371154D01*
X348302Y371148D01*
X348239Y371142D01*
X348163Y371129D01*
X348080Y371110D01*
X347991Y371091D01*
X347896Y371065D01*
X347794Y371034D01*
X347693Y370996D01*
X347585Y370945D01*
X347483Y370888D01*
X347382Y370824D01*
X347280Y370748D01*
X347185Y370659D01*
X347178Y370653D01*
X347166Y370634D01*
X347140Y370608D01*
X347109Y370564D01*
X347071Y370513D01*
X347032Y370443D01*
X346988Y370367D01*
X346944Y370278D01*
X346893Y370170D01*
X346848Y370056D01*
X346810Y369922D01*
X346772Y369783D01*
X346740Y369624D01*
X346715Y369453D01*
X346702Y369268D01*
X346696Y369072D01*
X346696Y364963D01*
X345496Y364963D01*
X345496Y369554D01*
X345496Y369561D01*
X345496Y369592D01*
X345496Y369630D01*
X345489Y369688D01*
X345489Y369751D01*
X345483Y369827D01*
X345470Y369916D01*
X345458Y370005D01*
X345426Y370202D01*
X345375Y370399D01*
X345299Y370589D01*
X345254Y370678D01*
X345204Y370754D01*
X345197Y370761D01*
X345191Y370773D01*
X345172Y370793D01*
X345146Y370818D01*
X345115Y370850D01*
X345077Y370881D01*
X345032Y370919D01*
X344975Y370958D01*
X344911Y370989D01*
X344842Y371027D01*
X344765Y371059D01*
X344677Y371091D01*
X344581Y371116D01*
X344480Y371135D01*
X344365Y371148D01*
X344245Y371154D01*
X344194Y371154D01*
X344156Y371148D01*
X344111Y371148D01*
X344061Y371142D01*
X344003Y371135D01*
X343940Y371123D01*
X343794Y371091D01*
X343635Y371040D01*
X343470Y370977D01*
X343305Y370888D01*
X343299Y370888D01*
X343286Y370875D01*
X343267Y370862D01*
X343235Y370837D01*
X343159Y370773D01*
X343070Y370691D01*
X342968Y370583D01*
X342860Y370443D01*
X342765Y370291D01*
X342683Y370107D01*
X342683Y370100D01*
X342676Y370081D01*
X342664Y370056D01*
X342651Y370011D01*
X342638Y369961D01*
X342626Y369891D01*
X342606Y369815D01*
X342587Y369732D01*
X342568Y369630D01*
X342556Y369523D01*
X342537Y369395D01*
X342524Y369268D01*
X342511Y369122D01*
X342499Y368970D01*
X342492Y368805D01*
X342492Y368627D01*
X342492Y364963D01*
X341292Y364963D01*
X341292Y372031D01*
X342365Y372031D01*
X342365Y371040D01*
X342371Y371046D01*
X342378Y371065D01*
X342397Y371091D01*
X342429Y371129D01*
X342460Y371174D01*
X342499Y371224D01*
X342543Y371281D01*
X342600Y371339D01*
X342657Y371408D01*
X342727Y371472D01*
X342879Y371612D01*
X343051Y371751D01*
X343248Y371878D01*
X343254Y371885D01*
X343273Y371891D01*
X343305Y371910D01*
X343349Y371929D01*
X343400Y371954D01*
X343464Y371980D01*
X343534Y372005D01*
X343616Y372037D01*
X343705Y372069D01*
X343800Y372094D01*
X343908Y372120D01*
X344016Y372145D01*
X344257Y372183D01*
X344384Y372189D01*
X344511Y372196D01*
X344588Y372196D01*
X344638Y372189D01*
X344708Y372183D01*
X344785Y372177D01*
X344873Y372170D01*
X344962Y372158D01*
X345165Y372113D01*
X345381Y372056D01*
X345489Y372018D01*
X345597Y371974D01*
X345699Y371923D01*
X345794Y371866D01*
X345801Y371859D01*
X345820Y371853D01*
X345845Y371834D01*
X345877Y371809D01*
X345921Y371770D01*
X345966Y371732D01*
X346016Y371682D01*
X346073Y371631D01*
X346131Y371567D01*
X346194Y371497D01*
X346251Y371427D01*
X346309Y371345D01*
X346366Y371256D01*
X346416Y371161D01*
X346467Y371059D01*
X346505Y370951D01*
X346505Y370958D01*
X346518Y370964D01*
X346524Y370983D01*
X346543Y371002D01*
X346594Y371065D01*
X346658Y371148D01*
X346740Y371237D01*
X346842Y371345D01*
X346956Y371459D01*
X347096Y371573D01*
X347242Y371688D01*
X347407Y371802D01*
X347585Y371910D01*
X347782Y371999D01*
X347991Y372081D01*
X348207Y372145D01*
X348328Y372164D01*
X348442Y372183D01*
X348563Y372189D01*
X348690Y372196D01*
X348734Y372196D01*
X348791Y372189D01*
X348791Y372189D02*
G37*
G36*
X337431Y372189D02*
X337501Y372189D01*
X337590Y372177D01*
X337691Y372164D01*
X337806Y372145D01*
X337926Y372126D01*
X338054Y372094D01*
X338187Y372056D01*
X338320Y372005D01*
X338460Y371948D01*
X338587Y371885D01*
X338720Y371802D01*
X338841Y371713D01*
X338949Y371612D01*
X338955Y371605D01*
X338974Y371586D01*
X339000Y371548D01*
X339038Y371504D01*
X339082Y371440D01*
X339127Y371364D01*
X339177Y371275D01*
X339235Y371167D01*
X339285Y371046D01*
X339336Y370919D01*
X339381Y370767D01*
X339425Y370608D01*
X339463Y370430D01*
X339489Y370240D01*
X339508Y370037D01*
X339514Y369815D01*
X339514Y364963D01*
X338326Y364963D01*
X338326Y369414D01*
X338326Y369421D01*
X338326Y369446D01*
X338326Y369484D01*
X338326Y369529D01*
X338320Y369592D01*
X338320Y369656D01*
X338314Y369732D01*
X338314Y369815D01*
X338295Y369980D01*
X338276Y370151D01*
X338244Y370316D01*
X338225Y370386D01*
X338206Y370450D01*
X338206Y370456D01*
X338200Y370462D01*
X338181Y370500D01*
X338155Y370558D01*
X338111Y370634D01*
X338054Y370716D01*
X337977Y370799D01*
X337888Y370881D01*
X337780Y370958D01*
X337774Y370958D01*
X337768Y370964D01*
X337749Y370977D01*
X337730Y370989D01*
X337660Y371021D01*
X337577Y371059D01*
X337469Y371091D01*
X337349Y371123D01*
X337215Y371148D01*
X337063Y371154D01*
X336993Y371154D01*
X336942Y371148D01*
X336879Y371142D01*
X336802Y371129D01*
X336720Y371110D01*
X336631Y371091D01*
X336536Y371065D01*
X336434Y371034D01*
X336333Y370996D01*
X336225Y370945D01*
X336123Y370888D01*
X336021Y370824D01*
X335920Y370748D01*
X335825Y370659D01*
X335818Y370653D01*
X335806Y370634D01*
X335780Y370608D01*
X335748Y370564D01*
X335710Y370513D01*
X335672Y370443D01*
X335628Y370367D01*
X335583Y370278D01*
X335532Y370170D01*
X335488Y370056D01*
X335450Y369922D01*
X335412Y369783D01*
X335380Y369624D01*
X335355Y369453D01*
X335342Y369268D01*
X335336Y369072D01*
X335336Y364963D01*
X334136Y364963D01*
X334136Y369554D01*
X334136Y369561D01*
X334136Y369592D01*
X334136Y369630D01*
X334129Y369688D01*
X334129Y369751D01*
X334123Y369827D01*
X334110Y369916D01*
X334097Y370005D01*
X334066Y370202D01*
X334015Y370399D01*
X333939Y370589D01*
X333894Y370678D01*
X333843Y370754D01*
X333837Y370761D01*
X333831Y370773D01*
X333812Y370793D01*
X333786Y370818D01*
X333755Y370850D01*
X333716Y370881D01*
X333672Y370919D01*
X333615Y370958D01*
X333551Y370989D01*
X333481Y371027D01*
X333405Y371059D01*
X333316Y371091D01*
X333221Y371116D01*
X333120Y371135D01*
X333005Y371148D01*
X332885Y371154D01*
X332834Y371154D01*
X332796Y371148D01*
X332751Y371148D01*
X332700Y371142D01*
X332643Y371135D01*
X332580Y371123D01*
X332434Y371091D01*
X332275Y371040D01*
X332110Y370977D01*
X331945Y370888D01*
X331938Y370888D01*
X331926Y370875D01*
X331907Y370862D01*
X331875Y370837D01*
X331799Y370773D01*
X331710Y370691D01*
X331608Y370583D01*
X331500Y370443D01*
X331405Y370291D01*
X331323Y370107D01*
X331323Y370100D01*
X331316Y370081D01*
X331303Y370056D01*
X331291Y370011D01*
X331278Y369961D01*
X331265Y369891D01*
X331246Y369815D01*
X331227Y369732D01*
X331208Y369630D01*
X331195Y369523D01*
X331176Y369395D01*
X331164Y369268D01*
X331151Y369122D01*
X331138Y368970D01*
X331132Y368805D01*
X331132Y368627D01*
X331132Y364963D01*
X329932Y364963D01*
X329932Y372031D01*
X331005Y372031D01*
X331005Y371040D01*
X331011Y371046D01*
X331018Y371065D01*
X331037Y371091D01*
X331068Y371129D01*
X331100Y371174D01*
X331138Y371224D01*
X331183Y371281D01*
X331240Y371339D01*
X331297Y371408D01*
X331367Y371472D01*
X331519Y371612D01*
X331691Y371751D01*
X331888Y371878D01*
X331894Y371885D01*
X331913Y371891D01*
X331945Y371910D01*
X331989Y371929D01*
X332040Y371954D01*
X332104Y371980D01*
X332173Y372005D01*
X332256Y372037D01*
X332345Y372069D01*
X332440Y372094D01*
X332548Y372120D01*
X332656Y372145D01*
X332897Y372183D01*
X333024Y372189D01*
X333151Y372196D01*
X333228Y372196D01*
X333278Y372189D01*
X333348Y372183D01*
X333424Y372177D01*
X333513Y372170D01*
X333602Y372158D01*
X333805Y372113D01*
X334021Y372056D01*
X334129Y372018D01*
X334237Y371974D01*
X334339Y371923D01*
X334434Y371866D01*
X334440Y371859D01*
X334459Y371853D01*
X334485Y371834D01*
X334516Y371809D01*
X334561Y371770D01*
X334605Y371732D01*
X334656Y371682D01*
X334713Y371631D01*
X334771Y371567D01*
X334834Y371497D01*
X334891Y371427D01*
X334948Y371345D01*
X335005Y371256D01*
X335056Y371161D01*
X335107Y371059D01*
X335145Y370951D01*
X335145Y370958D01*
X335158Y370964D01*
X335164Y370983D01*
X335183Y371002D01*
X335234Y371065D01*
X335298Y371148D01*
X335380Y371237D01*
X335482Y371345D01*
X335596Y371459D01*
X335736Y371573D01*
X335882Y371688D01*
X336047Y371802D01*
X336225Y371910D01*
X336422Y371999D01*
X336631Y372081D01*
X336847Y372145D01*
X336968Y372164D01*
X337082Y372183D01*
X337203Y372189D01*
X337330Y372196D01*
X337374Y372196D01*
X337431Y372189D01*
X337431Y372189D02*
G37*
G36*
X320439Y373447D02*
X316540Y373447D01*
X316013Y370818D01*
X316025Y370824D01*
X316051Y370843D01*
X316101Y370875D01*
X316165Y370913D01*
X316248Y370964D01*
X316343Y371015D01*
X316451Y371065D01*
X316578Y371129D01*
X316711Y371186D01*
X316851Y371237D01*
X317003Y371294D01*
X317162Y371339D01*
X317333Y371377D01*
X317505Y371408D01*
X317683Y371427D01*
X317861Y371434D01*
X317918Y371434D01*
X317981Y371427D01*
X318076Y371421D01*
X318184Y371408D01*
X318311Y371389D01*
X318451Y371358D01*
X318610Y371326D01*
X318775Y371275D01*
X318946Y371218D01*
X319124Y371148D01*
X319308Y371059D01*
X319492Y370958D01*
X319670Y370837D01*
X319842Y370704D01*
X320013Y370545D01*
X320026Y370532D01*
X320051Y370507D01*
X320096Y370456D01*
X320153Y370386D01*
X320216Y370297D01*
X320293Y370196D01*
X320375Y370069D01*
X320458Y369929D01*
X320534Y369776D01*
X320616Y369605D01*
X320693Y369414D01*
X320756Y369211D01*
X320813Y368995D01*
X320858Y368767D01*
X320883Y368526D01*
X320896Y368271D01*
X320896Y368265D01*
X320896Y368259D01*
X320896Y368240D01*
X320896Y368214D01*
X320896Y368183D01*
X320889Y368144D01*
X320883Y368049D01*
X320870Y367935D01*
X320858Y367802D01*
X320832Y367649D01*
X320801Y367491D01*
X320756Y367313D01*
X320705Y367128D01*
X320642Y366938D01*
X320572Y366748D01*
X320483Y366551D01*
X320375Y366354D01*
X320261Y366163D01*
X320121Y365979D01*
X320121Y365973D01*
X320108Y365966D01*
X320077Y365928D01*
X320026Y365871D01*
X319950Y365795D01*
X319854Y365706D01*
X319740Y365605D01*
X319607Y365497D01*
X319454Y365389D01*
X319277Y365281D01*
X319086Y365173D01*
X318876Y365071D01*
X318648Y364982D01*
X318400Y364906D01*
X318140Y364849D01*
X317861Y364811D01*
X317714Y364804D01*
X317562Y364798D01*
X317473Y364798D01*
X317435Y364804D01*
X317340Y364811D01*
X317225Y364823D01*
X317099Y364836D01*
X316946Y364862D01*
X316787Y364893D01*
X316622Y364931D01*
X316444Y364982D01*
X316267Y365039D01*
X316082Y365109D01*
X315898Y365198D01*
X315721Y365293D01*
X315549Y365408D01*
X315384Y365541D01*
X315378Y365547D01*
X315346Y365573D01*
X315308Y365617D01*
X315251Y365674D01*
X315187Y365751D01*
X315111Y365840D01*
X315035Y365947D01*
X314952Y366068D01*
X314863Y366201D01*
X314781Y366348D01*
X314698Y366513D01*
X314628Y366690D01*
X314559Y366875D01*
X314501Y367078D01*
X314457Y367294D01*
X314425Y367516D01*
X315682Y367624D01*
X315682Y367611D01*
X315689Y367586D01*
X315702Y367535D01*
X315714Y367471D01*
X315733Y367395D01*
X315752Y367306D01*
X315784Y367211D01*
X315816Y367103D01*
X315854Y366995D01*
X315905Y366881D01*
X315956Y366767D01*
X316013Y366652D01*
X316082Y366538D01*
X316159Y366430D01*
X316241Y366335D01*
X316330Y366240D01*
X316336Y366233D01*
X316355Y366221D01*
X316381Y366195D01*
X316419Y366170D01*
X316470Y366132D01*
X316527Y366093D01*
X316597Y366055D01*
X316673Y366011D01*
X316762Y365966D01*
X316857Y365928D01*
X316959Y365890D01*
X317067Y365852D01*
X317181Y365827D01*
X317302Y365801D01*
X317429Y365789D01*
X317562Y365782D01*
X317600Y365782D01*
X317645Y365789D01*
X317708Y365795D01*
X317778Y365801D01*
X317867Y365814D01*
X317962Y365840D01*
X318070Y365865D01*
X318178Y365897D01*
X318299Y365941D01*
X318419Y365992D01*
X318540Y366055D01*
X318667Y366132D01*
X318788Y366214D01*
X318908Y366316D01*
X319023Y366430D01*
X319029Y366436D01*
X319048Y366462D01*
X319080Y366500D01*
X319118Y366551D01*
X319162Y366614D01*
X319213Y366697D01*
X319270Y366786D01*
X319327Y366894D01*
X319378Y367008D01*
X319435Y367141D01*
X319486Y367281D01*
X319531Y367440D01*
X319569Y367605D01*
X319600Y367776D01*
X319619Y367967D01*
X319626Y368164D01*
X319626Y368176D01*
X319626Y368208D01*
X319619Y368265D01*
X319619Y368335D01*
X319607Y368418D01*
X319594Y368519D01*
X319575Y368633D01*
X319556Y368754D01*
X319524Y368881D01*
X319486Y369008D01*
X319435Y369148D01*
X319384Y369281D01*
X319315Y369414D01*
X319238Y369542D01*
X319149Y369669D01*
X319048Y369783D01*
X319042Y369789D01*
X319023Y369808D01*
X318991Y369840D01*
X318946Y369878D01*
X318883Y369922D01*
X318819Y369967D01*
X318737Y370024D01*
X318641Y370081D01*
X318540Y370132D01*
X318426Y370189D01*
X318305Y370234D01*
X318172Y370285D01*
X318026Y370316D01*
X317873Y370348D01*
X317714Y370367D01*
X317543Y370373D01*
X317486Y370373D01*
X317448Y370367D01*
X317391Y370367D01*
X317333Y370361D01*
X317264Y370354D01*
X317194Y370342D01*
X317029Y370310D01*
X316851Y370259D01*
X316667Y370196D01*
X316489Y370107D01*
X316483Y370107D01*
X316470Y370094D01*
X316444Y370081D01*
X316413Y370062D01*
X316375Y370037D01*
X316330Y370005D01*
X316222Y369922D01*
X316108Y369827D01*
X315987Y369713D01*
X315867Y369580D01*
X315759Y369427D01*
X314635Y369573D01*
X315581Y374590D01*
X320439Y374590D01*
X320439Y373447D01*
X320439Y373447D02*
G37*
G36*
X309059Y373447D02*
X305161Y373447D01*
X304633Y370818D01*
X304646Y370824D01*
X304671Y370843D01*
X304722Y370875D01*
X304786Y370913D01*
X304868Y370964D01*
X304964Y371015D01*
X305072Y371065D01*
X305199Y371129D01*
X305332Y371186D01*
X305472Y371237D01*
X305624Y371294D01*
X305783Y371339D01*
X305954Y371377D01*
X306126Y371408D01*
X306304Y371427D01*
X306481Y371434D01*
X306538Y371434D01*
X306602Y371427D01*
X306697Y371421D01*
X306805Y371408D01*
X306932Y371389D01*
X307072Y371358D01*
X307231Y371326D01*
X307396Y371275D01*
X307567Y371218D01*
X307745Y371148D01*
X307929Y371059D01*
X308113Y370958D01*
X308291Y370837D01*
X308463Y370704D01*
X308634Y370545D01*
X308647Y370532D01*
X308672Y370507D01*
X308717Y370456D01*
X308774Y370386D01*
X308837Y370297D01*
X308913Y370196D01*
X308996Y370069D01*
X309078Y369929D01*
X309155Y369776D01*
X309237Y369605D01*
X309313Y369414D01*
X309377Y369211D01*
X309434Y368995D01*
X309478Y368767D01*
X309504Y368526D01*
X309517Y368271D01*
X309517Y368265D01*
X309517Y368259D01*
X309517Y368240D01*
X309517Y368214D01*
X309517Y368183D01*
X309510Y368144D01*
X309504Y368049D01*
X309491Y367935D01*
X309478Y367802D01*
X309453Y367649D01*
X309421Y367491D01*
X309377Y367313D01*
X309326Y367128D01*
X309263Y366938D01*
X309193Y366748D01*
X309104Y366551D01*
X308996Y366354D01*
X308882Y366163D01*
X308742Y365979D01*
X308742Y365973D01*
X308729Y365966D01*
X308697Y365928D01*
X308647Y365871D01*
X308570Y365795D01*
X308475Y365706D01*
X308361Y365605D01*
X308228Y365497D01*
X308075Y365389D01*
X307897Y365281D01*
X307707Y365173D01*
X307497Y365071D01*
X307269Y364982D01*
X307021Y364906D01*
X306761Y364849D01*
X306481Y364811D01*
X306335Y364804D01*
X306183Y364798D01*
X306094Y364798D01*
X306056Y364804D01*
X305961Y364811D01*
X305846Y364823D01*
X305719Y364836D01*
X305567Y364862D01*
X305408Y364893D01*
X305243Y364931D01*
X305065Y364982D01*
X304887Y365039D01*
X304703Y365109D01*
X304519Y365198D01*
X304341Y365293D01*
X304170Y365408D01*
X304005Y365541D01*
X303998Y365547D01*
X303967Y365573D01*
X303929Y365617D01*
X303871Y365674D01*
X303808Y365751D01*
X303732Y365840D01*
X303655Y365947D01*
X303573Y366068D01*
X303484Y366201D01*
X303402Y366348D01*
X303319Y366513D01*
X303249Y366690D01*
X303179Y366875D01*
X303122Y367078D01*
X303078Y367294D01*
X303046Y367516D01*
X304303Y367624D01*
X304303Y367611D01*
X304310Y367586D01*
X304322Y367535D01*
X304335Y367471D01*
X304354Y367395D01*
X304373Y367306D01*
X304405Y367211D01*
X304437Y367103D01*
X304475Y366995D01*
X304526Y366881D01*
X304576Y366767D01*
X304633Y366652D01*
X304703Y366538D01*
X304779Y366430D01*
X304862Y366335D01*
X304951Y366240D01*
X304957Y366233D01*
X304976Y366221D01*
X305002Y366195D01*
X305040Y366170D01*
X305091Y366132D01*
X305148Y366093D01*
X305218Y366055D01*
X305294Y366011D01*
X305383Y365966D01*
X305478Y365928D01*
X305580Y365890D01*
X305688Y365852D01*
X305802Y365827D01*
X305923Y365801D01*
X306049Y365789D01*
X306183Y365782D01*
X306221Y365782D01*
X306265Y365789D01*
X306329Y365795D01*
X306399Y365801D01*
X306488Y365814D01*
X306583Y365840D01*
X306691Y365865D01*
X306799Y365897D01*
X306919Y365941D01*
X307040Y365992D01*
X307161Y366055D01*
X307288Y366132D01*
X307408Y366214D01*
X307529Y366316D01*
X307643Y366430D01*
X307650Y366436D01*
X307669Y366462D01*
X307701Y366500D01*
X307739Y366551D01*
X307783Y366614D01*
X307834Y366697D01*
X307891Y366786D01*
X307948Y366894D01*
X307999Y367008D01*
X308056Y367141D01*
X308107Y367281D01*
X308151Y367440D01*
X308189Y367605D01*
X308221Y367776D01*
X308240Y367967D01*
X308247Y368164D01*
X308247Y368176D01*
X308247Y368208D01*
X308240Y368265D01*
X308240Y368335D01*
X308228Y368418D01*
X308215Y368519D01*
X308196Y368633D01*
X308177Y368754D01*
X308145Y368881D01*
X308107Y369008D01*
X308056Y369148D01*
X308005Y369281D01*
X307935Y369414D01*
X307859Y369542D01*
X307770Y369669D01*
X307669Y369783D01*
X307662Y369789D01*
X307643Y369808D01*
X307612Y369840D01*
X307567Y369878D01*
X307504Y369922D01*
X307440Y369967D01*
X307358Y370024D01*
X307262Y370081D01*
X307161Y370132D01*
X307046Y370189D01*
X306926Y370234D01*
X306792Y370285D01*
X306646Y370316D01*
X306494Y370348D01*
X306335Y370367D01*
X306164Y370373D01*
X306107Y370373D01*
X306068Y370367D01*
X306011Y370367D01*
X305954Y370361D01*
X305884Y370354D01*
X305814Y370342D01*
X305649Y370310D01*
X305472Y370259D01*
X305287Y370196D01*
X305110Y370107D01*
X305103Y370107D01*
X305091Y370094D01*
X305065Y370081D01*
X305033Y370062D01*
X304995Y370037D01*
X304951Y370005D01*
X304843Y369922D01*
X304729Y369827D01*
X304608Y369713D01*
X304487Y369580D01*
X304379Y369427D01*
X303256Y369573D01*
X304202Y374590D01*
X309059Y374590D01*
X309059Y373447D01*
X309059Y373447D02*
G37*
G36*
X312673Y364963D02*
X311307Y364963D01*
X311307Y366328D01*
X312673Y366328D01*
X312673Y364963D01*
X312673Y364963D02*
G37*
G36*
X325328Y374755D02*
X325398Y374755D01*
X325474Y374742D01*
X325563Y374736D01*
X325665Y374723D01*
X325766Y374704D01*
X325881Y374685D01*
X326109Y374628D01*
X326223Y374590D01*
X326344Y374552D01*
X326458Y374501D01*
X326573Y374444D01*
X326579Y374437D01*
X326598Y374431D01*
X326630Y374412D01*
X326674Y374387D01*
X326719Y374355D01*
X326782Y374317D01*
X326846Y374266D01*
X326916Y374215D01*
X326992Y374152D01*
X327068Y374088D01*
X327150Y374012D01*
X327233Y373929D01*
X327316Y373840D01*
X327398Y373745D01*
X327474Y373644D01*
X327551Y373536D01*
X327557Y373529D01*
X327570Y373510D01*
X327589Y373472D01*
X327614Y373428D01*
X327646Y373371D01*
X327684Y373301D01*
X327728Y373218D01*
X327773Y373129D01*
X327817Y373028D01*
X327868Y372920D01*
X327919Y372799D01*
X327970Y372672D01*
X328021Y372532D01*
X328065Y372393D01*
X328109Y372240D01*
X328154Y372081D01*
X328154Y372069D01*
X328167Y372043D01*
X328173Y371993D01*
X328192Y371923D01*
X328205Y371840D01*
X328224Y371732D01*
X328243Y371612D01*
X328268Y371472D01*
X328287Y371313D01*
X328306Y371142D01*
X328325Y370951D01*
X328344Y370748D01*
X328357Y370526D01*
X328370Y370291D01*
X328376Y370043D01*
X328376Y369776D01*
X328376Y369770D01*
X328376Y369757D01*
X328376Y369732D01*
X328376Y369700D01*
X328376Y369662D01*
X328376Y369611D01*
X328370Y369554D01*
X328370Y369491D01*
X328370Y369421D01*
X328363Y369345D01*
X328357Y369180D01*
X328344Y368989D01*
X328332Y368786D01*
X328313Y368570D01*
X328287Y368341D01*
X328224Y367878D01*
X328186Y367649D01*
X328141Y367421D01*
X328084Y367205D01*
X328021Y367001D01*
X328014Y366989D01*
X328001Y366957D01*
X327982Y366900D01*
X327957Y366830D01*
X327919Y366741D01*
X327874Y366640D01*
X327817Y366525D01*
X327760Y366405D01*
X327690Y366271D01*
X327608Y366138D01*
X327525Y366005D01*
X327430Y365871D01*
X327328Y365738D01*
X327214Y365605D01*
X327093Y365484D01*
X326966Y365370D01*
X326960Y365363D01*
X326935Y365344D01*
X326897Y365319D01*
X326839Y365281D01*
X326769Y365236D01*
X326687Y365192D01*
X326592Y365135D01*
X326484Y365084D01*
X326363Y365033D01*
X326230Y364982D01*
X326084Y364931D01*
X325925Y364887D01*
X325760Y364849D01*
X325582Y364823D01*
X325392Y364804D01*
X325195Y364798D01*
X325131Y364798D01*
X325099Y364804D01*
X325061Y364804D01*
X324960Y364817D01*
X324846Y364830D01*
X324706Y364849D01*
X324553Y364881D01*
X324388Y364925D01*
X324217Y364976D01*
X324033Y365046D01*
X323848Y365128D01*
X323664Y365224D01*
X323480Y365338D01*
X323302Y365477D01*
X323137Y365630D01*
X322979Y365808D01*
X322979Y365814D01*
X322966Y365820D01*
X322953Y365840D01*
X322940Y365865D01*
X322915Y365897D01*
X322890Y365941D01*
X322858Y365985D01*
X322826Y366043D01*
X322794Y366106D01*
X322756Y366176D01*
X322712Y366252D01*
X322674Y366341D01*
X322629Y366430D01*
X322585Y366532D01*
X322540Y366646D01*
X322496Y366760D01*
X322452Y366887D01*
X322407Y367021D01*
X322363Y367160D01*
X322318Y367313D01*
X322280Y367471D01*
X322236Y367636D01*
X322197Y367814D01*
X322166Y367999D01*
X322134Y368189D01*
X322102Y368392D01*
X322077Y368602D01*
X322058Y368818D01*
X322039Y369046D01*
X322026Y369281D01*
X322013Y369523D01*
X322013Y369776D01*
X322013Y369783D01*
X322013Y369795D01*
X322013Y369821D01*
X322013Y369853D01*
X322013Y369897D01*
X322013Y369942D01*
X322020Y369999D01*
X322020Y370062D01*
X322020Y370132D01*
X322026Y370208D01*
X322032Y370380D01*
X322045Y370570D01*
X322058Y370773D01*
X322077Y370996D01*
X322102Y371218D01*
X322166Y371682D01*
X322204Y371916D01*
X322255Y372145D01*
X322305Y372361D01*
X322369Y372564D01*
X322375Y372577D01*
X322388Y372609D01*
X322407Y372666D01*
X322439Y372736D01*
X322471Y372825D01*
X322521Y372926D01*
X322572Y373040D01*
X322636Y373161D01*
X322705Y373294D01*
X322782Y373421D01*
X322871Y373561D01*
X322966Y373694D01*
X323068Y373828D01*
X323175Y373955D01*
X323296Y374075D01*
X323423Y374190D01*
X323429Y374196D01*
X323455Y374215D01*
X323493Y374240D01*
X323550Y374279D01*
X323620Y374323D01*
X323703Y374374D01*
X323798Y374425D01*
X323912Y374476D01*
X324033Y374526D01*
X324166Y374583D01*
X324312Y374628D01*
X324471Y374672D01*
X324636Y374710D01*
X324814Y374736D01*
X324998Y374755D01*
X325195Y374761D01*
X325271Y374761D01*
X325328Y374755D01*
X325328Y374755D02*
G37*
G36*
X435982Y317443D02*
X431530Y317443D01*
X431524Y317443D01*
X431498Y317443D01*
X431460Y317443D01*
X431416Y317443D01*
X431352Y317437D01*
X431289Y317437D01*
X431213Y317430D01*
X431130Y317430D01*
X430965Y317411D01*
X430794Y317392D01*
X430629Y317360D01*
X430559Y317341D01*
X430495Y317322D01*
X430489Y317322D01*
X430482Y317316D01*
X430444Y317297D01*
X430387Y317271D01*
X430311Y317227D01*
X430229Y317170D01*
X430146Y317094D01*
X430063Y317005D01*
X429987Y316897D01*
X429987Y316891D01*
X429981Y316884D01*
X429968Y316865D01*
X429955Y316846D01*
X429924Y316776D01*
X429886Y316694D01*
X429854Y316586D01*
X429822Y316465D01*
X429797Y316332D01*
X429790Y316179D01*
X429790Y316110D01*
X429797Y316059D01*
X429803Y315995D01*
X429816Y315919D01*
X429835Y315836D01*
X429854Y315748D01*
X429879Y315652D01*
X429911Y315551D01*
X429949Y315449D01*
X430000Y315341D01*
X430057Y315240D01*
X430121Y315138D01*
X430197Y315036D01*
X430286Y314941D01*
X430292Y314935D01*
X430311Y314922D01*
X430336Y314897D01*
X430381Y314865D01*
X430432Y314827D01*
X430502Y314789D01*
X430578Y314744D01*
X430667Y314700D01*
X430775Y314649D01*
X430889Y314604D01*
X431022Y314566D01*
X431162Y314528D01*
X431321Y314497D01*
X431492Y314471D01*
X431676Y314459D01*
X431873Y314452D01*
X435982Y314452D01*
X435982Y313252D01*
X431390Y313252D01*
X431384Y313252D01*
X431352Y313252D01*
X431314Y313252D01*
X431257Y313246D01*
X431194Y313246D01*
X431118Y313239D01*
X431029Y313227D01*
X430940Y313214D01*
X430743Y313182D01*
X430546Y313131D01*
X430355Y313055D01*
X430267Y313011D01*
X430190Y312960D01*
X430184Y312953D01*
X430171Y312947D01*
X430152Y312928D01*
X430127Y312903D01*
X430095Y312871D01*
X430063Y312833D01*
X430025Y312788D01*
X429987Y312731D01*
X429955Y312668D01*
X429917Y312598D01*
X429886Y312522D01*
X429854Y312433D01*
X429828Y312338D01*
X429809Y312236D01*
X429797Y312122D01*
X429790Y312001D01*
X429790Y311950D01*
X429797Y311912D01*
X429797Y311868D01*
X429803Y311817D01*
X429809Y311760D01*
X429822Y311696D01*
X429854Y311550D01*
X429905Y311391D01*
X429968Y311226D01*
X430057Y311061D01*
X430057Y311055D01*
X430070Y311042D01*
X430082Y311023D01*
X430108Y310991D01*
X430171Y310915D01*
X430254Y310826D01*
X430362Y310725D01*
X430502Y310617D01*
X430654Y310522D01*
X430838Y310439D01*
X430844Y310439D01*
X430863Y310433D01*
X430889Y310420D01*
X430933Y310407D01*
X430984Y310394D01*
X431054Y310382D01*
X431130Y310363D01*
X431213Y310344D01*
X431314Y310325D01*
X431422Y310312D01*
X431549Y310293D01*
X431676Y310280D01*
X431822Y310268D01*
X431975Y310255D01*
X432140Y310248D01*
X432318Y310248D01*
X435982Y310248D01*
X435982Y309048D01*
X428914Y309048D01*
X428914Y310121D01*
X429905Y310121D01*
X429898Y310128D01*
X429879Y310134D01*
X429854Y310153D01*
X429816Y310185D01*
X429771Y310217D01*
X429720Y310255D01*
X429663Y310299D01*
X429606Y310356D01*
X429536Y310413D01*
X429473Y310483D01*
X429333Y310636D01*
X429193Y310807D01*
X429066Y311004D01*
X429060Y311010D01*
X429054Y311029D01*
X429035Y311061D01*
X429016Y311106D01*
X428990Y311157D01*
X428965Y311220D01*
X428939Y311290D01*
X428908Y311372D01*
X428876Y311461D01*
X428851Y311556D01*
X428825Y311665D01*
X428800Y311772D01*
X428762Y312014D01*
X428755Y312141D01*
X428749Y312268D01*
X428749Y312344D01*
X428755Y312395D01*
X428762Y312465D01*
X428768Y312541D01*
X428774Y312630D01*
X428787Y312719D01*
X428831Y312922D01*
X428889Y313138D01*
X428927Y313246D01*
X428971Y313354D01*
X429022Y313455D01*
X429079Y313550D01*
X429086Y313557D01*
X429092Y313576D01*
X429111Y313601D01*
X429136Y313633D01*
X429174Y313677D01*
X429212Y313722D01*
X429263Y313773D01*
X429314Y313830D01*
X429378Y313887D01*
X429447Y313951D01*
X429517Y314008D01*
X429600Y314065D01*
X429689Y314122D01*
X429784Y314173D01*
X429886Y314223D01*
X429994Y314262D01*
X429987Y314262D01*
X429981Y314274D01*
X429962Y314281D01*
X429943Y314300D01*
X429879Y314350D01*
X429797Y314414D01*
X429708Y314497D01*
X429600Y314598D01*
X429486Y314713D01*
X429371Y314852D01*
X429257Y314998D01*
X429143Y315163D01*
X429035Y315341D01*
X428946Y315538D01*
X428863Y315748D01*
X428800Y315963D01*
X428781Y316084D01*
X428762Y316198D01*
X428755Y316319D01*
X428749Y316446D01*
X428749Y316490D01*
X428755Y316548D01*
X428755Y316618D01*
X428768Y316706D01*
X428781Y316808D01*
X428800Y316922D01*
X428819Y317043D01*
X428851Y317170D01*
X428889Y317303D01*
X428939Y317437D01*
X428997Y317576D01*
X429060Y317703D01*
X429143Y317837D01*
X429231Y317957D01*
X429333Y318065D01*
X429339Y318072D01*
X429358Y318091D01*
X429397Y318116D01*
X429441Y318154D01*
X429505Y318199D01*
X429581Y318243D01*
X429670Y318294D01*
X429778Y318351D01*
X429898Y318402D01*
X430025Y318453D01*
X430178Y318497D01*
X430336Y318542D01*
X430514Y318580D01*
X430705Y318605D01*
X430908Y318624D01*
X431130Y318630D01*
X435982Y318630D01*
X435982Y317443D01*
X435982Y317443D02*
G37*
G36*
X435982Y306083D02*
X431530Y306083D01*
X431524Y306083D01*
X431498Y306083D01*
X431460Y306083D01*
X431416Y306083D01*
X431352Y306077D01*
X431289Y306077D01*
X431213Y306070D01*
X431130Y306070D01*
X430965Y306051D01*
X430794Y306032D01*
X430629Y306000D01*
X430559Y305981D01*
X430495Y305962D01*
X430489Y305962D01*
X430482Y305956D01*
X430444Y305937D01*
X430387Y305911D01*
X430311Y305867D01*
X430229Y305810D01*
X430146Y305734D01*
X430063Y305645D01*
X429987Y305537D01*
X429987Y305530D01*
X429981Y305524D01*
X429968Y305505D01*
X429955Y305486D01*
X429924Y305416D01*
X429886Y305333D01*
X429854Y305226D01*
X429822Y305105D01*
X429797Y304972D01*
X429790Y304819D01*
X429790Y304749D01*
X429797Y304699D01*
X429803Y304635D01*
X429816Y304559D01*
X429835Y304476D01*
X429854Y304387D01*
X429879Y304292D01*
X429911Y304191D01*
X429949Y304089D01*
X430000Y303981D01*
X430057Y303879D01*
X430121Y303778D01*
X430197Y303676D01*
X430286Y303581D01*
X430292Y303575D01*
X430311Y303562D01*
X430336Y303536D01*
X430381Y303505D01*
X430432Y303467D01*
X430502Y303428D01*
X430578Y303384D01*
X430667Y303340D01*
X430775Y303289D01*
X430889Y303244D01*
X431022Y303206D01*
X431162Y303168D01*
X431321Y303136D01*
X431492Y303111D01*
X431676Y303098D01*
X431873Y303092D01*
X435982Y303092D01*
X435982Y301892D01*
X431390Y301892D01*
X431384Y301892D01*
X431352Y301892D01*
X431314Y301892D01*
X431257Y301886D01*
X431194Y301886D01*
X431118Y301879D01*
X431029Y301866D01*
X430940Y301854D01*
X430743Y301822D01*
X430546Y301771D01*
X430355Y301695D01*
X430267Y301651D01*
X430190Y301600D01*
X430184Y301593D01*
X430171Y301587D01*
X430152Y301568D01*
X430127Y301543D01*
X430095Y301511D01*
X430063Y301473D01*
X430025Y301428D01*
X429987Y301371D01*
X429955Y301308D01*
X429917Y301238D01*
X429886Y301162D01*
X429854Y301073D01*
X429828Y300977D01*
X429809Y300876D01*
X429797Y300762D01*
X429790Y300641D01*
X429790Y300590D01*
X429797Y300552D01*
X429797Y300508D01*
X429803Y300457D01*
X429809Y300400D01*
X429822Y300336D01*
X429854Y300190D01*
X429905Y300031D01*
X429968Y299866D01*
X430057Y299701D01*
X430057Y299695D01*
X430070Y299682D01*
X430082Y299663D01*
X430108Y299631D01*
X430171Y299555D01*
X430254Y299466D01*
X430362Y299364D01*
X430502Y299257D01*
X430654Y299161D01*
X430838Y299079D01*
X430844Y299079D01*
X430863Y299072D01*
X430889Y299060D01*
X430933Y299047D01*
X430984Y299034D01*
X431054Y299022D01*
X431130Y299003D01*
X431213Y298983D01*
X431314Y298965D01*
X431422Y298952D01*
X431549Y298933D01*
X431676Y298920D01*
X431822Y298907D01*
X431975Y298895D01*
X432140Y298888D01*
X432318Y298888D01*
X435982Y298888D01*
X435982Y297688D01*
X428914Y297688D01*
X428914Y298761D01*
X429905Y298761D01*
X429898Y298768D01*
X429879Y298774D01*
X429854Y298793D01*
X429816Y298825D01*
X429771Y298857D01*
X429720Y298895D01*
X429663Y298939D01*
X429606Y298996D01*
X429536Y299053D01*
X429473Y299123D01*
X429333Y299276D01*
X429193Y299447D01*
X429066Y299644D01*
X429060Y299650D01*
X429054Y299669D01*
X429035Y299701D01*
X429016Y299746D01*
X428990Y299796D01*
X428965Y299860D01*
X428939Y299930D01*
X428908Y300012D01*
X428876Y300101D01*
X428851Y300196D01*
X428825Y300304D01*
X428800Y300412D01*
X428762Y300654D01*
X428755Y300781D01*
X428749Y300908D01*
X428749Y300984D01*
X428755Y301035D01*
X428762Y301104D01*
X428768Y301181D01*
X428774Y301269D01*
X428787Y301358D01*
X428831Y301562D01*
X428889Y301777D01*
X428927Y301886D01*
X428971Y301993D01*
X429022Y302095D01*
X429079Y302190D01*
X429086Y302197D01*
X429092Y302216D01*
X429111Y302241D01*
X429136Y302273D01*
X429174Y302317D01*
X429212Y302362D01*
X429263Y302412D01*
X429314Y302470D01*
X429378Y302527D01*
X429447Y302590D01*
X429517Y302647D01*
X429600Y302705D01*
X429689Y302762D01*
X429784Y302813D01*
X429886Y302863D01*
X429994Y302901D01*
X429987Y302901D01*
X429981Y302914D01*
X429962Y302920D01*
X429943Y302940D01*
X429879Y302990D01*
X429797Y303054D01*
X429708Y303136D01*
X429600Y303238D01*
X429486Y303352D01*
X429371Y303492D01*
X429257Y303638D01*
X429143Y303803D01*
X429035Y303981D01*
X428946Y304178D01*
X428863Y304387D01*
X428800Y304603D01*
X428781Y304724D01*
X428762Y304838D01*
X428755Y304959D01*
X428749Y305086D01*
X428749Y305130D01*
X428755Y305187D01*
X428755Y305257D01*
X428768Y305346D01*
X428781Y305448D01*
X428800Y305562D01*
X428819Y305683D01*
X428851Y305810D01*
X428889Y305943D01*
X428939Y306077D01*
X428997Y306216D01*
X429060Y306343D01*
X429143Y306476D01*
X429231Y306597D01*
X429333Y306705D01*
X429339Y306712D01*
X429358Y306730D01*
X429397Y306756D01*
X429441Y306794D01*
X429505Y306838D01*
X429581Y306883D01*
X429670Y306934D01*
X429778Y306991D01*
X429898Y307042D01*
X430025Y307092D01*
X430178Y307137D01*
X430336Y307181D01*
X430514Y307220D01*
X430705Y307245D01*
X430908Y307264D01*
X431130Y307270D01*
X435982Y307270D01*
X435982Y306083D01*
X435982Y306083D02*
G37*
G36*
X431390Y296126D02*
X431454Y296126D01*
X431524Y296126D01*
X431600Y296120D01*
X431765Y296113D01*
X431956Y296101D01*
X432159Y296088D01*
X432375Y296069D01*
X432603Y296043D01*
X433067Y295980D01*
X433296Y295942D01*
X433524Y295897D01*
X433740Y295840D01*
X433943Y295777D01*
X433956Y295770D01*
X433988Y295758D01*
X434045Y295739D01*
X434115Y295713D01*
X434204Y295675D01*
X434305Y295631D01*
X434420Y295574D01*
X434540Y295516D01*
X434674Y295447D01*
X434807Y295364D01*
X434940Y295282D01*
X435074Y295186D01*
X435207Y295085D01*
X435340Y294970D01*
X435461Y294850D01*
X435575Y294723D01*
X435582Y294716D01*
X435601Y294691D01*
X435626Y294653D01*
X435664Y294596D01*
X435709Y294526D01*
X435753Y294443D01*
X435810Y294348D01*
X435861Y294240D01*
X435912Y294119D01*
X435962Y293986D01*
X436013Y293840D01*
X436058Y293681D01*
X436096Y293516D01*
X436121Y293338D01*
X436140Y293148D01*
X436147Y292951D01*
X436147Y292887D01*
X436140Y292856D01*
X436140Y292818D01*
X436128Y292716D01*
X436115Y292602D01*
X436096Y292462D01*
X436064Y292310D01*
X436020Y292145D01*
X435969Y291973D01*
X435899Y291789D01*
X435816Y291605D01*
X435721Y291421D01*
X435607Y291236D01*
X435467Y291059D01*
X435315Y290894D01*
X435137Y290735D01*
X435131Y290735D01*
X435124Y290722D01*
X435105Y290709D01*
X435080Y290697D01*
X435048Y290671D01*
X435004Y290646D01*
X434959Y290614D01*
X434902Y290583D01*
X434839Y290551D01*
X434769Y290513D01*
X434692Y290468D01*
X434604Y290430D01*
X434515Y290386D01*
X434413Y290341D01*
X434299Y290297D01*
X434184Y290252D01*
X434058Y290208D01*
X433924Y290163D01*
X433784Y290119D01*
X433632Y290075D01*
X433473Y290036D01*
X433308Y289992D01*
X433130Y289954D01*
X432946Y289922D01*
X432756Y289890D01*
X432553Y289859D01*
X432343Y289833D01*
X432127Y289814D01*
X431898Y289795D01*
X431664Y289782D01*
X431422Y289770D01*
X431168Y289770D01*
X431162Y289770D01*
X431149Y289770D01*
X431124Y289770D01*
X431092Y289770D01*
X431048Y289770D01*
X431003Y289770D01*
X430946Y289776D01*
X430882Y289776D01*
X430813Y289776D01*
X430737Y289782D01*
X430565Y289789D01*
X430374Y289801D01*
X430171Y289814D01*
X429949Y289833D01*
X429727Y289859D01*
X429263Y289922D01*
X429028Y289960D01*
X428800Y290011D01*
X428584Y290062D01*
X428381Y290125D01*
X428368Y290132D01*
X428336Y290144D01*
X428279Y290163D01*
X428209Y290195D01*
X428120Y290227D01*
X428019Y290278D01*
X427904Y290329D01*
X427784Y290392D01*
X427650Y290462D01*
X427523Y290538D01*
X427384Y290627D01*
X427250Y290722D01*
X427117Y290824D01*
X426990Y290932D01*
X426869Y291052D01*
X426755Y291179D01*
X426749Y291186D01*
X426730Y291211D01*
X426704Y291249D01*
X426666Y291306D01*
X426622Y291376D01*
X426571Y291459D01*
X426520Y291554D01*
X426469Y291668D01*
X426418Y291789D01*
X426361Y291922D01*
X426317Y292068D01*
X426272Y292227D01*
X426234Y292392D01*
X426209Y292570D01*
X426190Y292754D01*
X426184Y292951D01*
X426184Y293027D01*
X426190Y293084D01*
X426190Y293154D01*
X426203Y293230D01*
X426209Y293319D01*
X426222Y293421D01*
X426241Y293522D01*
X426260Y293637D01*
X426317Y293865D01*
X426355Y293980D01*
X426393Y294100D01*
X426444Y294215D01*
X426501Y294329D01*
X426507Y294335D01*
X426514Y294354D01*
X426533Y294386D01*
X426558Y294431D01*
X426590Y294475D01*
X426628Y294538D01*
X426679Y294602D01*
X426730Y294672D01*
X426793Y294748D01*
X426857Y294824D01*
X426933Y294907D01*
X427015Y294989D01*
X427104Y295072D01*
X427200Y295154D01*
X427301Y295231D01*
X427409Y295307D01*
X427415Y295313D01*
X427435Y295326D01*
X427473Y295345D01*
X427517Y295370D01*
X427574Y295402D01*
X427644Y295440D01*
X427727Y295485D01*
X427816Y295529D01*
X427917Y295574D01*
X428025Y295624D01*
X428146Y295675D01*
X428273Y295726D01*
X428412Y295777D01*
X428552Y295821D01*
X428704Y295866D01*
X428863Y295910D01*
X428876Y295910D01*
X428901Y295923D01*
X428952Y295929D01*
X429022Y295948D01*
X429104Y295961D01*
X429212Y295980D01*
X429333Y295999D01*
X429473Y296024D01*
X429632Y296043D01*
X429803Y296063D01*
X429994Y296082D01*
X430197Y296101D01*
X430419Y296113D01*
X430654Y296126D01*
X430902Y296132D01*
X431168Y296132D01*
X431175Y296132D01*
X431187Y296132D01*
X431213Y296132D01*
X431245Y296132D01*
X431283Y296132D01*
X431333Y296132D01*
X431390Y296126D01*
X431390Y296126D02*
G37*
G36*
X432800Y288646D02*
X432896Y288639D01*
X433010Y288627D01*
X433143Y288614D01*
X433296Y288589D01*
X433454Y288557D01*
X433632Y288512D01*
X433816Y288462D01*
X434007Y288398D01*
X434197Y288328D01*
X434394Y288239D01*
X434591Y288131D01*
X434781Y288017D01*
X434966Y287877D01*
X434972Y287877D01*
X434978Y287865D01*
X435016Y287833D01*
X435074Y287782D01*
X435150Y287706D01*
X435239Y287611D01*
X435340Y287496D01*
X435448Y287363D01*
X435556Y287211D01*
X435664Y287033D01*
X435772Y286842D01*
X435874Y286633D01*
X435962Y286404D01*
X436039Y286157D01*
X436096Y285896D01*
X436134Y285617D01*
X436140Y285471D01*
X436147Y285318D01*
X436147Y285229D01*
X436140Y285191D01*
X436134Y285096D01*
X436121Y284982D01*
X436109Y284855D01*
X436083Y284702D01*
X436051Y284544D01*
X436013Y284379D01*
X435962Y284201D01*
X435905Y284023D01*
X435835Y283839D01*
X435747Y283655D01*
X435651Y283477D01*
X435537Y283305D01*
X435404Y283140D01*
X435397Y283134D01*
X435372Y283102D01*
X435327Y283064D01*
X435270Y283007D01*
X435194Y282943D01*
X435105Y282867D01*
X434997Y282791D01*
X434877Y282708D01*
X434743Y282620D01*
X434597Y282537D01*
X434432Y282454D01*
X434254Y282385D01*
X434070Y282315D01*
X433867Y282258D01*
X433651Y282213D01*
X433429Y282181D01*
X433321Y283439D01*
X433334Y283439D01*
X433359Y283445D01*
X433410Y283458D01*
X433473Y283470D01*
X433549Y283489D01*
X433638Y283509D01*
X433734Y283540D01*
X433842Y283572D01*
X433950Y283610D01*
X434064Y283661D01*
X434178Y283712D01*
X434292Y283769D01*
X434407Y283839D01*
X434515Y283915D01*
X434610Y283997D01*
X434705Y284086D01*
X434712Y284093D01*
X434724Y284112D01*
X434750Y284137D01*
X434775Y284175D01*
X434813Y284226D01*
X434851Y284283D01*
X434889Y284353D01*
X434934Y284429D01*
X434978Y284518D01*
X435016Y284613D01*
X435055Y284715D01*
X435093Y284823D01*
X435118Y284937D01*
X435143Y285058D01*
X435156Y285185D01*
X435162Y285318D01*
X435162Y285356D01*
X435156Y285401D01*
X435150Y285464D01*
X435143Y285534D01*
X435131Y285623D01*
X435105Y285718D01*
X435080Y285826D01*
X435048Y285934D01*
X435004Y286055D01*
X434953Y286176D01*
X434889Y286296D01*
X434813Y286423D01*
X434731Y286544D01*
X434629Y286665D01*
X434515Y286779D01*
X434508Y286785D01*
X434483Y286804D01*
X434445Y286836D01*
X434394Y286874D01*
X434331Y286919D01*
X434248Y286969D01*
X434159Y287027D01*
X434051Y287084D01*
X433937Y287134D01*
X433803Y287192D01*
X433664Y287242D01*
X433505Y287287D01*
X433340Y287325D01*
X433168Y287357D01*
X432978Y287376D01*
X432781Y287382D01*
X432769Y287382D01*
X432737Y287382D01*
X432680Y287376D01*
X432610Y287376D01*
X432527Y287363D01*
X432426Y287350D01*
X432311Y287331D01*
X432191Y287312D01*
X432064Y287281D01*
X431937Y287242D01*
X431797Y287192D01*
X431664Y287141D01*
X431530Y287071D01*
X431403Y286995D01*
X431276Y286906D01*
X431162Y286804D01*
X431156Y286798D01*
X431137Y286779D01*
X431105Y286747D01*
X431067Y286703D01*
X431022Y286639D01*
X430978Y286576D01*
X430921Y286493D01*
X430863Y286398D01*
X430813Y286296D01*
X430756Y286182D01*
X430711Y286061D01*
X430660Y285928D01*
X430629Y285782D01*
X430597Y285630D01*
X430578Y285471D01*
X430571Y285299D01*
X430571Y285242D01*
X430578Y285204D01*
X430578Y285147D01*
X430584Y285090D01*
X430590Y285020D01*
X430603Y284950D01*
X430635Y284785D01*
X430686Y284607D01*
X430749Y284423D01*
X430838Y284245D01*
X430838Y284239D01*
X430851Y284226D01*
X430863Y284201D01*
X430882Y284169D01*
X430908Y284131D01*
X430940Y284086D01*
X431022Y283979D01*
X431118Y283864D01*
X431232Y283743D01*
X431365Y283623D01*
X431517Y283515D01*
X431371Y282391D01*
X426355Y283337D01*
X426355Y288195D01*
X427498Y288195D01*
X427498Y284296D01*
X430127Y283769D01*
X430121Y283782D01*
X430102Y283807D01*
X430070Y283858D01*
X430032Y283921D01*
X429981Y284004D01*
X429930Y284099D01*
X429879Y284207D01*
X429816Y284334D01*
X429759Y284467D01*
X429708Y284607D01*
X429651Y284760D01*
X429606Y284918D01*
X429568Y285090D01*
X429536Y285261D01*
X429517Y285439D01*
X429511Y285617D01*
X429511Y285674D01*
X429517Y285737D01*
X429524Y285833D01*
X429536Y285941D01*
X429555Y286068D01*
X429587Y286207D01*
X429619Y286366D01*
X429670Y286531D01*
X429727Y286703D01*
X429797Y286880D01*
X429886Y287065D01*
X429987Y287249D01*
X430108Y287426D01*
X430241Y287598D01*
X430400Y287769D01*
X430413Y287782D01*
X430438Y287808D01*
X430489Y287852D01*
X430559Y287909D01*
X430648Y287973D01*
X430749Y288049D01*
X430876Y288131D01*
X431016Y288214D01*
X431168Y288290D01*
X431340Y288373D01*
X431530Y288449D01*
X431733Y288512D01*
X431949Y288570D01*
X432178Y288614D01*
X432419Y288639D01*
X432673Y288652D01*
X432680Y288652D01*
X432686Y288652D01*
X432705Y288652D01*
X432730Y288652D01*
X432762Y288652D01*
X432800Y288646D01*
X432800Y288646D02*
G37*
G36*
X435982Y279064D02*
X434616Y279064D01*
X434616Y280429D01*
X435982Y280429D01*
X435982Y279064D01*
X435982Y279064D02*
G37*
G36*
X433315Y277216D02*
X433404Y277209D01*
X433511Y277197D01*
X433632Y277178D01*
X433772Y277146D01*
X433924Y277114D01*
X434089Y277063D01*
X434254Y277006D01*
X434432Y276936D01*
X434610Y276847D01*
X434788Y276746D01*
X434959Y276625D01*
X435131Y276492D01*
X435296Y276333D01*
X435302Y276320D01*
X435334Y276295D01*
X435372Y276244D01*
X435429Y276174D01*
X435493Y276085D01*
X435563Y275977D01*
X435639Y275851D01*
X435721Y275711D01*
X435797Y275552D01*
X435880Y275374D01*
X435950Y275184D01*
X436013Y274981D01*
X436071Y274758D01*
X436109Y274517D01*
X436134Y274269D01*
X436147Y274003D01*
X436147Y273939D01*
X436140Y273907D01*
X436140Y273863D01*
X436134Y273761D01*
X436121Y273641D01*
X436102Y273501D01*
X436077Y273342D01*
X436039Y273171D01*
X435994Y272987D01*
X435937Y272803D01*
X435867Y272606D01*
X435785Y272409D01*
X435690Y272218D01*
X435575Y272028D01*
X435448Y271844D01*
X435296Y271672D01*
X435283Y271660D01*
X435258Y271634D01*
X435207Y271590D01*
X435143Y271532D01*
X435061Y271469D01*
X434959Y271393D01*
X434839Y271310D01*
X434705Y271234D01*
X434559Y271152D01*
X434400Y271069D01*
X434223Y270993D01*
X434032Y270929D01*
X433835Y270872D01*
X433619Y270828D01*
X433397Y270802D01*
X433162Y270790D01*
X433149Y270790D01*
X433118Y270790D01*
X433067Y270796D01*
X433003Y270796D01*
X432921Y270802D01*
X432826Y270815D01*
X432724Y270828D01*
X432603Y270853D01*
X432483Y270878D01*
X432356Y270910D01*
X432222Y270948D01*
X432089Y270993D01*
X431956Y271050D01*
X431822Y271113D01*
X431689Y271190D01*
X431568Y271272D01*
X431562Y271278D01*
X431543Y271297D01*
X431505Y271323D01*
X431460Y271361D01*
X431410Y271412D01*
X431352Y271469D01*
X431283Y271545D01*
X431213Y271628D01*
X431143Y271717D01*
X431067Y271818D01*
X430997Y271933D01*
X430927Y272053D01*
X430857Y272187D01*
X430794Y272333D01*
X430737Y272485D01*
X430692Y272644D01*
X430686Y272637D01*
X430679Y272612D01*
X430660Y272574D01*
X430641Y272523D01*
X430616Y272460D01*
X430578Y272390D01*
X430540Y272313D01*
X430489Y272225D01*
X430381Y272047D01*
X430247Y271863D01*
X430089Y271691D01*
X430006Y271609D01*
X429911Y271539D01*
X429905Y271532D01*
X429886Y271526D01*
X429860Y271507D01*
X429822Y271482D01*
X429771Y271456D01*
X429714Y271425D01*
X429644Y271393D01*
X429568Y271361D01*
X429486Y271323D01*
X429390Y271291D01*
X429289Y271259D01*
X429187Y271234D01*
X429073Y271209D01*
X428952Y271190D01*
X428825Y271183D01*
X428698Y271177D01*
X428685Y271177D01*
X428654Y271177D01*
X428596Y271183D01*
X428520Y271190D01*
X428431Y271202D01*
X428324Y271215D01*
X428203Y271240D01*
X428076Y271272D01*
X427936Y271317D01*
X427790Y271367D01*
X427644Y271425D01*
X427492Y271501D01*
X427339Y271590D01*
X427193Y271691D01*
X427047Y271812D01*
X426907Y271945D01*
X426901Y271952D01*
X426876Y271983D01*
X426838Y272028D01*
X426793Y272085D01*
X426742Y272161D01*
X426679Y272256D01*
X426615Y272364D01*
X426545Y272491D01*
X426476Y272625D01*
X426412Y272783D01*
X426349Y272948D01*
X426298Y273133D01*
X426247Y273323D01*
X426215Y273533D01*
X426190Y273749D01*
X426184Y273984D01*
X426184Y274041D01*
X426190Y274104D01*
X426196Y274193D01*
X426209Y274301D01*
X426222Y274428D01*
X426247Y274568D01*
X426279Y274720D01*
X426317Y274879D01*
X426368Y275044D01*
X426425Y275215D01*
X426495Y275393D01*
X426584Y275558D01*
X426679Y275730D01*
X426793Y275889D01*
X426926Y276041D01*
X426933Y276047D01*
X426958Y276073D01*
X427003Y276111D01*
X427060Y276162D01*
X427130Y276225D01*
X427219Y276289D01*
X427320Y276359D01*
X427428Y276435D01*
X427555Y276504D01*
X427695Y276574D01*
X427841Y276644D01*
X428000Y276701D01*
X428171Y276752D01*
X428349Y276790D01*
X428533Y276816D01*
X428730Y276822D01*
X428736Y276822D01*
X428762Y276822D01*
X428793Y276822D01*
X428844Y276816D01*
X428901Y276809D01*
X428971Y276803D01*
X429047Y276790D01*
X429130Y276778D01*
X429320Y276733D01*
X429517Y276670D01*
X429619Y276632D01*
X429720Y276587D01*
X429822Y276530D01*
X429917Y276466D01*
X429924Y276460D01*
X429936Y276447D01*
X429968Y276428D01*
X430000Y276397D01*
X430044Y276365D01*
X430089Y276314D01*
X430146Y276263D01*
X430203Y276200D01*
X430260Y276124D01*
X430324Y276047D01*
X430394Y275958D01*
X430457Y275857D01*
X430521Y275755D01*
X430578Y275635D01*
X430641Y275514D01*
X430692Y275381D01*
X430698Y275393D01*
X430705Y275419D01*
X430724Y275469D01*
X430749Y275527D01*
X430781Y275603D01*
X430819Y275692D01*
X430863Y275787D01*
X430921Y275889D01*
X430984Y275996D01*
X431054Y276111D01*
X431130Y276225D01*
X431213Y276339D01*
X431308Y276454D01*
X431410Y276562D01*
X431517Y276657D01*
X431638Y276752D01*
X431645Y276758D01*
X431670Y276771D01*
X431702Y276797D01*
X431753Y276828D01*
X431816Y276860D01*
X431892Y276898D01*
X431975Y276943D01*
X432076Y276987D01*
X432184Y277032D01*
X432305Y277076D01*
X432432Y277114D01*
X432565Y277146D01*
X432711Y277178D01*
X432864Y277203D01*
X433029Y277216D01*
X433194Y277222D01*
X433200Y277222D01*
X433207Y277222D01*
X433226Y277222D01*
X433251Y277222D01*
X433315Y277216D01*
X433315Y277216D02*
G37*
%LPC*%
G36*
X328526Y396289D02*
X328488Y396289D01*
X328450Y396283D01*
X328393Y396283D01*
X328323Y396270D01*
X328240Y396257D01*
X328145Y396238D01*
X328050Y396219D01*
X327942Y396187D01*
X327834Y396149D01*
X327713Y396098D01*
X327599Y396041D01*
X327485Y395978D01*
X327364Y395895D01*
X327250Y395806D01*
X327142Y395705D01*
X327135Y395698D01*
X327116Y395679D01*
X327091Y395648D01*
X327053Y395597D01*
X327008Y395540D01*
X326964Y395470D01*
X326913Y395394D01*
X326862Y395298D01*
X326805Y395197D01*
X326754Y395076D01*
X326710Y394955D01*
X326665Y394816D01*
X326627Y394676D01*
X326602Y394517D01*
X326583Y394352D01*
X326576Y394181D01*
X326576Y394174D01*
X326576Y394155D01*
X326576Y394117D01*
X326583Y394073D01*
X326583Y394022D01*
X326589Y393952D01*
X326595Y393882D01*
X326608Y393800D01*
X326621Y393711D01*
X326640Y393616D01*
X326684Y393419D01*
X326748Y393209D01*
X326837Y392993D01*
X326843Y392987D01*
X326850Y392968D01*
X326862Y392943D01*
X326888Y392898D01*
X326913Y392854D01*
X326945Y392796D01*
X327027Y392676D01*
X327135Y392536D01*
X327262Y392390D01*
X327408Y392250D01*
X327573Y392130D01*
X327580Y392130D01*
X327593Y392117D01*
X327618Y392104D01*
X327656Y392085D01*
X327700Y392060D01*
X327751Y392034D01*
X327808Y392009D01*
X327878Y391984D01*
X328024Y391933D01*
X328196Y391882D01*
X328380Y391850D01*
X328475Y391844D01*
X328570Y391838D01*
X328602Y391838D01*
X328647Y391844D01*
X328697Y391850D01*
X328761Y391857D01*
X328843Y391869D01*
X328926Y391888D01*
X329021Y391914D01*
X329123Y391945D01*
X329224Y391984D01*
X329332Y392034D01*
X329447Y392098D01*
X329555Y392168D01*
X329663Y392244D01*
X329777Y392339D01*
X329879Y392447D01*
X329885Y392453D01*
X329904Y392473D01*
X329929Y392511D01*
X329961Y392561D01*
X330005Y392619D01*
X330050Y392695D01*
X330101Y392784D01*
X330151Y392885D01*
X330202Y393000D01*
X330253Y393120D01*
X330298Y393260D01*
X330342Y393406D01*
X330374Y393565D01*
X330399Y393736D01*
X330418Y393920D01*
X330425Y394111D01*
X330425Y394124D01*
X330425Y394155D01*
X330418Y394206D01*
X330418Y394276D01*
X330406Y394365D01*
X330399Y394460D01*
X330380Y394574D01*
X330355Y394689D01*
X330329Y394816D01*
X330291Y394949D01*
X330247Y395076D01*
X330196Y395209D01*
X330132Y395343D01*
X330063Y395470D01*
X329980Y395590D01*
X329885Y395705D01*
X329879Y395711D01*
X329859Y395730D01*
X329828Y395762D01*
X329790Y395794D01*
X329732Y395838D01*
X329669Y395889D01*
X329599Y395940D01*
X329510Y395997D01*
X329421Y396054D01*
X329313Y396105D01*
X329205Y396156D01*
X329085Y396200D01*
X328958Y396238D01*
X328818Y396264D01*
X328678Y396283D01*
X328526Y396289D01*
X328526Y396289D02*
G37*
G36*
X317147Y396289D02*
X317109Y396289D01*
X317071Y396283D01*
X317013Y396283D01*
X316943Y396270D01*
X316861Y396257D01*
X316766Y396238D01*
X316670Y396219D01*
X316562Y396187D01*
X316455Y396149D01*
X316334Y396098D01*
X316220Y396041D01*
X316105Y395978D01*
X315985Y395895D01*
X315870Y395806D01*
X315762Y395705D01*
X315756Y395698D01*
X315737Y395679D01*
X315712Y395648D01*
X315674Y395597D01*
X315629Y395540D01*
X315585Y395470D01*
X315534Y395394D01*
X315483Y395298D01*
X315426Y395197D01*
X315375Y395076D01*
X315331Y394955D01*
X315286Y394816D01*
X315248Y394676D01*
X315223Y394517D01*
X315204Y394352D01*
X315197Y394181D01*
X315197Y394174D01*
X315197Y394155D01*
X315197Y394117D01*
X315204Y394073D01*
X315204Y394022D01*
X315210Y393952D01*
X315216Y393882D01*
X315229Y393800D01*
X315242Y393711D01*
X315261Y393616D01*
X315305Y393419D01*
X315369Y393209D01*
X315458Y392993D01*
X315464Y392987D01*
X315470Y392968D01*
X315483Y392943D01*
X315508Y392898D01*
X315534Y392854D01*
X315566Y392796D01*
X315648Y392676D01*
X315756Y392536D01*
X315883Y392390D01*
X316029Y392250D01*
X316194Y392130D01*
X316201Y392130D01*
X316213Y392117D01*
X316239Y392104D01*
X316277Y392085D01*
X316321Y392060D01*
X316372Y392034D01*
X316429Y392009D01*
X316499Y391984D01*
X316645Y391933D01*
X316817Y391882D01*
X317001Y391850D01*
X317096Y391844D01*
X317191Y391838D01*
X317223Y391838D01*
X317267Y391844D01*
X317318Y391850D01*
X317382Y391857D01*
X317464Y391869D01*
X317547Y391888D01*
X317642Y391914D01*
X317744Y391945D01*
X317845Y391984D01*
X317953Y392034D01*
X318067Y392098D01*
X318175Y392168D01*
X318283Y392244D01*
X318398Y392339D01*
X318499Y392447D01*
X318506Y392453D01*
X318525Y392473D01*
X318550Y392511D01*
X318582Y392561D01*
X318626Y392619D01*
X318671Y392695D01*
X318722Y392784D01*
X318772Y392885D01*
X318823Y393000D01*
X318874Y393120D01*
X318918Y393260D01*
X318963Y393406D01*
X318995Y393565D01*
X319020Y393736D01*
X319039Y393920D01*
X319045Y394111D01*
X319045Y394124D01*
X319045Y394155D01*
X319039Y394206D01*
X319039Y394276D01*
X319026Y394365D01*
X319020Y394460D01*
X319001Y394574D01*
X318976Y394689D01*
X318950Y394816D01*
X318912Y394949D01*
X318868Y395076D01*
X318817Y395209D01*
X318753Y395343D01*
X318683Y395470D01*
X318601Y395590D01*
X318506Y395705D01*
X318499Y395711D01*
X318480Y395730D01*
X318449Y395762D01*
X318410Y395794D01*
X318353Y395838D01*
X318290Y395889D01*
X318220Y395940D01*
X318131Y395997D01*
X318042Y396054D01*
X317934Y396105D01*
X317826Y396156D01*
X317705Y396200D01*
X317579Y396238D01*
X317439Y396264D01*
X317299Y396283D01*
X317147Y396289D01*
X317147Y396289D02*
G37*
G36*
X336013Y399826D02*
X335975Y399826D01*
X335936Y399819D01*
X335879Y399813D01*
X335803Y399807D01*
X335727Y399788D01*
X335638Y399769D01*
X335536Y399737D01*
X335435Y399699D01*
X335327Y399654D01*
X335219Y399597D01*
X335104Y399534D01*
X334997Y399451D01*
X334889Y399356D01*
X334787Y399248D01*
X334692Y399127D01*
X334685Y399115D01*
X334666Y399083D01*
X334635Y399032D01*
X334596Y398950D01*
X334571Y398899D01*
X334552Y398848D01*
X334527Y398784D01*
X334495Y398715D01*
X334469Y398645D01*
X334444Y398562D01*
X334412Y398473D01*
X334387Y398378D01*
X334355Y398276D01*
X334324Y398168D01*
X334298Y398054D01*
X334273Y397927D01*
X334247Y397800D01*
X334222Y397660D01*
X334197Y397514D01*
X334171Y397362D01*
X334152Y397197D01*
X334133Y397025D01*
X334114Y396848D01*
X334101Y396664D01*
X334089Y396467D01*
X334082Y396264D01*
X334076Y396054D01*
X334076Y395832D01*
X334076Y395825D01*
X334076Y395806D01*
X334076Y395775D01*
X334076Y395730D01*
X334076Y395673D01*
X334082Y395603D01*
X334082Y395527D01*
X334082Y395444D01*
X334089Y395349D01*
X334095Y395247D01*
X334101Y395140D01*
X334108Y395032D01*
X334120Y394784D01*
X334146Y394530D01*
X334177Y394263D01*
X334216Y393990D01*
X334260Y393723D01*
X334311Y393470D01*
X334374Y393222D01*
X334412Y393108D01*
X334450Y393000D01*
X334495Y392892D01*
X334539Y392796D01*
X334584Y392707D01*
X334635Y392631D01*
X334641Y392625D01*
X334660Y392600D01*
X334692Y392555D01*
X334736Y392511D01*
X334793Y392447D01*
X334857Y392377D01*
X334933Y392308D01*
X335022Y392238D01*
X335117Y392161D01*
X335225Y392092D01*
X335340Y392022D01*
X335460Y391965D01*
X335593Y391914D01*
X335727Y391869D01*
X335873Y391844D01*
X336025Y391838D01*
X336063Y391838D01*
X336108Y391844D01*
X336165Y391850D01*
X336235Y391863D01*
X336317Y391882D01*
X336406Y391901D01*
X336508Y391939D01*
X336616Y391977D01*
X336724Y392034D01*
X336838Y392098D01*
X336959Y392174D01*
X337073Y392263D01*
X337187Y392371D01*
X337302Y392492D01*
X337410Y392631D01*
X337416Y392644D01*
X337435Y392669D01*
X337460Y392720D01*
X337499Y392796D01*
X337543Y392892D01*
X337562Y392949D01*
X337587Y393012D01*
X337613Y393082D01*
X337638Y393158D01*
X337664Y393241D01*
X337695Y393330D01*
X337721Y393431D01*
X337746Y393533D01*
X337771Y393647D01*
X337797Y393762D01*
X337822Y393889D01*
X337841Y394028D01*
X337867Y394168D01*
X337886Y394320D01*
X337905Y394479D01*
X337924Y394644D01*
X337937Y394822D01*
X337949Y395006D01*
X337962Y395197D01*
X337968Y395400D01*
X337975Y395610D01*
X337975Y395832D01*
X337975Y395838D01*
X337975Y395857D01*
X337975Y395895D01*
X337975Y395940D01*
X337975Y395990D01*
X337968Y396060D01*
X337968Y396137D01*
X337968Y396219D01*
X337962Y396314D01*
X337956Y396416D01*
X337949Y396524D01*
X337943Y396638D01*
X337930Y396880D01*
X337905Y397133D01*
X337873Y397400D01*
X337835Y397673D01*
X337791Y397940D01*
X337733Y398200D01*
X337670Y398442D01*
X337638Y398556D01*
X337594Y398664D01*
X337556Y398772D01*
X337511Y398867D01*
X337460Y398956D01*
X337410Y399032D01*
X337403Y399039D01*
X337384Y399064D01*
X337352Y399108D01*
X337308Y399159D01*
X337257Y399216D01*
X337187Y399286D01*
X337111Y399356D01*
X337029Y399432D01*
X336927Y399502D01*
X336825Y399572D01*
X336711Y399642D01*
X336584Y399705D01*
X336451Y399750D01*
X336311Y399794D01*
X336165Y399819D01*
X336013Y399826D01*
X336013Y399826D02*
G37*
G36*
X255585Y215910D02*
X252524Y211509D01*
X255585Y211509D01*
X255585Y215910D01*
X255585Y215910D02*
G37*
G36*
X273879Y216881D02*
X273841Y216881D01*
X273803Y216875D01*
X273745Y216868D01*
X273669Y216862D01*
X273593Y216843D01*
X273504Y216824D01*
X273403Y216792D01*
X273301Y216754D01*
X273193Y216710D01*
X273085Y216653D01*
X272971Y216589D01*
X272863Y216507D01*
X272755Y216411D01*
X272653Y216303D01*
X272558Y216183D01*
X272552Y216170D01*
X272533Y216138D01*
X272501Y216087D01*
X272463Y216005D01*
X272437Y215954D01*
X272418Y215903D01*
X272393Y215840D01*
X272361Y215770D01*
X272336Y215700D01*
X272310Y215618D01*
X272279Y215529D01*
X272253Y215433D01*
X272222Y215332D01*
X272190Y215224D01*
X272164Y215110D01*
X272139Y214982D01*
X272114Y214855D01*
X272088Y214716D01*
X272063Y214570D01*
X272037Y214417D01*
X272018Y214252D01*
X271999Y214081D01*
X271980Y213903D01*
X271968Y213719D01*
X271955Y213522D01*
X271949Y213319D01*
X271942Y213109D01*
X271942Y212887D01*
X271942Y212881D01*
X271942Y212862D01*
X271942Y212830D01*
X271942Y212785D01*
X271942Y212728D01*
X271949Y212658D01*
X271949Y212582D01*
X271949Y212500D01*
X271955Y212404D01*
X271961Y212303D01*
X271968Y212195D01*
X271974Y212087D01*
X271987Y211839D01*
X272012Y211585D01*
X272044Y211319D01*
X272082Y211045D01*
X272126Y210779D01*
X272177Y210525D01*
X272241Y210277D01*
X272279Y210163D01*
X272317Y210055D01*
X272361Y209947D01*
X272406Y209852D01*
X272450Y209763D01*
X272501Y209687D01*
X272507Y209680D01*
X272526Y209655D01*
X272558Y209610D01*
X272603Y209566D01*
X272660Y209503D01*
X272723Y209433D01*
X272799Y209363D01*
X272888Y209293D01*
X272983Y209217D01*
X273092Y209147D01*
X273206Y209077D01*
X273326Y209020D01*
X273460Y208969D01*
X273593Y208925D01*
X273739Y208899D01*
X273892Y208893D01*
X273930Y208893D01*
X273974Y208899D01*
X274031Y208906D01*
X274101Y208918D01*
X274184Y208937D01*
X274273Y208956D01*
X274374Y208995D01*
X274482Y209033D01*
X274590Y209090D01*
X274704Y209153D01*
X274825Y209229D01*
X274939Y209318D01*
X275054Y209426D01*
X275168Y209547D01*
X275276Y209687D01*
X275282Y209699D01*
X275301Y209725D01*
X275327Y209776D01*
X275365Y209852D01*
X275409Y209947D01*
X275428Y210004D01*
X275454Y210068D01*
X275479Y210138D01*
X275504Y210214D01*
X275530Y210296D01*
X275562Y210385D01*
X275587Y210487D01*
X275612Y210588D01*
X275638Y210703D01*
X275663Y210817D01*
X275689Y210944D01*
X275708Y211084D01*
X275733Y211223D01*
X275752Y211376D01*
X275771Y211535D01*
X275790Y211700D01*
X275803Y211877D01*
X275816Y212062D01*
X275828Y212252D01*
X275835Y212455D01*
X275841Y212665D01*
X275841Y212887D01*
X275841Y212893D01*
X275841Y212912D01*
X275841Y212950D01*
X275841Y212995D01*
X275841Y213046D01*
X275835Y213116D01*
X275835Y213192D01*
X275835Y213274D01*
X275828Y213370D01*
X275822Y213471D01*
X275816Y213579D01*
X275809Y213694D01*
X275797Y213935D01*
X275771Y214189D01*
X275739Y214456D01*
X275701Y214729D01*
X275657Y214995D01*
X275600Y215256D01*
X275536Y215497D01*
X275504Y215611D01*
X275460Y215719D01*
X275422Y215827D01*
X275378Y215922D01*
X275327Y216011D01*
X275276Y216087D01*
X275270Y216094D01*
X275250Y216119D01*
X275219Y216164D01*
X275174Y216214D01*
X275124Y216272D01*
X275054Y216341D01*
X274977Y216411D01*
X274895Y216488D01*
X274793Y216557D01*
X274692Y216627D01*
X274577Y216697D01*
X274450Y216761D01*
X274317Y216805D01*
X274177Y216849D01*
X274031Y216875D01*
X273879Y216881D01*
X273879Y216881D02*
G37*
G36*
X266316Y216887D02*
X266252Y216887D01*
X266202Y216881D01*
X266145Y216875D01*
X266075Y216862D01*
X265998Y216849D01*
X265916Y216830D01*
X265827Y216811D01*
X265738Y216780D01*
X265643Y216748D01*
X265548Y216703D01*
X265446Y216653D01*
X265351Y216595D01*
X265262Y216526D01*
X265173Y216449D01*
X265167Y216443D01*
X265154Y216430D01*
X265129Y216405D01*
X265103Y216373D01*
X265071Y216329D01*
X265033Y216278D01*
X264989Y216221D01*
X264951Y216151D01*
X264906Y216081D01*
X264862Y215998D01*
X264824Y215916D01*
X264792Y215821D01*
X264767Y215719D01*
X264741Y215618D01*
X264729Y215510D01*
X264722Y215395D01*
X264722Y215389D01*
X264722Y215364D01*
X264722Y215332D01*
X264729Y215281D01*
X264735Y215224D01*
X264748Y215154D01*
X264760Y215078D01*
X264779Y214995D01*
X264798Y214906D01*
X264830Y214817D01*
X264868Y214722D01*
X264913Y214627D01*
X264963Y214532D01*
X265021Y214436D01*
X265091Y214347D01*
X265167Y214265D01*
X265173Y214259D01*
X265186Y214246D01*
X265211Y214227D01*
X265249Y214195D01*
X265294Y214163D01*
X265345Y214125D01*
X265408Y214087D01*
X265484Y214049D01*
X265560Y214005D01*
X265649Y213967D01*
X265744Y213928D01*
X265846Y213897D01*
X265960Y213865D01*
X266075Y213846D01*
X266202Y213833D01*
X266329Y213827D01*
X266399Y213827D01*
X266443Y213833D01*
X266500Y213839D01*
X266570Y213852D01*
X266646Y213865D01*
X266729Y213884D01*
X266913Y213935D01*
X267002Y213967D01*
X267103Y214011D01*
X267199Y214062D01*
X267288Y214119D01*
X267376Y214182D01*
X267465Y214259D01*
X267472Y214265D01*
X267484Y214278D01*
X267504Y214303D01*
X267535Y214335D01*
X267567Y214379D01*
X267605Y214430D01*
X267649Y214487D01*
X267688Y214557D01*
X267732Y214633D01*
X267770Y214716D01*
X267808Y214805D01*
X267840Y214894D01*
X267872Y214995D01*
X267891Y215103D01*
X267903Y215217D01*
X267910Y215332D01*
X267910Y215338D01*
X267910Y215364D01*
X267910Y215395D01*
X267903Y215440D01*
X267897Y215497D01*
X267885Y215567D01*
X267872Y215637D01*
X267853Y215719D01*
X267827Y215802D01*
X267796Y215891D01*
X267764Y215986D01*
X267719Y216075D01*
X267662Y216170D01*
X267605Y216259D01*
X267535Y216354D01*
X267453Y216437D01*
X267446Y216443D01*
X267434Y216456D01*
X267408Y216481D01*
X267370Y216507D01*
X267326Y216538D01*
X267275Y216576D01*
X267211Y216621D01*
X267141Y216665D01*
X267059Y216703D01*
X266976Y216748D01*
X266881Y216786D01*
X266780Y216818D01*
X266672Y216843D01*
X266557Y216868D01*
X266443Y216881D01*
X266316Y216887D01*
X266316Y216887D02*
G37*
G36*
X266297Y212849D02*
X266259Y212849D01*
X266214Y212843D01*
X266157Y212843D01*
X266081Y212830D01*
X265998Y212817D01*
X265910Y212805D01*
X265808Y212779D01*
X265694Y212747D01*
X265586Y212709D01*
X265465Y212665D01*
X265351Y212608D01*
X265230Y212544D01*
X265116Y212468D01*
X265002Y212385D01*
X264894Y212284D01*
X264887Y212277D01*
X264868Y212258D01*
X264843Y212227D01*
X264805Y212182D01*
X264767Y212131D01*
X264722Y212062D01*
X264671Y211985D01*
X264621Y211903D01*
X264563Y211801D01*
X264519Y211700D01*
X264468Y211585D01*
X264430Y211458D01*
X264392Y211325D01*
X264367Y211185D01*
X264347Y211039D01*
X264341Y210887D01*
X264341Y210880D01*
X264341Y210861D01*
X264341Y210836D01*
X264347Y210798D01*
X264347Y210753D01*
X264354Y210696D01*
X264360Y210639D01*
X264373Y210569D01*
X264398Y210417D01*
X264443Y210252D01*
X264500Y210074D01*
X264583Y209890D01*
X264583Y209883D01*
X264595Y209871D01*
X264608Y209845D01*
X264627Y209814D01*
X264652Y209769D01*
X264684Y209725D01*
X264760Y209617D01*
X264862Y209503D01*
X264989Y209375D01*
X265135Y209261D01*
X265300Y209153D01*
X265306Y209153D01*
X265319Y209140D01*
X265351Y209128D01*
X265383Y209115D01*
X265427Y209096D01*
X265484Y209071D01*
X265541Y209045D01*
X265611Y209026D01*
X265687Y209001D01*
X265764Y208975D01*
X265941Y208931D01*
X266132Y208906D01*
X266335Y208893D01*
X266373Y208893D01*
X266418Y208899D01*
X266481Y208899D01*
X266551Y208912D01*
X266640Y208925D01*
X266735Y208937D01*
X266837Y208963D01*
X266945Y208995D01*
X267059Y209026D01*
X267180Y209071D01*
X267300Y209128D01*
X267421Y209191D01*
X267535Y209261D01*
X267649Y209350D01*
X267757Y209445D01*
X267764Y209452D01*
X267783Y209471D01*
X267808Y209503D01*
X267846Y209547D01*
X267885Y209598D01*
X267935Y209668D01*
X267986Y209744D01*
X268037Y209826D01*
X268088Y209922D01*
X268139Y210030D01*
X268189Y210144D01*
X268227Y210271D01*
X268265Y210404D01*
X268291Y210544D01*
X268310Y210690D01*
X268316Y210849D01*
X268316Y210861D01*
X268316Y210887D01*
X268310Y210931D01*
X268310Y210995D01*
X268297Y211065D01*
X268284Y211154D01*
X268265Y211249D01*
X268246Y211350D01*
X268215Y211465D01*
X268177Y211579D01*
X268126Y211693D01*
X268075Y211814D01*
X268005Y211935D01*
X267929Y212055D01*
X267840Y212169D01*
X267738Y212277D01*
X267732Y212284D01*
X267713Y212303D01*
X267681Y212328D01*
X267637Y212366D01*
X267580Y212411D01*
X267510Y212462D01*
X267434Y212512D01*
X267345Y212563D01*
X267243Y212614D01*
X267135Y212671D01*
X267015Y212716D01*
X266887Y212760D01*
X266748Y212798D01*
X266608Y212824D01*
X266456Y212843D01*
X266297Y212849D01*
X266297Y212849D02*
G37*
G36*
X365338Y206082D02*
X365300Y206082D01*
X365262Y206075D01*
X365205Y206075D01*
X365135Y206063D01*
X365053Y206050D01*
X364957Y206031D01*
X364862Y206012D01*
X364754Y205980D01*
X364646Y205942D01*
X364526Y205891D01*
X364411Y205834D01*
X364297Y205770D01*
X364176Y205688D01*
X364062Y205599D01*
X363954Y205497D01*
X363948Y205491D01*
X363929Y205472D01*
X363903Y205440D01*
X363865Y205389D01*
X363821Y205332D01*
X363776Y205262D01*
X363726Y205186D01*
X363675Y205091D01*
X363618Y204989D01*
X363567Y204869D01*
X363522Y204748D01*
X363478Y204608D01*
X363440Y204469D01*
X363414Y204310D01*
X363395Y204145D01*
X363389Y203973D01*
X363389Y203967D01*
X363389Y203948D01*
X363389Y203910D01*
X363395Y203865D01*
X363395Y203815D01*
X363402Y203745D01*
X363408Y203675D01*
X363421Y203592D01*
X363433Y203503D01*
X363452Y203408D01*
X363497Y203211D01*
X363560Y203002D01*
X363649Y202786D01*
X363656Y202780D01*
X363662Y202761D01*
X363675Y202735D01*
X363700Y202691D01*
X363726Y202646D01*
X363757Y202589D01*
X363840Y202468D01*
X363948Y202329D01*
X364075Y202183D01*
X364221Y202043D01*
X364386Y201922D01*
X364392Y201922D01*
X364405Y201910D01*
X364430Y201897D01*
X364468Y201878D01*
X364513Y201852D01*
X364564Y201827D01*
X364621Y201802D01*
X364691Y201776D01*
X364837Y201725D01*
X365008Y201675D01*
X365192Y201643D01*
X365288Y201637D01*
X365383Y201630D01*
X365415Y201630D01*
X365459Y201637D01*
X365510Y201643D01*
X365573Y201649D01*
X365656Y201662D01*
X365738Y201681D01*
X365834Y201706D01*
X365935Y201738D01*
X366037Y201776D01*
X366145Y201827D01*
X366259Y201891D01*
X366367Y201960D01*
X366475Y202037D01*
X366589Y202132D01*
X366691Y202240D01*
X366697Y202246D01*
X366716Y202265D01*
X366742Y202303D01*
X366773Y202354D01*
X366818Y202411D01*
X366862Y202487D01*
X366913Y202576D01*
X366964Y202678D01*
X367015Y202792D01*
X367066Y202913D01*
X367110Y203053D01*
X367155Y203199D01*
X367186Y203357D01*
X367212Y203529D01*
X367231Y203713D01*
X367237Y203904D01*
X367237Y203916D01*
X367237Y203948D01*
X367231Y203999D01*
X367231Y204069D01*
X367218Y204158D01*
X367212Y204253D01*
X367193Y204367D01*
X367167Y204481D01*
X367142Y204608D01*
X367104Y204742D01*
X367059Y204869D01*
X367008Y205002D01*
X366945Y205135D01*
X366875Y205262D01*
X366792Y205383D01*
X366697Y205497D01*
X366691Y205504D01*
X366672Y205523D01*
X366640Y205555D01*
X366602Y205586D01*
X366545Y205631D01*
X366481Y205681D01*
X366412Y205732D01*
X366323Y205789D01*
X366234Y205847D01*
X366126Y205897D01*
X366018Y205948D01*
X365897Y205993D01*
X365770Y206031D01*
X365630Y206056D01*
X365491Y206075D01*
X365338Y206082D01*
X365338Y206082D02*
G37*
G36*
X384204Y209618D02*
X384166Y209618D01*
X384128Y209612D01*
X384071Y209606D01*
X383995Y209599D01*
X383918Y209580D01*
X383830Y209561D01*
X383728Y209530D01*
X383626Y209492D01*
X383518Y209447D01*
X383410Y209390D01*
X383296Y209326D01*
X383188Y209244D01*
X383080Y209149D01*
X382979Y209041D01*
X382883Y208920D01*
X382877Y208907D01*
X382858Y208876D01*
X382826Y208825D01*
X382788Y208742D01*
X382763Y208691D01*
X382744Y208641D01*
X382718Y208577D01*
X382687Y208507D01*
X382661Y208437D01*
X382636Y208355D01*
X382604Y208266D01*
X382579Y208171D01*
X382547Y208069D01*
X382515Y207961D01*
X382490Y207847D01*
X382464Y207720D01*
X382439Y207593D01*
X382413Y207453D01*
X382388Y207307D01*
X382363Y207155D01*
X382344Y206990D01*
X382325Y206818D01*
X382306Y206640D01*
X382293Y206456D01*
X382280Y206259D01*
X382274Y206056D01*
X382267Y205847D01*
X382267Y205624D01*
X382267Y205618D01*
X382267Y205599D01*
X382267Y205567D01*
X382267Y205523D01*
X382267Y205466D01*
X382274Y205396D01*
X382274Y205319D01*
X382274Y205237D01*
X382280Y205142D01*
X382286Y205040D01*
X382293Y204932D01*
X382299Y204824D01*
X382312Y204577D01*
X382337Y204323D01*
X382369Y204056D01*
X382407Y203783D01*
X382452Y203516D01*
X382502Y203262D01*
X382566Y203015D01*
X382604Y202900D01*
X382642Y202792D01*
X382687Y202684D01*
X382731Y202589D01*
X382775Y202500D01*
X382826Y202424D01*
X382833Y202418D01*
X382852Y202392D01*
X382883Y202348D01*
X382928Y202303D01*
X382985Y202240D01*
X383049Y202170D01*
X383125Y202100D01*
X383214Y202030D01*
X383309Y201954D01*
X383417Y201884D01*
X383531Y201814D01*
X383652Y201757D01*
X383785Y201706D01*
X383918Y201662D01*
X384064Y201637D01*
X384217Y201630D01*
X384255Y201630D01*
X384300Y201637D01*
X384357Y201643D01*
X384426Y201656D01*
X384509Y201675D01*
X384598Y201694D01*
X384700Y201732D01*
X384808Y201770D01*
X384915Y201827D01*
X385030Y201891D01*
X385150Y201967D01*
X385265Y202056D01*
X385379Y202164D01*
X385493Y202284D01*
X385601Y202424D01*
X385608Y202437D01*
X385627Y202462D01*
X385652Y202513D01*
X385690Y202589D01*
X385735Y202684D01*
X385754Y202741D01*
X385779Y202805D01*
X385804Y202875D01*
X385830Y202951D01*
X385855Y203034D01*
X385887Y203122D01*
X385912Y203224D01*
X385938Y203326D01*
X385963Y203440D01*
X385989Y203554D01*
X386014Y203681D01*
X386033Y203821D01*
X386058Y203961D01*
X386077Y204113D01*
X386096Y204272D01*
X386116Y204437D01*
X386128Y204615D01*
X386141Y204799D01*
X386154Y204989D01*
X386160Y205193D01*
X386166Y205402D01*
X386166Y205624D01*
X386166Y205631D01*
X386166Y205650D01*
X386166Y205688D01*
X386166Y205732D01*
X386166Y205783D01*
X386160Y205853D01*
X386160Y205929D01*
X386160Y206012D01*
X386154Y206107D01*
X386147Y206208D01*
X386141Y206317D01*
X386135Y206431D01*
X386122Y206672D01*
X386096Y206926D01*
X386065Y207193D01*
X386027Y207466D01*
X385982Y207733D01*
X385925Y207993D01*
X385862Y208234D01*
X385830Y208349D01*
X385785Y208456D01*
X385747Y208564D01*
X385703Y208660D01*
X385652Y208748D01*
X385601Y208825D01*
X385595Y208831D01*
X385576Y208857D01*
X385544Y208901D01*
X385500Y208952D01*
X385449Y209009D01*
X385379Y209079D01*
X385303Y209149D01*
X385220Y209225D01*
X385119Y209295D01*
X385017Y209364D01*
X384903Y209434D01*
X384776Y209498D01*
X384642Y209542D01*
X384503Y209587D01*
X384357Y209612D01*
X384204Y209618D01*
X384204Y209618D02*
G37*
G36*
X325182Y373771D02*
X325144Y373771D01*
X325106Y373764D01*
X325049Y373758D01*
X324972Y373752D01*
X324896Y373732D01*
X324807Y373713D01*
X324706Y373682D01*
X324604Y373644D01*
X324496Y373599D01*
X324388Y373542D01*
X324274Y373479D01*
X324166Y373396D01*
X324058Y373301D01*
X323956Y373193D01*
X323861Y373072D01*
X323855Y373059D01*
X323836Y373028D01*
X323804Y372977D01*
X323766Y372894D01*
X323741Y372844D01*
X323722Y372793D01*
X323696Y372729D01*
X323664Y372659D01*
X323639Y372589D01*
X323614Y372507D01*
X323582Y372418D01*
X323556Y372323D01*
X323525Y372221D01*
X323493Y372113D01*
X323467Y371999D01*
X323442Y371872D01*
X323417Y371745D01*
X323391Y371605D01*
X323366Y371459D01*
X323340Y371307D01*
X323321Y371142D01*
X323302Y370970D01*
X323283Y370793D01*
X323271Y370608D01*
X323258Y370411D01*
X323252Y370208D01*
X323245Y369999D01*
X323245Y369776D01*
X323245Y369770D01*
X323245Y369751D01*
X323245Y369719D01*
X323245Y369675D01*
X323245Y369618D01*
X323252Y369548D01*
X323252Y369472D01*
X323252Y369389D01*
X323258Y369294D01*
X323264Y369192D01*
X323271Y369084D01*
X323277Y368976D01*
X323290Y368729D01*
X323315Y368475D01*
X323347Y368208D01*
X323385Y367935D01*
X323429Y367668D01*
X323480Y367414D01*
X323544Y367167D01*
X323582Y367052D01*
X323620Y366944D01*
X323664Y366836D01*
X323709Y366741D01*
X323753Y366652D01*
X323804Y366576D01*
X323810Y366570D01*
X323829Y366544D01*
X323861Y366500D01*
X323906Y366455D01*
X323963Y366392D01*
X324026Y366322D01*
X324103Y366252D01*
X324191Y366182D01*
X324287Y366106D01*
X324395Y366036D01*
X324509Y365966D01*
X324630Y365909D01*
X324763Y365858D01*
X324896Y365814D01*
X325042Y365789D01*
X325195Y365782D01*
X325233Y365782D01*
X325277Y365789D01*
X325334Y365795D01*
X325404Y365808D01*
X325487Y365827D01*
X325576Y365846D01*
X325677Y365884D01*
X325785Y365922D01*
X325893Y365979D01*
X326007Y366043D01*
X326128Y366119D01*
X326242Y366208D01*
X326357Y366316D01*
X326471Y366436D01*
X326579Y366576D01*
X326585Y366589D01*
X326604Y366614D01*
X326630Y366665D01*
X326668Y366741D01*
X326712Y366836D01*
X326731Y366894D01*
X326757Y366957D01*
X326782Y367027D01*
X326808Y367103D01*
X326833Y367186D01*
X326865Y367275D01*
X326890Y367376D01*
X326916Y367478D01*
X326941Y367592D01*
X326966Y367706D01*
X326992Y367833D01*
X327011Y367973D01*
X327036Y368113D01*
X327055Y368265D01*
X327074Y368424D01*
X327093Y368589D01*
X327106Y368767D01*
X327119Y368951D01*
X327132Y369142D01*
X327138Y369345D01*
X327144Y369554D01*
X327144Y369776D01*
X327144Y369783D01*
X327144Y369802D01*
X327144Y369840D01*
X327144Y369884D01*
X327144Y369935D01*
X327138Y370005D01*
X327138Y370081D01*
X327138Y370164D01*
X327132Y370259D01*
X327125Y370361D01*
X327119Y370469D01*
X327112Y370583D01*
X327100Y370824D01*
X327074Y371078D01*
X327043Y371345D01*
X327005Y371618D01*
X326960Y371885D01*
X326903Y372145D01*
X326839Y372386D01*
X326808Y372501D01*
X326763Y372609D01*
X326725Y372716D01*
X326681Y372812D01*
X326630Y372901D01*
X326579Y372977D01*
X326573Y372983D01*
X326554Y373009D01*
X326522Y373053D01*
X326477Y373104D01*
X326427Y373161D01*
X326357Y373231D01*
X326281Y373301D01*
X326198Y373377D01*
X326096Y373447D01*
X325995Y373517D01*
X325881Y373587D01*
X325754Y373650D01*
X325620Y373694D01*
X325480Y373739D01*
X325334Y373764D01*
X325182Y373771D01*
X325182Y373771D02*
G37*
G36*
X431390Y294900D02*
X431168Y294900D01*
X431162Y294900D01*
X431143Y294900D01*
X431105Y294900D01*
X431060Y294900D01*
X431009Y294900D01*
X430940Y294894D01*
X430863Y294894D01*
X430781Y294894D01*
X430686Y294888D01*
X430584Y294881D01*
X430476Y294875D01*
X430362Y294869D01*
X430121Y294856D01*
X429866Y294831D01*
X429600Y294799D01*
X429327Y294761D01*
X429060Y294716D01*
X428800Y294659D01*
X428558Y294596D01*
X428444Y294564D01*
X428336Y294520D01*
X428228Y294481D01*
X428133Y294437D01*
X428044Y294386D01*
X427968Y294335D01*
X427962Y294329D01*
X427936Y294310D01*
X427892Y294278D01*
X427841Y294234D01*
X427784Y294183D01*
X427714Y294113D01*
X427644Y294037D01*
X427568Y293954D01*
X427498Y293853D01*
X427428Y293751D01*
X427358Y293637D01*
X427295Y293510D01*
X427250Y293377D01*
X427206Y293237D01*
X427180Y293091D01*
X427174Y292938D01*
X427174Y292900D01*
X427180Y292862D01*
X427187Y292805D01*
X427193Y292729D01*
X427212Y292653D01*
X427231Y292564D01*
X427263Y292462D01*
X427301Y292360D01*
X427346Y292253D01*
X427403Y292145D01*
X427466Y292030D01*
X427549Y291922D01*
X427644Y291814D01*
X427752Y291713D01*
X427873Y291618D01*
X427885Y291611D01*
X427917Y291592D01*
X427968Y291560D01*
X428050Y291522D01*
X428101Y291497D01*
X428152Y291478D01*
X428215Y291452D01*
X428285Y291421D01*
X428355Y291395D01*
X428438Y291370D01*
X428527Y291338D01*
X428622Y291313D01*
X428723Y291281D01*
X428831Y291249D01*
X428946Y291224D01*
X429073Y291198D01*
X429200Y291173D01*
X429339Y291148D01*
X429486Y291122D01*
X429638Y291097D01*
X429803Y291078D01*
X429975Y291059D01*
X430152Y291040D01*
X430336Y291027D01*
X430533Y291014D01*
X430737Y291008D01*
X430946Y291002D01*
X431168Y291002D01*
X431175Y291002D01*
X431194Y291002D01*
X431225Y291002D01*
X431270Y291002D01*
X431327Y291002D01*
X431397Y291008D01*
X431473Y291008D01*
X431556Y291008D01*
X431651Y291014D01*
X431753Y291021D01*
X431860Y291027D01*
X431968Y291033D01*
X432216Y291046D01*
X432470Y291071D01*
X432737Y291103D01*
X433010Y291141D01*
X433276Y291186D01*
X433531Y291236D01*
X433778Y291300D01*
X433892Y291338D01*
X434000Y291376D01*
X434108Y291421D01*
X434204Y291465D01*
X434292Y291510D01*
X434369Y291560D01*
X434375Y291567D01*
X434400Y291586D01*
X434445Y291618D01*
X434489Y291662D01*
X434553Y291719D01*
X434623Y291783D01*
X434692Y291859D01*
X434762Y291948D01*
X434839Y292043D01*
X434908Y292151D01*
X434978Y292265D01*
X435035Y292386D01*
X435086Y292519D01*
X435131Y292653D01*
X435156Y292799D01*
X435162Y292951D01*
X435162Y292989D01*
X435156Y293034D01*
X435150Y293091D01*
X435137Y293161D01*
X435118Y293243D01*
X435099Y293332D01*
X435061Y293434D01*
X435023Y293542D01*
X434966Y293650D01*
X434902Y293764D01*
X434826Y293885D01*
X434737Y293999D01*
X434629Y294113D01*
X434508Y294227D01*
X434369Y294335D01*
X434356Y294342D01*
X434331Y294361D01*
X434280Y294386D01*
X434204Y294424D01*
X434108Y294469D01*
X434051Y294488D01*
X433988Y294513D01*
X433918Y294538D01*
X433842Y294564D01*
X433759Y294589D01*
X433670Y294621D01*
X433569Y294646D01*
X433467Y294672D01*
X433353Y294697D01*
X433238Y294723D01*
X433111Y294748D01*
X432972Y294767D01*
X432832Y294792D01*
X432680Y294812D01*
X432521Y294831D01*
X432356Y294850D01*
X432178Y294862D01*
X431994Y294875D01*
X431803Y294888D01*
X431600Y294894D01*
X431390Y294900D01*
X431390Y294900D02*
G37*
G36*
X428723Y275590D02*
X428717Y275590D01*
X428692Y275590D01*
X428660Y275590D01*
X428616Y275584D01*
X428558Y275577D01*
X428489Y275565D01*
X428419Y275552D01*
X428336Y275533D01*
X428254Y275508D01*
X428165Y275476D01*
X428069Y275444D01*
X427981Y275400D01*
X427885Y275343D01*
X427796Y275285D01*
X427701Y275215D01*
X427619Y275133D01*
X427612Y275127D01*
X427600Y275114D01*
X427574Y275089D01*
X427549Y275050D01*
X427517Y275006D01*
X427479Y274955D01*
X427435Y274892D01*
X427390Y274822D01*
X427352Y274739D01*
X427308Y274657D01*
X427269Y274561D01*
X427238Y274460D01*
X427212Y274352D01*
X427187Y274238D01*
X427174Y274123D01*
X427168Y273996D01*
X427168Y273933D01*
X427174Y273882D01*
X427180Y273825D01*
X427193Y273755D01*
X427206Y273679D01*
X427225Y273596D01*
X427244Y273507D01*
X427276Y273418D01*
X427308Y273323D01*
X427352Y273228D01*
X427403Y273126D01*
X427460Y273031D01*
X427530Y272942D01*
X427606Y272853D01*
X427612Y272847D01*
X427625Y272834D01*
X427650Y272809D01*
X427682Y272783D01*
X427727Y272752D01*
X427777Y272714D01*
X427835Y272669D01*
X427904Y272631D01*
X427974Y272587D01*
X428057Y272542D01*
X428139Y272504D01*
X428235Y272472D01*
X428336Y272447D01*
X428438Y272421D01*
X428546Y272409D01*
X428660Y272402D01*
X428666Y272402D01*
X428692Y272402D01*
X428723Y272402D01*
X428774Y272409D01*
X428831Y272415D01*
X428901Y272428D01*
X428978Y272440D01*
X429060Y272460D01*
X429149Y272479D01*
X429238Y272510D01*
X429333Y272549D01*
X429428Y272593D01*
X429524Y272644D01*
X429619Y272701D01*
X429708Y272771D01*
X429790Y272847D01*
X429797Y272853D01*
X429809Y272866D01*
X429828Y272891D01*
X429860Y272929D01*
X429892Y272974D01*
X429930Y273025D01*
X429968Y273088D01*
X430006Y273164D01*
X430051Y273241D01*
X430089Y273330D01*
X430127Y273425D01*
X430159Y273526D01*
X430190Y273641D01*
X430209Y273755D01*
X430222Y273882D01*
X430229Y274009D01*
X430229Y274079D01*
X430222Y274123D01*
X430216Y274180D01*
X430203Y274250D01*
X430190Y274326D01*
X430171Y274409D01*
X430121Y274593D01*
X430089Y274682D01*
X430044Y274784D01*
X429994Y274879D01*
X429936Y274968D01*
X429873Y275057D01*
X429797Y275146D01*
X429790Y275152D01*
X429778Y275165D01*
X429752Y275184D01*
X429720Y275215D01*
X429676Y275247D01*
X429625Y275285D01*
X429568Y275330D01*
X429498Y275368D01*
X429422Y275412D01*
X429339Y275450D01*
X429251Y275488D01*
X429162Y275520D01*
X429060Y275552D01*
X428952Y275571D01*
X428838Y275584D01*
X428723Y275590D01*
X428723Y275590D02*
G37*
G36*
X433207Y275996D02*
X433194Y275996D01*
X433168Y275996D01*
X433124Y275990D01*
X433061Y275990D01*
X432991Y275977D01*
X432902Y275965D01*
X432807Y275946D01*
X432705Y275927D01*
X432591Y275895D01*
X432476Y275857D01*
X432362Y275806D01*
X432241Y275755D01*
X432121Y275685D01*
X432000Y275609D01*
X431886Y275520D01*
X431778Y275419D01*
X431772Y275412D01*
X431753Y275393D01*
X431727Y275361D01*
X431689Y275317D01*
X431645Y275260D01*
X431594Y275190D01*
X431543Y275114D01*
X431492Y275025D01*
X431441Y274923D01*
X431384Y274815D01*
X431340Y274695D01*
X431295Y274568D01*
X431257Y274428D01*
X431232Y274288D01*
X431213Y274136D01*
X431206Y273977D01*
X431206Y273939D01*
X431213Y273895D01*
X431213Y273838D01*
X431225Y273761D01*
X431238Y273679D01*
X431251Y273590D01*
X431276Y273488D01*
X431308Y273374D01*
X431346Y273266D01*
X431390Y273145D01*
X431448Y273031D01*
X431511Y272910D01*
X431587Y272796D01*
X431670Y272682D01*
X431772Y272574D01*
X431778Y272568D01*
X431797Y272549D01*
X431829Y272523D01*
X431873Y272485D01*
X431924Y272447D01*
X431994Y272402D01*
X432070Y272352D01*
X432152Y272301D01*
X432254Y272244D01*
X432356Y272199D01*
X432470Y272148D01*
X432597Y272110D01*
X432730Y272072D01*
X432870Y272047D01*
X433016Y272028D01*
X433168Y272021D01*
X433175Y272021D01*
X433194Y272021D01*
X433219Y272021D01*
X433257Y272028D01*
X433302Y272028D01*
X433359Y272034D01*
X433416Y272041D01*
X433486Y272053D01*
X433638Y272079D01*
X433803Y272123D01*
X433981Y272180D01*
X434165Y272263D01*
X434172Y272263D01*
X434184Y272275D01*
X434210Y272288D01*
X434242Y272307D01*
X434286Y272333D01*
X434331Y272364D01*
X434439Y272440D01*
X434553Y272542D01*
X434680Y272669D01*
X434794Y272815D01*
X434902Y272980D01*
X434902Y272987D01*
X434915Y272999D01*
X434927Y273031D01*
X434940Y273063D01*
X434959Y273107D01*
X434985Y273164D01*
X435010Y273222D01*
X435029Y273291D01*
X435055Y273368D01*
X435080Y273444D01*
X435124Y273622D01*
X435150Y273812D01*
X435162Y274015D01*
X435162Y274053D01*
X435156Y274098D01*
X435156Y274161D01*
X435143Y274231D01*
X435131Y274320D01*
X435118Y274415D01*
X435093Y274517D01*
X435061Y274625D01*
X435029Y274739D01*
X434985Y274860D01*
X434927Y274981D01*
X434864Y275101D01*
X434794Y275215D01*
X434705Y275330D01*
X434610Y275438D01*
X434604Y275444D01*
X434585Y275463D01*
X434553Y275488D01*
X434508Y275527D01*
X434458Y275565D01*
X434388Y275616D01*
X434311Y275666D01*
X434229Y275717D01*
X434134Y275768D01*
X434026Y275819D01*
X433912Y275870D01*
X433784Y275908D01*
X433651Y275946D01*
X433511Y275971D01*
X433365Y275990D01*
X433207Y275996D01*
X433207Y275996D02*
G37*
%LPD*%
D12*
X264166Y261250D02*
X263000Y262416D01*
X264166Y261250D02*
X266499Y261250D01*
X267665Y262416D01*
X267665Y263583D01*
X266499Y264749D01*
X264166Y264749D01*
X263000Y265915D01*
X263000Y267081D01*
X264166Y268248D01*
X266499Y268248D01*
X267665Y267081D01*
X271164Y267081D02*
X271164Y265915D01*
X269998Y265915D01*
X272330Y265915D01*
X271164Y265915D01*
X271164Y262416D01*
X272330Y261250D01*
X275829Y261250D02*
X278162Y261250D01*
X276996Y261250D01*
X276996Y265915D01*
X275829Y265915D01*
X281661Y264749D02*
X283993Y264749D01*
X282827Y264749D01*
X281661Y264749D01*
X282827Y264749D02*
X282827Y267081D01*
X282827Y264749D01*
X282827Y267081D02*
X283993Y268248D01*
X282827Y267081D02*
X282827Y261250D01*
X288658Y261250D02*
X288658Y267081D01*
X288658Y264749D01*
X287492Y264749D01*
X289825Y264749D01*
X288658Y264749D01*
X288658Y267081D01*
X289825Y268248D01*
X293323Y265915D02*
X296822Y265915D01*
X297989Y264749D01*
X297989Y261250D01*
X301488Y261250D02*
X300321Y262416D01*
X300321Y264749D01*
X301488Y265915D01*
X303820Y265915D01*
X304986Y264749D01*
X304986Y263583D01*
X300321Y263583D01*
X301488Y261250D02*
X303820Y261250D01*
X293323Y261250D02*
X293323Y265915D01*
X307319Y265915D02*
X307319Y261250D01*
X307319Y263583D01*
X308485Y264749D01*
X309652Y265915D01*
X310818Y265915D01*
D19*
X254000Y272750D02*
G03*
X257000Y269750I3000J0D01*
G01*
X301500Y269750D01*
X301500Y324750D01*
X257000Y324750D01*
X257000Y324750D02*
G03*
X254000Y321750I0J-3000D01*
G01*
X254000Y272750D01*
D26*
X228600Y228000D02*
X254000Y228000D01*
X238760Y222920D01*
X254000Y225460D02*
X254000Y239960D01*
X254000Y228000D02*
X238760Y233080D01*
X302000Y228000D02*
X317240Y233080D01*
X317240Y222920D02*
X302000Y228000D01*
X327400Y228000D01*
X331600Y220750D02*
X357000Y220750D01*
X341760Y215670D01*
X341760Y225830D02*
X357000Y220750D01*
X357000Y218210D02*
X357000Y239960D01*
X420000Y220750D02*
X435240Y225830D01*
X435240Y215670D02*
X420000Y220750D01*
X445400Y220750D01*
X436080Y239510D02*
X431000Y254750D01*
X425920Y239510D01*
X431000Y229350D02*
X431000Y254750D01*
X423040Y254750D02*
X433540Y254750D01*
X420000Y251710D02*
X420000Y218210D01*
X433540Y339750D02*
X423040Y339750D01*
X420000Y342790D02*
X420000Y398540D01*
X420000Y396000D02*
X404760Y390920D01*
X404760Y401080D02*
X420000Y396000D01*
X364245Y396000D01*
X372240Y360080D02*
X357000Y355000D01*
X372240Y349920D01*
X357000Y355000D02*
X382400Y355000D01*
X425920Y354990D02*
X431000Y339750D01*
X436080Y354990D01*
X431000Y365150D02*
X431000Y339750D01*
X357000Y357540D02*
X357000Y344040D01*
X304663Y396000D02*
X254000Y396000D01*
X269240Y401080D01*
X269240Y390920D02*
X254000Y396000D01*
X254000Y398540D02*
X254000Y346040D01*
X276600Y355000D02*
X302000Y355000D01*
X286760Y349920D01*
X302000Y355000D02*
X286760Y360080D01*
X302000Y357540D02*
X302000Y341790D01*
X302000Y242460D02*
X302000Y225460D01*
M02*
