G04*
G04 #@! TF.GenerationSoftware,Altium Limited,Altium Designer,23.2.1 (34)*
G04*
G04 Layer_Physical_Order=4*
G04 Layer_Color=16711680*
%FSLAX44Y44*%
%MOMM*%
G71*
G04*
G04 #@! TF.SameCoordinates,CA4669B8-88A6-48D6-B129-B1D76DF42CEB*
G04*
G04*
G04 #@! TF.FilePolarity,Positive*
G04*
G01*
G75*
%ADD10C,0.2500*%
%ADD13C,0.3000*%
%ADD14C,0.2000*%
%ADD16C,0.1000*%
%ADD17R,0.4000X0.6000*%
%ADD30R,0.5800X0.6400*%
%ADD34C,0.3500*%
%ADD37C,0.2651*%
%ADD39C,0.1500*%
%ADD40C,0.4500*%
%ADD41C,0.6000*%
%ADD42R,0.5400X0.2200*%
%ADD43R,0.5300X0.2200*%
%ADD44R,0.8500X0.2000*%
%ADD45R,0.2000X0.8500*%
%ADD46R,0.3548X0.6842*%
%ADD47R,4.7000X4.7000*%
%ADD48O,1.2000X1.7000*%
%ADD49R,0.8000X1.8000*%
%ADD50R,0.8000X0.3500*%
%ADD51R,2.6000X0.6000*%
G36*
X547477Y335750D02*
X547477Y334750D01*
X546000Y334025D01*
X546000Y336475D01*
X547477Y335750D01*
X547477Y335750D02*
G37*
G36*
X591225Y333250D02*
X588775Y333250D01*
X589500Y334727D01*
X590500Y334727D01*
X591225Y333250D01*
X591225Y333250D02*
G37*
G36*
X414588Y331966D02*
X413218Y332750D01*
X413369Y333750D01*
X414938Y334391D01*
X414588Y331966D01*
X414588Y331966D02*
G37*
G36*
X696381Y333000D02*
X696381Y331500D01*
X695000Y331025D01*
X695000Y333475D01*
X696381Y333000D01*
X696381Y333000D02*
G37*
G36*
X585482Y331500D02*
X583925Y330968D01*
X583218Y331675D01*
X583750Y333232D01*
X585482Y331500D01*
X585482Y331500D02*
G37*
G36*
X699061Y330750D02*
X697530Y331500D01*
X697530Y333000D01*
X699061Y333750D01*
X699061Y330750D01*
X699061Y330750D02*
G37*
G36*
X421336Y331283D02*
X419781Y330574D01*
X418921Y331128D01*
X419290Y332629D01*
X421336Y331283D01*
X421336Y331283D02*
G37*
G36*
X535727Y332250D02*
X535727Y331250D01*
X534250Y330525D01*
X534250Y332975D01*
X535727Y332250D01*
X535727Y332250D02*
G37*
G36*
X448470Y330070D02*
X446530Y330070D01*
X446750Y331570D01*
X448250Y331570D01*
X448470Y330070D01*
X448470Y330070D02*
G37*
G36*
X440725Y332000D02*
X440131Y330790D01*
X440470Y330070D01*
X438531Y330070D01*
X438869Y330790D01*
X438275Y332000D01*
X440725Y332000D01*
X440725Y332000D02*
G37*
G36*
X445179Y331767D02*
X444425Y330537D01*
X444469Y330070D01*
X442875Y330039D01*
X443295Y330904D01*
X442786Y332292D01*
X445179Y331767D01*
X445179Y331767D02*
G37*
G36*
X436250Y330039D02*
X434530Y330070D01*
X434750Y331069D01*
X435750Y331069D01*
X436250Y330039D01*
X436250Y330039D02*
G37*
G36*
X461177Y330219D02*
X460439Y328805D01*
X458905Y330039D01*
X460673Y331130D01*
X461177Y330219D01*
X461177Y330219D02*
G37*
G36*
X457177Y330219D02*
X456439Y328805D01*
X454905Y330039D01*
X456673Y331130D01*
X457177Y330219D01*
X457177Y330219D02*
G37*
G36*
X466561Y324350D02*
X465505Y324868D01*
X464469Y324350D01*
X464469Y327350D01*
X465505Y326832D01*
X466561Y327350D01*
X466561Y324350D01*
X466561Y324350D02*
G37*
G36*
X484058Y325508D02*
X482711Y326300D01*
X482894Y327300D01*
X484479Y327921D01*
X484058Y325508D01*
X484058Y325508D02*
G37*
G36*
X404720Y327000D02*
X404720Y326000D01*
X403689Y325500D01*
X403689Y327500D01*
X404720Y327000D01*
X404720Y327000D02*
G37*
G36*
X692969Y328000D02*
X692969Y326000D01*
X690939Y325000D01*
X690939Y329000D01*
X692969Y328000D01*
X692969Y328000D02*
G37*
G36*
X477094Y326952D02*
X475790Y324878D01*
X475063Y326430D01*
X475601Y327306D01*
X477094Y326952D01*
X477094Y326952D02*
G37*
G36*
X469719Y326375D02*
X470688Y326641D01*
X470338Y324216D01*
X469545Y324538D01*
X468470Y324000D01*
X468470Y327000D01*
X469719Y326375D01*
X469719Y326375D02*
G37*
G36*
X410207Y325000D02*
X409500Y323293D01*
X408500Y323293D01*
X407793Y325000D01*
X408293Y325914D01*
X409707Y325914D01*
X410207Y325000D01*
X410207Y325000D02*
G37*
G36*
X714250Y322525D02*
X712773Y323250D01*
X712773Y324250D01*
X714250Y324975D01*
X714250Y322525D01*
X714250Y322525D02*
G37*
G36*
X726604Y322268D02*
X725897Y321561D01*
X725131Y322042D01*
X726293Y322924D01*
X726604Y322268D01*
X726604Y322268D02*
G37*
G36*
X486750Y321525D02*
X485273Y322250D01*
X485273Y323250D01*
X486750Y323975D01*
X486750Y321525D01*
X486750Y321525D02*
G37*
G36*
X722333Y322278D02*
X721672Y321525D01*
X720126Y322005D01*
X721748Y323841D01*
X722333Y322278D01*
X722333Y322278D02*
G37*
G36*
X392510Y322050D02*
X393250Y320539D01*
X390250Y320539D01*
X390990Y322050D01*
X390250Y323561D01*
X393250Y323561D01*
X392510Y322050D01*
X392510Y322050D02*
G37*
G36*
X419772Y320750D02*
X420225Y320750D01*
X419988Y320060D01*
X420219Y319320D01*
X417500Y319320D01*
X417954Y320228D01*
X417775Y320750D01*
X418215Y320750D01*
X418250Y320820D01*
X419750Y320820D01*
X419772Y320750D01*
X419772Y320750D02*
G37*
G36*
X479754Y318850D02*
X479754Y317850D01*
X479189Y317816D01*
X479189Y318884D01*
X479754Y318850D01*
X479754Y318850D02*
G37*
G36*
X404720Y318100D02*
X404720Y317100D01*
X403689Y316600D01*
X403689Y318600D01*
X404720Y318100D01*
X404720Y318100D02*
G37*
G36*
X399780Y316600D02*
X398780Y317100D01*
X398780Y318100D01*
X399780Y318600D01*
X399780Y316600D01*
X399780Y316600D02*
G37*
G36*
X481374Y314366D02*
X480728Y313820D01*
X480197Y314350D01*
X480197Y313600D01*
X479220Y313381D01*
X479220Y315319D01*
X479922Y315162D01*
X480301Y315580D01*
X481374Y314366D01*
X481374Y314366D02*
G37*
G36*
X394780Y314631D02*
X393719Y313570D01*
X391598Y314661D01*
X393689Y316752D01*
X394780Y314631D01*
X394780Y314631D02*
G37*
G36*
X411781Y313381D02*
X410780Y313850D01*
X410780Y314850D01*
X411781Y315319D01*
X411781Y313381D01*
X411781Y313381D02*
G37*
G36*
X722970Y313250D02*
X722970Y312250D01*
X721939Y311750D01*
X721939Y313750D01*
X722970Y313250D01*
X722970Y313250D02*
G37*
G36*
X714031Y311031D02*
X713030Y311000D01*
X713030Y312000D01*
X714061Y312500D01*
X714031Y311031D01*
X714031Y311031D02*
G37*
G36*
X676727Y312000D02*
X676727Y311000D01*
X675250Y310275D01*
X675250Y312725D01*
X676727Y312000D01*
X676727Y312000D02*
G37*
G36*
X480219Y310750D02*
X480219Y309750D01*
X479220Y309380D01*
X479189Y311250D01*
X480219Y310750D01*
X480219Y310750D02*
G37*
G36*
X411781Y309380D02*
X410780Y309750D01*
X410780Y310750D01*
X411811Y311250D01*
X411781Y309380D01*
X411781Y309380D02*
G37*
G36*
X488000Y309025D02*
X486523Y309750D01*
X486523Y310750D01*
X488000Y311475D01*
X488000Y309025D01*
X488000Y309025D02*
G37*
G36*
X401031Y306250D02*
X400081Y306725D01*
X399500Y306525D01*
X399500Y308975D01*
X400081Y308775D01*
X401031Y309250D01*
X401031Y306250D01*
X401031Y306250D02*
G37*
G36*
X399137Y309258D02*
X396804Y308735D01*
X397117Y310134D01*
X398617Y310483D01*
X399137Y309258D01*
X399137Y309258D02*
G37*
G36*
X558250Y308025D02*
X556773Y308750D01*
X556773Y309750D01*
X558250Y310475D01*
X558250Y308025D01*
X558250Y308025D02*
G37*
G36*
X722970Y308250D02*
X722970Y307250D01*
X721939Y306750D01*
X721939Y308750D01*
X722970Y308250D01*
X722970Y308250D02*
G37*
G36*
X714031Y306031D02*
X713030Y306000D01*
X713030Y307000D01*
X714061Y307500D01*
X714031Y306031D01*
X714031Y306031D02*
G37*
G36*
X410004Y306704D02*
X409296Y305996D01*
X407943Y306511D01*
X409489Y308057D01*
X410004Y306704D01*
X410004Y306704D02*
G37*
G36*
X480219Y307000D02*
X480219Y306000D01*
X479189Y305500D01*
X479220Y307320D01*
X480219Y307000D01*
X480219Y307000D02*
G37*
G36*
X411781Y305380D02*
X410780Y305850D01*
X410780Y306850D01*
X411781Y307320D01*
X411781Y305380D01*
X411781Y305380D02*
G37*
G36*
X485088Y305216D02*
X483718Y306000D01*
X483869Y307000D01*
X485438Y307641D01*
X485088Y305216D01*
X485088Y305216D02*
G37*
G36*
X422061Y300850D02*
X420804Y301466D01*
X420219Y301381D01*
X420219Y303319D01*
X420804Y303234D01*
X422061Y303850D01*
X422061Y300850D01*
X422061Y300850D02*
G37*
G36*
X558403Y303387D02*
X557927Y303146D01*
X557220Y303853D01*
X557763Y304534D01*
X558403Y303387D01*
X558403Y303387D02*
G37*
G36*
X714061Y301750D02*
X713030Y302250D01*
X713030Y303250D01*
X714061Y303750D01*
X714061Y301750D01*
X714061Y301750D02*
G37*
G36*
X598374Y303495D02*
X596752Y301659D01*
X596167Y303222D01*
X596828Y303975D01*
X598374Y303495D01*
X598374Y303495D02*
G37*
G36*
X394690Y303534D02*
X395701Y301489D01*
X390399Y301489D01*
X391375Y303464D01*
X391031Y304781D01*
X394969Y304781D01*
X394690Y303534D01*
X394690Y303534D02*
G37*
G36*
X480219Y302850D02*
X480219Y301850D01*
X479220Y301381D01*
X479220Y303319D01*
X480219Y302850D01*
X480219Y302850D02*
G37*
G36*
X593483Y300250D02*
X592449Y299535D01*
X591035Y300949D01*
X591750Y301982D01*
X593483Y300250D01*
X593483Y300250D02*
G37*
G36*
X480219Y298850D02*
X480219Y297850D01*
X479220Y297381D01*
X479220Y299319D01*
X480219Y298850D01*
X480219Y298850D02*
G37*
G36*
X284632Y298692D02*
X285480Y299070D01*
X285511Y297125D01*
X284579Y297577D01*
X283159Y296939D01*
X283334Y299383D01*
X284632Y298692D01*
X284632Y298692D02*
G37*
G36*
X714061Y296750D02*
X713030Y297250D01*
X713030Y298250D01*
X714061Y298750D01*
X714061Y296750D01*
X714061Y296750D02*
G37*
G36*
X408420Y299675D02*
X408420Y297025D01*
X405770Y295699D01*
X405770Y301001D01*
X408420Y299675D01*
X408420Y299675D02*
G37*
G36*
X390261Y295649D02*
X387580Y296975D01*
X387580Y299625D01*
X390261Y300951D01*
X390261Y295649D01*
X390261Y295649D02*
G37*
G36*
X480932Y293098D02*
X479838Y293671D01*
X479220Y293381D01*
X479220Y295320D01*
X479892Y295004D01*
X481072Y295544D01*
X480932Y293098D01*
X480932Y293098D02*
G37*
G36*
X265569Y295500D02*
X265569Y294500D01*
X264569Y294000D01*
X264569Y296000D01*
X265569Y295500D01*
X265569Y295500D02*
G37*
G36*
X275500Y293775D02*
X274023Y294500D01*
X274023Y295500D01*
X275500Y296225D01*
X275500Y293775D01*
X275500Y293775D02*
G37*
G36*
X411781Y293381D02*
X410780Y293850D01*
X410780Y294850D01*
X411781Y295320D01*
X411781Y293381D01*
X411781Y293381D02*
G37*
G36*
X484944Y294850D02*
X485004Y293850D01*
X483568Y293098D01*
X483428Y295544D01*
X484944Y294850D01*
X484944Y294850D02*
G37*
G36*
X601986Y294787D02*
X602398Y292787D01*
X601184Y292496D01*
X600782Y294913D01*
X601986Y294787D01*
X601986Y294787D02*
G37*
G36*
X714061Y292000D02*
X713030Y292500D01*
X713030Y293500D01*
X714061Y294000D01*
X714061Y292000D01*
X714061Y292000D02*
G37*
G36*
X621782Y292575D02*
X621250Y291017D01*
X619518Y292750D01*
X621075Y293282D01*
X621782Y292575D01*
X621782Y292575D02*
G37*
G36*
X285511Y291000D02*
X284480Y291500D01*
X284480Y292500D01*
X285511Y293000D01*
X285511Y291000D01*
X285511Y291000D02*
G37*
G36*
X279101Y291646D02*
X278499Y290310D01*
X277157Y291952D01*
X278394Y292354D01*
X279101Y291646D01*
X279101Y291646D02*
G37*
G36*
X480219Y290850D02*
X480219Y289850D01*
X479220Y289380D01*
X479220Y291320D01*
X480219Y290850D01*
X480219Y290850D02*
G37*
G36*
X411781Y289380D02*
X410780Y289500D01*
X410780Y290500D01*
X411811Y291000D01*
X411781Y289380D01*
X411781Y289380D02*
G37*
G36*
X714061Y286750D02*
X713030Y287250D01*
X713030Y288250D01*
X714061Y288750D01*
X714061Y286750D01*
X714061Y286750D02*
G37*
G36*
X622203Y287794D02*
X621490Y286311D01*
X619973Y288236D01*
X621584Y288579D01*
X622203Y287794D01*
X622203Y287794D02*
G37*
G36*
X480219Y286850D02*
X480219Y285850D01*
X479220Y285380D01*
X479220Y287320D01*
X480219Y286850D01*
X480219Y286850D02*
G37*
G36*
X411781Y285380D02*
X410780Y285850D01*
X410780Y286850D01*
X411781Y287320D01*
X411781Y285380D01*
X411781Y285380D02*
G37*
G36*
X679485Y286596D02*
X678187Y285065D01*
X677135Y285755D01*
X678747Y287600D01*
X679485Y286596D01*
X679485Y286596D02*
G37*
G36*
X676944Y285751D02*
X675903Y285044D01*
X674527Y286496D01*
X675250Y287521D01*
X676944Y285751D01*
X676944Y285751D02*
G37*
G36*
X291719Y286500D02*
X291719Y285500D01*
X290720Y285000D01*
X290720Y287000D01*
X291719Y286500D01*
X291719Y286500D02*
G37*
G36*
X285480Y284930D02*
X284480Y285375D01*
X284480Y286375D01*
X285511Y286875D01*
X285480Y284930D01*
X285480Y284930D02*
G37*
G36*
X279685Y286375D02*
X279759Y285375D01*
X278334Y284617D01*
X278159Y287061D01*
X279685Y286375D01*
X279685Y286375D02*
G37*
G36*
X705250Y282025D02*
X703773Y282750D01*
X703773Y283750D01*
X705250Y284475D01*
X705250Y282025D01*
X705250Y282025D02*
G37*
G36*
X265569Y283500D02*
X265569Y282500D01*
X264569Y282000D01*
X264569Y284000D01*
X265569Y283500D01*
X265569Y283500D02*
G37*
G36*
X683493Y281087D02*
X680006Y281087D01*
X680750Y282917D01*
X682750Y282917D01*
X683493Y281087D01*
X683493Y281087D02*
G37*
G36*
X723969Y283750D02*
X723969Y281750D01*
X721970Y281031D01*
X721970Y284470D01*
X723969Y283750D01*
X723969Y283750D02*
G37*
G36*
X481500Y280775D02*
X480119Y281250D01*
X480119Y282750D01*
X481500Y283225D01*
X481500Y280775D01*
X481500Y280775D02*
G37*
G36*
X692006Y275196D02*
X690742Y275828D01*
X689463Y275196D01*
X689463Y280196D01*
X690742Y279564D01*
X692006Y280196D01*
X692006Y275196D01*
X692006Y275196D02*
G37*
G36*
X291719Y280500D02*
X291719Y279500D01*
X290720Y279000D01*
X290720Y281000D01*
X291719Y280500D01*
X291719Y280500D02*
G37*
G36*
X566787Y278986D02*
X566913Y277782D01*
X564497Y278184D01*
X564787Y279398D01*
X566787Y278986D01*
X566787Y278986D02*
G37*
G36*
X411781Y277381D02*
X410780Y277750D01*
X410780Y278750D01*
X411811Y279250D01*
X411781Y277381D01*
X411781Y277381D02*
G37*
G36*
X480219Y278350D02*
X480219Y277350D01*
X479220Y277381D01*
X479189Y278850D01*
X480219Y278350D01*
X480219Y278350D02*
G37*
G36*
X614612Y278146D02*
X613343Y276587D01*
X611104Y277425D01*
X613612Y280540D01*
X614612Y278146D01*
X614612Y278146D02*
G37*
G36*
X483891Y276006D02*
X482028Y275955D01*
X482452Y277048D01*
X483452Y277048D01*
X483891Y276006D01*
X483891Y276006D02*
G37*
G36*
X265277Y275931D02*
X264569Y275223D01*
X263155Y275931D01*
X264569Y277345D01*
X265277Y275931D01*
X265277Y275931D02*
G37*
G36*
X675363Y275170D02*
X673827Y275846D01*
X673735Y276846D01*
X675147Y277610D01*
X675363Y275170D01*
X675363Y275170D02*
G37*
G36*
X550250Y274523D02*
X549250Y274523D01*
X548525Y276000D01*
X550975Y276000D01*
X550250Y274523D01*
X550250Y274523D02*
G37*
G36*
X678505Y274758D02*
X677762Y274086D01*
X676391Y274753D01*
X678173Y275985D01*
X678505Y274758D01*
X678505Y274758D02*
G37*
G36*
X479927Y273381D02*
X479220Y272673D01*
X477805Y273411D01*
X479189Y274795D01*
X479927Y273381D01*
X479927Y273381D02*
G37*
G36*
X694500Y272521D02*
X692000Y272521D01*
X692006Y274305D01*
X695035Y274336D01*
X694500Y272521D01*
X694500Y272521D02*
G37*
G36*
X740725Y272500D02*
X738275Y272500D01*
X738500Y273736D01*
X740500Y273736D01*
X740725Y272500D01*
X740725Y272500D02*
G37*
G36*
X618696Y274473D02*
X617271Y272480D01*
X616509Y273421D01*
X617632Y275127D01*
X618696Y274473D01*
X618696Y274473D02*
G37*
G36*
X417250Y272381D02*
X416250Y272381D01*
X415750Y273411D01*
X417750Y273411D01*
X417250Y272381D01*
X417250Y272381D02*
G37*
G36*
X288600Y271931D02*
X287600Y271931D01*
X287100Y272961D01*
X289100Y272961D01*
X288600Y271931D01*
X288600Y271931D02*
G37*
G36*
X621486Y273750D02*
X621486Y271750D01*
X620250Y271525D01*
X620250Y273975D01*
X621486Y273750D01*
X621486Y273750D02*
G37*
G36*
X724470Y272000D02*
X721970Y271031D01*
X721970Y274470D01*
X724470Y274500D01*
X724470Y272000D01*
X724470Y272000D02*
G37*
G36*
X675000Y269275D02*
X673523Y270000D01*
X673523Y271000D01*
X675000Y271725D01*
X675000Y269275D01*
X675000Y269275D02*
G37*
G36*
X695076Y268610D02*
X692006Y268640D01*
X692000Y270466D01*
X694500Y270466D01*
X695076Y268610D01*
X695076Y268610D02*
G37*
G36*
X472982Y268250D02*
X471425Y267718D01*
X470718Y268425D01*
X471250Y269982D01*
X472982Y268250D01*
X472982Y268250D02*
G37*
G36*
X687421Y268640D02*
X686006Y267226D01*
X685299Y268640D01*
X686006Y269348D01*
X687421Y268640D01*
X687421Y268640D02*
G37*
G36*
X621381Y269000D02*
X621532Y268000D01*
X620162Y267216D01*
X619812Y269641D01*
X621381Y269000D01*
X621381Y269000D02*
G37*
G36*
X469469Y267350D02*
X469469Y266350D01*
X468470Y265850D01*
X468470Y267850D01*
X469469Y267350D01*
X469469Y267350D02*
G37*
G36*
X679116Y266055D02*
X680006Y266500D01*
X680006Y264500D01*
X679116Y264945D01*
X677750Y264275D01*
X677750Y266725D01*
X679116Y266055D01*
X679116Y266055D02*
G37*
G36*
X536751Y265478D02*
X536890Y264478D01*
X535852Y263795D01*
X535241Y265942D01*
X536751Y265478D01*
X536751Y265478D02*
G37*
G36*
X602032Y263250D02*
X600002Y264250D01*
X600002Y266250D01*
X602032Y267250D01*
X602032Y263250D01*
X602032Y263250D02*
G37*
G36*
X578038Y262075D02*
X582299Y262656D01*
X582587Y258052D01*
X578169Y257314D01*
X577362Y261368D01*
X576199Y261049D01*
X575831Y257314D01*
X571509Y257786D01*
X571559Y262404D01*
X575042Y262012D01*
X575142Y262605D01*
X575025Y263250D01*
X575281Y263250D01*
X577250Y263966D01*
X578038Y262075D01*
X578038Y262075D02*
G37*
G36*
X431591Y262661D02*
X430531Y261923D01*
X429823Y262631D01*
X430561Y263692D01*
X431591Y262661D01*
X431591Y262661D02*
G37*
G36*
X436000Y261750D02*
X435000Y261750D01*
X434619Y262661D01*
X436381Y262661D01*
X436000Y261750D01*
X436000Y261750D02*
G37*
G36*
X456000Y261630D02*
X455000Y261630D01*
X454530Y262631D01*
X456469Y262631D01*
X456000Y261630D01*
X456000Y261630D02*
G37*
G36*
X451750Y261630D02*
X450750Y261630D01*
X450530Y262631D01*
X452250Y262661D01*
X451750Y261630D01*
X451750Y261630D02*
G37*
G36*
X444000Y261630D02*
X443000Y261630D01*
X442531Y262631D01*
X444469Y262631D01*
X444000Y261630D01*
X444000Y261630D02*
G37*
G36*
X440000Y261630D02*
X439000Y261630D01*
X438531Y262631D01*
X440470Y262631D01*
X440000Y261630D01*
X440000Y261630D02*
G37*
G36*
X473334Y262282D02*
X471778Y261574D01*
X470919Y262130D01*
X471289Y263632D01*
X473334Y262282D01*
X473334Y262282D02*
G37*
G36*
X465177Y262281D02*
X464473Y261570D01*
X462705Y262661D01*
X464439Y263695D01*
X465177Y262281D01*
X465177Y262281D02*
G37*
G36*
X699421Y261859D02*
X698006Y261152D01*
X697299Y261859D01*
X698006Y263274D01*
X699421Y261859D01*
X699421Y261859D02*
G37*
G36*
X460470Y262631D02*
X460497Y261727D01*
X460500Y261727D01*
X461225Y260250D01*
X458775Y260250D01*
X459476Y261679D01*
X459000Y262661D01*
X460470Y262631D01*
X460470Y262631D02*
G37*
G36*
X456725Y260000D02*
X454275Y260000D01*
X455000Y261477D01*
X456000Y261477D01*
X456725Y260000D01*
X456725Y260000D02*
G37*
G36*
X446923Y261415D02*
X447593Y259872D01*
X445155Y260115D01*
X445923Y261519D01*
X446923Y261415D01*
X446923Y261415D02*
G37*
G36*
X451750Y261131D02*
X452391Y259562D01*
X449966Y259912D01*
X450750Y261282D01*
X451750Y261131D01*
X451750Y261131D02*
G37*
G36*
X443853Y260394D02*
X443452Y259157D01*
X441810Y260499D01*
X443147Y261101D01*
X443853Y260394D01*
X443853Y260394D02*
G37*
G36*
X434782Y260325D02*
X434250Y258768D01*
X432518Y260500D01*
X434075Y261032D01*
X434782Y260325D01*
X434782Y260325D02*
G37*
G36*
X620977Y260250D02*
X620977Y259250D01*
X619500Y258525D01*
X619500Y260975D01*
X620977Y260250D01*
X620977Y260250D02*
G37*
G36*
X714332Y257260D02*
X712712Y257829D01*
X712452Y258829D01*
X713742Y259638D01*
X714332Y257260D01*
X714332Y257260D02*
G37*
G36*
G01X577000Y257000D02*
G03X579500Y259500I0J2500D01*
G03X577000Y262000I-2500J0D01*
G03X574500Y259500I0J-2500D01*
G03X577000Y257000I2500J0D01*
X577000Y257000D02*
G37*
G36*
G01X576250Y272750D02*
G03X578750Y275250I0J2500D01*
G03X576250Y277750I-2500J0D01*
G03X573750Y275250I0J-2500D01*
G03X576250Y272750I2500J0D01*
X576250Y272750D02*
G37*
D10*
X261900Y289000D02*
X267093Y289000D01*
X269843Y291750D01*
X270000Y291750D01*
X269750Y299000D02*
X267750Y301000D01*
X261900Y301000D01*
X687750Y277696D02*
X693446Y277696D01*
X693500Y277750D01*
X693250Y277500D02*
X693250Y272521D01*
X693000Y271771D02*
X693000Y271500D01*
X693191Y271309D01*
X693191Y271025D01*
X693250Y270466D02*
X693250Y265250D01*
X703750Y269750D02*
X710500Y269750D01*
X710500Y274182D01*
X713568Y277250D01*
X717500Y277250D01*
X718000Y277750D01*
X718500Y273250D02*
X727750Y273250D01*
X731500Y277000D01*
X718500Y273250D02*
X718000Y272750D01*
X713000Y267250D02*
X710500Y269750D01*
X703750Y269750D02*
X700274Y273226D01*
X700274Y277172D01*
X699750Y277696D01*
X713000Y267250D02*
X713000Y262750D01*
D13*
X261500Y259000D02*
X261596Y259096D01*
X261596Y261570D01*
X263425Y263400D01*
X267493Y263400D01*
X269250Y265157D01*
X269250Y269243D01*
X267493Y271000D01*
X261900Y271000D01*
X261635Y259000D02*
X263135Y257500D01*
X415742Y257500D01*
X417243Y259000D01*
X425750Y259000D01*
X261635Y259000D02*
X261500Y259000D01*
D14*
X576000Y259000D02*
X576250Y259250D01*
X576250Y259501D01*
X576250Y264500D01*
X565787Y277037D02*
X565787Y280953D01*
X566959Y282125D01*
X570375Y282125D01*
X570500Y282000D01*
X565787Y277037D02*
X565500Y276750D01*
X595500Y269750D02*
X600000Y265250D01*
X608000Y265250D01*
X618594Y272750D02*
X608000Y283344D01*
X608000Y285000D01*
X604686Y295500D02*
X611314Y295500D01*
X613657Y293157D01*
X616000Y287500D02*
G03*
X613657Y293157I-8000J0D01*
G01*
X616000Y287500D02*
X616000Y280197D01*
X616586Y279461D01*
X619546Y276500D01*
X662250Y276500D01*
X670713Y284963D01*
X674408Y284963D01*
X676945Y287500D01*
X677167Y287500D01*
X681750Y282917D01*
X681750Y277696D01*
X663000Y272750D02*
X672213Y281963D01*
X676713Y281963D01*
X677000Y282250D01*
X663000Y272750D02*
X619000Y272750D01*
X602973Y293787D02*
X604686Y295500D01*
X602973Y293787D02*
X600037Y293787D01*
X599750Y293500D01*
X594000Y292183D02*
X589670Y296513D01*
X589670Y297427D01*
X589670Y298170D01*
X593500Y302000D01*
X687000Y327000D02*
X693750Y327000D01*
X708037Y311380D02*
X713657Y317000D01*
X717250Y317000D01*
X718000Y317750D01*
X718000Y282750D02*
X735250Y282750D01*
X739500Y278500D01*
X739500Y271250D01*
X739750Y271000D01*
X708037Y309287D02*
X708037Y311380D01*
X708037Y309287D02*
X707750Y309000D01*
D16*
X274007Y260500D02*
X414500Y260500D01*
X416750Y262750D01*
X416750Y274500D01*
X417500Y278250D02*
X410250Y278250D01*
X408500Y276500D01*
X408500Y266500D01*
X404500Y262500D01*
X274836Y262500D01*
X274250Y263086D01*
X274250Y275000D01*
X266250Y283000D01*
X261900Y283000D01*
X261900Y295000D02*
X276750Y295000D01*
X276750Y295000D01*
X276750Y290250D02*
X276998Y290250D01*
X278748Y292000D01*
X288000Y292000D01*
X288100Y286000D02*
X293500Y286000D01*
X295750Y283750D01*
X295750Y272578D01*
X299829Y268500D01*
X399750Y268500D01*
X401750Y270500D01*
X401750Y287750D01*
X408350Y294350D01*
X416000Y294350D01*
X416250Y290000D02*
X407500Y290000D01*
X404250Y286750D01*
X404250Y270000D01*
X400750Y266500D01*
X296750Y266500D01*
X293750Y269500D01*
X293750Y278750D01*
X292500Y280000D01*
X288100Y280000D01*
X287975Y285875D02*
X288100Y286000D01*
X287975Y285875D02*
X277125Y285875D01*
X277000Y285750D01*
X270493Y274000D02*
X272250Y272243D01*
X272250Y270485D01*
X272250Y262257D01*
X274007Y260500D01*
X270493Y274000D02*
X268735Y274000D01*
X266500Y274000D01*
X263500Y277000D01*
X261900Y277000D01*
X288100Y274000D02*
X288100Y266900D01*
X290500Y264500D01*
X403000Y264500D01*
X406500Y268000D01*
X406500Y284000D01*
X408850Y286350D01*
X416000Y286350D01*
X431000Y266350D02*
X431500Y266850D01*
X431000Y266350D02*
X431000Y263100D01*
X430000Y262100D01*
X430000Y261979D01*
X427500Y259478D01*
X432500Y258750D02*
X435500Y261750D01*
X435500Y266850D01*
X439500Y266850D02*
X439500Y261096D01*
X437404Y259000D01*
X437250Y259000D01*
X437250Y258846D02*
X437250Y258750D01*
X441750Y258750D02*
X441750Y258998D01*
X443500Y260748D01*
X443500Y264500D01*
X447500Y263600D02*
X447500Y266850D01*
X447500Y263600D02*
X446423Y262523D01*
X446423Y258923D01*
X446250Y258750D01*
X441750Y258750D02*
X441923Y258923D01*
X451250Y258750D02*
X451250Y265000D01*
X451000Y265250D01*
X451250Y266600D02*
X451500Y266850D01*
X455500Y266850D02*
X455500Y266850D01*
X455500Y266000D02*
X455500Y258750D01*
X455375Y258875D02*
X455250Y258750D01*
X451250Y258750D02*
X451000Y258500D01*
X460000Y259000D02*
X460000Y264500D01*
X459750Y266100D02*
X460000Y266350D01*
X463500Y266850D02*
X464000Y266350D01*
X464000Y262750D01*
X465650Y261100D01*
X470597Y261100D01*
X473000Y263503D01*
X473000Y264000D01*
X469850Y266850D02*
X473000Y270000D01*
X469850Y266850D02*
X467500Y266850D01*
X475000Y274350D02*
X478250Y274350D01*
X482600Y270000D01*
X482750Y270000D01*
X482952Y274548D02*
X483000Y274500D01*
X482952Y274548D02*
X482952Y277048D01*
X482150Y277850D01*
X475500Y277850D01*
X475000Y278350D01*
X459750Y259250D02*
X460000Y259000D01*
X475000Y286350D02*
X537600Y286350D01*
X554750Y303500D01*
X557574Y303500D01*
X558824Y304750D01*
X559500Y304750D01*
X598346Y301750D02*
X598500Y301750D01*
X598346Y301750D02*
X593596Y306500D01*
X569346Y306500D01*
X567596Y308250D01*
X567596Y308750D01*
X563596Y312750D01*
X554172Y312750D01*
X545750Y304328D01*
X545750Y300904D01*
X543846Y299000D01*
X543846Y299000D01*
X539196Y294350D01*
X475971Y294350D01*
X475486Y293864D01*
X475000Y294350D01*
X475000Y298350D02*
X534004Y298350D01*
X541154Y305500D01*
X544093Y305500D01*
X553343Y314750D01*
X611093Y314750D01*
X617000Y308843D01*
X617000Y299086D01*
X620836Y295250D01*
X676753Y295250D01*
X681503Y300000D01*
X690503Y300000D01*
X700253Y290250D01*
X708828Y290250D01*
X711578Y293000D01*
X718500Y293000D01*
X718000Y297750D02*
X712750Y297750D01*
X707250Y292250D01*
X701081Y292250D01*
X691331Y302000D01*
X680675Y302000D01*
X675925Y297250D01*
X621843Y297250D01*
X619000Y300093D01*
X619000Y309672D01*
X611922Y316750D01*
X552515Y316750D01*
X543265Y307500D01*
X540325Y307500D01*
X535176Y302350D01*
X475000Y302350D01*
X475000Y290350D02*
X538025Y290350D01*
X547750Y300075D01*
X547750Y303500D01*
X553500Y309250D01*
X559500Y309250D01*
X566000Y305250D02*
X566250Y305000D01*
X570000Y321500D02*
X570000Y331075D01*
X568575Y332500D01*
X564404Y332500D01*
X559404Y327500D01*
X532654Y327500D01*
X529404Y330750D01*
X480250Y330750D01*
X474500Y336500D01*
X438154Y336500D01*
X435077Y333423D01*
X435250Y333250D02*
X435250Y326100D01*
X435500Y325850D01*
X439500Y325850D02*
X439500Y334000D01*
X439500Y334000D01*
X443875Y333375D02*
X444250Y333750D01*
X443875Y333375D02*
X443875Y326225D01*
X443500Y325850D01*
X455500Y325850D02*
X456000Y326350D01*
X456000Y329750D01*
X460600Y334350D01*
X472996Y334350D01*
X480546Y326800D01*
X485200Y326800D01*
X485500Y326500D01*
X484154Y322750D02*
X488000Y322750D01*
X484154Y322750D02*
X479754Y318350D01*
X475000Y318350D01*
X475000Y310350D02*
X475100Y310250D01*
X489250Y310250D01*
X486250Y306500D02*
X486500Y306250D01*
X486250Y306500D02*
X475150Y306500D01*
X475000Y306350D01*
X476700Y325500D02*
X477250Y325500D01*
X476700Y325500D02*
X470350Y331850D01*
X462100Y331850D01*
X460000Y329750D01*
X460000Y326350D01*
X459500Y325850D01*
X533000Y331750D02*
X538000Y331750D01*
X538500Y331250D01*
X560325Y331250D01*
X563576Y334500D01*
X569404Y334500D01*
X573904Y330000D01*
X582250Y330000D01*
X585500Y333250D01*
X590000Y332000D02*
X590000Y335250D01*
X588750Y336500D01*
X555924Y336500D01*
X554674Y335250D01*
X544750Y335250D01*
X570000Y321500D02*
X572750Y318750D01*
X612750Y318750D01*
X612782Y318782D02*
X621000Y310564D01*
X621000Y300922D01*
X622672Y299250D01*
X675096Y299250D01*
X679846Y304000D01*
X692160Y304000D01*
X694410Y301750D01*
X711376Y301750D01*
X712376Y302750D01*
X718000Y302750D01*
X718000Y287750D02*
X699925Y287750D01*
X689675Y298000D01*
X682331Y298000D01*
X677581Y293250D01*
X621750Y293250D01*
X619500Y291000D01*
X619774Y286524D02*
X619774Y286524D01*
X625161Y290749D01*
X625507Y290749D01*
X677910Y290750D01*
X678203Y291043D01*
X683160Y296000D01*
X688846Y296000D01*
X701596Y283250D01*
X706500Y283250D01*
X709925Y303750D02*
X712675Y306500D01*
X716750Y306500D01*
X718000Y307750D01*
X724000Y307750D01*
X726250Y310000D01*
X726250Y321914D01*
X724750Y323414D01*
X724750Y323750D01*
X720154Y323750D02*
X724250Y319654D01*
X724250Y313500D01*
X723500Y312750D01*
X718000Y312750D01*
X716750Y311500D01*
X712000Y311500D01*
X711000Y310500D01*
X711000Y307654D01*
X709096Y305750D01*
X696067Y305750D01*
X693817Y308000D01*
X678189Y308000D01*
X677310Y307120D01*
X674120Y307120D01*
X674000Y307000D01*
X674000Y311500D02*
X704621Y311500D01*
X709250Y316129D01*
X709250Y321250D01*
X711750Y323750D01*
X715500Y323750D01*
X720000Y323750D02*
X720154Y323750D01*
X692988Y306000D02*
X695238Y303750D01*
X709925Y303750D01*
X699750Y263750D02*
X699750Y263603D01*
X696476Y260329D01*
X673746Y260329D01*
X672000Y262075D01*
X672000Y269197D01*
X673303Y270500D01*
X676250Y270500D01*
X678152Y273195D02*
X678152Y274404D01*
X676500Y276056D01*
X676500Y276500D01*
X676346Y276346D01*
X672750Y276346D01*
X664904Y268500D01*
X619000Y268500D01*
X618750Y268250D01*
X618250Y259750D02*
X671250Y259750D01*
X672671Y258329D01*
X714829Y258329D01*
X715250Y258750D01*
X687000Y267750D02*
X686897Y267750D01*
X683751Y270896D01*
X680451Y270896D01*
X678152Y273195D01*
X676500Y265500D02*
X681500Y265500D01*
X681750Y265250D01*
X674096Y302500D02*
X676717Y305121D01*
X678138Y305121D01*
X679018Y306000D01*
X692988Y306000D01*
X674000Y311500D02*
X673904Y311500D01*
X673750Y302500D02*
X674096Y302500D01*
X549750Y277250D02*
X549750Y264250D01*
X547250Y261750D01*
X541338Y261750D01*
X538000Y265088D01*
X537000Y265088D01*
X536890Y264978D01*
X534728Y264978D01*
X534250Y264500D01*
X421000Y332500D02*
X421000Y333000D01*
X421000Y332500D02*
X416005Y327505D01*
X412005Y327505D01*
X409000Y324500D01*
X409000Y315750D01*
X410400Y314350D01*
X416000Y314350D01*
X416500Y310250D02*
X410346Y310250D01*
X407000Y313596D01*
X407000Y315750D01*
X405150Y317600D01*
X401750Y317600D01*
X398150Y317600D01*
X396750Y319000D01*
X396750Y329404D01*
X400596Y333250D01*
X415750Y333250D01*
X416000Y333000D01*
X407000Y326500D02*
X409000Y324500D01*
X407000Y326500D02*
X401750Y326500D01*
X407750Y308250D02*
X409650Y306350D01*
X416000Y306350D01*
X288875Y298125D02*
X289000Y298000D01*
X288875Y298125D02*
X282125Y298125D01*
X282000Y298250D01*
D17*
X393000Y307750D02*
D03*
X403000Y307750D02*
D03*
X401750Y317600D02*
D03*
X401750Y326500D02*
D03*
X391750Y326500D02*
D03*
X391750Y317600D02*
D03*
D30*
X393100Y298350D02*
D03*
X402900Y298350D02*
D03*
D34*
X261500Y259000D02*
D03*
X282000Y274250D02*
D03*
X282000Y298250D02*
D03*
X296000Y289750D02*
D03*
X276750Y290250D02*
D03*
X277000Y285750D02*
D03*
X276750Y295000D02*
D03*
X270000Y291750D02*
D03*
X270000Y298750D02*
D03*
X385500Y298250D02*
D03*
X425750Y259000D02*
D03*
X432500Y258750D02*
D03*
X437250Y258750D02*
D03*
X441750Y258750D02*
D03*
X446250Y258750D02*
D03*
X451000Y258500D02*
D03*
X455500Y258750D02*
D03*
X460000Y259000D02*
D03*
X473000Y264000D02*
D03*
X473000Y270000D02*
D03*
X482750Y270000D02*
D03*
X483000Y274500D02*
D03*
X482750Y282000D02*
D03*
X486500Y306250D02*
D03*
X489250Y310250D02*
D03*
X488000Y322750D02*
D03*
X485500Y326500D02*
D03*
X533000Y331750D02*
D03*
X544750Y335250D02*
D03*
X565500Y329000D02*
D03*
X562750Y322000D02*
D03*
X559500Y309250D02*
D03*
X566250Y305000D02*
D03*
X559500Y304750D02*
D03*
X565500Y276750D02*
D03*
X576250Y264500D02*
D03*
X599750Y293500D02*
D03*
X598500Y301750D02*
D03*
X593500Y302000D02*
D03*
X619000Y272750D02*
D03*
X618750Y268250D02*
D03*
X618250Y259750D02*
D03*
X619750Y281750D02*
D03*
X619750Y286500D02*
D03*
X619500Y291000D02*
D03*
X613500Y324500D02*
D03*
X590000Y332000D02*
D03*
X585500Y333250D02*
D03*
X597000Y310250D02*
D03*
X580500Y333250D02*
D03*
X575250Y333250D02*
D03*
X558750Y300250D02*
D03*
X542500Y302250D02*
D03*
X544750Y281750D02*
D03*
X545250Y277250D02*
D03*
X549750Y277250D02*
D03*
X538000Y277500D02*
D03*
X534250Y264500D02*
D03*
X555000Y264250D02*
D03*
X482000Y316000D02*
D03*
X477500Y325250D02*
D03*
X471750Y325250D02*
D03*
X466500Y305500D02*
D03*
X466750Y289000D02*
D03*
X482250Y294250D02*
D03*
X439750Y297750D02*
D03*
X424000Y312250D02*
D03*
X419000Y322000D02*
D03*
X407750Y308250D02*
D03*
X424500Y298250D02*
D03*
X398250Y307750D02*
D03*
X416000Y333000D02*
D03*
X421000Y333000D02*
D03*
X439500Y333250D02*
D03*
X444250Y333250D02*
D03*
X449000Y333250D02*
D03*
X453500Y333250D02*
D03*
X398000Y335250D02*
D03*
X676500Y276500D02*
D03*
X676250Y270500D02*
D03*
X676500Y265500D02*
D03*
X693000Y271500D02*
D03*
X706250Y274000D02*
D03*
X713000Y262750D02*
D03*
X715250Y258750D02*
D03*
X731500Y277000D02*
D03*
X739500Y271250D02*
D03*
X745500Y270250D02*
D03*
X731750Y293500D02*
D03*
X750250Y311250D02*
D03*
X751000Y332500D02*
D03*
X724750Y323750D02*
D03*
X720000Y323750D02*
D03*
X715500Y323750D02*
D03*
X711000Y331750D02*
D03*
X693750Y332250D02*
D03*
X693750Y327000D02*
D03*
X707750Y309000D02*
D03*
X708250Y298000D02*
D03*
X706500Y283250D02*
D03*
X674000Y307000D02*
D03*
X674000Y311500D02*
D03*
X673750Y302500D02*
D03*
X677000Y287500D02*
D03*
X677000Y282250D02*
D03*
X685000Y292250D02*
D03*
D37*
X385500Y298250D02*
X385550Y298300D01*
X393050Y298300D01*
X393050Y298700D02*
X393050Y307700D01*
X393000Y307750D01*
X393050Y298700D02*
X393250Y298500D01*
X403600Y298350D02*
X416000Y298350D01*
X416000Y298350D01*
X403600Y298350D02*
X403500Y298250D01*
D39*
X398250Y307750D02*
X403000Y307750D01*
X398250Y307750D02*
X397867Y308133D01*
X397867Y310483D01*
X391750Y316600D01*
X391750Y317600D01*
X391750Y318250D02*
X391750Y326500D01*
X391750Y326500D01*
X416000Y302350D02*
X424150Y302350D01*
X424250Y302250D01*
X447500Y325850D02*
X447500Y331709D01*
X449000Y333209D01*
X449000Y333750D01*
X453500Y333000D02*
X453500Y332800D01*
X451500Y330800D01*
X451500Y325850D01*
X475000Y282350D02*
X478250Y282350D01*
X478500Y282100D01*
X479279Y282100D01*
X479379Y282000D01*
X482676Y282000D01*
X482000Y316000D02*
X481847Y316000D01*
X480197Y314350D01*
X475000Y314350D01*
X471750Y325500D02*
X467750Y325500D01*
X467500Y325750D01*
X467500Y325850D01*
X463500Y325850D01*
X419000Y322000D02*
X419000Y318600D01*
X418750Y318350D01*
X416000Y318350D01*
X693750Y332250D02*
X702250Y332250D01*
X702750Y331750D01*
D40*
X576250Y259501D02*
G03*
X576500Y259500I250J21249D01*
G01*
X576500Y259500D02*
G03*
X576752Y259501I0J21250D01*
G01*
X576752Y259501D02*
G03*
X597750Y280750I-251J21249D01*
G01*
X597750Y280750D02*
G03*
X594250Y292433I-21250J0D01*
G01*
X594250Y292433D02*
G03*
X593750Y293160I-17750J-11683D01*
G01*
X593750Y293160D02*
G03*
X589670Y297427I-17250J-12410D01*
G01*
X589670Y297427D02*
G03*
X585250Y300115I-13170J-16677D01*
G01*
X585250Y300115D02*
G03*
X576250Y259501I-8750J-19365D01*
G01*
D41*
X576000Y275273D02*
G03*
X582000Y280750I500J5477D01*
G01*
X582000Y280750D02*
G03*
X576000Y275273I-5500J0D01*
G01*
D42*
X261900Y267000D02*
D03*
X261900Y271000D02*
D03*
X261900Y277000D02*
D03*
X261900Y283000D02*
D03*
X261900Y289000D02*
D03*
X261900Y295000D02*
D03*
X261900Y301000D02*
D03*
X261900Y305000D02*
D03*
D43*
X288100Y274000D02*
D03*
X288100Y280000D02*
D03*
X288100Y286000D02*
D03*
X288100Y292000D02*
D03*
X288100Y298000D02*
D03*
D44*
X416000Y274350D02*
D03*
X416000Y278350D02*
D03*
X416000Y282350D02*
D03*
X416000Y286350D02*
D03*
X416000Y290350D02*
D03*
X416000Y294350D02*
D03*
X416000Y298350D02*
D03*
X416000Y302350D02*
D03*
X416000Y306350D02*
D03*
X416000Y310350D02*
D03*
X416000Y314350D02*
D03*
X416000Y318350D02*
D03*
X475000Y278350D02*
D03*
X475000Y274350D02*
D03*
X475000Y282350D02*
D03*
X475000Y286350D02*
D03*
X475000Y290350D02*
D03*
X475000Y294350D02*
D03*
X475000Y298350D02*
D03*
X475000Y302350D02*
D03*
X475000Y306350D02*
D03*
X475000Y310350D02*
D03*
X475000Y314350D02*
D03*
X475000Y318350D02*
D03*
D45*
X423500Y266850D02*
D03*
X427500Y266850D02*
D03*
X431500Y266850D02*
D03*
X435500Y266850D02*
D03*
X439500Y266850D02*
D03*
X443500Y266850D02*
D03*
X447500Y266850D02*
D03*
X451500Y266850D02*
D03*
X455500Y266850D02*
D03*
X459500Y266850D02*
D03*
X463500Y266850D02*
D03*
X467500Y266850D02*
D03*
X467500Y325850D02*
D03*
X463500Y325850D02*
D03*
X459500Y325850D02*
D03*
X455500Y325850D02*
D03*
X451500Y325850D02*
D03*
X447500Y325850D02*
D03*
X443500Y325850D02*
D03*
X439500Y325850D02*
D03*
X435500Y325850D02*
D03*
X431500Y325850D02*
D03*
X427500Y325850D02*
D03*
X423500Y325850D02*
D03*
D46*
X681750Y265250D02*
D03*
X681750Y277696D02*
D03*
X687750Y277696D02*
D03*
X693750Y277696D02*
D03*
X699750Y277696D02*
D03*
X699750Y265250D02*
D03*
X693750Y265250D02*
D03*
X687750Y265250D02*
D03*
D47*
X445500Y296350D02*
D03*
D48*
X608000Y265500D02*
D03*
X608000Y285000D02*
D03*
D49*
X686750Y325000D02*
D03*
X702750Y325000D02*
D03*
D50*
X718000Y272750D02*
D03*
X718000Y277750D02*
D03*
X718000Y282750D02*
D03*
X718000Y287750D02*
D03*
X718000Y292750D02*
D03*
X718000Y297750D02*
D03*
X718000Y302750D02*
D03*
X718000Y307750D02*
D03*
X718000Y312750D02*
D03*
X718000Y317750D02*
D03*
D51*
X741000Y263750D02*
D03*
X741000Y326750D02*
D03*
M02*
