M48
;Layer_Color=9474304
;FILE_FORMAT=4:4
METRIC,TZ
;TYPE=PLATED
T1F00S00C0.1500
%
T01
X270500Y260250
X269750Y284500
X270000Y291750
X270000Y298750
X276750Y295000
X282000Y298250
X279750Y288000
X278750Y277500
X282000Y274250
X296000Y289750
X385500Y298250
X398250Y307750
X407750Y308250
X424000Y312250
X424500Y298250
X439750Y297750
X466500Y305500
X466750Y289000
X482250Y294250
X482750Y282000
X483000Y274500
X482750Y270000
X486500Y266750
X473000Y268250
X463500Y259750
X455500Y258750
X451000Y258500
X446250Y258750
X441750Y258750
X437250Y258750
X432500Y258750
X425750Y259000
X419000Y322000
X421000Y333000
X416000Y333000
X398000Y335250
X439500Y333250
X444250Y333250
X449000Y333250
X453500Y333250
X471750Y325250
X477500Y325250
X485500Y326500
X488000Y322750
X482000Y316000
X489250Y310250
X486500Y306250
X533000Y331750
X544750Y335250
X565500Y329000
X562750Y322000
X559500Y309250
X559500Y304750
X558750Y300250
X566250Y305000
X565500Y276750
X549750Y277250
X545250Y277250
X544750Y281750
X538000Y277500
X534250Y264500
X555000Y264250
X576250Y264500
X618750Y268250
X619000Y272750
X619750Y281750
X619750Y286500
X619500Y291000
X599750Y293500
X598500Y301750
X593500Y302000
X597000Y310250
X590000Y332000
X585500Y333250
X580500Y333250
X575250Y333250
X613500Y324500
X618250Y259750
X676500Y265500
X676250Y270500
X676500Y276500
X677000Y282250
X677000Y287500
X685000Y292250
X673750Y302500
X674000Y307000
X674000Y311500
X694250Y326750
X693750Y332250
X711000Y331750
X715500Y323750
X720000Y323750
X724750Y323750
X707750Y309000
X708250Y298000
X706500Y283250
X706250Y274000
X693000Y271500
X713000Y262750
X715250Y258750
X731500Y277000
X739500Y271250
X745500Y270250
X731750Y293500
X750250Y311250
X751000Y332500
M30
