G04*
G04 #@! TF.GenerationSoftware,Altium Limited,Altium Designer,23.2.1 (34)*
G04*
G04 Layer_Physical_Order=2*
G04 Layer_Color=36540*
%FSLAX44Y44*%
%MOMM*%
G71*
G04*
G04 #@! TF.SameCoordinates,162DE738-E85B-4D42-A29B-5AA2FE5F72C8*
G04*
G04*
G04 #@! TF.FilePolarity,Positive*
G04*
G01*
G75*
%ADD21C,0.3500*%
G36*
X417500Y257500D02*
X387185Y257500D01*
X386659Y258770D01*
X386831Y258942D01*
X387250Y259953D01*
X387250Y261047D01*
X386831Y262058D01*
X386058Y262831D01*
X385047Y263250D01*
X383953Y263250D01*
X382942Y262831D01*
X382169Y262058D01*
X381750Y261047D01*
X381750Y259953D01*
X382169Y258942D01*
X382341Y258770D01*
X381815Y257500D01*
X359039Y257500D01*
X359039Y269750D01*
X358884Y270530D01*
X358442Y271192D01*
X357780Y271634D01*
X357500Y271690D01*
X357500Y322810D01*
X357780Y322866D01*
X358442Y323308D01*
X358884Y323970D01*
X359039Y324750D01*
X359039Y337500D01*
X417500Y337500D01*
X417500Y257500D01*
X417500Y257500D02*
G37*
%LPC*%
G36*
X379547Y330000D02*
X378453Y330000D01*
X377442Y329581D01*
X376669Y328808D01*
X376250Y327797D01*
X376250Y326703D01*
X376669Y325692D01*
X377442Y324919D01*
X378453Y324500D01*
X379547Y324500D01*
X380558Y324919D01*
X381331Y325692D01*
X381750Y326703D01*
X381750Y327797D01*
X381331Y328808D01*
X380558Y329581D01*
X379547Y330000D01*
X379547Y330000D02*
G37*
G36*
X370047Y308250D02*
X368953Y308250D01*
X367942Y307831D01*
X367169Y307058D01*
X366750Y306047D01*
X366750Y304953D01*
X367169Y303942D01*
X367942Y303169D01*
X368953Y302750D01*
X370047Y302750D01*
X371058Y303169D01*
X371831Y303942D01*
X372250Y304953D01*
X372250Y306047D01*
X371831Y307058D01*
X371058Y307831D01*
X370047Y308250D01*
X370047Y308250D02*
G37*
G36*
X392547Y317750D02*
X391453Y317750D01*
X390442Y317331D01*
X389669Y316558D01*
X389250Y315547D01*
X389250Y314453D01*
X389669Y313442D01*
X389781Y313330D01*
X390331Y312500D01*
X389781Y311670D01*
X389669Y311558D01*
X389250Y310547D01*
X389250Y309453D01*
X389669Y308442D01*
X390442Y307669D01*
X390825Y307510D01*
X391446Y306809D01*
X391433Y305988D01*
X391250Y305547D01*
X391250Y304453D01*
X391669Y303442D01*
X392442Y302669D01*
X393453Y302250D01*
X394547Y302250D01*
X395187Y302515D01*
X395558Y302669D01*
X396925Y302436D01*
X396942Y302419D01*
X397953Y302000D01*
X399047Y302000D01*
X400058Y302419D01*
X400750Y303111D01*
X401442Y302419D01*
X402453Y302000D01*
X403547Y302000D01*
X404558Y302419D01*
X405331Y303192D01*
X405750Y304203D01*
X405750Y305297D01*
X405331Y306308D01*
X404558Y307081D01*
X403547Y307500D01*
X402453Y307500D01*
X401442Y307081D01*
X400750Y306389D01*
X400058Y307081D01*
X399047Y307500D01*
X397953Y307500D01*
X397313Y307235D01*
X396942Y307081D01*
X395575Y307314D01*
X395558Y307331D01*
X395175Y307490D01*
X394554Y308191D01*
X394567Y309012D01*
X394750Y309453D01*
X394750Y310547D01*
X394331Y311558D01*
X394219Y311670D01*
X393669Y312500D01*
X394219Y313330D01*
X394331Y313442D01*
X394750Y314453D01*
X394750Y315547D01*
X394331Y316558D01*
X393558Y317331D01*
X392547Y317750D01*
X392547Y317750D02*
G37*
G36*
X400547Y292250D02*
X399453Y292250D01*
X398442Y291831D01*
X397669Y291058D01*
X397250Y290047D01*
X397250Y288953D01*
X397669Y287942D01*
X398442Y287169D01*
X399453Y286750D01*
X400547Y286750D01*
X401558Y287169D01*
X402331Y287942D01*
X402750Y288953D01*
X402750Y290047D01*
X402331Y291058D01*
X401558Y291831D01*
X400547Y292250D01*
X400547Y292250D02*
G37*
G36*
X370547Y291750D02*
X369453Y291750D01*
X368442Y291331D01*
X367669Y290558D01*
X367250Y289547D01*
X367250Y288453D01*
X367669Y287442D01*
X368442Y286669D01*
X369453Y286250D01*
X370547Y286250D01*
X371558Y286669D01*
X372331Y287442D01*
X372750Y288453D01*
X372750Y289547D01*
X372331Y290558D01*
X371558Y291331D01*
X370547Y291750D01*
X370547Y291750D02*
G37*
G36*
X388297Y274750D02*
X387203Y274750D01*
X386192Y274331D01*
X385419Y273558D01*
X385000Y272547D01*
X385000Y271453D01*
X385419Y270442D01*
X386192Y269669D01*
X387203Y269250D01*
X388297Y269250D01*
X389308Y269669D01*
X390081Y270442D01*
X390500Y271453D01*
X390500Y272547D01*
X390081Y273558D01*
X389308Y274331D01*
X388297Y274750D01*
X388297Y274750D02*
G37*
%LPD*%
D21*
X295500Y289500D02*
D03*
X295500Y294500D02*
D03*
X295500Y299750D02*
D03*
X295500Y304750D02*
D03*
X295500Y310000D02*
D03*
X295500Y314750D02*
D03*
X295500Y319500D02*
D03*
X377000Y269000D02*
D03*
X387750Y272000D02*
D03*
X384500Y260500D02*
D03*
X412500Y275000D02*
D03*
X400000Y289500D02*
D03*
X394000Y293000D02*
D03*
X398500Y304750D02*
D03*
X403000Y304750D02*
D03*
X394000Y305000D02*
D03*
X392000Y310000D02*
D03*
X392000Y315000D02*
D03*
X369500Y332000D02*
D03*
X379000Y327250D02*
D03*
X369500Y305500D02*
D03*
X369500Y299000D02*
D03*
X370000Y289000D02*
D03*
M02*
