G04*
G04 #@! TF.GenerationSoftware,Altium Limited,Altium Designer,23.2.1 (34)*
G04*
G04 Layer_Physical_Order=4*
G04 Layer_Color=16711680*
%FSLAX44Y44*%
%MOMM*%
G71*
G04*
G04 #@! TF.SameCoordinates,162DE738-E85B-4D42-A29B-5AA2FE5F72C8*
G04*
G04*
G04 #@! TF.FilePolarity,Positive*
G04*
G01*
G75*
%ADD10C,0.2000*%
%ADD12C,0.1500*%
%ADD19C,0.1000*%
%ADD20C,0.1200*%
%ADD21C,0.3500*%
%ADD22O,2.0000X1.5000*%
%ADD23R,0.8000X0.3500*%
%ADD24R,2.6000X0.6000*%
G36*
X382350Y285250D02*
X382350Y283750D01*
X380939Y283120D01*
X380939Y285881D01*
X382350Y285250D01*
X382350Y285250D02*
G37*
G36*
X388975Y273250D02*
X386525Y273250D01*
X387000Y274631D01*
X388500Y274631D01*
X388975Y273250D01*
X388975Y273250D02*
G37*
G36*
X377821Y271425D02*
X378225Y270250D01*
X375775Y270250D01*
X376179Y271425D01*
X375500Y272811D01*
X378500Y272811D01*
X377821Y271425D01*
X377821Y271425D02*
G37*
G36*
X385534Y261912D02*
X383109Y261562D01*
X383500Y262986D01*
X385000Y263227D01*
X385534Y261912D01*
X385534Y261912D02*
G37*
G36*
X381969Y300000D02*
X381969Y299000D01*
X380939Y298500D01*
X380939Y300500D01*
X381969Y300000D01*
X381969Y300000D02*
G37*
G36*
X381969Y295000D02*
X381969Y294000D01*
X380939Y293500D01*
X380939Y295500D01*
X381969Y295000D01*
X381969Y295000D02*
G37*
G36*
X381969Y290000D02*
X381969Y289000D01*
X380939Y288500D01*
X380939Y290500D01*
X381969Y290000D01*
X381969Y290000D02*
G37*
G36*
X398750Y288275D02*
X397273Y289000D01*
X397273Y290000D01*
X398750Y290725D01*
X398750Y288275D01*
X398750Y288275D02*
G37*
G36*
X367559Y289729D02*
X368676Y290145D01*
X368829Y287700D01*
X367979Y287967D01*
X366888Y287388D01*
X365863Y290377D01*
X367559Y289729D01*
X367559Y289729D02*
G37*
G36*
X379270Y325521D02*
X378329Y324759D01*
X376623Y325882D01*
X377277Y326946D01*
X379270Y325521D01*
X379270Y325521D02*
G37*
G36*
X379000Y321219D02*
X375000Y321219D01*
X376000Y323219D01*
X378000Y323219D01*
X379000Y321219D01*
X379000Y321219D02*
G37*
G36*
X381969Y315500D02*
X381969Y314500D01*
X380939Y314000D01*
X380939Y316000D01*
X381969Y315500D01*
X381969Y315500D02*
G37*
G36*
X390750Y313775D02*
X389273Y314500D01*
X389273Y315500D01*
X390750Y316225D01*
X390750Y313775D01*
X390750Y313775D02*
G37*
G36*
X381969Y310500D02*
X381969Y309500D01*
X380939Y309000D01*
X380939Y311000D01*
X381969Y310500D01*
X381969Y310500D02*
G37*
G36*
X390750Y308775D02*
X389273Y309500D01*
X389273Y310500D01*
X390750Y311225D01*
X390750Y308775D01*
X390750Y308775D02*
G37*
G36*
X368094Y307500D02*
X368094Y307335D01*
X369044Y307190D01*
X368094Y305708D01*
X368094Y305500D01*
X367955Y305490D01*
X367774Y305209D01*
X366985Y305423D01*
X366868Y305414D01*
X366868Y305454D01*
X366700Y305500D01*
X366868Y306571D01*
X366868Y307585D01*
X368094Y307500D01*
X368094Y307500D02*
G37*
G36*
X381969Y305500D02*
X381969Y304500D01*
X380939Y304000D01*
X380939Y306000D01*
X381969Y305500D01*
X381969Y305500D02*
G37*
G36*
X392750Y303775D02*
X391273Y304500D01*
X391273Y305500D01*
X392750Y306225D01*
X392750Y303775D01*
X392750Y303775D02*
G37*
G36*
X399000Y302023D02*
X398000Y302023D01*
X397275Y303500D01*
X399725Y303500D01*
X399000Y302023D01*
X399000Y302023D02*
G37*
G36*
X403500Y302023D02*
X402500Y302023D01*
X401775Y303500D01*
X404225Y303500D01*
X403500Y302023D01*
X403500Y302023D02*
G37*
D10*
X357000Y306500D02*
X368094Y306500D01*
X369094Y305500D01*
X369500Y305500D01*
X377000Y319500D02*
X377000Y324844D01*
X379000Y326844D01*
X379000Y327250D01*
D12*
X377000Y269000D02*
X377000Y274500D01*
X378000Y278500D02*
X381225Y278500D01*
X384250Y275475D01*
X384250Y260750D01*
X387750Y272000D02*
X387750Y279100D01*
X382350Y284500D01*
X377000Y284500D01*
X369891Y288891D02*
X370000Y289000D01*
X369891Y288891D02*
X365544Y288891D01*
X363153Y286500D01*
X357000Y286500D01*
X377948Y278552D02*
X378000Y278500D01*
D19*
X377000Y269000D02*
X377000Y269000D01*
X388750Y294500D02*
X391250Y297000D01*
X402121Y297000D01*
X403000Y297879D01*
X403000Y304750D01*
X398500Y304750D02*
X398500Y300379D01*
X397621Y299500D01*
X377000Y299500D01*
X377000Y294500D02*
X388750Y294500D01*
X400000Y289500D02*
X377000Y289500D01*
X377000Y304500D02*
X377500Y305000D01*
X394000Y305000D01*
X392000Y310000D02*
X377500Y310000D01*
X377000Y309500D01*
X377000Y314500D02*
X377500Y315000D01*
X392000Y315000D01*
D20*
X377948Y278552D02*
X377000Y279500D01*
D21*
X295500Y289500D02*
D03*
X295500Y294500D02*
D03*
X295500Y299750D02*
D03*
X295500Y304750D02*
D03*
X295500Y310000D02*
D03*
X295500Y314750D02*
D03*
X295500Y319500D02*
D03*
X377000Y269000D02*
D03*
X387750Y272000D02*
D03*
X384500Y260500D02*
D03*
X412500Y275000D02*
D03*
X400000Y289500D02*
D03*
X394000Y293000D02*
D03*
X398500Y304750D02*
D03*
X403000Y304750D02*
D03*
X394000Y305000D02*
D03*
X392000Y310000D02*
D03*
X392000Y315000D02*
D03*
X369500Y332000D02*
D03*
X379000Y327250D02*
D03*
X369500Y305500D02*
D03*
X369500Y299000D02*
D03*
X370000Y289000D02*
D03*
D22*
X357000Y286500D02*
D03*
X357000Y306500D02*
D03*
D23*
X377000Y274500D02*
D03*
X377000Y279500D02*
D03*
X377000Y284500D02*
D03*
X377000Y289500D02*
D03*
X377000Y294500D02*
D03*
X377000Y299500D02*
D03*
X377000Y304500D02*
D03*
X377000Y309500D02*
D03*
X377000Y314500D02*
D03*
X377000Y319500D02*
D03*
D24*
X400000Y265500D02*
D03*
X400000Y328500D02*
D03*
M02*
