G04*
G04 #@! TF.GenerationSoftware,Altium Limited,Altium Designer,23.2.1 (34)*
G04*
G04 Layer_Color=65535*
%FSLAX44Y44*%
%MOMM*%
G71*
G04*
G04 #@! TF.SameCoordinates,D767BFFD-4904-4763-B037-12AEFBC8DA8D*
G04*
G04*
G04 #@! TF.FilePolarity,Positive*
G04*
G01*
G75*
%ADD12C,0.1000*%
%ADD13C,0.3000*%
%ADD14C,0.2000*%
%ADD17C,0.2500*%
%ADD19C,0.1500*%
%ADD21C,0.0500*%
%ADD42C,0.4000*%
%ADD63C,0.5000*%
D12*
X562900Y1206330D02*
X562900Y1235330D01*
X579900Y1235330D01*
X579900Y1206330D01*
X562900Y1206330D01*
D13*
X735150Y1190330D02*
G03*
X735150Y1190330I-500J0D01*
G01*
X748050Y1225080D02*
G03*
X748050Y1225080I-500J0D01*
G01*
X593150Y1196830D02*
G03*
X593150Y1196830I-500J0D01*
G01*
D14*
X825000Y1045000D02*
X279000Y1045000D01*
X279000Y1147500D02*
X825750Y1147500D01*
X721000Y1222430D02*
G03*
X721000Y1222430I-500J0D01*
G01*
X690000Y1148500D02*
X690000Y1045000D01*
X624900Y1203080D02*
X624900Y1234080D01*
X589900Y1234080D01*
X589900Y1203080D01*
X624900Y1203080D01*
X571900Y1196830D02*
G03*
X571900Y1196830I-500J0D01*
G01*
X438525Y1236305D02*
X417525Y1236305D01*
X417525Y1210805D02*
X438525Y1210805D01*
X456000Y1147000D02*
X456000Y1045250D01*
X420900Y1085700D02*
G03*
X420900Y1085700I-1000J0D01*
G01*
X354650Y1221580D02*
X349650Y1221580D01*
D17*
X782709Y1202830D02*
G03*
X782709Y1202830I-559J0D01*
G01*
X445775Y1228555D02*
G03*
X445775Y1228555I-1250J0D01*
G01*
D19*
X317133Y1023813D02*
X318799Y1022147D01*
X317133Y1023813D02*
X327130Y1023813D01*
X327130Y1025480D01*
X327130Y1022147D01*
X323650Y1117700D02*
X323650Y1120033D01*
X323650Y1118866D01*
X316652Y1118866D01*
X317819Y1117700D01*
X636540Y1076060D02*
X636540Y1072728D01*
X636540Y1074394D01*
X646537Y1074394D01*
X644871Y1076060D01*
X732669Y1116500D02*
X731003Y1118166D01*
X741000Y1118166D01*
X741000Y1119832D01*
X741000Y1116500D01*
D21*
X497790Y1057560D02*
X497790Y1074060D01*
X506540Y1074060D01*
X506540Y1057560D01*
X497790Y1057560D01*
X490290Y1112310D02*
X481540Y1112310D01*
X472790Y1112310D01*
X472790Y1128810D01*
X481540Y1128810D01*
X481540Y1112310D01*
X481540Y1128810D01*
X490290Y1128810D01*
X490290Y1112310D01*
X554790Y1119560D02*
X571790Y1119560D01*
X571790Y1128060D01*
X554790Y1128060D01*
X554790Y1119560D01*
X571790Y1119560D02*
X580540Y1119560D01*
X580540Y1136060D01*
X571790Y1136060D01*
X571790Y1119560D01*
X580790Y1119560D02*
X589540Y1119560D01*
X589540Y1136060D01*
X580790Y1136060D01*
X580790Y1119560D01*
X588150Y1160330D02*
X596900Y1160330D01*
X596900Y1176830D01*
X588150Y1176830D01*
X588150Y1160330D01*
X611150Y1184080D02*
X611150Y1200080D01*
X595150Y1200080D01*
X595150Y1184080D01*
X611150Y1184080D01*
X643900Y1198330D02*
X643900Y1207080D01*
X627400Y1207080D01*
X627400Y1198330D01*
X643900Y1198330D01*
X643900Y1207330D02*
X643900Y1216080D01*
X627400Y1216080D01*
X627400Y1207330D01*
X643900Y1207330D01*
X643900Y1215830D02*
X643900Y1224580D01*
X627400Y1224580D01*
X627400Y1215830D01*
X643900Y1215830D01*
X707400Y1185830D02*
X716150Y1185830D01*
X716150Y1202330D01*
X707400Y1202330D01*
X707400Y1185830D01*
X711900Y1167580D02*
X728400Y1167580D01*
X728400Y1176330D01*
X711900Y1176330D01*
X711900Y1167580D01*
X712050Y1167330D02*
X729050Y1167330D01*
X729050Y1158830D01*
X712050Y1158830D01*
X712050Y1167330D01*
X729150Y1158830D02*
X753650Y1158830D01*
X753650Y1169830D01*
X729150Y1169830D01*
X729150Y1158830D01*
X754650Y1169980D02*
X754650Y1186980D01*
X763150Y1186980D01*
X763150Y1169980D01*
X754650Y1169980D01*
X754400Y1187080D02*
X763150Y1187080D01*
X763150Y1203580D01*
X754400Y1203580D01*
X754400Y1194830D01*
X737900Y1194830D01*
X737900Y1203580D01*
X754400Y1203580D01*
X754400Y1187080D01*
X763400Y1162580D02*
X779900Y1162580D01*
X779900Y1171330D01*
X763400Y1171330D01*
X763400Y1162580D01*
X797499Y1101750D02*
X813999Y1101750D01*
X813999Y1093000D01*
X797499Y1093000D01*
X797499Y1101750D01*
X732900Y1185580D02*
X732900Y1194330D01*
X716400Y1194330D01*
X716400Y1185580D01*
X732900Y1185580D01*
X732900Y1194580D02*
X732900Y1203330D01*
X716400Y1203330D01*
X716400Y1194580D01*
X732900Y1194580D01*
X732650Y1203330D02*
X732650Y1212080D01*
X716150Y1212080D01*
X716150Y1203330D01*
X732650Y1203330D01*
X732650Y1211830D02*
X732650Y1220580D01*
X716150Y1220580D01*
X716150Y1211830D01*
X732650Y1211830D01*
X718150Y1220580D02*
X718150Y1237080D01*
X709400Y1237080D01*
X709400Y1220580D01*
X718150Y1220580D01*
X764400Y1204580D02*
X764400Y1221580D01*
X772900Y1221580D01*
X772900Y1204580D01*
X781650Y1204580D01*
X781650Y1221080D01*
X772900Y1221080D01*
X772900Y1204580D01*
X764400Y1204580D01*
X764400Y1221830D02*
X781400Y1221830D01*
X781400Y1230330D01*
X764400Y1230330D01*
X764400Y1221830D01*
X588650Y1231080D02*
X579900Y1231080D01*
X579900Y1214580D01*
X588650Y1214580D01*
X588650Y1231080D01*
X587400Y1195830D02*
X590400Y1195830D01*
X590400Y1192830D01*
X590400Y1184830D02*
X590400Y1181830D01*
X587400Y1181830D01*
X578150Y1197580D02*
X578150Y1206330D01*
X561650Y1206330D01*
X561650Y1197580D01*
X578150Y1197580D01*
X575400Y1195830D02*
X572400Y1195830D01*
X572400Y1192830D01*
X572400Y1184830D02*
X572400Y1181830D01*
X575400Y1181830D01*
X569900Y1181080D02*
X569900Y1197580D01*
X561150Y1197580D01*
X561150Y1181080D01*
X569900Y1181080D01*
X571150Y1177430D02*
X571150Y1160430D01*
X562650Y1160430D01*
X562650Y1177430D01*
X571150Y1177430D01*
X571150Y1177330D02*
X579650Y1177330D01*
X579650Y1160330D01*
X571150Y1160330D01*
X571150Y1177330D01*
X513650Y1225580D02*
X513650Y1209080D01*
X504900Y1209080D01*
X504900Y1225580D01*
X513650Y1225580D01*
X504650Y1225580D02*
X504650Y1209080D01*
X495900Y1209080D01*
X495900Y1225580D01*
X504650Y1225580D01*
X495900Y1225580D02*
X495900Y1215580D01*
X476900Y1215580D01*
X476900Y1225580D01*
X495900Y1225580D01*
X495650Y1215330D02*
X495650Y1198830D01*
X486900Y1198830D01*
X486900Y1215330D01*
X495650Y1215330D01*
X495900Y1208830D02*
X504400Y1208830D01*
X504400Y1191830D01*
X495900Y1191830D01*
X495900Y1208830D01*
X486650Y1215330D02*
X476650Y1215330D01*
X476650Y1196330D01*
X486650Y1196330D01*
X486650Y1215330D01*
X495900Y1191830D02*
X504650Y1191830D01*
X504650Y1175330D01*
X495900Y1175330D01*
X495900Y1191830D01*
X474900Y1195330D02*
X474900Y1204080D01*
X458400Y1204080D01*
X458400Y1195330D01*
X474900Y1195330D01*
X476900Y1205430D02*
X476900Y1221930D01*
X468150Y1221930D01*
X468150Y1205430D01*
X476900Y1205430D01*
X467900Y1205430D02*
X467900Y1221930D01*
X459150Y1221930D01*
X459150Y1205430D01*
X467900Y1205430D01*
X459150Y1205430D02*
X459150Y1221930D01*
X450400Y1221930D01*
X450400Y1205430D01*
X459150Y1205430D01*
X457650Y1193680D02*
X466150Y1193680D01*
X466150Y1176680D01*
X457650Y1176680D01*
X457650Y1193680D01*
X457650Y1193580D02*
X449150Y1193580D01*
X449150Y1176580D01*
X457650Y1176580D01*
X457650Y1193580D01*
X450400Y1205430D02*
X450400Y1221930D01*
X441650Y1221930D01*
X441650Y1205430D01*
X450400Y1205430D01*
X448900Y1193580D02*
X448900Y1177080D01*
X440150Y1177080D01*
X440150Y1193580D01*
X448900Y1193580D01*
X419650Y1134200D02*
X419650Y1117700D01*
X410900Y1117700D01*
X410900Y1134200D01*
X419650Y1134200D01*
X410650Y1134200D02*
X410650Y1117700D01*
X401900Y1117700D01*
X401900Y1134200D01*
X410650Y1134200D01*
X419150Y1103950D02*
X401150Y1103950D01*
X401150Y1085950D01*
X419150Y1085950D01*
X419150Y1103950D01*
X416900Y1083450D02*
X433400Y1083450D01*
X433400Y1074700D01*
X416900Y1074700D01*
X416900Y1083450D01*
X416900Y1074450D02*
X433400Y1074450D01*
X433400Y1065700D01*
X416900Y1065700D01*
X416900Y1074450D01*
X416900Y1065450D02*
X433400Y1065450D01*
X433400Y1056700D01*
X416900Y1056700D01*
X416900Y1065450D01*
X360900Y1158330D02*
X360900Y1174830D01*
X352150Y1174830D01*
X352150Y1158330D01*
X360900Y1158330D01*
X359750Y1177330D02*
X359750Y1185830D01*
X342750Y1185830D01*
X342750Y1177330D01*
X359750Y1177330D01*
X359900Y1184580D02*
X369900Y1184580D01*
X369900Y1203580D01*
X359900Y1203580D01*
X359900Y1184580D01*
X359400Y1186080D02*
X359400Y1194830D01*
X342900Y1194830D01*
X342900Y1186080D01*
X359400Y1186080D01*
X342400Y1195980D02*
X342400Y1176980D01*
X332400Y1176980D01*
X332400Y1195980D01*
X342400Y1195980D01*
X351650Y1176830D02*
X351650Y1166830D01*
X332650Y1166830D01*
X332650Y1176830D01*
X351650Y1176830D01*
X319150Y1205330D02*
X319150Y1213830D01*
X302150Y1213830D01*
X302150Y1205330D01*
X319150Y1205330D01*
X352900Y1227080D02*
X369400Y1227080D01*
X369400Y1235830D01*
X352900Y1235830D01*
X352900Y1227080D01*
X301900Y1189580D02*
X301900Y1173080D01*
X293150Y1173080D01*
X293150Y1189580D01*
X301900Y1189580D01*
X292900Y1190080D02*
X292900Y1173080D01*
X284400Y1173080D01*
X284400Y1190080D01*
X292900Y1190080D01*
D42*
X473650Y1171080D02*
G03*
X473650Y1171080I-500J0D01*
G01*
D63*
X586268Y1234580D02*
G03*
X586268Y1234580I-1118J0D01*
G01*
M02*
