G04*
G04 #@! TF.GenerationSoftware,Altium Limited,Altium Designer,23.2.1 (34)*
G04*
G04 Layer_Color=32896*
%FSLAX44Y44*%
%MOMM*%
G71*
G04*
G04 #@! TF.SameCoordinates,D767BFFD-4904-4763-B037-12AEFBC8DA8D*
G04*
G04*
G04 #@! TF.FilePolarity,Positive*
G04*
G01*
G75*
%ADD12C,0.1000*%
%ADD14C,0.2000*%
%ADD17C,0.2500*%
%ADD19C,0.1500*%
%ADD21C,0.0500*%
%ADD42C,0.4000*%
%ADD63C,0.5000*%
%ADD71C,0.1524*%
D12*
X396650Y1075450D02*
X396650Y1115450D01*
X371650Y1115450D01*
X371650Y1075450D01*
X396650Y1075450D01*
D14*
X436630Y980540D02*
X441130Y980540D01*
X441130Y985040D01*
X441130Y1019040D02*
X441130Y1023540D01*
X436630Y1023540D01*
X402630Y1023540D02*
X398130Y1023540D01*
X398130Y1019040D01*
X398130Y985040D02*
X398130Y980540D01*
X402630Y980540D01*
X556790Y1066560D02*
X589790Y1066560D01*
X590040Y1126560D02*
X557040Y1126560D01*
X398150Y1125282D02*
X398150Y1123616D01*
X388153Y1123616D01*
X389819Y1121950D01*
X398150Y1121950D02*
X398150Y1125282D01*
X794249Y1085000D02*
X794249Y1109500D01*
X819249Y1109500D01*
X819249Y1085000D01*
X794249Y1085000D01*
D17*
X440880Y974040D02*
G03*
X440880Y974040I-1250J0D01*
G01*
X789999Y1090500D02*
G03*
X789999Y1090500I-1250J0D01*
G01*
D19*
X511790Y1072478D02*
X511790Y1074144D01*
X521787Y1074144D01*
X520121Y1075810D01*
X511790Y1075810D02*
X511790Y1072478D01*
X647986Y1168080D02*
X654650Y1168080D01*
X662986Y1173080D02*
X662986Y1178078D01*
X669650Y1178078D01*
X669650Y1179744D02*
X666318Y1183077D01*
X662986Y1179744D01*
X662986Y1173080D01*
X669650Y1173080D02*
X669650Y1179744D01*
X659653Y1181411D02*
X659653Y1174746D01*
X657987Y1173080D01*
X654655Y1173080D01*
X652989Y1174746D01*
X652989Y1181411D02*
X654655Y1183077D01*
X657987Y1183077D01*
X659653Y1181411D01*
X653900Y1188162D02*
X647235Y1188162D01*
X650568Y1191495D02*
X650568Y1184830D01*
X726403Y1215246D02*
X728069Y1213580D01*
X726403Y1215246D02*
X736400Y1215246D01*
X736400Y1216912D01*
X736400Y1213580D01*
X293400Y1160830D02*
X293400Y1157498D01*
X293400Y1159164D01*
X283403Y1159164D01*
X285069Y1160830D01*
D21*
X394130Y971790D02*
X394130Y980290D01*
X377130Y980290D01*
X377130Y971790D01*
X394130Y971790D01*
X394130Y980145D02*
X394130Y988645D01*
X377130Y988645D01*
X377130Y980145D01*
X394130Y980145D01*
X394130Y1013790D02*
X394130Y1022290D01*
X377130Y1022290D01*
X377130Y1013790D01*
X394130Y1013790D01*
X393880Y1022290D02*
X393880Y1031040D01*
X377380Y1031040D01*
X377380Y1022290D01*
X393880Y1022290D01*
X434650Y1194930D02*
X434650Y1204930D01*
X415650Y1204930D01*
X415650Y1194930D01*
X434650Y1194930D01*
X433400Y1205080D02*
X433400Y1213830D01*
X416900Y1213830D01*
X416900Y1205080D01*
X433400Y1205080D01*
X432150Y1214930D02*
X432150Y1223680D01*
X415650Y1223680D01*
X415650Y1214930D01*
X432150Y1214930D01*
X432150Y1223830D02*
X432150Y1232580D01*
X415650Y1232580D01*
X415650Y1223830D01*
X432150Y1223830D01*
D42*
X551443Y1073560D02*
G03*
X551443Y1073560I597J0D01*
G01*
X510150Y1227430D02*
G03*
X510150Y1227430I-1250J0D01*
G01*
D63*
X710026Y1189563D02*
G03*
X710026Y1189563I-1016J0D01*
G01*
D71*
X732632Y1161242D02*
X732632Y1184864D01*
X703168Y1184864D02*
X703168Y1161242D01*
X315150Y1203855D02*
X315150Y1207280D01*
X316650Y1208780D02*
X316650Y1211580D01*
X287650Y1211580D01*
X315150Y1171305D02*
X315150Y1167880D01*
X316650Y1166380D02*
X316650Y1163580D01*
X287650Y1163580D01*
M02*
