G04*
G04 #@! TF.GenerationSoftware,Altium Limited,Altium Designer,23.2.1 (34)*
G04*
G04 Layer_Physical_Order=1*
G04 Layer_Color=255*
%FSLAX44Y44*%
%MOMM*%
G71*
G04*
G04 #@! TF.SameCoordinates,CC52EDE5-58F4-4033-9B0D-95DD7DFE7826*
G04*
G04*
G04 #@! TF.FilePolarity,Positive*
G04*
G01*
G75*
%ADD11R,3.0000X0.3500*%
%AMCUSTOMSHAPE12*
4,1,8,1.0000,-3.0000,-2.0000,0.0000,1.0000,3.0000,2.0000,3.0000,2.0000,2.0000,0.0000,0.0000,2.0000,-2.0000,2.0000,-3.0000,1.0000,-3.0000,0.0*%
%ADD12CUSTOMSHAPE12*%

%ADD13C,0.1000*%
%ADD14C,0.2000*%
%ADD15C,0.3000*%
%ADD16C,0.0762*%
%ADD17C,0.3500*%
D11*
X271000Y274750D02*
D03*
X271000Y279750D02*
D03*
X271000Y284750D02*
D03*
X271000Y289750D02*
D03*
X271000Y294750D02*
D03*
X271000Y299750D02*
D03*
X271000Y304750D02*
D03*
X271000Y309750D02*
D03*
X271000Y314750D02*
D03*
X271000Y319750D02*
D03*
D12*
X327500Y297500D02*
D03*
X357500Y297500D02*
D03*
X387500Y297500D02*
D03*
X417500Y297500D02*
D03*
X447500Y297500D02*
D03*
X477500Y297500D02*
D03*
X507500Y297500D02*
D03*
X537500Y297500D02*
D03*
X567500Y297500D02*
D03*
X597500Y297500D02*
D03*
X627500Y297500D02*
D03*
X657500Y297500D02*
D03*
X687500Y297500D02*
D03*
X717500Y297500D02*
D03*
X747500Y297500D02*
D03*
D13*
X293750Y290000D02*
X294000Y290000D01*
X293750Y290000D02*
X271250Y290000D01*
X271000Y289750D01*
X271000Y294750D02*
X271500Y295250D01*
X294250Y295250D01*
X294500Y295000D01*
X298250Y309750D02*
X298500Y309750D01*
X298250Y309750D02*
X271000Y309750D01*
X271000Y314750D02*
X294000Y314750D01*
X333250Y308000D02*
X337250Y308000D01*
X339750Y305500D01*
X366000Y293500D02*
X382500Y277000D01*
X382500Y269750D01*
X382250Y307750D02*
X384250Y307750D01*
X382250Y307750D02*
X377000Y313000D01*
X380750Y324250D02*
X372750Y324250D01*
X372250Y323750D01*
X489000Y322000D02*
X500250Y322000D01*
X520750Y323250D02*
X524912Y323250D01*
X525412Y322750D01*
X530250Y322750D01*
X552750Y323250D02*
X553500Y322500D01*
X560250Y322500D01*
X579250Y322750D02*
X579750Y323250D01*
X591000Y323250D01*
X611250Y273250D02*
X618500Y273250D01*
X620250Y275000D01*
X620250Y279000D01*
X641250Y272750D02*
X649500Y272750D01*
X650250Y273500D01*
X650250Y276750D01*
X670500Y276000D02*
X671000Y275500D01*
X680250Y275500D01*
X702250Y275000D02*
X702750Y274500D01*
X710250Y274500D01*
X733000Y271750D02*
X733500Y271250D01*
X740250Y271250D01*
X748750Y271000D02*
X752500Y274750D01*
X752500Y277000D01*
D14*
X271000Y274750D02*
X294000Y274750D01*
X293750Y279750D02*
X293750Y279750D01*
X293750Y279750D02*
X271000Y279750D01*
D15*
X293500Y284750D02*
X271000Y284750D01*
D16*
X429000Y323500D02*
X429500Y324000D01*
X440750Y324000D01*
X462750Y321750D02*
X470750Y321750D01*
X471000Y321500D01*
D17*
X293500Y274500D02*
D03*
X293750Y279750D02*
D03*
X293750Y284750D02*
D03*
X293750Y290000D02*
D03*
X294250Y295250D02*
D03*
X298250Y309750D02*
D03*
X294000Y314750D02*
D03*
X348750Y281500D02*
D03*
X366000Y293500D02*
D03*
X382750Y270250D02*
D03*
X426000Y293250D02*
D03*
X440750Y324000D02*
D03*
X471000Y321500D02*
D03*
X500250Y322000D02*
D03*
X530250Y322750D02*
D03*
X560250Y322500D02*
D03*
X591000Y323250D02*
D03*
X620250Y279000D02*
D03*
X650250Y276750D02*
D03*
X680250Y275500D02*
D03*
X710250Y274500D02*
D03*
X740250Y271250D02*
D03*
X748750Y271000D02*
D03*
X406000Y310750D02*
D03*
X388750Y324250D02*
D03*
X406250Y284000D02*
D03*
X377000Y313000D02*
D03*
X380750Y324250D02*
D03*
X358750Y323000D02*
D03*
X347750Y313500D02*
D03*
X344750Y309250D02*
D03*
X339750Y305500D02*
D03*
M02*
