G04*
G04 #@! TF.GenerationSoftware,Altium Limited,Altium Designer,23.2.1 (34)*
G04*
G04 Layer_Color=128*
%FSLAX44Y44*%
%MOMM*%
G71*
G04*
G04 #@! TF.SameCoordinates,CC52EDE5-58F4-4033-9B0D-95DD7DFE7826*
G04*
G04*
G04 #@! TF.FilePolarity,Positive*
G04*
G01*
G75*
%ADD18R,0.4000X0.5500*%
%ADD19R,0.4000X0.6000*%
%ADD20R,2.3500X2.3500*%
%ADD21O,0.8000X0.2000*%
%ADD22O,0.2000X0.8000*%
D18*
X353650Y271500D02*
D03*
X363850Y271500D02*
D03*
X363850Y279855D02*
D03*
X363850Y313500D02*
D03*
X353650Y313500D02*
D03*
X353650Y279855D02*
D03*
D19*
X353750Y322250D02*
D03*
X363750Y322250D02*
D03*
D20*
X392750Y297500D02*
D03*
D21*
X372750Y285500D02*
D03*
X372750Y289500D02*
D03*
X372750Y293500D02*
D03*
X372750Y297500D02*
D03*
X372750Y301500D02*
D03*
X372750Y305500D02*
D03*
X372750Y309500D02*
D03*
X412750Y301500D02*
D03*
X412750Y297500D02*
D03*
X412750Y293500D02*
D03*
X412750Y289500D02*
D03*
X412750Y285500D02*
D03*
X412750Y305500D02*
D03*
X412750Y309500D02*
D03*
D22*
X380750Y277500D02*
D03*
X384750Y277500D02*
D03*
X388750Y277500D02*
D03*
X392750Y277500D02*
D03*
X396750Y277500D02*
D03*
X400750Y277500D02*
D03*
X404750Y277500D02*
D03*
X404750Y317500D02*
D03*
X400750Y317500D02*
D03*
X396750Y317500D02*
D03*
X392750Y317500D02*
D03*
X388750Y317500D02*
D03*
X384750Y317500D02*
D03*
X380750Y317500D02*
D03*
M02*
