G04*
G04 #@! TF.GenerationSoftware,Altium Limited,Altium Designer,23.2.1 (34)*
G04*
G04 Layer_Physical_Order=2*
G04 Layer_Color=36540*
%FSLAX44Y44*%
%MOMM*%
G71*
G04*
G04 #@! TF.SameCoordinates,0AD4D7AC-D867-4B75-8E25-60184D9ECC70*
G04*
G04*
G04 #@! TF.FilePolarity,Positive*
G04*
G01*
G75*
%ADD17C,0.2000*%
%ADD18C,0.3500*%
G36*
X381500Y282039D02*
X345499Y282039D01*
X345499Y312961D01*
X381500Y312961D01*
X381500Y282039D01*
X381500Y282039D02*
G37*
%LPC*%
G36*
X352296Y311250D02*
X351202Y311250D01*
X350192Y310831D01*
X349418Y310058D01*
X348999Y309047D01*
X348999Y307953D01*
X349418Y306942D01*
X350192Y306169D01*
X351202Y305750D01*
X352296Y305750D01*
X353307Y306169D01*
X354081Y306942D01*
X354499Y307953D01*
X354499Y309047D01*
X354081Y310058D01*
X353307Y310831D01*
X352296Y311250D01*
X352296Y311250D02*
G37*
G36*
X352296Y300000D02*
X351202Y300000D01*
X350192Y299581D01*
X349418Y298808D01*
X348999Y297797D01*
X348999Y296703D01*
X349418Y295692D01*
X350192Y294919D01*
X351202Y294500D01*
X352296Y294500D01*
X353307Y294919D01*
X354081Y295692D01*
X354499Y296703D01*
X354499Y297797D01*
X354081Y298808D01*
X353307Y299581D01*
X352296Y300000D01*
X352296Y300000D02*
G37*
G36*
X375546Y303250D02*
X374452Y303250D01*
X373442Y302831D01*
X372668Y302058D01*
X372249Y301047D01*
X372249Y299953D01*
X372668Y298942D01*
X373442Y298169D01*
X374034Y297923D01*
X374034Y296577D01*
X373442Y296331D01*
X372668Y295558D01*
X372249Y294547D01*
X372249Y293453D01*
X372668Y292442D01*
X373442Y291669D01*
X374452Y291250D01*
X375546Y291250D01*
X376557Y291669D01*
X377331Y292442D01*
X377749Y293453D01*
X377749Y294547D01*
X377331Y295558D01*
X376557Y296331D01*
X375965Y296577D01*
X375965Y297923D01*
X376557Y298169D01*
X377331Y298942D01*
X377749Y299953D01*
X377749Y301047D01*
X377331Y302058D01*
X376557Y302831D01*
X375546Y303250D01*
X375546Y303250D02*
G37*
%LPD*%
D17*
X293750Y274750D02*
X293750Y293250D01*
X299500Y299000D01*
X347499Y299000D01*
X351825Y303326D01*
D18*
X293750Y274750D02*
D03*
X351749Y297250D02*
D03*
X363749Y285250D02*
D03*
X369749Y285250D02*
D03*
X374999Y294000D02*
D03*
X378249Y297250D02*
D03*
X374999Y300500D02*
D03*
X369749Y308500D02*
D03*
X363749Y308500D02*
D03*
X351749Y308500D02*
D03*
M02*
