G04*
G04 #@! TF.GenerationSoftware,Altium Limited,Altium Designer,23.2.1 (34)*
G04*
G04 Layer_Physical_Order=4*
G04 Layer_Color=16711680*
%FSLAX44Y44*%
%MOMM*%
G71*
G04*
G04 #@! TF.SameCoordinates,0AD4D7AC-D867-4B75-8E25-60184D9ECC70*
G04*
G04*
G04 #@! TF.FilePolarity,Positive*
G04*
G01*
G75*
%ADD15C,0.1000*%
%ADD16C,0.3000*%
%ADD18C,0.3500*%
%ADD19R,0.2500X0.3000*%
%ADD20R,0.5500X0.3500*%
%ADD21R,0.5500X0.3000*%
%ADD22R,0.5500X0.4000*%
D15*
X351749Y308500D02*
X355249Y312000D01*
X377999Y312000D01*
X381500Y308499D01*
X381500Y295751D01*
X379749Y294000D01*
X374999Y294000D01*
X364499Y294000D01*
X363749Y294750D01*
X363749Y299750D02*
X365878Y299750D01*
X366628Y300500D01*
X374999Y300500D01*
X378249Y297250D02*
X369749Y297250D01*
X369749Y303750D02*
X369749Y303750D01*
X369749Y308500D01*
X363749Y308500D02*
X363749Y304750D01*
X363749Y289750D02*
X363749Y285250D01*
X369749Y285250D02*
X369749Y285250D01*
X369749Y285250D02*
X369749Y290750D01*
D16*
X351749Y297250D02*
X357749Y297250D01*
X357749Y303750D01*
X357749Y297250D02*
X357749Y290750D01*
D18*
X293750Y274750D02*
D03*
X351749Y297250D02*
D03*
X363749Y285250D02*
D03*
X369749Y285250D02*
D03*
X374999Y294000D02*
D03*
X378249Y297250D02*
D03*
X374999Y300500D02*
D03*
X369749Y308500D02*
D03*
X363749Y308500D02*
D03*
X351749Y308500D02*
D03*
D19*
X363749Y289750D02*
D03*
X363749Y294750D02*
D03*
X363749Y299750D02*
D03*
X363749Y304750D02*
D03*
D20*
X369749Y290750D02*
D03*
X369749Y303750D02*
D03*
D21*
X369749Y297250D02*
D03*
D22*
X357749Y290750D02*
D03*
X357749Y297250D02*
D03*
X357749Y303750D02*
D03*
M02*
